<?xml version="1.0" encoding="UTF-8"?>
<svg version="1.1" viewBox="0 0 2048 1228" width="645" height="387" xmlns="http://www.w3.org/2000/svg">
<path transform="translate(595)" d="m0 0h851l4 5 10 15 13 17 13 18 12 16 12 17 9 11 9 13 15 20 11 16 12 14 8 13 12 15 13 19 7 9 10 13 9 13 9 11 9 13 10 13 13 18 6 8 10 12 9 14 4 5v3l-9 6-5 5-8 6-14 10-9 8-8 5h-4l-11-15-9-11-10-15-9-10-10-15-11-13-9-13-10-14v-2l-3-1-11-15-7-11-8-8-7-11-7-9-9-12-13-18-9-11-10-14-6-8-8-10-7-11-10-12-14-19-9-13-7-8-6-8-772 1-7 9-9 11-7 11-7 9-8 10-13 18-6 8-10 13-7 11-9 10-6 9-9 12-5 6-10 14-7 11-9 9-7 11-8 11-6 6-4 7-8 11-7 10-9 10-10 15-7 8-8 11-6 9-7 9-3 1-17-9-12-6-8-6-16-8-7-4 2-6 8-12 13-17 13-18 4-6 6-7 10-15 7-9 6-8 7-11 10-13 13-18 9-13 7-8 10-16 10-13 13-18 6-9 8-9 7-11 9-12 8-11 13-19 8-10 10-15 9-10 8-13z" fill="#034D8F"/>
<path transform="translate(188,581)" d="m0 0 4 1 7 8 10 13 9 10 11 13 3 4-3 9-8 12-8 11-10 16-7 11-8 10-9 15-8 12-12 17-8 14-3 4 69 1 172 1h254l6-11 4-6 16-32 6-9 8-16 9-17 6-9 11-23 6-11 4-5 2-4 4 1 20 8 15 8 20 9 1 3-6 14-10 24-8 16-11 26-15 33-10 23-11 24-11 26-2 4h-695l2-6 11-13 9-14 10-13 13-18 7-10 11-14 9-14 11-14 16-23 9-11 12-18 9-11 11-16 8-10 10-14 8-12 9-10 8-13z" fill="#034D8F"/>
<path transform="translate(1078,356)" d="m0 0h20l17 4 16 7 6 5 5-1 19-8 13-3 16-1 14 2 13 5 9 7 15 14 6 9 7 14 1 43v74l-1 89-70 1-5-1-1-6v-154l-3-3-11-4h-9l-10 4h-2l-1 162h-79l-1-1-1-162-5-4-6-3-9-1-9 3-5 4-1 162-1 1h-74l-1-2v-195l1-58h66l11 7 8 7 6 1 11-9 15-6z" fill="#034D8F"/>
<path transform="translate(1874,587)" d="m0 0 5 1 8 12 9 13 6 8 10 14 8 12 8 10 7 11 12 16 13 19 8 11 9 12 7 11 14 19 14 21 9 11 10 15 10 13 6 8v2l-2 1h-659l-4-5-15-25-10-19-7-10-10-18-6-12-6-8-4-8 1-3 16-12 5-5 8-7 13-10 8-8h2l8 17 8 16 12 21 13 27 1 1 152 1h337l7 1-12-22-8-9-9-15-13-18-11-17-8-11-6-8-9-15-8-12-1-4 9-7 8-8 5-7 8-6 10-10z" fill="#034D8F"/>
<path transform="translate(605,248)" d="m0 0h73l2 1v366l-3 2-31 4h-67l-27-4-33-12-16-8-17-12-10-9-7-10-9-11-8-19-4-15-3-19-1-17 1-15 4-17 6-17 8-13 7-8 7-9 8-7 13-11 13-8 20-10 12-5 16-5 21-4h14l6 2 2-33 2-76zm-8 184-20 6-12 6-10 9-6 12-3 15v9l3 17 4 8 9 10 9 8 14 6 11 3h4l1-7v-95l-1-7z" fill="#034D8F"/>
<path transform="translate(1481,355)" d="m0 0h21l16 2 22 6 11 6 9 6 11 9 7 8 4 6 6 7 8 18 6 21 4 18 1 8v33l-1 6-19 1h-109l5 10 5 8 16 10 11 4 24 2 24-2 32-8 11-4 4 1-2 26-3 23-3 9-7 6-12 6-21 7-21 5-8 2h-39l-21-6-10-3-17-8-10-7-11-9-8-7-10-15-8-16-6-15-4-19-1-8v-34l4-25 4-13 15-30 8-11 13-13 12-9 12-6 14-4zm23 69-8 2-9 5-6 9-1 5 8 1h46l1-4-8-11-8-5-8-2z" fill="#034D8F"/>
<path transform="translate(1724,355)" d="m0 0h24l14 2 21 6 14 7 18 14 7 8 13 19 6 15 5 18 4 25v39l-1 1-126 2 3 7 7 10 7 6 13 6 6 2 9 1h29l15-2 31-8 6-3h4l-3 36-3 23-7 6-16 7-18 6-28 7-6 1h-23l-13-1-19-6-13-4-21-11-8-7-8-6-7-7-10-16-4-5-8-22-5-24-1-12v-25l4-25 4-15 8-19 8-11 9-14 5-5 18-14 10-5 15-5zm23 69-8 2-8 5-4 5-3 9 5 1h49l-1-7-4-6-5-4-9-4-5-1z" fill="#034D8F"/>
<path transform="translate(316,356)" d="m0 0h11l22 3 14 4 11 6 11 8 15 15 11 18 11 27 3 11 3 16 1 12v14l-1 11v15l2 17 6 17 6 9-1 4-5 12-14 28-5 8-2 4-18-9-17-7-13-1-8 3-14 10-10 6-16 4h-46l-15-4-23-13-8-8-11-17-3-5-5-22-1-8v-9l4-21 6-10 6-8 11-11 11-7 12-6 18-6 27-5 33-3 5-5 3-8v-11l-4-6-6-3-17-2-38 2-24 4-16 4h-5l-1-48 4-4 23-11 15-6 19-5zm24 153-16 3-10 5-5 5-6 8-2 7 1 8 3 6 9 6 5 2h7l9-4 4-4 5-11 3-11 2-14v-6z" fill="#034D8F"/>
<path transform="translate(814,356)" d="m0 0 20 1 15 3 13 4 16 10 11 9 11 15 7 11 8 20 6 23 4 17 1 12v10l-2 14 1 18 4 18 8 16 1 5-9 20-11 20-5 10-1 3-12-6-20-9-10-2-9 1-12 6-7 6-8 5-18 5h-47l-14-4-20-11-9-7-10-14-5-8-3-9-3-14v-28l3-12 6-11 11-13 10-8 13-8 21-7 23-5 38-4 5-2 4-8 1-3v-10l-3-5v-2l-9-3-14-2-27 1-22 2-19 4-12 3h-4v-50l32-16 15-5 12-3zm22 153-13 2-12 5-8 7-4 9-1 10 3 9 6 5 9 3h7l10-5 4-5 4-10 4-18v-12z" fill="#034D8F"/>
<path transform="translate(961,105)" d="m0 0h115l4 4 6 11 18 36 6 10 14 30 6 9 11 23 10 19 16 32 1 4h-291l3-9 11-24 11-23 8-16 9-20 9-17 11-25 8-16 10-22zm49 67-7 14-13 31v3l67 1-1-5-16-32-6-9-3-3z" fill="#034D8F"/>
<path transform="translate(1392,996)" d="m0 0h16l12 3 12 6 7 7 6 11 5 8v197h-71l-1-5v-158l-2-5-12-6-8 1-6 4-1 1-1 159-1 8-2 1h-64l-1-2v-226h67l1 1v9l15-6 14-5z" fill="#034D8F"/>
<path transform="translate(480,996)" d="m0 0h14l12 3 13 7 7 8 9 17v197h-72l-1-167-4-4-8-3-8 1-6 4-1 1-1 159-1 9h-66l-1-2v-226h67l1 1v9l20-8 13-4z" fill="#034D8F"/>
<path transform="translate(744,995)" d="m0 0h18l28 1 1 3v161l2 4 7 3h10l8-4 1-13v-152l1-1h67l1 1v225l-7 1h-56l-5-1v-11l-10 5-11 5-19 5-1 1h-25l-15-8-5-5-9-10-4-8-2-8v-192l1-1z" fill="#034D8F"/>
<path transform="translate(1737,993)" d="m0 0h21l15 3 18 6 17 9 5 4 7 8 12 15 7 15 5 18 3 20v36l-1 1-52 1h-60l6 11 16 14 12 4 7 1h26l17-3 17-5 12-5h3v9l-5 42-2 4-28 12-18 6-9 2-11 1h-20l-17-2-25-10-17-9-10-9-9-9-12-19-4-11-5-19-2-19v-17l3-24 6-20 9-17 8-12 10-12 16-10 11-5 12-4zm20 56-9 3-8 6-5 9 1 2 48 1 1-3-5-9-7-6-10-3z" fill="#034D8F"/>
<path transform="translate(1151,991)" d="m0 0h10l14 2 15 5 12 5 10 8 5 5 9 10 8 16 8 19 5 20 1 12v16l-1 16 1 13 5 18 6 11-1 5-6 14-8 16-4 6-5 6-21-9-12-4h-8l-9 4-7 6-8 4-13 5-5 1h-36l-12-3-16-8-10-6-8-9-7-14-5-15-2-11v-9l3-13 5-12 8-10 6-7 15-9 16-6 29-7 14-2 15-1 5-4 2-4 1-9-2-6-5-3-9-3h-29l-20 2-16 3-12 4-4-1v-43l16-8 12-5 22-7 13-3zm24 131-12 2-7 3-7 4-6 4-4 7-1 11 3 7 6 5 3 1h12l5-3 7-9 4-11 1-5v-15z" fill="#034D8F"/>
<path transform="translate(1598,984)" d="m0 0h27l20 3 6 2v55l-10-1-9-2-19-1-15 1-19 7-12 9-6 9-5 5-5 11-2 9-1 19 2 17 5 12 15 18 10 6 12 4 10 2h29l19-3 1 1v50l-9 3-23 4-14 1h-30l-18-2-13-5-21-11-12-9-10-10-9-11-6-9-7-15-5-17-3-28 1-18 3-17 7-20 14-20 12-13 12-10 13-8 12-5 11-6 18-4z" fill="#034D8F"/>
<path transform="translate(1293,358)" d="m0 0h74l1 1v269l-5 13-7 12-11 14-14 14-13 10-7 4-4-2-9-11-6-9-9-10-8-11-7-9v-2l8-7 7-8 5-6 3-8 1-8z" fill="#034D8F"/>
<path transform="translate(622,996)" d="m0 0h13l19 2 22 5 18 6 4 2-1 16-3 21-2 5-6-1-13-5-10-2h-19l-9 3-9 7-2 4v8l6 10 10 10 10 6 11 7 14 15 6 9 6 14 4 16v24l-4 12-6 12-9 8-14 8-9 3-14 3h-26l-18-2-17-3-21-7v-51l7 1 15 5 19 4 18 1 8-4 2-2 1-4v-11l-4-11-9-8-14-10-12-11-8-7-11-15-7-13-4-8-1-3v-20l3-9 8-11 11-13 14-8 10-4 13-3z" fill="#034D8F"/>
<path transform="translate(1042,995)" d="m0 0 3 1v61h-3l-8-5-13-5h-10l-9 3-8 4-1 7-1 160h-65l-1-1v-222l37-1h29l2 1 1 12 16-8 17-5z" fill="#034D8F"/>
<path transform="translate(265 1e3)" d="m0 0h66l1 2v194l-1 25-64 1-3-1v-220z" fill="#034D8F"/>
<path transform="translate(1319,235)" d="m0 0h18l11 4 10 6 6 7 5 12 2 9v8l-4 13-4 8-8 8-12 6-8 2h-15l-11-3-10-6-6-7-6-13-2-7v-9l3-12 5-10 8-9 10-5z" fill="#034D8F"/>
<path transform="translate(281,892)" d="m0 0h21l9 4 8 7 6 10 3 10-1 13-8 16-7 6-11 4-4 1h-11l-11-3-9-7-7-9-4-9v-15l3-9 11-13z" fill="#034D8F"/>
</svg>
