<?xml version="1.0" encoding="UTF-8"?>
<svg version="1.1" viewBox="0 0 2048 1024" width="200" height="100" xmlns="http://www.w3.org/2000/svg">
<path transform="translate(1010)" d="m0 0h26l9 8 38 28 21 16 38 28 16 12 19 14 21 16 19 14 21 16 14 10 13 10 19 14 21 16 18 13 19 14 6 4h8l14-4 168-40 80-19 102-24 15-3 9 1 9 9 8 10 14 15 7 8 11 12 10 11 7 8 11 12 9 11 9 9 9 11 8 8 7 8 9 10 7 8 11 12 7 8 11 12 9 11 8 8 7 8 9 10 11 12 12 14 12 13 7 8 18 20 7 8 10 11 7 8 11 12 11 13v8l-8 20-9 30-13 41-13 42-22 70-18 57-23 73-15 48-13 42-3 9-6 4-66 16-294 70-41 11-3 1h-45l-9-12-11-12-9-11-9-10-9-11-12-14-11-12-7-8-9-10-9-11-7-7-9-11-9-10-9-11-12-13-7-8-9-10-7-8-9-10-7-8-11-13-12-14-10-11-7-8-9-10-9-11-10-11-9-11-6-5-2-1h-331l-5 2-10 11-9 11-12 13-9 11-12 13-9 11-9 10-9 11-13 14-9 11-13 14-9 11-10 11-9 11-12 13-9 11-14 15-9 11-11 12-7 8-12 14-9 10-7 8-9 10-9 11-7 7-5 7h-46l-34-10-62-15-77-18-179-42-50-12-5-3-6-15-15-47-12-39-10-31-13-42-17-55-17-54-10-32-15-49-14-45-5-16-5-10v-7l7-7 9-11 9-9 9-11 7-7 7-8 11-12 7-8 13-15 12-13 12-14 10-11 7-8 9-10 15-16 7-8 11-12 9-11 8-8 9-11 12-13 7-8 9-10 14-15 7-8 11-12 9-11 13-14 9-11 16-16 7-9 2-2h7l29 7 83 19 111 26 160 38h7l10-8 16-12 15-11 16-12 21-16 11-8 28-21 19-14 13-10 18-13 18-14 18-13 17-13 19-14 12-9 21-16 18-13 12-9 6-5z" fill="#FDFDFD"/>
<path transform="translate(1715,209)" d="m0 0h7l8 7 8 8 9 11 11 13 9 10 9 11 11 12 9 11 14 15 9 11 16 17 7 8 11 12 7 8 11 12 7 8 12 13 7 8 10 11 7 8 24 26 9 11 11 12 9 11 8 8 3 4-1 12-5 20-13 41-11 35-14 45-17 54-24 76-11 36-13 40-7 18-4 4-19 5-117 27-49 12-71 17-89 21-26 6-6-1-8-10-13-15-12-13-36-40-9-11-11-12-7-8-11-12-9-10-7-8-14-15-12-13-9-10-9-11-11-12-9-11-14-15-7-8-11-12-7-8-14-15-9-11-3-4 3-10 11-33 15-49 23-73 40-128 18-59 10-29 5-3 29-8 206-48 108-26z" fill="#BF983E"/>
<path transform="translate(323,208)" d="m0 0 11 2 153 36 195 46 16 4 10 30 16 54 21 67 15 48 18 58 15 48 16 50 8 26-1 6-12 14-11 12-12 13-11 12-7 8-13 14-7 8-9 10-7 8-9 10-7 8-22 24-18 20-11 12-7 8-11 12-7 8-12 14-15 16-11 12-9 11-12 14-9 10-2 3-16-2-60-15-72-17-156-37-69-16-6-3-3-5-7-21-11-35-14-45-17-54-15-48-36-114-10-33-4-16v-8l10-13 8-9 9-11 13-13 9-11 10-10 7-8 10-11 7-8 13-14 7-8 11-12 7-8 22-24 7-8 11-12 7-8 11-12 12-13 7-8 9-10 12-14 9-10 9-11 13-16z" fill="#BF983E"/>
<path transform="translate(1024,68)" d="m0 0 5 2 15 12 16 12 17 13 18 13 13 10 19 14 16 12 13 10 18 13 18 14 17 12 17 13 18 13 13 10 19 14 16 12 18 13 9 7 2 2v8l-12 35-14 45-54 171-9 29-14 45-12 36-2 3-10 1-74 1h-45l-196-1-35-1-3-5-14-42-20-64-12-38-22-70-23-73-19-61-4-15 1-5 9-8 16-12 21-16 19-14 21-16 11-8 38-28 21-16 18-13 13-10 16-12 38-28 16-12 19-14 17-12z" fill="#BF983E"/>
<path transform="translate(1010)" d="m0 0h26l9 8 38 28 21 16 38 28 16 12 19 14 21 16 19 14 21 16 14 10 13 10 19 14 21 16 18 13 19 14 6 4h8l14-4 168-40 80-19 102-24 15-3 9 1 9 9 8 10 14 15 7 8 11 12 10 11 7 8 11 12 9 11 9 9 9 11 8 8 7 8 9 10 7 8 11 12 7 8 11 12 9 11 8 8 7 8 9 10 11 12 12 14 12 13 7 8 18 20 7 8 10 11 7 8 11 12 11 13v8l-8 20-9 30-13 41-13 42-22 70-18 57-23 73-15 48-13 42-3 9-6 4-66 16-294 70-41 11-3 1h-45l-9-12-11-12-9-11-9-10-9-11-12-14-11-12-7-8-9-10-9-11-7-7-9-11-9-10-9-11-12-13-7-8-9-10-7-8-9-10-7-8-11-13-12-14-10-11-7-8-9-10-9-11-10-11-9-11-6-5-2-1h-331l-5 2-10 11-9 11-12 13-9 11-12 13-9 11-9 10-9 11-13 14-9 11-13 14-9 11-10 11-9 11-12 13-9 11-14 15-9 11-11 12-7 8-12 14-9 10-7 8-9 10-9 11-7 7-5 7h-46l-34-10-62-15-77-18-179-42-50-12-5-3-6-15-15-47-12-39-10-31-13-42-17-55-17-54-10-32-15-49-14-45-5-16-5-10v-7l7-7 9-11 9-9 9-11 7-7 7-8 11-12 7-8 13-15 12-13 12-14 10-11 7-8 9-10 15-16 7-8 11-12 9-11 8-8 9-11 12-13 7-8 9-10 14-15 7-8 11-12 9-11 13-14 9-11 16-16 7-9 2-2h7l29 7 83 19 111 26 160 38h7l10-8 16-12 15-11 16-12 21-16 11-8 28-21 19-14 13-10 18-13 18-14 18-13 17-13 19-14 12-9 21-16 18-13 12-9 6-5zm10 27-8 7-13 11-28 22-16 12-13 10-16 12-19 14-21 16-14 10-18 14-14 10-13 10-38 28-18 14-14 10-21 16-29 20h-7l-266-63-53-12-44-10-17-4h-6l-12 12-9 11-10 11-9 11-13 15-10 11-9 11-15 16-7 8-15 16-9 10-7 8-12 14-10 11-9 11-7 7-7 8-12 13-11 12-26 30-33 36-15 15-7 8-7 7-1 4 16 52 21 68 18 57 21 66 13 43 17 55 12 40 7 20 5 8 5 4 13 4 46 11 43 10 236 56 59 13 10 3 10-10 9-11 11-12 9-11 14-15 9-11 13-14 9-11 13-14 7-8 12-14 9-10 9-11 12-13 9-11 15-16 9-11 11-12 9-11 10-11 9-11 9-10 7-8 24-28 9-10 3-1 43-1 312 1 7 1 2 4 9 9 9 11 14 15 7 8 11 12 9 11 10 11 9 11 12 13 7 8 11 12 9 10 12 14 13 15 9 10 9 11 13 14 7 8 9 10 36 42 9 10 7 8 11 13 8 10 4 3 9-2 67-16 85-19 77-18 50-12 81-19 35-8 9-4 4-6 11-34 17-55 19-62 17-55 20-64 16-50 17-56 7-24v-8l-10-13-16-17-9-10-12-13-36-40-14-15-7-8-11-13-10-11-7-8-12-13-11-12-7-8-12-13-9-11-12-13-9-11-14-15-9-11-11-11-7-8-13-14-9-12-10-13-5-1-28 6-103 25-54 13-52 12-50 12-72 17-20 5-7 2-11-6-17-12-18-14-16-12-21-16-12-9-19-14-36-27-19-14-21-16-19-14-21-16-19-14-16-12-18-13-12-9-17-13-11-7z" fill="#BF983E"/>
<path transform="translate(904,284)" d="m0 0h37l59 1 1 1v42l-1 1-18 1 1 33v32l7-4 12-11 16-16h2v-2l8-7 14-14 2-3v-3l-13-4-1-5v-24l1-17 45-1h48l1 1v45l-2 5-10 10-8 7-7 7-8 7-10 9-8 7-14 13-10 8 6 7 9 10 13 14 7 8 15 16 8 8 7 8 18 18 10 8 4 3 1 5v32l-1 1h-112l-2-1-1-6v-34l6-2 11-3 5-2-9-11-14-14-8-7-16-15-7-8-8-7-5-5-1 8v64h10l7 2v39l-4 2-76 1-16-1-2-2-1-9 1-29 1-2h23v-170h-18l-6-2v-42z" fill="#FDFDFD"/>
<path transform="translate(417,446)" d="m0 0 4 1 5 5 11 12 14 19 13 18 14 19 12 17 14 19 13 18 12 16 26 36 6 9 4 1 6-2h9l4 4 8 24 3 8-1 4-16 6-42 13-26 7-8 1-3-8-6-20-2-14 6-3 11-3-21-33-9 1-24 7-26 8-8 3v13l1 28 18-3h7l3 17 2 10 3 6 1 5-6 4-51 16-24 6-5 1h-7l-3-9-6-21-1-3v-8l16-3h3l-3-88-2-53-1-38-1-3-6 3-9 1-5-3-2-3-5-22-5-13-1-3 8-4 33-11 41-13z" fill="#FDFDFD"/>
<path transform="translate(1600,448)" d="m0 0 9 2 76 23 8 4-8 31-3 6-11-2-5-1h-7l-10 34-14 47-11 37-8 28-2 10 8 1 11 4-1 9-5 19-3 15-3 1-15-5-49-14-24-8-5-3-1-3 7-17 1-3 1-14 4-4 6 1 12 4 1-6 9-28 24-81 13-42-13-2-4-3v-9l6-15 4-13z" fill="#FDFDFD"/>
<path transform="translate(417,531)" d="m0 0 6 2 8 7 11 15 12 18 5 7-1 2-15 5-12 5-9 3h-3l-1-10-1-31z" fill="#BF983E"/>
</svg>
