<?xml version="1.0" encoding="UTF-8"?>
<svg version="1.1" viewBox="0 0 900 900" width="225" height="225" xmlns="http://www.w3.org/2000/svg">
<path transform="translate(0)" d="m0 0h900v900h-900z" fill="#FEFFFE"/>
<path transform="translate(436,294)" d="m0 0 3 3 7 22 17 50 10 35 5 22 3 22 4-4 6-9 11-11-1-7-14-47-5-16 3-11 6-17 3-1 4 15 18 64 3 8 6-2 11-4 5-1h20l14 4 11 7 7 7 7 11 4 13v20l-2 8-4 9-6 8-5 5-6 5-10 5-15 4-18 2-1 21-3 16-2 3-3-1-2-21-3-18-4-3-12-3-16-7-14-9-5-6-3-1 1 8 2 39 2 15h-3l-7-14-11-27-10-22-5-12-3-2-3 9-5 9-3 19-5 16-5 10-8 10-9 8-16 8h-2l1-3 6-5 7-8 6-8 9-15 6-16 1-7-18 10-13 4-6 2-7 11-9 11-8 7-8 5-15 5h-6l4-4 14-8 6-5 9-11 6-9-6-1-15-2-16-5-12-6-8-7-6-9-5-12-1-5v-17l4-14 7-12 9-9 13-7 12-3h16l16 4 12 5 12 8 8 7 10 14 6 12 4 14 3-1 3-12 1-13h3l7 9 10 30 6 17 3 7 2 1-6-31-6-27-4-15 4 1 5 5 8 16 6 11 2 1-3-14-12-45-9-29-16-43-7-17 1-7 8-17z" fill="#26810B"/>
<path transform="translate(351,417)" d="m0 0h18l13 5 11 7 11 10 7 10 5 10 2 7 1 15-3 6-16 8-14 5-3-1 2-18-1-19-3-15-4-11-7-10-3-2-2 4-4 6 5 2 5 8 4 13 2 10 1 12-2 15-4 8-2 2h-17l-13-4-10-7-7-8-5-10-2-8v-13l4-12 7-11 9-8 8-4z" fill="#FEFFFE"/>
<path transform="translate(537,417)" d="m0 0h16l12 5 8 6 6 8 4 9 1 6v13l-3 14-6 11-7 7-12 6-8 2h-10l-2-6-4-26-7-33-3-12v-6l10-3z" fill="#FEFFFE"/>
<path transform="translate(341,405)" d="m0 0h16l8 2v1h-17v8l-1 3-9 4-8 6-7 9-5 12-1 4v13l4 13 6 9 8 7 2 1-1 3 3 4v2l-16-2-11-7-8-9-6-13-2-8v-17l4-14 7-12 9-9 13-7z" fill="#25800A"/>
<path transform="translate(541,405)" d="m0 0h20l14 4 11 7 7 7 7 11 4 13v20l-2 8-4 9-6 8-5 5-6 5-5 3-12 1-4-2 3-1v-5l8-6 6-8 4-9 2-11v-13l-2-9-6-11-8-7-2-4-6-4-2-5-1-3h-21l1-2z" fill="#25800A"/>
<path transform="translate(503,433)" d="m0 0 4 1 10 40 5 24v3l-7-1-18-8-14-9-4-4v-6l7-17 7-11 7-9z" fill="#FEFFFE"/>
<path transform="translate(392,363)" d="m0 0h11l10 5 8 8 3 7 1 9-2 10-7 10-4 4h-3l1-4 6-8 2-3v-3l-6 2-5 2h-14l-8-4-6-7-2-5 1-9 3-6 8-7z" fill="#27830D"/>
<path transform="translate(396,370)" d="m0 0h7l8 4 7 8 2 9-6 4-5 1h-14l-7-4-3-6 1-7 6-7z" fill="#FEFFFE"/>
<path transform="translate(367,570)" d="m0 0h5l4 5 8 20 4 9 1 3-1 1h-6l-5-7-4-1h-9l-5 7-5 1-2-2 11-28z" fill="#27830D"/>
<path transform="translate(454,580)" d="m0 0 8 1 5 6v20l-17 1-4-2-2-5 1-5 8-4 7-1v-5h-6l-4 2-1 2-3-1v-5l4-3z" fill="#27830D"/>
<path transform="translate(473,570)" d="m0 0 5 1 1 1 1 9h13l2 2 1 4 1 20-6 1-1-1-1-19-1-1h-6l-3 3v17l-4 1-2-1-1-23v-13z" fill="#339419"/>
<path transform="translate(533,407)" d="m0 0h19l4 1 3 4 1 4 7 4v3l-6-2-8-3h-16l-15 3v5h-1l-2-8-2-7 4 1 8-4z" fill="#34961A"/>
<path transform="translate(418,570)" d="m0 0h27l3 2-2 4-8 1-1 2-1 28-1 1h-5l-1-1-1-30-9-1-2-5z" fill="#257F0A"/>
<path transform="translate(503,581)" d="m0 0h5l1 3v18h7l2-1 1-20h6l1 1v25l-6 1h-13l-4-4-1-5v-17z" fill="#29850E"/>
<path transform="translate(365,407)" d="m0 0 11 3 14 7 11 8-3 2v-2l-6-2-3-2v-2h-3v-2l-10-2-1-2-8-1v2l9 3v2h4v2l-11-3h-22l-1-2h2l-1-6 1-2z" fill="#339519"/>
<path transform="translate(531,467)" d="m0 0h1l6 36h10l13-4h2v4l-2 1 8 1h5l-3 2-15 4-19 2-1-8-2-6-3-26z" fill="#34961A"/>
<path transform="translate(423,383)" d="m0 0h1l1 9-2 10-7 10-4 4h-3l1-4 6-8 2-3v-3l-6 2-5 2h-14l-3-2h2l-5-6 1-3 7 4h14l9-3 3-2v2h2z" fill="#339519"/>
<path transform="translate(335,498)" d="m0 0 5 1 13 4 17 1-1 5-7 2v2l-18-2-16-5-3-2h9l5 2-4-6z" fill="#339519"/>
<path transform="translate(394,573)" d="m0 0h3l3 7 3 5-4 3-1 3v8l5 5 1 3-8 1-3-1-2-13-2-7-1-5 5-8z" fill="#29850E"/>
<path transform="translate(478,474)" d="m0 0h1l2 6 9 7 15 8 12 5 5 1 1-3v11l2 4-5-3-12-3-14-6 4-1 9 2-2-4-6-2-1-3h-5l-3-3-7-3v-2l-4-2-1-1z" fill="#339519"/>
<path transform="translate(537,581)" d="m0 0h10l1 3-2 3-7 2-1 2v16l-4 1-2-1-1-6 1-19z" fill="#329418"/>
<path transform="translate(486,581)" d="m0 0h7l2 2 1 4 1 20-6 1-1-1-1-19-1-1-8-1 2-4z" fill="#28830D"/>
<path transform="translate(536,513)" d="m0 0h1v21l-3 16-2 3-3-1-1-21h3l3-9z" fill="#34961A"/>
<path transform="translate(418,570)" d="m0 0h27l2 2-11 1-1 4-4 2-1 25h-1l-1-27-9-1-2-5z" fill="#329318"/>
<path transform="translate(387,391)" d="m0 0 8 4h17v5l-5 2h-14l-3-2h2l-5-6z" fill="#34961A"/>
<path transform="translate(394,573)" d="m0 0h3l3 7 2 4-4 1-1 2h-5v7h-1l-2-7-1-5 5-8z" fill="#329418"/>
<path transform="translate(473,586)" d="m0 0 1 2 4 1 1 18-4 1-2-1z" fill="#27820C"/>
<path transform="translate(532,582)" d="m0 0h3v19h2l1 6-4 1-2-1-1-6z" fill="#25800A"/>
<path transform="translate(410,590)" d="m0 0 7 1 2 4-2 3h-10l-3-5 1-2z" fill="#34961A"/>
<path transform="translate(371,409)" d="m0 0 9 3 10 5 11 8-3 2v-2l-6-2-3-2v-2h-3v-2l-10-2-1-2-5-1z" fill="#34961A"/>
<path transform="translate(368,582)" d="m0 0 4 2 2 4v6h-7l-2-4z" fill="#FEFFFE"/>
<path transform="translate(422,399)" d="m0 0 1 3-7 10-4 4h-3l1-4 6-8 5-3z" fill="#29860E"/>
<path transform="translate(459,594)" d="m0 0 2 1v6l-3 2h-6l-2-2v-3z" fill="#FEFFFE"/>
<path transform="translate(485,343)" d="m0 0h1l1 7 2 5-2 5v7l-2-4-3-11z" fill="#34961A"/>
<path transform="translate(478,474)" d="m0 0h1l2 6 9 7 8 5v1h-5l-3-3-7-3v-2l-4-2-1-1z" fill="#34961A"/>
<path transform="translate(541,405)" d="m0 0h20v1l-12 2h-14l1-2z" fill="#2B8911"/>
<path transform="translate(342,540)" d="m0 0 2 1-7 6-3 1 2 2-10 1 4-4z" fill="#339519"/>
<path transform="translate(436,572)" d="m0 0h12l-2 4-9 1-2-4z" fill="#28850E"/>
<path transform="translate(399,503)" d="m0 0 3 1-12 5-10 1 2-2 5-2 10-2z" fill="#34961A"/>
<path transform="translate(450,441)" d="m0 0 2 3 4 12v11h-1l-5-22z" fill="#34961A"/>
<path transform="translate(472,531)" d="m0 0h1l2 15h-3l-4-7 1-3 3 4z" fill="#34961A"/>
<path transform="translate(453,592)" d="m0 0h6v3l-4 2h-5v-3z" fill="#27820C"/>
<path transform="translate(450,581)" d="m0 0 2 1-2 3 2 2-3 3-3-1v-5z" fill="#319116"/>
<path transform="translate(461,588)" d="m0 0 2 2v8l-2 3-2-9z" fill="#34961A"/>
<path transform="translate(416,393)" d="m0 0h3l-1 3h-2v2l-5 1 1-4z" fill="#27830D"/>
</svg>
