<?xml version="1.0" encoding="UTF-8"?>
<svg version="1.1" viewBox="0 0 900 900" width="225" height="225" xmlns="http://www.w3.org/2000/svg">
<path transform="translate(0)" d="m0 0h900v900h-900z" fill="#FCFCFC"/>
<path transform="translate(64,270)" d="m0 0h137l19 3 16 5 15 7 13 8 10 8 6 5v2l3 1 9 11 7 10 8 15 6 17 4 18 1 10v15l-3 20-5 16-5 12-9 16-8 10-10 11-17 13-14 8-17 7-17 4-15 2h-134l-1-1z" fill="#CE1E49"/>
<path transform="translate(64,270)" d="m0 0h137l19 3 16 5 15 7 13 8 10 8 6 5v2l3 1 9 11 7 10 8 15 6 17 4 18 1 10v15l-3 20-5 16-5 12-9 16-8 10-10 11-17 13-14 8-17 7-17 4-15 2h-134l-1-1zm121 26-17 2-18 6-13 7-12 9-5 4-7 8-6 8-7 11-7 19-3 14v26l4 17 6 15 9 15 9 10 5 5 8 7 15 9 15 6 21 4h17l20-4 16-6 15-9 12-11 7-7 9-13 8-17 4-15 1-5v-29l-5-20-11-21-7-9-8-9-13-10-14-8-16-6-10-2-11-1z" fill="#CE1E49"/>
<path transform="translate(185,296)" d="m0 0h11l17 2 13 4 16 8 13 9 11 10 9 12 11 21 5 20v29l-4 17-5 12-7 13-9 11-12 12-15 10-11 5-17 5-12 2h-17l-21-4-15-6-15-9-12-10-9-11-9-14-6-14-4-15-1-5v-26l4-17 6-16 9-14 10-11 5-5 10-8 14-8 13-5 13-3zm-4 21-15 3-16 7-11 8-12 12-8 13-6 14-3 17v12l2 12 4 12 6 12 9 12 7 7 11 8 12 6 13 4 6 1h20l14-3 12-5 11-6 12-11 8-9 7-12 5-15 2-10v-18l-4-17-8-17-8-10-11-11-15-9-13-5-11-2z" fill="#FDFDFD"/>
<path transform="translate(545,292)" d="m0 0h13l15 3 16 8 7 6 7 10 5 11 2 11v19l-3 12-6 11-9 10-11 7-12 5-11 2h-13l-14-3-16-8-7-6-9-13-4-11-2-12v-11l3-15 8-15 10-10 10-6 14-4z" fill="#083D61"/>
<path transform="translate(367,295)" d="m0 0h45l16 3 16 8 8 7 7 11 4 12 1 6v15l-4 15-6 10-5 6-11 8-12 5-15 3h-45l-1-1v-107z" fill="#093D61"/>
<path transform="translate(545,309)" d="m0 0h12l13 4 9 7 7 10 3 10v19l-4 11-6 9-8 6-10 4-5 1h-9l-11-3-8-5-8-9-4-8-2-8v-16l4-11 6-9 8-7 9-4z" fill="#FDFDFD"/>
<path transform="translate(691,292)" d="m0 0h14l16 4 12 7 4 4-1 4-11 9-7-4-4-3-10-3h-12l-11 4-6 4-5 5-6 10-2 6v20l4 12 6 8 8 6 8 3 5 1h9l11-3 8-6 5-3 13 10-1 4-7 6-13 7-13 3h-14l-14-3-16-8-5-4-9-12-5-12-2-7v-23l4-13 6-11 6-7 10-7 11-5z" fill="#083D61"/>
<path transform="translate(185,342)" d="m0 0h10l16 4 14 8v4l-12 10-7-1-10-3h-12l-9 3-8 6-6 8-3 9v14l4 10 9 10 10 5 5 1h8l13-4 4-2 6 3 9 7 1 4-8 6-8 4-11 3h-19l-13-4-9-5-10-9-6-9-5-12-2-10v-10l2-11 4-9 6-10 7-7 11-7 10-4z" fill="#FDFDFD"/>
<path transform="translate(798,292)" d="m0 0h11l12 3 10 5 4 3-2 4-9 10-11-6-6-2h-8l-10 4-4 5-1 6 2 6 5 5 23 8 10 5 6 5 6 12v14l-3 9-4 6-8 7-9 4-9 2h-12l-16-4-9-5-5-4-1-4 12-11 5 3 5 4 7 3 5 1h7l10-4 4-6 1-8-2-5-6-5-18-7-12-5-9-8-4-8-1-4v-11l4-11 6-7 8-5z" fill="#083D61"/>
<path transform="translate(385,312)" d="m0 0h28l13 4 9 7 5 7 3 9v21l-4 10-8 9-12 6-8 2h-26l-1-1v-73z" fill="#FDFDFD"/>
<path transform="translate(642,436)" d="m0 0h19l7 3 3 3 1 2v9l-4 5 6 8 1 9-4 6-7 3-7 1h-15l-1-1v-47z" fill="#083B61"/>
<path transform="translate(805,452)" d="m0 0h12l6 4 2-4 4 1v35l-3 7-6 5-4 1h-10l-8-3-1-6 10 3h10l5-5 3-12h-2l-2 4-6 3h-9l-6-4-4-6-1-10 3-7 5-5z" fill="#031F5E"/>
<path transform="translate(371,436)" d="m0 0h8l3 4 11 29 1 3 2 1 3-9 6-17 4-10 2-1h8l1 1v48h-6v-40l-2 1-7 18-6 16-3 5-4-1-12-31-3-7-1 38-5 1-1-1v-47z" fill="#03225E"/>
<path transform="translate(499,432)" d="m0 0 4 1 1 2v49l-4 1-3-3-7 3h-10l-5-3-5-8v-11l3-6 5-4 6-2 8 1 6 4v-23z" fill="#03215E"/>
<path transform="translate(233,377)" d="m0 0h11l6 3 1 5-2 2h-7l-6-1-1 5 11 3 6 4 2 9-4 6-4 3-3 1h-12l-7-3-1-1v-5l3-2h5l3 2h9l-2-5-13-4-5-5v-8l3-5 4-3z" fill="#FDFDFD"/>
<path transform="translate(445,451)" d="m0 0 8 1 7 6 2 6v6l-8 1h-17l1 5 3 3 8 1 9-4h2l-1 5-6 4-8 1-7-2-7-8-1-4v-8l4-8 6-4z" fill="#03215E"/>
<path transform="translate(574,452)" d="m0 0h12l5 3 3 7v22l-3 1-3-1v-2l-7 3h-10l-5-6v-7l5-5 7-2h10l-2-7-9-1-5 2-4-1 2-4z" fill="#031F5E"/>
<path transform="translate(371,436)" d="m0 0h8l3 4 10 26v3l-5 2-10-25-1 38-5 1-1-1v-47z" fill="#03235F"/>
<path transform="translate(484,456)" d="m0 0 8 1 6 6v10l-5 6-4 2h-6l-6-5-1-2v-11l4-5z" fill="#FDFDFD"/>
<path transform="translate(809,456)" d="m0 0 8 1 5 4 2 5v7l-5 5-3 2h-8l-5-4-2-5v-7l3-5z" fill="#FDFDFD"/>
<path transform="translate(757,452)" d="m0 0 5 1v3l7-4h11l4 5 1 3 1 14v9l-1 2h-5l-1-22-2-5-7-1-5 3-1 3-1 21-5 1-1-1z" fill="#083B61"/>
<path transform="translate(546,451)" d="m0 0 9 1 4 3 1 4-2 1-8-3-6 1-5 5v10l3 5 4 2 9-1 4-2 1 5-6 3h-12l-6-4-4-8v-11l5-7 5-3z" fill="#03205E"/>
<path transform="translate(648,462)" d="m0 0h13l5 2 3 4v6l-4 4-12 2-5-1-1-1v-11z" fill="#FDFDFD"/>
<path transform="translate(722,432)" d="m0 0 5 1 1 39v12l-1 1h-5l-1-1v-51z" fill="#083C61"/>
<path transform="translate(704,432)" d="m0 0 5 1v51l-5 1-1-1v-51z" fill="#04265F"/>
<path transform="translate(417,436)" d="m0 0 3 1v48h-6v-48z" fill="#03215E"/>
<path transform="translate(650,441)" d="m0 0 13 1 3 3 1 5-2 5-7 2h-9l-2-3 1-12z" fill="#FDFDFD"/>
<path transform="translate(438,453)" d="m0 0 2 1v5l-3 3-1 9 3 6 5 3 8-1 6-3h2l-1 5-6 4-8 1-7-2-7-8-1-4v-8l4-8z" fill="#03205E"/>
<path transform="translate(608,432)" d="m0 0 3 1v52h-5v-52z" fill="#083A61"/>
<path transform="translate(669,462)" d="m0 0 4 2 2 5v6l-4 6-7 3-7 1h-15v-9l3 1 1-7h1l1 8 5 1 12-2 3-3v-9z" fill="#03215E"/>
<path transform="translate(769,452)" d="m0 0h11l4 5 1 3 1 14v9l-1 2h-5l-1-22-2-5-10-2-1-2z" fill="#031F5E"/>
<path transform="translate(686,452)" d="m0 0h5v33h-6v-32z" fill="#083C61"/>
<path transform="translate(739,452)" d="m0 0h5l1 1v31l-5 1-1-1z" fill="#063360"/>
<path transform="translate(516,452)" d="m0 0h5l1 1v32h-6z" fill="#03205E"/>
<path transform="translate(443,456)" d="m0 0h7l6 5 1 5-1 1h-19l-1 2v-7z" fill="#FDFDFD"/>
<path transform="translate(585,468)" d="m0 0h3v8l-5 4-2 1h-7l-3-3v-5l4-3z" fill="#FDFDFD"/>
<path transform="translate(574,452)" d="m0 0h12l5 3 2 4-1 4-2 2v10l-2 1v-9l-6-1v-1h6l-2-7-9-1-5 2-4-1 2-4z" fill="#021E5E"/>
<path transform="translate(373,440)" d="m0 0 2 1v44h-4v-27h1z" fill="#021B5E"/>
<path transform="translate(591,462)" d="m0 0h3v22l-3 1-3-1v-2l-3 1v-2l-4-1 8-5v-10z" fill="#083B61"/>
<path transform="translate(722,432)" d="m0 0 5 1 1 39v12l-1 1h-5l1-4 2-4v-27l-1-8-2-2z" fill="#021E5E"/>
<path transform="translate(389,469)" d="m0 0h4l1 7 4-1 1 5-3 5-4-1-4-10z" fill="#03205E"/>
<path transform="translate(435,465)" d="m0 0 2 2 20-1v2h5v2l-8 1h-19z" fill="#083D61"/>
<path transform="translate(370,437)" d="m0 0 1 2h2v24h-1l-1 21h-1z" fill="#093E62"/>
<path transform="translate(740,453)" d="m0 0h4v22h-1v-6l-2 6h-1z" fill="#021A5E"/>
<path transform="translate(67,564)" d="m0 0 3 1 9 19 2 13v4h-2l-1-13-11-22z" fill="#093E62"/>
<path transform="translate(717,568)" d="m0 0 3 1v22l2 8 3 2h-5l-2-2z" fill="#083C61"/>
<path transform="translate(490,562)" d="m0 0h2v29l2 10h-3l-1-2z" fill="#093E62"/>
<path transform="translate(470,562)" d="m0 0h2v29l2 10-4-1z" fill="#093E62"/>
<path transform="translate(668,441)" d="m0 0 3 1 1 2v9l-3-2-2 1-3-10 4 1z" fill="#031F5E"/>
<path transform="translate(220,569)" d="m0 0 2 4 5 5 12 8 3 6-2 3-2-6-11-8-5-3-2-3z" fill="#093E62"/>
<path transform="translate(374,439)" d="m0 0 3 1 1 6h-1l-1 38h-1z" fill="#093E62"/>
<path transform="translate(685,573)" d="m0 0 3 1 2 4 1 23h-2l-1-7-1-17z" fill="#073761"/>
<path transform="translate(665,575)" d="m0 0 4 2 1 3 2 16 2 6-4-2-2-13-1-9z" fill="#073761"/>
<path transform="translate(778,578)" d="m0 0 1 2-1 10 3 7 7 3v1l-8-1-4-6-1-6 2-9z" fill="#093E62"/>
<path transform="translate(400,466)" d="m0 0 2 1v4l-2 7-5-3-1 3-1-6 3 1 1-3h2z" fill="#083A61"/>
<path transform="translate(516,437)" d="m0 0h5l2 3-1 4h-5l-2-6z" fill="#03215E"/>
<path transform="translate(687,436)" d="m0 0 4 1v7h-5l-1-1v-6z" fill="#021D5E"/>
<path transform="translate(578,465)" d="m0 0 7 1 3 2-12 2-3-2 1-2z" fill="#093E62"/>
<path transform="translate(137,574)" d="m0 0h2v13l2 10 1 3-3-1-2-6z" fill="#093E62"/>
<path transform="translate(739,437)" d="m0 0h5l1 1v5l-5 1-1-1z" fill="#03225E"/>
<path transform="translate(371,436)" d="m0 0h8l2 4-4 2-1-2-5-1z" fill="#03235F"/>
<path transform="translate(388,458)" d="m0 0 2 3 2 5v3l-5 2v-10z" fill="#083B61"/>
<path transform="translate(726,476)" d="m0 0h1l1 8-1 1h-5l1-4z" fill="#03225E"/>
<path transform="translate(825,452)" d="m0 0 4 1v6l-4 1-1-7z" fill="#052B5F"/>
<path transform="translate(413,438)" d="m0 0h2v15h-1v-8l-3 1 1-7z" fill="#093E62"/>
<path transform="translate(668,449)" d="m0 0 3 3v3l-3 3h-2v-8z" fill="#052D60"/>
<path transform="translate(718,591)" d="m0 0h2l2 8 3 2h-5l-2-2z" fill="#093E62"/>
</svg>
