<?xml version="1.0" encoding="UTF-8"?>
<svg version="1.1" viewBox="0 0 800 800" width="200" height="200" xmlns="http://www.w3.org/2000/svg">
<path transform="translate(0)" d="m0 0h800v800h-800z" fill="#FDFDFD"/>
<path transform="translate(615,364)" d="m0 0h49l1 1 2 20 3 5 8 8 5 21 5 20 5 2 3-11 5-17 4-16 5-2 1-19 3-3h2l1-9h40l10 1 1 8 2 31 2 7 2 3 3 28 4 17 3 16 2 4 2 26v6l-39 1-4-18-2-12-3-30-5-13-5-5-2 6-3 7-3 18-6 8-4 10-3 9-6 19-1 1h-21l-4-10-5-5-6-9-3-17-4-7-2-14-4-10-1-11h-2l-1 6-6 12-2 14-2 21-4 11-2 17-1 1-29-1-10-1 1-25 1-14 4-1 3-17 4-17 4-26 3-18 1-19z" fill="#100E0F"/>
<path transform="translate(491,292)" d="m0 0h3l2 3 1 9 3 5v-3l-1-4 3 3 3 7 2 7 2 3-1-6 3 1v2h2l-1 5h4l1-2 3 9 13 17 8 11 8 12 4 5 4 7 9 10 12 21 2 5 1 37v57l-2-1-2-9-6-5-7-11-8-11-10-10-7-14-7-6-9-13-6-12-6-7-5-1-4-10-9-11-5-3-5 1-5 8-5 3v7l-4 6-5 1-3 5-5 5 1 7-4 4-5 3-5 5-6 9-5 8-7 9-8 9-7 11-7 9-3 1-2-1-1-32v-53l2-7 12-15 8-11 10-12 10-15 3-6 6-4 8-10 10-14 9-12 4-3 3-6 4-1v-4l-2-1h6z" fill="#30864D"/>
<path transform="translate(51,363)" d="m0 0h7l4 2 9 13 6 8 3 2 1 4 3 5 2-1 2 5 3 4v2l3 1 4 6 6 8 8 11 8 10 5 5v2h2l1-86 1-1h38v148l-45-1-3-10-5-4-11-15-10-14-11-13-7-11-9-10-7-14-2-1v92l-1 1h-16l-25-1v-23l2-117 1-6z" fill="#100E0F"/>
<path transform="translate(376,363)" d="m0 0h11v3l-4 6-5 4-4 11-11 20-4 2-2 4-7 8h-2l-3 11-4 6-7 6-8 15-5 10-1 4h57v38h-77l-58-1-1-1v-6l5-5 3-5 5-3 10-16 1-5 5-2 6-10 6-11 9-12 3-3 6-8 3-5-1-2 12-15h2l1-4-52-1-7-1v-31z" fill="#100E0F"/>
<path transform="translate(193,363)" d="m0 0h40l1 2-1 90-1 56h-40v-147z" fill="#100D0F"/>
<path transform="translate(20,367)" d="m0 0 3 1v38l-1 92-1 6h-1z" fill="#4C9665"/>
<path transform="translate(483,298)" d="m0 0 5 1 5 3-1 2-7 1-6 3-2-1 3-5z" fill="#131814"/>
<path transform="translate(580,500)" d="m0 0h1v13l-2-1-2-10h3z" fill="#17271C"/>
</svg>
