<?xml version="1.0" encoding="UTF-8"?>
<svg version="1.1" viewBox="0 0 800 800" width="200" height="200" xmlns="http://www.w3.org/2000/svg">
<path transform="translate(0)" d="m0 0h800v800h-800z" fill="#FDFDFD"/>
<path transform="translate(160,370)" d="m0 0h12l5 3 5 5 10-7 2-1h12l8 4 6 8 1 4 1 22v21l-5 1-12-1-1-29-1-9-4-4-9 2-3 3-1 5v14l1 18h-18l-2-37-2-4h-10l-3 3-1 5-1 33-1 1h-14l-3-1v-57h14l3 3h5z" fill="#C8DD37"/>
<path transform="translate(246,370)" d="m0 0h15l9 4 8 7 5 8 2 8v10l-4 9-7 8-8 5-6 2h-12l-10-4-8-8-4-8-2-6v-11l7-14 9-8z" fill="#C8DD37"/>
<path transform="translate(92,370)" d="m0 0h10l9 2 9 6 7 10 1 4v19l-4 8-8 8-10 4h-14l-10-4-6-5-5-9-2-8v-9l4-12 9-10z" fill="#C8DD37"/>
<path transform="translate(585,383)" d="m0 0h13l6 3 7 7 3 10-1 11-4 6-8 7-12 2-8-3-7-6-4-8v-11l4-9 5-6z" fill="#FBFCF6"/>
<path transform="translate(518,383)" d="m0 0h12l8 5 5 6 3 10-2 12-8 9-7 3h-13l-8-6-4-6-1-3v-14l5-10 5-4z" fill="#FBFCF6"/>
<path transform="translate(49,372)" d="m0 0h17v65l-4 9-6 5-5 2h-12l-2-6v-8l9-3h2v-63z" fill="#C8DD37"/>
<path transform="translate(640,383)" d="m0 0 7 1 9 8 2 5v14l-3 6-8 7-2 1h-9l-8-4-5-7-2-8 1-9 3-6 6-6z" fill="#FBFCF4"/>
<path transform="translate(585,383)" d="m0 0h13l6 3 7 7 3 10-1 11-4 6-8 7-12 2-8-3-7-6-4-8v-11l4-9 5-6zm5 4-6 3-7 8-1 3v11l6 8 6 4 4 1 7-3 5-4 3-6v-15l-7-8-6-2z" fill="#4C4A50"/>
<path transform="translate(335,382)" d="m0 0 10 2 8 7 3 5 1 10-32 1-5-1 2-3 12-1h19l-5-8-5-5-3-1h-7l-6 4-5 6-3 8 2 2 3 8 8 7 7 1 6-3 8-8h3l-1 5-6 7-9 4h-7l-8-4-7-8-2-4-1-9 4-11 7-8z" fill="#4C4A51"/>
<path transform="translate(289,363)" d="m0 0h42l-1 6h-23l1 59h-6l-1-1v-57l-23-1-1-5z" fill="#4C4A51"/>
<path transform="translate(702,383)" d="m0 0h12l6 4 6 7 1 3v9l-24 1h-9v-4l11-1h19l-6-10-6-4h-7l-8 5-4 7-1 7 6 12 6 4 8 1 6-4 6-7h2v6l-4 5-7 4-3 1h-7l-9-4-7-8-2-7v-8l3-9 5-6z" fill="#4C4A51"/>
<path transform="translate(250,386)" d="m0 0h9l7 6 2 5v7l-4 7-5 4-7 1-7-4-4-8v-7l3-6z" fill="#FEFEFE"/>
<path transform="translate(518,383)" d="m0 0h12l8 5 5 6 3 10-2 12-8 9-7 3h-13l-8-6-4-6-1-3v-14l5-10 5-4zm4 4-7 3-5 6-2 5v8l3 8 7 6 7 2 8-4 6-8 1-2v-12l-5-8-5-3z" fill="#4C4A51"/>
<path transform="translate(98,386)" d="m0 0 9 2 5 7v10l-5 8-5 3h-6l-6-4-3-4-1-4v-7l4-8 3-2z" fill="#FEFEFE"/>
<path transform="translate(412,361)" d="m0 0h6v32h2l2-6 5-3h13l5 5 2 5 1 34h-5l-1-2v-20l-1-11-2-5-2-1h-9l-5 3h-2l-1 3h-2v33h-5z" fill="#4E4D50"/>
<path transform="translate(379,383)" d="m0 0h11l8 5 5 6 1 3-2 1-5-3-5-5-4-2h-6l-6 4-4 5-2 5 1 11 5 7 8 4 6-1 6-4 3-5h4l-1 5-5 6-6 3h-12l-6-3-7-8-2-7v-10l4-9 8-7z" fill="#4C4A51"/>
<path transform="translate(745,383)" d="m0 0h8l7 4 4 5v3l-5-1-4-5-2-1h-8l-5 5-1 6 7 3 12 3 5 4 1 2v9l-5 6-7 3-10-1-7-6-1-6 4-1 3 5v2l10 2 5-3 3-4-1-6-20-6-3-3v-10l4-6z" fill="#4C4A51"/>
<path transform="translate(640,383)" d="m0 0 7 1 9 8 2 5v14l-3 6-8 7-2 1h-9l-8-4-5-7-2-8 1-9 3-6 6-6zm-1 4-6 4-4 5-2 5 1 11 6 7 4 2h8l6-5 4-6v-9l-4-8-6-5z" fill="#4D4B50"/>
<path transform="translate(333,387)" d="m0 0h7l5 3 7 8 1 4-31 2-1 1 4 2-5 1-2-3 5-10 8-7z" fill="#F9FAEB"/>
<path transform="translate(705,387)" d="m0 0h7l6 4 6 9v2l-9 1h-10l-11 1-1 4-2-1 2-9 4-6z" fill="#F9FBEC"/>
<path transform="translate(658,383)" d="m0 0h4l1 38-2 12-4 6-6 5-5 2h-10l-9-4-5-7 1-6 4 2 5 8 7 2 9-1 5-5 3-7 4-24-1-13-2-7z" fill="#4C4A51"/>
<path transform="translate(554,361)" d="m0 0h7v67h-6v-38h1l1 7v-8l-1-2 1-20-1 10h-1z" fill="#4C4A50"/>
<path transform="translate(289,363)" d="m0 0h42l-1 6h-24l-1 3-2-1v-2h-25l-1-5z" fill="#70754B"/>
<path transform="translate(55,344)" d="m0 0 7 1 5 5v8l-5 5h-10l-4-3-1-3v-7l4-5z" fill="#C8DD37"/>
<path transform="translate(477,383)" d="m0 0 9 1 5 4 3 9v31h-5l-1-28-2-8-2-3-6-1-8 3-6 5 2-6 7-6z" fill="#4C4A51"/>
<path transform="translate(427,384)" d="m0 0h13l5 5 2 5 1 34h-5l-1-2v-20l-1-11-2-5-2-1h-9l-8 4 2-6z" fill="#4C4A51"/>
<path transform="translate(459,383)" d="m0 0 4 1v12h1v32h-5l-1-6v-38z" fill="#5D5F4D"/>
<path transform="translate(673,383)" d="m0 0 5 1v44l-4 1-1-1z" fill="#4C4A51"/>
<path transform="translate(289,363)" d="m0 0h16l-1 3-3 3h-23l-1-5z" fill="#4E4D50"/>
<path transform="translate(556,365)" d="m0 0 2 3-1 19 1 5v10l-1 5h-1l-1-17-1-1v-18h1z" fill="#C8DD37"/>
<path transform="translate(672,362)" d="m0 0h6v4 4l-3 1-4-2v-6z" fill="#4C4A51"/>
<path transform="translate(281,366)" d="m0 0 14 1 5 1v1h-22v-2z" fill="#C2D638"/>
</svg>
