<?xml version="1.0" encoding="UTF-8"?>
<svg version="1.1" viewBox="0 0 2048 1515" width="585" height="433" xmlns="http://www.w3.org/2000/svg">
<path transform="translate(1047,62)" d="m0 0 4 2 8 8 8 7 7 7 8 7 10 10 8 7 9 9 8 7 8 8 8 7 12 11 3 1 2-4 9-9 8-7 17-17 4-2 1 5v280l-1 10 8-4 23-14 26-17 51-33 23-15 5-4h3l-2 13-14 74-3 17 26 7 69 17 2 1-1 9-11 60-6 30 11 2 59 14 33 8v3l-12 7-15 10-20 13-54 35-18 12-13 10-36 24-34 23-12 8-31 21-21 14-11 8-13-5-26-12-41-18-33-15-36-16-14-6-5 1-148 66-18 8-2 1-18-11-18-12-54-35-40-26-27-18-11-8-11-7-17-11-20-13-25-16-29-19-14-9-7-4 1-3 24-6 72-17 15-4-4-24-12-67-1-5 9-3 73-18 13-3-1-9-12-64-7-37v-5l4 2 15 10 17 11 49 32 15 10 20 13 13 8 14 8 1 1 1-293 8 6 18 18 8 7 9 9 7-6 17-16 15-14 17-16 16-15 15-14 10-10z" fill="#208B4B"/>
<path transform="translate(682,453)" d="m0 0 5 1 17 10 35 23 17 11 25 16 15 10 22 14 15 10 19 12 37 24 94 61 25 16 26 17 15 10-4 3-148 66-18 8-2 1-18-11-18-12-54-35-40-26-27-18-11-8-11-7-17-11-20-13-25-16-29-19-14-9-7-4 1-3 24-6 72-17 15-4-4-24-12-67z" fill="#8BC347"/>
<path transform="translate(1324,322)" d="m0 0h3l-2 13-14 74-3 17 26 7 69 17v2l-7 4-23 16-16 10-27 18-16 10-17 11-19 12-20 13-34 22-26 17-31 20-23 15-22 14-18 12-37 24-14 9-3-1-1-25-1-85v-66l5-4 16-10 17-11 32-21 34-22 24-16 12-9 8-4 23-14 26-17 51-33 23-15z" fill="#8CC447"/>
<path transform="translate(905,114)" d="m0 0 8 6 18 18 8 7 9 9h2l7 8 16 16 8 7 10 10 8 7 16 16 8 7 23 23 1 2v251l-5-1-11-8-76-50-33-22-17-11z" fill="#8CC447"/>
<path transform="translate(107,868)" d="m0 0h33l5 10 11 26 15 36 16 38 54 129 7 16v2l2-1 9-22 36-86 15-36 36-86 11-26h34v295l-1 1h-25l-1-1v-243l-2 1-6 16-15 37-15 36-12 29-15 36-17 41-15 36-5 11-1 1h-23l-3-4-25-60-18-43-29-70-13-31-10-24-5-11v102l-1 140-1 1h-26l-1-295z" fill="#6A6B6C"/>
<path transform="translate(720,943)" d="m0 0h20l19 3 16 6 14 9 10 9 7 8 9 15 7 18 4 19 2 19v15l-3 26-5 19-6 13-7 12-12 13-12 9-15 7-15 4-6 1h-35l-17-4-11-5-10-6-12-12-2-3-1 99-7 1h-18l-1-31v-242l1-17h24l1 1 1 27 15-15 14-9 15-6zm-2 23-13 3-14 7-12 11-9 14-6 15-4 18-1 10v27l3 21 5 16 7 13 11 12 9 6 18 6 7 1h23l15-4 12-6 9-7 9-11 6-10 6-17 3-14v-41l-5-21-7-16-8-11-9-9-11-7-15-5-6-1z" fill="#6A6B6C"/>
<path transform="translate(1688,943)" d="m0 0h21l22 3 12 4 11 6 10 9 7 11 3 10 1 9 1 137 2 7 1 1h21v21l-13 3h-13l-10-3-8-6-5-11v-7h-3l-2 4-9 9-14 9-16 6-13 3h-36l-14-3-13-5-11-8-6-7-5-9-4-11-2-16 1-16 4-14 4-8 7-9 9-8 11-6 10-4 14-3 10-1 37-1 19-2 8-3 7-6 4-9 2-14-1-12-6-10-8-7-14-6-13-3h-22l-16 4-12 6-7 6-7 11-4 14-1 12-1 1h-23l-1-7 2-18 3-10 6-12 9-10 9-8 17-8 18-4zm58 109-14 4-21 3-44 5-16 5-9 6-5 4-5 7-3 10-1 13 2 11 6 10 9 8 13 6 11 2h20l17-4 16-8 10-8 9-10 6-12 3-12 1-39z" fill="#6A6B6C"/>
<path transform="translate(503,943)" d="m0 0h22l22 3 12 4 11 6 7 5 9 13 4 11 1 7 1 140 2 7 1 1h21v21l-6 2-6 1h-14l-10-3-7-5-5-10-2-9-13 13-11 7-10 5-17 5-5 1h-36l-17-4-10-4-12-9-8-11-5-12-2-8v-27l4-14 4-8 7-9 9-8 15-8 15-4 14-2 38-1 19-2 9-3 8-9 3-10 1-7v-10l-4-11-7-8-12-7-13-4-6-1h-22l-16 4-12 6-7 6-7 11-4 15-1 11-1 1h-23v-19l4-16 6-12 7-9 13-10 13-6 14-4zm62 108-12 4-16 3-48 5-17 4-12 6-7 6-6 10-3 13v8l3 12 6 9 8 7 10 5 14 3h20l17-4 16-8 10-8 7-7 7-12 3-10 1-5 1-40z" fill="#6A6B6C"/>
<path transform="translate(1482,943)" d="m0 0h19l19 3 16 6 11 7 11 9 8 10 9 16 7 19 4 22 1 10v17l-1 1h-166l3 21 6 20 7 13 9 11 9 7 9 5 12 4 7 1h20l16-4 16-8 9-8 9-13 6-15 3-12h25l-1 9-5 19-6 13-7 11-9 10-10 8-14 7-18 5-7 1h-35l-14-3-15-6-12-8-6-5v-2l-4-2-10-13-6-10-7-18-4-20-1-9v-23l3-24 4-14 6-15 9-16 12-14 11-9 15-8 13-4zm-1 23-12 3-16 8-13 12-8 11-7 14-4 14-1 12h142l-1-13-4-15-7-14-8-11-10-9-12-7-12-4-6-1z" fill="#6A6B6C"/>
<path transform="translate(999,943)" d="m0 0h19l19 3 16 6 11 7 12 10 9 12 8 15 6 18 3 14 2 23v11l-2 1h-165l3 21 6 20 9 16 10 11 12 8 15 5 7 1h20l16-4 14-7 11-9 7-10 7-15 4-15h25l-2 13-4 15-8 17-9 12-8 8-11 7-10 5-18 5-7 1h-35l-14-3-15-6-12-8-12-11-8-11-6-10-7-18-4-21-1-9v-18l2-22 4-18 8-19 8-14 12-14 11-9 15-8 13-4zm-2 23-14 4-13 7-13 12-6 8-7 12-5 15-2 10v6h142l-1-13-5-17-6-12-9-12-9-8-10-6-14-5-6-1z" fill="#6A6B6C"/>
<path transform="translate(1206,868)" d="m0 0h27v272h163v23l-1 1h-189z" fill="#6A6B6C"/>
<path transform="translate(1870,864)" d="m0 0h16l14 2 2 2v22l-8-1-6-1h-17l-9 4-5 5-2 5-1 46h42l1 1v10l-1 11-1 1h-41v192l-1 1h-24v-193h-37l-1-1v-21l1-1 36-1 1-49 5-13 9-10 9-6 11-4z" fill="#6A6B6C"/>
<path transform="translate(1047,62)" d="m0 0 4 2 8 8 8 7 7 7 8 7 10 10 8 7 9 9 8 7 8 8 8 7 13 12-33 33-8 7-13 13-8 7-17 17-8 7-7 7-3 1-1-2z" fill="#8CC447"/>
<path transform="translate(858,868)" d="m0 0h24v296h-24l-1-73v-76z" fill="#6A6B6C"/>
<path transform="translate(696,548)" d="m0 0h3l4 20 11 61 5 27v6l-9-5-12-8-17-11-20-13-25-16-29-19-14-9-7-4 1-3 24-6 72-17z" fill="#208B4B"/>
<path transform="translate(756,312)" d="m0 0 4 2 15 10 17 11 49 32 15 10 20 13 13 8-3 2-30 8-52 13-27 6-11-57-10-53z" fill="#8BC347"/>
<path transform="translate(1387,550)" d="m0 0 11 2 59 14 33 8v3l-12 7-15 10-20 13-54 35-18 12-3 1 3-20 9-49z" fill="#8BC347"/>
<path transform="translate(1324,322)" d="m0 0h3l-2 13-14 74-3 15-2 2-10-1-64-16-25-6-2-1 1-3 19-12 20-13 51-33 23-15z" fill="#208B4B"/>
<path transform="translate(680,1283)" d="m0 0h15l3 4 16 36 13 28 16 36 16 35v2h-15l-4-2-9-20-6-14h-75l-12 27-4 8-5 1-13-1 9-19 15-33 8-18 16-35 13-29zm6 22-28 63-1 4h61l-2-6-9-20-11-25-7-16z" fill="#030303"/>
<path transform="translate(1298,1283)" d="m0 0h14l8 16 16 35 10 23 7 15 19 42 4 9-1 1h-16l-3-3-13-30-1-4-75 1-7 15-9 20-4 1h-12l-2-2 8-16 15-34 16-35 15-33 9-20zm5 21-11 26-7 15-11 24-1 3h62l-9-21-19-43-2-4z" fill="#030303"/>
<path transform="translate(825,1284)" d="m0 0h58l14 2 12 5 11 8 7 11 3 11v16l-4 12-8 11-11 8-10 4-9 2-17 1h-29v48l-2 1h-13l-2-1zm17 16v60h37l12-2 10-5 5-4 5-7 2-6v-13l-4-10-4-5-10-6-8-2z" fill="#030303"/>
<path transform="translate(496,1282)" d="m0 0h25l14 4 14 7 12 9-1 4-8 10-5-2-9-7-12-6-11-3h-16l-14 4-11 7-3 3h-2l-2 4-6 9-5 13-2 11v10l3 14 4 10 8 11 8 7 12 6 13 3h12l15-4 12-7 9-8 4 2 9 7-2 4-11 9-14 8-13 4-5 1h-23l-17-5-13-7-12-11-9-14-5-12-2-9-1-10 1-18 3-11 5-12 8-11 5-6 12-9 13-6z" fill="#020202"/>
<path transform="translate(1086,1284)" d="m0 0h108l1 4v10l-3 2h-44v123l-1 1h-14l-2-1 1-123h-46l-1-1v-14z" fill="#020202"/>
<path transform="translate(1443,1284)" d="m0 0h13l2 1v123h78l1 1v14l-2 1h-92l-1-1v-138z" fill="#020202"/>
<path transform="translate(999,1284)" d="m0 0h15l1 1v138l-1 1h-14l-2-1v-138z" fill="#010101"/>
</svg>
