<?xml version="1.0" encoding="UTF-8"?>
<svg version="1.1" viewBox="0 0 800 800" width="200" height="200" xmlns="http://www.w3.org/2000/svg">
<path transform="translate(0)" d="m0 0h800v800h-800z" fill="#8D0F56"/>
<path transform="translate(0)" d="m0 0h800v800h-800zm4 181v442h791l1-1v-441z" fill="#FDFDFD"/>
<path transform="translate(377,192)" d="m0 0h12l13 4 10 9 6 10 4 12 1 5v20l-4 29-9 43-7 34-5 32-1 33 1 4 5 2 8 3 11-1 13-5 11-7 17-12 14-10 17-12 16-10 24-16 14-10 18-12 19-12 15-10 23-15 18-11 17-9 19-10 8-3 17-6 9-2h14l10 3 8 5 7 14 1 3v21l-5 16-8 16-14 25-7 11-10 17-13 21-9 15-15 26-8 16-1 6 3 3h9l24-6 42-13 28-8 5-1 1 4-9 11-3 1-2 4-14 10-28 16-20 12-26 15-21 10-15 5-17 3h-19l-5-2-5-5-3-4-2-10v-14l4-31-1-13-3-2-11 1-18 7-21 11-13 8-14 9-18 13-20 15-9 7-15 10-24 15-18 11-14 6-21 6-13 1-13-4-8-6-6-7-4-9-3-13-2-19 1-13 2-27 7-40 2-10 1-19-3-8-2-2-8-3-9 1-16 7-27 18-16 11-27 18-22 14-24 13-32 15-24 8-12 3-8 1h-10l-12-2-8-5-5-8-7-15-5-18-2-12-1-12v-20l2-37 1-1 33-4 24-5 21-7 15-7 16-8 39-23 20-15h2v-2l11-8 10-8 14-12 16-15 21-21 8-7 10-9 11-9 14-12 15-9 14-4z" fill="#FD7B06"/>
<path transform="translate(3,76)" d="m0 0h793v25l-1 9h-790l-1-1-1-21z" fill="#FD7B06"/>
<path transform="translate(313,398)" d="m0 0h6l9 4 3 3 2 7-1 19-5 27-4 23-2 27-1 13 3 24 4 13 6 9 6 5 5 3 11 3 13-1 21-6 9-4 12-6 19-12 24-15 15-11 18-14 18-13 15-10 28-16 15-7 11-4 11-1 4 3 1 13-4 31v14l2 10 4 5v2l4 2 4 1h19l17-3 15-5 25-12 24-14 27-16 14-8 6-1 1 4-8 10-10 8-19 13-12 9-31 20-16 9-27 13-13 4-12 2-14 1h-11l-13-5-5-5-1-2v-24l5-34v-9l-5-2-5-3-7 1-13 6-14 8-18 13-19 14-24 18-19 14-17 11-26 16-24 13-13 5-13 2h-18l-11-3-8-5-3-4-7-22-1-9v-41l4-58v-34l-14-1-5 1-14 10-13 10-24 16-16 11-22 15-15 10-22 12-16 8-18 8-15 6-19 5-17 2-13-2-12-6-7-8-5-12-3-17-1-14 1-78 1-1h21l1 1 1 26 2 19 4 17 6 15 7 13 8 5 12 2h10l16-3 20-6 21-9 29-14 19-11 17-11 27-18 16-11 21-14 12-7z" fill="#090307"/>
<path transform="translate(5,692)" d="m0 0 790 1 1 1v29l-1 1h-788l-3-1v-30z" fill="#8F1154"/>
<path transform="translate(30,123)" d="m0 0h14l2 2 6 21v3h2l2-10 4-15 1-1h15l1 2v31l-1 10h-8l-1-1-1-25-7 24-1 1h-10l-3-6-4-17-1-3-1 27h-8l-2-1v-15z" fill="#461817"/>
<path transform="translate(729,123)" d="m0 0h31l7 3 3 7-1 6-4 5-4 2 1 4 8 10 3 4-1 1h-11l-5-5-5-7v-2l-9-2v15l-1 1h-13z" fill="#3B0F1C"/>
<path transform="translate(734,639)" d="m0 0h38l1 3-1 4-26 1v8h24v9h-24v10h26l1 8-1 1h-37l-1-1z" fill="#1D0A0E"/>
<path transform="translate(152,639)" d="m0 0h38l-1 7-26 1v8h26v9h-26v10h27l2 6-1 3h-39z" fill="#250D0D"/>
<path transform="translate(195,122)" d="m0 0h7l4 4 11 25 6 13-3 2-8-1-4-7h-20l-2 6-1 1h-10l-1-2 13-30 5-9z" fill="#17080A"/>
<path transform="translate(331,121)" d="m0 0h9l8 3 5 5v7l-7-1-6-4h-9l-2 3 9 4 10 3 7 5 1 2v8l-5 7-7 3-11 1-10-3-5-4-1-2v-6l1-2 5 1 4 2 2 3 3 1h9l2-1 1-6-17-4-5-3-4-4v-9l5-6z" fill="#220C0C"/>
<path transform="translate(618,122)" d="m0 0h7l2 1v7l-2 1h-23l1 7h20l4 2v7l-1 1-24 1v8l26 1 1 7-1 1h-28l-8-1v-42z" fill="#070305"/>
<path transform="translate(274,639)" d="m0 0h12l7 9 2 2 8-10 3-1h10l-1 4-8 8-4 6 1 5 9 13 5 5v2l-4 1h-7l-6-5-5-7v-2h-3l-2 5-5 6-6 3h-8l-1-2 15-20-1-5-11-14z" fill="#19080B"/>
<path transform="translate(616,639)" d="m0 0h11l1 3-1 32h26l-1 8-1 1h-35z" fill="#1B0711"/>
<path transform="translate(30,639)" d="m0 0h41l-1 5-1 2-14 1v35l-1 1h-10l-1-1 1-35h-12l-2-1-1-6z" fill="#140609"/>
<path transform="translate(396,639)" d="m0 0h38l4 1-2 6-14 1-1 36h-11l-1-36-11-1-2-1-1-5z" fill="#280C10"/>
<path transform="translate(453,123)" d="m0 0h39l1 1-1 7-12 1-1 33h-11l-1-33-12-1-2-3z" fill="#090407"/>
<path transform="translate(518,639)" d="m0 0h11l1 1v42l-1 1h-10l-1-1z" fill="#351411"/>
<path transform="translate(618,122)" d="m0 0h7l2 1v7l-2 1h-23l1 7h20l4 2v7l-1 1-24 1v8l26 1 1 7-1 1h-28l-8-1v-42zm-25 2v40h34v-5l-26-1v-16l-1-11h2v-2h16l7-1 1-4z" fill="#18070F"/>
<path transform="translate(61,123)" d="m0 0h15l1 2v31l-1 10h-8l-1-1 1-31-5 4h-4v-11z" fill="#11050A"/>
<path transform="translate(754,125)" d="m0 0h12l3 5 1 7-4 6-5 3 1 4 8 10 3 4-1 1h-11l-5-5-5-7-2-7h3v-2l2-1-8-1v-1l11-1 2-4v-5l-6-2-11-1v-2z" fill="#210A0E"/>
<path transform="translate(30,123)" d="m0 0h14l1 1-1 7-2 5-1-2h-4l1 8v23h-9v-15z" fill="#21090F"/>
<path transform="translate(195,122)" d="m0 0h7l4 4-1 3-3-4h-7l-5 8-11 25-2 6 7-2 4-6 5-2-3-3v-6l3-3 1-3h2l-1-5 4-1v2h2l4 10 1 7-5 2 6 2v1l-19 1-2 6-1 1h-10l-1-2 13-30 5-9z" fill="#1D0712"/>
<path transform="translate(188,643)" d="m0 0 1 3-26 1v8h26v9h-26v10h-1v-10h-2v-6l1-2 1-10 7-1h19z" fill="#A12345"/>
<path transform="translate(331,121)" d="m0 0h9l8 3 5 5v7l-7-1-6-4h-9l-2 1v-3l3-2v-3l-6 1-5 4-1 8 5 6 13 4-3 1-11-3-6-6v-9l5-6z" fill="#68231D"/>
<path transform="translate(618,122)" d="m0 0h7l2 1v7l-2 1h-23v-2l23-2 1-3h-33v40h34v-5h-26l-1-1v-9h1l1 8 26 1 1 7-1 1h-28l-8-1v-42z" fill="#A02148"/>
<path transform="translate(732,126)" d="m0 0h6l-2 12v8l1 5v13h-7v-35z" fill="#060305"/>
<path transform="translate(30,639)" d="m0 0h41l-1 5-1 2-14 1v35l-1 1h-10v-1h8l-2-34 3-1 1-2 13-1 2-3-38-1v5l12 1v1h-11l-2-1-1-6z" fill="#5C1727"/>
<path transform="translate(453,123)" d="m0 0h39l1 1-1 7-12 1-1 33h-11l-1-33-12-1-2-3zm3 1-1 4 1 1 11 1 1 2 1 32h9v-35h11l2-4-18-1z" fill="#D85720"/>
<path transform="translate(745,675)" d="m0 0h26v7h-30l-3-3 2-3 5 1z" fill="#060305"/>
<path transform="translate(214,477)" d="m0 0 3 1-14 10-27 18-2-1 3-6 7-5h2v-2l10-6 11-5z" fill="#12070C"/>
<path transform="translate(734,639)" d="m0 0h38l1 3-1 4-26 1v-1l6-1h19v-5h-36l1 41h34l1-6h-22v-1h23l1 8-1 1h-37l-1-1z" fill="#B83D30"/>
<path transform="translate(746,655)" d="m0 0h24v9h-24l1-4v-3h18l1 3 1-4h-21z" fill="#981B4B"/>
<path transform="translate(742,130)" d="m0 0h13l4 2-1 5-3 4h-13l-2-5 1-5z" fill="#FDFDFD"/>
<path transform="translate(741,640)" d="m0 0h30v5l-19 1h-13l-3-3 2-2z" fill="#080306"/>
<path transform="translate(285,662)" d="m0 0 2 2-1 6-1 5 1-1 4 1-4 5-6 3h-8l-1-2 12-16z" fill="#3C1219"/>
<path transform="translate(274,639)" d="m0 0h12l5 6-2 5h-3l1 3h2l-2 5-4-5-9-11z" fill="#3B1118"/>
<path transform="translate(188,643)" d="m0 0 1 3-26 1v8h24l-1 7-5-2v-2h-15l-1 5h-2v11h-1v-10h-2v-6l1-2 1-10 7-1h19z" fill="#742425"/>
<path transform="translate(195,122)" d="m0 0h7l4 4-1 3-3-4h-7l-5 8-11 25-2 6 7-2 4-6h19v1l-19 1-2 6-1 1h-10l-1-2 13-30 5-9z" fill="#AF2F3D"/>
<path transform="translate(555,537)" d="m0 0h1l1 14 3 12h2l5 5 6 2h32v1l-20 2h-11l-13-5-5-5-1-2z" fill="#12070C"/>
<path transform="translate(303,652)" d="m0 0 3 1-3 4 1 5 9 13 5 5v2l-4 1h-7v-1l5-1-6-8-4-2-2-10v-7z" fill="#43141A"/>
<path transform="translate(518,642)" d="m0 0 3 1 1 15-1 19v3l8 2v1h-10l-1-1z" fill="#B63737"/>
<path transform="translate(149,518)" d="m0 0 3 1-16 8-16 7-10 4-3-1 4-5 7-2 13-5 15-5z" fill="#12070C"/>
<path transform="translate(616,639)" d="m0 0h11v1h-10v42l31-1 3-3 1-3h-25v-1h26l-1 8-1 1h-35z" fill="#AB2C40"/>
<path transform="translate(30,409)" d="m0 0h15v1h-13l-1 3v37l2 3-2 4-1 25-1 6h-1l1-78z" fill="#12070C"/>
<path transform="translate(632,675)" d="m0 0h20l-1 5-1 1h-18v-3h2v-2z" fill="#070306"/>
<path transform="translate(593,124)" d="m0 0h33l-1 4-7 1h-16l3-2-12-2z" fill="#0F060A"/>
<path transform="translate(439,554)" d="m0 0h8l-4 4-16 11-3-1 2-4 7-6z" fill="#12070C"/>
<path transform="translate(600,131)" d="m0 0h2l1 7h20l4 2v7l-1 1h-18l1-2h16l-2-5-22-1-1-2z" fill="#BC3C34"/>
<path transform="translate(47,155)" d="m0 0 10 1 2 1-1 8h-10l-1-1z" fill="#1D090D"/>
<path transform="translate(453,123)" d="m0 0h17v1l-14 1v3l11 1 2 3v32h7v1h-8l-1-33-12-1-2-3z" fill="#A12347"/>
<path transform="translate(744,480)" d="m0 0 3 1-1 5-7 8-5 3-1-2h2l2-7v-3l-2-1 5-3z" fill="#1A0711"/>
<path transform="translate(476,125)" d="m0 0h15l-2 4h-11v35h-1z" fill="#3B0925"/>
<path transform="translate(61,123)" d="m0 0h15l1 2v31l-1 10-4-1h3v-41l-12 1-3 2z" fill="#B73737"/>
<path transform="translate(301,672)" d="m0 0h5l7 8-1 2h-7l-7-8z" fill="#1B0A0A"/>
<path transform="translate(42,536)" d="m0 0 5 2 6 3 9 3h19l1-2v2l7-2h5l-3 2-20 3-12-1-12-5z" fill="#12070C"/>
<path transform="translate(600,149)" d="m0 0h1l1 8 26 1 1 7-1 1h-28v-1l27-1v-5h-26l-1-1z" fill="#BD3D33"/>
<path transform="translate(456,124)" d="m0 0h17l3 2-9 1v2h-11l-1-4z" fill="#12070C"/>
<path transform="translate(197,136)" d="m0 0 3 1 3 7-1 4h-8l1-6z" fill="#FDFDFD"/>
<path transform="translate(296,426)" d="m0 0 4 1-1 3 1 4-15-1-7 1 4-4 12-2z" fill="#12070C"/>
<path transform="translate(328,123)" d="m0 0 5 1-1 3h5v1l-8 1v3l-4 2v-4l-5 1 2-4z" fill="#13060C"/>
<path transform="translate(195,122)" d="m0 0h7l4 4-1 3-3-4h-7l-5 8-5 12-3 1 3-9 7-13z" fill="#BC3D33"/>
<path transform="translate(66,134)" d="m0 0h2v24h-1l-1-18-7 24-1-4 6-22z" fill="#CD4D27"/>
<path transform="translate(196,133)" d="m0 0h3v2h2l4 10-1 4h-12l1-7 1-3h2l-1-5zm1 3-3 8v4h8l1-4-4-8z" fill="#AF3C2C"/>
<path transform="translate(396,639)" d="m0 0h38l4 1-1 2-5-1h-33l-1 4h-2l-1-5z" fill="#862136"/>
<path transform="translate(740,129)" d="m0 0h16l4 2-1 7-2 3-2-1 3-5v-3l-3-1h-13l-1 5 1 4 4 2h-6l-2-9z" fill="#A72A40"/>
<path transform="translate(561,496)" d="m0 0h1l-1 22-2 10-2 9h-1l1-12z" fill="#12070C"/>
<path transform="translate(337,572)" d="m0 0 5 2 13 4h10v2h-12l-12-3-1-3h-3z" fill="#400928"/>
<path transform="translate(54,647)" d="m0 0h1v35l-1 1h-10v-1l8-1 1-1z" fill="#E56416"/>
<path transform="translate(327,132)" d="m0 0 2 1 3 3 16 5 3 3-10-2-9-3-5-4z" fill="#BB422A"/>
<path transform="translate(470,123)" d="m0 0h22l1 1v5l-2-3-18-1z" fill="#CC4C28"/>
<path transform="translate(55,640)" d="m0 0h15l-3 5-3-1v-1l-10-1z" fill="#12070C"/>
<path transform="translate(318,150)" d="m0 0 5 1 4 2 1 3-4-2-5-2 1 7 3 2v2l-4-2-2-3v-6z" fill="#BB412C"/>
<path transform="translate(42,139)" d="m0 0h3v2h2l-1 9-1-3h-2l-1-2z" fill="#1B070E"/>
<path transform="translate(188,156)" d="m0 0h19v1l-19 1-2 6-3 1 2-4z" fill="#D45323"/>
<path transform="translate(195,122)" d="m0 0h7l4 4-1 3-3-4h-7l-4 2 1-3z" fill="#B93A36"/>
<path transform="translate(31,640)" d="m0 0h13l-1 2-9 1-3 2z" fill="#11060B"/>
<path transform="translate(182,655)" d="m0 0h5l-1 7-5-2z" fill="#260818"/>
<path transform="translate(621,640)" d="m0 0 4 1-3 6h-3l-1-5z" fill="#060305"/>
<path transform="translate(46,409)" d="m0 0h5l1 1v12l-2-1-1-11z" fill="#12070C"/>
<path transform="translate(280,639)" d="m0 0 6 2-1 3-2 2-3-1-1-5z" fill="#070305"/>
<path transform="translate(740,149)" d="m0 0h1v13l-3-2 1-9z" fill="#B63738"/>
<path transform="translate(453,123)" d="m0 0h17v1l-14 1v4l-3-1z" fill="#A02148"/>
<path transform="translate(189,133)" d="m0 0h1l-1 7h-2l-1 7-3 2 3-10z" fill="#12070C"/>
</svg>
