<?xml version="1.0" encoding="UTF-8"?>
<svg version="1.1" viewBox="0 0 2048 1348" width="240" height="158" xmlns="http://www.w3.org/2000/svg">
<path transform="translate(18,609)" d="m0 0 4 2 12 14 12 13 11 12 16 17 12 13 14 15 9 10 14 15 7 8 12 13 9 10 13 14 7 8 14 15 7 8 15 16 7 8 14 15 7 8 12 13 9 10 12 13 22 24 16 17 22 24 9 11 5 5v-338h30l21 1v440l1 21-4-2-14-14-7-8-13-14-7-8-7-7-7-8-28-30-9-10-8-8-7-8-15-16-7-8-12-13-29-31-12-13-14-15-12-13-8-8-7-8-11-12-7-8-12-13-22-24-7-7-7-8-9-9-7-8-11-11v-2l-4-2-4-4 1 332-4 1h-44l-1-1v-437z" fill="#333C59"/>
<path transform="translate(980,622)" d="m0 0h50l3 1v171h237v-172h34l20 1v443l-1 1h-52l-1-1v-222h-236l-1 183v39l-3 1h-50z" fill="#333C59"/>
<path transform="translate(1570,608)" d="m0 0 4 2 6 12 13 31 13 29 12 27 18 41 15 35 20 46 18 40 12 28 15 34 14 32 13 30 16 38 12 26 3 7-1 1-53 1-4-2-12-27-19-45-19-47-6-14-1-1h-174l-6 12-13 31-15 36-13 31-10 22-3 3h-56l1-4 8-16 12-27 11-26 19-43 15-35 15-34 36-82 29-67 18-42 18-41 13-30 4-10zm0 115-5 10-12 29-11 25-15 35-14 33-13 29v2h142l-1-5-15-34-18-42-20-47-12-29-4-6z" fill="#343D59"/>
<path transform="translate(757,611)" d="m0 0h28l15 2 15 4 15 6 14 8 12 9 14 14 11 15 3 6-1 4-10 7-11 7-12 8-5 4-5-1-12-17-11-12-11-8-12-6-13-4-7-1h-20l-16 4-13 7-10 9-7 9-5 10-4 16v20l3 11 7 14 8 10 13 10 21 12 24 11 27 12 24 11 16 8 16 10 13 11 12 12 7 10 6 10 8 20 4 15 1 10v28l-2 18-6 20-8 18-11 16-9 11-8 7-14 10-14 8-15 6-15 4-23 4-11 1h-15l-19-2-18-4-15-5-16-8-11-7-12-11-8-8-10-14-9-16-10-25 1-5 8-4 23-11 11-7 4 1 4 8 10 25 7 12 8 10 8 8 16 10 15 5 9 2h26l18-4 15-6 11-7 11-9 9-11 7-15 3-14 1-11v-11l-3-19-4-11-6-11-8-10-3-3v-2l-4-2-8-7-15-9-16-8-15-7-30-13-18-8-16-8-12-7-10-8-10-9-10-11-8-13-6-12-6-18-3-19v-17l2-14 5-17 7-14 10-14 9-10 13-10 13-8 12-6 16-5 15-3z" fill="#333C58"/>
<path transform="translate(1738,622)" d="m0 0h262l39 1 1 1-1 47-2 1-119 1-1 393-3 1h-49l-1-1-1-19v-322l1-53h-127v-49z" fill="#343D59"/>
<path transform="translate(498,622)" d="m0 0h30l23 1v443l-2 1h-50l-1-1z" fill="#343D59"/>
<path transform="translate(1079,19)" d="m0 0 3 1v98l-2 18-4 12-8 15-10 13-9 9-16 11-13 6-13 4-1 1v49l-1 49 10 3 24 15 14 11 39 36 2 3-4-2-14-12-13-12-8-8-11-9-14-10-12-7-12-2-1 126-1 22h-1l-1-92v-56l-4-2-8 3 1-3 11-5v-56l1-42-6-1-18-8-14-9-12-11-8-9-9-16-6-16-3-17-1-97 1-1 8 1 23 11 14 10 7 6 10 13 8 14 6 21h2l7-19 7-13 7-10 4-5 8-7 13-9 14-8z" fill="#323B58"/>
<path transform="translate(861,377)" d="m0 0h29l14 3 12 5 16 10 12 11 22 22 5 4 7 8 16 16 8 6 5 2 10-9 4-5 8-7 20-20 9-10 12-12 15-11 12-7 11-4 12-2h30l16 3 23 10-2 5-9 10-50 50-11 9-11 8-14 6-15 4-14 2h-11l-20-3-16-6-10-6-6 2-14 7-15 4-15 2h-13l-19-3-15-6-12-7-11-9-17-16-14-14-7-8-28-28 1-3 12-6 15-5z" fill="#323B58"/>
<path transform="translate(856,138)" d="m0 0 5 2 15 16 47 47 11 14 8 16 5 16 2 15-1 19-3 13-6 19-4 6-16 9-17 6-16 3h-16l-17-3-14-5-12-7-13-10-17-16-11-11-7-8-19-19-8-7-4-4 1-4 19-9 16-4h34l17 4 16 8 4 1-7-16-5-12-3-15v-20l3-15 6-16 6-12z" fill="#333C58"/>
<path transform="translate(1150,139)" d="m0 0h5l6 12 6 19 3 14v14l-5 23-6 14-6 10 6-1 20-9 14-3h34l12 3 13 5 9 5 1 3-6 7-8 7-12 12-7 8-29 29-13 10-15 9-17 6-9 2-9 1h-13l-17-3-14-5-15-8-6-8-6-16-4-18-1-16 2-17 5-15 9-17 10-13 56-56z" fill="#323B58"/>
<path transform="translate(1091,1232)" d="m0 0 4 1 8 7 14 15 15 15 7 8 11 12 7 8 6 7v-73h13l2 1v92l1 6-1 2-6-2-18-18-7-8-11-11-7-8-8-8-7-8-10-10v72l-1 1h-10l-2-6z" fill="#3B435F"/>
<path transform="translate(1480,1232)" d="m0 0h35l15 2 10 5 7 6 7 10 5 13 1 8v13l-3 14-6 11-10 10-8 4-12 3-24 2h-17l-2-2-1-9v-88zm14 12-4 2v73l1 2h17l15-2 10-4 7-7 4-9 1-6v-23l-4-11-7-8-7-4-10-2z" fill="#373F5B"/>
<path transform="translate(779,1231)" d="m0 0 5 3 12 13 11 12 17 17 7 8 9 10 11 13-1-71 2-4h11v74l1 19 1 7-6-1-10-9-14-15-9-10-12-12-7-8-12-13-4-4v57l-1 15-1 1h-10l-1-2v-99zm73 77 1 2z" fill="#3A435E"/>
<path transform="translate(522,1231)" d="m0 0 13 1v38l52 1v-37l2-2h10l1 1v59l-1 40-2 1-9-1-1-49h-52v49l-12 1-1-1-1-35v-62z" fill="#444C66"/>
<path transform="translate(652,1232)" d="m0 0 12 1v70l3 10 3 5 6 3 10 2h8l9-3 6-5 3-6 1-7 1-69h15v60l-2 17-5 10-8 9-8 4-8 2h-21l-11-4-7-6-6-10-3-10-1-7v-65z" fill="#414A64"/>
<path transform="translate(432,1230)" d="m0 0h21l13 4 9 8 4 10v4l-5-2-16-8-8-3h-18l-10 4-9 7-5 9-3 8-1 6v14l4 11 6 9 8 7 11 4 13 1 12-3 16-10 3-3h2v6l-5 9-4 5-10 6-14 3-16-1-11-4-11-8-8-8-8-15-3-11v-15l4-12 6-10 9-10 11-8z" fill="#404863"/>
<path transform="translate(1009,1231)" d="m0 0 3 1 10 24 13 29 13 32 6 14v2h-8l-5-2-10-25-2-3h-39l-8 18-4 10-1 1h-12l1-5 7-16 12-29 10-23 9-20 4-7zm-1 25-8 17-6 17 6 1h25l-3-9-10-23-2-3z" fill="#3E4762"/>
<path transform="translate(1374,1232)" d="m0 0h62l1 1v9l-3 3h-24l-1 88h-8l-5-1-1-87h-17l-10-2-1-7 1-3z" fill="#363F5B"/>
<path transform="translate(1295,1233)" d="m0 0h13l1 1v86l35 1 3 3v6l-3 2-23 1h-24l-1-1-1-7z" fill="#424A65"/>
<path transform="translate(915,1232)" d="m0 0h11l1 1v99l-1 1h-9l-4-1v-99z" fill="#414964"/>
<path transform="translate(1e3 303)" d="m0 0h2v2l10 3 24 15 14 11 39 36 2 3-4-2-14-12-13-12-8-8-11-9-14-10-12-7-12-2-1 126-1 22h-1l-1-92v-56l-4-2-8 3 1-3z" fill="#8C91A1"/>
<path transform="translate(1606,1317)" d="m0 0 6 2 2 4v8l-3 2h-9l-4-3v-7l5-5z" fill="#4E556E"/>
<path transform="translate(538,1278)" d="m0 0 51 3v51h-1l-1-49h-50z" fill="#FDFDFD"/>
<path transform="translate(1e3 303)" d="m0 0h2v2l10 3v3h-9l-1 63h-1l-1-43-1-20-4-2-8 3 1-3z" fill="#AEB2BD"/>
<path transform="translate(1013,1236)" d="m0 0 2 2 6 16 14 31 12 29-1 3-15-33-12-29-6-13z" fill="#FDFDFD"/>
<path transform="translate(389,1284)" d="m0 0 2 1 3 13 6 11 5 5-1 2-2-2-2 1-8-15-3-11z" fill="#FDFDFD"/>
<path transform="translate(477,1307)" d="m0 0h2v6l-3 5-8-3 4-4z" fill="#FDFDFD"/>
<path transform="translate(1071,352)" d="m0 0 4 2 7 7 8 7 4 5-4-2-14-12-5-6z" fill="#63697F"/>
<path transform="translate(984,1311)" d="m0 0 1 3-7 17-4 1 2-5z" fill="#FDFDFD"/>
<path transform="translate(646,740)" d="m0 0 2 2 6 21-1 4-6-18z" fill="#FDFDFD"/>
<path transform="translate(474,1242)" d="m0 0 3 4 2 6v4l-5-2z" fill="#FDFDFD"/>
<path transform="translate(930,359)" d="m0 0 2 1-9 8-8 6-2-1 9-8z" fill="#FDFDFD"/>
<path transform="translate(749,245)" d="m0 0 3 1 4 8 4 5-4-2-8-8z" fill="#FDFDFD"/>
<path transform="translate(498,622)" d="m0 0h30v1l-26 1-4 2z" fill="#FDFDFD"/>
<path transform="translate(341,622)" d="m0 0h30v1l-27 1-1 2h-2z" fill="#FDFDFD"/>
<path transform="translate(1738,622)" d="m0 0h18v1h-16l-2 8h-1v-8z" fill="#FDFDFD"/>
<path transform="translate(365,1056)" d="m0 0 4 1 6 6-1 3-9-9z" fill="#FDFDFD"/>
<path transform="translate(968,306)" d="m0 0h8l-4 2-5 1h-7l2-2z" fill="#FDFDFD"/>
<path transform="translate(1039,308)" d="m0 0 12 1 3 2-10-1-5-1z" fill="#FDFDFD"/>
<path transform="translate(912,374)" d="m0 0" fill="#FDFDFD"/>
<path transform="translate(1094,373)" d="m0 0" fill="#FDFDFD"/>
<path transform="translate(932,358)" d="m0 0" fill="#FDFDFD"/>
<path transform="translate(933,357)" d="m0 0" fill="#FDFDFD"/>
<path transform="translate(969,327)" d="m0 0" fill="#FDFDFD"/>
<path transform="translate(989,312)" d="m0 0" fill="#FDFDFD"/>
<path transform="translate(1054,311)" d="m0 0" fill="#FDFDFD"/>
</svg>
