<?xml version="1.0" encoding="UTF-8"?>
<svg version="1.1" viewBox="0 0 800 800" width="200" height="200" xmlns="http://www.w3.org/2000/svg">
<path transform="translate(0)" d="m0 0h800v800h-800z" fill="#FDFDFD"/>
<path transform="translate(414,72)" d="m0 0h31l26 4 17 5 19 8 17 9 14 10 10 8 13 12 9 11 10 13 10 18 7 16 6 18 4 19 1 9v33l-3 20-6 23-8 19-9 16-10 14-11 13-13 13-17 13-15 9-19 9-18 6-22 5-14 2h-24l-26-4-23-7-14-6-14-8-3-2-1 2v70l-1 1h-163v-368l6-1 147-1 8-4 16-9 16-7 18-6 20-4z" fill="#01508E"/>
<path transform="translate(377,169)" d="m0 0h91l4 4 11 20 14 24 8 14 11 18-3 6-14 24-15 26-12 21-2 4h-94l-6-9-14-25-10-17-12-20-4-8 1-5 12-21 14-24 11-19 7-12z" fill="#A8CC47"/>
<path transform="translate(415,200)" d="m0 0h15l10 3 9 5 8 7 7 11 4 13v13l-4 13-7 10-10 9-11 5-8 2h-9l-13-3-11-6-9-9-6-10-3-11v-14l4-13 7-10 9-8 10-5z" fill="#1B1A1D"/>
<path transform="translate(316,518)" d="m0 0h13l10 3 8 6 7 8 5 12v14l-4 11-6 8-7 6-12 5h-14l-10-3-9-7-7-9-3-8-1-4v-11l4-12 7-9 8-6z" fill="#FDFDFD"/>
<path transform="translate(495,518)" d="m0 0h10l10 3 9 6 7 8 4 9 1 6v9l-2 9-6 10-9 8-12 5h-14l-10-3-8-6-6-7-5-11-1-5v-10l3-10 6-9 8-7 9-4z" fill="#FDFDFD"/>
<path transform="translate(224,510)" d="m0 0h29l10 2 7 8 2 5 1 6v8l-3 8-2 4-5 3-8 2h-7l8 11 10 12 11 14 3 4v2h-8l-6-2-11-14-20-26-2-1 1 5v37l-1 1h-9l-1-88z" fill="#191D24"/>
<path transform="translate(494,508)" d="m0 0h12l12 3 11 6 8 8 6 9 4 12v17l-4 12-6 9-7 7-12 7-13 3h-11l-13-3-9-5-10-9-7-11-3-10v-15l3-11 6-11 9-9 14-7zm1 10-9 2-9 5-7 7-5 9-2 8v10l3 10 6 10 8 7 9 4 4 1h14l12-5 10-9 6-12 1-6v-9l-2-8-5-10-7-7-12-6-5-1z" fill="#191D23"/>
<path transform="translate(318,508)" d="m0 0h10l13 3 11 6 9 9 6 11 3 10v14l-3 13-8 11-7 7-14 7-10 2h-10l-11-2-12-6-10-9-6-9-3-8-1-6v-13l4-13 6-10 7-7 12-7zm-2 10-11 4-8 6-7 9-4 12v11l3 10 7 10 7 6 9 4 4 1h14l12-5 10-9 6-12 1-4v-14l-5-12-9-10-8-5-8-2z" fill="#191D24"/>
<path transform="translate(784,658)" d="m0 0 16 1v60h-2l-1 3-7 4-4 1h-19l-9-4-3-5v-9l5-5 5-3-2-3v-5l4-2-7-7-2-6 1-10 4-5 5-3z" fill="#191D24"/>
<path transform="translate(171,510)" d="m0 0h27l12 2 5 4 5 10 1 5-1 13-5 8-5 4-5 2-6 1-17 1-1 39h-10z" fill="#191E26"/>
<path transform="translate(553,507)" d="m0 0 5 3 7 8 14 15 12 13 18 20 1 3h2l5 6 2 1v-66h9l1 31v61l-1-2-4-2-7-8-14-15-16-17-14-15-8-9-1 39v25l-1 1h-9l-1-1z" fill="#191E26"/>
<path transform="translate(453,658)" d="m0 0 16 1v6l-6 1 1 4v12l-4 5-10 4-9 1 3 5 7 2 11 3 6 5 1 3v7l-4 6-9 4h-20l-8-4-4-6v-6l4-6 6-3h2v-2l-3-1-1-4 3-3v-4l-4-2-3-5v-11l4-6 3-3 6-2z" fill="#191E25"/>
<path transform="translate(413,508)" d="m0 0h13l12 3 9 5 2 2v12l-4-2-8-6-11-3h-13l-11 4-6 4-6 7-5 12-1 12 2 9 6 11 9 8 10 4 12 1 9-2 9-5 6-5 3 1-1 10-5 5-14 5-5 1h-11l-10-2-12-6-10-9-6-10-5-15 1-11 4-13 6-10 8-8 8-5 9-3z" fill="#191D25"/>
<path transform="translate(0,635)" d="m0 0h27l8 2 7 6 2 4 1 9-2 9-5 5-8 4-16 1h-3l-1 29-1 1h-9z" fill="#1A1B21"/>
<path transform="translate(205,658)" d="m0 0h15l6 3 5 5 5 8 1 10-3 9-7 8-5 3-4 1h-12l-10-5-6-8-2-6v-8l3-9 6-7z" fill="#191D24"/>
<path transform="translate(105,658)" d="m0 0h14l8 4 7 8 2 5v14l-6 9-5 4-7 3h-12l-10-5-6-8-2-5v-11l5-10 7-6z" fill="#191D23"/>
<path transform="translate(325,635)" d="m0 0h42v8l-6 1h-26v21h31v9l-31 1v21h33v8l-43 1-1-69z" fill="#1A1C22"/>
<path transform="translate(616,657)" d="m0 0 10 1 8 5 5 8 1 3v9h-34l3 9 5 4h13l8-3 5-1v6l-6 5-6 2-9 1-10-2-8-7-4-7-1-5v-9l4-10 7-6z" fill="#191D24"/>
<path transform="translate(566,657)" d="m0 0 10 1 6 4 6 7 2 6v8h-35l3 8 6 5h12l9-3 5-1 1 4-4 5-10 4h-15l-8-5-6-7-2-6v-12l5-10 8-6z" fill="#191D24"/>
<path transform="translate(453,658)" d="m0 0 16 1v6l-6 1 1 4v12l-4 5-10 4-9 1-1 3v-3h-4l-1-4-4-2-3-5v-11l4-6 3-3 6-2z" fill="#191E26"/>
<path transform="translate(379,658)" d="m0 0h7l2 4 10-4h11l6 4 3 6 1 8v22l-2 7-7-1-1-1-1-33-3-3-7-1-10 3v35l-8 1-1-1z" fill="#17212C"/>
<path transform="translate(711,658)" d="m0 0h5l2 3-1 2 12-5h10l6 4 3 4 1 8v30l-2 1h-6l-1-1-1-34-3-3-2-1-10 1-4 2-1 4v31l-9 1-1-1v-45z" fill="#18202A"/>
<path transform="translate(499,658)" d="m0 0h6l1 5 11-5h10l6 4 3 3 1 3v36l-1 1h-7l-1-1-1-36-6-2h-6l-7 4-1 34-9 1v-46z" fill="#191F27"/>
<path transform="translate(247,658)" d="m0 0h6l2 4 10-4h10l6 4 3 4 1 4v34l-8 1-1-30-2-7-4-2-9 1-5 3-1 34-1 1h-7l-1-1v-45z" fill="#191D24"/>
<path transform="translate(234,519)" d="m0 0h15l9 2 4 6 1 3v9l-3 5-4 3-3 1-18 1-1-1-1-16v-12z" fill="#FCFDFB"/>
<path transform="translate(161,658)" d="m0 0h14l5 3 1 1v7l-7-2h-10l-6 3-4 5-1 2v10l4 6 5 3h14l6-1 1 4-5 5-3 1h-14l-10-5-6-7-2-6v-12l4-8 8-7z" fill="#191D25"/>
<path transform="translate(107,666)" d="m0 0h10l7 4 3 5v11l-4 7-6 4-7 1-7-3-5-6-1-3v-9l4-7z" fill="#FDFDFC"/>
<path transform="translate(208,666)" d="m0 0h9l7 4 3 5 1 6-2 8-5 6-7 3-8-1-6-5-3-7v-7l3-6 6-5z" fill="#FDFDFC"/>
<path transform="translate(181,520)" d="m0 0h16l9 3 3 5 1 8-3 9-5 3-4 1h-16l-1-1z" fill="#FDFDFC"/>
<path transform="translate(651,658)" d="m0 0 7 1 1 7 10-8 10 1 2 1-1 9-6-1-1-1-7 1-5 4-2 7-1 25-7 1-2-1v-45z" fill="#17212C"/>
<path transform="translate(53,658)" d="m0 0h6l3 8 8-7 8-1 6 2 1 3-2 5-3 1-4-2-8 1-3 1-2 5-1 2-1 28-2 1h-6z" fill="#1A1C22"/>
<path transform="translate(10,644)" d="m0 0h19l5 4 1 2v9l-4 5-8 2h-12l-1-1z" fill="#FDFDFC"/>
<path transform="translate(792,665)" d="m0 0h8v44l-8-6-10-3-9-3-2-2v-3l16-4 5-4 2-3v-9z" fill="#FCFDFB"/>
<path transform="translate(689,658)" d="m0 0h6l2 1v45l-8 1-1-1v-45z" fill="#152534"/>
<path transform="translate(478,658)" d="m0 0h7v46l-2 1h-6l-1-45z" fill="#1A1B1F"/>
<path transform="translate(440,707)" d="m0 0h11l8 2 2 2v5l-6 4h-16l-7-3v-6z" fill="#FBFCF8"/>
<path transform="translate(770,707)" d="m0 0h11l9 3 2 2-1 4-4 3-3 1h-15l-6-3v-6l4-3z" fill="#FDFDFC"/>
<path transform="translate(773,666)" d="m0 0h8l5 4 1 2v7l-4 4-3 1h-7l-5-3-1-2v-8l4-4z" fill="#FBFCF8"/>
<path transform="translate(444,666)" d="m0 0 8 1 4 4v9l-6 4h-7l-5-3-2-3 1-8 3-3z" fill="#FDFDFC"/>
<path transform="translate(615,665)" d="m0 0h7l6 4 4 5v2l-3 1h-23v-4l5-6z" fill="#FEFEFE"/>
<path transform="translate(565,665)" d="m0 0h7l8 6 1 5-2 1h-24l1-5 7-6z" fill="#FCFDFA"/>
<path transform="translate(690,640)" d="m0 0 6 1 1 5-2 4h-5l-2-5 1-4z" fill="#162432"/>
<path transform="translate(479,640)" d="m0 0 6 1 1 4-3 5-5-1-2-6z" fill="#17222E"/>
<path transform="translate(372,548)" d="m0 0h1l2 16-2 2-2-7z" fill="#024C87"/>
</svg>
