<?xml version="1.0" encoding="UTF-8"?>
<svg version="1.1" viewBox="0 0 800 800" width="200" height="200" xmlns="http://www.w3.org/2000/svg">
<path transform="translate(0)" d="m0 0h800v800h-800z" fill="#070708"/>
<path transform="translate(0)" d="m0 0h439l-2 5-9 6-16 9-30 18-44 26-29 17-45 27-51 30-15 9-66 39-7 4h-2v199l1 204 22 13 57 36 7 4-14-10-18-13-12-9 1-4 11-14 14-18 11-14 10-13 6 1 15 10 52 34 18 12-1 7-7 18-9 19-7 11-8 8-4 2h-8l-13-5-5-2 15 9 47 29 21 13 8 5 4 1 2-4 10-8 13-13 9-11 7-8 13-19 10-18 8-19 5-18 4-20 23-7 35-10 10-2-2 13-1 28 2 23 5 23 5 15 6 15 11 20 13 18 14 15 1 4-14 11-10 7-16 11-42 28-5-1-10-7-16-9-13-8-23-14-7-4 19 12 21 13 25 15 6 5v1h-455z" fill="#FDFEFD"/>
<path transform="translate(443)" d="m0 0h357v800h-343l5-5 16-10 43-29 25-16 11-8 16-10 24-16 16-10 15-10 2-2-24 15-11 7-4-1-10-18-11-21-6-16-3-15v-25l3-17 8-26 9-20 12-23 15-24 9-15 3-6-7-8-12-14-10-13-8-13-7-15-3-11-1-15 3-15 8-16 9-11 7-7 14-10 12-5 7-2 15-1 16 3 13 5 15 9 13 11 4 2 9-12 6-12 2-8 1-10-2-13-5-12-7-11-11-13-10-9-14-9-15-7-21-5-19-1-21 2-21 5-20 7-16 8-4 1-2-9-8-61-1-13 15-7 24-9 25-7 22-4 9-1h39l19 3 21 7-5-3-41-24-28-16-25-14-49-28-24-14-27-15-24-14-27-15-8-6z" fill="#FDFEFD"/>
<path transform="translate(770,463)" d="m0 0h1v24l-1 105-4 4-16 10-39 26-20 13-3 1-6-9-6-14-3-14v-19l3-16 6-16 9-17 10-14 8-10 16-17 10-9 14-12 19-14z" fill="#070708"/>
<path transform="translate(213,551)" d="m0 0 6 1 15 10 52 34 18 12-1 7-7 18-9 19-7 11-8 8-4 2h-8l-13-5-17-9-24-16-17-12-15-11-8-6 1-4 11-14 14-18 11-14z" fill="#FEFFFE"/>
<path transform="translate(430,303)" d="m0 0h12l8 4 6 9 2 2 7-7 8-5 10-3h12l8 4 5 6 3 7 1 6 1 54 2 7 4 3 5 2 1 2h-42l1-3 8-3 2-2 1-5v-53l-2-8-5-5-2-1h-11l-8 3-7 7v61l4 4 7 3v2h-42v-2l9-4h2l1-7v-53l-3-10-5-4h-11l-9 4-6 5-1 3v58l2 4 9 3 1 3-41 1v-4l7-3 2-1 1-3v-65l-9-2-2-4 10-4 14-5h5v13l8-6 10-6z" fill="#FEFFFE"/>
<path transform="translate(106,258)" d="m0 0 3 3 3 28v14l-5-3-8-17-6-7-10-6-7-2h-9l-9 4-5 5-1 3v11l5 8 9 8 28 17 13 10 6 8 3 6 1 5v14l-3 9-6 8-8 7-10 4-12 2-13-1-19-5-5 1-4 5-4-1-3-20-2-16v-7l4 1 10 18 5 6 9 6 10 4h11l9-3 6-5 4-9v-9l-4-9-7-8-10-7-22-13-12-11-5-7-3-10v-9l3-10 5-8 7-6 9-4 4-1h14l15 4 9 2z" fill="#070708"/>
<path transform="translate(321,303)" d="m0 0h18l10 4 5 6 3 8 1 8 1 54 5 1 6-3h2v5l-9 8-2 1h-12l-5-4-2-8-9 5-8 5-12 3-10-2-7-6-4-8v-11l4-8 7-8 14-8 23-9v-9l-1-11-4-6-4-2h-9l-7 3-1 1-2 17-4 3-7 1-3-1-2-3v-10l6-8 8-5z" fill="#FEFFFE"/>
<path transform="translate(167,303)" d="m0 0h15l10 3 8 7 6 9 3 10v7h-61l3 17 5 12 8 9 8 4 4 1h7l9-3 9-6 6-7 2-4 3-1 1 3-6 12-9 10-9 6-7 3-11 1-12-2-8-4-7-7-6-10-3-10-1-17 2-13 5-12 11-12 10-5z" fill="#FEFFFE"/>
<path transform="translate(266,258)" d="m0 0h14l8 3 6 7v5l-7 6-7-3-6-8v-2l-8-2-7 3-2 4v33l22 1 1 5-1 1h-23l1 74 5 4 10 2 2 3h-52v-2l13-4 2-3 1-16 1-58h-17l-1-3 2-3 15-1 2-21 6-12 5-6 8-5z" fill="#FEFFFE"/>
<path transform="translate(340,341)" d="m0 0h1v35l-4 4-9 4h-9l-5-3-4-6-1-10 3-9 7-6 15-7z" fill="#070708"/>
<path transform="translate(403,423)" d="m0 0h7l4 4 1 2v9l-4 14-5 7-8 5-7-1-4-5-1-7 3-12 5-9 7-6z" fill="#070708"/>
<path transform="translate(164,310)" d="m0 0h13l6 4 4 6 3 12h-42l3-10 4-6 6-5z" fill="#070708"/>
<path transform="translate(137,421)" d="m0 0h11l-3 9-3 11 17-1 4-9v-8l-2-2h12l-1 5-6 19-3 12-1 7-3 1-5-1 2-9 3-12-18 1-3 11-1 9h-8l1-5 10-36-3-1z" fill="#FEFFFE"/>
<path transform="translate(401,421)" d="m0 0h12l6 4 3 8-1 11-6 11-8 7-11 5h-5l-8-6-3-6v-10l4-10 4-6 10-7zm2 2-8 6-5 8-3 8-1 9 3 7 4 3 7-1 7-5 5-8 3-12v-9l-3-5-2-1z" fill="#FEFFFE"/>
<path transform="translate(537,430)" d="m0 0h3l-1 6h15l3 7 4 13 1 3-3 6-6 8-7 5-4-1v-4l9-1 4-5-1-12-4-16h-11l-3 8-3 14 3 1-3 3h-5l-1-1 1-8 3-12v-8l5-5z" fill="#FEFFFE"/>
<path transform="translate(485,435)" d="m0 0 2 2-5 18-1 10-7-1-1-7 5-11 2-8-10 1-7 13-1 8h9l-2 4-8 1-5-5 1-8 7-11 6-5h12z" fill="#FEFFFE"/>
<path transform="translate(327,437)" d="m0 0 6 1 1 2v8l-3 8-4 6-4 3-5-2-2-3v-7l6-12z" fill="#070708"/>
<path transform="translate(191,437)" d="m0 0 6 1 1 2v8l-5 12-4 4h-5l-4-5 1-8 5-10z" fill="#070708"/>
<path transform="translate(189,436)" d="m0 0h10l4 4 1 7-4 10-8 7-4 2-8-1-5-5v-8l6-11 5-4zm2 1-5 4-5 10-1 8 4 5h5l5-6 4-10v-8l-3-3z" fill="#FEFFFE"/>
<path transform="translate(324,436)" d="m0 0h11l4 4 1 8-5 10-7 6-4 2h-6l-6-4-1-2v-7l5-10zm3 1-6 5-5 11v7l5 5 5-2 4-5 3-6 1-4v-8l-3-3z" fill="#FEFFFE"/>
<path transform="translate(737,172)" d="m0 0 6 2 24 14 5 3v10l-1 9-3-3-7-11-12-13-12-10z" fill="#070708"/>
<path transform="translate(358,420)" d="m0 0 2 2-4 11v3l6 1-1 2-7 2-6 25-5 10-5 2 3-6 6-24v-8l-2-4 5-2 6-12z" fill="#FEFFFE"/>
<path transform="translate(279,436)" d="m0 0h10l2 3-1 5-7 6-6 1v-2l6-3 2-6v-2l-5 1-4 5-4 10 1 6 3 2 5-1 6-4-2 4-5 4-6 1-6-3-3-6 2-8 4-6z" fill="#FEFFFE"/>
<path transform="translate(499,420)" d="m0 0h6l1 5-8 30-1 6h2l3-5 1 2-4 6-7 1-1-1 1-8 7-27v-6z" fill="#FEFFFE"/>
<path transform="translate(248,436)" d="m0 0h12l3 3-1 4-4-2-3-3-4-1 1 7 6 10v7l-5 4-7 1-6-2v-8l3 2 2 5 4 1 3-3-1-7-5-7-1-5z" fill="#FEFFFE"/>
<path transform="translate(381,752)" d="m0 0 5 2 25 15 28 17 13 8 3 2 5-1 11-8 5-2-1 3-16 10-4 2-6-5-22-13-24-15-22-14z" fill="#070708"/>
<path transform="translate(232,436)" d="m0 0h4l-2 9-4 14h2 2l-1 4-2 2h-5l-2-2 1-7-2 3-3-1 4-4 4-10z" fill="#FEFFFE"/>
<path transform="translate(433,435)" d="m0 0 4 1-2 11-4 14 4-1 5-5v3l-7 7h-6l-1-1 1-9 3-12-1-7z" fill="#FEFFFE"/>
<path transform="translate(216,435)" d="m0 0 4 2-5 18v5h4l-2 4-1 1h-7l-1-5 4-16v-7z" fill="#FEFFFE"/>
<path transform="translate(449,436)" d="m0 0h4l-2 10-2 15v4h-6l-1-3 1-7-2-1 7-17z" fill="#FEFFFE"/>
<path transform="translate(514,435)" d="m0 0 7 1-4 17-1 7 2 1-1 3-6 1-2-1 2-11 2-8v-9z" fill="#FEFFFE"/>
<path transform="translate(389,468)" d="m0 0 11 2 3 1h11l4-2-2 4-6 3h-14l-15-2 4-4z" fill="#FEFFFE"/>
<path transform="translate(566,435)" d="m0 0 4 2 1 3-2 4-4-4z" fill="#FEFFFE"/>
<path transform="translate(363,420)" d="m0 0 5 1v5h-4l-1-1z" fill="#FEFFFE"/>
</svg>
