<?xml version="1.0" encoding="UTF-8"?>
<svg version="1.1" viewBox="0 0 800 800" width="200" height="200" xmlns="http://www.w3.org/2000/svg">
<path transform="translate(0)" d="m0 0h800v800h-800z" fill="#FEFEFE"/>
<path transform="translate(384,136)" d="m0 0h31l20 3 24 7 22 10 18 11 16 13 13 13 11 15 9 15 9 21 5 21 2 18v17l-3 21-5 19-8 19-10 17-11 14-18 18-14 10-13 8-17 8-21 7-20 4-21 2-22-1-25-5-16-5-17-7-18-11-12-9-14-12-13-15-10-15-8-16-6-16-4-16-2-12-1-12v-10l3-24 5-19 9-20 9-15 10-13 16-16 16-12 18-11 17-8 22-7z" fill="#B7A34A"/>
<path transform="translate(724,474)" d="m0 0 8 1 8 4 7 7 5 9 1 8-4 10-8 11v4l11 10 11 9 11 11 9 11 9 13 8 18v22l-6 12-4 5-11 8-13 6-10 3-9 1h-16l-14-3-14-7-11-10-7-10-4-10v-7l3-10 7-10 8-6 12-4 5-1h31l2 1-1 8-3 12-2 9-11-2h-20l-5 1 1 6 4 3 5 1h24l13-4 6-5 4-7 1-4v-8l-4-11-8-10-9-9-18-13-5-1-8 11-18 22-11 13-7 8-15 16-11 11-11 9-10 8-13 8-11 5-14 3-10-2-6-4-3-4-2-7v-16l5-22 5-16 6-17 10-26 1-2-28-1-10 19-11 21-10 17-7 11-9 13-12 13-11 10-15 8-11 4h-13l-8-4-5-8-2-11 1-16 5-23 12-36 2-5-5 3-9 12-11 17-9 15-10 16-9 12-9 11-10 9-11 8-12 4-8 1-8-2-6-3-9-10-3-8v-16l4-15 8-20 7-15 8-16 4-7 1-4-23 1-7 12-9 15-8 12-9 12-8 10-11 12-18 18-10 7-12 6-12 4-7 1h-17l-12-4-9-7-5-8-2-9v-16l3-13 8-17 7-11 10-14 13-16 2-3h2l2-4 10-9 12-8 13-5h16l10 3 6 5 2 7-1 9-4 10-6 9-11 13-13 12-17 13-8 6h-2v2l-4 4-1 6 4 4 3 1h13l12-6 13-11 17-17 1-2h2l2-4 11-16 6-12-1-4-4-5-3-10v-8l4-13 7-11 7-8 8-6 9-2h9l8 3 5 6 5 13 5 2 50 3 7 1-16 36-2 2-27 1-13 22-7 16-3 9v10l5 5 5 2 9-1 10-7 8-8 9-11 10-14 8-12 13-18 13-19 9-10h2v-2l10-7 8-3h10l8 3 7 6 4 10v13l-7 26-11 28-2 9v9l2 2 6-1 4-2 2-4 10-17 14-26 9-17-5-5-7-8-5-12-1-5v-9l3-10 6-8 7-3h13l9 4 6 7 4 11 2 11 5 3 7 1h18l5-10 36 1 13 1-2 9-15 38-13 34-3 12v8l6-1 9-7 10-9 14-14 9-11 4-5h2l2-4 10-13 9-13-1-6-5-10-1-5v-10l5-9 11-13 6-5z" fill="#F11E2B"/>
<path transform="translate(189,417)" d="m0 0 7 1 6 9 2 8v9l-3 10-6 9-6 5-12 5-20 3-38 1-7 2v8l5 9 7 7 17 13 15 11 10 8 11 10 7 10 5 10 3 11v22l-5 12-9 13-9 10-10 9-17 10-16 6-11 3-11 2-23 1-17-2-16-4-15-6-9-5-10-8-10-13-4-8v-21l8-12 7-7 10-6 11-5 13-4 19-3h31l25 5 10 5 1 2-15 36h-7l-30-6-8-1h-30l-13 4-3 3 1 5 8 4 11 3 19 2h20l31-3 10-2 16-5 6-3 7-6 1-2v-9l-4-8-11-12-13-10-16-12-10-9-5-4-11-14-8-16-3-9-1-6v-16l4-13 6-10 7-8 8-5 16-4 45-7 13-4 10-6z" fill="#F11E2B"/>
<path transform="translate(252,246)" d="m0 0 5 2 12 10 11 8 21 16 19 14 24 18-1 6-7 19-23 61-3 9-5-2-11-10-8-7-11-12-10-15-8-14-7-19-4-17-1-7v-28l4-22z" fill="#FEFEFE"/>
<path transform="translate(398,144)" d="m0 0 2 2-4 8-14 37-15 38-7 18h-37l-70-2 3-10 12-22 10-13 12-13 14-12 15-10 17-8 21-7 21-4z" fill="#FEFEFE"/>
<path transform="translate(546,246)" d="m0 0 2 1 5 19 2 15v22l-2 14-6 21-8 18-8 13-10 13-12 13-10 9-5 4h-3l-9-29-20-68-2-5 1-4 15-9 57-38z" fill="#FEFEFE"/>
<path transform="translate(403,145)" d="m0 0h10l25 4 23 7 21 10 12 8 10 8 9 8 7 8 9 11 12 21 5 12-1 3-79-3-32-1-3-1-12-36-13-42-4-16z" fill="#FEFEFE"/>
<path transform="translate(405,349)" d="m0 0 5 2 13 10 17 12 38 28 11 8 1 2-10 6-23 10-20 6-16 3-8 1h-28l-24-4-17-5-22-10-10-6-1-3 12-7 16-10 23-15 24-15 17-11z" fill="#FEFEFE"/>
<path transform="translate(633,448)" d="m0 0h50l1 5-5 15-5 12-3 7h-49l-4-2 5-15 9-21z" fill="#F11F2B"/>
<path transform="translate(267,545)" d="m0 0 5 1-1 8-11 12-13 9-3-1 2-5 4-8 7-9z" fill="#FEFEFE"/>
</svg>
