<?xml version="1.0" encoding="UTF-8"?>
<svg version="1.1" viewBox="0 0 800 800" width="200" height="200" xmlns="http://www.w3.org/2000/svg">
<path transform="translate(0)" d="m0 0h800v800h-800z" fill="#FEFEFE"/>
<path transform="translate(161,341)" d="m0 0h26l11 3 14 7 3 2-1 4-12 15h-5l-7-4-8-3h-13l-9 4-7 5-5 9-2 7v15l4 11 6 7 10 5h21l4-2 1-16-19-2-1-1v-19l1-1 41-1 2 1v56l-6 4-16 5-6 1h-22l-10-2-16-8-10-9-6-8-5-10-3-14v-12l4-15 6-11 9-10 9-6 10-5z" fill="#FD1214"/>
<path transform="translate(62,341)" d="m0 0h20l13 4 10 6 2 2v3l-4 4h-2l-2 4-7 7-4-2-9-5h-13l-6 2-1 3v7l5 5 25 9 9 6 6 7 3 8v14l-4 10-9 10-7 4-8 3-7 1h-13l-14-3-12-6-6-5v-4l8-7 6-7 5 1 5 4 6 3 13 1 7-3 2-4v-6l-5-5-11-5-12-4-10-6-6-7-4-10v-9l2-9 5-8 8-7 11-5z" fill="#FD1214"/>
<path transform="translate(236,343)" d="m0 0h70v22l-1 1h-43l1 20 39 1 1 3-1 19-40 1v34l-2 7h-23l-2-1v-106z" fill="#E31117"/>
<path transform="translate(321,343)" d="m0 0h25l1 1v81l4 1 36 1 1 1v16l-1 6h-66l-1-1v-105z" fill="#E51117"/>
<path transform="translate(320,344)" d="m0 0h1l1 104h1v-23l1-14 1-3-2-7v-50h8l4 4v3l2-1-1 7-2 6h-2l1 10-2 5-2 24 1 4v7l3-1 2 9 1 5 13-1 3-1v2h25l7 4 2 5-2 6-3-1-4 1 10 1v1h-66l-1-1z" fill="#FD1214"/>
<path transform="translate(209,386)" d="m0 0 7 1v56l-3 1v-9l-7-1-3-4 1-8-2-4v-7l-6-4-1 19 1 5-9 4-3 1-6-2-14-2v-2l-4-2h27l4-2 1-16-19-2-1-1v-19l1-1z" fill="#E31117"/>
<path transform="translate(283,347)" d="m0 0h11l9 3 1 6-1 9-2 1h-39v-1l7-1-12 1-5 3-1 10-3-3-4 4-4-2-1-6v-17l5-5 6-1z" fill="#FD1214"/>
<path transform="translate(236,343)" d="m0 0h70v22h-1v-21h-68v100l2-12h2v-2l5 2 2 4 1 7-1 3-6 2h17l1-37 2-3 8-1-5-3-4-7v-2l4-4h16l8-1 9 4 2 5-1 5-8 3 10 1v-18h1l1 8-1 11-40 1v34l-2 7h-23l-2-1v-106z" fill="#FD1214"/>
<path transform="translate(416,338)" d="m0 0h6v117l-1 1h-5l-1-1v-94z" fill="#E31118"/>
<path transform="translate(527,390)" d="m0 0h28l3 7 2 9 2-1 2-12 1-3h6l4 9 1 5 2 1 2-15h7l-2 5-3 12-3 7h-6l-2-4-1-11-1-1-3 9-2 7h-7l-4-10-3-11h-3v2h-7l1 19h-7v-19h-5z" fill="#E31118"/>
<path transform="translate(482,389)" d="m0 0 9 2 4 4 1 3v9l-4 5-9 3-7-2-5-6v-11l5-5z" fill="#E31118"/>
<path transform="translate(506,390)" d="m0 0h12l5 5 2 4v7l-3 5-5 3-7 1-7-3-4-9 2-9z" fill="#E31118"/>
<path transform="translate(675,348)" d="m0 0h9l5 4 2 3v10l-4 6-5 2h-7l-6-4-4-8 2-7 6-5z" fill="#E31118"/>
<path transform="translate(573,430)" d="m0 0h15l5 3 3 5v8l-4 6-4 2-12 1-3-2z" fill="#E31118"/>
<path transform="translate(698,348)" d="m0 0h14l4 4 1 14-3 6-2 1h-14l-2-2v-18z" fill="#E31118"/>
<path transform="translate(482,430)" d="m0 0h6l3 2 2 11 4-4 4-8 7-1 1 1v23l-4 1-2-1v-13l-2 2-3 8-4 1-3-5v-3l-3-1v11l-5 1-1-1z" fill="#E31118"/>
<path transform="translate(498,348)" d="m0 0h15l5 6 1 5-2 3h-2l2 7v4h-5l-2-6-6-2v7l-1 1h-5l-1-5v-19z" fill="#E31118"/>
<path transform="translate(643,390)" d="m0 0h15l5 4v9l-3 1 2 10-3 1-3-2-2-4-6-1v7h-5l-1-6v-18z" fill="#E31118"/>
<path transform="translate(149,345)" d="m0 0h4v2l-6 3-11 8-4 5-3 7-4 6-1 1-2 18-1 2 1 12 4 14 9 13h-3l-7-8-6-12-3-14v-12l4-15 6-11 9-10 9-6z" fill="#E91117"/>
<path transform="translate(549,430)" d="m0 0h18l1 3-1 2h-13l2 4h10l1 5-9 1h-3v4h12l1 4-2 2h-16l-2-6v-18z" fill="#E31118"/>
<path transform="translate(730,348)" d="m0 0h5l4 7 5 12 1 6-6-1-2-3h-9l-3 4-5-1 3-10 5-11z" fill="#E31118"/>
<path transform="translate(623,390)" d="m0 0h5l4 6 6 17v2h-5l-2-4-11-1-2 4-4 1-1-4 8-19z" fill="#E31118"/>
<path transform="translate(474,348)" d="m0 0h17l1 4-1 1-11 1-1 4 12-1v5l-1 1-11 1 1 3 12 1-1 5h-16l-2-2v-22z" fill="#E31118"/>
<path transform="translate(591,390)" d="m0 0h18l-1 5h-9l-3-1 1 5h10l1 5-1 1h-11v4h11l2 4-3 2h-12l-4-2v-20z" fill="#E31118"/>
<path transform="translate(588,348)" d="m0 0h17v5l-12-1v6l9-1 2 1-1 5h-11l1 4 13 1v4l-2 1h-16l-2-2 1-22z" fill="#E31118"/>
<path transform="translate(455,348)" d="m0 0h11l1 1v6l-10-1v2l10 4 1 9-2 3-4 1h-8l-5-3v-5h3l1 1 9 1-1-3-6-2-5-3v-7l3-3z" fill="#E31118"/>
<path transform="translate(628,348)" d="m0 0h8l3 1 1 6-4-1h-7l-4 3v6l1 3 10 1 2-6 3-2 1 7-2 5-4 2h-8l-6-4-3-4-1-6 4-8z" fill="#E31118"/>
<path transform="translate(209,386)" d="m0 0 7 1v56h-1v-55l-41 1v12l3-6h3v2l10-1 1 4h3v-2l5 1-4 2-6 2h-2v3l-11-1v2l4 1h-7l-1-1v-19l1-1z" fill="#FD1214"/>
<path transform="translate(450,390)" d="m0 0h17l1 4-1 1h-10l-1 5h11l-1 5h-9l-1 8-2 2h-4l-1-2v-15z" fill="#E31118"/>
<path transform="translate(569,348)" d="m0 0h9l3 3v5l-5-2h-6l-3 5 1 6 6 2 7-3v6l-2 2-10 1-6-4-2-3-1-6 2-6 5-5z" fill="#E31118"/>
<path transform="translate(138,384)" d="m0 0h5l-1 3h3l-1 18h2l4 11 6 7v2l-4-2-6-5-3-7-2 1-3-1-2-9-2-5 3-11z" fill="#E41117"/>
<path transform="translate(81,389)" d="m0 0h6l10 6 7 8 2 5-1 7-4 8-4-1-2-1v-4l3-3v-7l-2-1 1-2-4-2v-2l-6-3-1-4z" fill="#E61117"/>
<path transform="translate(521,348)" d="m0 0h5l3 5 4 10v2h2l2-9 3-7 4-1 1 2-7 21-4 2-4-1-4-9-5-13z" fill="#E31118"/>
<path transform="translate(750,348)" d="m0 0h5l1 2v17l10 1 1 3-4 2h-13l-1-3v-20z" fill="#E31118"/>
<path transform="translate(525,430)" d="m0 0h20l-1 5h-7l1 5v14h-7l1-19h-7l-1-4z" fill="#E31118"/>
<path transform="translate(647,348)" d="m0 0h5l1 2 1 17h8l2 1-1 4-1 1h-14l-1-1z" fill="#E31118"/>
<path transform="translate(451,429)" d="m0 0 4 1 1 5v14h10l1 4-1 1h-16l-1-3 1-21z" fill="#E31118"/>
<path transform="translate(161,341)" d="m0 0h26l11 3 14 7 3 2-1 4-5 6h-2l1-3h2l-1-3-2-4-4-4-10-4-20-1-14 1-5 1 1-2h2v-2z" fill="#EC1116"/>
<path transform="translate(192,410)" d="m0 0h1l2 16 1 5-9 4-3 1-6-2-14-2v-2l-4-2h27l4-2z" fill="#EB1116"/>
<path transform="translate(509,395)" d="m0 0h6l4 4v6l-5 5-6-1-3-5v-6z" fill="#FEFEFE"/>
<path transform="translate(479,395)" d="m0 0h7l4 4v6l-4 4-5 1-4-4-1-7z" fill="#FEFEFE"/>
<path transform="translate(676,353)" d="m0 0h6l3 3v9l-4 3-6-1-3-3v-7z" fill="#FEFEFE"/>
<path transform="translate(62,341)" d="m0 0h20l13 4 10 6 2 2v3l-3 3h-3l-2-4v-3l-3-1v-3l-9-3-6-1h-21l2-1z" fill="#E91117"/>
<path transform="translate(550,348)" d="m0 0h5l1 1v23l-6 1-1-3v-21z" fill="#E31118"/>
<path transform="translate(581,434)" d="m0 0 7 2 2 2v7l-3 4h-8v-14z" fill="#FEFEFE"/>
<path transform="translate(470,430)" d="m0 0h5l1 1v23h-6z" fill="#E31118"/>
<path transform="translate(516,429)" d="m0 0 4 1v24l-4 1-1-1-1-11v-13z" fill="#E31118"/>
<path transform="translate(34,360)" d="m0 0h2l-1 13v9l4 8v2h2l2 4-4-1-4-5-4-10v-9l2-9z" fill="#EC1116"/>
<path transform="translate(62,341)" d="m0 0h20l13 4v1h-6l-8-2h-21l2-1z" fill="#EE1116"/>
<path transform="translate(649,394)" d="m0 0 7 1 1 1v5l-3 2-5-1-1-1z" fill="#FEFEFE"/>
<path transform="translate(506,352)" d="m0 0 5 1 1 1v6l-1 1h-6l-2-2 1-6z" fill="#FEFEFE"/>
<path transform="translate(78,426)" d="m0 0 2 1-1 3-7 4-9-1-5-1v-1l16-2z" fill="#E91117"/>
<path transform="translate(99,435)" d="m0 0h2l-1 4-7 7-7 1v-2l5-3 4-2z" fill="#E91116"/>
<path transform="translate(122,420)" d="m0 0 5 4 7 11 1 2-4-2-6-7-3-5z" fill="#EF1116"/>
<path transform="translate(205,364)" d="m0 0h2l-2 4-3 4h-5l-1-4z" fill="#EA1116"/>
<path transform="translate(703,352)" d="m0 0 7 1 1 3-9 3v-6z" fill="#FEFEFE"/>
<path transform="translate(710,362)" d="m0 0 2 2-2 3-7 1-1-5z" fill="#FEFEFE"/>
<path transform="translate(625,397)" d="m0 0h2l2 7-1 1h-6l1-5z" fill="#FEFEFE"/>
<path transform="translate(45,348)" d="m0 0h3l-2 4-8 6-1-3z" fill="#E91117"/>
<path transform="translate(99,360)" d="m0 0 1 3-8 8-4-2v-2h6v-2h2l1-4z" fill="#EC1116"/>
<path transform="translate(732,355)" d="m0 0 3 3 1 4-1 1h-6l1-4z" fill="#FEFEFE"/>
<path transform="translate(205,443)" d="m0 0h6l-1 4-7 1v-3z" fill="#E61117"/>
</svg>
