<?xml version="1.0" encoding="UTF-8"?>
<svg version="1.1" viewBox="0 0 2048 2048" width="600" height="600" xmlns="http://www.w3.org/2000/svg">
<path transform="translate(0)" d="m0 0h2048v2048h-2048z" fill="#ED1209"/>
<path transform="translate(1e3 471)" d="m0 0h43l31 4 24 5 26 8 20 8 17 8 22 13 17 12 11 9 11 10 8 7 7 7 7 8 11 13 12 17 12 20 12 25 8 22 6 23 4 23 1 15v37l-3 24-5 23-8 26-10 23-9 17-10 16-14 19-12 13-7 8-9 9-8 7-16 13-15 10-20 12-25 12-15 6-30 9-25 5-26 3h-44l-26-3-29-6-26-8-20-8-16-8-16-9-11-7-14-10-16-13-5-4v-2l-4-2-13-13-7-8-12-15-14-21-9-16-10-21-8-22-6-24-4-24-2-24v-12l2-25 4-24 6-23 7-20 11-24 12-21 16-22 11-13 12-13 15-14 14-11 14-10 18-11 25-13 26-10 28-8 28-5z" fill="#FDFEFD"/>
<path transform="translate(1588,1065)" d="m0 0h15l10 4 11 9 10 13 5 10 1 3v13l-4 11-6 11-10 14-2 3 7 7 8 7 17 16 8 7 20 20 9 11 10 12 12 18 6 13 4 14 1 7v30l-2 13-4 10-8 11-10 9-13 8-17 8-17 5-18 3h-26l-17-3-18-6-15-8-11-9-9-9-10-14-5-10-3-10v-19l5-15 8-12h2l2-4 10-7 12-6 13-4 11-2 12-1h13l21 2 5 2 2 4v7l-6 28-3 10-1 1h-9l-34-3-9 1-7 4h-2l3 7 2 4 14 3 9 1h24l15-3 14-6 10-8 5-7 4-12v-10l-5-16-7-13-7-9-11-12-13-11-19-13-10-7-4 1-22 28-13 16-8 10-13 16-8 10h-2l-2 4-12 13-1 2h-2l-2 4-6 7-24 24-8 7-14 13-11 9-13 10-14 9-15 8-21 7-6 1h-13l-14-3-10-7-6-12-2-13v-12l2-19 6-28 9-29 12-33 13-34 5-12-35-2h-11l-6 8-16 28-14 25-14 24-15 26-12 20-10 15-11 14-11 11-13 10-13 8-16 8-18 6-7 1h-10l-12-3-8-6-5-6-5-11-2-10v-16l2-19 5-26 7-24 12-37 6-21-8 7-11 17-16 25-9 14-15 23-14 22-13 18-8 10-10 11-7 8-14 12-14 9-14 7-13 3h-14l-11-3-11-6-10-10-8-16-2-8v-18l4-20 6-18 10-23 9-21 7-15 9-19 11-23v-1h-27l-11 1-5 6-15 26-15 24-14 20-13 17-11 14-14 15-7 8-5 6h-2l-2 4h-2l-2 4-3 3h-2v2l-8 7-10 8-15 10-16 8-18 6-16 3h-24l-15-3-16-8-10-9-7-11-4-9-3-14v-18l4-20 5-15 8-16 8-15 14-22 10-14 9-12 12-14 9-10 10-10 11-9 10-8 13-8 13-6 14-3h17l16 4 11 6 6 7 2 5v17l-4 15-7 14-8 11-11 12-8 8-8 7-14 12-12 10-22 18-16 13-5 6-1 6 4 8 8 4 16 1 10-2 14-7 18-14 15-14 8-7 13-14 9-11 12-16 11-18 8-16-1-6-7-10-4-8-2-9v-11l3-14 5-14 9-16 8-10 7-7 14-9 10-4 5-1h16l9 3 10 9 5 8 7 18 5 4 5 1 71 4 26 2-1 6-16 38-6 14-6 8-6 3-35 1-9 4-6 10-17 34-14 31-2 6v11l3 6 7 6 7 3h12l10-5 7-7 8-7 12-13 11-12 13-17 12-16 12-17 14-20 10-14 14-20 14-19 13-13 15-11 11-5 5-1h12l13 4 11 8 6 7 5 11 1 5v19l-5 25-12 36-16 45-2 11v11l3 5h6l8-5 7-7 9-16 6-10 6-11 9-17 12-22 14-26-1-4-11-14-9-14-5-15-1-7v-22l3-13 6-10 9-6 8-3 4-1h15l11 3 9 6 7 8 6 13 7 26 4 6 11 2 16 2h17l6-7 5-8 5-3h19l16 1 39 1 9 1-3 10-15 41-14 36-18 47-6 18-2 8v12l2 3h7l10-6 16-15 30-30 7-8 13-15 14-17 15-20 13-18 2-4v-7l-9-25-4-16 1-6 10-14 14-18 11-12 5-4z" fill="#FDFEFD"/>
<path transform="translate(660,966)" d="m0 0h9l9 9 5 10 3 12v14l-4 16-6 12-9 10-11 7-12 5-16 3-22 2-68 3-10 5-3 4v9l6 9 9 10 8 8 8 7 14 12 10 8 30 23 14 11 12 11 9 10 11 18 6 15 3 10 1 7v25l-4 18-8 18-9 15-13 16-8 8-17 13-23 13-17 8-25 9-21 5-23 3h-27l-23-3-21-5-25-9-19-9-15-9-9-7-9-8-10-14-5-11-4-16v-18l4-14 7-12 8-9 13-9 14-8 23-10 23-7 20-4 20-2h19l24 2 24 5 24 7 8 4 2 2v8l-13 32-9 22-5 4h-7l-35-8-28-4-12-1h-34l-19 3-13 4-6 5-1 5 4 6 10 4 33 7 19 3h34l34-2 23-3 23-5 19-6 16-8 10-9 3-7v-10l-6-12-13-15-9-9-8-7-15-13-17-14-14-11-11-10-8-7-11-11-11-14-10-16-8-20-4-20v-17l3-17 5-15 7-13 7-9 10-10 11-7 14-5 24-4 57-9 19-4 15-5 15-8z" fill="#FDFEFD"/>
<path transform="translate(946,1194)" d="m0 0h27l1 2-9 19-7 15-9 19-13 29-3 3-4-1 1-9-1-1h-5l-5 4-3-1-1 3h-2l-1 4-6 8-1 4v5l-5 5-4 8-8 7-4 5-3 1v3l-9 9-5 7-6 1-1 6-4 4h-3l1 3-10 10-7 8-4 5h-2v2h-2l-2 4-12 11-11 8-15 10-16 8-9 4-14 4-17 2h-18l-19-3-16-6-12-7-11-13-11-8-7-3-7-1-10 2-15 8-11 7-10 5-10 7-14 7-14 5-6 2-27 4-37 1-16 1h-24l-10-3-14-2-7-2-12-3-1-2-8-2-10-6-4-1-3-2v-2l-6-2-11-8-11-9-8-9-4-6-6-10-8-20-2-9-1-15 3-18 4-10 6-11 3-3h3l1 21 4 16 8 16 11 13 10 8 13 8 15 8 19 8 22 7 20 4 17 2h27l23-3 21-5 20-7 18-8 17-9 14-9 10-8 10-9 11-13 11-18 5-9 5 5-1 12v18l4 17 7 13 7 8 10 7 11 5 15 3h24l20-4 16-6 14-7 12-8 9-7 10-9h2v-2l6-5 5-6h2l2-4 8-8 7-8 10-11 10-13 15-20 16-24 8-13 14-24 6-9 3-3z" fill="#C80F0F"/>
<path transform="translate(1587,1189)" d="m0 0 4 1 18 12 12 9 14 12 12 13 8 13 5 11 3 11v10l-4 12-7 9-11 8-12 5-15 3h-24l-20-3-5-5-3-4v-4l12-6 21 1 19 2h9l5-18 4-20v-7l-2-4-11-2-14-1h-13l-18 2-15 4-12 5-10 7-5 5h-2l-2 5-5 7-5 15v19l5 15 7 11 9 11 8 8 10 7 15 8 20 6 13 2h26l18-3 17-5 21-10 14-10 9-10 6-11 2-8 1-9 1-36h1l2 13 1 23 4 7 5 5 1 3v17l-1 12-5 16-6 10-9 11-9 8-13 8-17 7-28 6-11 1h-25l-18-3-10-4-11-4-15-8-4-1-2-2-5-3-11-12-5-9-12-13-5-5-5-2h-8l-11 7-12 9-4 4-3 1-5 5-10 8-5 2-5 4-9 6-11 6-12 6-17 6-16 3h-19l-17-5-10-6-5-5-3-6v-5h-2l-5-9 1-6-1-5 2-2 10 2 4 1-6-7v-2l-3-1-1-5-4-2v-7l-2-3v-6l4-8 1-6h1l2 26 4 11 4 6 8 5 14 3h13l16-4 15-6 18-10 16-12 13-11 11-9 11-11 8-7 14-14 2-3h2l2-4 6-7h2l2-4 12-13 1-2h2l2-4 12-14 7-9 14-17 11-14 14-18z" fill="#C80F0F"/>
<path transform="translate(1325,1184)" d="m0 0h11l31 2 4 1-3 10-8 20-8 21h-2l-2 5-4 2h-5l-6 3h-3l-2 5-5 6-3 6-4 4-4 8-6 8-6 12-5 6-4 8-5 6-4 7-5 5-10 16-10 13-18 24-5 5-13 12-15 11h-2v2l-8 5-10 5-12 4-12 3-11 2h-22l-10-4-13-13-4-13-4-5-6-14-3-14h-11l-8 5-10 9-8 8-7 8-5 5h-2l-2 4-5 4h-2l-2 5-13 9-14 7-15 3-9 1h-20l-11-2-9-2-6-4-7-3-4-4-6-12-1-5-3-3-4-10-2-10v-15l2-12 5-15v-18l3-5 3-9 3-1-1-3h2l2-4h3l-1 6h-2v10l-4 20v18l4 13 6 11 9 9 11 6 11 3h14l13-3 16-8 13-9 10-9 5-4 2-3h2l2-4 11-12 13-18 12-18 14-22 8-12 32-50 7-9 4-4h2l-1 7-6 21-12 36-7 27-4 24-1 12v16l3 13 6 11 7 6 9 4 6 1h10l14-3 15-6 16-8 14-10 11-9 9-9 12-16 13-21 28-48 14-25 12-21 14-24z" fill="#C80F0F"/>
<path transform="translate(774,669)" d="m0 0 4 1 19 14 21 16 19 14 18 14 16 12 17 13 26 20 10 8 4 7-1 7-9 24-8 23-20 55-16 43-3 6-5-1-13-10-14-12-15-15-9-11-10-13-12-19-8-15-8-19-7-20-6-27-3-24v-28l3-25 5-23z" fill="#ED1209"/>
<path transform="translate(1277,670)" d="m0 0 3 3 6 24 4 26 1 10v23l-3 27-4 20-6 20-10 25-10 19-7 11-10 14-9 11-4 5h-2l-2 4-14 14-11 9-12 9-3-1-21-71-17-58-10-34-2-8v-6l4-5 26-17 27-18 16-10 24-16 32-21z" fill="#ED1209"/>
<path transform="translate(1037,848)" d="m0 0 6 1 17 12 19 14 16 12 76 56 7 5-1 4-16 9-17 9-19 8-24 8-22 5-27 4-16 1h-21l-31-3-25-5-21-6-21-8-23-11-16-10-2-3 14-9 22-14 23-15 22-14 17-11 25-16 20-13 15-9z" fill="#ED1209"/>
<path transform="translate(1014,495)" d="m0 0h9l-3 10-10 25-22 57-16 42-13 33-5 5h-40l-121-3-15-1-1-4 12-26 12-20 14-19 10-11 7-8 11-11 11-9 16-12 14-9 18-10 17-8 25-9 23-6 24-4z" fill="#ED1209"/>
<path transform="translate(1033,495)" d="m0 0 27 2 24 4 20 5 21 7 25 11 18 10 18 12 13 10 10 9 8 7 9 9 18 22 13 20 14 27 4 10v2h-31l-146-6-12-1-5-4-5-12-22-72-20-64z" fill="#ED1209"/>
<path transform="translate(864,1453)" d="m0 0h114l26 1 20 4 15 5 6 4 5 6 3 9 1 6v14l-3 12-6 8-7 4-14 3-28 3-45 3 2 2 78 26 9 5 5 5-1 4-6 5-2 1h-16l-15-4-51-17-37-13-31-10h-1l-1 35-3 6-4 3h-16l-6-4-3-7v-108l2-5 5-5z" fill="#FDFEFD"/>
<path transform="translate(466,1057)" d="m0 0h2l-1 13-1 7v17l4 20 8 20 10 16 8 10 11 12 8 8 11 9 14 12 14 11 15 13 20 18 7 7 11 14 4 9v10l-4 8-7 7-14 8-17 6-24 6-19 3-22 2-22 1h-34l-30-5-26-6-6-3-4-5-1-4 3-5 5-4 13-4 19-3h34l26 3 18 3 31 7h7l5-5 14-35 7-17v-8l-4-3-21-7-5-2 2-1-1-2-10-2-10-4-26-7-10-6-2-1v-2l-4-2-4-5-4-9-8-21-5-13-4-17v-28l7-22 4-11h2v-2h2l2-7z" fill="#C80F0F"/>
<path transform="translate(1144,1453)" d="m0 0h20l6 4 4 5-1 5-5 5-7 2-30 1-22 2-6 3-3 3-2 9v10l2 4 2 1 138 1 7 3 2 3v10l-4 4-3 1-134 1-8 3-2 4-1 9 3 8 6 4 17 3 16 1 105 1 5 6v7l-3 5-4 2-36 1h-50l-33-1-20-3-20-6-9-6-4-5-3-7-1-5v-64l3-11 4-6 7-6 11-4 16-3z" fill="#FDFEFD"/>
<path transform="translate(840,1493)" d="m0 0 11 5 1 72 5 10 4 2h16l5-5 1-3 1-35 2-1 36 12 71 24 1 2h-2v2l4 1 2-2 1 3 6 3 4 6 5 3 3 3 11 6 2 4h-2l-1 4-5 4-7 1v2l-9 2h-8l-25-4-12-3-14-3-10-2-8-1-10-2h-16l-15 3-12 3-6 2h-9l-7-3-4-5-3-9-5-3-2-5-1-15v-9l-3-15-2-4v-4l-9 2-2-2-1-2-9-2-2 4-1 1-7 1-4 2-2-1v2l-4 1v2h-2l-2 4-10 7h-5l-4-4-3-10v-7l7-8 10-6 11-8 12-8 9-4 16-8 4 1z" fill="#C80F0F"/>
<path transform="translate(1317,1453)" d="m0 0h22l11 1 6 7-1 7-5 4-6 2-37 3-8 2-7 5-2 9 3 6 8 4 14 2 72 2 20 2 16 5 11 6 8 9 3 8v15l-4 12-8 9-9 4-14 3-21 3h-124l-5-6v-8l3-5 3-1 20-1 100-1 17-2 7-4 3-6-1-9-3-5-3-2-23-3-31-2-46-2-17-2-12-4-10-6-6-9-2-8v-13l3-10 5-7 11-7 13-4 10-2z" fill="#FDFEFD"/>
<path transform="translate(1474,1510)" d="m0 0h1l2 13v60l10-5 13-8 23-13 24-14 23-13 3 1h-2v2h-2l-1 6 2 3 9 2 4 4 2 5v10l-4 8-4 5-4 4-12 9-14 9-12 7-21 8-5 1h-12l-7-3-5-1h-8l-4-4-4 1-2 1h-10l-4 3h-2l-9 4-12 5-10 2h-10l-10 2-11-1h-12l-10-2-10-1-7-2-7-1-19-1-14-2-5-3-5-2 3-5 7-1 9-1 22-2 30-3 21-3 8-2 1-2 3-2 1-3-9-2 1-2 23-4 10-3 11-9 1 3-1 8 7-2 5-4-1 4 8-2 2-6 4-5 2-6 6 1-1-13z" fill="#C80F0F"/>
<path transform="translate(1037,848)" d="m0 0 6 1 17 12 19 14 16 12 57 42 11 8-1 2h-2l3 4-1 7-4 3h-20l-10-2-5-4-3-1-7-8-22-16-19-14-9-6-11-5-14-2h-12l-17 5h-3v2l-9 4-11 7-3 3-11 7-14 9-12 9-11 8-13 4-9 3h-9l-5-3-1-3 2-4-1-1h-9l-5 1 5-5 22-14 23-15 22-14 17-11 25-16 20-13 15-9z" fill="#C80F0F"/>
<path transform="translate(1081,1161)" d="m0 0 1 3-3 13-1 7 1 2 5-4 3 1 3 9v2l4 2 3 1v2l4-1-1 4-16 23-14 19-10 13-9 11-11 12-15 16-10 9-10 5h-12l-10-5-7-8-1-3v-11l7-17 14-30 15-30 4-5 9-4 35-1 7-4 7-12 7-18z" fill="#C90F0F"/>
<path transform="translate(1477,1449)" d="m0 0 6 2 21 12 52 30 19 11 17 10 1 4-15 8-24 14-26 15-28 16-20 12h-3l-1-53z" fill="#FDFEFD"/>
<path transform="translate(877,1156)" d="m0 0h1l1 8 2 6 4 10 7 11 2 4-1 6-11 20-10 15-10 13-12 14-12 13-15 14-11 9-13 10-14 7-10 2-16-1-8-4-4-6-1-5 3-7 7-7 14-11 17-14 11-9 14-12 11-10 8-7 9-9 9-12 7-12 7-21 1-10 2 2v9l5-2 1-3h2l1-4z" fill="#C90F0F"/>
<path transform="translate(654,1453)" d="m0 0h11l8 2 11 7 11 9 12 9 26 20 9 6 7-1 30-23 16-12 16-11 11-4 5-1h10l6 5-1 5-7 8-16 13-13 10-17 13-19 14-7 7-3 8v33l-2 9-3 3-3 1h-16l-5-3-3-8v-13l1-21-3-8-9-10-15-11-18-13-28-22-8-7-2-4 1-7z" fill="#FDFEFD"/>
<path transform="translate(1587,1189)" d="m0 0 4 1 18 12 12 9 14 12 12 13 8 13 5 11 3 11v10l-4 12-7 9-11 8-12 5-15 3h-24l-20-3-5-5-3-4v-4l12-6 21 1 19 2h9l5-18 4-20v-7l-2-4-11-2-14-1h-13l-18 2-15 4-12 5-10 7-5 5h-2l-2 5-5 7-2 5h-2v-3h-2l-1-4 2-5 2-4h2l2-4 12-14 7-9 14-17 11-14 14-18z" fill="#C90F0F"/>
<path transform="translate(473,1453)" d="m0 0h158l7 2 4 6v7l-4 5-6 1-62 1-2 3-1 92-1 8-4 4-2 1h-16l-5-3-3-7-1-93-3-5-62-1-5-2-4-5v-7l3-5z" fill="#FDFEFD"/>
<path transform="translate(1436,1020)" d="m0 0h78l6 2 1 2-4 15-16 41-5 6-11 1-73-1-4-3v-7l11-27 8-20 4-6z" fill="#FDFEFD"/>
<path transform="translate(1054,1501)" d="m0 0h1v10l8 4 1-7h1l1 41 4 12 4 6 9 6 20 6 20 3 2 2-12 1-4 3 6 5 14 4 10 2 12 1 49 2 10 4-1 5-3 2-10 1h-5l-3 1-7-1-5 2h-12l-8 2h-38l-26-2-12-3-10-3-9-9-2-5 1-5-1-3h-4l-2-4-3-10-5-7-2-1v-2h-2v-2l-5-2-19-10-3-4 1-5 1-6-3-2-8-1 2-2 23-3 10-3 6-4 4-6 3-12z" fill="#C80F0F"/>
<path transform="translate(1250,1120)" d="m0 0h1l3 18 5 15 9 14 12 15-1 5-17 32-13 23-9 16-6 11-7 13-6 8-7 7-6 3h-6l-4-6v-11l3-14 19-53 8-25 5-25 1-2 1-17h1v10l5-5 2-5 1-8 2-11h3z" fill="#C90F0F"/>
<path transform="translate(893,1474)" d="m0 0h101l17 2 7 3 3 3 2 8v11l-3 7-8 4-62 1-40 1h-18l-6-2-2-2-1-5v-15l2-10 6-5z" fill="#ED1209"/>
<path transform="translate(671,1044)" d="m0 0h2l-2 5-7 9 1 8 1 3-3 9-6 7-8 6h-2v2l-11 6-5 3-5 2-23 4-19 2h-11l-28-7-6-3h-6l-8-11-1-2v-9l5-6 9-4 68-3 29-3 12-3 16-8z" fill="#C80F0F"/>
<path transform="translate(652,1491)" d="m0 0 10 2 9 4v2l4 1 17 11 14 10v2l4 1 4 2 7 1v-2l4 2 4 7 1 4-1 23v11l3 8 4 2h16l5-3 2-9v-33l3-3 1 8 1 1v12l-4 26-3 5-4 5-1 5v5l-5 5-5 3-6 1-7-2-6-5-1-7-4 1-5-6v-2l-2-2v-5h-2l-10-16-2-2-1-5-5-3-7-9-8-7-2-1v-2h-2l-5-5-9-7-2-4-10-7-6-1-2-9-3-1 1-3 9-2 2-5z" fill="#C80F0F"/>
<path transform="translate(804,691)" d="m0 0 5 2 21 16 16 12 13 10 12 9 17 13 26 20 10 8 4 7-1 7-9 24-2 6-3 1-3-7-2-7-14-13-6-4-2-5-4-2-11-8v-2h-2v-2l-6-2-3-3v-2l-5-2-4-4-7-4-2-4-5-2-10-9-8-7-9-11-8-10-4-10 1-4 12 2 1-2v-5l-4-2z" fill="#C80F0F"/>
<path transform="translate(421,1285)" d="m0 0h34l26 3 18 3 31 7h7l7-6h1l-1 9-2 3h-2l-2 4-8 5-5 5-1 2h-5l-6-2-26 1h-20l-37-4-31-5-9-4-4 1 2 3-4-2-3-5 2-6 6-5 13-4z" fill="#C90F0F"/>
<path transform="translate(1514,1044)" d="m0 0h2l-1 5v13l2 4 7 5 1 4v9l-1 5 1 1v7l-3 7-8 10-6 4-9 3-3 2-9 1-10-3-4-1-36-2-15-3-12-6-2-2 1-5 6-5 1-2h2l2-4-3-1v-2l-4-1 74-1 9-1 4-5z" fill="#C80F0F"/>
<path transform="translate(1475,1155)" d="m0 0 1 2-1 5 3 5 3 2 7-1 1 7v15l-5 19-4 17-4 11-7 14-5 12-7 11-10 11-5 4h-6v-2l-7 1-3 4v-9l6-20 14-36 18-47 9-24z" fill="#C80F0F"/>
<path transform="translate(1255,684)" d="m0 0 3 1-8 7h-2l-2 4-5 5h-2v2l-3 3-2 4 4 1 4 2-2 6-8 9-14 11-4 2v2h-2l-2 4-11 8-18 12-4 3-7 2-4 4h-2l-2 5-6 7-4-1-6-7-4-1-1-4 1-2h-3v7l2 6 3 10v6l-2-2-7-24-1-10 4-5 26-17 27-18 16-10 24-16z" fill="#C90F0F"/>
<path transform="translate(1061,1233)" d="m0 0h8 3l2 4-2 4-12 16-9 11-11 12-15 16-10 9-10 5h-12l-10-5-7-8 1-12 2-4 8-1 4 3 5-1 5-9 11-15 9-9 10-5 13-4 15-6z" fill="#EE1309"/>
<path transform="translate(519,1489)" d="m0 0 5 1 2-1 7 3 2 3 1 75 3 9 5 3h19l-2 5-4 3-7 2-1 3h2v6l-3 3-2 1h-6l-6-7-10-10-2-7-1-15-2-18-1-12-3-5-3-3-1-3-5-5-4-3v-2h-2l-4-7 1-13 2-3 7-1 1-1z" fill="#C80F0F"/>
<path transform="translate(551,1281)" d="m0 0 4 1 1 8 1 4 21-2h20v2h2l1 3-11 7-14 6-26 7-24 4-22 2-22 1h-34l-30-5-26-6-5-2-2-5 5-1 9 4 31 5 27 3 14 1h26l18-1 4 2h5l2-4 7-5 5-3 5-6 3-11h2l1-7z" fill="#ED1209"/>
<path transform="translate(1274,1519)" d="m0 0 5 1 16 4 30 2 27 1 2 2-39 1-6 1v4l16 8-2 3-14 5-13 1h-13l-18-4-4-2v-6l3-5 5-5-2-1 7-1 2-5-2-1z" fill="#C90F0F"/>
<path transform="translate(862,1237)" d="m0 0h2v2h2l1 4-11 13-9 10-7 8-17 16-11 9-13 10-14 7-10 2-16-1-8-4-4-6 1-3 3-1 7 5 9 1 14-3 10-6 10-5 11-10 5-4h2v-2l8-7 1-2h2l2-4 3-1 2-4 13-12 9-10z" fill="#EE1309"/>
<path transform="translate(1641,1104)" d="m0 0h1v21l2 9 6 1 5 6v8l-2 9-4 4-1 3-7 5-1 4 1 3-4-2-10-10-8-7-2-3 8-10 8-13 5-11 2-5z" fill="#C90F0F"/>
<path transform="translate(735,742)" d="m0 0h1l3 34 5 29 6 22 8 21 12 25 11 18 10 14 13 16 5 6h-3l-7-8-8-10-6-8-2-1-3-6-4-4-5-9-2-1-1-7h-2l-2-5-3-3-5-8-9-19-7-16-4-10-4-13-3-14v-9l-1-13 4-6h2z" fill="#CA0F0F"/>
<path transform="translate(1631,1271)" d="m0 0h1l-1 10-3 13 1 8-4 5-6 3-3 4-9 2-2 1h-14l-3-1v-2h-3v-2l-10-2-9-2-4-2v-4l12-6 21 1 19 2h9l5-18 2-9z" fill="#C90F0F"/>
<path transform="translate(796,1191)" d="m0 0h7v9l-4 7-3 1-2 4-13 12-11 11-9 7h-3l1-9 7-14 10-14 7-7 10-6z" fill="#CB0F0F"/>
<path transform="translate(1635,1260)" d="m0 0 2 1 2 5 1 8-2 13v7l-1 4 6-1 3-2h4l1 4-4 5h-2l1 3-14 7-11 3-7 1h-24l-20-3-5-5-1-2 5-1 16 5v2h3v2h17l4-2 7-1 4-5 6-3 2-4-1-7 4-17v-11h2z" fill="#ED1209"/>
<path transform="translate(1549,1244)" d="m0 0h16l4 2-4 2v3l-16 6-11 7-5 4-1 2h-2l-2 5-5 7-2 5h-2v-3h-2l-1-4 2-5 2-4h2l2-4 12-14 6-3 1-2 5-3z" fill="#ED1209"/>
<path transform="translate(1282,688)" d="m0 0h2l4 20v10h-5l-2-4-5-1-4-5v-3h-2l-1-3-2 2h-6v-4l7-6h5v-2h5l4-2z" fill="#C90F0F"/>
<path transform="translate(1206,1277)" d="m0 0 5 2 2 4 12-2-1 6-10 10-6 3h-6l-4-6v-11z" fill="#ED1209"/>
<path transform="translate(1593,1239)" d="m0 0h18l13 3 4 2v2h2l1 4-12-2-14-1h-13l-17 1-1-5 5-2z" fill="#EE1309"/>
<path transform="translate(935,1491)" d="m0 0h24l3 2v2l-7 1h-8l-7 1h-18l-6-2 2-2 2-1z" fill="#C80F10"/>
<path transform="translate(885,1538)" d="m0 0 17 5-4 7-11 7-2-8h-1v-10z" fill="#EC1209"/>
<path transform="translate(806,1494)" d="m0 0 3 1-5 4h-2v2l-13 10-12 9-2 4h-2l-2 4-6 5h-3l1-5 8-8 18-13z" fill="#CE0F0E"/>
<path transform="translate(1254,1216)" d="m0 0 3 1v6l1 3-9 16-2-4h-2l1-6 6-14h2z" fill="#ED1209"/>
<path transform="translate(765,868)" d="m0 0 3 1 9 16 11 16 11 14 9 10 1 3-3-1-7-8-8-10-6-8-2-1-3-6-4-4-5-9-2-1-1-7h-2z" fill="#D2100E"/>
<path transform="translate(1016,507)" d="m0 0h1l-1 8-9 23-4-1 4-16 4-10z" fill="#CE0F0E"/>
<path transform="translate(768,1223)" d="m0 0h5l1 4-5 6-3 5-5 4h-3l1-9 7-8h2z" fill="#EC1209"/>
<path transform="translate(761,1534)" d="m0 0h1l1 8 1 1v12l-3 22h-2v-40z" fill="#D2100E"/>
<path transform="translate(743,677)" d="m0 0h1v9l-4 18h-2l-2-6 1-6 4-13z" fill="#CD0F0F"/>
<path transform="translate(846,979)" d="m0 0 9 4 7 5v2l5 1 1 3-4-1-8-3v-2l-5-1-5-5z" fill="#C80F10"/>
<path transform="translate(806,1494)" d="m0 0 3 1-5 4h-2v2l-13 10-8 6-3-1 4-4 16-12z" fill="#D5100D"/>
<path transform="translate(1137,1210)" d="m0 0h2l-1 7-2 8-3-2v-2l-6 2 2-4 7-8z" fill="#EB1209"/>
<path transform="translate(765,868)" d="m0 0 3 1 9 16 4 7-5-2-5-9-2-1-1-7h-2z" fill="#CF0F0E"/>
<path transform="translate(552,1224)" d="m0 0 12 1 1 6-2 2-4-3-11-4z" fill="#EC1209"/>
<path transform="translate(1476,1543)" d="m0 0h1v40l-1-2h-2l-1-3 2-10z" fill="#EE1309"/>
<path transform="translate(1474,1510)" d="m0 0h1l2 13v12h-2l-1 4z" fill="#D4100D"/>
<path transform="translate(1104,1530)" d="m0 0h40v1l-35 1-9 3v-3z" fill="#CD0F0F"/>
<path transform="translate(1631,1271)" d="m0 0h1l-1 10-4 15-2 1 1-8 4-17z" fill="#D6100D"/>
<path transform="translate(1136,778)" d="m0 0 4 3 3 12 1 9-2-2-6-20z" fill="#D10F0E"/>
<path transform="translate(1038,1581)" d="m0 0h3l-1 3-11 4-2-1v-2l-2-1 10-1z" fill="#CA0F0F"/>
<path transform="translate(928,1283)" d="m0 0 3 1v4h-2v3l-2 2-1 3h-1v-10z" fill="#C80F10"/>
<path transform="translate(1539,1114)" d="m0 0h4l-1 10-2-4-2 2-1-1v-6z" fill="#CA0F0F"/>
<path transform="translate(799,1194)" d="m0 0h4l-1 9-1-3-4-2 2-1z" fill="#EE1309"/>
<path transform="translate(1408,1554)" d="m0 0h2l-1 3-3 2h-7l1-2z" fill="#D00F0E"/>
<path transform="translate(1020,1503)" d="m0 0 1 3-4 4h-6l5-4z" fill="#CD0F0F"/>
<path transform="translate(1071,1567)" d="m0 0 4 1 4 4-2 3v-2h-3l-3-4z" fill="#E4110A"/>
</svg>
