<?xml version="1.0" encoding="UTF-8"?>
<svg version="1.1" viewBox="0 0 900 900" width="225" height="225" xmlns="http://www.w3.org/2000/svg">
<path transform="translate(0)" d="m0 0h900v900h-900z" fill="#FDFDFD"/>
<path transform="translate(167,130)" d="m0 0h567l1 1v167l-1 1h-168l-6-12-5-12-10-17-9-11-5-6-14-11-16-9-18-6-18-3h-11l-19 3-18 6-13 7-10 8-8 8-7 12-3 10v19l4 11 5 9 9 11 12 10 21 12 20 9 38 13 41 12 47 15 27 11 23 11 19 12 13 11 12 12 9 13 8 16 5 16 2 10 1 11v17l-2 19-3 14h46l2 2v175l-1 1h-568l-1-1v-176h196l8 24 8 16 7 12 12 14 12 10 15 9 16 6 14 3 9 1h17l19-3 20-6 16-8 10-6 11-9 9-10 7-12 3-10v-14l-4-11-6-8-10-8-14-8-16-8-27-11-36-13-38-14-28-11-29-13-19-10-22-13-14-10-11-9-12-11-15-15-14-19-13-25-8-24-4-20-2-17-66-1-1-1v-167z" fill="#FDFDFD"/>
<path transform="translate(152,117)" d="m0 0h596l1 2v535l-1 97h-596l-1-10v-623zm15 13-2 1v167l1 1 66 1 3 23 5 21 7 19 12 23 12 16 9 10 16 16 11 9 15 11 20 12 20 11 33 15 36 14 39 14 35 13 30 13 16 9 12 9 6 7 4 9 1 4v14l-4 12-7 11-9 10-13 10-18 10-21 7-14 3-9 1h-17l-20-3-17-6-14-8-14-11-9-10-9-13-8-16-6-15-4-13h-196v176l1 1h568l1-1v-175l-2-2h-46l4-21 1-12v-17l-2-17-5-17-5-12-8-13-8-10-13-13-15-11-19-11-21-10-26-10-50-16-38-11-35-12-20-9-18-10-14-11-8-9-6-10-4-9-1-4v-19l4-12 7-11 10-10 14-9 14-6 15-4 14-2h11l18 3 18 6 16 9 10 8 6 5 11 14 8 13 7 14 6 14 1 1h168l1-1v-167l-1-1z" fill="#28216A"/>
</svg>
