<?xml version="1.0" encoding="UTF-8"?>
<svg version="1.1" viewBox="0 0 2048 1056" width="312" height="161" xmlns="http://www.w3.org/2000/svg">
<path transform="translate(0)" d="m0 0h2048v1056h-2048z" fill="#FCFCFC"/>
<path transform="translate(1159,295)" d="m0 0h26l19 3 15 5 15 8 5 3 9 9 2 4h2l8 13 5 15v20l-4 15-7 14-10 14-8 10-8 8-1 2 5 2 17 8 5 3v2h3v2l4 1v2l5 2 5 6 5 5 10 15 7 17 3 13 1 17-2 14-4 14-12 24 8-3 6-6h2l2-5 4-5 9-20 8-20 7-20 16-45 10-28 15-45 13-37 2-5h3l7 14 14 40 19 51 11 27 15 35 12 26 10 20 9 14 4 5 8 4 7-2 10-8 3-6 1-201 1-15 2-6 6 4 10 9 7 8 6 7 8 7 7 8 6 7 5 5 7 8 5 5 7 8 5 5 6 7 5 4 7 9 5 5 10 11 7 8 6 6v2l4 2 7 8v2l4 2 9 10 11 12 13 15 9 11v-86l-1-51-1-31-2-7-5-4-18-6-4-3v-2l73 2h65l4 1-1 3-14 8-4 4-1 6v68l1 12 10-8 20-20 8-7 13-13 7-8 10-12 8-12 3-9 1-10-1-5 46 2h18l-4 4-12 5-12 7-3 1v2l-12 9-12 11-7 6-7 8-21 21-7 8-11 12-7 8-2 3 1 5 4 4v2h2l5 6v2h2l5 6v2l3 1 7 8v2l3 1 6 7v2l3 1 6 8 13 13 7 8 11 11 9 7 5 5 10 8 2 1v2l5 2 7 5 18 8 12 3 1 3-13 6-9 2h-12l-12-3-14-7-9-6-8-6-15-12v-2l-4-2-11-11-7-8-2-4-3-1-9-11-4-4v-2l-4-2-5-6v-2l-3-1-5-6v-2l-3-1-9-11-1-3h-2l-7-8-4-3v79l1 15 3 8 10 6 10 4 3 3v2h-79l2-4 12-5 4-4 1-2 1-9v-192l-3-6-8-7-9-4-15 5-1 16v122l-1 55-2 40-7-4-11-10-8-7-50-50v-2l-4-2-7-8-3-3v-2l-3-1-7-8v-2l-3-1-7-8-9-10v-2h-2l-9-11-2-4h-2l-3-4v-2h-2l-4-5v-2h-2l-4-5v-2l-3-1-6-7v-2l-3-1-6-7v-2h-2l-5-7-10-10v82l1 53 1 25 2 10 11 6 15 6 2 2v3h-10l-11-1h-36l-7 1h-12l-7-1h-39l-11 1-5-2 1-3 12-5h2l-3-12-8-21-6-16-11-31-1-1-48-1h-18l-6 16-13 40-5 21 1 5 5 3 9 3v3h-48l-14 1-7 3-5 5-13 10-19 9-19 5-7 1-33 1-77-1-14-1-2-3 14-6 11-9 3-9 1-8v-260l-1-10-3-6-9-3-14-3-6-4v-4l14 1h26z" fill="#906B49"/>
<path transform="translate(667,625)" d="m0 0h34l48 1v17l-1 28-46 1h-138l-1 1h-6l-1 44v75l1 51 1 4 3 1h214v-92h41l1 3 1 89h103v-92l14-1h28l1 1 1 87 1 5h69v-127h43v78l-1 92h-915l-13-1-8-2-10-3-12-7-10-9-8-13-5-14-3-13-2-22v-30l1-37 1-1h22l18 1 1 61 2 15 3 10 5 9 8 9 6 3 15 1h337l3-1v-219l1-1 37-1z" fill="#906B49"/>
<path transform="translate(380,343)" d="m0 0 7 4 8 8 7 8 16 17 9 9 7 8 8 8 7 8 7 7 7 8 7 7 7 8 10 11 7 8 15 16 11 12 12 13 9 10 9 11 9 10 4 4 1-2v-17l-1-60-1-57-1-31-4-8-6-4-13-4-6-4v-2l89 1h43l24-2h35l18 3 21 8 18 10 11 9 12 12 10 15 8 16 5 15 4 24v13l-2 19-3 15-6 20-10 18-6 8h-2l-2 4-3 3h-2v2l-12 9-7 4-14 7-14 5-21 5-12 1-6 1h-36l-13-1-14-1-17-1-8-1-24-1 1-3 11-6 7-8 2-16v-183l-1-7-5-5-8-3-8 1-8 4-2 9v152l-1 31-3 37-4 1-11-9-10-10-8-7-43-43-7-8-15-16-7-8-22-24-9-11-12-14-9-11-12-13-9-11-5-6-2-1 1 64 2 42 1 46v9l2 9 5 5 5 3 14 5 3 3v3h-10l-12-2h-23l-23 2-61 1h-17l-5-1 2-4 10-7 4-6 3-8 1-13v-182l-3-5v-2l-5-2-13-7-1-3 19 1h41l17-1-4 5-12 6-5 4h-2v187l2 12 3 10 4 5 9 5 7 1v-2l10-5 8-7 4-9 1-12v-188l1-16z" fill="#054D2C"/>
<path transform="translate(1383,714)" d="m0 0h13l16 3 13 4 16 8 10 7 7 6 11 14 8 14 5 12 7 24 4 24 1 19 43 1h55l8-1v-127l1-2h41l1 1v95l1 31 1 2 71 1v-65l2-1h41l2 1v63l4 2h38l1-1v-96l1-1h44l1 98h62l1-51v-75l1-4h43l1 20v100l-1 52h-591l-12-1-1-39 1-2h95l5-1-1-17-5-23-6-15-9-13-8-7-14-8-12-4-15-2-3-1-1-6 1-38z" fill="#034C2C"/>
<path transform="translate(675,364)" d="m0 0h18l15 2 19 5 18 8 15 10 12 11 11 15 8 16 6 17 3 18v25l-3 17-6 18-6 11-10 13-10 9-15 9-13 5-25 5-15 1h-21l-12-3-6-4-6-7-4-11-1-18 1-166 4-3 13-2z" fill="#FDFDFD"/>
<path transform="translate(1205,719)" d="m0 0h67l15 2 12 4 9 5 5 4 7 10 5 12 2 11v106l-1 18-1 1h-191v-37l1-4 17-1 3-1 2-26 3-17 5-14 6-9 6-7 11-7 13-5h2l-1-14v-30z" fill="#044D2C"/>
<path transform="translate(207,289)" d="m0 0h24l22 3 9 2 1 6-3 28-4 28-1 2-3-1-6-18-5-9-9-10-7-6-10-5-11-2h-12l-12 3-12 6h-2v2l-6 4-8 12-4 10-1 7v11l3 13 7 14 10 13 19 19 11 9 15 13 12 11 10 9 12 12 10 13 6 10 6 13 3 12 1 8v10l-2 13-6 15-7 12-13 14h-2v2l-14 10-10 6-16 7-15 5-19 4h-15l-13-2-15-5-11-8-7-10-3-10v-10l4-20 6-19h3l1 17 4 15 5 9 8 9 11 7 13 4 6 1h18l21-5 12-7 9-7 6-8 5-10 2-10v-11l-3-10-8-16-8-12-12-14-15-16-11-11-8-7-29-29-9-11-12-17-8-14-5-16-1-6v-14l5-17 7-11 8-9 9-7 9-6 12-6 15-5 17-4z" fill="#044C2C"/>
<path transform="translate(824,351)" d="m0 0 57 1h19l-2 4-11 6-5 4-2 5-1 13v64l1 1h129v-80l-1-3-5-3-15-5-3-2v-3l16-1 19 1h42v3l-16 7-3 1-2 10v181l2 11 3 8 5 5 7 4 8 4 2 3-27 1-50-1-3-3 4-3 9-3 5-4 3-9 1-51v-51h-131l-1 12v72l1 13 3 8 7 8 11 6 6 3v2l-3 1-30 1h-23l-16-1-6-2v-4l15-4 3-3 1-9 1-20v-135l-1-44-4-6-4-3-10-5z" fill="#034C2C"/>
<path transform="translate(1151,451)" d="m0 0h23l18 2 15 6 14 9 10 9 5 5 10 14 7 15 4 12 1 6v20l-3 14-6 15-10 13-8 7-12 7-14 4h-13l-15-4-9-4-10-8-5-8-2-7-1-20v-90z" fill="#FDFDFD"/>
<path transform="translate(1170,309)" d="m0 0h10l15 4 12 7 9 9 7 12 4 12 2 12v14l-3 16-5 12-8 11-14 8-15 4-15 2h-17l-1-2v-114l3-3 9-3z" fill="#FDFDFD"/>
<path transform="translate(1139,48)" d="m0 0 2 1-8 22-4 19-1 8v30l3 16 5 18 11 23 12 16 9 10 13 10 15 8 16 5 12 2h17l15-3 17-6 15-10 12-10 9-11 1-2h2l2-5 8-12 1 2-6 17-8 16-8 11-10 13-13 11-9 6-16 8-19 5-7 1h-19l-15-3-11-4-15-8-12-9-12-12-3-4v-2h-2l-10-16-6-12-5-13-5-21-2-17v-23l4-22 5-17 12-24z" fill="#054C2C"/>
<path transform="translate(1380,395)" d="m0 0h2l5 13 7 25 13 44v5h-54l2-9 14-42 9-31z" fill="#FDFDFD"/>
<path transform="translate(1628,175)" d="m0 0h5l1 1v13h23l2 2 2 12v6l6 1-1-14v-7h8l1 4v11l2 5 1 1h7v-10l1-11h7v21l5-1 1-19 1-1h5l1 1v24l-1 2-7 2 1 9-2 2-4-1v-12l-7 2-5 1 1 4 2 1-1 4-5 1-3-1-1-3 3-8h-23l-35 1h-11l-1 2-3-1-4 7-5 1-1-3 4-9 2-3-1-22 1-1h5l1 2 1 17 1 1h5l2-20h6v20h5l1-13z" fill="#151210"/>
<path transform="translate(1812,932)" d="m0 0h5l2 5 1 40 2 3 8 1 4-1v-27l4-2 5 1 2 4v20l1 4 5 1 5-1 1-25 1-3 4-1 4 3 1 10 1 17 22-1 2-1 1-5v-7l-1-4-14-2-3-3 1-5 2-1h12l7 3 5 4 2 9v10l-2 11-3 1-32 1h-43l-7 1-5-3-2-6v-50z" fill="#110E0D"/>
<path transform="translate(1439,174)" d="m0 0 5 1 1 5 1 26 1 3 7 2 1-4 1-17 1-1h5l1 1-1 24-2 4-10 2 2 1 5 1v-2l2 1-2 5-8 2-4-1-1-8-5-4-3-1v-2l-4 4-5 1h-10l-5-3v-3h-2l-4-4-1 1v9l-2 5-4 1h-7l-8-7v-2l-2 1 1 7 1 4-2 1h-9l3-9-7 1-4 6-3 2h-13l-7-5-2-8v-15l5-3 2 4v9l3 8 4 4 5-1 2-5 1-7-1-12v-7l5-2 2 1v9l2 10 1 2h7v-18l4-4 3 4 1 13 2 4 7 6h2l-1-5-3 1-2-5v-10l2-5 6-3 5 1 2 2v13l5 5 4 1 7-1 10-1 3-2 2-21 1-9z" fill="#171411"/>
<path transform="translate(1229,766)" d="m0 0h41l8 3 5 5 2 6 1 16v49l-2 5-5 1h-8v-2l-3-1-4-33-4-15-8-16-4-5-8-6-10-5z" fill="#FDFDFD"/>
<path transform="translate(1937,168)" d="m0 0 4 1 3 6 4 4 6 9h2l1 3v24l-3 1h-69l-4-1 1 12-5 1h-2v-2h3l-2-2-2-7h-8l-7-1-10 1-6-2-1-5 3-2 14 1-4-11-7-4-1-5 2-2 9 2 5 8 4 11 6 2 1-1 1-13-1-5 3-3 5 1 1 1 1 12-2 4v3l2-1 2-6h2l6-12 3-2 8-1 5 2 3 4 1 4v9l-2 2 8 1h3v-12l4-2 2 5 2 8 5 1v-14l2-4 4 3 1 3v12l7-1v-9l-1-11-3-5-12-2-2-1 1-3 3-2z" fill="#181511"/>
<path transform="translate(1530,173)" d="m0 0 7 2 3 5 1 8 2 2 2 18h4l3-10 4-8 4-2h11l3 3 1 5v11l-1 3h6l1-18 1-3 3-1 4 2 1 5v20l-7 3h-5l1 5-1 5-5-1 2-10-46 1-1 4-2 1v2l-7 2h-7l-1-5 2-2v-6l-3-4-1-11 2-5 4-4 4-2h8l2 3 1 19 6-2v-25h-2l-1-5-5 1 1-5z" fill="#141110"/>
<path transform="translate(1601,720)" d="m0 0h41l1 1v47l-1 65h-1l-2-11v-88l-1-9-5-1-15-1-10 2-2 5 1 19 1 2v20l2 22 1 27-1 19-4 11-4 3-14 2-25 2h-12l-7-1h-15l-3-1-22-2-8-1v-1l41-1h55l8-1v-127z" fill="#0E3F22"/>
<path transform="translate(1770,950)" d="m0 0 8 1 1 2v7l-10 5-1 3v11l3 1 12 1 1 1v6l-3 2-17 1h-9l-5 10-10 3h-8l-5-2-1-6 2-1 16-1-1-2-5-1-9-8-3-6v-11l6-9 7-5 3-1h9l2 9 1 21h3l1-16 4-9 5-5z" fill="#110F0E"/>
<path transform="translate(846,912)" d="m0 0h39v46h-38l-1-1z" fill="#906B49"/>
<path transform="translate(978,912)" d="m0 0h38v46h-37l-1-2z" fill="#906B49"/>
<path transform="translate(1670,940)" d="m0 0h26l7 2 4 5 1 2v19l-7 2h-18l-8-3-2-3-2-8-2 4-1 9-1 40-1 1h-9v-52l3-12 3-3z" fill="#0E0C0C"/>
<path transform="translate(1526,683)" d="m0 0h22l2 4v30l-1 12-10 1-28-1v-45z" fill="#064C2C"/>
<path transform="translate(898,912)" d="m0 0h36v46h-37v-45z" fill="#916C4A"/>
<path transform="translate(646,745)" d="m0 0h36l1 1v44h-16l-21-1z" fill="#916C4A"/>
<path transform="translate(1914,720)" d="m0 0h43l-1 29h-1l-1-21-1-3-11-1h-11l-9 3-1 13 1 15 1 20 1 5v52l-2 7-3 10-5 5-8 2h-39l-16-4v-1l61-1 1-51v-75z" fill="#063B1F"/>
<path transform="translate(1767,187)" d="m0 0 4 2 1 18 2 3h4l1-3-1-14 1-5 6 1 2 18 7 2 10-1v-7l-2-6-4-1-1 1-1 11h-1l-2-12-1-5 1-1h15l2 1 2 5 2 13 1 2 3 1-1-9 2-9 3-3 2-1h8l2 2v24l-4 8-3 1h-7l-3-3-1-5-7 1-6 1h-28l-2 1h-6l-1 7-2 2-5-1v-6l4-6h2v-24z" fill="#15120F"/>
<path transform="translate(1206,811)" d="m0 0 10 1 5 3 6 10 2 8v15l-6 3h-24l-7-2-2-7 2-15 5-10 6-5z" fill="#FDFDFD"/>
<path transform="translate(1218,100)" d="m0 0h3l4 9 4 12 9-1h11v3l-7 5h-2v2l-4 4-1 5 6 16 1 6-8-5-5-5-6-2-7 6-4 6-5 1 1-9 3-10-1-6-5-2-10-7v-3l10-2 10-1 2-10v-11z" fill="#044D2C"/>
<path transform="translate(133,316)" d="m0 0h2l-2 4-9 9-6 11-4 14h-2l6 31 11 20 4 5v2h2l14 20 9 10 7 7v2h2v2l4 2 21 21 9 11 17 12 5 4 7 10 6 11 3 10v9l-3-1-7-16-10-15-12-14-15-16-11-11-8-7-29-29-9-11-12-17-8-14-5-16-1-6v-14l5-17 7-11 8-9z" fill="#103920"/>
<path transform="translate(95,932)" d="m0 0h17l9 3 3 3 1 5v11l-3 6-5 5-5 3h-6v21l1 6h-12v-3l1-18v-35l-2-6z" fill="#181411"/>
<path transform="translate(594,932)" d="m0 0h13l7 3 3 3 1 8-2 13-2 4-7 4-8 2v18l2 8h-11l-2-1 1-3v-53l-3-3v-2z" fill="#191511"/>
<path transform="translate(1805,752)" d="m0 0h43l-1 5-23-1-9 2-3 2v20l1 21v11l1 16v7l-5 16-2 2-12 2h-11l-18-2-7-2-1-9h2l2 7 3 1h38l1-1v-96z" fill="#0E3F22"/>
<path transform="translate(1365,187)" d="m0 0 3 1v9l2 10 1 2h7v-18l4-4 3 4 1 13 2 4 7 6h2l-1-6 5-5 3 3 1 11-2 5-4 1h-7l-8-7v-2l-2 1 1 7 1 4-2 1h-9l3-9-7 1-4 6-3 2h-13l-7-5-2-8v-15l5-3 2 4v9l3 8 4 4 5-1 2-5 1-7-1-12v-7z" fill="#181712"/>
<path transform="translate(381,383)" d="m0 0 2 1 1 6 1 24 1 41v32l-1 22v27l-2 18-4 13-2 1 1-17 1-138v-27z" fill="#063C20"/>
<path transform="translate(1728,188)" d="m0 0h5l1 7-1 15 4-2 2-11 4-6 6-3h6l2 1 2 12v12l-3 4h-2l-1 4-2 2-7 1-5-4v-2l-6-1-5-3-1-8v-8h-2l-4 8v8l-4 2-4-1-1-2 5-14 6-9z" fill="#13120F"/>
<path transform="translate(146,947)" d="m0 0h7l6 3 4 4 3 9v12l-3 6-6 4-9 1-7-5v-2h-2l-3-5-1-4v-11l3-6z" fill="#FDFDFD"/>
<path transform="translate(399,948)" d="m0 0h7l6 3 6 8 1 3v11l-4 8-8 5h-7l-8-6-5-11v-11l4-6 5-3z" fill="#FDFDFD"/>
<path transform="translate(668,948)" d="m0 0h8l7 4 5 9v13l-4 7-3 3-5 2h-6l-6-4-4-5-4-11 1-8 4-6z" fill="#FDFDFD"/>
<path transform="translate(1718,784)" d="m0 0h41l1 1-1 42h-1l-1-15v-19l-2-4-2-1h-14l-15 2-1 5v12l1 17v13l-3 12-4 4-10 2h-45l-14-2-2-1v-2h70v-65z" fill="#144124"/>
<path transform="translate(1930,932)" d="m0 0h6l1 10 1 37 1 1h10v-29l7-1 1 1 1 24-1 14-6 2h-15l-7-2-1-6v-38l1-12z" fill="#110D0D"/>
<path transform="translate(416,421)" d="m0 0 5 2 3 3v2l4 2 1 3h2l9 11 2 4h2l7 9 11 13 11 12 7 8 8 8 7 8 13 13v2l4 2 3 3v2l4 2 14 14v2l3 1 6 7v2h2l9 11 7 6 15 12 2 4-1 2-4-2-26-24-41-41-7-8-15-16-7-8-22-24-9-11-12-14-9-11-8-9z" fill="#183620"/>
<path transform="translate(279,944)" d="m0 0 14 1 7 4 1 3v10l-5 5-1 5h2l7 8 7 6 1 4h-7l-6-3-9-12v-2l-4-2-3-2 1 14 1 7h-9v-45z" fill="#181511"/>
<path transform="translate(965,189)" d="m0 0h14l1 2v19l3 7 7-1 1-4 1-22 1-1h39l6 1-4 1-1 4v19l1 7-7 1-2-2 2-5v-22l-9 1-7-3v22l1 9h-6l-1-24v-5h-8l-1 9v10l-4 8-7 3-5-2-4-6-2-11v-9l-2-4h-4v20l2 7v4h-7l-1-2v-16l1-8v-5z" fill="#26231A"/>
<path transform="translate(180,944)" d="m0 0h9l1 1 2 23 2 4 8-11 4-13 4-1 2 2 7 23v2h3l1-4 5-14v-11l2-1h6l1 4-6 12-5 16-3 11-3 2-4-3-3-13-3-5-2-8-4 3-4 16-3 8-3 1-4-3-3-13-4-15-2-7-2-5z" fill="#181511"/>
<path transform="translate(616,363)" d="m0 0 3 3 1 6 2 41 1 20 1 70-1 33-2 26-3 8-2 1 1-22v-176z" fill="#093F22"/>
<path transform="translate(793,188)" d="m0 0 4 2-2 10v16l1 2 7-1 2-1 1-13v-12h5l8 12 5 5 7 9 2-4 2-8 4-3 1-12h4l5 17 4 6v2h4l1 2h14l4 2-1 2-7 1h-17l-3-3-5-10-2-5-2 4-4 11-2 2h-6l-8-7-8-11v-2h-2l1 19-6 2h-13l-3-4 1-20v-8z" fill="#1C1914"/>
<path transform="translate(493,944)" d="m0 0h10l1 1v18l4-1h9l7 2-1-15-1-5h9l1 2v30l1 14h-9v-23l-14 2-2-2-4-1v17l1 6-1 1h-9v-36z" fill="#161310"/>
<path transform="translate(189,189)" d="m0 0h9l8 2 7 8 3 8-6 12-2 2-7 1h-10l-5-1v-27z" fill="#FDFDFD"/>
<path transform="translate(348,188)" d="m0 0 7 3 1 3-3 1-1-2-4 1-5 6-3 10-7 8-5 4h-6l-3-2v-2h-2l-4-8v-7l3-10 5-4h8l5 3 4 6h2l3-8z" fill="#1D1914"/>
<path transform="translate(337,933)" d="m0 0h39l3 3v5l-12-2-4-1-1 1v46l1 7 2 3h-13l-1-2 1-49 1-7-13 1-2 4-3-1v-7z" fill="#1D1914"/>
<path transform="translate(400,943)" d="m0 0h7l8 3 7 8 4 8v11l-6 10-6 5-11 3-8-1-8-7-5-7-2-5v-12l3-7 7-6zm-1 5-7 3-4 5-1 2v11l5 11 8 6h7l8-5 4-9v-10l-4-8-6-5-3-1z" fill="#191411"/>
<path transform="translate(590,189)" d="m0 0 9 1 4 4v20l-5 7-10 1-5-5-3-6-2-1-1 8-1 3-6 1 6-18 1-6 5-2 2-4z" fill="#251E17"/>
<path transform="translate(446,933)" d="m0 0h41l3 1 1 6-19-1v46l1 7 1 2-2 1h-10v-35l1-23-13 1-1 3h-3l-1-6z" fill="#191612"/>
<path transform="translate(669,943)" d="m0 0h8l7 3 8 9 3 8v11l-6 10-7 5-12 2-8-3-5-4-6-10-2-5v-8l3-7 5-5 5-4zm-1 5-8 5-4 8 1 9 5 10 6 5 2 1h6l6-3 5-6 1-3v-13l-5-9-7-4z" fill="#1A1612"/>
<path transform="translate(510,189)" d="m0 0h8l10 3 3 5v14l-3 7-5 3-6 1h-7l-4-2-1-20 1-8-1-2z" fill="#251E18"/>
<path transform="translate(703,944)" d="m0 0 19 1 6 10-2 7-5 6-11 2v9l2 11h-9l-2-5v-39z" fill="#191411"/>
<path transform="translate(146,943)" d="m0 0h11l6 3 6 7 3 7 1 12-4 10-8 6-5 2h-11l-5-2-6-5-4-8-2-9 2-10 3-5 7-6zm0 4-9 7-2 5v11l3 7 1 2h2l2 4 5 3 9-1 7-5 2-5v-12l-3-9-7-6-5-1z" fill="#1A1612"/>
<path transform="translate(1512,176)" d="m0 0 5 1-1 4-8 3-12 3-3 2v14l2 14-2 5-9 3h-9l-5-3-1-8 1-10v-7l5-2 1 1v20h9v-30l1-4 13-4z" fill="#161411"/>
<path transform="translate(299,372)" d="m0 0 2 4 2 13 2 27 1 21v36l-1 21-1 20-1 5-1 16h-1l-1-43z" fill="#033B1F"/>
<path transform="translate(1010,465)" d="m0 0 3 1 4 16-1 24 1 6v36l-3 19-3 7h-2l1-57z" fill="#0B3E21"/>
<path transform="translate(562,370)" d="m0 0 2 3 2 14 1 49 1 37v57l-1 5h-1l-1-15-1-1-1-60-1-57z" fill="#0D4023"/>
<path transform="translate(1955,753)" d="m0 0h1l1 22 1 41v24l-1 52h-29v-1l20-2 5-1v-10l1-4v-10l-1-12 1-2h-2l1-12h-2v-5-1-6h2l-1-9 1-37z" fill="#0A3F22"/>
<path transform="translate(769,184)" d="m0 0 9 1 2 3v11l1 13-2 8-4 2-10-1-1-2v-10l1-8-1-14 1-2z" fill="#191713"/>
<path transform="translate(762,945)" d="m0 0h23v5l-14 1v12l5 1 8-1v5l-7 2h-6v13l9 1 5-1 1 5-1 1-17 1-6-1 1-20v-17z" fill="#8F6B49"/>
<path transform="translate(249,944)" d="m0 0 19 1 1 4-5 1-8-1v17h5v-2l4-1v-2h2l1 7-2 2h-11v13l6 1 7-1 1 5-5 2h-17l-1-1 1-22v-21z" fill="#1B1813"/>
<path transform="translate(547,944)" d="m0 0 17 1v8l-8-3h-4v12l2 2 10-1v6l-1 1h-6l-6-2 1 17 7-1h5v5l-4 1h-15l-1-1v-37l-1-7z" fill="#1C1612"/>
<path transform="translate(1796,951)" d="m0 0h9l1 1v30l-2 10-4 10-7 2-4-2 2-7 3-5 2-16z" fill="#181411"/>
<path transform="translate(626,945)" d="m0 0h19l3 4-1 2-15-1v15l5-2 6 1-1 6h-7l-2-2-1 2v13h14v5l-7 2h-12l-3-4 1-39z" fill="#1C1A15"/>
<path transform="translate(1716,931)" d="m0 0 4 1 2 3v55l-3 1-6-1-1-36 2-22z" fill="#110E0D"/>
<path transform="translate(1354,850)" d="m0 0h93l2 3-23 2h-18l-33-1-17 1-1 29-2 6h-1l-1-38z" fill="#1E4427"/>
<path transform="translate(1909,932)" d="m0 0h6l2 5v29l1 23-1 1h-8l-1-10v-47z" fill="#141410"/>
<path transform="translate(1008,365)" d="m0 0 4 2 3 8 2 16v33l-3 25-4 3-4-1 3-2v-80z" fill="#134024"/>
<path transform="translate(281,189)" d="m0 0 6 1 2 6-1 2-6-1-3 4v7l4 9v2l6-2 1-5v-7l1-4h2l3-9 2-3h3v6l-4 7-1 5v12l-1 2-4 1h-10l-4-2-4-13-4 3v11l-1 1h-5v-8l4-7 1-4 6-1 4-7h2v-2l-2-1z" fill="#1D1B15"/>
<path transform="translate(734,944)" d="m0 0h6l1 1v36l1 3 14-1v6l-2 1h-22l1-21v-21l-1-3z" fill="#1E1914"/>
<path transform="translate(635,189)" d="m0 0h15l2 4-2 10v14h6l4-14 2-11 4-2 2 3v15l-4 5-8 7-2 2h-7l-4-2v-26l-4-2-4-1z" fill="#262119"/>
<path transform="translate(1322,177)" d="m0 0 1 2-6 17-8 16-4 6-7-1-7 6-11 5-6 1 2-4 12-8 12-10 9-11 1-2h2l2-5z" fill="#073D21"/>
<path transform="translate(474,189)" d="m0 0h22l5 1-4 2-2 4 1 10-2 10 4 2 3 1v2l-3 1h-7l-4-2 2-1 1-14v-11l-1-2-5-1-3 1-2 4 1 7 1 2-3 7-2 3 4 2 3 2v2l-2 1h-9v-8h3v-2h-3l1-19z" fill="#2D251C"/>
<path transform="translate(1286,783)" d="m0 0 3 3 2 10 4 27v9l-4 13-1 3-3 1-1-1-1-59z" fill="#05371D"/>
<path transform="translate(180,944)" d="m0 0h9l1 1 2 23 2 4 7-10 3-1-2 11-4 14-4 2-4-3-3-13-4-15-2-7-2-5z" fill="#161310"/>
<path transform="translate(376,184)" d="m0 0 8 1 8 6 6 9 2 5-1 4-3 3-2 9h-7l2-6 4-4 1-6-7-13-8-4h-5l1 5 1 3 4 2 8 10v6l-4 1-8-11-4-4-2-5 1-7z" fill="#251F18"/>
<path transform="translate(1139,48)" d="m0 0 2 1-8 22-4 19-5 5-3 4-4 8-3 2v-8l5-17 12-24z" fill="#053D20"/>
<path transform="translate(1029,189)" d="m0 0 9 1-4 1-1 4v19l1 7-7 1-2-2 2-5v-22l-9 1-7-3v22l1 9h-6l-1-24v-5h-2v-3z" fill="#1F1D16"/>
<path transform="translate(189,189)" d="m0 0h9l8 2 7 8 3 8-6 12-2 2-7 1h-10l-5-1v-27zm5 2-3 3-1 3-1 16 2 4 2 1h9l5-3 2-4v-7l-3-8-4-4z" fill="#1C1813"/>
<path transform="translate(787,423)" d="m0 0 4 1 5 8 4 15 1 12 3 5 1 15v9l-2 12-3 10-4 9-3 1 4-16 2-16v-22l-3-18-7-20z" fill="#093E22"/>
<path transform="translate(1052,191)" d="m0 0 7 3 3 3 1 3v13l-6 5-5 1-5-9-1-6v-8l3-4z" fill="#FDFDFD"/>
<path transform="translate(202,488)" d="m0 0 9 6 11 8 8 11 6 11 3 10v9l-3-1-7-16-10-15-12-14-5-5z" fill="#113920"/>
<path transform="translate(1045,190)" d="m0 0h16l5 4 2 4v13l-4 6-8 5h-7l-2-4h-2l-4-9v-13l1-5zm7 1-5 3-1 2v10l3 8 4 5 6-2 4-4v-13l-3-5-5-3z" fill="#201D16"/>
<path transform="translate(522,944)" d="m0 0h9l1 2v30l1 14h-9l-1-41z" fill="#151210"/>
<path transform="translate(244,190)" d="m0 0 5 1 8 10v7l-3 7-6 3-4-1-4-7-1-7 2-8z" fill="#FDFDFD"/>
<path transform="translate(322,191)" d="m0 0h5l8 8 1 6-2 6-4 5-3 2-4-1-4-7-1-4v-8l3-6z" fill="#FDFDFD"/>
<path transform="translate(111,188)" d="m0 0 5 3 4 6v2h2l4 5v2h2v2l4 1-1-12-1-8h4l1 2v10l-1 11v7l-6-1-2-2-3-7-3-2v-2l-5-2 2 17-2 1h-9l5-4 1-3v-18z" fill="#1D1814"/>
<path transform="translate(589,192)" d="m0 0h6l4 5v15l-4 6-3 1-6-5-3-7v-9l4-5z" fill="#FDFDFD"/>
<path transform="translate(512,192)" d="m0 0 8 1 5 5v15l-4 5h-7l-3-3-1-20z" fill="#FDFDFD"/>
<path transform="translate(242,189)" d="m0 0h10l9 9 1 9-2 5-6 5-2 5-2 1-8-2-4-2v-2l-3 1v-17l4-10zm2 1-4 7-1 8 3 9 3 4 4-1 5-2 3-7v-7l-9-11z" fill="#242019"/>
<path transform="translate(599,936)" d="m0 0 8 1 3 4 1 5v10l-2 6-8 4h-2l-1-2-1-18 1-9z" fill="#FDFDFD"/>
<path transform="translate(840,190)" d="m0 0h4l5 17 4 6v2h4l1 2h14l4 2-1 2-7 1h-17l-3-3-5-10-2-5-2 4-3 8-3 1 1-10 5-5z" fill="#191511"/>
<path transform="translate(105,936)" d="m0 0h6l5 4 2 9v9l-2 4-7 4h-3l-1-2-1-24z" fill="#FDFDFD"/>
<path transform="translate(894,189)" d="m0 0 9 1 2 2v19l3 4 3 1v6h-6l2-5-6-1-1-3v-7l1-1-1-7-4-4h-2l-1 3 2 5 3 2-2 12 1 5h-8l2-11-1-4v-14z" fill="#261E17"/>
<path transform="translate(681,189)" d="m0 0h8l5 5 1 8-1 2h-2l-6-11h-3l-1 5 2 5 5 4 1 2 3-1 8 10 4 4h-8l-5-3-3-4-1-3-6 1-4-10v-11z" fill="#201A15"/>
<path transform="translate(1700,189)" d="m0 0h5l1 1v24l-1 2-7 2 1 9-2 2-4-1 1-15 4-4 1-19z" fill="#10110E"/>
<path transform="translate(1435,782)" d="m0 0 4 2 5 4v2l3 1 5 9 3 12 2 12v17l-2 2-2-9-3-17-5-16-6-12-4-5z" fill="#163C22"/>
<path transform="translate(1399,187)" d="m0 0 5 1 2 2v13l5 5 2 3h-3l-4-4-2 1-3-4-4 2-1 3-3 1-2-5v-10l2-5z" fill="#242119"/>
<path transform="translate(546,186)" d="m0 0h4l6 15 4 7 5 1-2 7-4 2-4-9-4-4h-1v16l-5 1-2-2 3-9 1-14-2-10z" fill="#171311"/>
<path transform="translate(153,186)" d="m0 0 4 1 1 9 5 9 1 8-4 5-8 3-6-1-1-5 3-11h3l-2 6 1 8 5-2 1-2v-7l-4-6-1-14z" fill="#191713"/>
<path transform="translate(380,343)" d="m0 0 7 4 8 8 7 8 16 17 9 9 1 3-4-2-35-35-4 1-1 2-5-1v-10z" fill="#1A4125"/>
<path transform="translate(806,191)" d="m0 0h5l8 12 5 5 7 9 5-1-3 5h-6l-8-7-8-11v-2l-4 1z" fill="#181511"/>
<path transform="translate(199,433)" d="m0 0 5 3 10 9 8 7 13 12 11 11 10 13 4 6v2h-3l-9-13-8-8-7-8-5-4-12-12-8-7-9-8z" fill="#213E25"/>
<path transform="translate(237,323)" d="m0 0 5 1 9 11 8-1-3 22-1 2-3-1-6-18-5-9-4-5z" fill="#0B3C21"/>
<path transform="translate(1639,194)" d="m0 0h4l2 7 1-5 4-1 3 3v10l-7 1h-11l-1-4 1-9z" fill="#FDFDFD"/>
<path transform="translate(1344,196)" d="m0 0 3 3v10l3 8 6 5-1 3-6 2-7-5-2-8v-15z" fill="#161410"/>
<path transform="translate(282,196)" d="m0 0 6 1 3 4v13l-3 5h-5l-5-11v-7z" fill="#FDFDFD"/>
<path transform="translate(1123,197)" d="m0 0h2l9 14 7 10 11 14 5 5 1 3 11 7 8 5-1 2-12-7-10-8-11-11-3-4v-2h-2l-10-16-5-9z" fill="#143D22"/>
<path transform="translate(440,189)" d="m0 0h5l2 8v13l-1 10-3 2-9-1-2-1v-3l6-1 2-7z" fill="#1B1713"/>
<path transform="translate(737,192)" d="m0 0h5l4 9 3 10 4 7v3l-4 1-4-5-4-8v-4h-2l-1 6h-2z" fill="#1F1B15"/>
<path transform="translate(284,948)" d="m0 0 6 1 4 4 1 7-3 6-6 1-1 2-2-2-2-13 2-5z" fill="#FDFDFD"/>
<path transform="translate(711,948)" d="m0 0 7 2 4 4-1 7-7 6-5 1-1-8v-8z" fill="#FDFDFD"/>
<path transform="translate(1046,353)" d="m0 0h16v3l-16 7-3 1v2h-2l1-6-9-3-14-1 2-2z" fill="#033F21"/>
<path transform="translate(407,189)" d="m0 0h4l2 9 1 14 3 5 2 5h-10l-1-3-1-23-1-6z" fill="#211C16"/>
<path transform="translate(1147,850)" d="m0 0 8 1v1l-14 2v2h-2l-1 24-1 7 1 4-4 1v-37l1-4z" fill="#0C3C21"/>
<path transform="translate(705,190)" d="m0 0 3 3 3 11 3 4 3 1-3 9-5 2-3-10-3-8-1-10z" fill="#1A1411"/>
<path transform="translate(946,189)" d="m0 0 5 1 4 17-3 1v13l-1 1h-6v-11l2-5-1-9-1-6z" fill="#211D17"/>
<path transform="translate(459,189)" d="m0 0 5 1v24l2 7-6 1-3-1v-30z" fill="#221E17"/>
<path transform="translate(722,191)" d="m0 0h3l2 9 2 12 5 8v2h-9l-2-8-3-18 1-4z" fill="#181511"/>
<path transform="translate(768,189)" d="m0 0 6 1 3 2-1 4-2 1 1 4 1 2 1 11-3 2-7-1 1-9 3-9-4-2-1-4z" fill="#FDFDFD"/>
<path transform="translate(1841,935)" d="m0 0h18l3 1 1 7-5 1h-15l-3-2v-6z" fill="#1E1813"/>
<path transform="translate(424,191)" d="m0 0h4l5 16v9l-2 1-7-4-1-7v-7l-1-6z" fill="#1A1914"/>
<path transform="translate(172,186)" d="m0 0 4 1 1 7 1 20 2 7-6-1-1-2v-12h-2v-19z" fill="#1E1A15"/>
<path transform="translate(100,183)" d="m0 0 5 1-1 32 1 5-4 1-3-2z" fill="#1C1914"/>
<path transform="translate(225,190)" d="m0 0 4 4 1 7-3 13 2 5 3 1-4 1-6-1-2-9 2-4 1-14z" fill="#1D1A14"/>
<path transform="translate(298,189)" d="m0 0h3v6l-4 7-1 5v12l-1 2-7 1-3-2 4-3 1-5v-7l1-4h2l3-9z" fill="#1A1813"/>
<path transform="translate(372,189)" d="m0 0 4 5v2l4 2 8 10v6l-4 1-8-11-4-4-2-5v-5z" fill="#1D1813"/>
<path transform="translate(664,190)" d="m0 0 3 1 1 2v15l-4 5-8 6 4-16 2-11z" fill="#13110F"/>
<path transform="translate(1e3 190)" d="m0 0h12l-1 2-3-1v22l1 9h-6l-1-24v-5h-2z" fill="#151410"/>
<path transform="translate(924,194)" d="m0 0h2v2h2l-1 19 10-1v6l-3 2h-8l-3-2v-23z" fill="#1B1612"/>
<path transform="translate(629,189)" d="m0 0 4 1-3 9 1 17 1 5-2 1-4-1-1-2v-27l1-2z" fill="#191713"/>
<path transform="translate(965,189)" d="m0 0h5v2h-2v20l2 7v4h-7l-1-2v-16l1-8v-5z" fill="#251E17"/>
<path transform="translate(493,944)" d="m0 0h10l1 1-1 16h-6l-1 9h-1v-16z" fill="#916C4A"/>
<path transform="translate(474,199)" d="m0 0 4 1 3 5-3 7-2 3 4 2 3 2v2l-2 1h-9v-8h3v-2h-3l1-12z" fill="#3A3526"/>
<path transform="translate(1742,961)" d="m0 0 2 2v19l-5-2-3-3-1-3v-7l1-3z" fill="#FDFDFD"/>
<path transform="translate(763,976)" d="m0 0h2l1 7 14 1 5-1 1 5-1 1-17 1-6-1z" fill="#272019"/>
<path transform="translate(862,189)" d="m0 0h7l3 1 1 5-4 3-4 12-5 5-2-1 2-9 4-7v-7z" fill="#201C16"/>
<path transform="translate(611,189)" d="m0 0h4l2 18-1 5v9l-6 1-1-2 2-8z" fill="#1C1914"/>
<path transform="translate(1322,177)" d="m0 0 1 2-6 17-4 9h-3-5l1-5 4-6h2l2-5z" fill="#0D4C2C"/>
<path transform="translate(253,582)" d="m0 0v3l-7 8-4 2v2l-14 10-5 3-3-1 3-4 5-3 9-8 4-3h2v-2l6-2v-2z" fill="#0F3E22"/>
<path transform="translate(880,189)" d="m0 0h4v31l4 1h-10l-1-2 1-3 1-19z" fill="#30271D"/>
<path transform="translate(133,316)" d="m0 0h2l-2 4-9 9-6 11-4 14-4 1 2-10 4-9 6-9 7-8z" fill="#0E3F23"/>
<path transform="translate(891,194)" d="m0 0 2 3 2 5 3 2-2 12 1 5h-8l2-11-1-4v-11z" fill="#262119"/>
<path transform="translate(248,189)" d="m0 0 5 1 8 8 1 9-2 5-7 5 3-9v-7l-8-10z" fill="#1F1B15"/>
<path transform="translate(1419,188)" d="m0 0h7l2 1v2h2l3 12-1 3-1-3-4-2-3-4-6-3z" fill="#1E1613"/>
<path transform="translate(1547,683)" d="m0 0 3 2v32l-1 12-10 1v-2l6-2 1-6v-31l-1-5z" fill="#124023"/>
<path transform="translate(762,945)" d="m0 0h23v5l-14 1-3 2-5-1z" fill="#1C1713"/>
<path transform="translate(1937,168)" d="m0 0 4 1 3 6 4 4 3 6-4-1-5-2-8-1-2-1 1-3 3-2z" fill="#201C16"/>
<path transform="translate(107,601)" d="m0 0 3 1 7 8 9 8 2 1v2l7 1 3 3-2 1-13-5-10-8-6-9z" fill="#1D3520"/>
<path transform="translate(787,423)" d="m0 0 4 1 5 8 4 15v9l-2 1-4-15-6-16z" fill="#1B3F25"/>
<path transform="translate(1044,201)" d="m0 0 3 3 2 9 5 5 3 1 1 2-5 1-5-1-1-3h-2l-4-9 1-5z" fill="#1C1A14"/>
<path transform="translate(352,198)" d="m0 0h1l-1 7-4 5 1 8 2 4h-8l-1-5 3-10 2-5 4-1z" fill="#242018"/>
<path transform="translate(769,184)" d="m0 0 9 1 2 3-1 8h-3l-1-3-3-3-5 1-1 5h-1l-1-9 1-2z" fill="#262018"/>
<path transform="translate(566,188)" d="m0 0h5v9l-4 14-2-3v-18z" fill="#191813"/>
<path transform="translate(692,208)" d="m0 0 5 5 6 7 2 2h-8l-5-3-3-4 1-6z" fill="#1C1813"/>
<path transform="translate(503,961)" d="m0 0 1 2 4-1h9l7 2v3l-14 2-2-2-4-1-1 2z" fill="#916C4A"/>
<path transform="translate(1680,951)" d="m0 0h17l3 3v2h-20l-1-4z" fill="#FDFDFD"/>
<path transform="translate(199,433)" d="m0 0 5 3 10 9 8 7 6 5-3 1-4-2-7-6-5-5-10-9z" fill="#323F28"/>
<path transform="translate(1046,353)" d="m0 0h16v3l-14 6-3-1z" fill="#044D2C"/>
<path transform="translate(1868,216)" d="m0 0h6l2 2 1 5 1 3-6 1-5-1-1-9z" fill="#44422E"/>
<path transform="translate(268,203)" d="m0 0h7l-3 5-3 2v11l-1 1h-5v-8l4-7z" fill="#1D1914"/>
<path transform="translate(281,189)" d="m0 0 6 1 2 6-1 2-6-1-3 4-2 4-3 1 1-6 3-5h2v-2l-2-1z" fill="#29241B"/>
<path transform="translate(930,195)" d="m0 0h5l3 4 2 9-1 1h-5l-5-11z" fill="#221D17"/>
<path transform="translate(559,573)" d="m0 0 5 3 11 9 2 4-1 2-4-2-13-12z" fill="#113A21"/>
<path transform="translate(672,210)" d="m0 0h2l2 2 1 3h2v2l4 2-1 2-3 1h-8v-7z" fill="#201C16"/>
<path transform="translate(903,203)" d="m0 0h1l1 8 3 4 3 1v6h-6l2-5-6-1-1-3v-7z" fill="#191612"/>
<path transform="translate(1820,994)" d="m0 0 6 2 2 4-1 3h2l-1 2-9-1-2-6 1-3z" fill="#1C1A14"/>
<path transform="translate(857,217)" d="m0 0h15l4 2-1 2-7 1h-17l4-2v-2z" fill="#373324"/>
<path transform="translate(1750,194)" d="m0 0h2v11l-1 8-4 1-1-3 1-13z" fill="#FDFDFD"/>
<path transform="translate(1772,176)" d="m0 0h9l3 2v5h-5l-1-1h-8l-2 1 1-6z" fill="#1D1914"/>
<path transform="translate(1139,48)" d="m0 0 2 1-8 22-2 5h-1v-7-4-3z" fill="#084C2B"/>
<path transform="translate(1955,877)" d="m0 0h1v15h-28v-1l20-2 5-1v-9z" fill="#033B1F"/>
<path transform="translate(1832,994)" d="m0 0 5 1 2 6-4 4h-5l-1-7z" fill="#191913"/>
<path transform="translate(1942,994)" d="m0 0 5 1 3 6-3 3-5 1-2-1-1-5z" fill="#191612"/>
<path transform="translate(1530,173)" d="m0 0 7 2 3 5v8l-4-3v-2h-2l-1-5-5 1 1-5z" fill="#2D231B"/>
<path transform="translate(1205,719)" d="m0 0 45 1v1l-15 1h-29l-2-2z" fill="#0D3D21"/>
<path transform="translate(929,184)" d="m0 0 8 1 1 6h-6l-2-1h-5l-1 3-1-6 2-2z" fill="#28231A"/>
<path transform="translate(1617,220)" d="m0 0 3 1 1 7h-8l-4-2-1-4z" fill="#242018"/>
<path transform="translate(1564,194)" d="m0 0h2l1 2v7l-4 6h-6l2-5z" fill="#FDFDFD"/>
<path transform="translate(1883,935)" d="m0 0h5l3 3v5l-5 2-5-3v-5z" fill="#15110F"/>
<path transform="translate(548,200)" d="m0 0 2 2v19l-5 1-2-2 3-9 1-9z" fill="#2C281D"/>
<path transform="translate(551,962)" d="m0 0 3 2 10-1v6l-1 1h-6l-6-2z" fill="#795B3F"/>
<path transform="translate(1827,195)" d="m0 0 4 1-1 17-3 1-2-6 1-11z" fill="#FDFDFD"/>
<path transform="translate(493,944)" d="m0 0h10l1 1v6l-8 2z" fill="#282119"/>
<path transform="translate(1114,169)" d="m0 0 3 1 6 20 1 6h-2l-5-12-3-13z" fill="#194326"/>
<path transform="translate(266,189)" d="m0 0h6l3 3-7 4-4 4-2-4 3-6z" fill="#221A15"/>
<path transform="translate(1166,790)" d="m0 0 2 3-1 6-3 7-2 7-3 1 1-8 5-14z" fill="#1B4326"/>
<path transform="translate(577,205)" d="m0 0 1 3v7l-2 6-6 1 3-9 2-7z" fill="#1E1B15"/>
<path transform="translate(924,194)" d="m0 0h2v2h2l-1 17-2 1-2 3v-20z" fill="#352B1F"/>
<path transform="translate(1519,195)" d="m0 0 3 1 1 6v5l-4 2-2-2v-8z" fill="#FDFDFD"/>
<path transform="translate(189,189)" d="m0 0h9l4 2-3 1h-5l-3 5-2 4-2-1-1-6z" fill="#36291F"/>
<path transform="translate(773,401)" d="m0 0 4 2v2l4 2 7 12-2 4-6-11-7-9z" fill="#2D3824"/>
<path transform="translate(265,961)" d="m0 0h2l1 7-2 2h-8l-2-1v-2l5-1v-2l4-1z" fill="#232119"/>
<path transform="translate(369,212)" d="m0 0h2l2 3 9 4-1 2-8 1-3-2z" fill="#31251C"/>
<path transform="translate(474,189)" d="m0 0h7l-1 5-2 6-5-2z" fill="#202219"/>
<path transform="translate(131,188)" d="m0 0 3 1 1 2v10l-1 7h-2l-1-11-1-8z" fill="#31241C"/>
<path transform="translate(1146,232)" d="m0 0 14 12 15 10 2 1-1 2-12-7-10-8-8-8z" fill="#2E291D"/>
<path transform="translate(1641,176)" d="m0 0 6 1 1 7-1 1h-6l-1-2v-6z" fill="#241D17"/>
<path transform="translate(636,963)" d="m0 0 7 1-1 6h-7l-3-5z" fill="#30241B"/>
<path transform="translate(850,511)" d="m0 0h1l2 21-1 8-2 1z" fill="#033B1F"/>
<path transform="translate(1448,220)" d="m0 0 9 2v-2l2 1-2 5-8 2-2-5z" fill="#292C1E"/>
<path transform="translate(122,402)" d="m0 0 4 4 10 14 5 6-1 3-8-10-10-14z" fill="#251E17"/>
<path transform="translate(149,203)" d="m0 0 2 1-2 6 1 8 5 1-3 2-6-1-1-5 3-11z" fill="#4A3728"/>
<path transform="translate(840,200)" d="m0 0 1 3-3 8-2 5-3 1 1-10z" fill="#3A2D21"/>
<path transform="translate(475,216)" d="m0 0 5 1 3 2v2l-2 1h-9l1-4z" fill="#1B1A14"/>
<path transform="translate(395,210)" d="m0 0 1 2-2 9h-7l2-5z" fill="#372A1F"/>
<path transform="translate(825,189)" d="m0 0h3l3 15-3-1-5-11v-2z" fill="#392B20"/>
<path transform="translate(114,212)" d="m0 0h2l1 8-2 1h-9l5-4z" fill="#2C2B1F"/>
<path transform="translate(1661,177)" d="m0 0 5 1 1 4-1 3-7-2-1-3z" fill="#2A221A"/>
<path transform="translate(481,495)" d="m0 0 7 6 10 11-1 3-14-15z" fill="#30241B"/>
<path transform="translate(1902,197)" d="m0 0 6 2v5l-2 2h-3l-2-4z" fill="#FDFDFD"/>
<path transform="translate(199,433)" d="m0 0 5 3 10 9-2 2-13-11z" fill="#344028"/>
<path transform="translate(895,211)" d="m0 0 1 4 1 6h-8l2-8 1 3 1-4z" fill="#5C4B34"/>
<path transform="translate(197,202)" d="m0 0h5v7l-4 2-3-3 1-5z" fill="#5A523D"/>
<path transform="translate(133,316)" d="m0 0h2l-2 4-9 9-4 2 2-4 7-8z" fill="#193F24"/>
<path transform="translate(1042,191)" d="m0 0 3 1h-2l1 5h2v5h-1l-1 5h-3v-11z" fill="#846947"/>
<path transform="translate(1274,226)" d="m0 0 1 2-4 4-9 2h-6l4-2 13-5z" fill="#30492C"/>
<path transform="translate(1576,217)" d="m0 0 3 3v7l-4 1-2-1 2-9z" fill="#393223"/>
<path transform="translate(1872,216)" d="m0 0 4 2v5l-5 1-2-3v-3z" fill="#FDFDFD"/>
<path transform="translate(1893,203)" d="m0 0h3l1 6-4 1-3-1 1-5z" fill="#FDFDFD"/>
<path transform="translate(505,521)" d="m0 0 7 6 5 5-1 3-11-11z" fill="#36281E"/>
<path transform="translate(284,583)" d="m0 0 2 1-2 3 2 2-1 2-7-1 2-4z" fill="#034123"/>
<path transform="translate(177,465)" d="m0 0 4 2 12 12-1 2-11-11-4-3z" fill="#2D211A"/>
<path transform="translate(1166,790)" d="m0 0 2 3-1 6-1 2h-4l3-9z" fill="#144326"/>
<path transform="translate(430,395)" d="m0 0 4 2 8 8-2 2-10-10z" fill="#29472A"/>
<path transform="translate(147,603)" d="m0 0 18 4v1h-11l-7-3z" fill="#4A4B31"/>
<path transform="translate(299,557)" d="m0 0h1v9l-3 6h-2l3-14z" fill="#033F22"/>
<path transform="translate(1398,196)" d="m0 0 4 2-1 6-4 1v-6z" fill="#E2D8D0"/>
<path transform="translate(790,526)" d="m0 0h2l-2 8h-2l-1 4-4 2 2-4z" fill="#074022"/>
<path transform="translate(1159,817)" d="m0 0h1v9l-2 8h-1v-11z" fill="#114325"/>
<path transform="translate(487,457)" d="m0 0 4 2 7 7-2 2-9-9z" fill="#334229"/>
<path transform="translate(905,216)" d="m0 0h6v6h-6l2-5z" fill="#37291F"/>
<path transform="translate(857,189)" d="m0 0 4 1-3 7h-3l1-7z" fill="#342C20"/>
<path transform="translate(1221,815)" d="m0 0 5 3v3h2v7l-2-3-5-8z" fill="#49432D"/>
<path transform="translate(564,580)" d="m0 0 4 2 8 8h-3l-9-8z" fill="#281E18"/>
<path transform="translate(406,410)" d="m0 0 5 2 4 7-1 2-8-9z" fill="#313222"/>
</svg>
