<?xml version="1.0" encoding="UTF-8"?>
<svg version="1.1" viewBox="0 0 2048 1438" width="800" height="562" xmlns="http://www.w3.org/2000/svg">
<path transform="translate(0)" d="m0 0h2048v1438h-2048z" fill="#FDFDFD"/>
<path transform="translate(1462)" d="m0 0h438v361l-7 2-185 41-23 5h-7l-72-16-103-23-33-7-7-1-1-1z" fill="#E0321D"/>
<path transform="translate(2e3)" d="m0 0h51v1438h-51z" fill="#E0321D"/>
<path transform="translate(0)" d="m0 0h49v1438h-49z" fill="#E0321D"/>
<path transform="translate(259,130)" d="m0 0h31l4 9-1 6 21 1v24h8v16l-62 1-1 7-31 1-2-1 1-8h32z" fill="#E0321D"/>
<path transform="translate(2045)" d="m0 0h3v1438h-3z" fill="#3B3B3D"/>
<path transform="translate(467,567)" d="m0 0h27l11 2 5 3 3 5 1 9-3 6-4 2 5 5 3 4 1 3v10l-4 6-5 4-7 2h-33z" fill="#3B3B3D"/>
<path transform="translate(605,565)" d="m0 0h15v63h-14l-1-3 1-2-7 5-3 1h-10l-6-3-5-6-3-7v-15l3-8 7-7 9-2 8 2 5 4z" fill="#3B3A3C"/>
<path transform="translate(333,582)" d="m0 0h9l6 3 1 3 5-1 4-4 3-1h11l6 4 4 8v34h-14l-1-1-1-31-1-2h-6l-3 3-1 2-1 9-1 20h-14l-2-33-1-1h-7l-4 7-1 27h-14l-1-1v-39l1-5h14v5z" fill="#3D3A3C"/>
<path transform="translate(154,568)" d="m0 0h15l1 41 3 6 5 2 7-1 3-4 1-44h16v44l-4 9-7 6-7 2h-15l-9-3-5-4-4-8-1-8v-35z" fill="#3F3A3C"/>
<path transform="translate(276,581)" d="m0 0 12 1 7 3 5 6 2 9v28h-15v-5l-9 6h-12l-6-4-4-6v-10l4-6 5-3 4-1 17-1-1-4-5-2h-8l-12 2v-10l5-2z" fill="#3B3B3D"/>
<path transform="translate(530,582)" d="m0 0h23l8 4 5 8 1 9v20l-1 5h-14v-5l-7 5-3 1h-11l-6-3-4-7v-10l3-6 9-4 18-1-1-4-5-2h-9l-11 2v-11z" fill="#3B3A3C"/>
<path transform="translate(397,582)" d="m0 0h23l8 4 4 5 2 9v18l-1 10h-14v-5l-9 6h-12l-6-3-4-7v-11l5-6 8-3 16-1v-4l-5-2h-9l-11 2v-11z" fill="#3B3A3C"/>
<path transform="translate(635,582)" d="m0 0h23l8 4 5 8v34h-14v-5l-7 5-3 1h-12l-8-7-1-2v-12l5-6 8-3 17-1-1-4-5-2h-9l-8 2h-4v-10z" fill="#3B3B3D"/>
<path transform="translate(287,673)" d="m0 0h2l1 12v34l-1 7h-10l-3-3-5 3-7 1-7-3-6-7-1-3v-14l4-8 5-4 3-1h7l8 4v-17z" fill="#3B3A3C"/>
<path transform="translate(498,687)" d="m0 0 9 2 4 5 1 3v28l-1 1h-11l-1-27-1-1h-6l-2 3-1 24-1 1-12-1-1-27-5-1-4 3-1 6-1 20h-8l-4-1v-37h12l2 3 5-3h10l4 3v2l9-5z" fill="#3D3A3C"/>
<path transform="translate(164,676)" d="m0 0h16l4 10 14 39v1h-12l-2-1-2-7h-20l-3 8h-13l3-10z" fill="#3B3A3C"/>
<path transform="translate(711,687)" d="m0 0h8l9 3 6 7 2 6v9l-4 8-6 5-6 2h-10l-10-5-4-5-2-12 3-9 5-6z" fill="#3B3A3C"/>
<path transform="translate(159,213)" d="m0 0h5v3l9-3h6l6 4 3 6v12l-3 6-5 4-6 2h-9l1 10 4 2-1 3h-19l-2-1 1-3 3-1 1-37-6-1v-2z" fill="#3B3A3C"/>
<path transform="translate(222,582)" d="m0 0h21l7 2v10l-20-2-4 1-1 4 13 3 10 3 4 5 1 3v8l-4 6-8 4h-19l-9-2-1-1v-10l10 2h15l1-5-20-5-5-4-2-9 2-7 6-5z" fill="#3B3B3D"/>
<path transform="translate(391,675)" d="m0 0h17l8 2v10l-12-2h-8l-3 2 1 5 6 2 13 4 5 5 1 3v9l-3 6-5 4-8 2-14-1-9-3v-10l6 1 6 2h10l3-1 1-4-2-3-15-4-7-5-2-5v-8l3-6 5-4z" fill="#3B3A3C"/>
<path transform="translate(605,687)" d="m0 0h11l10 3 4 6 1 6v23l-1 1h-10l-1-4-10 5-9-1-6-5-1-2v-9l3-5 6-3 16-1-2-4-9-1-11 2v-9l1-1z" fill="#3B3A3C"/>
<path transform="translate(1767,108)" d="m0 0h9l5 2 6-2 2 2v28l-3 9-6 5-2 1h-11l-6-3-4-4 1-4 4-1 6 5h7l4-1 2-8-6 2h-7l-6-3-4-5-1-3v-8l3-7 5-4z" fill="#FEFEFE"/>
<path transform="translate(1598,90)" d="m0 0 4 2 7 10-1 7-12 16-6 9-5-2-18-13-5-4 9-7 12-8z" fill="#FEFEFE"/>
<path transform="translate(524,688)" d="m0 0h11l2 27 5 2 5-3 1-2 1-23 1-1h11v37l-1 1h-10l-2-4-6 4-8 1-6-3-4-5-1-6v-21z" fill="#3C3A3C"/>
<path transform="translate(204,688)" d="m0 0h11l1 21 2 7 4 1 5-3 1-3 1-22 5-1h7v37l-1 1h-10l-1-4-7 4-8 1-6-3-4-5-1-4v-26z" fill="#3B3A3C"/>
<path transform="translate(236,213)" d="m0 0h6l3 3v6l-10 14-9 11h-9l-1-4v-15l-11 18-1 1h-8l-1-27h-5v-4l9-2h6l1 1 1 17 11-18h8l1 3 1 19 6-8 1-14z" fill="#3B3A3C"/>
<path transform="translate(767,687)" d="m0 0 9 2 4 5 1 2v29l-3 1-9-1-1-28-10 1-1 4-1 19-1 5h-11v-38h11l2 4 6-4z" fill="#3B3B3D"/>
<path transform="translate(1731,108)" d="m0 0h10l1 1 10-1 1 1v31h-7l-2-2-3 2h-10l-5-3-3-3-2-7 1-10 4-6z" fill="#FEFEFE"/>
<path transform="translate(710,581)" d="m0 0 3 1v13h-13l-4 5-1 3-1 25h-14v-45h14v5l10-6z" fill="#3B3B3D"/>
<path transform="translate(1558,117)" d="m0 0h3v2l4 2 17 12 5 3-2 4-11 15-5 3-8-8-13-18-3-6z" fill="#FEFEFE"/>
<path transform="translate(1676,108)" d="m0 0h12l5 3 4 6 1 3v8l-3 6-6 5-2 1h-10l-6-3-4-5-1-3v-9l4-8z" fill="#FEFEFE"/>
<path transform="translate(642,678)" d="m0 0h13v10h11l1 1v8l-12 1 1 18 9 1 1 1v7l-3 1-14-1-5-3-2-10v-15h-5v-9h5z" fill="#3F3A3C"/>
<path transform="translate(1540,89)" d="m0 0 34 12-1 3-22 15-7 5-5-4-10-15 7-11z" fill="#FEFEFE"/>
<path transform="translate(325,678)" d="m0 0h12l1 9 11 1v9l-11 1v17l1 1 9 1v9l-17-1-5-5-1-2v-21h-5l-1-1v-7l1-1h5z" fill="#3B3A3C"/>
<path transform="translate(636,810)" d="m0 0 4 1 1 2 5-3h8l5 4 3 10-2 10-5 5-2 1h-7l-5-3-1 14h-4z" fill="#3B3B3D"/>
<path transform="translate(571,674)" d="m0 0h13v51l-1 1-12-1z" fill="#463A3A"/>
<path transform="translate(452,810)" d="m0 0h10l6 5 2 7v7l-3 7-6 4h-9l-7-6-2-5v-8l3-7z" fill="#3B3B3D"/>
<path transform="translate(558,810)" d="m0 0h10l5 4 3 9-1 9-3 5-5 3h-10l-5-4-3-7v-8l4-8z" fill="#3C3A3C"/>
<path transform="translate(760,810)" d="m0 0h10l7 6 1 3v12l-4 6-5 3h-9l-6-5-2-4v-12l4-7z" fill="#3B3A3C"/>
<path transform="translate(1548,81)" d="m0 0h44l5 4-1 3-16 11-3 1-33-12v-4z" fill="#FEFEFE"/>
<path transform="translate(259,213)" d="m0 0h11l6 4 2 6-4 4h-6l-2-1v-9l-5 3-2 3v12l5 5h7l7-2 1 3-4 4-4 2-10 1-9-3-5-6-1-2v-13l5-7z" fill="#3B3B3D"/>
<path transform="translate(1803,108)" d="m0 0h10l5 3 4 7 1 7-11 1h-12l2 6 5 2 6-1 4-2 4 1-2 5-5 3h-11l-6-4-4-6-1-6 3-10 6-5z" fill="#FEFEFE"/>
<path transform="translate(1643,96)" d="m0 0h28v5l-1 1h-20v14h12l1 3-1 3h-12v18h-7l-1-1v-42z" fill="#FEFEFE"/>
<path transform="translate(347,810)" d="m0 0h11l5 4 2 7v18h-4l-1-3-5 4h-9l-5-4-1-8 2-4 8-3h10l-2-5-4-2-12 1v-3z" fill="#3B3B3D"/>
<path transform="translate(696,809)" d="m0 0 8 2 4 5 2 10-22 1 3 7 5 2 8-1 5-1-1 4-5 2h-11l-6-4-3-5-1-8 3-8 5-4z" fill="#3B3B3D"/>
<path transform="translate(584,810)" d="m0 0h3v3l7-3h7l4 4v2h2l2-4 4-2h8l4 5 1 4v20l-4 1-1-1-1-22-1-2-5-1-4 2-2 4-1 19h-4l-1-20-2-4-5-1-5 3-1 2-1 20-4 1-1-1v-24z" fill="#3C3A3C"/>
<path transform="translate(301,688)" d="m0 0h11l1 2v32l-1 4h-9l-3-2v-35z" fill="#463A3A"/>
<path transform="translate(402,810)" d="m0 0h11l5 5 2 4v7l-21 1 3 7 5 2 13-1-1 3-5 2h-11l-6-4-3-5-1-8 3-8z" fill="#3B3A3C"/>
<path transform="translate(195,810)" d="m0 0h10l6 5 2 6-1 5h-21l3 8 5 2 9-1 4-1-1 4-5 2h-11l-7-6-2-5v-9l4-6z" fill="#3B3A3C"/>
<path transform="translate(393,869)" d="m0 0h7l5 5 1 4v11l-3 6-3 3h-7l-5-5-1-2v-15l4-6z" fill="#3B3B3D"/>
<path transform="translate(507,869)" d="m0 0h7l5 5 1 3v13l-4 7-2 1h-6l-5-4-2-4v-13l3-6z" fill="#3B3B3D"/>
<path transform="translate(430,688)" d="m0 0h10l1 1v36l-1 1h-10l-1-1v-36z" fill="#3B3B3D"/>
<path transform="translate(674,688)" d="m0 0h11l1 1v36l-3 1h-9z" fill="#3B3B3D"/>
<path transform="translate(594,592)" d="m0 0 7 1 4 6v13l-5 6-6 1-4-2-3-6v-12l4-6z" fill="#FEFEFE"/>
<path transform="translate(286,868)" d="m0 0h3v10l4-2h7l4 4 1 10-3 6-3 2-7-1-3-2-1 3h-2z" fill="#3B3B3D"/>
<path transform="translate(528,800)" d="m0 0 10 1 5 3v4l-9-3-9 1-5 2-2 7v10l4 8 3 2h11l5-3h2l-1 5-6 3h-11l-6-3-6-7-1-3v-13l4-8 5-4z" fill="#3B3A3C"/>
<path transform="translate(164,800)" d="m0 0h7l7 3 3 2-1 3-9-3-10 1-5 5-1 3v13l4 6 3 2h11l5-2h3l-2 4-7 3h-10l-6-3-6-7-1-3v-13l4-8 5-4z" fill="#3B3B3D"/>
<path transform="translate(455,813)" d="m0 0 6 1 3 3 1 3v9l-3 6-2 1h-7l-4-4-1-3v-9l3-5z" fill="#FEFEFE"/>
<path transform="translate(153,872)" d="m0 0h10l5 4 1 2v10l-4 5-9 2-3-1z" fill="#FEFEFE"/>
<path transform="translate(764,813)" d="m0 0 6 2 3 3 1 8-2 7-3 3-5 1-5-3-3-7 1-8 4-5z" fill="#FEFEFE"/>
<path transform="translate(561,813)" d="m0 0 6 1 4 6v9l-4 6-6 2-4-2-3-6v-9l3-5z" fill="#FEFEFE"/>
<path transform="translate(648,813)" d="m0 0 5 1 4 6v9l-3 6-4 2-5-1-4-5-1-7 2-7 3-3z" fill="#FEFEFE"/>
<path transform="translate(787,810)" d="m0 0 4 2h2l4-2h7l5 5 1 3v21h-5v-16l-1-7-6-2-6 4-1 4-1 17h-4v-28z" fill="#3B3A3C"/>
<path transform="translate(712,696)" d="m0 0h7l4 5v11l-3 5-2 1h-6l-4-4-1-3v-8l3-5z" fill="#FEFEFE"/>
<path transform="translate(1714,108)" d="m0 0h7l-1 6-9 3-1 4-1 19h-6l-1-1v-30h5l5 1z" fill="#FEFEFE"/>
<path transform="translate(562,869)" d="m0 0 4 1v18h4l-1 3h-3v6h-4v-7l-2 1h-7l-4-1 1-4 6-10z" fill="#3B3B3D"/>
<path transform="translate(1734,114)" d="m0 0h7l4 4 1 9-3 5-3 2h-7l-4-5-1-8 3-5z" fill="#E0321D"/>
<path transform="translate(149,869)" d="m0 0h15l5 3 3 4 1 3v9l-4 6-5 3h-15zm4 3v22l5 1 7-2 4-5v-10l-4-5-2-1z" fill="#3B3B3D"/>
<path transform="translate(1678,114)" d="m0 0h8l4 4 1 7-3 7-3 2h-7l-4-5v-11z" fill="#E0321D"/>
<path transform="translate(267,696)" d="m0 0 7 1 3 4v12l-5 5h-5l-4-4-1-10 2-5z" fill="#FEFEFE"/>
<path transform="translate(232,875)" d="m0 0 6 1 4 5 1 6-2 1-14 1 2 4 2 1h8l4-1-2 4-3 1h-8l-6-5-1-9 4-7z" fill="#3B3A3C"/>
<path transform="translate(286,799)" d="m0 0h8l-2 4-7 1-1 6h8v4h-8v25h-5v-25l-5-1v-2l5-2 1-6 2-3z" fill="#3D3A3C"/>
<path transform="translate(319,875)" d="m0 0 7 2 3 5v5l-2 1h-11l-3-1 3 6 1 1h12l-1 3-3 1h-9l-5-4-1-2v-9l3-5z" fill="#3B3B3D"/>
<path transform="translate(1769,114)" d="m0 0h7l5 5 1 7-6 7h-6l-5-5-1-7 3-6z" fill="#E0321D"/>
<path transform="translate(258,875)" d="m0 0 5 2 2 2 4-3h6l3 3 1 2v16l-4-1v-13l-1-3h-6l-2 3v8l-1 7-3-1-1-16-1-2-8 1v17h-4v-21l5 1z" fill="#3B3A3C"/>
<path transform="translate(188,875)" d="m0 0 7 3 2 3v6l-1 1h-10l-5-1 3 6 2 1h7l4-1-2 4-2 1h-8l-6-5-1-2v-8l3-5z" fill="#3B3B3D"/>
<path transform="translate(244,802)" d="m0 0 4 1v8l7-1h3v4h-10v21l10 1v3h-11l-4-4v-21l-3-1v-2h3v-8z" fill="#3C3A3C"/>
<path transform="translate(320,810)" d="m0 0h11l3 2v3l-10-1-5 2-2 3v11l2 5h12l3-1-1 5-3 1h-10l-6-4-3-6v-10l3-6z" fill="#3B3B3D"/>
<path transform="translate(483,602)" d="m0 0h11l5 3 1 1v8l-4 3h-13l-1-3v-11z" fill="#FEFEFE"/>
<path transform="translate(376,801)" d="m0 0 3 2 1 7h8l1 4h-10l1 20 1 1 8 1v3h-11l-3-3-1-11v-11h-3v-3l2-1z" fill="#3B3A3C"/>
<path transform="translate(485,799)" d="m0 0h8v3l-9 1v7h7v4l-7 1-1 25h-4v-26l-5-1 1-3h3l2-9z" fill="#3B3B3D"/>
<path transform="translate(394,872)" d="m0 0h5l3 5v13l-3 5h-5l-3-4-1-3v-9l3-6z" fill="#FEFEFE"/>
<path transform="translate(508,872)" d="m0 0h5l3 4 1 4v7l-3 7-5 1-3-2-1-3v-14z" fill="#FEFEFE"/>
<path transform="translate(718,802)" d="m0 0h4l1 8 9 1v3h-9v21l10 1-1 3h-10l-3-2-1-3-1-20-3-1v-2l4-1z" fill="#3B3A3C"/>
<path transform="translate(1711,1237)" d="m0 0h12l1 1 1 13-2 3h-12z" fill="#636364"/>
<path transform="translate(165,220)" d="m0 0 8 1 3 4v12l-4 5-7 1-1-5z" fill="#FEFEFE"/>
<path transform="translate(1672,211)" d="m0 0h2l1 8v11l-3 2h-7l-4-5v-6l3-4h8z" fill="#FEFEFE"/>
<path transform="translate(1735,216)" d="m0 0 6 1 2 3v8l-4 4h-5l-1 4-3-1v-17z" fill="#FEFEFE"/>
<path transform="translate(1839,217)" d="m0 0h10l1 3v9l-3 7-8 1-1-2 8-2 1-2-6 1-4-4v-9z" fill="#FEFEFE"/>
<path transform="translate(480,869)" d="m0 0h10l4 4v7l-6 8-4 4h-2v2h12l1 3h-19l2-5 10-10 2-4v-5h-9l-5 1v-3z" fill="#3C3A3C"/>
<path transform="translate(1544,217)" d="m0 0h11l2 5-1 7-3 3-5-1-2-1v6l-3-1v-17z" fill="#FEFEFE"/>
<path transform="translate(530,869)" d="m0 0h9l4 3 1 7-6 9-6 5 12 1 1 3h-19l1-4 10-10 2-3v-6l-1-1h-8l-4 1 2-4z" fill="#3B3B3D"/>
<path transform="translate(483,578)" d="m0 0h10l4 2 1 7-3 4-10 1-3-2z" fill="#FEFEFE"/>
<path transform="translate(366,869)" d="m0 0h9l5 5v6l-6 8-6 5v1h12l1 3h-19l2-5 9-9 2-3v-6l-1-1h-12l1-3z" fill="#3B3A3C"/>
<path transform="translate(428,868)" d="m0 0h3v10l4-2h7l3 3v19h-3l-1-18h-9l-1 18-3-1z" fill="#3B3A3C"/>
<path transform="translate(1641,255)" d="m0 0h10l3 6-2 7-1 1h-8v4h-3v-13z" fill="#FEFEFE"/>
<path transform="translate(1678,1241)" d="m0 0h9l3 1 1-1h6l1 2v11h-4v-10h-4v10l-4 1-1-10-4-1v11l-4-1v-12z" fill="#3C3A3C"/>
<path transform="translate(1672,254)" d="m0 0 6 1 2 2 1 7-3 5-1 1h-6l-4-4-1-5 3-5z" fill="#FEFEFE"/>
<path transform="translate(1752,216)" d="m0 0 6 1 2 5v6l-4 4h-6l-4-5 1-7 2-3z" fill="#FEFEFE"/>
<path transform="translate(1749,254)" d="m0 0 6 1 3 4v6l-5 5h-5l-4-5v-6z" fill="#FEFEFE"/>
<path transform="translate(670,799)" d="m0 0h4v40l-4 1-1-1z" fill="#3B3A3C"/>
<path transform="translate(221,810)" d="m0 0 4 1v2l6-3h7l-1 4-8 2-3 5v18h-5z" fill="#3B3B3D"/>
<path transform="translate(1704,1308)" d="m0 0 6 1 2 2-1 14-3 2h-6v-2l6-2-5-1-3-3v-7z" fill="#3C3A3C"/>
<path transform="translate(1579,251)" d="m0 0 2 1v3h9l1 1 1 10 5 1v-11l3-1 1 2v10l-1 2h-11l-1-2-1-10h-6v10l4 1-1 1h-5l-2-10 1-7z" fill="#FEFEFE"/>
<path transform="translate(1663,1241)" d="m0 0h8l3 4v6l-3 3-7 1-4-4v-7z" fill="#3B3B3D"/>
<path transform="translate(1554,249)" d="m0 0h5l-4 2v3l8 1 1 3v9l5-1 1-11 3 1v12l-5 2-6-1-2-3v-10l-5 1-1 12h-2l-1-7v-9z" fill="#FEFEFE"/>
<path transform="translate(283,607)" d="m0 0 4 1-1 7-4 4-7 1-5-5 2-6 2-1z" fill="#FEFEFE"/>
<path transform="translate(651,607)" d="m0 0h5l1 4-3 6-3 2h-8l-3-4 1-5 2-2z" fill="#FEFEFE"/>
<path transform="translate(414,607)" d="m0 0 5 1-1 7-5 4-6 1-5-5 2-6z" fill="#FEFEFE"/>
<path transform="translate(295,878)" d="m0 0 5 2 1 1v11l-3 3-6-1-2-3v-9l3-3z" fill="#FEFEFE"/>
<path transform="translate(550,607)" d="m0 0 2 1-1 7-5 4-7 1-4-4 1-6 3-2z" fill="#FEFEFE"/>
<path transform="translate(1720,216)" d="m0 0 5 2 1 3v10l-3 1-1-12-5-1v12h-4v-10l-4-2h-2v13l-3-1v-13l1-1h11z" fill="#FEFEFE"/>
<path transform="translate(1823,1269)" d="m0 0h2v17l-2 2h-6l-3-2-1-7 2-4 7-1z" fill="#3B3B3D"/>
<path transform="translate(147,1128)" d="m0 0h9l3 3v7l-4 4h-7l-1-1z" fill="#3B3B3D"/>
<path transform="translate(349,825)" d="m0 0h11l1 2-3 7-6 3-5-1-2-2v-7z" fill="#FEFEFE"/>
<path transform="translate(1664,1308)" d="m0 0 6 1 2 4v6l-4 4-5-1-3-3-1-5 3-5z" fill="#3D3A3C"/>
<path transform="translate(1781,254)" d="m0 0 7 1 2 3v10l-3 2h-6l-3-2v-7l1-1h7l-1-3-6 1v-3z" fill="#FEFEFE"/>
<path transform="translate(1629,217)" d="m0 0h10l2 3v10l-2 2h-9l-2-3 1-5 3-2 6 1-1-3-8-1z" fill="#FEFEFE"/>
<path transform="translate(1619,254)" d="m0 0h6l3 5-1 4h-9v4h10l-1 2-8 1-4-3-1-5 2-6z" fill="#FEFEFE"/>
<path transform="translate(1865,1274)" d="m0 0h6l2 2 1 7-5 5-5-1-3-4 1-7z" fill="#3B3B3D"/>
<path transform="translate(1734,1274)" d="m0 0 7 1 2 3v6l-4 4-6-1-2-3v-7z" fill="#3B3B3D"/>
<path transform="translate(1772,1274)" d="m0 0h5l2 2v9l-3 3h-5l-3-3-1-6 2-4z" fill="#3B3B3D"/>
<path transform="translate(695,813)" d="m0 0 6 1 4 5-1 4h-16l-1-3 4-5z" fill="#FEFEFE"/>
<path transform="translate(406,813)" d="m0 0 6 1 4 5v3l-2 1h-15l-1-3 5-6z" fill="#FEFEFE"/>
<path transform="translate(298,810)" d="m0 0h4l1 29-4 1-2-1v-28z" fill="#3B3B3D"/>
<path transform="translate(1684,1272)" d="m0 0h6l2 2 1 6-3 5-6 1-3-4v-7z" fill="#FEFEFE"/>
<path transform="translate(198,813)" d="m0 0 6 1 4 4 1 4-3 1h-15l1-5z" fill="#FEFEFE"/>
<path transform="translate(1692,216)" d="m0 0 6 1 2 2v6h-9l1 4 8-1-1 4h-8l-4-4v-7z" fill="#F8D9D5"/>
<path transform="translate(575,1076)" d="m0 0 6 1 2 4v8l-2 2h-7l-1-1v-12z" fill="#646465"/>
<path transform="translate(1687,1308)" d="m0 0 6 1 3 3v9l-4 2-6-1-2-4 2-4 6-1-4 4-1 3 6-1-1-7-1-1h-10l-2 1-1 10h-3v-10l2-3z" fill="#3B3B3D"/>
<path transform="translate(1790,1236)" d="m0 0h4l1 9 3-3 5-1-1 3-3 2 2 5 3 3-3 1-6-5-2 5-3-1z" fill="#3B3B3D"/>
<path transform="translate(413,870)" d="m0 0h3v7l7-1v3h-7l1 15 7 1v2h-9l-2-2-1-15-2-3 3-1z" fill="#3C3A3C"/>
<path transform="translate(1610,216)" d="m0 0 6 2v14l-1 3-5 2-5-1v-2l7-1 1-14-6 1-1 6 5 3v2l-7-1-1-2v-8l3-3z" fill="#FEFEFE"/>
<path transform="translate(208,876)" d="m0 0h9l2 3-2 1-6-1-4 2-1 9 4 4h9l-1 3-2 1-9-1-4-4-1-2v-9l4-5z" fill="#3C3A3C"/>
<path transform="translate(171,690)" d="m0 0h2l5 15v2h-13z" fill="#FEFEFE"/>
<path transform="translate(1644,1237)" d="m0 0h17v3h-5v14l-5 1v-15h-5z" fill="#3B3B3D"/>
<path transform="translate(430,673)" d="m0 0h11v10h-12v-9z" fill="#3B3B3D"/>
<path transform="translate(301,673)" d="m0 0h10l2 1-1 9h-11l-1-5z" fill="#3C3A3C"/>
<path transform="translate(264,810)" d="m0 0 5 1v28h-5z" fill="#3C3A3C"/>
<path transform="translate(674,673)" d="m0 0h9l3 1v9h-12z" fill="#3B3B3D"/>
<path transform="translate(739,810)" d="m0 0h4v29h-4z" fill="#3B3B3D"/>
<path transform="translate(439,1186)" d="m0 0h8v11l-1 2-5 1-3-3v-10z" fill="#423A3B"/>
<path transform="translate(244,1185)" d="m0 0 6 1v12l-1 1h-6l-2-4v-7z" fill="#3D3A3C"/>
<path transform="translate(242,1158)" d="m0 0h8v12l-3 2-4-1-2-4v-7z" fill="#3D3A3C"/>
<path transform="translate(1790,216)" d="m0 0 6 1 2 3v5h-9l1-3h5l-2-3h-3l-2 8v2l10-1-1 3-2 1h-6l-5-5 2-9z" fill="#FEFEFE"/>
<path transform="translate(1743,1241)" d="m0 0 3 1-1 9h6v-10l4 1v11l-6 2-6-1-1-1v-11z" fill="#3B3B3D"/>
<path transform="translate(1759,1241)" d="m0 0h11l1 1 1 12-4 1v-11h-5v10h-4z" fill="#3B3B3D"/>
<path transform="translate(1697,254)" d="m0 0h6l3 3v6h-8v-2l5-1-1-3h-4l-1 9 5 1 4-1-2 4h-7l-4-4v-7l2-4z" fill="#FEFEFE"/>
<path transform="translate(1287,1394)" d="m0 0h5l2 2-1 11-1 1h-5l-2-5v-7z" fill="#3D3A3C"/>
<path transform="translate(1683,1270)" d="m0 0h8l4 5v7l-4 5-7 1-4-3-1-3v-8zm1 2-3 3v7l3 4 6-1 3-5-2-7-1-1z" fill="#3B3B3D"/>
<path transform="translate(605,1076)" d="m0 0 2 3v10l-1 2h-7l-2-3 1-7 1-1h6z" fill="#3B3B3D"/>
<path transform="translate(608,709)" d="m0 0h10l1 3-5 6-5 1-4-3 1-6z" fill="#FEFEFE"/>
<path transform="translate(569,1127)" d="m0 0h1v14l-3 2-5-1-1-1v-7l2-3h5z" fill="#3B3B3D"/>
<path transform="translate(371,1154)" d="m0 0h2v14l-7 1-2-2v-8l4-2 3 2z" fill="#3D3A3C"/>
<path transform="translate(369,1127)" d="m0 0 2 1v14l-6 1-3-3v-7l3-2h4z" fill="#3D3A3C"/>
<path transform="translate(223,1127)" d="m0 0 2 1v14l-6 1-3-3 1-8 1-1h5z" fill="#3B3B3D"/>
<path transform="translate(1805,113)" d="m0 0h7l3 4v3l-2 1h-13l-1-2 4-5z" fill="#E0321D"/>
<path transform="translate(775,1077)" d="m0 0h2v13l-1 1h-7l-1-2v-7l1-2 5-1z" fill="#3B3B3D"/>
<path transform="translate(1569,217)" d="m0 0h12l1 1v13h-3l-1-12-6 1-1 12-3-1v-13z" fill="#FEFEFE"/>
<path transform="translate(719,1080)" d="m0 0h6l2 3v6l-5 3h-2v2h-2v-13z" fill="#3B3B3D"/>
<path transform="translate(295,1076)" d="m0 0h1l1 14-1 1h-7l-2-5 1-4 2-2 4-1z" fill="#403A3B"/>
<path transform="translate(585,1157)" d="m0 0 5 2 1 7-2 3-5 2-2 1v-13z" fill="#3B3B3D"/>
<path transform="translate(516,1157)" d="m0 0h6l1 1v11l-7 1-1-2v-10z" fill="#3B3B3D"/>
<path transform="translate(1778,1241)" d="m0 0h8v3h-6l-1 2h6l2 5-4 4h-6l-2-4h7l1-1-7-2-1-3 1-3z" fill="#3B3B3D"/>
<path transform="translate(436,1158)" d="m0 0h7l1 1v8l-2 2h-6l-2-4 1-6z" fill="#3B3B3D"/>
<path transform="translate(281,1185)" d="m0 0 5 1 2 4-1 5-1 2h-6l-2-2v-6z" fill="#3D3A3C"/>
<path transform="translate(554,1157)" d="m0 0 4 1 2 2v6l-2 3h-6l-2-5 2-6z" fill="#3B3B3D"/>
<path transform="translate(335,876)" d="m0 0h13l-1 3-8 1-1 17-3 1z" fill="#3B3B3D"/>
<path transform="translate(1650,216)" d="m0 0 7 2 1 3v10h-3l-2-12h-4l-1 13-3-1v-13z" fill="#FEFEFE"/>
<path transform="translate(1520,216)" d="m0 0 5 2 1 3v10l-3 1-1-12-4-1-1 1-1 11h-3v-13z" fill="#FEFEFE"/>
<path transform="translate(281,1212)" d="m0 0h5l2 5-1 5-1 1h-6l-2-2v-7z" fill="#3B3B3D"/>
<path transform="translate(435,1208)" d="m0 0 5 1 2 2v7l1 5-3-2v-3l-5-1v5l-2 1v-13z" fill="#3B3B3D"/>
<path transform="translate(526,1131)" d="m0 0h6l1 2v8l-2 2-6 2v-13z" fill="#3B3B3D"/>
<path transform="translate(1803,217)" d="m0 0h11l1 1v14l-3-1v-12h-7l-1 13h-2v-14z" fill="#FEFEFE"/>
<path transform="translate(299,1131)" d="m0 0 7 1 1 7-3 4-5-1-1-1v-9z" fill="#3B3B3D"/>
<path transform="translate(282,1157)" d="m0 0 4 1 1 1v8l-2 2h-5l-2-3 1-7z" fill="#3B3B3D"/>
<path transform="translate(148,1154)" d="m0 0 7 1 2 6-7 3v4h-3v-13z" fill="#6F6F70"/>
<path transform="translate(539,1131)" d="m0 0 5 1 1 1v7l-3 3-5-1-1-2v-6z" fill="#3E3A3C"/>
<path transform="translate(1712,254)" d="m0 0h5l2 4-6-1-1 3 7 1 1 6-3 3h-8l1-4 5 1 2-4h-6l-2-2v-5z" fill="#FEFEFE"/>
<path transform="translate(1820,217)" d="m0 0h11l2 5v7l-1 3-3-1v-12h-6v13l-3-1z" fill="#FEFEFE"/>
<path transform="translate(534,1212)" d="m0 0 5 1 2 2v6l-2 2h-6l-2-3 1-6z" fill="#3B3B3D"/>
<path transform="translate(417,1185)" d="m0 0 5 2v8l-2 2h-5l-2-2v-6z" fill="#3E3A3C"/>
<path transform="translate(1728,254)" d="m0 0 5 1v2h-7v3l7 1 1 1v6l-4 2h-5l-2-2 1-3 2 2h5l-1-3-7-3 1-5z" fill="#FEFEFE"/>
<path transform="translate(1587,217)" d="m0 0h10l2 3v11h-3l-1-11-5-1-1 13h-2z" fill="#FEFEFE"/>
<path transform="translate(399,1157)" d="m0 0 5 2v8l-2 2-6-1-1-7z" fill="#3B3B3D"/>
<path transform="translate(409,1131)" d="m0 0 5 1 1 1v6l-3 4-5-1-1-1v-7z" fill="#3B3B3D"/>
<path transform="translate(689,1080)" d="m0 0h6l1 1v8l-5 3-4-3 1-8z" fill="#3B3B3D"/>
<path transform="translate(308,1080)" d="m0 0h6l1 1v8l-2 2h-5l-2-2v-6z" fill="#3E3A3C"/>
<path transform="translate(1767,254)" d="m0 0 6 1 1 1v13l-3 1v-13h-6l-1 12h-3l1-13z" fill="#FEFEFE"/>
<path transform="translate(1255,1394)" d="m0 0h5l2 4-1 6-6 1-2-1-1-6 1-3z" fill="#3B3B3D"/>
<path transform="translate(1805,254)" d="m0 0h6l1 3h-7l-1 3 7 1 1 1v6l-3 2h-7l-1-3h7l1-4h-6l-2-1 1-6z" fill="#FEFEFE"/>
<path transform="translate(495,1212)" d="m0 0 5 1 1 1v8l-2 1h-6l-1-7 1-3z" fill="#3B3B3D"/>
<path transform="translate(358,1212)" d="m0 0h5l3 6-3 5h-6l-1-2v-6z" fill="#3B3B3D"/>
<path transform="translate(149,1208)" d="m0 0 6 1 1 3-2 5-4 1v4h-3v-12z" fill="#403A3B"/>
<path transform="translate(1721,1269)" d="m0 0 6 2v3l-6-2-4 3v7l3 3 8-1-1 3-8 1-5-4-1-2v-6l3-5z" fill="#3E3A3C"/>
<path transform="translate(738,1080)" d="m0 0h5l2 7-2 5-5-1-2-2v-7z" fill="#3B3B3D"/>
<path transform="translate(1534,216)" d="m0 0 5 2v1l-7 1-1 2 7 1 2 4-1 4-2 1h-8v-3h6v-3l-6-3v-5z" fill="#FEFEFE"/>
<path transform="translate(207,1131)" d="m0 0h5l1 2v7l-1 3h-5l-2-2v-7z" fill="#3B3B3D"/>
<path transform="translate(240,1129)" d="m0 0 5 2 1 1-1 7-2 2-4-1-2-2v-7z" fill="#FEFEFE"/>
<path transform="translate(152,1078)" d="m0 0 5 1 1 7-2 3h-5l-3-5 2-5z" fill="#FEFEFE"/>
<path transform="translate(477,1131)" d="m0 0h5l2 3v6l-4 3-4-2-1-6z" fill="#3E3A3C"/>
<path transform="translate(576,1131)" d="m0 0 5 1 1 1v7l-1 3-6-1-1-1v-8z" fill="#3B3B3D"/>
<path transform="translate(278,1080)" d="m0 0h5l2 7-2 4h-6l-1-2v-7z" fill="#3B3B3D"/>
<path transform="translate(1651,1270)" d="m0 0h8l2 3-7-1-4 4v6l1 2 7 1 3 1-3 2-8-1-3-3-1-8 3-5z" fill="#3B3B3D"/>
<path transform="translate(240,1127)" d="m0 0 6 2 2 3-1 9-4 3-5-2-3-3v-8zm0 2-3 2v7l3 3 4-1 2-3v-5l-4-3z" fill="#3B3B3D"/>
<path transform="translate(1665,1270)" d="m0 0h11v2h-9v4l8 1v2l-8 1v5h9v2h-11z" fill="#3B3B3D"/>
<path transform="translate(305,1211)" d="m0 0 4 2v8l-2 2-5-1-2-2 1-6z" fill="#3E3A3C"/>
<path transform="translate(165,1131)" d="m0 0 5 1 1 4-2 6-4 1-3-3 1-7z" fill="#3B3B3D"/>
<path transform="translate(178,1079)" d="m0 0 4 2 1 5-2 5h-5l-2-4 1-6z" fill="#423A3B"/>
<path transform="translate(1762,217)" d="m0 0 3 1 2 9 1-1 1-8 5-1-1 5-4 9-5-1z" fill="#FEFEFE"/>
<path transform="translate(340,1157)" d="m0 0h6l2 2v9l-1 1h-7l-1-6 4-2h3v-2h-5z" fill="#757274"/>
<path transform="translate(205,1211)" d="m0 0 4 2 1 9-1 1h-7l-1-4 2-7z" fill="#7C7879"/>
<path transform="translate(573,1212)" d="m0 0h5l2 2v8l-1 1h-7l-1-3z" fill="#3B3B3D"/>
<path transform="translate(334,1078)" d="m0 0 6 1 1 2v7l-7 1-1-1v-9z" fill="#FEFEFE"/>
<path transform="translate(294,1185)" d="m0 0 4 1-1 2-4 1v5l5 1 5-10h5l2 4v3h-4l1-5-3 1-1 5h-2l-2 4h-7l-2-3 1-7z" fill="#3B3B3D"/>
<path transform="translate(333,1076)" d="m0 0 7 1 3 3v7l-3 4h-7l-2-1v-12zm1 2-1 1v9l1 1 7-1v-7l-3-3z" fill="#3B3B3D"/>
<path transform="translate(562,873)" d="m0 0 1 4-1 10-2 1h-7l2-5 6-9z" fill="#FEFEFE"/>
<path transform="translate(348,1080)" d="m0 0h5l1 1v10h-6l-2-4 1-6z" fill="#3B3B3D"/>
<path transform="translate(1652,1304)" d="m0 0 6 1-1 2h-6l-1 5h6v2h-6v8h-3v-16z" fill="#3B3B3D"/>
<path transform="translate(1832,1274)" d="m0 0h6l2 2v6h-7l1-3h4v-2h-6v7l1 1h7l-2 3h-6l-3-3-1-6 2-4z" fill="#3B3B3D"/>
<path transform="translate(149,1130)" d="m0 0h7l1 1v8l-7 1-1-1z" fill="#FEFEFE"/>
<path transform="translate(1666,219)" d="m0 0h5l1 1v8l-5 2-3-2v-7z" fill="#E0321D"/>
<path transform="translate(1755,1270)" d="m0 0h10v2l-7 1v3l6 1v2l-6 1v7l-3 1z" fill="#3B3B3D"/>
<path transform="translate(479,1077)" d="m0 0 4 1 1 11-3 1-2-2-5-1z" fill="#676768"/>
<path transform="translate(358,1185)" d="m0 0h6l2 7-2 5h-7v-9l6 1-1-2z" fill="#797778"/>
<path transform="translate(1735,218)" d="m0 0 5 2 1 4-2 5-4 1-2-1v-10z" fill="#E0321D"/>
<path transform="translate(1720,1308)" d="m0 0 5 1 2 2v5l-5 1-1-3 3 1-1-4h-3l-1 2v6l1 1h6v2l-7 1-3-3v-8z" fill="#3B3B3D"/>
<path transform="translate(1815,1236)" d="m0 0h4v18l-3 1-1-1z" fill="#3B3B3D"/>
<path transform="translate(152,1076)" d="m0 0 6 2 2 3-1 7-3 3h-6l-3-3-1-6 2-4zm0 2-4 4 2 6 1 1h5l2-3-1-7z" fill="#3B3B3D"/>
<path transform="translate(1729,1241)" d="m0 0h10v3l-5 2-1 9-4-1z" fill="#3B3B3D"/>
<path transform="translate(1823,1236)" d="m0 0h4v18h-4z" fill="#3B3B3D"/>
<path transform="translate(1547,219)" d="m0 0h5l2 2v6l-1 2-7-1v-8z" fill="#E0321D"/>
<path transform="translate(1752,218)" d="m0 0 4 1 1 7-2 4-4-1-2-3 1-6z" fill="#E0321D"/>
<path transform="translate(1750,256)" d="m0 0 4 2 1 5-3 5-4-1-1-2v-6z" fill="#E0321D"/>
<path transform="translate(1664,1310)" d="m0 0 5 1 1 7-3 3-4-2-1-1v-6z" fill="#FEFEFE"/>
<path transform="translate(830,1078)" d="m0 0h2l1 13-3-1v-9l-9 2v5l3 1 3-1-1 3-3 1-4-2-1-7 2-3 9-1z" fill="#3E3A3C"/>
<path transform="translate(1673,256)" d="m0 0 4 2v8l-4 2-4-4 2-7z" fill="#E0321D"/>
<path transform="translate(1688,249)" d="m0 0 4 1-3 2-2 17h-3v-17z" fill="#FEFEFE"/>
<path transform="translate(187,878)" d="m0 0 6 2 1 5h-13l2-5z" fill="#FEFEFE"/>
<path transform="translate(1783,1275)" d="m0 0h2l1 10 5-1v-9h3v11l-2 2h-6l-3-2-1-10z" fill="#3B3B3D"/>
<path transform="translate(148,1182)" d="m0 0 8 1 1 2-2 6-3-1 2-6h-4l1 7-1 5h-3v-13z" fill="#3B3B3D"/>
<path transform="translate(1646,256)" d="m0 0 3 1 2 4-1 5-1 1h-5l-1-6 1-4z" fill="#E0321D"/>
<path transform="translate(1818,1276)" d="m0 0 5 1v8l-5 1-3-4 1-5z" fill="#FEFEFE"/>
<path transform="translate(1734,1276)" d="m0 0 6 1 1 6-3 3-4-1-1-1v-7z" fill="#FEFEFE"/>
<path transform="translate(243,1212)" d="m0 0h6l1 1v11l-5 3-2-2 4-1 1-10h-4v9l-3-1v-8z" fill="#3D3A3C"/>
<path transform="translate(232,878)" d="m0 0 5 1 2 3v3h-12l1-4z" fill="#FEFEFE"/>
<path transform="translate(1866,1276)" d="m0 0 5 1v7l-2 2-4-1-2-3 1-5z" fill="#FEFEFE"/>
<path transform="translate(532,1154)" d="m0 0 2 1 1 9 2-1 3-9h2l-1 9-3 5h-3l-2-4-2-9z" fill="#3B3B3D"/>
<path transform="translate(1771,1276)" d="m0 0h5l1 1v7l-2 2-4-1-2-5z" fill="#FEFEFE"/>
<path transform="translate(1803,1274)" d="m0 0 6 1 1 11-3 1v-9l-5-1v10h-3l-1-7 1-5z" fill="#3B3B3D"/>
<path transform="translate(372,1212)" d="m0 0 3 1 1 6 2-1 1-6 2 1-2 9h-4l-2-6-1 7h-3l1-8z" fill="#3D3A3C"/>
<path transform="translate(262,1182)" d="m0 0 6 1 1 4-3 5h-2l2-7h-4v11h-3v-12z" fill="#3F3A3C"/>
<path transform="translate(319,878)" d="m0 0 4 1 3 3v3h-12l1-4z" fill="#FEFEFE"/>
<path transform="translate(1704,1310)" d="m0 0 5 1v8l-3 2-4-3v-6z" fill="#FEFEFE"/>
<path transform="translate(1692,1241)" d="m0 0h5l1 2v11h-4v-10l-4-1z" fill="#3B3B3D"/>
<path transform="translate(261,1154)" d="m0 0 7 1 1 4-3 5h-2l2-7h-4v10l-3 1v-12z" fill="#3F3A3C"/>
<path transform="translate(499,1077)" d="m0 0h2l1 12 5-1 1-11h2v11l-2 3h-6l-3-4z" fill="#3D3A3C"/>
<path transform="translate(421,1209)" d="m0 0h2v13l-1 1h-6l-2-2v-7l2-2 4 1-4 4v4l4-1z" fill="#3B3B3D"/>
<path transform="translate(303,1157)" d="m0 0h5l2 5-1 2-6-1v5h-2v-9z" fill="#6E6B6C"/>
<path transform="translate(636,1076)" d="m0 0 2 1v2l6 1 1 1v10h-2l-1-9-3-1-1 10h-2z" fill="#3D3A3C"/>
<path transform="translate(1841,219)" d="m0 0h5l1 5-2 5-5-1v-8z" fill="#E0321D"/>
<path transform="translate(261,1208)" d="m0 0 6 1 1 1v6l-1 2-4-1 3-1-1-5-4-1 1 7v6l-3-1v-11z" fill="#3B3B3D"/>
<path transform="translate(787,1080)" d="m0 0h7l2 7-2 4-3-1 2-3v-4l-4-1v11l-3 1v-13z" fill="#3B3B3D"/>
<path transform="translate(609,1157)" d="m0 0 5 2 2 3-1 5-2 2-3-1 3-3-1-5-3-1v12h-3v-10l1-3z" fill="#3D3A3C"/>
<path transform="translate(1505,212)" d="m0 0 3 1v18h-3z" fill="#FEFEFE"/>
<path transform="translate(470,1156)" d="m0 0 5 2 1 3-1 3h-5l-1 3h6v2h-7l-1-1v-8l2-1 1 2 4 1-1-3-4-2z" fill="#3B3B3D"/>
<path transform="translate(453,1078)" d="m0 0 4 1 1 7-4 4-2-2v-8z" fill="#FEFEFE"/>
<path transform="translate(440,1131)" d="m0 0h5l2 3v7l-3 2h-5l-1-5 1-3 3 1-1 5h2l1-7-5-1z" fill="#3B3B3D"/>
<path transform="translate(239,1080)" d="m0 0h6l3 5-2 5-4 1v-2l4-1-1-6h-4l-1 12h-2v-12z" fill="#3B3B3D"/>
<path transform="translate(1807,1241)" d="m0 0h4v13h-5z" fill="#3B3B3D"/>
<path transform="translate(482,1209)" d="m0 0h7l1 2-8 1v7l7 2-1 2h-6l-3-3v-8z" fill="#3B3B3D"/>
<path transform="translate(596,1157)" d="m0 0h5l2 4v6l-2 2h-6v-8h3l-2 6 4-1v-7h-4z" fill="#3B3B3D"/>
<path transform="translate(208,1076)" d="m0 0 2 3-1 11-1 1h-7l-1-11 2-2 1 5v7l5-1z" fill="#3B3B3D"/>
<path transform="translate(1738,249)" d="m0 0h2l1 7v13h-3z" fill="#FEFEFE"/>
<path transform="translate(391,1212)" d="m0 0 3 1-2 8h4l-1-9 3 1v9l-1 1h-7z" fill="#3B3B3D"/>
<path transform="translate(203,1157)" d="m0 0h5l2 7-1 5h-6l-1-1v-7l3 1-1 5h4l-1-6 1-2h-6z" fill="#3B3B3D"/>
<path transform="translate(525,1080)" d="m0 0h5l2 2v8l-3 2-5-1-1-3 1-3 4 1-3 4 4-1 1-7h-5z" fill="#3B3B3D"/>
<path transform="translate(1779,217)" d="m0 0h2l-1 8-2 6-4-1 1-5z" fill="#FEFEFE"/>
<path transform="translate(1561,211)" d="m0 0h2l1 8v13l-3-1z" fill="#FEFEFE"/>
<path transform="translate(1274,1394)" d="m0 0h5l2 3v7l-7 1-2-4 2-4h2l-1 6 3-1v-5l-4-1z" fill="#3E3A3C"/>
<path transform="translate(346,1183)" d="m0 0h3l2 8-3-1v-4h-2l-2 5-1 3h2l1-3 2 1-5 5-2-1v-5z" fill="#3B3B3D"/>
<path transform="translate(408,1158)" d="m0 0h7l1 1 1 9-3 1-1-9-3-1v8l-2 2-1-4z" fill="#3B3B3D"/>
<path transform="translate(234,1157)" d="m0 0 4 2v9l-3 1 1-10h-4l-1 10-2-1v-9z" fill="#3B3B3D"/>
<path transform="translate(371,1080)" d="m0 0h5l1 1v10l-3-1v-8l-2-1v10l-3-1 1-9z" fill="#3E3A3C"/>
<path transform="translate(203,1185)" d="m0 0h5l2 5-1 7h-6l-1-1v-6l3-1v6h3l-1-6 1-2h-5z" fill="#3B3B3D"/>
<path transform="translate(158,1186)" d="m0 0 3 1 1 8h3l1-9h2v8l-2 3h-6l-1-1z" fill="#3B3B3D"/>
<path transform="translate(232,1185)" d="m0 0 5 1 1 2v7l-1 2-2-1v-8h-3l-1 9h-2v-10z" fill="#3E3A3C"/>
<path transform="translate(505,1131)" d="m0 0 5 1 1 4-2 7-4-1 3-4v-5h-2l-2 9-2-1 1-8z" fill="#3B3B3D"/>
<path transform="translate(388,1131)" d="m0 0h6l2 3v7l-3 1v-8l-3-1-1 8-3 1 1-9z" fill="#3E3A3C"/>
<path transform="translate(757,1080)" d="m0 0h6l1 1v8l-2 3h-2l1-3v-7h-2v9l-3-1v-8z" fill="#3E3A3C"/>
<path transform="translate(454,1076)" d="m0 0 5 3 1 5-2 6-1 1h-5l-1-1v-11zm-1 2-1 2v8l3 2 3-4-1-7z" fill="#3B3B3D"/>
<path transform="translate(1659,255)" d="m0 0h6l-4 4-1 10-3-1v-11z" fill="#FEFEFE"/>
<path transform="translate(1666,1243)" d="m0 0 4 2 1 4-3 3-4-1-1-4z" fill="#FEFEFE"/>
<path transform="translate(231,1212)" d="m0 0 6 1 1 1v8l-2 1-1-8h-3l-1 8h-2v-10z" fill="#3B3B3D"/>
<path transform="translate(621,1157)" d="m0 0h5l1 1v6l-4-1 1-2h2l-1-2h-3l-1 8h6v2h-6l-2-2v-7z" fill="#3B3B3D"/>
<path transform="translate(550,1131)" d="m0 0 7 1 1 2v6l-1 2h-2v-8l-4-2v10l-3-1 1-9z" fill="#413A3B"/>
<path transform="translate(1300,1394)" d="m0 0 5 1 1 5h-2l-1-2-4-1 1 5 6 1-1 2-7-1-2-5z" fill="#3B3B3D"/>
<path transform="translate(425,1186)" d="m0 0h2l1 9h4v-9h2v10l-1 1h-7l-1-3z" fill="#3B3B3D"/>
<path transform="translate(354,1157)" d="m0 0 5 1 1 3v7l-2 1-1-9-3-1-1 10h-2v-7l1-4z" fill="#3B3B3D"/>
<path transform="translate(1605,255)" d="m0 0h8v2h-4l-2 12-2 1z" fill="#FEFEFE"/>
<path transform="translate(157,1212)" d="m0 0 3 1 1 8h4v-8l3 1v7l-2 2h-6l-3-9z" fill="#3E3A3C"/>
<path transform="translate(506,1212)" d="m0 0h6l2 4v7h-2l-2-9-3-1v10h-2v-10z" fill="#3B3B3D"/>
<path transform="translate(215,1185)" d="m0 0 5 1-1 2-4-1 1 4-1 4h2l1-6 2 1v6l-1 1h-6v-10z" fill="#3B3B3D"/>
<path transform="translate(587,1131)" d="m0 0h5l2 4v6l-3 1v-8l-3-1-1 9h-2v-9z" fill="#3B3B3D"/>
<path transform="translate(257,1131)" d="m0 0 2 2v8l-3 2-5-1v-10l2 1v8h3z" fill="#3B3B3D"/>
<path transform="translate(351,1131)" d="m0 0h6l2 5v6h-2l-1-8-3-1-1 9h-2v-10z" fill="#3B3B3D"/>
<path transform="translate(556,1209)" d="m0 0h3l2 7 2 1v3h-3l-2-4-1 7h-2v-8z" fill="#3B3B3D"/>
<path transform="translate(440,1187)" d="m0 0 5 1v6l-4 4-1-1z" fill="#FEFEFE"/>
<path transform="translate(244,1187)" d="m0 0h4v9l-4 1-1-1v-8z" fill="#FEFEFE"/>
<path transform="translate(504,1157)" d="m0 0 6 1 1 1v9l-2 1-1-9-3-2-1 11-2-1v-8z" fill="#3B3B3D"/>
<path transform="translate(311,1131)" d="m0 0h6l1 1 1 10-3-1-1-8h-2l-1 9h-2v-8z" fill="#3E3A3C"/>
<path transform="translate(427,1131)" d="m0 0h7l1 2v8l-2 1v-9l-4 1-1 8h-2v-10z" fill="#3B3B3D"/>
<path transform="translate(323,1131)" d="m0 0h5v2l-4 1v7h2v-5l3 1-1 5-1 1h-5l-1-4 1-7z" fill="#453A3A"/>
<path transform="translate(1879,1269)" d="m0 0h3v2l-2 1v2l2 2-3 1v10h-2l-1-13z" fill="#3B3B3D"/>
<path transform="translate(180,1157)" d="m0 0 5 1 1 4-2-1v-2h-3v8l6-1-2 3h-5l-2-3v-7z" fill="#3E3A3C"/>
<path transform="translate(588,1080)" d="m0 0h5l1 2v9h-7v-8l2 1v6l2-1v-7h-3z" fill="#3B3B3D"/>
<path transform="translate(609,1159)" d="m0 0 4 1 1 5-5 4-1-1v-7z" fill="#FEFEFE"/>
<path transform="translate(437,1159)" d="m0 0 5 1 1 3-2 4h-4l-1-6z" fill="#F8F4F4"/>
<path transform="translate(244,1159)" d="m0 0h4v9h-4l-1-2v-6z" fill="#FEFEFE"/>
<path transform="translate(457,1154)" d="m0 0h11v2h-4v12h-3l1-12h-5z" fill="#3F3F41"/>
<path transform="translate(601,1081)" d="m0 0h4v7l-4 2-2-3 1-5z" fill="#FEFEFE"/>
<path transform="translate(939,1080)" d="m0 0h6l2 2v8h-2l-1-8h-3l-1 8-2 1v-10z" fill="#3B3B3D"/>
<path transform="translate(464,1076)" d="m0 0 6 1 1 1v5l-6 8h-2l-1-3 5-5 2-5-6 1z" fill="#3E3A3C"/>
<path transform="translate(403,1212)" d="m0 0h6l2 3v7l-2 1-1-8-3-2-1 10-2-1z" fill="#3B3B3D"/>
<path transform="translate(584,1159)" d="m0 0 5 1v7l-5 2z" fill="#FEFEFE"/>
<path transform="translate(265,1131)" d="m0 0h5l1 1v5l-4 2v-2h2l-1-4h-2v7l1 2-4-1v-8z" fill="#3E3A3C"/>
<path transform="translate(301,1132)" d="m0 0 4 2v5l-2 2h-3l-1-7z" fill="#FEFEFE"/>
<path transform="translate(276,1131)" d="m0 0h5v2h-3l-2 9 2-1 2-6 2 3-1 4-6 1-1-2 1-9z" fill="#3B3B3D"/>
<path transform="translate(182,1185)" d="m0 0h4v2l-5 2v6h5v2h-6l-2-3v-6z" fill="#3E3A3C"/>
<path transform="translate(565,1132)" d="m0 0 3 1v7l-4 2-1-1v-8z" fill="#FEFEFE"/>
<path transform="translate(897,1080)" d="m0 0h5v2l-4-1 1 8 1-4 3 1-2 5-5-1v-9z" fill="#3E3A3C"/>
<path transform="translate(292,1081)" d="m0 0h3v8h-5l-1-6z" fill="#FEFEFE"/>
<path transform="translate(387,1080)" d="m0 0h8l1 1v10l-2-1v-6l-1-2-3-1v9l-2 1z" fill="#3B3B3D"/>
<path transform="translate(1795,249)" d="m0 0h2v20l-3-1z" fill="#FEFEFE"/>
<path transform="translate(1243,1391)" d="m0 0h7v1h-5v5h4v2h-5l1 5-3 1v-9z" fill="#3B3B3D"/>
<path transform="translate(1288,1395)" d="m0 0 4 2-1 7-1 2h-2l-1-10z" fill="#FEFEFE"/>
<path transform="translate(441,1076)" d="m0 0 5 1 1 6-3 1-2 5-1 2h-3l2-4 5-5-1-3h-6z" fill="#3B3B3D"/>
<path transform="translate(1849,1274)" d="m0 0 3 2h-5v11h-3v-10l1-2z" fill="#433A3B"/>
<path transform="translate(534,1214)" d="m0 0 5 1 1 4-2 2h-4l-1-6z" fill="#FEFEFE"/>
<path transform="translate(293,1157)" d="m0 0 5 1v1h-5l-1 8h6v2h-6l-2-2v-7z" fill="#3B3B3D"/>
<path transform="translate(600,1131)" d="m0 0h5l1 2-6 1v5l4 1 2 1-2 2-5-1-2-3v-5z" fill="#3B3B3D"/>
<path transform="translate(612,1212)" d="m0 0v3l1 8h-2l-2-4-2 3-3-1 2-2-1-6 4 2z" fill="#3B3B3D"/>
<path transform="translate(282,1213)" d="m0 0 4 2v5l-5 1-1-1v-5z" fill="#FEFEFE"/>
<path transform="translate(214,1212)" d="m0 0 5 1 1 8-2 2-5-1 4-2v-6l-2-1v5l-2 1v-6z" fill="#3B3B3D"/>
<path transform="translate(281,1187)" d="m0 0 4 1 1 5-2 2h-4z" fill="#FEFEFE"/>
<path transform="translate(547,1155)" d="m0 0h3l-2 4-1 8-4 2 1-9z" fill="#3B3B3D"/>
<path transform="translate(554,1158)" d="m0 0 4 2v6l-5 1v-7z" fill="#FEFEFE"/>
<path transform="translate(611,1132)" d="m0 0 4 1 1 2v6l-4 1v-3-2h-2z" fill="#FEFEFE"/>
<path transform="translate(220,1132)" d="m0 0h3v8l-4 1-1-7z" fill="#FEFEFE"/>
<path transform="translate(690,1081)" d="m0 0 4 1v7l-4 1-1-1v-6z" fill="#FEFEFE"/>
<path transform="translate(365,1160)" d="m0 0h5l1 1v6h-5z" fill="#FEFEFE"/>
<path transform="translate(281,1159)" d="m0 0h4l1 6-2 2-4-1z" fill="#FEFEFE"/>
<path transform="translate(364,1133)" d="m0 0h5v7l-4 1-1-1z" fill="#FEFEFE"/>
<path transform="translate(527,1132)" d="m0 0 4 1 1 5-3 4h-2z" fill="#FEFEFE"/>
<path transform="translate(399,1129)" d="m0 0 4 1v2h-2l2 11h-3l-1-2-1-11z" fill="#433A3B"/>
<path transform="translate(721,1081)" d="m0 0 4 2v5l-2 2h-3v-8z" fill="#FEFEFE"/>
<path transform="translate(279,1081)" d="m0 0h3l1 7-4 2-1-1v-7z" fill="#FEFEFE"/>
<path transform="translate(293,1212)" d="m0 0 5 1-1 2-2-1-2 1v5l5 1-1 2h-5l-2-3 1-7z" fill="#3B3B3D"/>
<path transform="translate(340,1209)" d="m0 0h7l1 2h-6v12l-3-1z" fill="#3B3B3D"/>
<path transform="translate(540,1132)" d="m0 0 3 1v7l-4 1-1-6z" fill="#FEFEFE"/>
<path transform="translate(771,1081)" d="m0 0 4 1v6l-5 1v-7z" fill="#FEFEFE"/>
<path transform="translate(1256,1395)" d="m0 0 4 2v5l-4 1-2-2 1-5z" fill="#FEFEFE"/>
<path transform="translate(184,1211)" d="m0 0 2 1v2h-6l1 6 4 1v2h-5l-2-3v-6z" fill="#3B3B3D"/>
<path transform="translate(566,1209)" d="m0 0h2v14h-2v-8l1-2h-2l-2 4 1-5z" fill="#3B3B3D"/>
<path transform="translate(518,1158)" d="m0 0 3 1v8l-4 1v-9z" fill="#FEFEFE"/>
<path transform="translate(208,1132)" d="m0 0 3 1v8h-4v-8z" fill="#FEFEFE"/>
<path transform="translate(309,1081)" d="m0 0h4v7l-4 1-1-1z" fill="#FEFEFE"/>
<path transform="translate(177,1081)" d="m0 0 4 1v7l-4 1-1-7z" fill="#FEFEFE"/>
<path transform="translate(169,1080)" d="m0 0h1l-1 9-3 2-3-5-2-5 3 1 3 4z" fill="#3F3A3C"/>
<path transform="translate(649,1080)" d="m0 0h6l2 3v7l-4 1v-9h-4z" fill="#3B3B3D"/>
<path transform="translate(294,1185)" d="m0 0 4 1-1 2-4 1v5l4 3h-5l-2-3 1-7z" fill="#443A3B"/>
<path transform="translate(417,1187)" d="m0 0h3v7l-5 1 1-7z" fill="#FEFEFE"/>
<path transform="translate(478,1132)" d="m0 0 4 1v7l-4 1-1-8z" fill="#FEFEFE"/>
<path transform="translate(147,1082)" d="m0 0 2 2 2 4h5l3-2-2 4-1 1h-6l-3-3-1-5z" fill="#443A3B"/>
<path transform="translate(1781,262)" d="m0 0h6l-1 5-4 1-2-2z" fill="#E0321D"/>
<path transform="translate(398,1159)" d="m0 0h4v8h-4l-1-5z" fill="#FEFEFE"/>
<path transform="translate(409,1133)" d="m0 0h4v7l-4 2-1-3z" fill="#FEFEFE"/>
<path transform="translate(339,1131)" d="m0 0h5l2 2v9l-5 1 2-1 1-6-1-2-4-1z" fill="#3B3B3D"/>
<path transform="translate(285,1129)" d="m0 0 4 2-2 1 2 11-4-2z" fill="#3B3B3D"/>
<path transform="translate(805,1080)" d="m0 0h8l1 1v10l-4-1 1-1 1-7-7-1z" fill="#3B3B3D"/>
<path transform="translate(612,1080)" d="m0 0h5l2 4-1 7-3-1v-8l-4-1z" fill="#3F3A3C"/>
<path transform="translate(1636,224)" d="m0 0h2v5l-6 1-1-5z" fill="#E0321D"/>
<path transform="translate(496,1213)" d="m0 0 3 2v6h-5l1-7z" fill="#FEFEFE"/>
<path transform="translate(359,1213)" d="m0 0 3 1 1 6-5 1v-6z" fill="#FEFEFE"/>
<path transform="translate(516,1210)" d="m0 0 4 1v9l1 3h-3l-2-10z" fill="#3B3B3D"/>
<path transform="translate(189,1182)" d="m0 0h2l3 4h-2v10l-3 1z" fill="#403A3C"/>
<path transform="translate(577,1132)" d="m0 0 3 1v8l-3 1-1-2v-7z" fill="#FEFEFE"/>
<path transform="translate(354,1183)" d="m0 0h2l-2 11-3 3-1-5 2-1z" fill="#3B3B3D"/>
<path transform="translate(420,1155)" d="m0 0h2l1 4v7l2 3h-4l-1-3z" fill="#3B3B3D"/>
<path transform="translate(182,1131)" d="m0 0h6l2 3v8l-3 1v-9l-5-1z" fill="#3B3B3D"/>
<path transform="translate(1619,256)" d="m0 0h5l1 5h-7z" fill="#E0321D"/>
<path transform="translate(1721,1308)" d="m0 0 4 1 2 2v5l-5 1-1-3 3 1-1-4-3-2z" fill="#403A3B"/>
<path transform="translate(189,1154)" d="m0 0h2l1 2v13h-2z" fill="#3B3B3D"/>
<path transform="translate(166,1132)" d="m0 0 3 1v7l-4 1v-8z" fill="#FEFEFE"/>
<path transform="translate(854,1080)" d="m0 0h5l2 3v7l-3 1v-8h-3z" fill="#3B3B3D"/>
<path transform="translate(876,1078)" d="m0 0 3 1v9l1 3-4-1z" fill="#3B3B3D"/>
<path transform="translate(1803,1274)" d="m0 0 6 1 1 11-3 1v-9l-4-2z" fill="#403A3B"/>
<path transform="translate(584,1210)" d="m0 0h2l1 10 3 3h-5l-1-3z" fill="#3B3B3D"/>
<path transform="translate(571,1154)" d="m0 0h2v14l-2 1-1-13z" fill="#403A3B"/>
<path transform="translate(885,1080)" d="m0 0h5l2 4v6l-4 1 1-8-4-1z" fill="#3B3B3D"/>
<path transform="translate(739,1081)" d="m0 0 3 1 1 7h-4l-1-7z" fill="#FEFEFE"/>
<path transform="translate(425,1080)" d="m0 0h5v2h-4v9l-3-1 1-9z" fill="#3B3B3D"/>
<path transform="translate(748,1077)" d="m0 0 2 1 1 10 1 4-3-1-1-2z" fill="#403A3B"/>
<path transform="translate(320,1076)" d="m0 0 2 1-2 13h-2v-11z" fill="#3B3B3D"/>
<path transform="translate(265,799)" d="m0 0 4 1v5l-4 1-1-1v-5z" fill="#463A3A"/>
<path transform="translate(261,1210)" d="m0 0 5 1v5l-4 1z" fill="#FEFEFE"/>
<path transform="translate(190,1208)" d="m0 0 2 1v9l-1 4h-3z" fill="#3B3B3D"/>
<path transform="translate(375,1183)" d="m0 0h2v13l-3 1v-13z" fill="#3B3B3D"/>
<path transform="translate(260,1185)" d="m0 0 2 3v8h-3v-10z" fill="#3B3B3D"/>
<path transform="translate(394,1183)" d="m0 0h2v13l-3 1z" fill="#3B3B3D"/>
<path transform="translate(175,1129)" d="m0 0h2l1 14-3-1-1-12z" fill="#3B3B3D"/>
<path transform="translate(350,1081)" d="m0 0h2l1 6-1 3h-3v-8z" fill="#FEFEFE"/>
<path transform="translate(455,892)" d="m0 0h2l-1 7-3 3-1-4z" fill="#3B3B3D"/>
<path transform="translate(304,1213)" d="m0 0h3v8h-4v-6z" fill="#FEFEFE"/>
<path transform="translate(351,1209)" d="m0 0h2v12l-3 2z" fill="#3B3B3D"/>
<path transform="translate(489,1155)" d="m0 0 3 1v10l2 3h-4z" fill="#3B3B3D"/>
<path transform="translate(292,1128)" d="m0 0h2v14l-4-1 1-1z" fill="#3B3B3D"/>
<path transform="translate(575,1084)" d="m0 0h6v5l-4 1-2-2z" fill="#FEFEFE"/>
<path transform="translate(1266,1394)" d="m0 0h5l-3 3-1 8-2-1v-9z" fill="#3B3B3D"/>
<path transform="translate(574,1213)" d="m0 0h3l1 8h-4z" fill="#FEFEFE"/>
<path transform="translate(150,1210)" d="m0 0 4 1-1 5-3 1-1-6z" fill="#FEFEFE"/>
<path transform="translate(480,1157)" d="m0 0h6l1 5-3-3h-2v5h-3z" fill="#3B3B3D"/>
<path transform="translate(488,1131)" d="m0 0h6v2l-4 1-1 8h-2z" fill="#3B3B3D"/>
<path transform="translate(403,1080)" d="m0 0 5 1 1 1v7l-2 2-3-1 2-2v-6z" fill="#3B3B3D"/>
<path transform="translate(526,1212)" d="m0 0 3 1-1 1-1 8-4 1 2-10z" fill="#3B3B3D"/>
<path transform="translate(436,1210)" d="m0 0 4 1-1 5-4-1z" fill="#FEFEFE"/>
<path transform="translate(409,1185)" d="m0 0 3 2h-4v9h-3l1-10z" fill="#473A3A"/>
<path transform="translate(150,1184)" d="m0 0h4l-1 6h-3l-1-4z" fill="#FEFEFE"/>
<path transform="translate(260,1157)" d="m0 0 2 2v8l-3 1v-7z" fill="#3B3B3D"/>
<path transform="translate(819,1083)" d="m0 0h1l1 5 3 1 3-1-1 3-3 1-4-2-1-6z" fill="#3B3B3D"/>
</svg>
