<?xml version="1.0" encoding="UTF-8"?>
<svg version="1.1" viewBox="0 0 2048 1507" width="800" height="589" xmlns="http://www.w3.org/2000/svg">
<path transform="translate(0)" d="m0 0h2048v1507h-2048z" fill="#FCFCFC"/>
<path transform="translate(1487)" d="m0 0h459l1 324v50l-5 2-38 8-171 38-13 3-9-1-194-43-30-6z" fill="#303039"/>
<path transform="translate(100,201)" d="m0 0h44l9 15v3h-30v12h28v16l-4 1h-24v12h38v18h-60l-1-1z" fill="#31313A"/>
<path transform="translate(438,592)" d="m0 0h35l10 4 4 7v10l-3 5-3 1v3l4 2 4 6 1 3v9l-3 6-6 5-6 2h-37z" fill="#3C3C3E"/>
<path transform="translate(151,201)" d="m0 0h26l9 19 2 4 2 1 2-6 9-18h25l-2 6-15 26-8 14-1 31h-22l-1-1-1-31-12-21-13-22z" fill="#30303A"/>
<path transform="translate(297,607)" d="m0 0h10l7 4 3 3 7-6 3-1h11l5 3 4 5 2 7v33h-16l-1-34-6-2-4 1-2 6-1 29h-16l-1-33-1-2h-8l-4 5-1 30h-16v-47h15l1 5z" fill="#3C3C3E"/>
<path transform="translate(584,589)" d="m0 0h15v66l-14 1-2-5-10 6h-9l-6-3-7-8-2-6v-17l5-10 6-5 2-1h13l9 6z" fill="#3C3C3E"/>
<path transform="translate(108,592)" d="m0 0h16l1 43 2 5 3 3h10l4-4 1-3 1-44h16l1 38-2 12-4 7-5 4-7 3-6 1h-8l-11-3-7-5-4-8-1-4z" fill="#3C3C3E"/>
<path transform="translate(617,607)" d="m0 0h22l8 3 5 6 2 7v32l-1 1h-14l-2-5-5 4-5 2h-9l-6-3-6-7v-12l4-6 6-3 4-1 17-1-1-5-2-1h-15l-9 2v-12z" fill="#3C3C3E"/>
<path transform="translate(366,607)" d="m0 0h22l8 3 5 6 2 6v33l-1 1h-13l-1-1v-5l-9 6-3 1h-9l-6-3-5-5-1-3v-10l3-6 7-4 4-1 19-1-3-5-3-1h-14l-9 2v-11z" fill="#3C3C3E"/>
<path transform="translate(227,607)" d="m0 0h23l8 4 4 5 2 5v34l-1 1h-13l-1-1v-5l-9 6-3 1h-9l-6-3-5-6-1-3v-9l3-5 5-4 6-2 19-1-3-5-2-1h-15l-9 2v-10l1-2z" fill="#3C3C3E"/>
<path transform="translate(506,607)" d="m0 0h22l8 3 5 6 2 5v34l-4 1h-10l-1-1v-5l-6 5-6 2h-8l-7-3-5-6-1-3v-9l4-7 10-4 18-1-2-5-2-1h-14l-10 2v-11z" fill="#3C3C3E"/>
<path transform="translate(423,702)" d="m0 0h12l1 17h3l5-3h9l6 4 5 8 1 4v10l-4 9-6 5-2 1h-10l-7-4-1 3h-12z" fill="#3C3C3E"/>
<path transform="translate(239,702)" d="m0 0h12v54h-12l-1-2-4 2-3 1h-10l-6-4-5-8-1-11 3-10 4-5 6-3h8l9 5z" fill="#3C3C3E"/>
<path transform="translate(597,716)" d="m0 0 9 1 4 4 4-1 4-3 3-1h7l6 3 4 7v30h-12l-1-11v-18h-7l-3 3-1 5-1 21h-12l-2-29h-7l-3 4-1 25h-13v-39h12l1 4 6-4z" fill="#3C3C3E"/>
<path transform="translate(119,704)" d="m0 0h17l17 46 2 6h-14l-3-8h-21l-3 8h-14l10-28z" fill="#3C3C3E"/>
<path transform="translate(846,716)" d="m0 0h12l8 4 5 6 2 5v12l-4 8-7 5-11 2-9-2-7-4-4-6-1-4v-11l4-8 6-5z" fill="#3C3C3E"/>
<path transform="translate(388,716)" d="m0 0h11l8 3 6 7 2 6v9l-3 8-7 6-5 2h-14l-8-4-4-5-2-5v-13l4-8 5-4z" fill="#3C3C3E"/>
<path transform="translate(181,607)" d="m0 0h21l7 1 1 1v11l-12-2h-11l-3 3 3 3 19 4 4 2 3 6v12l-4 5-6 3-5 1h-13l-12-2-2-1v-12l10 3 12 1 5-1v-5l-5-2-15-3-6-4-2-5v-9l3-5 5-4z" fill="#3C3C3E"/>
<path transform="translate(511,703)" d="m0 0h16l9 2 1 3-1 8-9-2h-15v8l12 2 11 4 4 5 1 10-3 8-5 4-5 2h-17l-11-3-1-2 1-10 12 4h12l2-1 1-5-4-3-15-4-7-6-1-2v-12l4-6z" fill="#3C3C3E"/>
<path transform="translate(732,716)" d="m0 0h18l8 4 3 4 1 3v29h-12l-1-3-6 4h-12l-6-4-2-4v-11l5-5 5-2 16-1-2-4h-16l-5 1v-9z" fill="#3D3D3F"/>
<path transform="translate(1807,108)" d="m0 0h11l4 1 1-1h7v38l-4 6-5 4-2 1h-12l-7-4-3-4 1-4 4-1 7 5h8l4-4 1-5-7 2-9-1-6-5-3-7v-9l4-8z" fill="#FDFDFD"/>
<path transform="translate(1630,88)" d="m0 0 3 1 8 11 1 6-8 12-13 18-5-2-24-18 5-5 16-11z" fill="#FDFDFD"/>
<path transform="translate(161,717)" d="m0 0h12l1 1 1 27 2 2 7-1 3-5 1-24h12l1 16-1 23-11 1-1-5-9 5h-10l-6-5-2-6z" fill="#3C3C3E"/>
<path transform="translate(903,716)" d="m0 0h8l5 3 4 5 1 2v30h-12l-1-1-1-27-1-1h-7l-3 3-1 3-1 23h-12v-39h11l1 5z" fill="#3C3C3E"/>
<path transform="translate(1772,107)" d="m0 0 8 1 6 1 1-1h5l1 1v33l-1 1h-5l-4-2-3 2h-11l-5-3-4-7-1-10 2-8 5-6z" fill="#FDFDFD"/>
<path transform="translate(650,717)" d="m0 0h12l1 21 1 8 7 1 4-4 1-4 1-22h12v39h-12l-2-3-6 4h-11l-7-6-1-3z" fill="#3C3C3E"/>
<path transform="translate(1588,118)" d="m0 0 5 2 17 13 8 6-4 7-9 12-3 3-6-1-12-16-10-15 5-5z" fill="#FDFDFD"/>
<path transform="translate(349,704)" d="m0 0h12l1 1v48l-2 9-4 5-6 3-12 1-1-3v-7l8-3 2-2 1-51z" fill="#3C3C3E"/>
<path transform="translate(1717,107)" d="m0 0 10 2 5 5 3 8v7l-3 7-5 5-4 2h-10l-7-4-4-6-1-3v-8l3-8 7-6z" fill="#FDFDFD"/>
<path transform="translate(688,607)" d="m0 0h9v14l-4-1h-7l-5 3-3 7-1 25h-15v-47h15v6l8-6z" fill="#3C3C3E"/>
<path transform="translate(1569,88)" d="m0 0 10 3 24 9 2 2-18 13-14 10-3-1-11-16-1-5 6-9z" fill="#FDFDFD"/>
<path transform="translate(289,706)" d="m0 0h13v11h13v9h-13l1 20 10 1 1 1-1 8h-17l-6-5-1-4v-21h-6v-9h6z" fill="#3C3C3E"/>
<path transform="translate(775,706)" d="m0 0h12l1 10 12 1v9h-12v21h11v9h-17l-6-4-1-3-1-22-5-1v-9l5-1z" fill="#3C3C3E"/>
<path transform="translate(616,846)" d="m0 0h4v4l6-4h9l5 4 3 8v7l-3 8-5 4-7 1-6-3-1-2v15l-5 1z" fill="#36363C"/>
<path transform="translate(1850,107)" d="m0 0 9 2 5 6 2 4v8l-1 1h-23l3 6 4 2 7-1 4-3 4 1-1 5-4 4-3 1h-10l-6-3-5-8v-13l4-7 5-4z" fill="#FDFDFD"/>
<path transform="translate(538,845)" d="m0 0 9 2 5 6 2 10-3 9-6 5-9 1-7-4-3-5-1-10 3-8 6-5z" fill="#1D1B1E"/>
<path transform="translate(747,846)" d="m0 0h11l6 5 2 5v11l-3 6-5 4-9 1-7-4-4-8v-8l3-7 4-4z" fill="#1D1C1F"/>
<path transform="translate(1576,79)" d="m0 0h48l5 5-5 5-14 10-5-1-29-11-4-1 2-5z" fill="#FDFDFD"/>
<path transform="translate(422,846)" d="m0 0h11l6 5 2 4v13l-4 6-4 3-9 1-6-4-4-5-1-11 3-7z" fill="#1C1B1E"/>
<path transform="translate(1676,95)" d="m0 0h31v7l-5 1h-11l-6-1v14h12l1 5-1 3h-12v18l-1 1h-7l-1-1z" fill="#FDFDFD"/>
<path transform="translate(700,702)" d="m0 0h13v54h-12l-1-18z" fill="#3D3D3F"/>
<path transform="translate(312,846)" d="m0 0h12l5 5 2 9v16l-5 1v-4l-5 4-9 1-6-4-1-2v-8l4-5 3-1h14l-3-6-4-2-12 1 1-4z" fill="#1D1B1E"/>
<path transform="translate(152,846)" d="m0 0h12l6 7 2 9-2 1h-22l3 7 5 3 11-1 4-1-2 4-3 2-5 1h-7l-8-5-3-6v-10l3-6z" fill="#201E21"/>
<path transform="translate(675,846)" d="m0 0h11l5 5 3 8-2 4h-22l4 8 4 2h7l8-1-2 4-7 2h-7l-6-3-5-6-1-10 3-8 5-4z" fill="#201F22"/>
<path transform="translate(562,846)" d="m0 0h3l2 3 5-3h9l5 5 4-4 2-1h8l5 5 1 3v23h-5l-1-24-1-2-5-1-6 4-1 4-1 19h-4l-1-21-2-5-5-1-6 4-1 4-1 19-5-1v-29z" fill="#1D1C1F"/>
<path transform="translate(371,846)" d="m0 0h11l5 5 3 9v2l-2 1h-22l3 7 5 3h7l8-1-2 4-7 2h-7l-6-3-4-5-2-5 1-10 4-6z" fill="#1F1E21"/>
<path transform="translate(481,909)" d="m0 0h6l5 4 2 5v13l-3 6-5 3-7-1-4-4-1-3v-14l3-6z" fill="#201F22"/>
<path transform="translate(263,717)" d="m0 0h13v39h-13z" fill="#3C3C3E"/>
<path transform="translate(808,717)" d="m0 0h12v39h-12z" fill="#3C3C3E"/>
<path transform="translate(551,717)" d="m0 0h12v39h-12z" fill="#3C3C3E"/>
<path transform="translate(570,618)" d="m0 0h8l5 5 1 4v9l-3 7-5 3-7-1-4-5-1-11 2-7z" fill="#FDFDFD"/>
<path transform="translate(460,247)" d="m0 0 3 1-1 30h-14l-5-6v-12l5-5h9v-7z" fill="#1A191C"/>
<path transform="translate(321,209)" d="m0 0h12l5 4 1 3v10l-3 5-1 1h-10l1 6-3 2h-3v-30z" fill="#303037"/>
<path transform="translate(248,908)" d="m0 0 4 1-1 10 7-3 6 2 3 4 1 9-3 6-5 3-6-1-3-2v2h-3z" fill="#222124"/>
<path transform="translate(251,255)" d="m0 0h5l4 11 3-10 5-1 3 7 2 4 3-10 5-1-1 7-4 14-2 2-4-1-3-8-1-3-3 10-2 2-5-1-5-18z" fill="#222125"/>
<path transform="translate(499,836)" d="m0 0h12l6 3 1 5-5-2-3-1h-9l-7 4-2 5v13l3 6 4 3 8 1 12-4-1 5-6 3-11 1-9-4-6-8-1-5v-8l3-9 5-5z" fill="#1D1C1F"/>
<path transform="translate(116,836)" d="m0 0h13l6 3 1 5-5-2-3-1h-10l-6 4-3 8v8l3 7 5 4 7 1 12-4-1 5-6 3-10 1-8-3-6-7-2-5v-12l3-8 6-5z" fill="#1E1C1F"/>
<path transform="translate(375,255)" d="m0 0h9l5 6v11l-5 5-2 1h-6l-5-4-2-5 1-9z" fill="#1C1A1D"/>
<path transform="translate(108,912)" d="m0 0h7l7 3 2 3v12l-4 5-3 1h-9l-1-1v-22z" fill="#FDFDFD"/>
<path transform="translate(257,202)" d="m0 0h9l5 3-1 4-2 1-4-2h-8l1 4 12 4 3 3 1 6-3 5-6 3-9-1-4-2-1-3 3-3 3 2h9l1-4-9-3-5-3-1-2v-7l4-4z" fill="#1E1D20"/>
<path transform="translate(1740,108)" d="m0 0h6l2 3 4-3h7l1 3-2 4-7 1-3 4-1 22-1 1h-6l-1-1v-33z" fill="#FDFDFD"/>
<path transform="translate(538,849)" d="m0 0 6 1 4 5 1 7-3 9-5 3h-5l-5-6-1-10 3-6z" fill="#FDFDFD"/>
<path transform="translate(751,849)" d="m0 0 7 2 3 4v12l-3 5-4 2-6-1-4-5-1-3v-7l3-6z" fill="#FDFDFD"/>
<path transform="translate(427,849)" d="m0 0 7 3 2 3v12l-3 5-3 2-7-1-4-5-1-9 3-7z" fill="#FDFDFD"/>
<path transform="translate(628,849)" d="m0 0 5 1 4 4 1 2v10l-3 5-3 3-7-1-4-6v-11l5-6z" fill="#FDFDFD"/>
<path transform="translate(304,209)" d="m0 0h7l5 5v18h-15l-3-4v-7l3-3 3-1h7v-3h-11v-3z" fill="#2E2D35"/>
<path transform="translate(774,846)" d="m0 0 4 1 2 2 5-3h8l5 4 1 2v25h-4l-1-23-4-4-6 1-4 5-1 21h-5z" fill="#39393D"/>
<path transform="translate(390,725)" d="m0 0h7l4 4 1 3v9l-3 5-2 2h-7l-4-4-1-2v-11z" fill="#FDFDFD"/>
<path transform="translate(848,725)" d="m0 0h6l5 4 1 3v9l-3 5-2 2h-7l-4-4-1-2v-11z" fill="#FDFDFD"/>
<path transform="translate(1773,114)" d="m0 0 8 1 3 3 1 3v9l-4 5-2 1h-7l-4-4-1-3v-8l3-5z" fill="#3C3C3E"/>
<path transform="translate(318,247)" d="m0 0h2l-1 8h11l3 4v19h-5l-1-17h-7v16l-5 1-1-1v-28z" fill="#2B2A2D"/>
<path transform="translate(1716,114)" d="m0 0 7 1 3 3 1 3v8l-3 5-3 2h-6l-5-5-1-2v-7l3-6z" fill="#3C3C3E"/>
<path transform="translate(539,909)" d="m0 0h3l1 2v18h5l-1 3h-4v7h-4v-7h-13l-1-3 10-16z" fill="#262528"/>
<path transform="translate(441,725)" d="m0 0 7 1 3 3 1 3v9l-4 6-2 1h-6l-4-5-1-9 3-7z" fill="#FDFDFD"/>
<path transform="translate(279,202)" d="m0 0h3l-1 7h8l5 4 1 19-5 1-1-1-1-16-6-1-1 17h-5v-28z" fill="#2C2C34"/>
<path transform="translate(228,725)" d="m0 0 7 1 3 4 1 9-3 7-3 2h-6l-4-5v-12l3-5z" fill="#FDFDFD"/>
<path transform="translate(418,209)" d="m0 0 8 1 4 6 1 6-2 1h-12l1 3h8l3 3-3 3h-9l-4-4-1-2v-10l3-5z" fill="#1C1B1E"/>
<path transform="translate(367,909)" d="m0 0 3 1 1 18 4 1v3l-5-1v8h-4l1-7h-14l1-5 7-12 4-5z" fill="#1C1B1E"/>
<path transform="translate(539,255)" d="m0 0h7l5 5 1 2v6l-2 1h-11l1 3h10l-1 5-2 1h-7l-4-2-3-7 1-9z" fill="#1D1B1E"/>
<path transform="translate(219,916)" d="m0 0 4 1 4 2 5-3 5 1 3 3 1 3v16h-4l-1-18h-9v17l-5 1v-16l-3-3-6 2-1 7v10h-4v-22l4 1z" fill="#242326"/>
<path transform="translate(540,209)" d="m0 0 7 1 4 4 1 8-5 1-8 1v3h7l3-1 1 5-2 1h-10l-4-4-1-3v-8l4-6z" fill="#313139"/>
<path transform="translate(392,202)" d="m0 0 4 1-1 7 7-1 5 3 1 2 1 18h-6l-1-16-7-1v17h-5v-29z" fill="#2D2D35"/>
<path transform="translate(148,593)" d="m0 0h13l1 1 1 36-1 9h-2l-2 4-4 6-3 1 2-5 3-9v-11l2-24-1-3-7-1-1 2z" fill="#32323A"/>
<path transform="translate(472,255)" d="m0 0h8l4 5 1 8h-14l2 4h10l-1 5-2 1h-8l-5-5-1-10 3-6z" fill="#1E1D20"/>
<path transform="translate(142,916)" d="m0 0 8 1 4 5 1 7h-17l3 6 2 1 11-1-1 3-5 2-8-1-5-5-1-2v-8l4-6z" fill="#2F2E33"/>
<path transform="translate(282,916)" d="m0 0 7 1 4 6 1 5-1 1h-16l1 6 9 1 6-1-2 4-9 1-5-2-4-5v-9l3-5z" fill="#2A292E"/>
<path transform="translate(189,916)" d="m0 0h6l5 3 2 4v6l-16 1 3 5 2 1 11-1-2 4-10 1-5-3-3-4v-9l4-6z" fill="#222023"/>
<path transform="translate(1811,114)" d="m0 0 7 1 3 3 1 2v9l-2 4-3 2h-6l-5-5-1-9 3-5z" fill="#31313A"/>
<path transform="translate(489,255)" d="m0 0h15l4 5v18h-5l-1-4v-14l-6 1-1 5v11l-1 1h-5z" fill="#252428"/>
<path transform="translate(393,255)" d="m0 0h15l4 4v19h-5l-1-17h-6l-1 17h-5l-1-1z" fill="#1F1E22"/>
<path transform="translate(104,909)" d="m0 0h12l7 2 4 5 1 2v12l-3 5-4 3-3 1h-14zm4 3-1 1v22l1 1h9l5-3 2-3v-12l-5-5-4-1z" fill="#1C1B1E"/>
<path transform="translate(250,834)" d="m0 0h5v4l-8 1-1 8 8-1v4h-8v27h-5v-27l-5-1 1-3h4v-7l4-4z" fill="#333338"/>
<path transform="translate(459,834)" d="m0 0h6v4l-9 1v7l8 1v3h-8v27h-5v-27l-5-1v-3h5v-7l3-4z" fill="#2F2F36"/>
<path transform="translate(471,209)" d="m0 0 4 1 1 8v14h-16l-3-6v-11l1-5h5v17l6-1 1-16z" fill="#252428"/>
<path transform="translate(703,837)" d="m0 0 4 1v9l3-1h8l-1 4h-10l1 21 1 1 9 1-1 4h-7l-7-3-1-7v-17l-4-1v-2l3-1 1-8z" fill="#2D2D31"/>
<path transform="translate(284,846)" d="m0 0h11l4 3v2l-11-1-6 4-2 4v7l3 6 4 2 12-1-1 4-6 2-9-1-6-4-3-6v-10l4-8z" fill="#2F2F37"/>
<path transform="translate(342,837)" d="m0 0 4 1v8l11 1-1 3h-10l1 19 1 3 8 1v4h-8l-5-2-1-2-1-9v-14l-4-2 4-2v-7z" fill="#27262C"/>
<path transform="translate(455,628)" d="m0 0h8l8 2 2 2v9l-4 3h-14z" fill="#FDFDFD"/>
<path transform="translate(1749,1296)" d="m0 0h11l2 2 1 13-2 3-5 1h-7l-1-1v-17z" fill="#39383B"/>
<path transform="translate(482,912)" d="m0 0 5 1 3 4v14l-3 5-5 1-4-5-1-10 2-7z" fill="#FDFDFD"/>
<path transform="translate(301,247)" d="m0 0h3v8h6v6l-6-1v13l6-1v5l-2 1h-7l-2-1-2-16-3-2 2-4 3-7z" fill="#323239"/>
<path transform="translate(498,209)" d="m0 0 3 1 1 17 6-1 1-16 3-1 2 1v22h-15l-2-3-1-6v-10z" fill="#2D2C32"/>
<path transform="translate(203,837)" d="m0 0 4 1v8h8l3 1v3h-11l1 22 10 1-1 4-11-1-3-3-1-22-3-1v-4h4z" fill="#1A181B"/>
<path transform="translate(1639,222)" d="m0 0h7l2 1 1 5v9l-2 5-1 1h-10v-2l8-1v-2h-6l-3-3v-10l1-2z" fill="#FDFDFD"/>
<path transform="translate(1885,222)" d="m0 0 9 1v17l-3 3h-9v-2l9-1-1-2h-6l-3-3-1-8 2-4z" fill="#FDFDFD"/>
<path transform="translate(350,209)" d="m0 0 6 1 4 4 1 8h-9l1-3 2-1-1-3-3-1-4 2v10l8 1 5 1-2 4-7 1-5-2-3-4-1-7 2-7 3-3z" fill="#1B191D"/>
<path transform="translate(484,202)" d="m0 0 4 1v6l5 1-1 5-4 1v7l1 4h5l-2 5h-8l-2-3-1-13-2-1v-5l3-1v-6z" fill="#33333B"/>
<path transform="translate(354,255)" d="m0 0h8l4 3v4l-12-1v11h6l5-2 1 5-5 3h-7l-5-5-1-2v-10l4-5z" fill="#1D1B1E"/>
<path transform="translate(449,201)" d="m0 0h6l2 4-5 1-1 4h3l1 3-1 2h-3v17h-6l-1-16-2-1 1-5 3-7z" fill="#2D2C34"/>
<path transform="translate(1576,222)" d="m0 0h7l3 4v9l-2 3h-8l-1 5h-3v-19z" fill="#FDFDFD"/>
<path transform="translate(1570,86)" d="m0 0h6l29 11 5 1 17-12 4 1-5 5-16 11-3-1v-2l-9-1-30-11z" fill="#201F22"/>
<path transform="translate(421,247)" d="m0 0h8l1 4h-6v4l5 1-1 5-4-1v18h-5l-1-16-3-3 2-4 3-7z" fill="#1D1B1F"/>
<path transform="translate(518,255)" d="m0 0h8l4 3-1 5-4-2h-5l-2 2v6l2 3h5l4-2 1 5-5 3h-6l-6-5-1-3v-8l4-6z" fill="#1D1B1F"/>
<path transform="translate(379,201)" d="m0 0 2 1v8l4-1 1 1v5h-5v13l5-1v5h-8l-2-3v-14h-4l-1-4 4-2 2-7z" fill="#212025"/>
<path transform="translate(1708,216)" d="m0 0 2 2v19l-1 1h-10l-3-5v-6l5-5h6v-5z" fill="#FDFDFD"/>
<path transform="translate(398,908)" d="m0 0 3 1-1 9 3-1h10l2 4 1 18h-4l-1-18h-8l-1 1-1 17h-4v-30z" fill="#262529"/>
<path transform="translate(1675,261)" d="m0 0h10l3 3v9l-2 3h-9l1 5h-4v-18z" fill="#FDFDFD"/>
<path transform="translate(1772,222)" d="m0 0h6l4 4v9l-3 3h-7v5l-2 1-2-1v-11l1-8z" fill="#FDFDFD"/>
<path transform="translate(454,909)" d="m0 0h7l5 3 1 2v7l-8 10-5 5h14l-1 3h-19l1-4 11-11 3-6v-4h-15l2-4z" fill="#212024"/>
<path transform="translate(652,834)" d="m0 0h4l1 2v41h-5z" fill="#1E1D1F"/>
<path transform="translate(506,909)" d="m0 0h7l4 2 2 4v6l-12 14 13 1-1 3h-19l2-5 10-10 2-3v-6l-3-2-11 1 1-3z" fill="#222024"/>
<path transform="translate(334,909)" d="m0 0h7l5 3 1 2v7l-8 10-4 4 13 1-1 3h-18l-1-2 14-16 1-5-1-2-6-1-7 1 1-4z" fill="#232225"/>
<path transform="translate(179,846)" d="m0 0h4l2 3 5-3h7v4l-10 1-2 5-1 21h-5z" fill="#2D2D36"/>
<path transform="translate(626,846)" d="m0 0h9l5 4 3 8v7l-3 8-5 4-7 1-1-4 6-2 3-3 1-3v-10l-2-4-4-2h-9z" fill="#1E1C20"/>
<path transform="translate(455,603)" d="m0 0h11l4 2v9l-3 3h-12l-1-6z" fill="#FDFDFD"/>
<path transform="translate(1788,260)" d="m0 0 7 1 3 4v8l-4 4h-6l-4-3-1-7 3-6z" fill="#FDFDFD"/>
<path transform="translate(1790,222)" d="m0 0h6l3 3 1 9-3 4h-9l-3-5 1-7z" fill="#FDFDFD"/>
<path transform="translate(1709,260)" d="m0 0 6 2 2 7-2 6-3 2-7-1-3-4v-7l3-4z" fill="#FDFDFD"/>
<path transform="translate(1603,100)" d="m0 0h4l2 4-16 11 5 5 13 9-1 2-5-1-15-11-5 2-3-1 2-4 17-12 3-2z" fill="#262529"/>
<path transform="translate(1608,257)" d="m0 0 3 1 1 2 8 1 2 2 1 11 5-1 1-11h3l1 12-2 2-9 1-3-4-1-10h-7l1 11h5v2h-7l-2-3z" fill="#FDFDFD"/>
<path transform="translate(1713,1301)" d="m0 0h20l2 3v11h-4v-11h-4l-1 11-5-1 1-10-5 1v10h-4z" fill="#222124"/>
<path transform="translate(515,634)" d="m0 0h13l-1 7-5 5-7 1-5-5 1-5z" fill="#FDFDFD"/>
<path transform="translate(1700,1300)" d="m0 0 6 1 3 4-1 7-3 3h-7l-4-5v-6l3-3z" fill="#212023"/>
<path transform="translate(236,634)" d="m0 0h12l1 4-3 6-5 3-7-1-2-1-1-6z" fill="#FDFDFD"/>
<path transform="translate(592,846)" d="m0 0h8l5 5 1 3v23h-5l-1-24-1-2-9-1v-3z" fill="#201F22"/>
<path transform="translate(626,634)" d="m0 0h12v6l-5 6-7 1-4-2-1-6 2-4z" fill="#FDFDFD"/>
<path transform="translate(375,634)" d="m0 0h12l1 5-6 7-7 1-5-5 1-5z" fill="#FDFDFD"/>
<path transform="translate(1739,1372)" d="m0 0h7l2 1v15l-3 3h-7v-2l7-2h-3l-5-3-1-2v-6z" fill="#2C2B2D"/>
<path transform="translate(257,919)" d="m0 0 5 2 2 2v10l-5 4-5-2-2-2v-11z" fill="#FDFDFD"/>
<path transform="translate(349,704)" d="m0 0h12l1 1v48l-3 4-1-51-8 1z" fill="#34343B"/>
<path transform="translate(562,846)" d="m0 0h3l2 3 3-1v2l2 1-4 3-1 4-1 19-5-1v-29z" fill="#29282E"/>
<path transform="translate(1866,1330)" d="m0 0h2v18l-3 2-7-1-2-3v-7l4-4h5z" fill="#1E1C1F"/>
<path transform="translate(1746,222)" d="m0 0 6 1h3l5-1 3 2 1 3v11h-4v-13l-5 2-1 10-3 1-1-12h-5l-1 11-3 1-1-3 1-12z" fill="#FDFDFD"/>
<path transform="translate(320,861)" d="m0 0 6 1-1 7-6 5h-6l-4-4v-5l4-3z" fill="#FDFDFD"/>
<path transform="translate(785,846)" d="m0 0h8l5 4 1 2v25h-4l-1-23-4-4h-8l1-3z" fill="#1E1C20"/>
<path transform="translate(1663,222)" d="m0 0h7l3 1 2 4v10l-1 1h-10l-3-3 1-5 4-2h5v-3h-8z" fill="#FDFDFD"/>
<path transform="translate(1820,261)" d="m0 0h9l3 3v12l-4 1h-7l-3-5 1-4 8-2 1-3h-8z" fill="#FDFDFD"/>
<path transform="translate(1654,260)" d="m0 0 6 2 2 6-1 2h-7l-3-1v4h10l-1 3-2 1h-6l-5-5v-6l3-5z" fill="#FDFDFD"/>
<path transform="translate(1910,1335)" d="m0 0h6l3 4v7l-4 4-6-1-3-5 1-6z" fill="#28282C"/>
<path transform="translate(724,846)" d="m0 0h5v31h-5z" fill="#313036"/>
<path transform="translate(1698,1372)" d="m0 0h6l3 4v7l-5 4-6-2-2-4 1-7z" fill="#262529"/>
<path transform="translate(260,846)" d="m0 0 5 1v30h-5z" fill="#302F35"/>
<path transform="translate(1802,223)" d="m0 0h3l2 10 2-1 1-9 5 1v8l2-1 3-8h2l-1 8-2 7-4-1-3-6-3 7-4-1-3-11z" fill="#FDFDFD"/>
<path transform="translate(529,209)" d="m0 0 3 1v5h-7l-1 17h-5v-22z" fill="#141215"/>
<path transform="translate(225,846)" d="m0 0h4v31l-5-1v-29z" fill="#34343A"/>
<path transform="translate(1811,1335)" d="m0 0 7 1 2 3v7l-4 4-6-1-2-2v-9z" fill="#29282B"/>
<path transform="translate(1772,1335)" d="m0 0h6l3 4v7l-4 4h-5l-3-4-1-6z" fill="#272629"/>
<path transform="translate(277,255)" d="m0 0h4l-1 7-4 14-2 2-4-1-3-8 1-4 5 1 3-10z" fill="#2F2F37"/>
<path transform="translate(329,209)" d="m0 0 6 1 3 3 1 3v10l-3 5-1 1h-8l1-4 5-1v-9l-2-3-4-2h2v-2l-2-1z" fill="#19181B"/>
<path transform="translate(1720,1333)" d="m0 0h6l3 4v6l-4 5-6-1-2-3v-8z" fill="#FDFDFD"/>
<path transform="translate(1696,104)" d="m0 0h8l4 6-3 3-6 1-3 2h-6v-3-5l3-1v-2z" fill="#3C3C3E"/>
<path transform="translate(382,910)" d="m0 0 3 1v6h8l-1 3h-7l1 15 6 1v3h-7l-3-1-1-18-3-1v-2l3-1z" fill="#2C2C31"/>
<path transform="translate(1832,1295)" d="m0 0h4l1 9 4-3 4-1-2 4-3 1 2 5 4 3v2l-6-1-3-4-1 5h-4l-1-19z" fill="#242326"/>
<path transform="translate(167,916)" d="m0 0 9 1 1 3h-9l-4 4v8l4 4 9-1v3l-5 2-9-2-4-6 1-10 5-5z" fill="#212023"/>
<path transform="translate(157,849)" d="m0 0 6 1 4 6v3h-19l1-5 5-4z" fill="#FDFDFD"/>
<path transform="translate(374,849)" d="m0 0 6 1 4 4 1 5h-19l2-6z" fill="#FDFDFD"/>
<path transform="translate(282,916)" d="m0 0 7 1 4 6 1 5-1 1-17-1 2-2h12l-4-6-6 1-4 5v9h-2l-1-2v-9l3-5z" fill="#232225"/>
<path transform="translate(679,849)" d="m0 0 7 2 3 5v3h-19l2-6 4-3z" fill="#FDFDFD"/>
<path transform="translate(551,1128)" d="m0 0h7l2 1v12l-2 2h-7l-1-5v-9z" fill="#343438"/>
<path transform="translate(127,718)" d="m0 0 2 2 5 15v2h-13l2-9z" fill="#FDFDFD"/>
<path transform="translate(500,255)" d="m0 0 5 1 3 4v18h-5l-1-4v-15l-4-1-2-2z" fill="#1E1C1F"/>
<path transform="translate(286,255)" d="m0 0 5 1v22h-5l-1-1v-21z" fill="#222124"/>
<path transform="translate(1830,222)" d="m0 0h7l3 4v6l-4-2-1-5h-3l-1 3 4 1-1 3h-4l1 3h6l3-1-1 4h-10l-3-3v-8z" fill="#EAEAEA"/>
<path transform="translate(471,209)" d="m0 0 4 1 1 8v14h-8l2-1v-3l-2 2v-2l-4-1 5-1 1-16z" fill="#333339"/>
<path transform="translate(808,701)" d="m0 0h12v11h-12l-1-10z" fill="#3C3C3E"/>
<path transform="translate(551,701)" d="m0 0h12v11h-12z" fill="#3B3B3E"/>
<path transform="translate(1820,139)" d="m0 0 3 1-2 7-4 3h-8l-7-5v-1l5-1v-2h8z" fill="#32323B"/>
<path transform="translate(268,701)" d="m0 0h7l1 1v9l-1 1h-11l-1-1v-9z" fill="#3D3D3F"/>
<path transform="translate(1799,1300)" d="m0 0 5 1 5-1 3 4v11h-4l-1-11h-4l-1 11h-4v-14z" fill="#212024"/>
<path transform="translate(1734,260)" d="m0 0 7 1 2 3v5l-4 1-5-1v-2h5v-3l-3-1-2 1v9h9l-2 4h-7l-5-5v-6l3-5z" fill="#FDFDFD"/>
<path transform="translate(1678,1296)" d="m0 0h18l-1 3h-5v15l-5 1-1-15-6-2z" fill="#222125"/>
<path transform="translate(372,1241)" d="m0 0h7l1 1v13l-7 1-2-6v-8z" fill="#363639"/>
<path transform="translate(498,209)" d="m0 0 3 1 1 17 6 1-2 1 1 3h-8l-2-3-1-6v-10z" fill="#222126"/>
<path transform="translate(423,1128)" d="m0 0h5l2 2 1 6-2 5-2 2-5-1-2-9z" fill="#2B2A2D"/>
<path transform="translate(1791,1300)" d="m0 0 3 3-1 12h-12l-1-3v-11h4v10h5l1-10z" fill="#252427"/>
<path transform="translate(742,738)" d="m0 0h6l2 3-3 6-3 2h-6l-3-3 1-5 2-2z" fill="#FDFDFD"/>
<path transform="translate(1727,222)" d="m0 0h7l3 3v6h-9v-2l5-1v-3l-5 1-1 9h10l-1 3h-10l-3-4v-7z" fill="#FDFDFD"/>
<path transform="translate(125,1213)" d="m0 0 5 1v12l-3 3h-5v-2l3-1h-3l-1-2v-9z" fill="#363639"/>
<path transform="translate(1283,1461)" d="m0 0h6l1 1v11l-3 3h-4l-2-5v-8z" fill="#2A292D"/>
<path transform="translate(368,1127)" d="m0 0h2l-1 4h6l3 4-1 7-2 1h-6l-2-2z" fill="#2C2B2F"/>
<path transform="translate(1532,379)" d="m0 0 8 1 37 8 9 2 26 6v1h-7l-30-7-40-9z" fill="#3D3D3F"/>
<path transform="translate(540,209)" d="m0 0 7 1 4 4 1 8-3 1-5-1-1-3h4l-3-5h-4l-1 3-4-1-1 4 1-7z" fill="#1D1B1F"/>
<path transform="translate(232,916)" d="m0 0 5 1 3 3 1 3v16h-4l-1-18h-9v5h-1l-1-6z" fill="#29292C"/>
<path transform="translate(434,255)" d="m0 0 5 1v21l-5 1-1-1v-21z" fill="#1E1C1F"/>
<path transform="translate(1719,1331)" d="m0 0h8l4 4v10l-5 5h-6l-5-5-1-8 3-5zm1 2-3 3v8l4 4 5-1 3-4v-6l-3-4z" fill="#212024"/>
<path transform="translate(585,1127)" d="m0 0h1v14l-1 2h-7l-2-4v-5l2-3h6z" fill="#2F2E31"/>
<path transform="translate(251,255)" d="m0 0h5l3 9 1 10 2 1-1 3-5-1-5-18z" fill="#1E1C20"/>
<path transform="translate(683,1180)" d="m0 0h2v5h7l1 1v8l-2 2h-7l-1-3z" fill="#2C2C2F"/>
<path transform="translate(428,1180)" d="m0 0 2 1v14l-1 1h-7l-2-3v-6l1-2h7z" fill="#2C2C30"/>
<path transform="translate(705,1131)" d="m0 0h5l3 4-1 7-7 3h-3l1-12z" fill="#302F33"/>
<path transform="translate(284,846)" d="m0 0h11l4 3v2l-11-1-6 4-2 4-1 8h-1l-1-11-1-3 5-5z" fill="#1C1A1E"/>
<path transform="translate(1820,1300)" d="m0 0 7 1-1 4-4-2-2 1 8 4-1 6-1 1h-9l-1-4 8 1v-2l-6-2-2-1 1-5z" fill="#232125"/>
<path transform="translate(1849,113)" d="m0 0 5 1 4 4v4h-16l1-5z" fill="#34343B"/>
<path transform="translate(240,1185)" d="m0 0h9v11l-2 3h-7v-2l6-1 1-2h-8v-8z" fill="#29292C"/>
<path transform="translate(1620,222)" d="m0 0h8l3 5v11h-4v-13h-5l-1 2-1 11-3-1v-12z" fill="#FDFDFD"/>
<path transform="translate(257,1127)" d="m0 0h1l1 5v10l-2 1h-6l-2-5 1-5 2-2h5z" fill="#323135"/>
<path transform="translate(328,256)" d="m0 0 4 1 1 2v19h-5l-1-20z" fill="#1D1C20"/>
<path transform="translate(1541,222)" d="m0 0h9l3 5v10h-4v-12h-6v12l-3 1-1-3v-11z" fill="#FDFDFD"/>
<path transform="translate(763,1127)" d="m0 0h1v15l-1 1h-6l-3-4 2-7 6-2z" fill="#313134"/>
<path transform="translate(1590,261)" d="m0 0 3 1v7l1 4h5l1-12 3 1v14l-9 1-4-2-1-9z" fill="#FDFDFD"/>
<path transform="translate(1683,222)" d="m0 0h6l3 3 1 5v7l-4 1v-10l-1-2h-5l-1 12-3-1v-13z" fill="#FDFDFD"/>
<path transform="translate(138,1180)" d="m0 0h1v15l-1 1h-7l-2-5 1-5 1-1h6z" fill="#2C2C2F"/>
<path transform="translate(310,916)" d="m0 0 3 1-1 3-7 1-1 1-1 17h-4v-22h7z" fill="#27262A"/>
<path transform="translate(1848,260)" d="m0 0 6 1-1 3-7-1v4l8 1 1 6-3 3h-7l-2-1v-3h8v-2l-8-3v-5z" fill="#FDFDFD"/>
<path transform="translate(290,1241)" d="m0 0h6l2 3-1 7-2 2h-5l-2-2v-9z" fill="#2F2E32"/>
<path transform="translate(199,1131)" d="m0 0h6l2 2v8l-2 2-5 1-2 2v-13z" fill="#2A292C"/>
<path transform="translate(1803,261)" d="m0 0h9l3 4v11h-4v-10l-1-2h-4l-1 12-4-1 1-13z" fill="#FDFDFD"/>
<path transform="translate(1765,260)" d="m0 0 7 1-1 3-7-1v4l7 1 2 2-1 5-3 2h-7l-1-4h8l1-2-8-2-1-1v-5z" fill="#FDFDFD"/>
<path transform="translate(1866,222)" d="m0 0h7l3 3 1 4v9l-4-1v-12h-5l-1 1-1 12h-3v-13z" fill="#FDFDFD"/>
<path transform="translate(254,1213)" d="m0 0h5l2 2v8l-2 2h-6l-2-3 1-7z" fill="#2C2B2E"/>
<path transform="translate(300,1180)" d="m0 0 2 4 6 1 1 2v7l-2 2h-7l-1-4z" fill="#2C2B2F"/>
<path transform="translate(250,834)" d="m0 0h5v4l-8 1-2 8h-3v3h-5v-4h4v-7l4-4z" fill="#2E2D33"/>
<path transform="translate(377,260)" d="m0 0h5l2 2v8l-3 3-5-1-1-1v-9z" fill="#FDFDFD"/>
<path transform="translate(125,238)" d="m0 0h10l3 2v2h-3l-1 2h-3v3h12v1h-20l4-1-2-5-2-1z" fill="#3C3C3E"/>
<path transform="translate(1699,1331)" d="m0 0h11v2h-9l1 5 8 1v2h-9l1 5 9 1-1 3h-8l-3-1z" fill="#252429"/>
<path transform="translate(763,1184)" d="m0 0 7 2v8l-2 2h-5l-1 3-2-1 1-13z" fill="#262528"/>
<path transform="translate(179,846)" d="m0 0 4 1h-3l1 12h1l1-8 2 4-1 22h-5z" fill="#38383D"/>
<path transform="translate(253,224)" d="m0 0 3 2 10 1h2l3-1-1 4-6 3-9-1-4-2-1-3z" fill="#1D1C1F"/>
<path transform="translate(1685,102)" d="m0 0h18v2l-10 1v2l-2 1v5l1 2-7 1z" fill="#2F2F38"/>
<path transform="translate(142,916)" d="m0 0 8 1 4 5 1 7h-9l-8-1v-1h14v-4h-2l-3-3-6 1-2 2h-3l-1 2 1-5z" fill="#201E21"/>
<path transform="translate(450,260)" d="m0 0h5l2 2v10l-1 1h-5l-3-5 1-7z" fill="#FDFDFD"/>
<path transform="translate(419,214)" d="m0 0h5l3 4v3l2 2h-12l-1 3-2-2-1-5 2-3z" fill="#303036"/>
<path transform="translate(216,1180)" d="m0 0h1v15l-1 1h-7l-1-2v-7l1-2 6-1z" fill="#313138"/>
<path transform="translate(1750,260)" d="m0 0h5l2 3h-8l2 4 7 2v5l-4 3h-6l-2-1v-3l5 1 3-1 1-3h-6l-3-2 1-6z" fill="#FDFDFD"/>
<path transform="translate(179,1241)" d="m0 0h6l1 1v9l-2 2h-6l-1-2v-7z" fill="#2C2B2E"/>
<path transform="translate(1559,222)" d="m0 0h7l1 3h-8l3 3 6 3v5l-2 2h-9l-1-4 9 1-2-3-7-3 2-6z" fill="#FDFDFD"/>
<path transform="translate(248,1241)" d="m0 0h6l2 2-1 9-6 1-3-4 1-7z" fill="#2E2D31"/>
<path transform="translate(240,1131)" d="m0 0 5 1 2 3-1 6-2 2-6-1-1-1v-7z" fill="#302F33"/>
<path transform="translate(271,1131)" d="m0 0h5l3 5-2 6-1 1h-5l-2-2v-7z" fill="#2C2B2E"/>
<path transform="translate(261,214)" d="m0 0 6 1 4 2 2 5-1 6-1-2-5 3-1-3 1-4-5-2-2-5z" fill="#2A2A30"/>
<path transform="translate(144,1185)" d="m0 0h7l1 2v6l-2 3h-6l-2-4 1-6z" fill="#2E2D30"/>
<path transform="translate(1858,1295)" d="m0 0 4 1v18l-4 1-1-1v-16z" fill="#39393C"/>
<path transform="translate(1749,263)" d="m0 0 11 1 2 4 8 3-1 3h-6v-2h-3l-1 2-2-5-7-2z" fill="#1C1B1E"/>
<path transform="translate(319,258)" d="m0 0 3 1v2h-2v16l-5 1v-19z" fill="#19171B"/>
<path transform="translate(1249,1461)" d="m0 0h6l2 6-2 5-3 1-5-3v-6z" fill="#2E2D30"/>
<path transform="translate(724,1131)" d="m0 0h5l2 2v9l-1 1h-6l-2-3 1-8z" fill="#2F2E31"/>
<path transform="translate(673,1131)" d="m0 0h5l2 3v6l-3 3h-5l-1-2v-7z" fill="#302F32"/>
<path transform="translate(671,868)" d="m0 0 4 4 3 1h7l8-1-2 4-7 2h-7l-6-3-1-6z" fill="#222125"/>
<path transform="translate(457,248)" d="m0 0 2 1 1 2 1 4v6l-2 7-2 3-1-9-6-2 2-1v-3l-4-1h9z" fill="#303038"/>
<path transform="translate(328,214)" d="m0 0 4 1 2 3-1 9-4 1-3-2v-11z" fill="#FDFDFD"/>
<path transform="translate(1688,1330)" d="m0 0 6 1v3l-6-1-4 3v9l4 2 7-1-1 3-2 1h-6l-5-4-1-2v-8l4-5z" fill="#262528"/>
<path transform="translate(178,1269)" d="m0 0h7l1 1v8l-1 2h-7l-1-2v-7z" fill="#2D2D30"/>
<path transform="translate(383,1131)" d="m0 0h5l2 3-1 8-1 1h-5l-2-2v-7z" fill="#2E2D31"/>
<path transform="translate(366,913)" d="m0 0h1v15l-1 1h-10l7-12z" fill="#FDFDFD"/>
<path transform="translate(107,1129)" d="m0 0 5 2 1 5-3 5-6-1-1-2v-6z" fill="#FDFDFD"/>
<path transform="translate(219,916)" d="m0 0 4 1 3 4 1 17-5 1v-16l-3-3h-4l-1-3z" fill="#222125"/>
<path transform="translate(1832,224)" d="m0 0 4 1 2 6 2 1v-5l3-2v13l-2-4-4 2h-6l-1-4 4-1v-2l-3-1z" fill="#212023"/>
<path transform="translate(1603,100)" d="m0 0h4l2 4-16 11v2h-3v-2l-3-1 17-12z" fill="#303036"/>
<path transform="translate(213,1131)" d="m0 0h5l1 1v10l-1 1h-6l-1-1v-9z" fill="#2C2B2E"/>
<path transform="translate(1296,1461)" d="m0 0h5l2 4v6l-2 2-5-1-2-2v-7z" fill="#2C2B2F"/>
<path transform="translate(344,1269)" d="m0 0h6l2 5-2 5-1 1h-5l-2-2v-7z" fill="#2E2D30"/>
<path transform="translate(127,1269)" d="m0 0h7l1 1v7l-1 3h-6l-2-2z" fill="#262528"/>
<path transform="translate(774,1185)" d="m0 0h7l2 3-1 7-1 1h-6l-1-1z" fill="#28272A"/>
<path transform="translate(338,1131)" d="m0 0h5l1 1v10l-1 1h-6l-1-2v-8z" fill="#2F2F33"/>
<path transform="translate(299,1129)" d="m0 0 6 2 1 1v6l-3 3-5-1-1-1v-8z" fill="#FDFDFD"/>
<path transform="translate(141,1241)" d="m0 0h7l4 1 1 10 3-1 1-9h2v10l-1 1h-7l-1-10h-9v8l5-1h3l-3 3h-5l-2-2v-8z" fill="#2C2C2F"/>
<path transform="translate(175,1181)" d="m0 0 1 4h14l1 1v10h-8v-3l-2 2 1-4 4-4-1 8 3-1v-7h-11l1 10-3-1-1-11z" fill="#2C2B2E"/>
<path transform="translate(420,260)" d="m0 0h4v18h-5v-17z" fill="#1D1B1F"/>
<path transform="translate(1876,1335)" d="m0 0 7 1 1 7-2 1-5-1 1-3 3 1v-3l-5 1-1 6 5 2h3l-1 3h-6l-4-4v-7z" fill="#2D2C30"/>
<path transform="translate(749,1185)" d="m0 0h6l2 4-2 7-7-1-1-6z" fill="#2C2B2F"/>
<path transform="translate(462,1185)" d="m0 0h7l1 3-1 8h-7l-1-1v-8z" fill="#2D2D30"/>
<path transform="translate(539,909)" d="m0 0h3v20h-2l-1-15-7 10h-3l2-5 7-9z" fill="#242327"/>
<path transform="translate(539,913)" d="m0 0 1 3-1 13h-10l2-5z" fill="#FDFDFD"/>
<path transform="translate(342,837)" d="m0 0 4 1v8h6v1h-6v2h-4v15h-1v-14l-4-2 4-2v-7z" fill="#333338"/>
<path transform="translate(1756,1372)" d="m0 0h6l3 3v5l-8-1 1-2 4 1v-4l-5 1-1 7 3 2h6l-3 3-7-1-3-5 2-7z" fill="#2C2B2E"/>
<path transform="translate(521,1184)" d="m0 0 4 1 2 3-1 7-1 1h-6l-1-1v-8z" fill="#262428"/>
<path transform="translate(365,910)" d="m0 0 2 1-2 5-9 14h9l-1 2h-11l1-5 7-12z" fill="#232224"/>
<path transform="translate(1813,120)" d="m0 0h2v2h2v7l-2 2-7-1-3-3v-6h1v5l5-5z" fill="#3C3C3E"/>
<path transform="translate(1686,1367)" d="m0 0h5v3h-6l-1 5h7l-1 3-6-1v9h-3v-18z" fill="#353439"/>
<path transform="translate(1758,1330)" d="m0 0 6 1 2 4-4-2-6 1-2 3v7l3 3 9-1-4 4-7-1-4-4-1-7 3-5z" fill="#29282B"/>
<path transform="translate(292,1269)" d="m0 0h6l1 1v10h-8l-1-4z" fill="#2B2A2D"/>
<path transform="translate(1722,1372)" d="m0 0h8l2 2 1 9-2 3h-9l-2-5 3-4h5l-3 3h-2v4l6-1v-8l-7-1z" fill="#242326"/>
<path transform="translate(640,1185)" d="m0 0h7l1 1v8l-1 2h-7l-1-5 1-5z" fill="#2A292D"/>
<path transform="translate(356,1185)" d="m0 0h6l1 3-1 7-1 1h-6l-1-2v-7z" fill="#2C2B2E"/>
<path transform="translate(282,1185)" d="m0 0h7l-1 11-7-1-1-1v-6z" fill="#2C2C2F"/>
<path transform="translate(104,1128)" d="m0 0h8l3 4-1 8-3 3h-6l-4-4v-8zm3 1-4 3v6l3 3 5-1 2-4-1-5z" fill="#37373C"/>
<path transform="translate(541,259)" d="m0 0 5 1 2 2v3l-2 1 3 2-10 1-2 1v-8z" fill="#2E2E34"/>
<path transform="translate(1583,255)" d="m0 0h5l1 2-6 1v2l4 1v2h-4l1 12h-4l-1-15h2v-4z" fill="#FDFDFD"/>
<path transform="translate(217,1213)" d="m0 0h6l2 3v8l-1 1h-8v-7l7-1v-2h-7z" fill="#656568"/>
<path transform="translate(1622,224)" d="m0 0 5 1 1 2v9l-7 2v-13z" fill="#1D1C1F"/>
<path transform="translate(1768,1301)" d="m0 0h11l-1 3h-6v10l-4 1-1-1v-12z" fill="#2A292E"/>
<path transform="translate(673,1184)" d="m0 0 6 2v10h-7l-1-1 1-10z" fill="#29282C"/>
<path transform="translate(1866,1295)" d="m0 0h4l1 19-5 1z" fill="#28272C"/>
<path transform="translate(315,1213)" d="m0 0h6l2 2 1 9-1 1h-8l-1-4 2-3 4-1 1-2h-6z" fill="#666669"/>
<path transform="translate(344,856)" d="m0 0 2 2 1 11 1 3 8 1v4h-8l-5-2 1-7z" fill="#1D1C1F"/>
<path transform="translate(1792,224)" d="m0 0 4 2 1 2v6l-6 2-3-3 1-7z" fill="#32323A"/>
<path transform="translate(1723,255)" d="m0 0h5l1 2-5 1-1 2 4 1-3 3-1 12h-3v-18z" fill="#FDFDFD"/>
<path transform="translate(1578,224)" d="m0 0 4 1 1 2v7l-2 2-5-1-1-1v-7z" fill="#313138"/>
<path transform="translate(555,1185)" d="m0 0h6l1 5-1 6h-6l-1-1v-9z" fill="#27272B"/>
<path transform="translate(296,1128)" d="m0 0h8l4 4v6l-5 5-7-1-1-1v-10zm3 1-2 2v8l2 2 6-1 1-2v-6l-5-3z" fill="#333336"/>
<path transform="translate(1823,1336)" d="m0 0h3l1 10 4 1h2l1-11h2v11l-3 3h-7l-2-2-1-5z" fill="#2C2B2E"/>
<path transform="translate(535,1184)" d="m0 0 3 2v9l-7 1-1-4 1-7z" fill="#6F6E71"/>
<path transform="translate(248,908)" d="m0 0 4 1-1 10 5-2 1 3-4 2-1 10h-1l-1-6h-2z" fill="#242226"/>
<path transform="translate(1773,114)" d="m0 0 8 1 3 3v5l-5-4h-7l-2 4-2 3v-8z" fill="#33333B"/>
<path transform="translate(1788,263)" d="m0 0h5l2 3-1 7-1 1h-5l-1-1v-8z" fill="#2E2E35"/>
<path transform="translate(1679,263)" d="m0 0 5 1 1 1v8l-1 1h-5l-2-2v-6z" fill="#2E2E36"/>
<path transform="translate(1716,114)" d="m0 0 7 1 3 3v5l-3-4h-7l-3 1-2 9h-2v-7l3-6z" fill="#33333B"/>
<path transform="translate(1627,86)" d="m0 0 4 1-5 5-13 9-3-3z" fill="#211F23"/>
<path transform="translate(1795,1331)" d="m0 0h10v2h-8l1 5h6v3h-5l-1 5-1 4h-2z" fill="#2F2F33"/>
<path transform="translate(566,1131)" d="m0 0h5l2 3v7l-2 2h-6l-1-1 1-7 6 1v-3h-5z" fill="#6E6D70"/>
<path transform="translate(1703,224)" d="m0 0 4 2v8l-5 2-3-3 1-7z" fill="#2D2D33"/>
<path transform="translate(1820,124)" d="m0 0 2 2-1 5-4 4h-6l-5-5 1-3 5 3 4-1 3-1z" fill="#34343B"/>
<path transform="translate(191,919)" d="m0 0 5 1 3 3-1 4h-10l-2-1 1-5z" fill="#FDFDFD"/>
<path transform="translate(1708,263)" d="m0 0h4l1 2v7l-2 2-5-1-1-1v-6z" fill="#2F2F36"/>
<path transform="translate(1884,225)" d="m0 0h6l1 1v9l-4 1-3-2-1-6z" fill="#2F2E36"/>
<path transform="translate(1861,1337)" d="m0 0 4 1 1 1v7l-2 2-5-1-1-2v-6z" fill="#FDFDFD"/>
<path transform="translate(1737,109)" d="m0 0h2v33h-2l-2-3h-5l3-6 2 3 2-5v-18l-1-2z" fill="#3C3C3E"/>
<path transform="translate(1812,1337)" d="m0 0 5 1 1 7-3 3-5-2v-7z" fill="#FDFDFD"/>
<path transform="translate(282,919)" d="m0 0 5 1 3 4v2l-13 1v-4z" fill="#FDFDFD"/>
<path transform="translate(143,919)" d="m0 0 6 1 2 3v3h-13l1-4z" fill="#FDFDFD"/>
<path transform="translate(541,634)" d="m0 0h1v21l-3 1h-10v-2h8l1-5 2-6z" fill="#31313A"/>
<path transform="translate(1615,262)" d="m0 0h3v11h-6l-1-1v-9z" fill="#2D2C32"/>
<path transform="translate(277,255)" d="m0 0h4l-1 7-3 11-2 1-1-12z" fill="#1D1B1F"/>
<path transform="translate(1729,224)" d="m0 0 5 1-1 4h-5v2h7v4l-1 1-7-1-1-3 2-7z" fill="#2B2B2E"/>
<path transform="translate(351,213)" d="m0 0 5 3-1 5 5 1v1h-12l-1 3v-10z" fill="#33333A"/>
<path transform="translate(304,209)" d="m0 0h7l4 3v5h-3v-3h-12v-3z" fill="#1D1C1F"/>
<path transform="translate(1740,1374)" d="m0 0h5l1 1v7l-1 2h-5l-2-2v-6z" fill="#FDFDFD"/>
<path transform="translate(1773,1337)" d="m0 0 5 1 1 6-3 4-4-1-2-6z" fill="#FDFDFD"/>
<path transform="translate(1845,1335)" d="m0 0 6 2 1 11-3 1-1-11-5-1v12h-3v-13z" fill="#29282B"/>
<path transform="translate(392,202)" d="m0 0 4 1-2 7-2-3v18l2-2v9h-4v-29z" fill="#161417"/>
<path transform="translate(458,221)" d="m0 0 4 1v5l7 1 3-2-2 5-2 1h-8l-2-3z" fill="#161417"/>
<path transform="translate(1911,1337)" d="m0 0 5 1 1 7-3 3-4-1-1-2v-6z" fill="#FDFDFD"/>
<path transform="translate(260,1265)" d="m0 0h2v13l4-1v-5l-3-3h5l1 8-2 3h-7l-1-3v-10z" fill="#2C2B2E"/>
<path transform="translate(101,1181)" d="m0 0 3 1v7l1 4 5 1 1-13h2v11l-1 3-7 1-3-2-1-3z" fill="#302F33"/>
<path transform="translate(227,848)" d="m0 0h2v25l-2 2-1-8v-18z" fill="#3B3B3E"/>
<path transform="translate(1698,1374)" d="m0 0h5l2 3-1 6-5 1-3-5z" fill="#FDFDFD"/>
<path transform="translate(166,1127)" d="m0 0 3 3-1 12-8 1-2-1v-13l5 2-1 2-3-1 2 8 5 1z" fill="#2E2E31"/>
<path transform="translate(262,633)" d="m0 0h1v23h-13v-2l8-1 3-7z" fill="#32323A"/>
<path transform="translate(1767,262)" d="m0 0 4 1v2l5-2v12l-4-5-8-3v-4z" fill="#1A191C"/>
<path transform="translate(1773,225)" d="m0 0h5l1 1v8l-2 2-4-1-1-1v-8z" fill="#2B2A31"/>
<path transform="translate(105,1210)" d="m0 0h5l1 2-7 1v2l7 2 1 4-2 4h-9v-2h8v-5l-7-1-1-5z" fill="#343438"/>
<path transform="translate(296,872)" d="m0 0h3l-1 4-6 2-9-1-3-3 7-1z" fill="#1F1E21"/>
<path transform="translate(207,846)" d="m0 0h8l3 1v3h-11v13h-1l-1-9h-1v-7z" fill="#38383C"/>
<path transform="translate(1736,262)" d="m0 0 4 2-1 4-5-1v2h6l2 2-1 3h-7l-1-1v-9z" fill="#29282C"/>
<path transform="translate(420,1269)" d="m0 0h8v12l-1 2-7 1v-2l5-2 1-9-5 1 1 5 2 2-5-1v-8z" fill="#302F34"/>
<path transform="translate(777,1131)" d="m0 0h5l2 3v6l-3 3-3-1 3-3 1-6h-5v12l-3 1v-8l1-6z" fill="#2E2E31"/>
<path transform="translate(398,908)" d="m0 0 3 1-1 9h-2l1 5v13l-2 3v-30z" fill="#323236"/>
<path transform="translate(617,847)" d="m0 0h2l1 5h1l1 18-2 1-2-4-1-10z" fill="#18171A"/>
<path transform="translate(481,596)" d="m0 0 3 1 3 6v10l-3 5-3 1v-2l2-1 1-8-1-7h-2v-3l-2-1z" fill="#32323B"/>
<path transform="translate(484,202)" d="m0 0 4 1-2 8h-2l-1 5-4-1v-5l3-1v-6z" fill="#2A2A30"/>
<path transform="translate(412,918)" d="m0 0h2l1 3 1 18h-4l-1-18-1-2z" fill="#201F22"/>
<path transform="translate(652,834)" d="m0 0 4 1-2 1 1 2v9h-2v30h-1z" fill="#38383D"/>
<path transform="translate(435,725)" d="m0 0h2l-1 9v13l-3-1-1-3v-12z" fill="#32323A"/>
<path transform="translate(903,716)" d="m0 0h8l5 3 4 5-1 4-4-3v-2h-2v-3l-9-1z" fill="#32323A"/>
<path transform="translate(1639,225)" d="m0 0h5l1 1v8l-1 1h-5l-1-1v-8z" fill="#27262D"/>
<path transform="translate(1753,130)" d="m0 0 4 2v5h2l1 7-3 2-2-1-2-5z" fill="#3D3D3F"/>
<path transform="translate(1727,1301)" d="m0 0h6l2 3v11h-4v-11l-7-1z" fill="#211F22"/>
<path transform="translate(822,1185)" d="m0 0h8v12l-2 2h-6v-2l5-2v-8h-4l1 8-4-3 1-6z" fill="#2F2E32"/>
<path transform="translate(705,856)" d="m0 0h1l1 12 2 4 9 1-1 4h-7l-5-2z" fill="#1C1B1E"/>
<path transform="translate(1545,224)" d="m0 0 4 1 1 2v9l-6 1v-12z" fill="#1A191B"/>
<path transform="translate(474,1128)" d="m0 0 2 2v9l5 2 1-13h2v8l-2 7h-6l-3-4v-10z" fill="#2F2F33"/>
<path transform="translate(535,226)" d="m0 0h3l8 1 3-1 1 5-2 1h-10l-3-3z" fill="#1A181B"/>
<path transform="translate(1598,223)" d="m0 0h10v2l-6 1-1 11-4 1z" fill="#FDFDFD"/>
<path transform="translate(1799,1300)" d="m0 0 4 2-1 13h-4v-14z" fill="#313033"/>
<path transform="translate(102,1238)" d="m0 0h9v2h-7l1 10 6 1-1 2h-8l-1-1z" fill="#2E2D30"/>
<path transform="translate(702,851)" d="m0 0 1 3h2l1 20h-3l-1-7z" fill="#31313A"/>
<path transform="translate(444,650)" d="m0 0 1 2h10l9 2v1h-25l2-4z" fill="#30303A"/>
<path transform="translate(1836,256)" d="m0 0h3l1 20-4-1z" fill="#FDFDFD"/>
<path transform="translate(1683,225)" d="m0 0h5l2 3v7l-2-4-2 3h-2l-2 4v-12z" fill="#2C2C30"/>
<path transform="translate(1532,217)" d="m0 0 3 1v19l-2 1-2-1z" fill="#FDFDFD"/>
<path transform="translate(618,870)" d="m0 0 2 4 1 4v10l-5 1 1-14z" fill="#1C1B1D"/>
<path transform="translate(775,853)" d="m0 0 4 1-1 22h-3v-8h2l-2-5z" fill="#131114"/>
<path transform="translate(300,271)" d="m0 0h3v2l7-1v5l-2 1h-7l-2-1v-5z" fill="#1F1D21"/>
<path transform="translate(1702,112)" d="m0 0h3l-4 16-3-4-1-3-1-6h2l1-2z" fill="#33333B"/>
<path transform="translate(316,1266)" d="m0 0h2v3h8l1 6-1 4-3-1 1-7-6-1 2 8 1 2-4-1-1-2z" fill="#2D2C2F"/>
<path transform="translate(410,1215)" d="m0 0h1v10h-8v-7l6-1z" fill="#727174"/>
<path transform="translate(828,1128)" d="m0 0h1v14l-1 1h-6l-2-2v-12l3 1v12l3-1z" fill="#2D2C2F"/>
<path transform="translate(459,834)" d="m0 0h6v4l-9 1v4h-4v-6l2-2z" fill="#2B2A30"/>
<path transform="translate(406,720)" d="m0 0 4 2 4 6 1 4v9l-2 2-1-5-1-9-5-6z" fill="#33333B"/>
<path transform="translate(1791,1300)" d="m0 0 3 3-1 12-6-1-3-3h5l1-10z" fill="#1E1C1F"/>
<path transform="translate(617,1127)" d="m0 0h2v4h5l2 2v9h-2l-1-8-4-2v11h-2z" fill="#303033"/>
<path transform="translate(483,643)" d="m0 0 2 1v2h2l-2 4-6 4h-6l5-5 3-1z" fill="#32323A"/>
<path transform="translate(510,222)" d="m0 0h3 1v10h-7l-1-5 2-1z" fill="#2C2C35"/>
<path transform="translate(102,1265)" d="m0 0h9l-2 2h-4v10l6 1-1 2h-8l-1-3z" fill="#333337"/>
<path transform="translate(1693,261)" d="m0 0h8l-1 2-4 2-1 11h-3v-14z" fill="#FDFDFD"/>
<path transform="translate(1638,261)" d="m0 0h8v2h-5l-1 13h-3v-14z" fill="#FDFDFD"/>
<path transform="translate(1850,222)" d="m0 0 4 2-6 2-2 12-3-1 1-14z" fill="#FDFDFD"/>
<path transform="translate(373,1243)" d="m0 0h5v10l-5 1-1-10z" fill="#EFEFEF"/>
<path transform="translate(493,1213)" d="m0 0 5 1 1 4-2 2h-3v-2l3-3-4 1-1 7h7l-1 2h-7l-2-4 1-5z" fill="#2E2E31"/>
<path transform="translate(423,1130)" d="m0 0h5l1 6-2 5-4-1-1-7z" fill="#FDFDFD"/>
<path transform="translate(434,1128)" d="m0 0h7l2 2-1 5-5 6 6-1v3h-9l1-4 5-6 1-3h-7z" fill="#2D2C30"/>
<path transform="translate(618,867)" d="m0 0 3 3 2-1 5 6v2l-4-1-3-3-3 2-1 11h-1v-14z" fill="#31313A"/>
<path transform="translate(500,221)" d="m0 0 2 4v2l6 1-2 1 1 3h-8l-2-3v-5h2z" fill="#181619"/>
<path transform="translate(267,1180)" d="m0 0h2v5l3-1 4 2v9l-3-1v-7l-4-1v9l-4-1h2z" fill="#2B2A2E"/>
<path transform="translate(314,1131)" d="m0 0h5l1 4-3 3v-3l1-2h-4v8l6-1v3h-6l-3-3v-6z" fill="#2F2E31"/>
<path transform="translate(532,1131)" d="m0 0 7 1 1 2v8l-1 1h-8v-7h5l-2 2v3h3v-7l-5-1z" fill="#2F2F33"/>
<path transform="translate(1678,1296)" d="m0 0h18l-1 3h-5v5h-1v-5h-10z" fill="#2C2C31"/>
<path transform="translate(329,1213)" d="m0 0h6l2 5v6l-3 1v-10l-4 1v9l-3-1v-8z" fill="#2C2B2E"/>
<path transform="translate(408,1128)" d="m0 0h8l1 1v5l-6 7h6l-1 2h-8l1-4 5-5v-4h-7z" fill="#2C2B2E"/>
<path transform="translate(1745,225)" d="m0 0h5v13l-3-1 1-8h-2v7h-2v-10z" fill="#161418"/>
<path transform="translate(1590,216)" d="m0 0h2l1 9v12l-3 1z" fill="#FDFDFD"/>
<path transform="translate(1793,110)" d="m0 0h1l1 23 2 6 1 2 4 2-3 1-4-2h-2z" fill="#3D3D3F"/>
<path transform="translate(1713,1301)" d="m0 0h7l-1 2h-2v12h-4z" fill="#1B1A1D"/>
<path transform="translate(127,1241)" d="m0 0h6l2 2-1 10h-5l3-3v-6l-4-1 1 7-2 2-1-1z" fill="#29282B"/>
<path transform="translate(191,1213)" d="m0 0h5l2 2 1 9-3 1v-10l-4 1v9l-3-1v-8z" fill="#2A292B"/>
<path transform="translate(395,1185)" d="m0 0h7l1 1 1 8-1 2-4-1h2v-8l-4-1 1 7v3h-3z" fill="#28272A"/>
<path transform="translate(631,1131)" d="m0 0h5l2 2v9l-1 1h-7v-6l3-2v3l-2 3h5l-1-7-5-1z" fill="#303033"/>
<path transform="translate(797,1131)" d="m0 0h6l2 5-1 7h-7l-2-3 2-4h3l-2 6 4-2v-7h-5z" fill="#2B2A2E"/>
<path transform="translate(133,1131)" d="m0 0h5l2 2-1 6h-2v-6l-3 1-1 7h5v2h-5l-3-5 1-5z" fill="#302F33"/>
<path transform="translate(1271,1461)" d="m0 0 5 1 1 1v8l-5 2-4-2 1-5 3-1-1 6 3-1v-6l-3-1z" fill="#2F2F32"/>
<path transform="translate(1849,1301)" d="m0 0h4v13l-4 1-1-2z" fill="#1F1D20"/>
<path transform="translate(304,1269)" d="m0 0h7l2 3v7l-3 1v-8h-4v7h-3v-8z" fill="#2C2B2D"/>
<path transform="translate(439,1213)" d="m0 0 6 1v5l-5 1v-2l4-1v-2l-5 1v7h6v2h-8l-1-2 1-9z" fill="#313033"/>
<path transform="translate(846,1131)" d="m0 0 6 1 1 2v7l-2 2h-6l-1-5 1-2h3l-2 4h4v-7h-5z" fill="#2E2E31"/>
<path transform="translate(591,1131)" d="m0 0h5l2 2v9l-1 1h-7v-8l3 1-1 6 3-1 1-8h-5z" fill="#2A292D"/>
<path transform="translate(298,221)" d="m0 0h2v7h2l1-2 7 2-2 4h-7l-3-4z" fill="#1B191D"/>
<path transform="translate(371,1269)" d="m0 0 7 1-1 10-4-1 2-2 1-6h-3l-2 9-2-1v-8z" fill="#2B2A2D"/>
<path transform="translate(505,1213)" d="m0 0h5l2 3v9h-2l-1-9-4-1v10h-2v-10z" fill="#303033"/>
<path transform="translate(448,1180)" d="m0 0 2 4h5l2 3v8l-3-1v-7l-4-1-1 9-3-1h2z" fill="#272629"/>
<path transform="translate(279,917)" d="m0 0 2 1 1 2-5 4-1 6v5h-2l-1-2v-9l3-5z" fill="#201F22"/>
<path transform="translate(1701,1303)" d="m0 0 4 2v6l-5 1-2-2v-5z" fill="#FDFDFD"/>
<path transform="translate(407,1269)" d="m0 0h8l1 9-3 2 1-9h-6v9h-2v-10z" fill="#353539"/>
<path transform="translate(660,1184)" d="m0 0 6 1 1 1v9h-2l-1-8-4-1v10h-2v-11z" fill="#2E2D31"/>
<path transform="translate(500,1131)" d="m0 0h5l2 3 1 7-1 2h-8l-1-3 2-4h3l-1 3-1 2 4-1-1-6-4-1z" fill="#2D2C2E"/>
<path transform="translate(370,1132)" d="m0 0 4 1 3 5-5 4-3-3z" fill="#FDFDFD"/>
<path transform="translate(512,1131)" d="m0 0 7 1 1 1v10h-2l-1-9-3-1-1 9-2 1v-11z" fill="#2B2A2D"/>
<path transform="translate(621,716)" d="m0 0h7l6 3 1 6-4-2v-2l-10-2z" fill="#32323A"/>
<path transform="translate(316,254)" d="m0 0 1 2 2-1h11l-2 1-1 4h-5l-3-1h-3z" fill="#31313A"/>
<path transform="translate(1820,139)" d="m0 0 2 1-2 3-12 3-3 1-3-3 5-1v-2h8z" fill="#3C3C3E"/>
<path transform="translate(1926,1330)" d="m0 0h3v2l-4 1v3h2v2h-2v11h-2l-1-15z" fill="#2C2C30"/>
<path transform="translate(323,1241)" d="m0 0h6l1 4-2 3h-2l2-6-3 1-1 7v2l5-2v3h-6l-2-2v-7z" fill="#2A292D"/>
<path transform="translate(744,1131)" d="m0 0h5l2 2v9l-1 1h-6l-1-4 3-2v4h4l-1-8-4 1-2 4-1-3z" fill="#303033"/>
<path transform="translate(578,1133)" d="m0 0h6v8l-4 1-2-2z" fill="#FDFDFD"/>
<path transform="translate(651,645)" d="m0 0h1l1 11h-14v-2h9v-3h2z" fill="#33333B"/>
<path transform="translate(449,201)" d="m0 0h6l2 4-5 1-6 2v-5z" fill="#212023"/>
<path transform="translate(261,1241)" d="m0 0h6l2 3v7h-3l1-8h-5v10l-3-1 1-10z" fill="#2C2B2E"/>
<path transform="translate(719,1185)" d="m0 0 4 1 2 5 2 1 1-7h2l-2 8-4 7-3-1 2-2-1-6z" fill="#2A292C"/>
<path transform="translate(936,1131)" d="m0 0h6l2 4v7h-2l-1-8-3-1-1 10h-2v-11z" fill="#333336"/>
<path transform="translate(231,1127)" d="m0 0h1l1 15h-2v-9l-5 1v8h-3l1-10 1-1h5z" fill="#2B2A2D"/>
<path transform="translate(181,1131)" d="m0 0h5l2 2-1 5-2-4-4-1v8h6v2h-6l-2-3v-7z" fill="#2F2E31"/>
<path transform="translate(244,852)" d="m0 0h1v25h-3v-14h1z" fill="#131114"/>
<path transform="translate(1768,127)" d="m0 0 2 3 1 2 11-1-1 4-2 1h-7l-4-4z" fill="#33333B"/>
<path transform="translate(1283,1463)" d="m0 0h5v7l-2 3h-3l-1-8z" fill="#FDFDFD"/>
<path transform="translate(150,1269)" d="m0 0h2l1 9h4v-8l3 1-2 9h-7l-1-1z" fill="#2B2A2E"/>
<path transform="translate(272,1213)" d="m0 0 2 2-1 9-1 1h-7l-1-1v-10h2l1 9h3l1-9z" fill="#2B2A2E"/>
<path transform="translate(473,1213)" d="m0 0 7 2v10h-2l-1-10-4 1v9l-3-1 1-10z" fill="#2C2B2E"/>
<path transform="translate(485,1185)" d="m0 0h9v10l-2 1v-10l-4 1-1 9h-2z" fill="#29292D"/>
<path transform="translate(706,1132)" d="m0 0 5 2v5l-3 3h-3v-9z" fill="#FDFDFD"/>
<path transform="translate(254,1132)" d="m0 0 3 1v7l-4 2-2-2 1-7z" fill="#FDFDFD"/>
<path transform="translate(551,1128)" d="m0 0h7l2 1v3h-2v-2h-6v4h6v1h-6v7h-2v-13z" fill="#28272A"/>
<path transform="translate(486,207)" d="m0 0 2 2 5 1-1 5-5 1-4-2 1-3h2z" fill="#343437"/>
<path transform="translate(190,1241)" d="m0 0h8l1 11h-3l1-9h-5v9l-2 1z" fill="#29282A"/>
<path transform="translate(115,1241)" d="m0 0h2l1 4h2l1-4h2l-1 7 2 5h-2l-3-4-2 3h-2l1-7z" fill="#2D2D30"/>
<path transform="translate(312,1185)" d="m0 0h2l1 10 3-2 1-8h2v10l-1 1h-7z" fill="#28272B"/>
<path transform="translate(412,1184)" d="m0 0 4 2 1 8-3 2v-8l-5-2v10h-2v-11z" fill="#28272A"/>
<path transform="translate(226,1185)" d="m0 0h9l1 10h-2l-1-8h-4v8h-3z" fill="#28272A"/>
<path transform="translate(685,1186)" d="m0 0h5l1 1v6l-2 2h-3z" fill="#FDFDFD"/>
<path transform="translate(349,1131)" d="m0 0 8 1v9h-3l1-8h-4l-1 9h-3l1-10z" fill="#2C2C2F"/>
<path transform="translate(250,923)" d="m0 0h1l2 13h-2v3h-3v-13h2z" fill="#18161A"/>
<path transform="translate(583,859)" d="m0 0h2l1 4v14l-4-1 2-1-1-2z" fill="#31313A"/>
<path transform="translate(250,834)" d="m0 0h5v4l-10 1-2 2-1-3 3-3z" fill="#36363B"/>
<path transform="translate(347,641)" d="m0 0h1v14h-13v-1h9l2-12z" fill="#30303A"/>
<path transform="translate(176,223)" d="m0 0 4 2v2l4 2 2 2-1 4-5-3-1-4h-2z" fill="#3D3D3F"/>
<path transform="translate(444,209)" d="m0 0 5 1-4 1v2l2 1v12l-2 2-1-12-2-1 1-5z" fill="#1F1E22"/>
<path transform="translate(359,1241)" d="m0 0h7l1 2v9h-2v-9h-5l1 9h-3v-10z" fill="#28272B"/>
<path transform="translate(254,1215)" d="m0 0h5v7l-4 2-2-2z" fill="#FDFDFD"/>
<path transform="translate(1583,263)" d="m0 0h7l-1 10-3-6-1 6h-2z" fill="#201F21"/>
<path transform="translate(1834,1296)" d="m0 0h1l1 19h-4v-14h1z" fill="#181619"/>
<path transform="translate(273,1269)" d="m0 0h5v3l-1-2-2 1-1 7h2l1-5h2v6l-1 1h-6v-10z" fill="#302F34"/>
<path transform="translate(328,1269)" d="m0 0 4 1 1 6 2-1 2-6h2l-3 10h-4z" fill="#2B2A2D"/>
<path transform="translate(344,1240)" d="m0 0 6 1-3 2v8l2-6h1v7l-5 1-1-1z" fill="#333236"/>
<path transform="translate(132,1186)" d="m0 0h5v7l-4 2-2-4z" fill="#FDFDFD"/>
<path transform="translate(760,1132)" d="m0 0h2v9h-5l-1-5 1-3z" fill="#FDFDFD"/>
<path transform="translate(161,1240)" d="m0 0h6l1 3h-3v7l3-3v5l-4 1-2-3v-7l1-2z" fill="#2C2C2F"/>
<path transform="translate(424,1186)" d="m0 0h4v7l-5 1-1-1v-6z" fill="#FDFDFD"/>
<path transform="translate(662,1131)" d="m0 0h5l1 2-6 1v7l6-1-1 3h-6l-2-3v-6z" fill="#363639"/>
<path transform="translate(810,1131)" d="m0 0h6v2l-5 1v6h5v3h-6l-2-2v-7z" fill="#2D2C2F"/>
<path transform="translate(271,1133)" d="m0 0h5l1 1v5l-2 2h-4z" fill="#FDFDFD"/>
<path transform="translate(685,1131)" d="m0 0h5l3 2v7l-3 3v-10l-4 1v8l-2 1v-11z" fill="#262529"/>
<path transform="translate(775,846)" d="m0 0 3 1 2 2 4 2-5 5v-2l-4-1z" fill="#2E2E33"/>
<path transform="translate(190,846)" d="m0 0h7v4l-12 2v-3z" fill="#2A292F"/>
<path transform="translate(1610,223)" d="m0 0h2l1 3v11l-4 1z" fill="#FDFDFD"/>
<path transform="translate(529,209)" d="m0 0 3 1v5h-7l-1 2v-5l-1-2z" fill="#302F35"/>
<path transform="translate(1719,1331)" d="m0 0 6 1v1l-7 1v11h-3l-1-8 3-5z" fill="#2B2A2C"/>
<path transform="translate(246,1269)" d="m0 0h2l1 8h4v-8h2v10l-1 1h-6l-2-3z" fill="#27262A"/>
<path transform="translate(290,1243)" d="m0 0h6l-1 7-3 2-2-2z" fill="#FDFDFD"/>
<path transform="translate(346,1214)" d="m0 0 2 1-1 9-5-1v-7z" fill="#FDFDFD"/>
<path transform="translate(763,1186)" d="m0 0 5 1v6l-5 2-1-7z" fill="#FDFDFD"/>
<path transform="translate(145,1186)" d="m0 0 4 1 1 1v6l-4 1-2-2z" fill="#E6E6E6"/>
<path transform="translate(240,1133)" d="m0 0 5 1v5l-2 2-4-1-1-3z" fill="#FDFDFD"/>
<path transform="translate(385,1132)" d="m0 0 3 2 1 5-3 3-3-1v-8z" fill="#eee"/>
<path transform="translate(201,1132)" d="m0 0 4 2v7l-4 1-1-1v-8z" fill="#FDFDFD"/>
<path transform="translate(1744,264)" d="m0 0 5 5 6 1-1 4-4 1-2-1v-2h-2v-3h-2z" fill="#1F1E22"/>
<path transform="translate(261,263)" d="m0 0 2 3 1 7-2 3-3-2-1-6z" fill="#2F2F36"/>
<path transform="translate(1765,227)" d="m0 0h3l1 12-2 2-3-1z" fill="#141316"/>
<path transform="translate(178,1213)" d="m0 0 6 1 1 2v9h-8l-1-4 1 2h5v-7l-4-1z" fill="#2A292D"/>
<path transform="translate(777,1133)" d="m0 0h5v6l-5 4-1-3z" fill="#FDFDFD"/>
<path transform="translate(1777,261)" d="m0 0h2l1 4v11l-4-1z" fill="#FDFDFD"/>
<path transform="translate(1756,225)" d="m0 0h4l1 2v9h-2l-1-6-2-1v6h-1v-9z" fill="#1E1D20"/>
<path transform="translate(1249,1463)" d="m0 0h5l1 1v5l-4 2-2-2z" fill="#FDFDFD"/>
<path transform="translate(1682,1337)" d="m0 0h1l1 8 4 2 7-1-1 3-2 1h-6l-5-4z" fill="#2C2B2E"/>
<path transform="translate(1892,1335)" d="m0 0 5 1v1h-6v11l-3 1 1-13z" fill="#2A292C"/>
<path transform="translate(313,1239)" d="m0 0 5 2 1 2-4-1v9l3 1-4 1-1-1-1-12z" fill="#2C2B2E"/>
<path transform="translate(123,1215)" d="m0 0h5l-1 9-4-1z" fill="#FDFDFD"/>
<path transform="translate(378,1185)" d="m0 0h6l-4 2v8h3l-1-6h2l1 6-3 2-5-1v-9z" fill="#272629"/>
<path transform="translate(259,1181)" d="m0 0h2l1 3 4 1-1 2-4-1 1 8 3 2h-5l-1-1z" fill="#323235"/>
<path transform="translate(211,1186)" d="m0 0h4v8l-4 1-1-2v-6z" fill="#FDFDFD"/>
<path transform="translate(809,1185)" d="m0 0h7l1 1v9h-2v-9l-4 1-1 8-2 1v-10z" fill="#29282C"/>
<path transform="translate(870,1129)" d="m0 0 4 2v2h-3l2 7 2 3-5-1-1-2v-10z" fill="#38383C"/>
<path transform="translate(901,1127)" d="m0 0h2l-1 8 3-1 4 7v2l-3-1-3-4-1 4h-2z" fill="#29292B"/>
<path transform="translate(1799,224)" d="m0 0h3l2 5v7l-4-1z" fill="#1A191C"/>
<path transform="translate(1608,130)" d="m0 0 6 1 5 4v3l-5-1-7-5z" fill="#2E2E35"/>
<path transform="translate(1712,1372)" d="m0 0h7v2l-5 1-1 11h-2v-13z" fill="#2A292B"/>
<path transform="translate(179,1243)" d="m0 0h5v7l-4 2-1-1z" fill="#FDFDFD"/>
<path transform="translate(302,1186)" d="m0 0 5 1v6l-1 1h-5z" fill="#FDFDFD"/>
<path transform="translate(242,1186)" d="m0 0 5 1v6h-5l-2-5z" fill="#FDFDFD"/>
<path transform="translate(125,1131)" d="m0 0h2l-2 10-5 1-2-6v-4h2l1 7 2-2z" fill="#2F2F33"/>
<path transform="translate(152,935)" d="m0 0h2l-1 3-5 2-8-1v-3h9z" fill="#212023"/>
<path transform="translate(306,221)" d="m0 0 4 1v5l-1 1h-5l-1-4z" fill="#FDFDFD"/>
<path transform="translate(473,215)" d="m0 0 3 3v14h-1l-1-7h-2v-9z" fill="#36363C"/>
<path transform="translate(445,204)" d="m0 0 1 4 4-2 1 4h3l-1 3h-8v-4z" fill="#323239"/>
<path transform="translate(279,202)" d="m0 0h3l-1 5-1 3h-2l-1 3-1-2v-7z" fill="#1E1C20"/>
<path transform="translate(1239,1457)" d="m0 0h5v2h-5v4l5 1v1l-5 1-1 6h-2l1-14z" fill="#29282B"/>
<path transform="translate(1910,1335)" d="m0 0h6l-2 2-4 2v8h-3l-1-6 3-5z" fill="#333338"/>
<path transform="translate(164,1266)" d="m0 0 5 5h-4l1 6 2 1v2l-5-1-1-7 1-5z" fill="#2C2C2F"/>
<path transform="translate(190,1269)" d="m0 0h8l1 10-2 1-1-9h-4v8l-2 1z" fill="#262528"/>
<path transform="translate(249,1243)" d="m0 0h5v6l-3 3-2-1z" fill="#FDFDFD"/>
<path transform="translate(776,1186)" d="m0 0 4 1 1 5-4 3-2-4z" fill="#FDFDFD"/>
<path transform="translate(300,922)" d="m0 0 2 4v13h-3v-10z" fill="#1C1B1D"/>
<path transform="translate(540,910)" d="m0 0h2v19h-2l-1-18z" fill="#131114"/>
<path transform="translate(260,846)" d="m0 0h4v19h-1l-1-7h-1z" fill="#171518"/>
<path transform="translate(1826,268)" d="m0 0h3l-1 6h-6l-1-4z" fill="#2F2F35"/>
<path transform="translate(489,255)" d="m0 0h11l-1 3 3 2-6 1-1 5h-1l-1-10z" fill="#35353A"/>
<path transform="translate(542,213)" d="m0 0 4 2 1 4h-9l2-5z" fill="#FDFDFD"/>
<path transform="translate(1832,1295)" d="m0 0h4l1 14-2 2-1-5h-1l-2-10z" fill="#35353A"/>
<path transform="translate(345,1270)" d="m0 0 4 2 1 5-5 1-1-1z" fill="#FDFDFD"/>
<path transform="translate(125,1213)" d="m0 0 4 1v9h-1v-8h-5l1 10-3-1v-9z" fill="#252427"/>
<path transform="translate(185,1187)" d="m0 0 1 4-1 4 3-1 2-5h1v7h-8v-3l-2 2 1-4z" fill="#242327"/>
<path transform="translate(499,1185)" d="m0 0h7l-1 2-5 1 1 5 2 1 3-1-1 3h-5l-3-5 1-5z" fill="#2B2B2E"/>
<path transform="translate(326,1131)" d="m0 0h5l1 2-6 1 1 6 2 1 3-1-1 3h-5l-3-5 1-5z" fill="#2B2B2E"/>
<path transform="translate(725,1133)" d="m0 0 5 1-1 4 1 3-4 1-2-6z" fill="#FDFDFD"/>
<path transform="translate(357,924)" d="m0 0 1 3-2 3h9l-1 2h-11l1-5z" fill="#222125"/>
<path transform="translate(675,636)" d="m0 0h1v19h-13v-3l12 2z" fill="#2E2E38"/>
<path transform="translate(1539,384)" d="m0 0h9v2l11 1 1 2-11-1-9-2z" fill="#1E1D21"/>
<path transform="translate(1856,223)" d="m0 0h2v15h-3v-12z" fill="#FDFDFD"/>
<path transform="translate(1601,123)" d="m0 0 4 2 6 4-1 2-5-1-5-4z" fill="#28272D"/>
<path transform="translate(1745,1382)" d="m0 0 3 2-1 5-2 2h-7v-2l7-2-4-3h4z" fill="#2F2E33"/>
<path transform="translate(1682,1375)" d="m0 0h9l-1 3-6-1v9h-2z" fill="#313137"/>
<path transform="translate(1834,1336)" d="m0 0h2v11l-1 2h-7l3-2h2z" fill="#252426"/>
<path transform="translate(1751,1342)" d="m0 0h2l4 5 9-1-4 4-7-1-4-4z" fill="#252427"/>
<path transform="translate(1858,1295)" d="m0 0h3v16h-3z" fill="#2D2C35"/>
<path transform="translate(170,1213)" d="m0 0 3 1v1h-5v8h5v2h-7l-1-2v-7z" fill="#2F2F32"/>
<path transform="translate(515,1211)" d="m0 0 5 2 1 2h-3v7l4 3h-5l-2-4z" fill="#313134"/>
<path transform="translate(155,1209)" d="m0 0 1 2-1 14h-3v-13z" fill="#272628"/>
<path transform="translate(673,1133)" d="m0 0 5 1v5l-4 3-1-1z" fill="#FDFDFD"/>
<path transform="translate(1651,269)" d="m0 0h8l1 5h-7l-2-1z" fill="#222124"/>
<path transform="translate(1798,263)" d="m0 0h3v13l-2-2-3 2z" fill="#19181B"/>
<path transform="translate(1820,1300)" d="m0 0 7 1-1 4-4-2-4 3h-2l1-4z" fill="#232225"/>
<path transform="translate(179,1271)" d="m0 0h5v7l-4 1-1-1z" fill="#FDFDFD"/>
<path transform="translate(262,1270)" d="m0 0 4 1 1 1v5l-5 1z" fill="#FDFDFD"/>
<path transform="translate(282,1266)" d="m0 0h2l4 5h-4l1 7h2v2l-4-1-1-9z" fill="#29282C"/>
<path transform="translate(338,1133)" d="m0 0h5v8h-4l-1-1z" fill="#FDFDFD"/>
<path transform="translate(284,1127)" d="m0 0 3 1-2 5-1 10-2-1v-12z" fill="#2A292C"/>
<path transform="translate(281,847)" d="m0 0 4 1-5 4-1 14h-1l-1-11-1-3z" fill="#19171A"/>
<path transform="translate(541,259)" d="m0 0 5 1 1 4h-9l2-4z" fill="#FDFDFD"/>
<path transform="translate(1669,230)" d="m0 0 3 1-1 4-5 1-2-2v-3z" fill="#212023"/>
<path transform="translate(471,209)" d="m0 0 4 1v7l-2-1-1 9h-1z" fill="#161417"/>
<path transform="translate(1595,108)" d="m0 0 2 1-2 5-2 2-3 1v-2l-3-1z" fill="#333239"/>
<path transform="translate(1297,1462)" d="m0 0 3 1 1 8h-4l-1-2v-6z" fill="#FDFDFD"/>
<path transform="translate(1860,1335)" d="m0 0h5l1 4-5-1-2 1-2 7h-1v-7z" fill="#2F2E32"/>
<path transform="translate(140,1269)" d="m0 0h7l-1 2-5 1 1 5 5 1-1 2h-5l-2-3v-6z" fill="#28272B"/>
<path transform="translate(272,1239)" d="m0 0h3l1 3h-2l1 8 2 3h-4l-1-3z" fill="#2C2B2F"/>
<path transform="translate(297,1215)" d="m0 0 1 2 6 2 1 4-1 2h-8l1-2h6l-1-2-6-3z" fill="#2C2B2E"/>
<path transform="translate(202,1211)" d="m0 0 3 1-1 11h4v2h-5l-1-3z" fill="#2C2B2F"/>
<path transform="translate(440,1182)" d="m0 0 1 2 4 1-2 1-2-1 1 8 3 2-4 1-2-4v-9z" fill="#2B2A2E"/>
<path transform="translate(215,1132)" d="m0 0 3 3v4 2l-4 1-1-1v-7z" fill="#FDFDFD"/>
<path transform="translate(1806,267)" d="m0 0 1 4h2l2-4 1 7h-2l-1 2h-3z" fill="#141215"/>
<path transform="translate(1693,226)" d="m0 0h3l2 12-3-2-2 1z" fill="#1A191C"/>
<path transform="translate(419,214)" d="m0 0h5l2 5h-9l1-4z" fill="#FDFDFD"/>
<path transform="translate(1694,1304)" d="m0 0 4 1 2 7-3 2-3-4z" fill="#303036"/>
<path transform="translate(631,1181)" d="m0 0 5 4-1 2-2-1 3 10h-3l-2-5z" fill="#2B2A2D"/>
<path transform="translate(642,1186)" d="m0 0h3l1 7-1 2-4-1z" fill="#FDFDFD"/>
<path transform="translate(464,1186)" d="m0 0 4 1-1 8-4-1v-7z" fill="#FDFDFD"/>
<path transform="translate(794,1181)" d="m0 0 4 4-2 1 1 9 2 1h-4l-1-3z" fill="#2C2B2F"/>
<path transform="translate(714,1181)" d="m0 0 2 1v9l2 5-4-1-1-5v-7z" fill="#2C2B2E"/>
<path transform="translate(452,1128)" d="m0 0 3 1 1 11-1 2h-2v-11h-2z" fill="#29282B"/>
<path transform="translate(284,846)" d="m0 0 3 1-1 2 2 1-6 4-3 4v-6z" fill="#303036"/>
<path transform="translate(649,614)" d="m0 0h2l2 4v13h-1l-3-13z" fill="#32323B"/>
<path transform="translate(285,247)" d="m0 0h6v5l-5 1-1-1z" fill="#242226"/>
<path transform="translate(486,227)" d="m0 0h8l-2 5h-8v-2h2z" fill="#19181B"/>
<path transform="translate(351,213)" d="m0 0 5 3-1 3h-7l1-4z" fill="#FDFDFD"/>
<path transform="translate(1618,92)" d="m0 0 2 1-1 4-7 4-2-3z" fill="#222125"/>
<path transform="translate(1796,1338)" d="m0 0h8v3h-5l-1 5v3h-2z" fill="#262527"/>
<path transform="translate(1721,1331)" d="m0 0h6l4 4v8h-2l-2-8-2-2z" fill="#1B191C"/>
<path transform="translate(361,1266)" d="m0 0 4 4-2 1 2 7 1 2-4-1-1-1z" fill="#28272A"/>
<path transform="translate(130,1270)" d="m0 0h2l1 8-3 1-2-2v-5z" fill="#FDFDFD"/>
<path transform="translate(372,1241)" d="m0 0h7l1 1v10h-1l-1-8h-5l-1 5h-1v-7z" fill="#2B2A2F"/>
<path transform="translate(243,1213)" d="m0 0 5 1v1l-5 1v6l5 1v2h-6l-2-4 1-6z" fill="#2B2A2D"/>
<path transform="translate(752,1186)" d="m0 0 3 3-1 5h-4v-7z" fill="#FDFDFD"/>
<path transform="translate(557,1186)" d="m0 0 3 1v7l-4 1v-8z" fill="#FDFDFD"/>
<path transform="translate(734,1129)" d="m0 0 4 2-1 2v6l2 4-4-1-1-4z" fill="#28272A"/>
<path transform="translate(203,837)" d="m0 0 4 1v8l-4-1z" fill="#27262B"/>
<path transform="translate(864,720)" d="m0 0 4 2 3 4v3l-4-1v-3l-4-2z" fill="#32323A"/>
<path transform="translate(1806,263)" d="m0 0 5 1 1 6-2-1-1 2h-2z" fill="#28272D"/>
<path transform="translate(1718,263)" d="m0 0h1l1 7-1 6h-3l-1-2 2-10z" fill="#19171A"/>
<path transform="translate(1835,262)" d="m0 0h1v11l-3 1-1-11z" fill="#131114"/>
<path transform="translate(474,259)" d="m0 0 5 1 1 4h-8l1-4z" fill="#FDFDFD"/>
<path transform="translate(1696,1380)" d="m0 0 3 3h4l2-2 1 3-4 3-6-2-1-3z" fill="#2A292C"/>
<path transform="translate(673,1186)" d="m0 0h3l1 7-1 2h-3z" fill="#FDFDFD"/>
<path transform="translate(521,1186)" d="m0 0h3l1 7-1 2h-3l-1-8z" fill="#FDFDFD"/>
<path transform="translate(879,1131)" d="m0 0h5l2 7-2 5h-5l4-3-1-7-4-1z" fill="#2B2A2E"/>
<path transform="translate(425,934)" d="m0 0h3l-1 6-2 4-3-1z" fill="#252427"/>
<path transform="translate(384,931)" d="m0 0 2 4 6 1v3h-7l-2-1z" fill="#232225"/>
<path transform="translate(1780,265)" d="m0 0h3l2 11-4-1-1-3z" fill="#181619"/>
<path transform="translate(434,247)" d="m0 0 5 1-1 5-5-1z" fill="#252427"/>
<path transform="translate(1733,231)" d="m0 0 3 1-2 4-7-1 1-3z" fill="#1A191C"/>
<path transform="translate(267,222)" d="m0 0h6l-1 6-1-2-5 3-1-3z" fill="#313038"/>
<path transform="translate(1581,118)" d="m0 0h2l-1 5-6 4-3-1 2-1 2-4z" fill="#2A292F"/>
<path transform="translate(109,1218)" d="m0 0 3 1-2 6h-9v-2h8z" fill="#2B2A2D"/>
<path transform="translate(428,1180)" d="m0 0 2 1v14h-3z" fill="#272628"/>
<path transform="translate(603,1131)" d="m0 0h6v2h-5v9h-2v-10z" fill="#36363A"/>
<path transform="translate(343,854)" d="m0 0h1l1 19h-3v-9z" fill="#35353B"/>
<path transform="translate(204,847)" d="m0 0h2v2l4-1 1 2h-4v13h-1l-1-9h-1z" fill="#30303A"/>
<path transform="translate(396,613)" d="m0 0 4 1 2 4v9l-2-1-1-9-3-2z" fill="#32323B"/>
<path transform="translate(1739,269)" d="m0 0 3 2-1 3h-7v-4z" fill="#1C1A1E"/>
<path transform="translate(1612,264)" d="m0 0 2 4h4v5h-6z" fill="#131114"/>
<path transform="translate(489,256)" d="m0 0h4l1 2v9h-1v-6h-2v6h-1z" fill="#131114"/>
<path transform="translate(1842,225)" d="m0 0h1v13l-2-4h-3v-2h2v-5z" fill="#232228"/>
<path transform="translate(1700,1347)" d="m0 0h11l-1 3h-8l-2-1z" fill="#2C2B2D"/>
<path transform="translate(1683,1298)" d="m0 0 6 1v8l-3 1v-8l-3-1z" fill="#18161A"/>
<path transform="translate(420,1269)" d="m0 0h8l-2 2-5 1 1 5 2 2-5-1v-8z" fill="#38383B"/>
<path transform="translate(294,1271)" d="m0 0h3v7l-4 1v-7z" fill="#FDFDFD"/>
<path transform="translate(741,1184)" d="m0 0 4 1-2 2-1 8h-3l1-10z" fill="#303033"/>
<path transform="translate(185,1186)" d="m0 0 4 1v7l-4 1z" fill="#FDFDFD"/>
<path transform="translate(166,1127)" d="m0 0 3 3-1 12h-2z" fill="#2D2C30"/>
<path transform="translate(763,1127)" d="m0 0h1v15l-3-1 1-9-2-1 2-1z" fill="#232125"/>
<path transform="translate(454,866)" d="m0 0h1v11h-4v-10h1l1 5z" fill="#131114"/>
<path transform="translate(565,848)" d="m0 0h3 2v2l2 1-4 3-2 4-1-7z" fill="#35343A"/>
<path transform="translate(203,845)" d="m0 0 4 1-3 1v7l-2-3-3-1v-4z" fill="#1F1E21"/>
<path transform="translate(710,846)" d="m0 0h8v3h-11v-2z" fill="#211F22"/>
<path transform="translate(453,836)" d="m0 0 7 1-4 2v4h-4v-6z" fill="#1F1E20"/>
<path transform="translate(1741,1372)" d="m0 0 7 1v11l-2-1-1-8z" fill="#18171A"/>
<path transform="translate(1722,1372)" d="m0 0h8l2 4-1 7h-1l-1-8-7-1z" fill="#2D2D30"/>
<path transform="translate(1857,1345)" d="m0 0h2v2h5l4-1-1 3-7 1-3-2z" fill="#262528"/>
<path transform="translate(1752,1307)" d="m0 0h7l1 2-1 2h-7z" fill="#FDFDFD"/>
<path transform="translate(392,1266)" d="m0 0h2l1 4v9l2 1-4-1-1-3z" fill="#2C2B2E"/>
<path transform="translate(362,1213)" d="m0 0 4 2h-4v9h-3l1-10z" fill="#323236"/>
<path transform="translate(289,1211)" d="m0 0 3 1v8l1 3 2 2h-5z" fill="#252427"/>
<path transform="translate(704,1136)" d="m0 0h1v6l5-3 2-1v4l-7 3h-3z" fill="#262529"/>
<path transform="translate(474,1128)" d="m0 0 2 2v9l1 3-3-1-1-2v-10z" fill="#28272B"/>
<path transform="translate(342,837)" d="m0 0 4 1v7l-2 1-2-2-1-5z" fill="#28272D"/>
<path transform="translate(726,834)" d="m0 0 3 1v6h-5v-6z" fill="#28272B"/>
<path transform="translate(336,608)" d="m0 0h5l3 5 1 6-4-5-3-3v-2z" fill="#32323A"/>
<path transform="translate(1846,263)" d="m0 0h7l1 4h-8z" fill="#232227"/>
<path transform="translate(1261,1461)" d="m0 0h6l-4 3-1 8-2-1v-8z" fill="#353538"/>
<path transform="translate(281,1241)" d="m0 0h4v2h-3l1 2v7l-4 1 1-2v-9z" fill="#333337"/>
<path transform="translate(327,1184)" d="m0 0 5 1v2h-4l-1 9-3-1 1-9z" fill="#28272A"/>
<path transform="translate(101,1181)" d="m0 0 3 1v11l-2 1-1-3z" fill="#3B3B3E"/>
<path transform="translate(553,1136)" d="m0 0h5l-1 5h-5z" fill="#FDFDFD"/>
<path transform="translate(144,1131)" d="m0 0h5l-4 2v9l-3-1 1-9z" fill="#323235"/>
<path transform="translate(106,1128)" d="m0 0h6l3 4v5l-2 1-2-7-5-2z" fill="#272629"/>
<path transform="translate(882,737)" d="m0 0h1l1 14 2 4-4 1z" fill="#30303A"/>
<path transform="translate(1844,270)" d="m0 0h7v4h-6z" fill="#242327"/>
<path transform="translate(1737,109)" d="m0 0h2v22h-1l-1-18-1-2z" fill="#3D3D3F"/>
<path transform="translate(130,1269)" d="m0 0 5 1v7l-2 3-2-2h2l-1-8z" fill="#313135"/>
<path transform="translate(358,1186)" d="m0 0 3 1-1 7-3 1v-8z" fill="#FDFDFD"/>
<path transform="translate(284,1186)" d="m0 0 3 1-1 7-3 1v-8z" fill="#FDFDFD"/>
<path transform="translate(271,1184)" d="m0 0 5 2v9l-3-1v-7l-4-2z" fill="#2A292B"/>
<path transform="translate(112,1136)" d="m0 0 2 4-3 3h-6l-2-3h7z" fill="#353539"/>
<path transform="translate(306,1137)" d="m0 0 1 3-4 3-7-1v-3l9 1z" fill="#252427"/>
<path transform="translate(789,1131)" d="m0 0h5l-4 2-1 10h-2l1-11z" fill="#29292C"/>
<path transform="translate(257,1127)" d="m0 0h1l1 5v10h-3z" fill="#272629"/>
<path transform="translate(1743,265)" d="m0 0 1 4h2v3l2 1h-2l-1 2h-2l-2-4z" fill="#37373C"/>
<path transform="translate(1652,263)" d="m0 0h5l1 4-7 1z" fill="#262529"/>
<path transform="translate(420,256)" d="m0 0h5v4l-7 2-1-2h2z" fill="#33333B"/>
<path transform="translate(1557,231)" d="m0 0h6l2 4-5 1z" fill="#232226"/>
<path transform="translate(1816,1311)" d="m0 0 8 1 2 3h-9z" fill="#2C2B2E"/>
<path transform="translate(1799,1305)" d="m0 0h3v9h-3z" fill="#171519"/>
<path transform="translate(240,1273)" d="m0 0 3 2-1 4-6 2v-3h2z" fill="#2E2D31"/>
<path transform="translate(384,1209)" d="m0 0 2 1 1 7 2 4h-2l-1 4-2-1z" fill="#222125"/>
<path transform="translate(548,1189)" d="m0 0 2 1v5l-1 1h-6l-1-4 5 3v-5z" fill="#313033"/>
<path transform="translate(786,1185)" d="m0 0h7l-4 2-1 8h-2z" fill="#333337"/>
<path transform="translate(209,1185)" d="m0 0h7v1l-5 1v8l-3-1v-7z" fill="#242327"/>
<path transform="translate(164,1185)" d="m0 0h9v1l-7 2v6l1 3-3-1z" fill="#28272A"/>
<path transform="translate(694,1131)" d="m0 0h4l2 10-3 1v-9h-3z" fill="#282729"/>
<path transform="translate(554,1129)" d="m0 0 4 1 1 3-1 1h-6v-4z" fill="#FDFDFD"/>
<path transform="translate(702,851)" d="m0 0 1 3h2v5h-2v8h-1z" fill="#3C3C3E"/>
<path transform="translate(624,849)" d="m0 0 4 1-5 4-2 2-2-2v-4z" fill="#323238"/>
<path transform="translate(562,846)" d="m0 0h3l1 6-3 6h-1l-1-11z" fill="#19171A"/>
<path transform="translate(260,835)" d="m0 0h5l-1 6h-4z" fill="#2A292F"/>
<path transform="translate(1613,227)" d="m0 0h3l1 11h-2v-3h-2z" fill="#131114"/>
<path transform="translate(1792,224)" d="m0 0 4 2 1 2v6h-2v-7l-5 1v-3z" fill="#232124"/>
<path transform="translate(1586,115)" d="m0 0h4v2h-2v2l-3 2-3-1 2-4z" fill="#1F1E22"/>
</svg>
