<?xml version="1.0" encoding="UTF-8"?>
<svg version="1.1" viewBox="0 0 2048 1287" width="800" height="503" xmlns="http://www.w3.org/2000/svg">
<path transform="translate(0)" d="m0 0h2048v1287h-2048z" fill="#FDFDFC"/>
<path transform="translate(0)" d="m0 0h2048v1287h-51l-1-78v-1204h-96v365l-2 2-89 20-126 28h-8l-216-48-1-1v-367l-1420 1-4 1v1281h-34z" fill="#04328A"/>
<path transform="translate(1899)" d="m0 0h149v1287h-51l-1-78v-1204h-97z" fill="#04328B"/>
<path transform="translate(0)" d="m0 0h1459v5h-1421l-4 1v1281h-34z" fill="#04328B"/>
<path transform="translate(142,131)" d="m0 0h47v39h4v-39h47l1 38 3 1v-38l1-1h47l1 45 3-3 1-21h1v20l10-4 10-1 11 2 5 4 1 2v8l-3 1-10-1-2-5h-10l-6 4-5 10-1 5h11l1-8h22l1 2-1 6h10v-64h-44v18h-1v-20h47v67l-1 1-12 1-4 13-5 3-4 1h-22l-6-3-5-6-2-8-6-1-3 15-2 3-10-1 1-8 2-9h-8l-2 5-7 12h-11l-1-16-5-1-3 14-2 4-11-1 4-17h-28l-3 12-3 6-11-1 5-17h-18l7 15v3h-12l-9-17-2-1-2 9-3 8h-10l2-10 8-28 1-43z" fill="#2A498B"/>
<path transform="translate(0)" d="m0 0h1459v5h-1426v-2h-33z" fill="#242727"/>
<path transform="translate(454,580)" d="m0 0h32l10 3 4 5 2 6-1 8-5 6 5 4 3 6v11l-4 6-6 4-3 1h-37z" fill="#3E3E3F"/>
<path transform="translate(595,577)" d="m0 0h14v63l-13 1-2-5-8 5-9 1-8-3-6-7-3-11 1-12 4-8 7-6 3-1h9l8 4 3 2-1-22z" fill="#3D3D3E"/>
<path transform="translate(320,594)" d="m0 0h9l6 3 3 4h2l5-5 4-2h9l6 3 4 5 2 9v29l-1 1h-9l-5-1-1-31-3-3-7 1-3 6-1 27-4 1-10-1-1-29-1-5h-7l-4 4-1 2-1 28-1 1h-13l-1-1v-42l1-3h14v4l4-2z" fill="#3D3D3E"/>
<path transform="translate(143,133)" d="m0 0h44v42l-6 20-1 2h-21l-1-4 7-8 13-13 1-2-14 1-12 13-2 3h-2l4-17h-10z" fill="#FEFEFD"/>
<path transform="translate(246,133)" d="m0 0h44l1 46-5 10-2 8h-6l1-10 3-15 1-2-19 1-12 19-4 6-2-1z" fill="#FEFEFD"/>
<path transform="translate(297,131)" d="m0 0h47v67l-1 1-12 1-4 13-5 3-4 1h-22l-6-3-5-6-2-8-4-1v-2h5l1-8 5-10 5-5 1-5 1-17h1v20l10-4 10-1 11 2 5 4 1 2v8l-3 1-10-1-2-5h-10l-6 4-5 10-1 5h11l1-8h22l1 2-1 6h10v-64h-44v18h-1z" fill="#2B4988"/>
<path transform="translate(139,580)" d="m0 0h15l1 42 3 6 2 1h9l5-5 1-44h16v40l-2 9-4 6-5 4-5 2-6 1h-9l-11-3-6-5-3-5-1-4z" fill="#3D3D3E"/>
<path transform="translate(195,133)" d="m0 0h44v37l-11 1-7 25-3 2-7-1 1-3 5-5 2-5v-7l-3-5-3-1-18-1z" fill="#FEFEFD"/>
<path transform="translate(629,594)" d="m0 0h15l10 3 5 6 2 7v30l-1 1h-13l-2-5-7 5-10 1-8-3-4-5-1-3v-9l3-6 9-4 19-1-2-5-2-1h-16l-7 1v-10z" fill="#3D3D3E"/>
<path transform="translate(523,594)" d="m0 0h16l9 3 5 6 2 6v31l-5 1h-9l-2-5-5 4-7 2-9-1-6-4-3-6v-9l4-6 5-3 3-1 19-1-2-5-2-1h-16l-7 1v-10z" fill="#3E3E3F"/>
<path transform="translate(389,594)" d="m0 0h16l9 3 5 6 2 7v30l-3 1h-10l-2-5-8 5-10 1-8-3-4-5-1-3v-9l4-6 8-4 10-1h9l-1-4-3-2h-16l-7 2v-11z" fill="#3D3D3E"/>
<path transform="translate(255,594)" d="m0 0h16l10 3 6 8 1 5v30l-1 1h-12l-2-5h-2l-4 4-7 2-9-1-6-4-3-5v-10l4-6 5-3 13-2h9l-2-5-2-1h-16l-7 1v-10z" fill="#3D3D3E"/>
<path transform="translate(913,687)" d="m0 0h12v52h-11v-4l-9 5h-8l-6-4-4-5-2-8 1-11 5-8 4-3 7-1 7 2 3 2z" fill="#3D3E41"/>
<path transform="translate(799,689)" d="m0 0h16l15 41 3 9h-13l-2-5v-3l-22-1-2 9h-13l3-11 11-29z" fill="#3E3E3F"/>
<path transform="translate(142,131)" d="m0 0h47v37l-2 3v-38h-44v37h10l-1 8-3 9 5-5 11-12h14l-2 4-17 17-1 5 21 1v1l-19 1 7 15v3h-12l-9-17-2-1-2 9-3 8h-10l2-10 8-28 1-43z" fill="#2A4888"/>
<path transform="translate(211,594)" d="m0 0h14l10 2 1 1v10l-10-2h-13l-1 5 19 4 6 4 2 6v7l-3 5-5 4-9 2-16-1-7-2-1-1v-9l2-1 10 3h12l2-1v-5l-18-4-6-4-2-4v-10l4-6z" fill="#3D3D3E"/>
<path transform="translate(198,700)" d="m0 0h8l8 2 5 4 3 7v26h-12v-4l-9 5h-8l-6-3-3-5v-9l4-6 6-2 16-1-3-4-7-1-13 2v-9z" fill="#3D3D3E"/>
<path transform="translate(480,700)" d="m0 0 13 1 6 3 4 8v27h-12v-4l-8 5h-9l-6-4-3-5v-7l3-5 4-3 3-1 16-1-1-3-5-2-12 1-4 1-1-4 1-5 2-1z" fill="#3D3E42"/>
<path transform="translate(560,700)" d="m0 0 12 1 5 3 4 5 1 3v27h-12l-1-4-5 4-3 1h-8l-6-4-3-5v-8l5-6 5-2 16-1-1-4-9-1-13 1 1-8z" fill="#3E3E3F"/>
<path transform="translate(329,700)" d="m0 0 10 1 6 4 4 5 2 8v5l-1 1h-27l2 5 4 2h8l8-2h4v7l-2 2-8 2h-13l-8-3-6-7-2-8 2-11 4-6 7-4z" fill="#3E3E3F"/>
<path transform="translate(283,700)" d="m0 0 10 1 6 4 4 5 2 8v5l-1 1h-27l3 6 2 1h9l12-3v8l-2 2-9 2h-12l-7-3-5-4-3-6-1-8 2-8 4-6 7-4z" fill="#3D3D3E"/>
<path transform="translate(1767,116)" d="m0 0h7l2 1h11v34l-5 8-6 3h-11l-6-3-4-5 2-4 5 1v2l6 2h6l4-4 2-5-5 2h-10l-6-4-3-5v-13l4-7z" fill="#FEFEFD"/>
<path transform="translate(435,688)" d="m0 0h13l9 3v10l-11-3h-7l-5 3h-2l-2 5-1 3v10l3 6 5 4 9 1 9-3h3v9l-6 3-5 1h-11l-9-3-8-7-4-10v-12l3-9 7-7z" fill="#3E3E3F"/>
<path transform="translate(1595,98)" d="m0 0 4 2 7 11v5l-8 11-11 15h-3l-16-11-9-6 2-4 11-7 22-15z" fill="#FEFEFD"/>
<path transform="translate(154,688)" d="m0 0h13l9 3v10l-11-3-10 1-5 4-2 5v12l4 7 7 3 10-1 7-3v10l-6 3-4 1h-11l-11-4-8-9-2-6v-14l3-8 5-6 8-4z" fill="#3D3D3E"/>
<path transform="translate(840,701)" d="m0 0 11 1 1 25 2 3 7-1 2-2 1-5v-20h13v35l-1 2h-11v-5l-9 6h-8l-6-4-3-7v-27z" fill="#3E3E3F"/>
<path transform="translate(612,702)" d="m0 0h12l9 22 1 1 7-22 1-1h11l-2 9-12 31-5 9-7 3h-9l-1-7 9-3 1-5-13-30z" fill="#3D3E3F"/>
<path transform="translate(1729,116)" d="m0 0h8l6 3 2-2h5l1 1v30l-1 1h-5l-4-3v2l-5 2-8-1-7-6-2-5v-10l4-8 3-3z" fill="#FEFEFD"/>
<path transform="translate(1554,126)" d="m0 0 4 1 18 13 7 5-1 4-12 16-6 1-9-10-12-17-2-4z" fill="#FEFEFD"/>
<path transform="translate(673,700)" d="m0 0 14 1 3 1 1 9-18-2-2 1v4l16 3 5 4 1 2v9l-5 6-5 2h-14l-9-2v-9l9 2h12l-1-5-16-4-4-4-1-2v-7l3-5 4-3z" fill="#3D3D3E"/>
<path transform="translate(1676,116)" d="m0 0h7l8 4 4 6 1 9-3 8-6 5-4 2h-7l-6-3-5-6-1-2v-12l3-6 5-4z" fill="#FEFEFD"/>
<path transform="translate(695,594)" d="m0 0h8v13h-12l-5 5-1 2-1 26-4 1-10-1v-45h13l1 1v5l8-6z" fill="#3D3D3E"/>
<path transform="translate(1537,98)" d="m0 0 29 10 5 2v2l-11 7-19 13h-3l-11-15-1-5 8-11z" fill="#FEFEFD"/>
<path transform="translate(703,691)" d="m0 0h12v10h12v9l-11 1v18l10 1v9h-14l-6-3-2-2-1-5v-19h-5l-1-8 1-1h5z" fill="#3E3E3F"/>
<path transform="translate(515,691)" d="m0 0h12v10l12 1v8l-11 1v19h9l2 6-1 3h-14l-6-3-2-2-1-4v-20h-6v-8l1-1h5z" fill="#3E3E3F"/>
<path transform="translate(961,691)" d="m0 0h12v10l13 1v8l-12 1v19h11v8l-1 1h-13l-7-3-2-3-1-11v-12h-5v-8l5-1z" fill="#3D3D3F"/>
<path transform="translate(637,823)" d="m0 0 6 1 5 4 2 5v12l-3 5-5 4h-8l-4-3-1 14h-4v-41l4 1 1 2z" fill="#242626"/>
<path transform="translate(1803,116)" d="m0 0 9 1 6 4 3 6 1 7-1 1-22 1 1 5 3 1h9l2-2h5l-1 5-5 4-9 1-8-4-4-6-1-3v-8l3-7 6-5z" fill="#FEFEFD"/>
<path transform="translate(752,823)" d="m0 0 9 1 5 5 2 4v11l-3 6-4 3-3 1h-7l-5-3-3-3-2-7 1-9 4-6z" fill="#242626"/>
<path transform="translate(443,823)" d="m0 0 9 2 4 5 1 2v13l-3 5-6 4h-8l-6-4-3-6v-11l4-7z" fill="#232525"/>
<path transform="translate(1544,90)" d="m0 0h46l4 4v2l-16 11-6 1-32-12 1-4z" fill="#FEFEFD"/>
<path transform="translate(593,687)" d="m0 0h11l1 5v26l-1 21h-11l-1-2v-42z" fill="#3D3D3E"/>
<path transform="translate(360,701)" d="m0 0h10l1 4 7-4h9v10h-8l-5 1-2 5-1 22h-12v-37z" fill="#3D3D3E"/>
<path transform="translate(1899)" d="m0 0h149v4l-52 1h-97z" fill="#1D2020"/>
<path transform="translate(241,701)" d="m0 0 4 2v2l4-2 3-2h9l-1 10h-8l-4 2-2 3-1 22-1 1h-11v-37z" fill="#3E3E3F"/>
<path transform="translate(1640,104)" d="m0 0 28 1v6l-1 1h-20v13h13v6h-13v17l-1 1h-6l-1-1v-43z" fill="#FEFEFD"/>
<path transform="translate(338,823)" d="m0 0 9 2 3 4 1 3v22l-4-1v-3l-6 4h-9l-5-5v-9l5-4 5-1h10l-3-6-2-1h-7l-7 1 1-4z" fill="#242627"/>
<path transform="translate(585,823)" d="m0 0 7 2 3 4 6-5 6-1 5 3 3 7v20l-4 1-1-1-1-23-2-2-7 1-3 4-1 20-4 1-1-21-3-5-7 1-3 3-1 21-4 1-1-1v-29h4l1 3z" fill="#282A2A"/>
<path transform="translate(393,823)" d="m0 0 8 1 5 5 2 10-1 1-21 1 3 7 2 1h16l-2 4-4 1h-10l-6-3-4-6v-12l4-6 4-3z" fill="#252727"/>
<path transform="translate(685,823)" d="m0 0 9 2 4 5 1 9-1 1h-21l3 7 2 2h17l-4 4-3 1h-9l-6-3-4-5-1-10 3-7 6-5z" fill="#252727"/>
<path transform="translate(184,823)" d="m0 0 9 2 4 5 2 9-1 1h-22l3 7 2 2 7 1 10-1-1 3-6 2h-9l-6-3-4-6v-12l3-5 5-4z" fill="#242727"/>
<path transform="translate(937,701)" d="m0 0h7l5 2-1 36h-11l-1-13v-24z" fill="#3D3D3E"/>
<path transform="translate(581,605)" d="m0 0h8l5 5 1 11-3 7-4 3h-7l-5-6-1-3v-8l4-8z" fill="#FEFEFD"/>
<path transform="translate(273,882)" d="m0 0 3 1v7l-1 3 6-3 7 2 3 5v9l-3 5-4 2-9-1-2 1-1-6v-24z" fill="#292B2B"/>
<path transform="translate(430,883)" d="m0 0h3v29l-4-1-4 2h-5l-5-5-1-9 3-6 2-2h8l3 2z" fill="#27292A"/>
<path transform="translate(513,814)" d="m0 0h10l7 3 1 5-7-3h-10l-6 4-2 4v14l4 6 3 2h11l6-3h2l-2 5-7 3h-10l-8-4-4-6-1-3v-14l3-6 7-6z" fill="#252727"/>
<path transform="translate(148,814)" d="m0 0h9l8 4-1 4-6-3h-10l-5 3-3 4-1 10 3 9 5 4h11l7-3 1 2-4 4-5 2h-10l-8-4-5-8v-15l3-6 7-6z" fill="#252727"/>
<path transform="translate(549,827)" d="m0 0 7 1 3 4 1 3v8l-4 6-6 2-5-3-3-7 1-9 4-4z" fill="#FEFEFD"/>
<path transform="translate(753,827)" d="m0 0 6 1 4 4 1 9-3 7-3 2h-7l-4-4-1-3v-8l3-6z" fill="#FEFEFD"/>
<path transform="translate(550,823)" d="m0 0 9 2 4 5 1 3v12l-4 6-5 3h-8l-5-3-4-6v-12l3-6 4-3zm-1 4-4 2-3 7 1 9 4 5 4 1 5-2 4-6v-8l-3-6-3-2z" fill="#232525"/>
<path transform="translate(442,827)" d="m0 0 7 1 3 3 1 3v9l-4 6-1 1h-8l-4-5v-13z" fill="#FEFEFD"/>
<path transform="translate(138,887)" d="m0 0h11l4 4 1 2v9l-3 5-4 2h-9z" fill="#FEFEFD"/>
<path transform="translate(635,827)" d="m0 0 7 1 3 3 1 3v9l-3 5-5 3-5-2-3-4-1-3v-7l3-6z" fill="#FEFEFD"/>
<path transform="translate(1713,116)" d="m0 0h5l1 4-2 3-7 2-2 5-1 18-1 1h-5l-1-1v-31l7 1h3z" fill="#FEFEFD"/>
<path transform="translate(789,823)" d="m0 0 7 2 3 3 1 4v22l-4-1-1-20-3-5-7 1-3 3-1 3-1 19-4-1v-29h4l1 4 5-4z" fill="#222525"/>
<path transform="translate(134,884)" d="m0 0h16l5 3 3 7v7l-3 7-4 3-3 1h-14zm4 3v22h9l5-3 2-4v-9l-3-5-2-1z" fill="#282A2B"/>
<path transform="translate(552,883)" d="m0 0 2 1 1 10v7l4 2v2l-4 1v5l-4 1v-7l-3 1h-7l-3-1 1-5 9-14z" fill="#272929"/>
<path transform="translate(1734,122)" d="m0 0 5 1 4 4 1 9-3 5-4 2-7-1-3-4v-10l4-5z" fill="#093488"/>
<path transform="translate(1675,123)" d="m0 0h8l4 3 1 3v7l-3 5-3 2-7-1-3-3-1-2v-8l3-5z" fill="#093589"/>
<path transform="translate(903,709)" d="m0 0 7 1 3 5v10l-3 5-1 1h-7l-4-5v-12z" fill="#FEFEFD"/>
<path transform="translate(470,614)" d="m0 0h13l5 4 1 6-2 4-4 2h-13z" fill="#FEFEFD"/>
<path transform="translate(173,890)" d="m0 0 7 2 3 6v4l-4 1h-8l-4-1 2 7h9l5-1-5 5h-8l-5-4-2-4 1-9 5-5z" fill="#2A2B2C"/>
<path transform="translate(218,890)" d="m0 0 7 2 3 4v6l-2 1h-13l2 5 2 1h7l4-1-2 4-2 1h-8l-5-3-2-4v-9l5-6z" fill="#292B2B"/>
<path transform="translate(305,890)" d="m0 0 6 1 4 5 1 6-4 1h-12l2 5 2 1h7l4-1-2 4-3 1h-7l-6-5-1-3v-7l3-5z" fill="#27292A"/>
<path transform="translate(297,131)" d="m0 0h47v67l-1 1h-12v-2h11v-64h-44v18h-1z" fill="#36425C"/>
<path transform="translate(245,131)" d="m0 0h47l1 47-2 1-1-2v-44h-44v37l-2-2v-36z" fill="#394050"/>
<path transform="translate(1767,123)" d="m0 0h8l4 4 1 7-3 6-4 2-6-1-4-5v-8z" fill="#093489"/>
<path transform="translate(244,890)" d="m0 0 5 2v2l5-3h8l3 4v17h-3l-1-18-7 1-2 4v13h-4l-1-17-5-1-4 1-1 17h-3v-21h7z" fill="#282A2B"/>
<path transform="translate(497,886)" d="m0 0 5 2 2 2 1 4v8l-3 7-6 1-3-4-1-4v-9l3-6z" fill="#FEFEFD"/>
<path transform="translate(709,815)" d="m0 0 3 3v5l9 1v4h-9v16l2 5h7l1 4-2 1-10-2-3-5-1-19-3-2v-2h4v-8z" fill="#27292A"/>
<path transform="translate(229,816)" d="m0 0h4v8h10v4h-9v21l9 1 1 3h-10l-5-3v-22h-4v-4h4z" fill="#2B2E31"/>
<path transform="translate(271,813)" d="m0 0h9l-1 3-7 1-2 7h8v3l-1 1h-7v25l-4 1v-26l-5-1-1-3h6v-7l2-3z" fill="#23282F"/>
<path transform="translate(363,815)" d="m0 0 3 1v8h10v4h-10l1 20 6 1h3v5l-10-1-4-3-1-21-4-4 4-2 1-7z" fill="#222425"/>
<path transform="translate(472,813)" d="m0 0h9l-1 3-7 1-2 7h7l2 1v2l-2 1h-7v25l-4 1-1-2 1-24-6-1v-2l6-1v-8z" fill="#242627"/>
<path transform="translate(311,823)" d="m0 0 9 2v4l-11-1-5 3-1 2v11l4 5h13l-1 4-4 1h-8l-6-4-3-4-1-4v-7l3-7 6-4z" fill="#252727"/>
<path transform="translate(1710,1254)" d="m0 0h9l3 2v8l1 4-1 3-2 1h-11v-17z" fill="#515252"/>
<path transform="translate(497,883)" d="m0 0 6 1 4 5 1 3v12l-3 6-4 3-7-1-4-4-1-3v-14l3-5zm0 3-4 4-1 3v9l3 7 5 1 4-4 1-4v-8l-2-5-4-3z" fill="#242627"/>
<path transform="translate(1994)" d="m0 0h54v4h-51v-2l-3-1z" fill="#3C3C3D"/>
<path transform="translate(1840,227)" d="m0 0 7 1 1 1v15l-2 3-7 1-3-1v-2l8-1 1-2-6 1-4-4v-7l2-4z" fill="#FEFEFD"/>
<path transform="translate(1602,228)" d="m0 0h10l1 2v12l-2 5-2 1h-6l-2-1v-2h6l3-3-6 1-4-4v-7z" fill="#FEFEFD"/>
<path transform="translate(470,883)" d="m0 0h6l5 4 1 2v6l-9 10-3 3 12 1 1 3h-19l1-4 10-10 3-5-2-5-4-1-9 1 4-4z" fill="#242627"/>
<path transform="translate(1729,228)" d="m0 0h10l2 4v7l-2 3-6 1-2-1v5l-3 1v-19z" fill="#FEFEFD"/>
<path transform="translate(1669,222)" d="m0 0h2l1 7v9l-1 4-2 1h-7l-3-3-1-5 3-7h8z" fill="#FEFEFD"/>
<path transform="translate(1541,228)" d="m0 0h10l3 5-1 7-3 3h-6v4h-4v-16z" fill="#FEFEFD"/>
<path transform="translate(355,883)" d="m0 0 8 1 3 3 1 7-6 8-6 6 12 1v3h-18l1-4 10-10 2-3 1-7h-14l2-4z" fill="#262828"/>
<path transform="translate(1643,264)" d="m0 0 6 1 2 3v8l-3 3-7 1v4h-3v-19z" fill="#FEFEFD"/>
<path transform="translate(1727,1259)" d="m0 0h16v8l1 2h4v-10h4v13h-12l-1-2v-9l-8 1v10h-4z" fill="#2F3031"/>
<path transform="translate(380,883)" d="m0 0 8 1 4 5-1 5-3 4 3 1 1 2v7l-5 4-8 1-5-2 1-3 3 1h7l3-2v-5l-4-3-5-1-1-2 9-1 1-5-1-2-7-1h-6v-2z" fill="#252828"/>
<path transform="translate(470,591)" d="m0 0h13l3 3v6l-3 3h-13z" fill="#FEFEFD"/>
<path transform="translate(520,883)" d="m0 0 7 1 5 5-1 7-7 8-4 4 12 1v3h-17l-1-2 7-8 6-7 1-7-7-1-6 1v-3z" fill="#242626"/>
<path transform="translate(1746,264)" d="m0 0h6l4 4v7l-3 4h-8l-3-5 1-7z" fill="#FEFEFD"/>
<path transform="translate(1668,264)" d="m0 0h6l4 4v8l-3 3h-8l-3-5 1-7z" fill="#FEFEFD"/>
<path transform="translate(1747,228)" d="m0 0h8l3 4v7l-4 4h-6l-3-3-1-6z" fill="#FEFEFD"/>
<path transform="translate(421,893)" d="m0 0 6 1 3 4v8l-4 4h-5l-3-4v-9z" fill="#FEFEFD"/>
<path transform="translate(220,823)" d="m0 0 3 1v4l-9 2-2 3-1 21-5-1 1-29h3l1 2z" fill="#1F2223"/>
<path transform="translate(280,893)" d="m0 0 5 1 3 4-1 9-3 3h-5l-3-3v-11z" fill="#FEFEFD"/>
<path transform="translate(1899)" d="m0 0h22v1l23 1h28l4 2-77 1z" fill="#3E3E3F"/>
<path transform="translate(660,812)" d="m0 0h3v42h-4v-41z" fill="#212833"/>
<path transform="translate(142,131)" d="m0 0h47v37l-2 3v-38h-44z" fill="#344260"/>
<path transform="translate(263,620)" d="m0 0h10v6l-4 5-2 1h-7l-4-4 1-5 2-2z" fill="#FEFEFD"/>
<path transform="translate(636,620)" d="m0 0h10v6l-4 5-9 1-3-3-1-4 3-4z" fill="#FEFEFD"/>
<path transform="translate(529,620)" d="m0 0h11v6l-5 5-2 1h-6l-3-3-1-4 3-4z" fill="#FEFEFD"/>
<path transform="translate(1660,1259)" d="m0 0h8l3 3v7l-3 3-4 1-5-2-2-3v-7z" fill="#252828"/>
<path transform="translate(396,620)" d="m0 0h10v6l-4 5-2 1h-7l-4-5 2-5z" fill="#FEFEFD"/>
<path transform="translate(572,824)" d="m0 0h4l1 3 5-2-3 6-1 1-1 21-4 1-1-1z" fill="#292C2E"/>
<path transform="translate(0)" d="m0 0h45v2h7v1l-14 2h-5v-2h-33z" fill="#3E3E3F"/>
<path transform="translate(737,726)" d="m0 0h12v12l-1 1h-11z" fill="#3E3E3F"/>
<path transform="translate(298,199)" d="m0 0h19v7l-3 2h-11l-5-5z" fill="#FEFEFD"/>
<path transform="translate(585,823)" d="m0 0 7 2 5 5-1 23-4 1-1-21-3-5-8 1 2-5z" fill="#252727"/>
<path transform="translate(334,839)" d="m0 0h13l-1 6-5 5-6 1-4-4 1-7z" fill="#FEFEFD"/>
<path transform="translate(1675,1259)" d="m0 0h10 2 7l1 1v12l-4-1v-10h-4v11h-4l-1-10h-3l-1 10h-3z" fill="#292B2B"/>
<path transform="translate(737,701)" d="m0 0 12 1v12h-12z" fill="#3D3D3E"/>
<path transform="translate(183,827)" d="m0 0h6l5 5 1 4-3 1h-16l1-5 3-4z" fill="#FEFEFD"/>
<path transform="translate(392,827)" d="m0 0h6l5 5 1 4-2 1h-16l-1-2 3-5z" fill="#FEFEFD"/>
<path transform="translate(684,827)" d="m0 0 7 1 4 5v3l-2 1h-15l-1-4 4-5z" fill="#FEFEFD"/>
<path transform="translate(1779,264)" d="m0 0h6l3 2 1 3v8l-2 2h-10l-1-1v-7l8-2 1-3-7 2z" fill="#FEFEFD"/>
<path transform="translate(199,177)" d="m0 0 8 1 2 3-3 7-3 2h-9l3-12z" fill="#FEFEFD"/>
<path transform="translate(1703,228)" d="m0 0h18l2 3v11h-3v-12l-4 1-2 11h-3v-7l-1-4-5-1v12h-3v-13z" fill="#FEFEFD"/>
<path transform="translate(1627,228)" d="m0 0h9l2 3v11l-9 1-3-2v-6l3-2h5v-2h-7z" fill="#FEFEFD"/>
<path transform="translate(806,703)" d="m0 0h2l5 15v3h-12l-1-2 5-15z" fill="#FEFEFD"/>
<path transform="translate(1761,228)" d="m0 0 3 3v7h2l1-7 2-3 4 1 3 7v-8l3 1-1 10-1 3-5-1v-9l-2 1-3 9-4-1-2-7z" fill="#FEFEFD"/>
<path transform="translate(1789,1253)" d="m0 0 3 1v9l5-4h4l-1 3-3 2v4l5 2v2l-6-1-3-3-2 5-3-1v-18z" fill="#292A2B"/>
<path transform="translate(196,890)" d="m0 0 7 1 1 3h-9l-3 3v9l3 3h9l-1 3-2 1h-6l-6-4-2-6 1-7 5-5z" fill="#292B2B"/>
<path transform="translate(178,1144)" d="m0 0 6 2v12l-1 1h-8v-14z" fill="#303232"/>
<path transform="translate(1642,1254)" d="m0 0h16v3h-5v15h-5v-12l1-2-7-1z" fill="#2A2C2C"/>
<path transform="translate(563,1093)" d="m0 0 7 1 1 9-2 5h-6l-2-1v-8z" fill="#313233"/>
<path transform="translate(776,824)" d="m0 0h4l1 11-1 19-4-1z" fill="#262828"/>
<path transform="translate(193,131)" d="m0 0h24v2h-22v37h-2z" fill="#384155"/>
<path transform="translate(284,824)" d="m0 0h4v30h-4z" fill="#212424"/>
<path transform="translate(728,824)" d="m0 0h4v30h-4z" fill="#262828"/>
<path transform="translate(1788,227)" d="m0 0 6 1 2 2v6h-4l1-6h-6v4l4-1v3h-4v4h9l-2 3h-7l-4-3v-9l2-3z" fill="#EFF1F4"/>
<path transform="translate(250,824)" d="m0 0h4v29h-4z" fill="#1B2639"/>
<path transform="translate(559,722)" d="m0 0h11v5l-5 5h-6l-3-3 1-6z" fill="#FEFEFD"/>
<path transform="translate(481,722)" d="m0 0h10l-1 7-4 3h-6l-2-1-1-6z" fill="#FEFEFD"/>
<path transform="translate(198,722)" d="m0 0h11l1 4-4 5-2 1h-6l-2-2 1-7z" fill="#FEFEFD"/>
<path transform="translate(321,891)" d="m0 0 6 1 1-1h6v3l-7 1-1 1-1 16h-4z" fill="#2B2D2D"/>
<path transform="translate(1694,264)" d="m0 0h7l3 5-1 4h-7v-2l4-1v-3h-4l-1 2v6l1 1h8l-1 3-7 1-4-2-2-7 3-6z" fill="#FEFEFD"/>
<path transform="translate(1616,264)" d="m0 0h6l3 3v5l-4 1h-4l1-3 4 1-1-4h-4l-2 9h9v3h-9l-3-3v-8z" fill="#FEFEFD"/>
<path transform="translate(281,890)" d="m0 0 7 2 3 5v9l-3 5-4 2-4-1v-2l5-2 2-4v-6l-3-4-7 1v-3z" fill="#262829"/>
<path transform="translate(276,1229)" d="m0 0h7v13l-6 1-2-4v-8z" fill="#2D2F2F"/>
<path transform="translate(1803,122)" d="m0 0h7l4 5v3h-16l3-7z" fill="#0E388B"/>
<path transform="translate(937,687)" d="m0 0h12l-1 9h-11z" fill="#3D3D3E"/>
<path transform="translate(251,1199)" d="m0 0h2v13l-2 2h-5l-2-2v-7l1-2h6z" fill="#313232"/>
<path transform="translate(387,1093)" d="m0 0h2v4h5l2 2v6l-3 3h-5l-1-1z" fill="#343536"/>
<path transform="translate(1558,264)" d="m0 0 2 1v11h6l1-12 3 1v12l-1 2h-10l-2-3v-11z" fill="#FEFEFD"/>
<path transform="translate(1690,227)" d="m0 0 7 2 1 7h-3l-1-5h-5v8h8v3l-2 1h-6l-4-3v-9l2-3z" fill="#FEFEFD"/>
<path transform="translate(208,1171)" d="m0 0 2 1-1 14h-7l-2-6 2-5 6-1z" fill="#2D2F2F"/>
<path transform="translate(1757,1259)" d="m0 0h11l1 1 1 12h-4l-1-10-4-1-1 11h-3z" fill="#242727"/>
<path transform="translate(225,1097)" d="m0 0h7l1 2v7l-4 2h-4l-1 4v-14z" fill="#343535"/>
<path transform="translate(710,1097)" d="m0 0h5l2 3-1 7-1 1h-5v3h-2v-12z" fill="#313233"/>
<path transform="translate(1585,228)" d="m0 0h9l2 3v11h-3l-1-11-5-1v12l-4-1v-9z" fill="#FEFEFD"/>
<path transform="translate(1510,228)" d="m0 0h10l2 4v10h-3l-1-11-5-1v12h-3l-1-5v-7z" fill="#FEFEFD"/>
<path transform="translate(1823,227)" d="m0 0 7 1 1 2v12h-3l-1-11-5-1v10l-1 2-3-1 1-12z" fill="#FEFEFD"/>
<path transform="translate(1035,1144)" d="m0 0h1v14l-1 1h-7l-1-2v-7l7-2z" fill="#303131"/>
<path transform="translate(777,1097)" d="m0 0h6l2 1v8l-1 1h-6v4h-2v-11z" fill="#2C2E2E"/>
<path transform="translate(1774,1259)" d="m0 0h9v3l-6-1v3h6l1 1v7h-10l-1-3h7l-3-2-3-1z" fill="#262828"/>
<path transform="translate(1763,264)" d="m0 0h7l2 3v12h-3l-1-12-4-1-1 8-1 5-2-1v-12z" fill="#FEFEFD"/>
<path transform="translate(861,1144)" d="m0 0h1v14l-1 1h-7l-1-2v-6l1-2h7z" fill="#2F3031"/>
<path transform="translate(135,1095)" d="m0 0h6l2 3-1 7-1 1h-5l-3-4 1-6z" fill="#FEFEFD"/>
<path transform="translate(400,891)" d="m0 0h12l1 2-8 2-1 2-1 15h-3z" fill="#232525"/>
<path transform="translate(329,708)" d="m0 0 5 1 4 3v4h-15l2-5z" fill="#FEFEFD"/>
<path transform="translate(282,709)" d="m0 0h7l3 3v4l-13 1-2-1 2-5z" fill="#FEFEFD"/>
<path transform="translate(333,1144)" d="m0 0h1v15h-8v-10l5-1 2 1z" fill="#2C2D2E"/>
<path transform="translate(414,1199)" d="m0 0h6l2 1 1 10 1 4-3-2-1-5h-4v6l-3-1z" fill="#909191"/>
<path transform="translate(344,1175)" d="m0 0h5l2 2v6l-3 3-5-1-2-5z" fill="#2D2F2F"/>
<path transform="translate(263,1097)" d="m0 0 7 1 1 1v7l-3 2-5-1-1-1v-8z" fill="#303232"/>
<path transform="translate(1711,263)" d="m0 0 5 1v2l-5 1 1 3 5 1 1 6-1 2-8 1-2-1v-3l6 1 2-4-7-1-1-5z" fill="#FEFEFD"/>
<path transform="translate(1649,227)" d="m0 0 5 2 2 7v6h-4v-9l-3-3h-3v12h-3v-13z" fill="#FEFEFD"/>
<path transform="translate(195,1149)" d="m0 0h8v9l-5 1-4-1-1-6z" fill="#323334"/>
<path transform="translate(680,1097)" d="m0 0 5 1 1 1v7l-2 2h-5l-2-2v-7z" fill="#303232"/>
<path transform="translate(1802,264)" d="m0 0h7l1 2-7 1 1 3 6 2v6l-1 1h-9l-1-3h7l1-3-7-1v-7z" fill="#FEFEFD"/>
<path transform="translate(232,1256)" d="m0 0h8v9l-1 1h-7l-1-2v-6z" fill="#2A2C2D"/>
<path transform="translate(354,1228)" d="m0 0 4 2 1 7-2 3h-5l-2-2v-6z" fill="#313233"/>
<path transform="translate(962,1149)" d="m0 0h7l1 1v6l-2 3h-6l-2-5 1-4z" fill="#353636"/>
<path transform="translate(419,891)" d="m0 0 2 1-2 5v9l2 3 4 2v2h-5l-5-5-1-9 3-6z" fill="#292A2B"/>
<path transform="translate(387,1256)" d="m0 0h6l1 1v7l-1 2h-7l-2-6z" fill="#2C2D2E"/>
<path transform="translate(148,1229)" d="m0 0h5l2 2v7l-2 2h-6l-1-6z" fill="#292B2B"/>
<path transform="translate(602,687)" d="m0 0h2l1 5v26l-1 20h-1l-1-23z" fill="#123B8C"/>
<path transform="translate(1723,264)" d="m0 0h7v3h-6v2l8 3v5l-2 2h-9v-3h9v-2l-6-1-3-2v-5z" fill="#FEFEFD"/>
<path transform="translate(1526,228)" d="m0 0h9v2h-7v3l7 2 1 1v5l-3 2h-6l-2-4 7 1v-3l-7-3z" fill="#FEFEFD"/>
<path transform="translate(208,1256)" d="m0 0h6l3 5-2 5h-7l-1-2v-7z" fill="#2C2E2E"/>
<path transform="translate(211,1203)" d="m0 0h6v10l-1 1h-5l-3-4 2-6z" fill="#292B2B"/>
<path transform="translate(356,1202)" d="m0 0 5 2v8l-2 2h-5l-1-1v-8z" fill="#2E2F30"/>
<path transform="translate(294,1097)" d="m0 0h6l1 1v8l-3 2-5-1-1-6z" fill="#2C2E2E"/>
<path transform="translate(264,1256)" d="m0 0h6l1 1v8l-1 1h-7l-1-7z" fill="#2D2F2F"/>
<path transform="translate(512,1202)" d="m0 0 4 2v8l-2 2-5-1-1-1v-8z" fill="#343535"/>
<path transform="translate(191,1199)" d="m0 0h6l2 2v6h-7v6h-2v-13z" fill="#2B2D2D"/>
<path transform="translate(275,1097)" d="m0 0h7l1 9-1 1h-7l-1-2v-6z" fill="#2F3031"/>
<path transform="translate(550,888)" d="m0 0h1v14l-10 1 4-8z" fill="#FEFEFD"/>
<path transform="translate(873,1144)" d="m0 0 6 1 1 1v7l-4 1h-2l-1 5-2-2 1-12z" fill="#313233"/>
<path transform="translate(577,1097)" d="m0 0 5 1 1 1v8l-7 1-2-2 1-4z" fill="#313232"/>
<path transform="translate(320,1095)" d="m0 0 7 1 1 1v7l-3 2-5-1z" fill="#FEFEFD"/>
<path transform="translate(1595,264)" d="m0 0 2 1v14h-11l-1-1v-13h2l1 10 5 1 1-2z" fill="#FEFEFD"/>
<path transform="translate(322,1199)" d="m0 0h2l3 6 2 8-3-1v-2h-5l-2 3-2-1 4-12z" fill="#606161"/>
<path transform="translate(359,1148)" d="m0 0 5 1 1 1v8l-1 1h-7l1-10z" fill="#2D2E2F"/>
<path transform="translate(845,1097)" d="m0 0 6 1 1 9-2 1h-6l-1-4z" fill="#313232"/>
<path transform="translate(234,891)" d="m0 0 7 1-1 3h-2l-1 17h-3z" fill="#262829"/>
<path transform="translate(1689,230)" d="m0 0h5l1 1v5l3 1-1 4-1-1h-7l-1-1v-8z" fill="#365799"/>
<path transform="translate(137,189)" d="m0 0h2l1 7-1 3h-2l-1 7-3 7 2 1-2 2h-3l2-10z" fill="#0E3685"/>
<path transform="translate(136,1199)" d="m0 0 5 5 2 9h-2l-1-3-6 1-3 3 1-5z" fill="#929292"/>
<path transform="translate(546,1097)" d="m0 0 5 1 1 2v7l-7 1-2-4z" fill="#333434"/>
<path transform="translate(1549,259)" d="m0 0h6l-1 2h-3v2l3 1-2 3-1 11-3 1-1-12-1-3z" fill="#FEFEFD"/>
<path transform="translate(412,1255)" d="m0 0h2l2 3v7l-1 1h-6l-1-1v-8z" fill="#2E3030"/>
<path transform="translate(831,1148)" d="m0 0 5 1 1 9-1 1h-7l-1-3 2-7z" fill="#303132"/>
<path transform="translate(240,1097)" d="m0 0 5 1-1 9-5 1-3-3 1-7z" fill="#303132"/>
<path transform="translate(173,890)" d="m0 0 7 2 3 6v4h-5v-8h-7l-7 4 2-5z" fill="#262829"/>
<path transform="translate(1747,266)" d="m0 0 5 1 1 1v8l-6 1-2-2v-6z" fill="#0E388A"/>
<path transform="translate(325,1171)" d="m0 0 7 2v6h-7v6h-2v-12z" fill="#767676"/>
<path transform="translate(215,1144)" d="m0 0 6 2 1 4-2 3-5 1-1 5h-1v-14z" fill="#2D2F2F"/>
<path transform="translate(256,891)" d="m0 0h6l3 4v17h-3l-1-18-6-1z" fill="#202323"/>
<path transform="translate(1814,1253)" d="m0 0 3 1v18h-4v-18z" fill="#2D2F2F"/>
<path transform="translate(917,1148)" d="m0 0 4 1v9l-1 1-7-1v-7z" fill="#313233"/>
<path transform="translate(304,1145)" d="m0 0h2l4 11-1 3-2-3h-5l-4 2 4-12z" fill="#646565"/>
<path transform="translate(894,1148)" d="m0 0 5 2v8l-5 1-3-1v-6z" fill="#353637"/>
<path transform="translate(304,893)" d="m0 0h5l3 3v4h-13l2-5z" fill="#FEFEFD"/>
<path transform="translate(217,893)" d="m0 0 6 1 2 2v4h-13l1-4z" fill="#FEFEFD"/>
<path transform="translate(1663,230)" d="m0 0h5l1 1v8l-4 2-4-3 1-7z" fill="#103887"/>
<path transform="translate(171,893)" d="m0 0 7 1 1 6h-12l1-5z" fill="#FEFEFD"/>
<path transform="translate(136,1093)" d="m0 0 6 1 3 4-1 7-4 3h-5l-3-3-1-7zm-1 2-2 3 1 6 2 2h5l2-3v-5l-2-3z" fill="#353637"/>
<path transform="translate(1670,266)" d="m0 0 4 1 1 2v6l-2 2-5-1-1-7z" fill="#0D3788"/>
<path transform="translate(319,1093)" d="m0 0 8 1 3 3v7l-3 3h-9v-12zm1 2v10l5 1 3-2v-7l-3-2z" fill="#303131"/>
<path transform="translate(1544,230)" d="m0 0h5l2 3v5l-2 2h-5l-1-2v-6z" fill="#0F3888"/>
<path transform="translate(1749,230)" d="m0 0 5 1 1 1v7l-1 1h-5l-2-2 1-7z" fill="#0D378A"/>
<path transform="translate(1732,230)" d="m0 0h5l1 2v7l-4 2-4-4 1-6z" fill="#0C378A"/>
<path transform="translate(794,1148)" d="m0 0 4 1 1 9-1 1h-6l-1-3 2-7z" fill="#2C2E2E"/>
<path transform="translate(429,1144)" d="m0 0 5 1v3l-1-1h-5l-2 3 1 5 1 1h6l-3-3v-2l5 1v6l-2 1h-7l-3-3-1-6 4-5z" fill="#2B2D2E"/>
<path transform="translate(640,1097)" d="m0 0 5 1 1 2v7l-4 1-4-1z" fill="#2F3031"/>
<path transform="translate(1643,266)" d="m0 0 5 2v8l-6 1-1-1v-8z" fill="#0C3688"/>
<path transform="translate(1684,259)" d="m0 0h5l-3 3-1 16-3 1-1-16z" fill="#FEFEFD"/>
<path transform="translate(1839,230)" d="m0 0h6v9l-1 1h-5l-1-1v-8z" fill="#0B368B"/>
<path transform="translate(1605,230)" d="m0 0h4l1 2v6l-1 2h-5l-2-2 1-7z" fill="#0E3789"/>
<path transform="translate(1575,260)" d="m0 0 2 1v2l5 1-1 2h-3l-1 10 5 1v2h-5l-2-2-1-16z" fill="#FEFEFD"/>
<path transform="translate(177,1146)" d="m0 0h5l1 2v8l-1 1h-5z" fill="#D3D3D2"/>
<path transform="translate(130,1145)" d="m0 0h16l1 4-1 10-2-1 1-12h-7v12h-3l1-12h-6z" fill="#353636"/>
<path transform="translate(441,1095)" d="m0 0 4 1 1 6-2 4-4-1-1-7z" fill="#FEFEFD"/>
<path transform="translate(1822,1254)" d="m0 0h3l1 18h-4z" fill="#1F2222"/>
<path transform="translate(594,1093)" d="m0 0h2v13l-2 2h-5l-2-2 1-9h3l-2 9h5z" fill="#373839"/>
<path transform="translate(1793,259)" d="m0 0h3v20l-3-1z" fill="#FEFEFD"/>
<path transform="translate(1502,222)" d="m0 0 2 1v19h-3v-19z" fill="#FEFEFD"/>
<path transform="translate(305,1175)" d="m0 0h8v10l-1 4h-7l1-2 4-2 1-9h-5l1 9h-2l-1-7z" fill="#313232"/>
<path transform="translate(488,1094)" d="m0 0h1l1 10 5 1 1-1v-10h2l1 7-2 6-6 1-4-4v-9z" fill="#313233"/>
<path transform="translate(1058,1149)" d="m0 0h8l1 5-2 7-3 2h-3v-2l3-2 2-3v-5h-4l1 8h-3z" fill="#2F3031"/>
<path transform="translate(563,1095)" d="m0 0h6l-1 5 1 5-5 1-1-4z" fill="#FEFEFD"/>
<path transform="translate(1748,1259)" d="m0 0h4v13l-6-1v-2h2z" fill="#2B2C2D"/>
<path transform="translate(1801,228)" d="m0 0h9l-2 2-4 1-1 11h-3v-13z" fill="#FEFEFD"/>
<path transform="translate(780,1148)" d="m0 0 7 1 1 2v6l-2 2-4-1 4-1-1-6-3-1-1 1v11l-2 1v-14z" fill="#2D2E2F"/>
<path transform="translate(1605,264)" d="m0 0h5v2l-4 2-1 11-3-1v-12z" fill="#FEFEFD"/>
<path transform="translate(166,1199)" d="m0 0 1 4v9l-2 2h-5l-2-3 1-8 4 1-2 1v7l3-1 1-11z" fill="#2E3030"/>
<path transform="translate(1687,1259)" d="m0 0h7l1 1v12l-4-1v-10h-4z" fill="#242626"/>
<path transform="translate(367,1252)" d="m0 0h6l3 3-3 6h-3v-2l3-2v-2l-5-1 1 7-1 5h-2v-10z" fill="#2D2E2F"/>
<path transform="translate(291,1252)" d="m0 0h6l1 2-7 1-1 1v8h8v2h-8l-3-3v-7z" fill="#333434"/>
<path transform="translate(135,1226)" d="m0 0h7l1 2h-6l-3 3 1 5 2 2h6l-3 3-6-2-3-4 1-7z" fill="#2F3131"/>
<path transform="translate(490,1199)" d="m0 0 2 4 1 9 3-1v-6l-2-2 4 1 1 7-3 3h-5l-1-1z" fill="#363637"/>
<path transform="translate(382,1145)" d="m0 0h2v5l6-5 2 1-4 4 2 5 2 3-4-1-2-4-2 6h-2z" fill="#2A2C2C"/>
<path transform="translate(267,184)" d="m0 0h1l-1 10-1 3h-6l2-5z" fill="#FEFEFD"/>
<path transform="translate(316,1226)" d="m0 0 2 2-1 11 5-1v-12l3 1-1 12-1 1h-7l-1-1v-12z" fill="#2B2D2D"/>
<path transform="translate(417,1228)" d="m0 0 5 2-1 5-3 1v-3l2-2-4-1v8h5v2l-4 1-4-3v-6z" fill="#2E3030"/>
<path transform="translate(731,1097)" d="m0 0 3 1v9l-1 1h-6l-1-1v-9l3 1-1 7 4-1v-3h-2z" fill="#313233"/>
<path transform="translate(220,823)" d="m0 0 3 1v4l-9 2-2 1-2-1v-3z" fill="#2A2F35"/>
<path transform="translate(146,1203)" d="m0 0h2l1 10 4-1v-9h2v10l-1 1h-7l-1-3z" fill="#2D2E2F"/>
<path transform="translate(750,1144)" d="m0 0 6 2 1 3-4-2h-3l-1 5 6-1v2l-5 1v4h-3v-9l1-4z" fill="#2C2E2E"/>
<path transform="translate(229,816)" d="m0 0h4l-1 7-2 7-1-2h-4v-4h4z" fill="#282A2A"/>
<path transform="translate(1565,228)" d="m0 0h9v2h-6v11h-4z" fill="#FEFEFD"/>
<path transform="translate(238,1229)" d="m0 0h6l1 1v10l-6 1-2-2v-6h4v2h-2v4l4-1-1-5 1-3h-5z" fill="#2E3030"/>
<path transform="translate(197,1229)" d="m0 0h1l1 9h3l1-9h2v10l-3 2-5-1-1-2v-8z" fill="#2E3030"/>
<path transform="translate(233,1203)" d="m0 0h6l1 4-1 7-4-1h2l1-9-3 1-1 8-3-1 1-8z" fill="#2D2F2F"/>
<path transform="translate(277,1230)" d="m0 0h4v10l-4 1-1-9z" fill="#FEFEFD"/>
<path transform="translate(188,1175)" d="m0 0h2l2 9h2l1-9h2v10l-1 1h-6l-2-6z" fill="#333435"/>
<path transform="translate(799,1096)" d="m0 0 4 1 2 2v8l-7 1-1-5 4-4-2 6h3v-6l-4-2z" fill="#2B2D2D"/>
<path transform="translate(1728,1260)" d="m0 0h9l-2 2h-4v10h-3z" fill="#1F2222"/>
<path transform="translate(418,1145)" d="m0 0h2v14h-2l-1-9-2 6-3-1 3-6z" fill="#2A2C2C"/>
<path transform="translate(427,1093)" d="m0 0 6 1 1 5-5 6 5 1v1l-8 1v-3l3-5 2-1 1-4-7 1v-2z" fill="#2C2E2E"/>
<path transform="translate(335,1097)" d="m0 0h5l1 6h-2v-5h-3v7h5l-1 3h-5l-2-2v-6z" fill="#303132"/>
<path transform="translate(131,1252)" d="m0 0h2l1 2v7h2l1-5 1 3v6l-4 1-3-12z" fill="#323333"/>
<path transform="translate(1675,1259)" d="m0 0h6l-2 3-1 10h-3z" fill="#232626"/>
<path transform="translate(210,1229)" d="m0 0h6l1 1v10h-2v-10h-4v9h-3l1-9z" fill="#2D2F2F"/>
<path transform="translate(178,1229)" d="m0 0h7l2 7-1 4-2-1v-6l-1-2h-3l-1 9h-2v-9z" fill="#2E3030"/>
<path transform="translate(479,1203)" d="m0 0h5l2 5-1 5-1 1h-5l-2-5 3-3v7l3-3v-6l-4 1z" fill="#2F3031"/>
<path transform="translate(361,1097)" d="m0 0 3 1v9l-1 1h-6l-1-1v-9h2l1 7v2l4-1z" fill="#333434"/>
<path transform="translate(164,1097)" d="m0 0 4 1v8l-5 2-3-1v-9l3 1-1 7 4-1z" fill="#303232"/>
<path transform="translate(208,1097)" d="m0 0h5l1 5-3 1 1-5-3 1-1 6 7 1-3 2-6-1-1-7z" fill="#303232"/>
<path transform="translate(690,1097)" d="m0 0 8 1v9h-2v-8h-4l-1 9-2-1v-9z" fill="#333435"/>
<path transform="translate(765,1094)" d="m0 0 2 1v11l-1 1h-8l-1-5 2-5 4 1-3 2v5h4v-8z" fill="#2D2E2F"/>
<path transform="translate(363,1229)" d="m0 0h1l1 10 3-1 2-9h1v10l-6 2-3-4v-7z" fill="#303132"/>
<path transform="translate(372,1202)" d="m0 0h1v11l-1 1h-6l-2-3v-8h2l1 10 3-1z" fill="#2D2F2F"/>
<path transform="translate(203,1176)" d="m0 0h5l-1 9-4-1-1-7z" fill="#FEFEFD"/>
<path transform="translate(161,1148)" d="m0 0 4 2v5l-2-1v-4l-3 1v6h5v2h-6l-2-1v-8z" fill="#2B2C2D"/>
<path transform="translate(782,1149)" d="m0 0 4 2v6l-5 2-1-8z" fill="#FEFEFD"/>
<path transform="translate(1663,1261)" d="m0 0 4 1v6l-1 1h-5v-7z" fill="#FEFEFD"/>
<path transform="translate(430,1202)" d="m0 0 4 1v10l-4 2v-2l2-1v-7h-3v8l-2-1-1-6z" fill="#2E3030"/>
<path transform="translate(768,1149)" d="m0 0 2 1-1 6 4 1-1-8 3 1v7l-2 2h-5l-2-2 1-7z" fill="#2E3030"/>
<path transform="translate(248,1149)" d="m0 0h2l1 8 3-1 1-7h2l-1 9-1 1h-6l-1-1z" fill="#353637"/>
<path transform="translate(451,1093)" d="m0 0 7 1v6l-4 6 4-1 1 2-8 1v-3l5-7v-2l-5-1z" fill="#303132"/>
<path transform="translate(779,1098)" d="m0 0 4 1 1 1v5l-1 1h-5v-7z" fill="#FEFEFD"/>
<path transform="translate(1659,264)" d="m0 0 4 1-5 5-1 9-3-1 1-12z" fill="#FEFEFD"/>
<path transform="translate(1736,259)" d="m0 0h2l1 19-3 1z" fill="#FEFEFD"/>
<path transform="translate(1805,1259)" d="m0 0h3l1 7-1 6h-3z" fill="#1F2222"/>
<path transform="translate(327,1255)" d="m0 0 5 1 1 10h-2l-1-8-4-1v8l-3 1 1-10z" fill="#2E2F30"/>
<path transform="translate(247,1204)" d="m0 0h4v7l-4 2-2-7z" fill="#FEFEFD"/>
<path transform="translate(973,1149)" d="m0 0 2 1 1 7 3-1 1-7h2v7l-2 3h-6l-1-2z" fill="#363637"/>
<path transform="translate(328,1150)" d="m0 0h5v6l-5 2-1-1v-6z" fill="#FEFEFD"/>
<path transform="translate(264,1098)" d="m0 0 5 1v7h-5l-1-7z" fill="#FEFEFD"/>
<path transform="translate(1576,228)" d="m0 0h3v14h-3z" fill="#FEFEFD"/>
<path transform="translate(277,1203)" d="m0 0h7l1 5-2 6-3-1 2-2v-6l-4-1 1 7-2 2-1-1v-7z" fill="#303132"/>
<path transform="translate(680,1098)" d="m0 0 4 1v7h-5l-1-5z" fill="#FEFEFD"/>
<path transform="translate(296,1098)" d="m0 0h3l1 7-5 1-1-1v-5z" fill="#FEFEFD"/>
<path transform="translate(388,1257)" d="m0 0 4 1v6l-4 1-2-2 1-5z" fill="#FEFEFD"/>
<path transform="translate(257,1203)" d="m0 0h1l1 10 3-2 1-8h2v10l-7 1-1-1-1-9z" fill="#2A2C2C"/>
<path transform="translate(414,1201)" d="m0 0 4 4 3 1 3 6-1 2-3-5v-2h-4v6l-3-1z" fill="#292B2B"/>
<path transform="translate(234,1171)" d="m0 0 7 1v3l-6-2v12l-2 1v-14z" fill="#353637"/>
<path transform="translate(345,1176)" d="m0 0 4 1v6l-4 2-2-5z" fill="#FEFEFD"/>
<path transform="translate(963,1150)" d="m0 0h5v7h-5l-1-1v-5z" fill="#FEFEFD"/>
<path transform="translate(951,1145)" d="m0 0h2l1 4h4l2-4 2 1-3 4h-2v8h-3v-7l-3-4z" fill="#343536"/>
<path transform="translate(218,890)" d="m0 0 7 2 3 4-1 3-2 1-2-5-7-1z" fill="#2A2C2C"/>
<path transform="translate(1811,228)" d="m0 0h3v14h-3z" fill="#FEFEFD"/>
<path transform="translate(353,1230)" d="m0 0 4 1v7l-4 1-1-1v-6z" fill="#FEFEFD"/>
<path transform="translate(149,1230)" d="m0 0 4 1v6l-4 2-1-1v-7z" fill="#FEFEFD"/>
<path transform="translate(355,1204)" d="m0 0h4l1 6-3 3h-2l-1-3z" fill="#FEFEFD"/>
<path transform="translate(196,1150)" d="m0 0h5v7h-5l-1-5z" fill="#FEFEFD"/>
<path transform="translate(366,824)" d="m0 0h10v4l-12-1-1-2z" fill="#2D2F2F"/>
<path transform="translate(137,189)" d="m0 0h2l1 7-1 3h-2l-2 4-1-4z" fill="#0F3887"/>
<path transform="translate(236,184)" d="m0 0h1v12l-5 1 2-8z" fill="#FEFEFD"/>
<path transform="translate(266,1257)" d="m0 0 4 1-1 6-4 1-1-1v-5z" fill="#FEFEFD"/>
<path transform="translate(906,1148)" d="m0 0h2l2 10-1 1h-6l1-3 4 1-1-7h-2l-1 3h-2l2-4z" fill="#373738"/>
<path transform="translate(397,1144)" d="m0 0 5 1-4 2v7l-1 5-4-1h2v-10z" fill="#303232"/>
<path transform="translate(711,1098)" d="m0 0 4 1v6l-4 2-1-1v-7z" fill="#FEFEFD"/>
<path transform="translate(389,1098)" d="m0 0 5 1v6l-5 1z" fill="#FEFEFD"/>
<path transform="translate(212,1204)" d="m0 0 4 1-1 7-3 1-1-1v-7z" fill="#FEFEFD"/>
<path transform="translate(842,1148)" d="m0 0 7 1v10l-2-2v-6h-4l-1 8-2-1 1-9z" fill="#2B2C2D"/>
<path transform="translate(1e3 1145)" d="m0 0h10v1l-8 1-1 12h-2v-13z" fill="#333434"/>
<path transform="translate(276,1098)" d="m0 0 5 1v6l-5 1z" fill="#FEFEFD"/>
<path transform="translate(227,1098)" d="m0 0 4 1v6l-5 1v-7z" fill="#FEFEFD"/>
<path transform="translate(1557,228)" d="m0 0h3v14h-3z" fill="#FEFEFD"/>
<path transform="translate(1757,1260)" d="m0 0h3v12h-3z" fill="#1D2020"/>
<path transform="translate(209,1257)" d="m0 0 5 1 1 4-3 3-3-1z" fill="#FEFEFD"/>
<path transform="translate(130,1171)" d="m0 0h12l-4 4v10h-3l1-12-6-1z" fill="#323333"/>
<path transform="translate(1784,271)" d="m0 0h2l-1 5-1 1h-5l-1-4z" fill="#183C85"/>
<path transform="translate(156,1256)" d="m0 0h2v10h-7l-1-4 2-4h2l-1 6 3-1z" fill="#2A2C2C"/>
<path transform="translate(234,1257)" d="m0 0h4v7l-3 1-2-1v-6z" fill="#FEFEFD"/>
<path transform="translate(856,1150)" d="m0 0h4v7h-5v-6z" fill="#FEFEFD"/>
<path transform="translate(880,1097)" d="m0 0 2 1 1 9-7 1-2-5 2-1 1 3 4 1z" fill="#2E2F30"/>
<path transform="translate(748,1097)" d="m0 0 2 1-2 8 6-1-1 3-7-1v-8z" fill="#303132"/>
<path transform="translate(234,824)" d="m0 0h9v4h-9z" fill="#3C3C3D"/>
<path transform="translate(1696,266)" d="m0 0 5 1-1 4h-4l-2 4v-6z" fill="#183D87"/>
<path transform="translate(438,1226)" d="m0 0 2 1v2l3 1h-3l1 8 2 1v2l-4-1-1-4z" fill="#2E2F2F"/>
<path transform="translate(344,1203)" d="m0 0h6v1l-5 1v7l4-2-1 4-5-1-1-2v-6z" fill="#2D2E2F"/>
<path transform="translate(466,1203)" d="m0 0 2 1 2 6 3-6 2 1-3 8-4-1z" fill="#2F3030"/>
<path transform="translate(510,1204)" d="m0 0 4 1 1 7-5-1z" fill="#FEFEFD"/>
<path transform="translate(218,1172)" d="m0 0h2v2l3 1-3 1 1 9 2 1-4-1-1-3z" fill="#343435"/>
<path transform="translate(1030,1150)" d="m0 0 4 1v6h-5v-6z" fill="#FEFEFD"/>
<path transform="translate(810,1097)" d="m0 0h6l-1 2-4-1v8l6-1v2l-7 1-1-1v-9z" fill="#2F3030"/>
<path transform="translate(306,1093)" d="m0 0 4 1-2 2-1 11-2 1v-13z" fill="#2C2D2E"/>
<path transform="translate(1617,266)" d="m0 0 5 1v4h-4l-2 5h-1l1-9z" fill="#163C87"/>
<path transform="translate(1629,235)" d="m0 0h6v5h-6l-1-4z" fill="#113884"/>
<path transform="translate(276,1252)" d="m0 0 4 1-3 1-1 12-2-1v-12z" fill="#303132"/>
<path transform="translate(136,1199)" d="m0 0 4 3-1 4-1-3-2-1-1 8-4 4 1-5z" fill="#292B2B"/>
<path transform="translate(369,1146)" d="m0 0h2v3l2 1-2 7h2v2l-4-1z" fill="#333435"/>
<path transform="translate(399,1145)" d="m0 0 3 1v6h-3l-1 2-1-7z" fill="#FEFEFD"/>
<path transform="translate(232,818)" d="m0 0h1l2 9-2 9h-1l-1-10v-3z" fill="#183264"/>
<path transform="translate(1777,265)" d="m0 0 2 2 1-1h5l-1 4-8 1z" fill="#183F8C"/>
<path transform="translate(252,1174)" d="m0 0 5 1 1 2v8l-4 1 1-2v-7l-4-2z" fill="#2F3031"/>
<path transform="translate(812,1149)" d="m0 0 2 1-1 1v5h6l-1 3h-6l-2-2 1-7z" fill="#323334"/>
<path transform="translate(937,1146)" d="m0 0 3 1v9l2 1v2l-4-1-1-3z" fill="#313233"/>
<path transform="translate(875,1145)" d="m0 0 3 1 1 5-5 1-1-5z" fill="#FEFEFD"/>
<path transform="translate(148,1098)" d="m0 0 2 1 1 6 2-1 1-6h2l-2 9-2 1-3-3z" fill="#2B2D2E"/>
<path transform="translate(738,1094)" d="m0 0 3 3v8l1 3h-3l-1-2z" fill="#2E2F30"/>
<path transform="translate(411,1257)" d="m0 0 3 1 1 6-4 1-1-1v-6z" fill="#FEFEFD"/>
<path transform="translate(370,1253)" d="m0 0 4 2-2 4h-2l-1 2-1-7z" fill="#FEFEFD"/>
<path transform="translate(176,1201)" d="m0 0h4v3h-2l2 10h-3z" fill="#2F3131"/>
<path transform="translate(182,1151)" d="m0 0h1v5l-1 1h-5v-5z" fill="#FEFEFD"/>
<path transform="translate(750,1146)" d="m0 0 4 1 2 3-4 2h-3v-5z" fill="#FEFEFD"/>
<path transform="translate(469,1093)" d="m0 0h1l1 13-5-1 3-1v-7l-3-1z" fill="#2A2C2C"/>
<path transform="translate(835,1097)" d="m0 0h4l-1 2h-4l1 6 5 1-2 2-5-1-1-7z" fill="#303232"/>
<path transform="translate(240,1098)" d="m0 0 3 1v6l-4 1-1-3z" fill="#FEFEFD"/>
<path transform="translate(442,907)" d="m0 0 3 1-2 7-3 2-1-2z" fill="#282A2A"/>
<path transform="translate(169,1252)" d="m0 0 2 1-1 5v7l-3 1v-11z" fill="#2C2E2E"/>
<path transform="translate(187,1252)" d="m0 0h2l1 5-1 9h-2z" fill="#2F3031"/>
<path transform="translate(249,1227)" d="m0 0 5 1-3 1v10l2 1h-3l-1-2z" fill="#2E2F30"/>
<path transform="translate(179,1171)" d="m0 0h2l-1 4-4 10-2 1 3-11z" fill="#292B2B"/>
<path transform="translate(215,1146)" d="m0 0 4 1 1 4-6 1v-5z" fill="#FEFEFD"/>
<path transform="translate(180,1253)" d="m0 0 2 1 1 10 1 2h-4z" fill="#2B2C2D"/>
<path transform="translate(148,1252)" d="m0 0 1 2-3 11-3 1 1-4 3-9z" fill="#292B2C"/>
<path transform="translate(452,1202)" d="m0 0 2 1-2 3v5l3 3-5-1-1-1v-6z" fill="#2C2F33"/>
<path transform="translate(222,1203)" d="m0 0h6v1l-5 1v6l4 1v2h-5l-2-6z" fill="#292B2C"/>
<path transform="translate(481,1204)" d="m0 0h2l1 6-2 3h-2v-8z" fill="#FEFEFD"/>
<path transform="translate(203,1202)" d="m0 0h3v2h-2v9l-3 1 1-10z" fill="#323333"/>
<path transform="translate(181,1174)" d="m0 0 3 3 2 9-3-1v-4l-4 1 1-2h2z" fill="#333435"/>
<path transform="translate(916,1150)" d="m0 0h3v7l-3 1-1-1v-6z" fill="#FEFEFD"/>
<path transform="translate(895,1149)" d="m0 0 2 1 1 6-5 1 1-7z" fill="#FEFEFD"/>
<path transform="translate(794,1150)" d="m0 0 3 1v6l-4 1v-6z" fill="#FEFEFD"/>
<path transform="translate(240,1146)" d="m0 0 4 4v9l-3-1z" fill="#343536"/>
<path transform="translate(641,1098)" d="m0 0h2l2 6-1 2h-4z" fill="#FEFEFD"/>
<path transform="translate(577,1098)" d="m0 0h3l1 7-4 1-1-3z" fill="#FEFEFD"/>
<path transform="translate(867,1095)" d="m0 0 3 1-1 6v4l4 1-5 1-1-1z" fill="#343536"/>
<path transform="translate(169,900)" d="m0 0h10v3h-8l-3-2z" fill="#2E3030"/>
<path transform="translate(169,891)" d="m0 0 5 1-4 3-6 3 2-5z" fill="#252727"/>
<path transform="translate(159,1229)" d="m0 0h6l-3 2-1 9h-2z" fill="#313233"/>
<path transform="translate(193,1200)" d="m0 0 4 1 1 3-2 2-4-1z" fill="#FEFEFD"/>
<path transform="translate(230,1149)" d="m0 0 3 1-2 1 1 6h5l-1 2h-6l-2-4 1-5z" fill="#2E2F30"/>
<path transform="translate(831,1150)" d="m0 0h3l1 7-3 1-2-4z" fill="#FEFEFD"/>
<path transform="translate(360,1149)" d="m0 0h2l1 7-4 2z" fill="#FEFEFD"/>
<path transform="translate(846,1098)" d="m0 0 3 1 1 6-4 1-1-3z" fill="#FEFEFD"/>
<path transform="translate(263,1148)" d="m0 0 3 1-1 2-3-1v8h-3l1-9z" fill="#303131"/>
<path transform="translate(431,1151)" d="m0 0 5 1v6l-5 1-3-2 6-1-3-3z" fill="#373839"/>
<path transform="translate(408,1145)" d="m0 0 3 1-2 12h-2z" fill="#272929"/>
<path transform="translate(547,1098)" d="m0 0h2l1 7-4 1-1-3z" fill="#FEFEFD"/>
</svg>
