<?xml version="1.0" encoding="UTF-8"?>
<svg version="1.1" viewBox="0 0 2048 1433" width="800" height="560" xmlns="http://www.w3.org/2000/svg">
<path transform="translate(0)" d="m0 0h2048v1433h-2048z" fill="#FCFCFC"/>
<path transform="translate(1464)" d="m0 0h436l1 358-30 7-131 29-53 12h-7l-86-19-108-24-21-4-1-1z" fill="#024678"/>
<path transform="translate(0)" d="m0 0h55v1433h-55z" fill="#024678"/>
<path transform="translate(2e3)" d="m0 0h50v1433h-50z" fill="#024678"/>
<path transform="translate(0)" d="m0 0h6l1 10v1423h-7z" fill="#33302C"/>
<path transform="translate(472,564)" d="m0 0h29l9 2 6 5 2 4v9l-3 6-2 1v2l5 4 3 7-1 10-4 6-5 3-4 1-19 1h-16z" fill="#393A3C"/>
<path transform="translate(610,562)" d="m0 0h15v62l-1 1h-13l-1-5-8 5-3 1h-7l-8-4-6-9-1-3v-16l5-10 5-4 5-2 10 1 8 5z" fill="#353A40"/>
<path transform="translate(340,578)" d="m0 0 9 1 5 3 2 3 4-2 6-4 8-1 7 3 5 6 1 3v35h-14l-1-30-1-4-6-1-4 4-1 3-1 22-2 6h-10l-3-1-1-31-1-2-5-1-5 3-2 7-1 24-1 1h-12l-1-1v-44l5-1h9l1 5 7-5z" fill="#373A3D"/>
<path transform="translate(159,565)" d="m0 0h16l1 42 3 5 2 1h8l4-1 2-12 1-35h15v42l-3 9-5 5-8 4-13 1-10-2-6-4-4-5-2-5-1-8z" fill="#373A3D"/>
<path transform="translate(621,671)" d="m0 0 23 1 6 3 3 4 1 8-3 6h-2v3l4 2 2 3 1 9-3 6-5 4-3 1-29 1-1-1v-49z" fill="#363A3F"/>
<path transform="translate(277,578)" d="m0 0h12l8 2 6 4 4 9v31l-1 1h-13l-1-4-4 2-7 3h-9l-6-4-4-5-1-3v-7l3-6 6-4 13-2 9-1-1-3-4-2h-12l-10 2v-10l4-2z" fill="#373A3E"/>
<path transform="translate(647,578)" d="m0 0h11l9 2 6 5 3 8v31l-1 1h-13l-2-5-6 5-4 1h-8l-6-3-5-6v-12l4-6 7-3 10-1h10l-3-5-3-1h-12l-9 2-1-1v-9l5-2z" fill="#373A3E"/>
<path transform="translate(410,578)" d="m0 0h11l10 3 5 4 3 7v33h-14l-1-5-5 4-6 2h-9l-6-4-4-6v-11l4-6 7-3 19-2-1-3-4-2h-12l-10 2v-10l4-2z" fill="#373A3E"/>
<path transform="translate(542,578)" d="m0 0h11l9 2 7 6 2 5v34h-14v-5l-8 5-3 1h-9l-6-3-4-5-1-2v-11l4-6 7-3 11-1h9l-3-5-2-1h-13l-9 2-1-10 4-2z" fill="#373A3E"/>
<path transform="translate(887,683)" d="m0 0 9 1 6 4 1-4h11v38l-4 8-5 4-5 2h-15l-6-2-1-3 1-5 5 1h12l5-5 1-5-7 4h-9l-5-3-5-6-2-6 1-11 3-6 6-5z" fill="#373A3E"/>
<path transform="translate(1020,670)" d="m0 0h12l1 18 6-4 8-1 8 4 5 9v13l-4 8-6 5-7 1-7-3-3-2-2 4h-10l-1-1z" fill="#383A3D"/>
<path transform="translate(415,683)" d="m0 0 9 2 3 3 4-1 4-3 7-1 7 3 3 4 1 3v28l-5 1-7-1-1-26-1-1h-6l-2 3-1 17-1 7h-11l-1-21-1-6h-7l-2 3-2 24-1 1h-7l-3-1v-37h11v4z" fill="#373A3E"/>
<path transform="translate(1210,683)" d="m0 0 7 1 6 5 1 2 1 25-1 5h-11l-2-27h-7l-2 4-1 22-1 1h-11l-1-28-8 1-2 3-1 24h-12v-37h11l1 4 6-4h10l4 2 3 3 6-5z" fill="#373A3D"/>
<path transform="translate(1422,683)" d="m0 0h8l9 3 6 7 2 6v9l-4 8-8 6-3 1h-11l-8-4-5-6-2-5v-11l4-8 5-4z" fill="#373A3D"/>
<path transform="translate(989,683)" d="m0 0h7l9 3 6 7 2 5v10l-4 8-6 5-7 2-11-1-8-5-4-6-1-3v-10l4-9 8-5z" fill="#373A3D"/>
<path transform="translate(232,578)" d="m0 0h12l11 2 1 11-8-1-5-1h-10l-2 6 15 2 9 3 3 5 1 9-3 6-5 4-7 2h-13l-11-2-2-2v-9l2-1 9 3h13l2-2-1-4-18-4-5-3-2-4v-11l3-5 6-3z" fill="#373A3E"/>
<path transform="translate(1104,671)" d="m0 0h16l9 3v9l-19-2-4 2-1 3 3 3 16 4 7 6 1 10-3 7-6 5-7 2-13-1-10-3v-11l12 4h10l3-2v-5l-18-6-5-4-2-4v-9l3-6z" fill="#373A3E"/>
<path transform="translate(210,126)" d="m0 0h24l9 2 5 5 1 2v12l-4 6-6 3-13 1-2-1 1 19 6 2-1 2h-19v-3l4-1 1-47h-6z" fill="#2F3334"/>
<path transform="translate(1318,683)" d="m0 0h9l10 3 4 5 1 3v27l-1 1h-9l-2-4-4 2-5 3h-7l-7-5-2-3v-10l5-6 11-2h9l-2-4-3-1h-8l-9 2v-9z" fill="#373A3E"/>
<path transform="translate(479,683)" d="m0 0h7l8 3 6 7 2 6v7l-27 2 2 4 2 1h11l11-2-1 7-4 3-11 3-8-1-9-5-5-7-1-3v-10l4-8 6-5z" fill="#363A3F"/>
<path transform="translate(677,683)" d="m0 0h10l9 3 4 5 1 2v28l-10 1-3-4-5 4-9 1-7-4-3-5v-8l3-5 6-3 16-2-2-3-3-1h-7l-10 2v-9z" fill="#363A3E"/>
<path transform="translate(290,683)" d="m0 0h7l7 3 5 4 3 7 1 9-12 1h-15l1 4 3 2h11l10-2v7l-4 3-8 2h-10l-7-3-7-6-2-4v-14l5-8 7-4z" fill="#363A3F"/>
<path transform="translate(1770,105)" d="m0 0h6l3 2 10-1 1 1v32l-4 8-8 5h-9l-8-4-2-3v-5l4-1 5 4 2 1h7l4-4 1-5-4 2h-11l-6-5-2-4v-13l4-6z" fill="#FDFDFD"/>
<path transform="translate(760,670)" d="m0 0h12v26l8-7 4-4 3-1h11l-2 4-7 7-6 5 1 4 15 15v2h-13l-13-13-1 13h-12z" fill="#393A3C"/>
<path transform="translate(264,126)" d="m0 0h10l11 26 5 12v2h2l2-9 11-27 1-3 13-1 1 2-5 1v42l1 4 5 2v2h-19v-3h4v-40l-10 26-7 17-3-2-15-36-2-5-1 39 5 2 1 2h-12l-3-2 6-3 1-46h-6z" fill="#303232"/>
<path transform="translate(1601,87)" d="m0 0 5 5 6 9-1 5-13 18-6 8-4-2-17-12-6-4 1-3 22-15z" fill="#FDFDFD"/>
<path transform="translate(182,684)" d="m0 0h11l1 4 7-4h11l6 5 2 7v16l-1 9h-11l-1-6-1-20-1-1h-7l-3 4-1 23h-12z" fill="#363A3F"/>
<path transform="translate(713,684)" d="m0 0h10l1 4 7-4h10l5 3 3 5v29h-12l-1-26-1-1h-7l-3 4-1 23h-12v-36z" fill="#393A3C"/>
<path transform="translate(1455,684)" d="m0 0h11l2 4 6-4h11l5 4 2 5v28h-12l-1-26-1-1h-8l-2 3-1 20-1 4h-11z" fill="#383A3D"/>
<path transform="translate(514,684)" d="m0 0h7l1 4 7-4h11l6 5 1 3v29h-11l-2-26-1-1h-7l-3 4-1 23-11 1-1-1v-36z" fill="#343B41"/>
<path transform="translate(829,684)" d="m0 0h11l2 4 6-4h10l6 5 2 5v27h-12l-1-25-1-2h-9l-2 8-1 19h-11l-1-19v-15z" fill="#38393C"/>
<path transform="translate(1245,684)" d="m0 0 2 1 1 24 1 3h7l3-3 2-24 11-1v38h-10l-1-5-10 6h-8l-7-8-1-3v-27z" fill="#373A3D"/>
<path transform="translate(1735,105)" d="m0 0 7 1 5 2 6-2 2 1v31h-7l-4-1-1 1h-12l-5-4-3-6v-12l3-6 5-4z" fill="#FDFDFD"/>
<path transform="translate(1561,115)" d="m0 0 4 2 17 12 7 5-1 4-12 16-2 2-4-1-9-10-13-19v-3z" fill="#FDFDFD"/>
<path transform="translate(331,683)" d="m0 0 16 1 3 1v9l-12-2-7 1-1 4 14 2 6 3 3 5-1 9-6 5-5 2h-11l-9-2-1-1v-8l7 1h14l-1-4-16-4-4-4-1-3v-7l5-6z" fill="#363A3F"/>
<path transform="translate(712,578)" d="m0 0h5l1 13h-11l-5 3-2 4-1 26h-15v-44l14-1v6l5-3 4-3z" fill="#373A3E"/>
<path transform="translate(950,672)" d="m0 0h12l1 1v47l-3 9-5 4-7 2h-8v-9l8-3 1-2z" fill="#39393B"/>
<path transform="translate(1681,105)" d="m0 0h7l7 4 4 6 1 10-3 7-7 6-7 1-9-3-4-5-2-5v-8l4-8 5-4z" fill="#FDFDFD"/>
<path transform="translate(1543,87)" d="m0 0 18 6 16 6-5 5-20 14-7 4-10-14-2-3 1-7z" fill="#FDFDFD"/>
<path transform="translate(449,140)" d="m0 0h7l7 3 3 5 1 26h3l3-3-1 6-2 2h-8l-3-3v-2l-7 5-8 1-5-3-2-3v-9l7-6 11-3h3l-1-12h-11l-2 8-3 1-3-2 1-6 6-4z" fill="#323231"/>
<path transform="translate(363,674)" d="m0 0h12v10h11l1 1v7l-1 1h-11v19l11 1v7l-1 1h-15l-6-4-1-2-1-21-5-1v-9h6l-1-6z" fill="#363A3F"/>
<path transform="translate(560,674)" d="m0 0h12v10h12v9h-12l1 18 1 1 9 1v8h-15l-6-4-2-4v-20h-6v-8l1-1h5z" fill="#363A3F"/>
<path transform="translate(227,684)" d="m0 0h11l4 9 5 14 1 1 8-23 1-1h11l-1 6-12 29-1 2-12 1-3-4-10-26-2-5z" fill="#373A3F"/>
<path transform="translate(1354,674)" d="m0 0h12v10h12v9h-12l1 17 1 2 9 1v8h-15l-6-4-2-6v-18h-5l-1-5v-3l6-1z" fill="#393A3D"/>
<path transform="translate(642,805)" d="m0 0 3 1v3l7-4 7 1 5 5 2 6v8l-4 8-6 3-7-1-4-3v14h-5v-39z" fill="#2B353A"/>
<path transform="translate(430,139)" d="m0 0h4v6l-1 2h-5v10l-3 6-6 4-12 2-8-7-1-3v-7l3-7 5-4 10-1 7 3 4 1z" fill="#313333"/>
<path transform="translate(475,141)" d="m0 0h11l2 6 6-5 2-1h8l5 4 1 2 1 26 5 5-1 1h-15l-1-3 3-2v-22l-2-6h-6l-4 3-1 4v20l4 5-1 1h-17l1-3 3-2 1-31-5-1z" fill="#2F3436"/>
<path transform="translate(565,805)" d="m0 0 9 1 5 5 2 5v9l-3 6-5 4-8 1-6-3-4-6-1-9 3-8 5-4z" fill="#2F3334"/>
<path transform="translate(765,805)" d="m0 0h8l6 4 3 6v11l-3 5-5 4-7 1-7-3-4-7v-11l3-6 3-3z" fill="#303334"/>
<path transform="translate(459,805)" d="m0 0h7l6 4 3 5v13l-4 6-6 3-9-1-6-7-1-3v-9l4-8z" fill="#303233"/>
<path transform="translate(1806,105)" d="m0 0 8 1 6 4 4 8v5l-3 1h-20l3 6 6 2 7-3 5 1-2 5-5 3-7 1-7-2-6-7-1-2v-11l3-6 6-5z" fill="#FDFDFD"/>
<path transform="translate(158,672)" d="m0 0h13v49h-13z" fill="#373A3D"/>
<path transform="translate(1550,79)" d="m0 0h46l3 3-1 4-16 11-6-1-30-11 1-4z" fill="#FDFDFD"/>
<path transform="translate(1284,670)" d="m0 0h11l1 9v39l-1 4-11-1z" fill="#313A42"/>
<path transform="translate(338,143)" d="m0 0h8l4 5 1 5v13l-2 9-4 3h-7l-5-5-1-3v-17l2-7z" fill="#FDFDFD"/>
<path transform="translate(1645,93)" d="m0 0 28 1v5l-1 1h-20l1 13h11l1 1v6h-13v18h-8v-44z" fill="#FDFDFD"/>
<path transform="translate(340,140)" d="m0 0 9 1 6 5 4 9v9l-3 8-5 6-5 2h-10l-5-3-5-6-2-7 1-12 3-6 5-4zm-2 3-5 5-1 5v17l3 6 3 2h7l5-5 1-7v-13l-2-7-3-3z" fill="#323231"/>
<path transform="translate(354,805)" d="m0 0h7l6 3 3 7v20l-2 1-2-1v-4l-5 4-9 1-6-5v-9l4-4 2-1 13-1-1-5-3-1h-8l-6 1 1-4z" fill="#2F3335"/>
<path transform="translate(175,126)" d="m0 0h21v2l-6 1-1 39-3 7-5 4-3 1h-11l-5-3-2-4 1-6h6l2 9 6 1 4-2 1-2 1-11v-33l-6-1z" fill="#323230"/>
<path transform="translate(698,805)" d="m0 0h7l6 4 3 7v5l-10 1h-12l3 7 3 2h8l8-1-1 3-9 3-8-1-6-4-3-5v-11l4-6 4-3z" fill="#2E3437"/>
<path transform="translate(410,805)" d="m0 0 9 1 5 6 2 8-1 1-17 1h-4l2 6 4 3h8l7-1-1 4-8 2-9-1-6-5-2-4v-11l4-6 4-3z" fill="#2F3335"/>
<path transform="translate(204,805)" d="m0 0 9 1 5 6 1 9-14 1-8-1 3 8 4 2h8l6-1-1 4-8 2-8-1-5-3-3-5-1-8 3-9 5-4z" fill="#2F3334"/>
<path transform="translate(601,805)" d="m0 0 6 1 5 5 1-3 6-3 7 1 4 5 1 4v20h-5l-1-23-2-2-7 1-3 4-1 20h-4l-1-19-2-6h-6l-5 4-1 21h-4v-29h4l1 3z" fill="#323230"/>
<path transform="translate(1385,684)" d="m0 0h11l1 1v36h-12z" fill="#383A3C"/>
<path transform="translate(805,684)" d="m0 0h11l1 1v35l-1 1h-11z" fill="#373A3E"/>
<path transform="translate(1142,684)" d="m0 0h11v37h-11l-1-2v-34z" fill="#353A40"/>
<path transform="translate(403,169)" d="m0 0 3 1-3 1-1 4 19 1 8 3 2 5-1 9-4 5-10 3-13-1-5-3-2-6 2-4h4l1 8 4 2h14l5-4v-6l-7-2-14-1-5-2-3-4 1-6z" fill="#313232"/>
<path transform="translate(362,141)" d="m0 0h12l1 1v6l8-7h7l4 4-1 5-3 1-4-3v-2l-5 2-3 4-1 3v20l7 2-2 2h-19v-3l5-2 1-31h-6z" fill="#313334"/>
<path transform="translate(224,129)" d="m0 0h11l6 4 1 3v12l-4 5-10 2h-4z" fill="#FDFDFD"/>
<path transform="translate(598,589)" d="m0 0h7l4 4 1 3v12l-4 6-2 1h-7l-4-4-1-3v-12l3-5z" fill="#FDFDFD"/>
<path transform="translate(451,157)" d="m0 0 3 1 4 1v12l1 3-7 5-8 1-5-3-2-3v-9l7-6z" fill="#313334"/>
<path transform="translate(293,862)" d="m0 0h2l1 10 4-2 6 1 4 4 1 9-3 6-3 2h-7-4-2v-29z" fill="#313334"/>
<path transform="translate(530,796)" d="m0 0h10l7 3 1 5-7-3h-10l-5 3-3 6v12l3 6 6 3h7l7-3 2-1v5l-6 3-10 1-8-3-5-6-2-5v-12l3-7 7-6z" fill="#2F3334"/>
<path transform="translate(168,796)" d="m0 0h11l7 4 1 4-8-3h-10l-6 4-2 4v13l3 6 6 3h7l7-3h3l-2 4-5 3-10 1-8-3-5-6-2-5v-12l3-7 7-6z" fill="#2F3334"/>
<path transform="translate(1718,105)" d="m0 0 5 1-1 5-9 4-1 4-1 18-1 1h-6l-1-1v-30l5-1 5 2z" fill="#FDFDFD"/>
<path transform="translate(766,809)" d="m0 0h6l5 5 1 9-3 6-4 3-7-1-3-4-1-9 3-7z" fill="#FDFDFD"/>
<path transform="translate(160,866)" d="m0 0h7l6 3 2 4v9l-2 4-7 3h-7v-22z" fill="#FDFDFD"/>
<path transform="translate(496,141)" d="m0 0h8l5 4 1 2 1 26 5 5-1 1h-15l-1-3 3-2v-22l-2-6-5-3z" fill="#303231"/>
<path transform="translate(565,809)" d="m0 0h6l4 4 1 2v10l-3 5-3 2-7-1-3-4-1-3v-8l4-6z" fill="#FDFDFD"/>
<path transform="translate(460,809)" d="m0 0 7 1 3 4 1 9-3 6-4 3h-5l-4-5-1-2v-10l4-5z" fill="#FDFDFD"/>
<path transform="translate(651,809)" d="m0 0 7 1 3 5v11l-5 6-7-1-4-5v-11l4-5z" fill="#FDFDFD"/>
<path transform="translate(412,142)" d="m0 0 6 2 2 3v15l-4 4h-7l-3-3-1-3v-9l3-7z" fill="#FDFDFD"/>
<path transform="translate(791,805)" d="m0 0 2 1 2 3 4-3 7-1 5 3 3 7v20h-5l-1-23-2-2h-6l-4 3-1 3-1 19h-4v-29z" fill="#283640"/>
<path transform="translate(990,692)" d="m0 0h6l4 4 1 9-3 7-3 2-7-1-3-3-1-10 2-5z" fill="#FDFDFD"/>
<path transform="translate(1424,692)" d="m0 0 7 1 3 3v13l-4 4-6 1-5-4-1-3v-8l3-5z" fill="#FDFDFD"/>
<path transform="translate(1037,692)" d="m0 0h6l4 4 1 2v9l-3 5-3 2h-5l-4-4-1-3v-8l3-5z" fill="#FDFDFD"/>
<path transform="translate(1683,111)" d="m0 0 6 2 3 4v10l-5 5h-6l-5-4-1-9 3-5z" fill="#024678"/>
<path transform="translate(237,127)" d="m0 0 6 1 5 5 1 2v12l-4 6-6 3-13 1-2-1v19h-1v-47h11v1h-10v26l12-2 5-5v-12l-2-4-4-3h2z" fill="#303538"/>
<path transform="translate(157,863)" d="m0 0h10l8 3 3 4 1 4v7l-3 7-5 3-4 1h-11l-1-1v-27zm3 3-1 1v22h7l7-3 2-4v-9l-3-5-5-2z" fill="#2B353B"/>
<path transform="translate(1735,112)" d="m0 0h7l4 4 1 2v8l-2 4-3 2h-7l-4-4-1-9 3-5z" fill="#024678"/>
<path transform="translate(561,864)" d="m0 0h5l1 2v15l4 2-1 2-3 1v5l-4 1v-7h-13l1-6 8-12z" fill="#313334"/>
<path transform="translate(237,870)" d="m0 0h6l5 5 1 7-11 1-5-1 3 6h12l-1 3-8 2-7-3-2-3-1-7 3-7z" fill="#2D3539"/>
<path transform="translate(192,870)" d="m0 0h6l5 5 1 6-1 1h-15l2 5 1 1h12l-1 3-2 1h-10l-5-5-1-2v-7l3-5z" fill="#2F3336"/>
<path transform="translate(323,870)" d="m0 0h6l5 5 1 6-1 1h-15l2 5 1 1h12l-2 4h-11l-5-5-1-9 3-5z" fill="#2E3437"/>
<path transform="translate(892,692)" d="m0 0 7 1 3 5v8l-3 5-3 2-6-1-3-4v-11z" fill="#FDFDFD"/>
<path transform="translate(340,140)" d="m0 0h4v2l-6 2-4 4-1 5v17l3 6 2 2-5 1-7-8-2-7 1-12 3-6 5-4z" fill="#303233"/>
<path transform="translate(290,795)" d="m0 0h9v3l-8 1-1 7h8v3h-8v26h-5v-26h-5v-3h5l1-8z" fill="#2B353C"/>
<path transform="translate(262,870)" d="m0 0h5l4 3 5-3h5l3 3 1 5v14h-4v-9l-1-10-7 2-1 1-1 16h-3l-1-16-1-2-7 1-1 2-1 15h-3v-21z" fill="#313333"/>
<path transform="translate(249,798)" d="m0 0 5 1v6l10 1-1 4h-9l1 20 9 1-1 4h-7l-5-2-2-4v-20h-3v-3l3-2z" fill="#323434"/>
<path transform="translate(1771,112)" d="m0 0h6l5 5v9l-4 4-7 1-4-4-1-2v-8z" fill="#024678"/>
<path transform="translate(722,798)" d="m0 0 5 1v6l10 1-1 4-9-1 1 21 8 1v4h-8l-5-3-1-3-1-19-3-2v-2h4z" fill="#313333"/>
<path transform="translate(488,599)" d="m0 0h12l4 2 1 2v7l-5 4h-12l-1-1v-13z" fill="#FDFDFD"/>
<path transform="translate(380,798)" d="m0 0 5 1-1 7h10v4l-9-1 1 21 8 1 1 4h-10l-4-3-1-4v-19l-4-1 1-2h3z" fill="#343332"/>
<path transform="translate(328,805)" d="m0 0 9 1 3 3-2 2-3-1h-8l-4 3-1 3v8l3 5 3 2 12-1-1 4-7 2-8-1-5-4-3-8 1-10 5-6z" fill="#2D3438"/>
<path transform="translate(509,866)" d="m0 0 5 1 2 2 1 4v10l-3 5-4 2-4-3-1-3v-13z" fill="#FDFDFD"/>
<path transform="translate(488,795)" d="m0 0h10l-1 3-8 1-1 7h8l1 2-1 2h-7l-1 25h-4v-26l-4 1-1-4 4-1 2-8z" fill="#303233"/>
<path transform="translate(1713,1230)" d="m0 0h10l3 2v7l1 4-1 3-9 2-4-1-1-2v-14z" fill="#414648"/>
<path transform="translate(509,863)" d="m0 0 6 1 4 4 1 3v14l-4 6-6 2-6-3-3-7v-10l3-7zm0 3-4 5v13l3 5 4 1 4-4 1-3v-10l-2-5-3-2z" fill="#2F3335"/>
<path transform="translate(1608,216)" d="m0 0h9l1 2v12l-2 5h-10v-2l7-1 1-2h-7l-2-2v-9z" fill="#FDFDFD"/>
<path transform="translate(1643,251)" d="m0 0h9l3 3 1 7-4 5h-7v5l-3-1v-18z" fill="#FDFDFD"/>
<path transform="translate(1842,215)" d="m0 0 7 1 2 7-1 10-2 2h-9v-2l7-1 1-2h-7l-3-3 1-9z" fill="#FDFDFD"/>
<path transform="translate(1736,215)" d="m0 0 6 1 3 6-1 6-4 3-6-1 1 5h-4v-17z" fill="#FDFDFD"/>
<path transform="translate(410,140)" d="m0 0h6v3l-6 1-3 3-1 4v9l3 5 7 2v1l-9 1-8-7-1-3v-7l3-7 5-4z" fill="#2F3336"/>
<path transform="translate(482,863)" d="m0 0h7l5 4 1 7-7 9-5 4-1 2h13l-1 3h-16l-1-3 7-8 6-7v-6l-6-1-7 1v-3z" fill="#2F3336"/>
<path transform="translate(1673,210)" d="m0 0h3v20l-9 1-4-4v-7l5-5 6 1z" fill="#FDFDFD"/>
<path transform="translate(373,863)" d="m0 0 9 1 3 3 1 5-2 3h-2l4 6v6l-4 4-2 1h-10l-2-1v-3h12l1-1v-7l-9-3 1-2 7-1 1-1v-5l-2-1h-11l1-3z" fill="#2F3436"/>
<path transform="translate(532,863)" d="m0 0 9 1 3 4v7l-7 8-5 5h12v4h-17l-1-2 14-16v-5l-3-2-11 1 1-3z" fill="#2D3438"/>
<path transform="translate(619,805)" d="m0 0 7 1 4 5 1 4v20h-5l-1-23-2-2-7 1-3 2h-3v-2h2l1-3z" fill="#273640"/>
<path transform="translate(488,575)" d="m0 0h11l3 2v9l-3 2h-12v-12z" fill="#FDFDFD"/>
<path transform="translate(1547,216)" d="m0 0h9l3 4v7l-2 3-7 1-1 4h-3v-18z" fill="#FDFDFD"/>
<path transform="translate(454,159)" d="m0 0h4v12l-4 4-7 1-3-3v-7l5-5z" fill="#FDFDFD"/>
<path transform="translate(240,805)" d="m0 0 4 1-1 4-7 1-3 2-1 22h-5v-29h4v4l6-4z" fill="#2F3538"/>
<path transform="translate(674,795)" d="m0 0h5v40h-5z" fill="#28363E"/>
<path transform="translate(1748,251)" d="m0 0h8l3 3v8l-4 4h-6l-4-5 1-7z" fill="#FDFDFD"/>
<path transform="translate(1683,1234)" d="m0 0 8 1 5-1 3 2v12l-4-1v-10h-4v10l-4 1-1-10-4-1v11l-4-1v-12z" fill="#2E363B"/>
<path transform="translate(1555,246)" d="m0 0h6l-1 2-3 2 7 2 1 1v10l5-1 1-2 1-9h2l1 4v7l-1 3-9 1-3-3-1-6v-4h-4v12h-3l-1-16z" fill="#FDFDFD"/>
<path transform="translate(1753,215)" d="m0 0 5 1 3 4v7l-4 4h-6l-3-3-1-6 3-6z" fill="#FDFDFD"/>
<path transform="translate(629,700)" d="m0 0h8l5 2 1 4-2 6-12 1-1-1v-11z" fill="#FDFDFD"/>
<path transform="translate(1672,251)" d="m0 0h7l3 3v8l-4 4h-6l-3-3v-8z" fill="#FDFDFD"/>
<path transform="translate(299,873)" d="m0 0h5l3 3v10l-4 4-5-1-3-5 1-9z" fill="#FDFDFD"/>
<path transform="translate(546,604)" d="m0 0h10l1 4-3 6-3 2h-8l-3-3 1-7z" fill="#FDFDFD"/>
<path transform="translate(402,863)" d="m0 0 3 1v25h6v3h-16l-1-3 6-1v-21l-6 1v-3z" fill="#2E3539"/>
<path transform="translate(1665,1234)" d="m0 0h6l4 3v7l-4 4h-6l-3-3-1-7z" fill="#2F3335"/>
<path transform="translate(650,604)" d="m0 0h11v7l-5 5h-8l-3-3 1-7z" fill="#FDFDFD"/>
<path transform="translate(414,604)" d="m0 0h10v7l-5 5h-8l-3-3 1-7z" fill="#FDFDFD"/>
<path transform="translate(281,604)" d="m0 0h10l1 1-1 7-5 4h-7l-3-3v-6z" fill="#FDFDFD"/>
<path transform="translate(1703,1303)" d="m0 0h9v15l-5 3-4-1v-2l7-1 1-2-7 1-3-2-1-6z" fill="#2E3539"/>
<path transform="translate(1711,215)" d="m0 0 7 2 5-2 3 3 1 2v11l-3-2-1-11-4 2-1 10-4-1v-8l-1-2-4-1-1 12h-3v-10l1-4z" fill="#FDFDFD"/>
<path transform="translate(1823,1264)" d="m0 0h2v18l-2 1h-6l-4-5 1-6 4-3h4z" fill="#333231"/>
<path transform="translate(1781,251)" d="m0 0h8l2 2 1 10-3 3h-8l-3-4 1-4 3-2h6l-1-2h-7z" fill="#FDFDFD"/>
<path transform="translate(357,820)" d="m0 0h8l1 2-3 7-4 3h-6l-3-3v-6z" fill="#FDFDFD"/>
<path transform="translate(1633,215)" d="m0 0 7 1 3 7-1 7-10 1-2-2v-6l5-2h4l-3-3-5 1z" fill="#FDFDFD"/>
<path transform="translate(1678,1303)" d="m0 0h17l2 3v9l-7 2-4-3 1-5 4-2h4v-2h-13l-2 1-1 10h-2v-12z" fill="#283843"/>
<path transform="translate(269,806)" d="m0 0h5v29h-5z" fill="#223847"/>
<path transform="translate(423,870)" d="m0 0h7l1 4h-10v4l9 3 3 5-3 5-1 1h-11l-2-4 10 1 2-1 1-4-10-3-2-2v-6l2-2z" fill="#303334"/>
<path transform="translate(1866,1269)" d="m0 0 6 1 2 4-1 6-3 3h-5l-3-3-1-5 3-5z" fill="#243A49"/>
<path transform="translate(1663,1303)" d="m0 0h8l2 3v7l-3 3h-7l-2-4 1-8z" fill="#2F3436"/>
<path transform="translate(439,864)" d="m0 0 3 1 1 5 6 1v2h-6v15l6 1-1 3h-6l-3-2-1-4-1-13v-3z" fill="#2C363C"/>
<path transform="translate(1763,216)" d="m0 0h3l1 10h2l1-8 1-2 4 1 2 5v4h2v-10l3 1-2 12-4 1-2-3v-7h-2l-1 10-5-1-2-5z" fill="#FDFDFD"/>
<path transform="translate(1685,1267)" d="m0 0h6l3 4v6l-4 4-5-1-3-5 1-6z" fill="#FDFDFD"/>
<path transform="translate(1773,1269)" d="m0 0 5 1 3 4-1 6-3 3h-5l-3-3v-8z" fill="#2B353C"/>
<path transform="translate(303,806)" d="m0 0h5v29h-5z" fill="#2E3437"/>
<path transform="translate(1737,1269)" d="m0 0 6 2v10l-3 2h-5l-3-3v-8z" fill="#243847"/>
<path transform="translate(215,870)" d="m0 0h7l3 2v2h-10l-3 4 1 10 6 1 6-1-1 3-2 1h-8l-5-4-1-3v-9l4-5z" fill="#2F3437"/>
<path transform="translate(698,809)" d="m0 0h7l4 5 1 4h-19l2-5z" fill="#FDFDFD"/>
<path transform="translate(203,809)" d="m0 0h7l4 4 1 5h-18l1-5z" fill="#FDFDFD"/>
<path transform="translate(1792,1229)" d="m0 0h3l1 9 3-3 5-1-1 3-3 2 1 4 4 5-5-1-4-4-1 5-4-1v-17z" fill="#253845"/>
<path transform="translate(409,809)" d="m0 0h7l5 5v4h-18l2-5z" fill="#FDFDFD"/>
<path transform="translate(629,680)" d="m0 0 10 1 2 3-1 6-2 1h-10v-10z" fill="#FDFDFD"/>
<path transform="translate(743,805)" d="m0 0 4 1v29h-4l-1-13z" fill="#313334"/>
<path transform="translate(580,1071)" d="m0 0 6 1 1 1 1 8-1 4-7 1-2-1v-13z" fill="#5A656D"/>
<path transform="translate(1646,1230)" d="m0 0h17l-1 3h-5v14l-4 1-1-1v-14h-5z" fill="#2D353B"/>
<path transform="translate(266,133)" d="m0 0 3 2-1 40 5 2 1 2h-12l-3-2 6-3z" fill="#373636"/>
<path transform="translate(234,871)" d="m0 0h7v2l-7 3v9l2 3h12l-1 3-8 2-7-3-2-3-1-7 3-7z" fill="#2D3439"/>
<path transform="translate(791,805)" d="m0 0 2 1 1 6 1 4-1 19h-4v-29z" fill="#33312F"/>
<path transform="translate(1142,669)" d="m0 0 11 1v9h-12v-9z" fill="#333B42"/>
<path transform="translate(1620,251)" d="m0 0h7l2 2v6h-8l3-3h2v-3l-4 1-1 8h8l-1 4h-8l-4-5 1-7z" fill="#FDFDFD"/>
<path transform="translate(1260,1387)" d="m0 0h6l1 2v10l-5 3-3-3-1-9z" fill="#31363B"/>
<path transform="translate(1694,215)" d="m0 0 5 1 3 4v4l-8 1v-4l5 2-1-5h-5l-1 8 1 1h8v3l-7 1-5-3-1-7 3-5z" fill="#FDFDFD"/>
<path transform="translate(459,1071)" d="m0 0 4 1 2 4v6l-3 4-5-1-1-2v-9z" fill="#2C373E"/>
<path transform="translate(1385,670)" d="m0 0h12v9h-12z" fill="#39393A"/>
<path transform="translate(805,670)" d="m0 0h12v9h-12z" fill="#36393C"/>
<path transform="translate(1684,1265)" d="m0 0h8l4 4v10l-3 3-8 1-4-4-1-8 3-5zm1 2-3 5 1 6 3 3 6-1 2-3v-6l-3-4z" fill="#293740"/>
<path transform="translate(685,704)" d="m0 0 5 2-2 6-3 2h-7l-2-1v-6l3-2z" fill="#FDFDFD"/>
<path transform="translate(1743,1234)" d="m0 0 3 1v9l5-1v-8h4v12l-10 1-3-3v-7z" fill="#2C3438"/>
<path transform="translate(209,1203)" d="m0 0h1v11l-2 4-7-1-1-7 2-3h6z" fill="#293844"/>
<path transform="translate(1319,705)" d="m0 0h11v5l-4 4h-8l-1-7z" fill="#FDFDFD"/>
<path transform="translate(1760,1234)" d="m0 0h10l2 2v12h-3v-11l-4 1-1-1-1 11-4-1v-9z" fill="#2A363E"/>
<path transform="translate(779,1072)" d="m0 0 2 1v12l-7 1-3-4 1-5 4-3h3z" fill="#2C3942"/>
<path transform="translate(1571,216)" d="m0 0h11l2 2v12l-4-1v-11l-5 1-1 2-1 9h-3v-13z" fill="#FDFDFD"/>
<path transform="translate(1791,215)" d="m0 0 5 1 3 5v4l-3-1-2-5-4-1v9h8l-1 3-7 1-5-5 1-7z" fill="#FDFDFD"/>
<path transform="translate(383,141)" d="m0 0h7l4 4-1 5-3 1-4-3v-2l-5 2-6 3v-3z" fill="#303437"/>
<path transform="translate(610,1071)" d="m0 0 2 2v10l-2 3h-5l-3-5 2-5 6-2z" fill="#243B4B"/>
<path transform="translate(1699,250)" d="m0 0 6 1 2 3v6l-3-2-1-4h-4l-1 2v6l5 1 4-1-2 4h-7l-4-4-1-4 3-6z" fill="#FDFDFD"/>
<path transform="translate(1594,215)" d="m0 0 5 1 2 5v8l-4 1v-12l-5 1-1 11h-3v-13z" fill="#FDFDFD"/>
<path transform="translate(1826,215)" d="m0 0 6 1 2 5v9h-4v-8l-2-4h-2l-1 2-1 10h-3v-12z" fill="#FDFDFD"/>
<path transform="translate(489,1203)" d="m0 0 1 4v9l-2 2h-5l-2-2v-8l1-1h6z" fill="#283945"/>
<path transform="translate(245,1075)" d="m0 0h7l1 1v8l-2 2h-5v3h-2v-10z" fill="#293843"/>
<path transform="translate(300,870)" d="m0 0 6 1 4 4 1 9-3 6-3 2h-7v-3h5l3-3v-10l-6-5z" fill="#2B353B"/>
<path transform="translate(1810,215)" d="m0 0h5l1 2v13h-3v-13l-6 3-1 2v8l-4-1 1-12z" fill="#FDFDFD"/>
<path transform="translate(398,187)" d="m0 0h4l1 8 4 2 11 1-2 3-13-1-5-3-2-6z" fill="#303335"/>
<path transform="translate(188,1122)" d="m0 0h1l1 15-7 1-2-1v-9l2-2h4z" fill="#243A49"/>
<path transform="translate(278,1123)" d="m0 0 5 1-4 1-1 3 4 2 3 3 1-3 1 3-2 4-8 1-2-2 1-10z" fill="#2B3841"/>
<path transform="translate(465,1176)" d="m0 0 1 4h6l2 4-1 6-5 2-3-2z" fill="#2E3539"/>
<path transform="translate(301,1072)" d="m0 0h1v13l-6 1-3-3 1-7z" fill="#273945"/>
<path transform="translate(1764,251)" d="m0 0h9l2 3v11h-3l-1-12-4 1-1 11h-3v-13z" fill="#FDFDFD"/>
<path transform="translate(1778,1234)" d="m0 0h8l1 4-6-2v2l7 4-1 5-2 1h-7l-1-4 7 1-1-2-6-2v-6z" fill="#2B353B"/>
<path transform="translate(1653,215)" d="m0 0 5 2 2 9-1 4h-3v-7l-1-4-5 1v10l-4-1v-9l2-4z" fill="#FDFDFD"/>
<path transform="translate(1516,216)" d="m0 0h9l2 2 1 5v7h-3l-2-11h-4l-1 11h-3v-13z" fill="#FDFDFD"/>
<path transform="translate(461,1153)" d="m0 0 5 1 2 5-3 5h-5v3h-2v-9l1-4z" fill="#2A3740"/>
<path transform="translate(1804,251)" d="m0 0h8l1 3h-7v2l7 2v6l-2 2h-7l-2-4 6 1 2-2-8-4 1-5z" fill="#FDFDFD"/>
<path transform="translate(480,691)" d="m0 0 7 1 2 3v4h-14l1-5z" fill="#FDFDFD"/>
<path transform="translate(1535,215)" d="m0 0 5 1v2h-6l1 3 6 2 1 4-1 3-8 1-2-1v-3l8 1-1-2-7-3v-6z" fill="#FDFDFD"/>
<path transform="translate(291,691)" d="m0 0 6 1 3 4v3h-15l2-5z" fill="#FDFDFD"/>
<path transform="translate(1666,1265)" d="m0 0h10l1 2h-9v5h8v2h-8v6h8l-1 3-9-1-1-2z" fill="#323231"/>
<path transform="translate(1589,251)" d="m0 0h3l1 12h6v-11l3-1 1 10-1 4-3 1h-7l-2-2z" fill="#FDFDFD"/>
<path transform="translate(1807,111)" d="m0 0 7 1 2 3-1 4h-12l-2-1 2-5z" fill="#024678"/>
<path transform="translate(693,1075)" d="m0 0h7l1 2v7l-3 2-5-1-1-1v-7z" fill="#2C3840"/>
<path transform="translate(294,1206)" d="m0 0 4 1 1 1v9l-6 1-3-3 1-7z" fill="#233A4A"/>
<path transform="translate(519,1207)" d="m0 0h7l1 2v6l-3 3-5-1-1-1v-7z" fill="#2F383F"/>
<path transform="translate(352,1126)" d="m0 0 5 1v10l-1 1h-6l-1-2v-7z" fill="#2D373E"/>
<path transform="translate(212,1126)" d="m0 0 5 1 1 2v6l-2 3h-5l-2-3 1-8z" fill="#2C3841"/>
<path transform="translate(962,678)" d="m0 0h1v42l-2 6-2-1 1-7 1-27z" fill="#074472"/>
<path transform="translate(1726,251)" d="m0 0h8l1 2h-7l1 3 6 2v6l-2 2h-7l-2-4 6 1 2-2-7-3v-6z" fill="#FDFDFD"/>
<path transform="translate(1228,1387)" d="m0 0 7 1 1 7-2 3h-6l-1-1v-8z" fill="#2B373F"/>
<path transform="translate(174,1207)" d="m0 0h6l1 1v8l-2 2-5-1-2-2v-6z" fill="#283843"/>
<path transform="translate(157,1073)" d="m0 0 6 1 1 1v7l-2 2h-5l-2-2v-7z" fill="#FDFDFD"/>
<path transform="translate(341,870)" d="m0 0 4 2 7-2 1 3-9 2v17h-3z" fill="#313334"/>
<path transform="translate(1712,251)" d="m0 0h8l-1 3h-5l1 2 4 1 2 2-1 6-2 1h-7l-1-4 6 1 3-3-7-1-2-4z" fill="#FDFDFD"/>
<path transform="translate(480,1153)" d="m0 0 6 1v9l-7 1-2-2 1-7z" fill="#2A3841"/>
<path transform="translate(276,870)" d="m0 0h5l3 3 1 5v14h-4v-9l-1-10h-5z" fill="#2E353A"/>
<path transform="translate(245,1154)" d="m0 0h7l1 1v7l-2 2h-6l-1-1v-8z" fill="#2C353B"/>
<path transform="translate(369,1150)" d="m0 0 2 1-1 13h-7l-1-1v-9h7z" fill="#2F3539"/>
<path transform="translate(283,1075)" d="m0 0h6l2 3-1 6-2 2h-5l-1-2v-8z" fill="#2C3840"/>
<path transform="translate(161,167)" d="m0 0h6l2 9 2 2-1 2-6-1-3-3-1-7z" fill="#2E3336"/>
<path transform="translate(405,1180)" d="m0 0h6l1 4-1 7h-6l-2-3 1-7z" fill="#293843"/>
<path transform="translate(271,1179)" d="m0 0 5 2 1 8-3 3-5-1v-10z" fill="#243A4A"/>
<path transform="translate(449,140)" d="m0 0h7l-3 1v2l-7 1-2 8-3 1-3-2 1-6 6-4z" fill="#2D3439"/>
<path transform="translate(431,1153)" d="m0 0 5 2 1 6-3 3h-6v-10z" fill="#283741"/>
<path transform="translate(1719,1265)" d="m0 0h8l1 3h-10v10l2 2h8l-2 3h-6l-5-3-1-9 3-5z" fill="#2F363B"/>
<path transform="translate(1824,1229)" d="m0 0 4 1v17h-4l-1-13z" fill="#253846"/>
<path transform="translate(409,1207)" d="m0 0h5l2 2v7l-2 2-6-1-1-5z" fill="#2C363D"/>
<path transform="translate(308,1154)" d="m0 0h7l1 7-2 3h-6l-1-2v-7z" fill="#323638"/>
<path transform="translate(616,1075)" d="m0 0h6l2 5-1 5-7 1-1-5z" fill="#213B4E"/>
<path transform="translate(1273,1387)" d="m0 0 6 1v8l-1 2h-6l-1-1v-8z" fill="#2E373D"/>
<path transform="translate(294,1123)" d="m0 0 3 1 4 11-1 3-2-5-5 1-3 4-2-1 3-8z" fill="#71808B"/>
<path transform="translate(762,1075)" d="m0 0h5l1 2v8l-1 1h-5l-2-2v-7z" fill="#2B3943"/>
<path transform="translate(423,1074)" d="m0 0 3 3-1 8-1 1h-5l-1-1v-9z" fill="#30373C"/>
<path transform="translate(259,1075)" d="m0 0h5l1 1v8l-1 2h-5l-2-2v-7z" fill="#2F363A"/>
<path transform="translate(531,1074)" d="m0 0 5 2 1 1v8l-7 1-1-1 1-10z" fill="#2A3741"/>
<path transform="translate(182,1075)" d="m0 0h6l1 3-1 7-5 1-3-3 1-7z" fill="#283945"/>
<path transform="translate(353,1075)" d="m0 0h6l1 5-2 6-6-1-1-6z" fill="#2B363E"/>
<path transform="translate(228,1075)" d="m0 0h5l2 3-2 7-5 1-2-2v-6z" fill="#2D363D"/>
<path transform="translate(562,867)" d="m0 0h1v15h-9l2-5z" fill="#FDFDFD"/>
<path transform="translate(742,1075)" d="m0 0h5l2 2-1 8-1 1h-5l-1-1v-9z" fill="#2C3740"/>
<path transform="translate(376,1075)" d="m0 0h6l1 7-2 4-5-1-1-1v-7z" fill="#2D3439"/>
<path transform="translate(890,1074)" d="m0 0 5 2 1 8-6 2-3-1 2-10z" fill="#283946"/>
<path transform="translate(446,1180)" d="m0 0h14l1 2v9h-2l-1-9-3-1v9l-2 1-1-9h-3l-1 9h-2z" fill="#2F373E"/>
<path transform="translate(1719,1303)" d="m0 0h7l2 3v4h-8v-2l5-1-1-2-4 1-1 6 1 1 8 1-1 2h-8l-3-4 1-7z" fill="#2C373F"/>
<path transform="translate(383,1152)" d="m0 0h3v2l-3 1 5-1v10h-8l1-10z" fill="#63717B"/>
<path transform="translate(340,1073)" d="m0 0 6 1 1 6-1 3-6 1-1-1v-9z" fill="#FDFDFD"/>
<path transform="translate(237,873)" d="m0 0 7 1 2 5-1 1h-12l1-5z" fill="#FDFDFD"/>
<path transform="translate(192,873)" d="m0 0 7 1 2 5-2 1h-11l1-5z" fill="#FDFDFD"/>
<path transform="translate(1653,1265)" d="m0 0h7l2 3h-9l-2 4 1 7 2 1h8l-3 3-8-1-3-4v-8z" fill="#333435"/>
<path transform="translate(234,1206)" d="m0 0 5 1 1 1v8l-2 2h-5l-2-3 2-6h4z" fill="#667580"/>
<path transform="translate(265,1153)" d="m0 0h11l2 1 1 9-2 1-1-8-4-1 1 8-3 1v-9l-4 1v7h-3v-7z" fill="#293740"/>
<path transform="translate(323,873)" d="m0 0 7 1 2 5-1 1h-12l1-5z" fill="#FDFDFD"/>
<path transform="translate(1646,253)" d="m0 0h5l2 3v5l-3 3-4-1-1-2v-6z" fill="#024678"/>
<path transform="translate(1690,245)" d="m0 0 3 1-3 4 2 2-2 2-1 11h-3v-17l1-2z" fill="#FDFDFD"/>
<path transform="translate(1793,1269)" d="m0 0 2 1v10l-2 3h-7l-2-2-1-4v-7h3l1 10 5 1v-11z" fill="#21394B"/>
<path transform="translate(345,1180)" d="m0 0h9l1 3v7l3-1 1-9 2 1v8l-1 2h-6l-1-1-1-8-5-1v9h-3z" fill="#283945"/>
<path transform="translate(860,1074)" d="m0 0 4 2 1 8-6 2-2-1 1-9z" fill="#2C3841"/>
<path transform="translate(339,1071)" d="m0 0 7 1 2 2v9l-5 3-6-1v-13zm1 2-1 1v9l5 1 2-1 1-6-1-3z" fill="#2F373D"/>
<path transform="translate(1816,1229)" d="m0 0h3v19l-4-1v-17z" fill="#2A343B"/>
<path transform="translate(184,1153)" d="m0 0 6 1v12l-2 2h-5l1-2 3-1 1-10-4 1v5l2 1v2l-3 1-2-3v-7z" fill="#31373B"/>
<path transform="translate(288,1154)" d="m0 0 3 3v7h-8l-1-2 1-6z" fill="#767B7E"/>
<path transform="translate(158,1071)" d="m0 0 6 2 2 2v7l-4 4-7-1-2-3v-7l3-3zm-1 2-2 2v7l2 2h5l2-2v-7l-3-2z" fill="#2F383E"/>
<path transform="translate(1751,253)" d="m0 0 4 1 1 1v7l-1 1h-6l-1-7z" fill="#024678"/>
<path transform="translate(1580,247)" d="m0 0h2l1 4h4v2h-4v10h5v2h-7l-1-1-1-15z" fill="#FDFDFD"/>
<path transform="translate(1735,218)" d="m0 0h5l2 4-1 5-1 1h-5l-1-2v-6z" fill="#024678"/>
<path transform="translate(1834,1269)" d="m0 0 5 1 2 2v4h-7l3-2h2l-1-2h-4l-1 7 1 1h6l-1 3h-6l-3-3v-7z" fill="#323435"/>
<path transform="translate(1756,1265)" d="m0 0h10v2h-8v5h8l-1 2h-7v9h-2z" fill="#323638"/>
<path transform="translate(339,1154)" d="m0 0 1 2h3v-2h2l1 2v7l-1 1h-7z" fill="#72787D"/>
<path transform="translate(1668,218)" d="m0 0 5 1 1 7-2 2h-5l-1-1v-7z" fill="#034576"/>
<path transform="translate(1674,253)" d="m0 0h4l1 2v7l-1 1h-5l-2-2 1-6z" fill="#024678"/>
<path transform="translate(1651,1298)" d="m0 0h7l1 2-7 1-1 4h6v3l-6-1v9h-2v-17z" fill="#30363A"/>
<path transform="translate(1803,1269)" d="m0 0 6 1 1 2v11h-2v-11l-6-1v11h-3v-10l1-2z" fill="#283742"/>
<path transform="translate(1866,1271)" d="m0 0 5 1 1 5-3 4-5-1-1-5z" fill="#FDFDFD"/>
<path transform="translate(1818,1271)" d="m0 0h5v9l-5 1-3-5z" fill="#FDFDFD"/>
<path transform="translate(214,1071)" d="m0 0 2 2v11l-4 2-5-1-1-2v-10l4 1-1 2v8h4z" fill="#2B3842"/>
<path transform="translate(729,806)" d="m0 0h8l-1 4-9-1v19h-1l-1-8h-1v-12z" fill="#253A4A"/>
<path transform="translate(1020,696)" d="m0 0h1l2 20 1 3 7 1v2h-10l-1-1z" fill="#183C55"/>
<path transform="translate(1610,218)" d="m0 0h4l1 7-1 3-6-1-1-5z" fill="#024678"/>
<path transform="translate(1550,218)" d="m0 0 5 1 1 1v7l-1 1h-5l-1-1v-8z" fill="#024678"/>
<path transform="translate(1736,1271)" d="m0 0 5 1v8l-1 1h-5l-1-1v-7z" fill="#FDFDFD"/>
<path transform="translate(1752,218)" d="m0 0 5 1 1 7-2 2-5-1-1-5z" fill="#024678"/>
<path transform="translate(1705,1304)" d="m0 0 5 1v7l-3 2-4-1-1-5z" fill="#FDFDFD"/>
<path transform="translate(1666,1304)" d="m0 0 4 1 1 6-2 3-5-1-1-1 1-7z" fill="#FDFDFD"/>
<path transform="translate(154,1177)" d="m0 0h12v12h-3l1-10h-8l1 3h4l-1 3-5-1v7h-2z" fill="#2C3740"/>
<path transform="translate(1773,1271)" d="m0 0 4 1 2 2-1 5-2 2-4-1-1-1v-6z" fill="#FDFDFD"/>
<path transform="translate(155,1123)" d="m0 0 11 1v13h-3l2-12-9 1v11h-2v-13z" fill="#263A48"/>
<path transform="translate(900,1075)" d="m0 0 5 1 1 8-5 2-2-4v-6z" fill="#7A8389"/>
<path transform="translate(1842,218)" d="m0 0 5 1v8l-5 1-2-2 1-7z" fill="#024678"/>
<path transform="translate(1678,1235)" d="m0 0h8v2h-4v11l-4-1z" fill="#303538"/>
<path transform="translate(1808,1229)" d="m0 0h3l1 18-4 1z" fill="#313334"/>
<path transform="translate(1737,1234)" d="m0 0 4 1-2 3-5-1v11h-3v-13z" fill="#303333"/>
<path transform="translate(386,1207)" d="m0 0h6l1 5h-6v3h6v2l-6 1-3-3 1-7z" fill="#4B575F"/>
<path transform="translate(253,806)" d="m0 0h11l-1 4h-9v17h-1z" fill="#174160"/>
<path transform="translate(1683,1234)" d="m0 0 10 1-2 9-1 4h-3l-1-13z" fill="#2B353B"/>
<path transform="translate(405,1071)" d="m0 0 2 1 1 4v8l3-1v-6l-2-2 4 1 1 1v7l-2 2h-5l-2-2z" fill="#2D373F"/>
<path transform="translate(313,1204)" d="m0 0h2l1 11 4 1-1-7-1-2h5l-1 9-2 2h-5l-2-2z" fill="#243A4A"/>
<path transform="translate(791,1075)" d="m0 0h7l2 3-1 6-4 2 2-4v-4l-4-1v12h-3v-11z" fill="#243A4A"/>
<path transform="translate(1802,1234)" d="m0 0h2l-1 3-3 2 1 4 4 5-5-1-5-6 2-4z" fill="#2D3438"/>
<path transform="translate(1659,251)" d="m0 0h8l-1 3h-4l-1 11h-3z" fill="#FDFDFD"/>
<path transform="translate(1508,211)" d="m0 0 2 1v18l-3-1v-17z" fill="#FDFDFD"/>
<path transform="translate(1693,218)" d="m0 0h5l1 5-5-1v2l6 2v2h-7l-2-2 1-6z" fill="#123E5E"/>
<path transform="translate(343,1206)" d="m0 0 4 1 1 4-4 2 1-4-3-1v7h5l-1 3-6-1-1-1v-7z" fill="#2B3842"/>
<path transform="translate(222,1180)" d="m0 0h6l1 1v9l-4 1 2-10h-3v11l-3-1z" fill="#2E363A"/>
<path transform="translate(724,1075)" d="m0 0h6l2 3-1 7-4 1 2-3v-6l-4-1 1 11h-2l-1 2v-13z" fill="#2A3741"/>
<path transform="translate(458,1073)" d="m0 0 4 1 1 2v6l-4 2-2-4z" fill="#FDFDFD"/>
<path transform="translate(474,620)" d="m0 0 4 1v2h19v1l-9 1h-16z" fill="#223744"/>
<path transform="translate(360,1124)" d="m0 0h3l1 12 9-1 1-4 1 6-2 1h-11l-1-2z" fill="#2C3840"/>
<path transform="translate(505,1072)" d="m0 0h1l2 11h4l1-2v-8h3v7l-2 5-5 1-3-1-1-2z" fill="#2B373F"/>
<path transform="translate(1609,251)" d="m0 0h6l1 2-5 1-1 11h-3v-12z" fill="#FDFDFD"/>
<path transform="translate(215,1207)" d="m0 0h6l1 3-2 3-2-1 1-3-3-1-1 8 6-1v3h-6l-2-2v-6z" fill="#2B3943"/>
<path transform="translate(155,1203)" d="m0 0 7 1 1 5-3 3-3-1 4-4-5-2v8l-1 4h-2l1-13z" fill="#2A3841"/>
<path transform="translate(192,870)" d="m0 0h6l5 5 1 6-4 1-1-3h2l-2-4-6-2z" fill="#2F363A"/>
<path transform="translate(242,172)" d="m0 0h6l1 1v5l-6 2-2-5z" fill="#2F3335"/>
<path transform="translate(1667,1236)" d="m0 0 4 1 1 6-2 2h-4l-1-7z" fill="#FDFDFD"/>
<path transform="translate(1766,1234)" d="m0 0 5 1 1 1v12h-3v-11h-3z" fill="#333231"/>
<path transform="translate(422,1206)" d="m0 0 6 2v9h-3v-8h-3l-1 8h-2v-9z" fill="#293944"/>
<path transform="translate(422,1180)" d="m0 0h7l1 10-2 1v-9h-5v9h-2v-10z" fill="#243948"/>
<path transform="translate(284,1180)" d="m0 0 4 2 2 5 2-7h2l-1 6-4 8-3 1 2-6z" fill="#273843"/>
<path transform="translate(479,1180)" d="m0 0h5l1 1v9h-3l1-8-3-1v10h-2l-1-2v-6z" fill="#30373C"/>
<path transform="translate(641,1071)" d="m0 0 2 3 6 2 1 8-2 1-1-7-4-2v9l-3-1z" fill="#253A4A"/>
<path transform="translate(314,1076)" d="m0 0 5 1 1 4-4 4-3-2v-6z" fill="#FDFDFD"/>
<path transform="translate(384,806)" d="m0 0h10v4l-9-1v17h-1z" fill="#233A4A"/>
<path transform="translate(266,170)" d="m0 0h2v5l5 2 1 2h-12l-3-2 6-3z" fill="#28353E"/>
<path transform="translate(1260,1389)" d="m0 0h5v8l-2 2h-3z" fill="#FDFDFD"/>
<path transform="translate(242,1126)" d="m0 0 6 1 1 4-2 3v-6h-5l2 8h5l-1 2h-6l-2-7z" fill="#253A4A"/>
<path transform="translate(224,1126)" d="m0 0 6 1 1 7-1 3h-2v-8l-4-1-1 10-2-1 1-10z" fill="#20394A"/>
<path transform="translate(812,1075)" d="m0 0h5l2 4v5l-2 2h-6l-1-1v-5h3l-1 5 4-2-1-6-3-1z" fill="#293844"/>
<path transform="translate(593,1074)" d="m0 0 5 2 1 8-6 2-3-3 1-5 2 3v3l3-2-1-5h-3z" fill="#2A3843"/>
<path transform="translate(485,1072)" d="m0 0h3l-1 4-3-1-1 5h3l2-3 1 5-1 2-4-1-5-2z" fill="#2C373F"/>
<path transform="translate(196,172)" d="m0 0h6v7l-4 1-3-1z" fill="#2D3336"/>
<path transform="translate(299,145)" d="m0 0h3l-3 9-3 8h-3l3-9z" fill="#2F353A"/>
<path transform="translate(439,1207)" d="m0 0h8l1 2-1 8h-2l-1-8-4-1v9h-2v-9z" fill="#34373A"/>
<path transform="translate(1795,246)" d="m0 0h4l-1 20-2-1z" fill="#FDFDFD"/>
<path transform="translate(471,1206)" d="m0 0 5 1 1 1 1 9-3-1-1-8h-2l-1 9h-2v-9z" fill="#283844"/>
<path transform="translate(194,1180)" d="m0 0h6l1 1v10h-2l-1-9h-2l-2 9h-1v-10z" fill="#273843"/>
<path transform="translate(184,1155)" d="m0 0h4v10l-4 2 2-5-3-1v-5z" fill="#FDFDFD"/>
<path transform="translate(313,1075)" d="m0 0h6l2 2v6l-3 3h-5l-2-3 1-7zm1 1-1 1v6l3 2 4-4-1-4z" fill="#293843"/>
<path transform="translate(1740,250)" d="m0 0 2 1v15l-3-1v-14z" fill="#FDFDFD"/>
<path transform="translate(268,1207)" d="m0 0h7l1 2v8h-2l-1-8h-3l-1 8h-2v-9z" fill="#2C3943"/>
<path transform="translate(201,1126)" d="m0 0 5 1v1l-5 1v7h2v-6l3 3-1 5h-6v-11z" fill="#233A4B"/>
<path transform="translate(561,1075)" d="m0 0 2 1-2 8 4-1-1-8h3l1 2v7l-7 2-2-1z" fill="#2C3842"/>
<path transform="translate(1878,1265)" d="m0 0h5l-1 2h-2l2 4-3 1 1 10h-2l-1-13z" fill="#2D373D"/>
<path transform="translate(151,1150)" d="m0 0h12l1 2h-5v11h-3l1-12h-6z" fill="#263947"/>
<path transform="translate(339,1126)" d="m0 0 6 2v11l-3 2h-5l1-2 5-1v-10h-5z" fill="#283742"/>
<path transform="translate(204,1208)" d="m0 0h4v7l-5 1-1-6z" fill="#FDFDFD"/>
<path transform="translate(606,1076)" d="m0 0h4v7l-5 1-1-6z" fill="#FDFDFD"/>
<path transform="translate(322,1153)" d="m0 0 5 1 1 9h-3l1-8-4 1-1 8h-2v-10z" fill="#263845"/>
<path transform="translate(775,1076)" d="m0 0h4v7l-4 1-2-2 1-5z" fill="#FDFDFD"/>
<path transform="translate(1563,214)" d="m0 0 2 1v15l-3-1v-10z" fill="#FDFDFD"/>
<path transform="translate(1703,1303)" d="m0 0h9l-1 9h-1v-7h-5l-2 5v2h-2l-1-4z" fill="#2C363C"/>
<path transform="translate(175,1208)" d="m0 0h4l1 6-2 2-4-1v-6z" fill="#FDFDFD"/>
<path transform="translate(467,1181)" d="m0 0 5 1v6l-4 2-1-1z" fill="#FDFDFD"/>
<path transform="translate(392,1154)" d="m0 0h2l1 8 3-1v-7h2v9l-1 1h-6l-1-1z" fill="#323536"/>
<path transform="translate(269,1123)" d="m0 0h2v14h-2l1-10h-2l-3 9h-1v-5z" fill="#2F3539"/>
<path transform="translate(247,1076)" d="m0 0 4 1 1 4-4 4-2-1v-6z" fill="#FDFDFD"/>
<path transform="translate(423,870)" d="m0 0h7l1 4h-10l-4 1 2-4z" fill="#2D353A"/>
<path transform="translate(1694,1270)" d="m0 0h2v9l-3 3-8 1 1-2 6-2z" fill="#333331"/>
<path transform="translate(499,1207)" d="m0 0h2v10l-7 1-1-5 2-4 3 2-3 1v3h4z" fill="#2D383F"/>
<path transform="translate(392,1176)" d="m0 0 2 3 5 1 1 9-2 2-1-10-3 1-1 9h-2z" fill="#273641"/>
<path transform="translate(446,1071)" d="m0 0 5 1 1 5-5 8h-3l2-4 4-6v-2l-6 1v-2z" fill="#2F363B"/>
<path transform="translate(1818,1269)" d="m0 0 4 1-5 3-1 3 2 4-1 3-4-5 1-6z" fill="#233949"/>
<path transform="translate(408,1076)" d="m0 0 4 1v6l-4 2-1-1v-7z" fill="#FDFDFD"/>
<path transform="translate(470,1071)" d="m0 0 5 1 1 1v6l-3 3-2 4h-2l1-5 4-5v-3l-5 1z" fill="#2C373E"/>
<path transform="translate(521,1208)" d="m0 0 4 1v6l-5 1v-7z" fill="#FDFDFD"/>
<path transform="translate(483,1208)" d="m0 0 5 1v6l-4 1-1-1z" fill="#FDFDFD"/>
<path transform="translate(461,1155)" d="m0 0 4 1 1 4-4 3h-2v-7z" fill="#FDFDFD"/>
<path transform="translate(430,1155)" d="m0 0 4 1 1 5-5 2-1-6z" fill="#FDFDFD"/>
<path transform="translate(212,1128)" d="m0 0h4v7l-4 2-1-5z" fill="#FDFDFD"/>
<path transform="translate(297,1076)" d="m0 0h3v7l-4 1-2-5z" fill="#FDFDFD"/>
<path transform="translate(284,1076)" d="m0 0 4 1 1 1v5l-4 2-1-1z" fill="#FDFDFD"/>
<path transform="translate(1217,1384)" d="m0 0h6v2l-4 1v2l5 1-1 2h-4l-1 6h-1z" fill="#283741"/>
<path transform="translate(1864,1270)" d="m0 0h2l-2 7v3l6 1v2h-5l-3-3-1-5z" fill="#293740"/>
<path transform="translate(184,1207)" d="m0 0 2 1 1 6 2-1 1-5h2l-2 9-3 1-3-7z" fill="#2A3740"/>
<path transform="translate(294,1207)" d="m0 0 3 1v2h-2v2l3-1-1 5-5-1 1-7z" fill="#FDFDFD"/>
<path transform="translate(480,1155)" d="m0 0h4l1 4-1 3h-5v-6z" fill="#FDFDFD"/>
<path transform="translate(695,1076)" d="m0 0 4 1v6l-4 1-1-1v-6z" fill="#FDFDFD"/>
<path transform="translate(1782,258)" d="m0 0h6v5l-5 1-2-2z" fill="#024678"/>
<path transform="translate(430,139)" d="m0 0h4v6l-5 1-1-4z" fill="#34312E"/>
<path transform="translate(1230,1388)" d="m0 0 4 2v5l-5 1v-7z" fill="#FDFDFD"/>
<path transform="translate(460,1206)" d="m0 0 3 1-3 2v6h5l-1 3h-5l-2-2v-7z" fill="#2D373F"/>
<path transform="translate(410,1208)" d="m0 0 4 1v6l-4 1-1-1z" fill="#FDFDFD"/>
<path transform="translate(383,1178)" d="m0 0 5 2-1 2-2-1 2 7 1 3-4-1-1-2z" fill="#2A3842"/>
<path transform="translate(365,1155)" d="m0 0 4 1v5l-5 1-1-1v-5z" fill="#FDFDFD"/>
<path transform="translate(247,1155)" d="m0 0 4 1v6l-4 1-1-1v-6z" fill="#FDFDFD"/>
<path transform="translate(351,1128)" d="m0 0h5v8l-4 1-1-3z" fill="#FDFDFD"/>
<path transform="translate(850,1074)" d="m0 0 3 1-4 2h-2l2 6 4 2-5 1-3-4 1-6z" fill="#2C3842"/>
<path transform="translate(705,1075)" d="m0 0h7l1 1v8l-2 1-1-8h-3l-1 8h-1z" fill="#333435"/>
<path transform="translate(559,869)" d="m0 0 1 3-5 8-4 1 2-5 4-6z" fill="#2D353A"/>
<path transform="translate(1695,1308)" d="m0 0 2 1v6l-7 2-3-2v-2h7z" fill="#313538"/>
<path transform="translate(1663,1303)" d="m0 0 3 1-2 1v7l4 3-5 1-2-4 1-8z" fill="#253948"/>
<path transform="translate(399,1207)" d="m0 0h5v2h-4v6l4 2-5 1-2-2v-7z" fill="#2C3942"/>
<path transform="translate(406,1181)" d="m0 0h4v9l-4-1z" fill="#FDFDFD"/>
<path transform="translate(184,1153)" d="m0 0 4 1-4 2v5l2 1v2l-3 1-2-3v-7z" fill="#233A4A"/>
<path transform="translate(310,1155)" d="m0 0 4 1v5l-4 2-1-1v-6z" fill="#FDFDFD"/>
<path transform="translate(183,1128)" d="m0 0h4l1 7-4 2-1-1z" fill="#FDFDFD"/>
<path transform="translate(308,1125)" d="m0 0h5v3h-2l2 10h-2l-3-12z" fill="#283844"/>
<path transform="translate(1834,1269)" d="m0 0 5 1 2 2v4h-7l3-2h2l-1-2h-4l-2 2-1-3z" fill="#2B3740"/>
<path transform="translate(1684,1265)" d="m0 0h8l4 4-3 2-2-3h-6-3z" fill="#2C363D"/>
<path transform="translate(195,1154)" d="m0 0h2l-1 7 3 1h3v2h-8l-1-5z" fill="#263743"/>
<path transform="translate(531,1076)" d="m0 0 4 1v7l-4 1z" fill="#FDFDFD"/>
<path transform="translate(175,126)" d="m0 0h19v1l-13 2-6-1z" fill="#1D405A"/>
<path transform="translate(246,1179)" d="m0 0 6 2 1 6-1 4-3-1 1-9-5 1z" fill="#233848"/>
<path transform="translate(480,1181)" d="m0 0 4 1-1 8-3 1-1-8z" fill="#FDFDFD"/>
<path transform="translate(295,1151)" d="m0 0h2l1 11 1 2h-4l-1-12z" fill="#333537"/>
<path transform="translate(326,1070)" d="m0 0h2l-2 15h-2l-1-10z" fill="#32373A"/>
<path transform="translate(563,1075)" d="m0 0 3 3v5l-5 1 1-8z" fill="#FDFDFD"/>
<path transform="translate(378,1076)" d="m0 0 3 1v7h-4v-7z" fill="#FDFDFD"/>
<path transform="translate(260,1076)" d="m0 0h3v9h-3l-1-7z" fill="#FDFDFD"/>
<path transform="translate(234,871)" d="m0 0h7v2l-7 3-4 2 2-5z" fill="#2F3335"/>
<path transform="translate(1846,1270)" d="m0 0h7v1l-5 1v9l-3 1v-8z" fill="#243846"/>
<path transform="translate(271,1181)" d="m0 0 3 1 1 6-2 3h-2l-1-9z" fill="#FDFDFD"/>
<path transform="translate(182,1180)" d="m0 0h6l1 2v8l-4 1 2-9h-5z" fill="#273742"/>
<path transform="translate(502,1154)" d="m0 0 2 1-2 7h6l-1 2h-6l-1-1v-7z" fill="#283843"/>
<path transform="translate(238,1150)" d="m0 0h3l-1 13h-3v-9z" fill="#323435"/>
<path transform="translate(683,1075)" d="m0 0h5l-1 2h-3l-1 6 5 1-1 2-5-1-1-8z" fill="#2B3842"/>
<path transform="translate(421,1076)" d="m0 0 3 1v6l-4 2v-8z" fill="#FDFDFD"/>
<path transform="translate(229,1076)" d="m0 0h3l1 4-1 4-3 1-1-5z" fill="#FDFDFD"/>
<path transform="translate(753,1072)" d="m0 0 2 1 1 13-3-1-1-12z" fill="#323536"/>
<path transform="translate(368,888)" d="m0 0 11 1-1 3h-8l-2-1z" fill="#333332"/>
<path transform="translate(1274,1388)" d="m0 0 3 2v6h-4v-7z" fill="#FDFDFD"/>
<path transform="translate(1667,1276)" d="m0 0 1 4h8l-1 3-9-1-1-2h2z" fill="#2E373E"/>
<path transform="translate(1743,1234)" d="m0 0 3 1-1 8-3 1z" fill="#313334"/>
<path transform="translate(224,1181)" d="m0 0h3v8l-3 2-1-4z" fill="#FDFDFD"/>
<path transform="translate(415,1150)" d="m0 0 2 1 1 5v5l2 3h-4l-1-8z" fill="#283844"/>
<path transform="translate(175,1075)" d="m0 0h1l-1 9-4 1-2-4v-5l2 2v4h3z" fill="#2B373F"/>
<path transform="translate(764,1076)" d="m0 0 2 1v7l-3 1-1-2v-6z" fill="#FDFDFD"/>
<path transform="translate(743,1076)" d="m0 0 4 2v5l-4 2z" fill="#FDFDFD"/>
<path transform="translate(355,1076)" d="m0 0 3 1v6l-3 2-1-1v-7z" fill="#FDFDFD"/>
<path transform="translate(183,1076)" d="m0 0 4 1v7h-4z" fill="#FDFDFD"/>
<path transform="translate(455,886)" d="m0 0 3 1-1 6-4 4 1-8z" fill="#2A363E"/>
<path transform="translate(406,198)" d="m0 0h12l-2 3h-7l-3-1z" fill="#243948"/>
<path transform="translate(206,1151)" d="m0 0 2 1 3 2-1 2-3-1 1 6 4 2-5 1-1-1z" fill="#2E353A"/>
<path transform="translate(294,1123)" d="m0 0 3 1 4 11-1 3-3-5-1-6-2-1z" fill="#2F373C"/>
<path transform="translate(890,1076)" d="m0 0 3 1 1 6-5 1z" fill="#FDFDFD"/>
<path transform="translate(880,1073)" d="m0 0h3l1 4-3-1 1 6 2 1v2h-4l-1-11z" fill="#2A363E"/>
<path transform="translate(196,565)" d="m0 0h14l-1 3-9-2-1 3-2-1-1 2z" fill="#33302C"/>
<path transform="translate(1637,223)" d="m0 0 3 1-2 4-4 1-2-4z" fill="#034575"/>
<path transform="translate(1691,1309)" d="m0 0 4 1-1 4h-5v-4z" fill="#FDFDFD"/>
<path transform="translate(1742,1274)" d="m0 0h1v7l-3 2h-5l-2-4 7 1z" fill="#323231"/>
<path transform="translate(1800,1270)" d="m0 0h2v12h-3v-10z" fill="#2D373F"/>
<path transform="translate(1719,1265)" d="m0 0h8l1 3h-10l-1 2v-4z" fill="#2C373E"/>
<path transform="translate(156,1205)" d="m0 0 5 1v3l-5 3-1-5z" fill="#FDFDFD"/>
<path transform="translate(265,1153)" d="m0 0h4l-1 2-2 1v7h-3v-7z" fill="#233A4B"/>
<path transform="translate(603,1078)" d="m0 0 2 4v2l4-1 2-4v6l-1 1h-5l-3-5z" fill="#2E363B"/>
<path transform="translate(655,1075)" d="m0 0h5l1 2v8l-4-1 1-1v-6l-4-1z" fill="#323537"/>
<path transform="translate(1666,1265)" d="m0 0h10l1 2h-9v3h-2z" fill="#303233"/>
<path transform="translate(1716,1240)" d="m0 0h7l-1 4h-6z" fill="#FDFDFD"/>
<path transform="translate(313,1204)" d="m0 0h2l1 13-3-1z" fill="#2E363C"/>
<path transform="translate(834,1072)" d="m0 0 2 2v11h-3v-12z" fill="#30363A"/>
<path transform="translate(909,1071)" d="m0 0h2l1 11-3 3z" fill="#2A3841"/>
<path transform="translate(642,805)" d="m0 0 3 1v5l-3 2-2-4z" fill="#233847"/>
<path transform="translate(269,795)" d="m0 0 5 1-1 5-4-1z" fill="#283743"/>
<path transform="translate(1756,1265)" d="m0 0h10v2h-8v3h-2z" fill="#343434"/>
<path transform="translate(167,1153)" d="m0 0 3 2v9h-5l3-4z" fill="#2B363E"/>
<path transform="translate(277,1130)" d="m0 0 4 2 1 4-3 1-3-4z" fill="#FDFDFD"/>
<path transform="translate(580,1079)" d="m0 0h6v4l-5 1z" fill="#FDFDFD"/>
<path transform="translate(860,1076)" d="m0 0 3 3-1 5h-3v-7z" fill="#FDFDFD"/>
<path transform="translate(618,1076)" d="m0 0 3 1v6l-3 2-1-3v-5z" fill="#FDFDFD"/>
<path transform="translate(303,135)" d="m0 0 3 1-4 9h-2l1-5z" fill="#313436"/>
</svg>
