<?xml version="1.0" encoding="UTF-8"?>
<svg version="1.1" viewBox="0 0 2048 1571" width="800" height="614" xmlns="http://www.w3.org/2000/svg">
<path transform="translate(0)" d="m0 0h2048v1571h-2048z" fill="#FDFDFD"/>
<path transform="translate(0)" d="m0 0h2048v1571h-2048zm67 33v25h-24v1444h24v24h1909v-24h24l1-399v-427l-1-619-24 1v-25h-53l-96 1-1 970-9 8-14 11-17 14-14 11-16 13-9 7-14 11-16 13-17 13-17 14-14 11-18 14-13 10-16 13-16 12-13 11-7-4-12-10-14-11-17-14-14-11-16-13-18-14-28-22-16-13-16-12-13-11-28-22-16-13-14-11-6-5v-971z" fill="#E3E8ED"/>
<path transform="translate(0)" d="m0 0h2048v1571h-2048zm2e3 15-1978 1v1529h1994v-1530z" fill="#B0B0B1"/>
<path transform="translate(2e3 15)" d="m0 0h16v1530h-1994v-1529zm-1939 16v24h-24v1450h24v24l1914-1v-23h25v-1450h-24v-24z" fill="#FDFDFD"/>
<path transform="translate(1576,592)" d="m0 0h31l16 2 16 4 25 8 14 7v2l6 2 13 8v2l5 2 3 2v2l5 2 16 16 13 17 5 9 6 11 3 6v2h2l5 14v3h2l4 13 4 20 1 8v22l-2 23-2 12h-2l-1 10-5 15-5 10-3 7-5 9-3 6h-2v3h-2l-1 4h-2l-1 4h-2l-1 4h-2l-2 5-16 16-11 9-14 10-16 8-21 9-11 4-27 5h-37l-17-2-7-2-7-1-8-3-17-6-15-8-6-3v-2l-4-1-13-9v-2l-5-2-2-4-4-2-12-12-7-8-2-2v-3h-2l-3-5v-2h-2l-1-5h-2v-3l-3-1-8-16-4-10-7-21-4-21-1-11v-15l2-22 2-9 2-10h2l1-7 5-15 9-20 5-7 3-5 6-9 11-13 16-16 11-8 5-2v-2h3v-2l9-5 16-8 11-4h3v-2l27-6z" fill="#E1E6EA"/>
<path transform="translate(1592,646)" d="m0 0 19 1 20 5 16 7 11 6 11 8 12 11 8 9 3 3v2h2v3h2l5 8 3 7 5 10 6 22 1 10v32l-4 17-6 16-10 18-8 10-11 12-11 9-14 9-20 9-20 5-7 1h-25l-18-3-18-6-12-7-8-4-8-5v-2l-4-2-11-10-11-14-9-15-6-12-6-22-1-4v-29l1-14 3-11 5-15 10-17 1-3h2v-3h2l1-4 20-20 7-5h2v-2l7-4 16-8 16-5 13-3z" fill="#E3E8ED"/>
<path transform="translate(64,31)" d="m0 0h1915v24h24v1450h-25v23l-1914 1v-24h-24v-1450h24zm3 2v25h-24v1444h24v24h1909v-24h24l1-399v-427l-1-619-24 1v-25z" fill="#818183"/>
<path transform="translate(2042)" d="m0 0h6v1571h-2046v-3h2041l-1-135z" fill="#FBFCFC"/>
<path transform="translate(1576,592)" d="m0 0h31l16 2 16 4 25 8 14 7v2l6 2 13 8v2l5 2 3 2v2l5 2 16 16 13 17 5 9 6 11 3 6v2h2l5 14v3h2l4 13 4 20 1 8v22l-2 23-2 12h-2l-1 10-5 15-5 10-3 7-5 9-3 6h-2v3h-2l-1 4h-2l-1 4h-2l-1 4h-2l-2 5-16 16-11 9-14 10-16 8-21 9-11 4-27 5h-37l-17-2-7-2-7-1-8-3-17-6-15-8-6-3v-2l-4-1-13-9v-2l-5-2-2-4-4-2-12-12-7-8-2-2v-3h-2l-3-5v-2h-2l-1-5h-2v-3l-3-1-8-16-4-10-7-21-4-21-1-11v-15l2-22 2-9 2-10h2l1-7 5-15 9-20 5-7 3-5 6-9 11-13 16-16 11-8 5-2v-2h3v-2l9-5 16-8 11-4h3v-2l27-6zm13 7-20 1-21 4-21 7-17 8-11 7-8 5v2l-4 2-13 10-6 7-5 5-6 7-8 11-8 12-10 21-3 9-3 13-3 12-2 17v22l3 23 4 15 9 27h2l2 7 3 6h2l1 4 5 8h2l4 8 3 3 7 8 14 13 5 4h2v2l4 1v2l9 6 11 6 17 8 19 6 20 4 9 1h29l20-3 17-5 9-2 18-8 8-4v-2h3v-2l4-1 16-12 15-14 11-12 12-17 10-18 6-15 4-14 4-23v-40l-3-19h-2l-1-7-2-10h-2l-1-8h-2l-2-9-5-8-2-5-3-5h-2l-2-5-3-6h-2v-2h-2l-2-5-7-8-13-13-5-4-14-10-8-5-5-1v-2l-19-8-9-3h-3v-2l-21-5-29-2z" fill="#707073"/>
<path transform="translate(1429,31)" d="m0 0h550v24h24v1450h-25v23h-217l1-2h214v-24h24v-1445l-6 1h-18v-25l-53 1h-98l-466-1-1 2v-2l-1293 1v-2z" fill="#919192"/>
<path transform="translate(300,158)" d="m0 0h86v85l-1 1h-85z" fill="#9BB557"/>
<path transform="translate(208,250)" d="m0 0h81l3 1v86h-85v-86z" fill="#349DC7"/>
<path transform="translate(300,251)" d="m0 0h85l1 86h-86z" fill="#F8BD2B"/>
<path transform="translate(208,158)" d="m0 0h84v85l-5 1h-79l-1-23v-62z" fill="#F35124"/>
<path transform="translate(440,194)" d="m0 0h27l5 12 18 47 7 17 1 1 18-44 13-32 1-1h25l1 1v107h-19v-81h-2l-2 7-5 14-5 11-6 17-5 11-5 14-3 6-2 1h-11l-3-5-5-14-5-11-5-14-4-8-5-14-4-10-1-5h-2v81h-16l-1-1z" fill="#79797B"/>
<path transform="translate(1359,33)" d="m0 0 2 1v940l1 27 2 4 13 9 10 8 6 4 10 9 7 8 12 9 3 2h2v2l5 2 9 6 16 13 3 2v2l4 2 9 7 8 6-1 3h2l5 5 13 10v2l5 2v2l4 1v2l5 2 12 9 14 11 12 9 10 6v2l4 2 6 6 3 1v2l3 1v2h2v2l3 1 1 2 4 1 3 4 4-1 11-9 3-1 2-3 3-1 1-2 5-3h2l2-4h3l1-3 9-6 5-4 1-2h3l2-4 10-9 8-7 9-7h2v-2l17-13 16-12 10-8 17-13 8-7 17-13 14-12 13-10 20-15h3l2-4h3l2-4 4-2 1-4v-818l1-149h2v970l-10 9-14 11-17 14-14 11-16 13-9 7-14 11-16 13-17 13-17 14-14 11-18 14-13 10-16 13-16 12-13 11-7-4-12-10-14-11-17-14-14-11-16-13-18-14-28-22-16-13-16-12-13-11-28-22-16-13-14-11-7-6v-966z" fill="#B2B2B3"/>
<path transform="translate(980,187)" d="m0 0h20l1 1v15l-14-1v2h-3v2h-2l-1 18h26v-17l8-3 10-2 1 4v18h18l-1 15h-18l1 39 4 8 7 1 6-1 1 1v12l-1 2-8 3h-10l-9-3-6-6-3-7v-48h-26v62h-20v-62h-11l-1-1v-14h12l1-19 5-10 7-6z" fill="#7A7A7C"/>
<path transform="translate(753,223)" d="m0 0h19l8 3 8 4 7 8 4 8 2 6v20l-3 9-3 7h-2l-1 4-4 4h-3v2l-11 5-5 1h-16l-12-4-8-6-5-6-4-8-2-9v-13l3-12 4-8 5-6 10-6z" fill="#7A7A7C"/>
<path transform="translate(899,223)" d="m0 0h19l10 3v2l5 1 7 7 5 10 2 6v21l-3 8-3 7h-2l-1 4-5 4h-2v2l-11 5-5 1h-15l-13-4-8-6-5-6-5-12-1-7v-11l3-12 6-10 5-5 8-5z" fill="#7A7A7C"/>
<path transform="translate(64,31)" d="m0 0h1365v1h-1364l2 1v25h-24v1266h-1l-1 180h24v24h41v1h-42v-24h-24v-1450h24z" fill="#B2B2B3"/>
<path transform="translate(1429,31)" d="m0 0h550v24h24l-1 482-2 1v-481l-6 1h-18v-25l-53 1h-98l-466-1-1 2v-2l-1293 1v-2z" fill="#5D5C61"/>
<path transform="translate(1576,592)" d="m0 0h31l16 2 16 4 25 8 14 7v2l6 2 13 8v2l5 2 3 2v2l5 2 16 16 13 17 5 9 6 11 3 6v2h2l5 14v3h2l4 13 4 20 1 8v22l-2 23-2 12-2-1-2 6-3 11-12 28-6 10-5 7-2-1 8-14 4-8 9-23 6-24 1-6-1-45-2-10v-9h-2l-3-14v-3h-2l-1-2v-6h-2l-4-11-4-6-2-5-2-4-3-3-4-7v-2h-2v-2h-2l-3-5v-2l-3-1-7-8-9-9-3-2v-2l-5-2-11-8-8-5-5-2v-2l-4-1-10-4-17-6v-3l-10-2-19-4-11-1h-24l-19 3-19 5-22 8-15 8-6 4-2-1 8-7 17-9 21-7 19-5 16-4z" fill="#707072"/>
<path transform="translate(1583,638)" d="m0 0h15l18 2 15 4 5 2-3 1-15-4-18-2h-22l-20 4-10 3-12 5-11 6-19 14-12 12-13 18-5 8-10 26-2 12-2 10v24l3 19 4 12 1 1v-2h2l-3-11-2-7-2-16v-16l2-16h2v43l5 19 4 11 9 17 10 14 8 9 8 7 3 2v2l5 2 8 5 11 6 15 6 18 4 7 1h25l16-3 13-4 20-9 12-8 15-13 9-10 9-14 8-16 6-18 2-10v-32l-2-14-4-15 1-3 1 5h2l4 14 1 10v25l-2 17-3 14-5 12-8 16-8 11h-2l-2 4-7 8-10 9h-2v2l-13 8-16 8-11 4h-2v2l-3 3 10-3 3 1-12 4-7 2-14 2h-24l-22-4-13-4-15-7-15-9-11-9-5-4v-2h-2l-7-8-4-5v-2h-2v-3l-3-1-2-7h-2l-8-16-5-16-3-13-1-8v-32l5-23 3-8 10-21 8-11 9-11 9-9 11-8h2v-2l17-10 15-6 18-5z" fill="#DFE0E1"/>
<path transform="translate(831,222)" d="m0 0h13l12 3 1 1v17l-10-3-3-1h-13l-2 4 1 6 8 5 14 7 5 5 4 8v12l-1 3h-2l-2 6-5 4-9 4-5 1h-11l-16-4-1-1v-17l10 3 4 2h13l4-2 1-7-9-6-13-7-5-5v-2h-2l-3-9 1-10 3-6 8-7z" fill="#7A7A7C"/>
<path transform="translate(635,223)" d="m0 0h17l9 3 2 1v18l-5-2-8-3h-11l-6 1v2l-5 2-2 6-2 3-1 13 3 10 5 6 2 1v2l16 1 15-6v18l-7 3-12 2h-9l-9-2-11-6-5-6v-2h-2v-3h-2l-4-11v-17l4-13 6-9 7-6 10-5z" fill="#7A7A7C"/>
<path transform="translate(1500,608)" d="m0 0 1 3 5 1-2 4-6 4h-3v2h-3v2l-11 7-13 12-11 11-11 14-9 15-8 16-6 16-3 11h-2v8l-2 5-2 13-1 15v15l2 17 4 19 8 23 10 20 2 1v3h2l1 5h2l3 5v2h2l3 5 5 5 9 10v2l4 2 5 5 6 4v2l4 2 10 7 3 1v2l5 1 5 3 11 6 17 6 8 3 12 2 10 2 12 2 33 1-2 4-7-1-4-1-5 2-4-1-1 3-2-2h-3l-1 2-1-2-10-1h-3l-5-2-1 3-6-2v-2l-13-2-1-2-6 1-2-2h-4l-2-3-10-1v-3l-9-2-3-1-2-3-4-1-1 2-1-3-3-1v-4l-6-2-4-2-5-5-4-2v-2h-3v-3h-3v-2h-2l-1-2-3-1-3-5-3-3-3-1-2-4-7-2-2-10h-4l-1-4-2-1v-7l-6-8-1-3-2-1v-2l-7-1 3-2 1-6-4-1v-4l-2-1 1-5v-2h-3v-7l-2-5-3-3-4-3 5-1-3-10-1-2 1-7-2-1v-7l1-5-3-1h2v-4l-4-1h5l-1-6-3-2h4l1-12-3-1 1-4-1-2h3l1-13h2v-7l1-5h2v-8l1-5h3v-7l2-4-2-3 5 1 1-7 3-4h2l2-7 5-6v-5l4-1 5-1v-8l5-2 2-2 1-7 4-2v-2l4-1 1-5 4-1 1-3h4l1-5 4-4h2v2l3-2 1-5 3-1 2-3v2l8-1 3-1z" fill="#F2F3F3"/>
<path transform="translate(1825,34)" d="m0 0h2v970h-3v-821z" fill="#B3B3B4"/>
<path transform="translate(711,223)" d="m0 0h10l1 8v12l-6-1h-10l-6 5h-2l-1 5-1 3-1 47h-19v-77h19l1 8 5-6 6-3z" fill="#7B7B7D"/>
<path transform="translate(1629,1400)" d="m0 0h3l-3 10-1 4 12-1v-6h-4l-1-5 1-2h7l-4 2 2 4 3 1v7h6l-1-4v-8l3-2h9l2 3v8l-2 3h12v-5l-4-1-1-5 2-3h5l3 3v7l-2 4h5l2-6-1-8 4 3 3-3h3l-2 4 1 7 1 3 7 1-2-5 3 2v2l5-1v2l17-1h7l-1-2v-10l2-2h5l2 2v11l5 1v-14h10l1 12-1 2h5l1-6 2-3h2v-4h-5v-1h9l-3 8-1 4 10 2-2-6v-8l3 1 1 11h5l1-12h3v9l-1 5h5l2-5v-6-3l5 4v-3l3-1-1 10 1 5 5-1 1-14h1v15h13v3h-202v2h-3l1-3h2l-1-8 3 1 2-7h2v7l-3 5h7l2-10z" fill="#1D1B25"/>
<path transform="translate(757,238)" d="m0 0h10l9 5 5 7 1 5v17l-4 9-6 5-5 2h-9l-9-3-6-10-1-4v-15l3-9 7-6z" fill="#FDFDFD"/>
<path transform="translate(908,238)" d="m0 0 10 2 6 5 3 5 1 5v17l-4 9-6 5-5 2h-9l-9-3-5-8-2-7v-14l3-9h2l2-4 3-1v-2z" fill="#FDFDFD"/>
<path transform="translate(65,39)" d="m0 0h1v18h-24l-1 1447h24v24h41v1h-42v-24h-24v-1450h25z" fill="#ADADAE"/>
<path transform="translate(581,224)" d="m0 0h9l1 1v77h-19v-77z" fill="#7A7A7C"/>
<path transform="translate(1378,1400)" d="m0 0h2l-2 7h-2l-1 7h7l1-6 4-8h2l-2 9-2 5h9l-1-9h3v9h10l5-1 1-8h-6v7h-1v-8l1-1 8 1 1 8-1 2h6v-10h2v10l4-1 1-8 3-1v10h5v-7l2-4 5-1v3h-3l-1 10 9-1 4-2 1-7h-2v5h-3v-7h6l1 11 6 1v-4h-3l1-4h2v-4h7v7h-2v-5h-3l1 7 3 2 6 1v-11l5-1v2l-2 1-1 9h10v-8l1-4h6l1 1v8l-2 1-1-9h-3v10l11 1v-2l9 2-2-4v-6l4-2h5l1 8-1 4h8v-11l3 1-1 1v8l8 1v2h8l-1-4 1-8-5-1v9l2 1h-4v-11h9v16h-157l-40-1-4-4v-10l2 1v7l5 1v-9h1v11l10-2 1-4h2v5h7l3 1 3-9h2z" fill="#1E1C27"/>
<path transform="translate(1658,659)" d="m0 0 7 3 5 3v2l4 2 10 9 8 8 6 8 8 11 4 10 3 6v3h2l6 20 2 12v28l-2 10-2 12-5 15-7 14-8 12-12 15-8 7-9 8-9 6-24 12-10 3h-3l1-3h2v-2l9-4 11-4 9-5 11-7h2v-2l11-9 9-10 1-2h2l2-4 7-11 6-12 5-12 4-20 1-11v-25l-2-14-2-10h-2l-6-17-1-4h-2l-4-7-6-9-9-10-10-10-15-11-2-3z" fill="#ECECED"/>
<path transform="translate(41,1324)" d="m0 0h2v178h24v24h363l-2 2h-363v-24h-24z" fill="#868688"/>
<path transform="translate(857,564)" d="m0 0h24l5 3 2 5-1 8-2 3h-2v2l5 2 3 4-1 10-4 5-7 2h-20l-1-2 5-2 1-36-6-1z" fill="#26232C"/>
<path transform="translate(2,1568)" d="m0 0h992v1l-979 1v1h-13z" fill="#E4E9EE"/>
<path transform="translate(1583,638)" d="m0 0h15l18 2 15 4 5 2-3 1-15-4-18-2h-22l-20 4-10 3-12 5-11 6-19 14-12 12-13 18-5 8-10 26-2 12-2 10v24l3 19 5 16 8 16 10 16 11 12 10 10 2 1v2l4 1v2l5 2 22 12 12 4 23 5h29l21-4 10-2-2 2-10 3-7 2-14 2h-24l-22-4-13-4-15-7-15-9-11-9-5-4v-2h-2l-7-8-4-5v-2h-2v-3l-3-1-2-7h-2l-8-16-5-16-3-13-1-8v-32l5-23 3-8 10-21 8-11 9-11 9-9 11-8h2v-2l17-10 15-6 18-5z" fill="#35333B"/>
<path transform="translate(1684,754)" d="m0 0h8l5 1 8-1 1 6v14l-1 11h-7v-2l-6 2h-10l-6-5-3-7v-9h2l1-5 5-4z" fill="#23202A"/>
<path transform="translate(1765,807)" d="m0 0 1 4-3 13-4 12-5 10-3 7-5 9-3 6h-2v3h-2l-1 4h-2l-1 4h-2l-1 4h-2l-2 5-16 16-11 9-14 10-16 8-21 9-11 4-27 5h-37l-17-2-7-2-7-1-8-3-17-6-15-8-6-3v-2l-4-1-13-9v-2l-5-2-2-4-4-2-12-12-7-8-2-2v-3h-2l-3-5v-2h-2l-1-5 5 5 7 10 7 8v2h2l7 8 10 9 19 13 16 9 20 8 16 5 23 4h33l21-3 17-4 20-8 16-8 16-10 24-22 7-7 1-2h2l2-4 7-10 8-13 10-24 4-10 2-8z" fill="#1D1A24"/>
<path transform="translate(1427,815)" d="m0 0 2 3 1 6h2l7 17 3 5h3l3-6 3 3v2l4 2 1 2-9 1 2 7 5 5 4-1 5-1 3 7 3 3-2 7 3 5h9l4 4 2-2v6l-4 1 1 9 2 2 9 2 5 6 2 4 2 2-5-1-5-3v-2l-4-1v-2l-4-2-14-12-6-7-4-4-4-5-3-4v-2h-2l-6-9v-3h-2l-5-11v-2h-2l-9-27z" fill="#F8F8F8"/>
<path transform="translate(1825 1e3)" d="m0 0v3l-13 11-14 11-17 14-14 11-15 12-14 11-16 13-28 22-16 13-17 13-15 12-13 10-15 12-7 5-2-1 2-3 3-1 1-2 5-3h2l2-4h3l1-3 9-6 5-4 1-2h3l2-4 10-9 8-7 9-7h2v-2l17-13 16-12 10-8 17-13 8-7 17-13 14-12 13-10 20-15h3l2-4h3l2-4 5-3z" fill="#B1B1B2"/>
<path transform="translate(571,560)" d="m0 0h11v45l4 1v2h-8v-3h-3v2l-7 2h-5l-5-5v-3h-2v-12l2-5h2l1-3 4-2h12v-15l-6-1z" fill="#2F2D35"/>
<path transform="translate(1522,754)" d="m0 0h9l7 4 3 3 2 5v6l-4 8-3 1v2l-5 2h-9l-7-3-4-5-1-9 2-8 5-5z" fill="#221F29"/>
<path transform="translate(210,564)" d="m0 0h12l3 5 4 14 4 10v6l3-2 7-21 2-7 2-5h11l1 3-5 1 1 9 1 22 1 7h4v2h-15l1-3h4l-3-32-3 12h-2l-1 7-3 9-2 8h-5l-1-8h-2l-3-12-6-18-1 11v23l4 1v2h-15l1-3 5-1v-10l1-14v-12l-5-1z" fill="#2B2831"/>
<path transform="translate(1591,600)" d="m0 0h20l15 2 16 4v2l9 2 12 5 10 4v2l9 3 11 8 9 6 19 19 6 8v2h2v2h2l5 9v2l3 1 3 5 3 7 3 5v2h-2l-3-6-5-5-4-8v-2l-3-1v-2l-4-2-3-6-7-7-9-6-3-5-5-4-6 1-5-4 1-3-4-7-9-7-10-4v-2l-6-1-11-5v-2l-7-1-3-1-9-2h-6l-8-4-19-1-7-2z" fill="#F5F6F6"/>
<path transform="translate(1500,608)" d="m0 0 1 3 5 1-2 4-6 4h-3v2h-3v2l-11 7-13 12-11 11-11 14-9 15-8 16-6 16-3 11h-2v8l-3-2-2-5 1-5h2v-8l1-5h3v-7l2-4-2-3 5 1 1-7 3-4h2l2-7 5-6v-5l4-1 5-1v-8l5-2 2-2 1-7 4-2v-2l4-1 1-5 4-1 1-3h4l1-5 4-4h2v2l3-2 1-5 3-1 2-3v2l8-1 3-1z" fill="#F1F2F2"/>
<path transform="translate(957,561)" d="m0 0h10v44l5 1v2h-9v-3l-5 4h-9l-5-4v-3h-2v-12l3-7 3-3 3-1h12l-1-15-5-1z" fill="#26232C"/>
<path transform="translate(1527,662)" d="m0 0 3 1-5 4h-3v2l-11 8-11 11h-2l-2 5-3 1-1 4h-2v3h-2l-1 4-9 16-5 15-3 11h-3l-1 16v16l3 22 3 9v3h-2l1 4-3-3-5-16-2-15v-24l3-18 3-9 6-16 5-10 3-5 6-1 8-11 16-16z" fill="#E7E7E8"/>
<path transform="translate(1578,640)" d="m0 0h22l14 2 4 2v2h-39l-16 3-16 5-22 10-16 12-14 14-8 11h-5l7-11 12-13 10-9 17-12 15-7 19-6z" fill="#E7E7E8"/>
<path transform="translate(1631,754)" d="m0 0h11l5 2 4 5 2 6v5h-22l2 4 2 1h7l3-2 4 1v2h2l-2 4-6 3h-10l-7-4-4-7v-9l5-8z" fill="#211E28"/>
<path transform="translate(1513,754)" d="m0 0h6l-5 5-2 3-1 8 1 7 5 5 1 3-3 1-6-1-6 3-5 2h-9l-11-7-5-9 1-8 1-3h2v-2l5-3-2 8v7l3 7 5 3 2 1h10l6-3 1-4-4-2-4 2h-8l-4-4v-7l5-4 8 1 4 1 4-2-3-5v-2z" fill="#F0F1F1"/>
<path transform="translate(347,1212)" d="m0 0h289v2l-245 1h-44z" fill="#48464D"/>
<path transform="translate(1644,650)" d="m0 0 6 1 14 8 12 9 10 9 8 8 10 14 8 14 5 13 4 11 3 15 1 10v17l-2 20-4 11-4 13-4 9-9 15h-2l-2 5-5 7h-2l-2 4-13 12-10 7-8 5-13 6-3-1 15-8 14-9 10-9 4-4h2l2-4 7-8 10-15 7-14 5-15 2-12 2-10v-28l-3-16-4-13v-3h-2l-6-14-3-6-7-10-2-5-3-1-7-8-8-8-7-5v-2l-5-2-8-5-7-4-6-2z" fill="#35323A"/>
<path transform="translate(1545,754)" d="m0 0h9l1 23 8 1v-2h2l1-21 1-1h7v30l-1 1h-6v-3l-5 2-1 1h-10l-4-4v-3h-2z" fill="#25222B"/>
<path transform="translate(508,1156)" d="m0 0h4v4h-2l-1 4-2 4 5-5h4l-1 4-4 2-1 2 10-2 4-5 3-3h6l-1 5-5 5 11-2 5-3 2-4 9 1 1 5-1 3 10-4h4l-1 3-9 3h-8l1-8-5 2-2 3-8 3h-11v-2l-6 2h-13v-2l-5 2-8-1-9 1v-2l-6 2h-8l-1-1v-5l5-4 4-2h7l2 1-1 9 8-3 7-1 6-10z" fill="#39373F"/>
<path transform="translate(410,578)" d="m0 0h7l3 3v2l8-4h8l3 1v3h2v22l5 1v3h-10v-26l-10 1-4 2v19h5v3h-9l-1-22-2-2-8-1v2l-3 2-1 18h5l1 3h-15l1-3h4v-23h-5l-1-3h9l1 4 4-3h3z" fill="#2A2730"/>
<path transform="translate(1658,659)" d="m0 0 7 3 5 3v2l4 2 10 9 8 8 6 8 8 11 4 10 3 6v3h2l6 20 2 12v28h-1l-1-22h-1l-1 13h-1l-2-30-3-11v-3h-2l-6-17-1-4h-2l-4-7-6-9-9-10-10-10-15-11-2-3z" fill="#E7E8E9"/>
<path transform="translate(1654,595)" d="m0 0h1v5l10 2 2-1 2 4h6l4 1v5l6 2 1-2 1 4h2v2l6 2v2l5 2 3 2h5l2 7 4 2 5 2 1 5h2l3 5 5 2-1 5 4 1 2 1 3 3v4h2v3h2v2l4 2v7l2 1h-2l-1 2-4-5-5-9-9-11-9-10-8-8-5-3v-2l-8-4v-2l-5-2-9-6-5-2v-2l-9-3-5-3-17-6v-3z" fill="#F8F9F9"/>
<path transform="translate(1531,193)" d="m0 0h8l5 3 3 4v13l-4 6-5 2h-7l-5-3-3-8 1-9 3-5z" fill="#28262F"/>
<path transform="translate(616,564)" d="m0 0h16l-1 3-4 1v28l1 5 5 3h8l3-1 1-2h2v-34h-5v-3h16l-1 3-4 1-1 29-3 7-4 3-5 2h-9l-6-4-4-6v-31l-5-1z" fill="#323038"/>
<path transform="translate(472,578)" d="m0 0h6l4 4v2l5-4 3-1h9l3 4v22l5 1v2h-9l-1-24h-10l-2 2v19l3 1v2h-9l-1-23-2-2h-5l-5 4v18l4 1v2h-15l1-3h4v-23h-4v-3h7l1 4z" fill="#2B2831"/>
<path transform="translate(753,578)" d="m0 0 8 1 2 3 5-2 2-1h10l4 4v22l5 1-1 3h-9v-26l-10 1-3 2v18l4 2v2h-9l-1-22-2-4-8 2-4 2v19l5 1v2h-13l-1-3h5l-1-22-4-2v-2h8v4l7-4z" fill="#2F2D35"/>
<path transform="translate(1976,1502)" d="m0 0h24l3 3h-25v23h-217l1-2h214z" fill="#7D7D7F"/>
<path transform="translate(1600,754)" d="m0 0h13l5 3 1 3-1 2-6 1-8-2 1 3 12 4 3 3v7l-3 5-5 2h-9l-5-2v-2l-3-1v-3l4-3 4 2 1 1h7v-2l-13-5-1-3h-2v-8z" fill="#23202A"/>
<path transform="translate(1578,597)" d="m0 0h24l17 2 20 5 3 2-7-1-14-3-29-2-23 1-21 4-21 7-17 8-11 7-6 4h-2v2l-13 10-5 5-7 6-6 8h-2l-2 5-6 8-8 12-10 21-4 12h-1l1-8 6-15 8-15 10-15 11-13 17-17 15-11 19-11 20-8 17-5 19-4z" fill="#221F28"/>
<path transform="translate(1494,753)" d="m0 0 6 1 7 4 1 4-4 3-4-1-8-1-4 3v7l3 3h8l5-2 4 3-2 5-6 3h-10l-6-3-3-3-2-6v-7l3-7 5-4z" fill="#201E27"/>
<path transform="translate(1597,586)" d="m0 0 1 2h13l7 2h6l14 4 8 2v1l-9 1-14-3-16-2h-31l-25 5-11 3h-6v2h-6v-2l1-1 1-2h2l1-2h4v-2h6l13-3 8-2 19-1 2-1h11z" fill="#F3F4F4"/>
<path transform="translate(400,1158)" d="m0 0 3 1v7l-2 4 9-2h5l-2 2-7 3h-8l-1-1-15 1 2-9-6 5-2 4h-3v-3l-7 3h-8l-1-4 1-4-10 6-14 2v-2l-7 2-6-1v-6l3-3 4-1h10l-1 9 5-2 7-2 3-5h7l3 2v6l9-2 3-2 1-4h13l-1 8h7v-2l3-3h3z" fill="#29272F"/>
<path transform="translate(446,1149)" d="m0 0h9l3 1v5l-2 4 8 1 4 5-2 5-6 3h-12l-7-4-1-3v-8l3-7z" fill="#26242D"/>
<path transform="translate(911,578)" d="m0 0h9l4 3 2 4v20l5 1v2h-8l-1-4-7 4-6 1-5-3-1-1v-9l2-2 6-2 10-1-1-8h-10l-3 5h-3v-7z" fill="#35323B"/>
<path transform="translate(989,578)" d="m0 0h9l2 1v2l4 2v22l5 1-1 3h-8v-5l-7 5h-8l-3-4v-9l5-3 13-2-2-9-12 1v4h-3l-1-6z" fill="#2D2A33"/>
<path transform="translate(1467,747)" d="m0 0h2v43l5 19 4 11 9 17 10 14 8 9 8 7 3 2v2l5 2 8 5 11 6 15 6 18 4 7 1h32v1l-15 2-21-1-19-4-17-6-10-5-21-14-5-5-11-12-1-4h-2l-6-9-8-16-6-15-3-12-2-16v-16z" fill="#302D36"/>
<path transform="translate(362,578)" d="m0 0h10l6 6v21h5v3h-9v-4l-7 4-6 1-5-3-1-9h2v-2l6-3 11-1-1-8h-13l-1 5h-2l-1-7z" fill="#2A2831"/>
<path transform="translate(525,578)" d="m0 0h9l5 4 1 2 1 20 4 2v2h-9v-4l-6 4-8 1-4-4v-9l5-3 7-2h6l-2-7-1-1h-9l-3 4h-3v-5l2-2z" fill="#2C2A32"/>
<path transform="translate(312,561)" d="m0 0h11v21l7-4h7l4 3 1 4v20h5v3h-9l-1-25-10 1-3 2-1 19h4v3h-14v-2l5-1v-42h-6z" fill="#2A2831"/>
<path transform="translate(707,578)" d="m0 0h8l6 4 2 3v20l4 1v2h-8l-1-4-3 3h-3v2l-9-1-3-5 1-7 5-3 9-2h4l-2-7-2-1h-9l-1 5-4-1 1-7z" fill="#2E2B34"/>
<path transform="translate(1573,593)" d="m0 0h11v1l-16 2-20 5-19 6-13 5-16 9-14 10-11 9-7 6-9 11-7 8-10 15-6 11-3 4h-2l3-9 6-9 3-5 6-9 11-13 16-16 11-8 5-2v-2h3v-2l9-5 16-8 11-4h3v-2l27-6z" fill="#24222B"/>
<path transform="translate(806,578)" d="m0 0h8l6 4 1 1v22h5v3h-8l-1-4-5 4-9 1-4-4v-7l3-4 4-2 11-1-1-7-1-1h-10l-2 4h-3v-6z" fill="#26242D"/>
<path transform="translate(1583,638)" d="m0 0h15l18 2 15 4 5 2-3 1-15-4-18-2h-22l-20 4-10 3-12 5-11 6-19 14-12 12-13 18-5 8-10 26-2 12-3 9-1-4 5-23 3-8 10-21 8-11 9-11 9-9 11-8h2v-2l17-10 15-6 18-5z" fill="#302E36"/>
<path transform="translate(1709,726)" d="m0 0 2 2v3h2l4 14 1 10v25l-2 17-3 14-5 12-8 16-8 11h-2l-2 4-7 8-10 9h-2v2l-13 8-16 8-14 4-8 2h-6l4-2 18-5 20-9 12-8 15-13 9-10 9-14 8-16 6-18 2-10v-32l-2-14-4-15z" fill="#2F2C35"/>
<path transform="translate(623,1145)" d="m0 0h5l1 3h2v5h-2l2 6 5 5-3 7-5 2-10-1-6-2-9 1-6 1v-2l10-3-3-4v-2l11 1 7-4v-3l-2-2v-5l3-1z" fill="#3E3C44"/>
<path transform="translate(208,741)" d="m0 0h14l5 4 2 5v8l-2 5-5 4h-14l2-2 1-22-4-1z" fill="#F5F6F6"/>
<path transform="translate(264,1151)" d="m0 0 7 1 8-1 5 3 2 4 7-5 5-2h7l3 5-1 15 7-2h5l-2 3-5 1h-10v-8l1-2 1-9h-8v2l-6 3-4 4-4 10-4-1 2-6v-10l-1-3-7 3-3 2-4 10-4 4h-4l1-5 4-8 4-2v-4l-14 4h-4v-2z" fill="#2A2730"/>
<path transform="translate(1763,788)" d="m0 0h1v8l-5 22-5 16-9 22-8 13-7 9h-2l-1 3h-2l-1 4-7 8-7 6h-2l-1 3-3 1-7 8-19 12-19 9-11 4-4-1 22-9 10-5h2v-2h3v-2l7-4 13-10 15-14 10-11 12-17 10-18 6-15 4-14 4-23z" fill="#302E36"/>
<path transform="translate(1579,645)" d="m0 0h29l21 5 17 6 8 4 11 7 11 9 15 15 6 8 4 7 1 4h2l5 13-1 3-9-18-3-5v-2h-2v-3h-2l-1-4-4-2-7-8-7-7-12-9-14-8-11-5-13-4-12-3-19-1-18 1-24 6-16 8-4-1 19-9 17-5z" fill="#323038"/>
<path transform="translate(1586,193)" d="m0 0h13l5 4 1 6-4 4 1 5 6 7v3l-5-1-7-9v-2h-2v7l1 4h-10l1-3h2l-1-21-2-3z" fill="#302D36"/>
<path transform="translate(578,192)" d="m0 0h7l6 4 2 4v6l-3 5-7 3-7-1-4-5-2-3 1-7 5-5z" fill="#7C7C7E"/>
<path transform="translate(1445,665)" d="m0 0h2l-2 6-3 3-5 9-8 16-6 16-3 11h-2v8l-3-2-2-5 1-5h2v-8l1-5h3v-7l2-4-2-3 5 1 1-7 3-4h2l2-7 5-6v-5l4-1z" fill="#EDEDEE"/>
<path transform="translate(1605,1399)" d="m0 0 2 1-1 14 3 1v3h-65l1-4h3l11 1-2-5-1-1v-5h2l1 6h2l2-6h2l-1 7-1 3h8v-8l2-2v7l5 3 6 1 1-11 4-1-2 4-1 8 9-1 1-11h1v11h7v-13z" fill="#212531"/>
<path transform="translate(1491,246)" d="m0 0h14l4 2 1 2v7l-4 5 5 7 3 2-1 3-6-2v-2h-2l-5-8-2-1 2 9 1 3h-10l2-3v-21z" fill="#25222B"/>
<path transform="translate(269,579)" d="m0 0h10l1 24 1 1h7l5-3 1-19h-5v-3h9v27h5l-1 3h-8v-5l-5 4h-12l-3-4v-22l-5-1z" fill="#292730"/>
<path transform="translate(648,742)" d="m0 0h15l2 4v6l-2 1 3 3v7l-6 4h-12v-2h3v-22z" fill="#312F37"/>
<path transform="translate(952,582)" d="m0 0h8l3 2v18l-5 3h-8l-3-5v-13z" fill="#F3F3F4"/>
<path transform="translate(566,582)" d="m0 0h8l3 2v17l-4 4h-8l-4-5v-13z" fill="#F6F6F6"/>
<path transform="translate(1472,895)" d="m0 0 5 3 9 8 2 1v2l4 1v2l5 2 13 8 19 9 19 6 20 4 9 1h29l20-3 11-3h4v2l-16 4-13 2h-43l-25-5-20-7-20-10-12-8-5-4-8-7-7-6z" fill="#25222B"/>
<path transform="translate(1765,807)" d="m0 0 1 4-3 13-4 12-5 10-3 7-5 9-3 6h-2v3h-2l-1 4h-2l-1 4h-2l-1 4h-2l-2 5-16 16-11 9-14 10-3-1 7-6 11-8 8-8 8-7 9-9 1-2h2l2-4 7-10 8-13 10-24 4-10 2-8z" fill="#29262F"/>
<path transform="translate(1687,855)" d="m0 0 3 1-2 4-14 14-12 8-8 5-17 8-10 3h-3l1-3h2v-2l9-4 11-4 9-5 11-7h2v-2l11-9z" fill="#F2F3F4"/>
<path transform="translate(1670,753)" d="m0 0 3 1-1 7-7 2-1 22h-8v-31h8v3z" fill="#221F29"/>
<path transform="translate(1577,754)" d="m0 0 11 1 1-1h5l-1 5-7 6-1 20h-8z" fill="#26232C"/>
<path transform="translate(1643,246)" d="m0 0h5l8 22 2 2v3h-9v-2h2l-1-6-10-1 1 7 1 2h-9l2-5z" fill="#25222C"/>
<path transform="translate(1667,762)" d="m0 0h7v11l3 7 5 4h10l6-1 1 3-2 2-4 1h-10l-11-5-7 1v-22z" fill="#F6F7F7"/>
<path transform="translate(868,587)" d="m0 0h13l5 4v9l-4 4h-14z" fill="#F2F2F2"/>
<path transform="translate(974,823)" d="m0 0 8 1 1 6 3-2 5 1 1 1v8l-1 1h-6l-3-2-2 2h-8l-3-4v-8l3-3z" fill="#F8F9F9"/>
<path transform="translate(1639,193)" d="m0 0h20v6l-2 2-1-4h-10v8h9v3h-9l1 9 8 1 2-5 2 1v6l-1 1h-18v-3h2l-1-21z" fill="#27242D"/>
<path transform="translate(1441,865)" d="m0 0 5 5 7 10 7 8v2h2l7 8 10 9 19 13 16 9 20 8 12 4 1 3-10-2-12-5-9-4-18-9v-2l-4-1-13-9v-2l-5-2-2-4-4-2-12-12-7-8-2-2v-3h-2l-3-5v-2h-2z" fill="#25222C"/>
<path transform="translate(1690,246)" d="m0 0h20v6l-3 1v-3h-10v7h8l1 4h-9v9l11-1v-2h2v5l-1 1h-19l1-3h2l-1-20z" fill="#27252E"/>
<path transform="translate(644,1158)" d="m0 0h3v6l-6 2-1 5 9-2 6-7 7-1-1 5-5 5 11-2 4-1 1-4 4-1-1 5-1 3 9-3h5l-3 3-8 2h-5l-5-1-2 1h-11l-5-1-1 1h-9l-3-2 1-8z" fill="#35333B"/>
<path transform="translate(366,739)" d="m0 0h6l1 25 1 3h-13l-3-4v-10l3-3h8v-9h-3z" fill="#47454C"/>
<path transform="translate(673,579)" d="m0 0h11l2 1v7h-2l-2-4h-10l-1 4 3 3 10 4 3 4v6l-6 5h-11l-4-4v-6l4 1 1 4 2 1h6l3-3-1-4-8-4-5-3-1-1v-8z" fill="#29262F"/>
<path transform="translate(1532,197)" d="m0 0h7l4 5v11l-4 4h-7l-3-2-1-4v-11h2v-2z" fill="#F3F3F4"/>
<path transform="translate(1464,246)" d="m0 0h20v6h-4v-2h-9v8h9l-1 3h-8v9l9-1 2-3h2v6l-1 1h-18l1-4v-21h-2z" fill="#292730"/>
<path transform="translate(1554,193)" d="m0 0h9l1 2-3 3v15l1 4 8-1 2-5v-13l-3-4 1-1h8v3l-1 1-1 16-3 6-4 2-9-1-3-5-1-4-1-14z" fill="#2B2831"/>
<path transform="translate(1988,31)" d="m0 0h15v15l-3 1h-12l-1-1v-14z" fill="#838385"/>
<path transform="translate(1027,578)" d="m0 0h1l1 6 6-5h8v9h-3l-1-5-5 1-4 2v19l5 1v2h-15v-3h5l-1-22-5-2v-2z" fill="#2A2830"/>
<path transform="translate(1987,1514)" d="m0 0h16v14l-1 1h-14l-1-1z" fill="#F3F4F6"/>
<path transform="translate(449,1151)" d="m0 0h5l1 4-5 5 10 1 4 3-1 5-3 2h-10l-6-4 1-10 2-5z" fill="#F3F3F3"/>
<path transform="translate(1719,803)" d="m0 0 1 4-3 10-7 17-8 13h-2l-2 5-5 7h-2l-2 4-13 12-10 7-8 5-13 6-3-1 15-8 14-9 10-9 4-4h2l2-4 7-8 10-15 7-14z" fill="#403E45"/>
<path transform="translate(527,742)" d="m0 0h13l3 2v10l-2 2-8 1-1 8 4 2h-8l1-24z" fill="#35323A"/>
<path transform="translate(42,31)" d="m0 0h13l1 1v13l-4 2h-10l-1-1v-14z" fill="#F9FAFA"/>
<path transform="translate(1532,1403)" d="m0 0h9v16h-157v-1h146l1-3v2h8l-1-4 1-8-5-1v9l2 1h-4z" fill="#899CA5"/>
<path transform="translate(41,1514)" d="m0 0h15v14l-1 1h-15z" fill="#FCFCFC"/>
<path transform="translate(1619,193)" d="m0 0h8l4 2v5h-4l-2-3h-5l-2 5 12 6 1 1v8l-3 3-4 1h-7l-3-2v-6l3-1 1 6 7-1 1-1v-5l-9-5-3-3 1-7z" fill="#26232C"/>
<path transform="translate(339,750)" d="m0 0h8l4 4v8h-2l-2 4-2 1h-6l-4-4v-8z" fill="#403E45"/>
<path transform="translate(1444,718)" d="m0 0 7 1 4 4v7l-1 5-9-2-8-3 2-9z" fill="#3B3940"/>
<path transform="translate(1472,812)" d="m0 0 2 2 5 13 7 12 4 6v2h2l6 9-4 2-7-8-12-19-4-8-2-7 1-3z" fill="#D9DCE0"/>
<path transform="translate(451,750)" d="m0 0h11v10l-6 3h-3v3h9l1 1v6l-3 2h-11l-1-5h2l1 2h9l1-3-9-1-3-8v-8z" fill="#5C5A60"/>
<path transform="translate(551,750)" d="m0 0h7l5 5v7l-4 4-2 1h-6l-2-4h-2v-8z" fill="#F3F4F4"/>
<path transform="translate(868,568)" d="m0 0h11l4 3v9l-5 4h-10z" fill="#EFEFF0"/>
<path transform="translate(1504,193)" d="m0 0h10l2 2v8h-2l-3-5h-7l-3 1v12l3 5h12v3l-4 2h-9l-5-5-2-4v-11l4-6z" fill="#27242D"/>
<path transform="translate(1614,642)" d="m0 0 7 1 22 5 1 4 7 2 6 3v4h-3l-10-5-22-7-10-2v-1h6l-1-2z" fill="#D7D8D9"/>
<path transform="translate(1446,245)" d="m0 0 7 1 3 1 1 7-4-1-2-3h-6l-3 3v15l3 1h11v3l-6 2-8-1-4-4-2-5 1-11 4-6z" fill="#2B2831"/>
<path transform="translate(1461,757)" d="m0 0 1 2v24l3 19 5 16 8 16 10 16 11 12 8 8-1 3-7-6v-2h-2l-7-8-4-5v-2h-2v-3l-3-1-2-7h-2l-8-16-5-16-3-13-1-8v-28z" fill="#2F2C35"/>
<path transform="translate(1971,31)" d="m0 0h8v24h24l-1 29-2 1v-28l-6 1h-18v-25h-10v-1z" fill="#8B8B8D"/>
<path transform="translate(1661,246)" d="m0 0h23v7l-9-3 1 20 2 3h-10v-3h3v-21h-6l-1 4-3-1z" fill="#28262F"/>
<path transform="translate(1527,662)" d="m0 0 3 1-5 4h-3v2l-11 8-11 11h-2l-2 5-3 1-1 4h-2v3h-2l-1 4-9 16-5 15-3 11h-1l1-10 2-9h2l2-9 7-14 9-12 9-10 10-10z" fill="#36343C"/>
<path transform="translate(1518,246)" d="m0 0h22v6l-9-2v20h2v3h-9l1-3h2v-21h-6v4h-4v-6z" fill="#2A2830"/>
<path transform="translate(1614,246)" d="m0 0h10l3 2v6l-3 1-2-5h-7l-3 3v12l3 4h12v3l-6 2-9-1-4-4-1-4v-11l3-5z" fill="#24212B"/>
<path transform="translate(1565,246)" d="m0 0h18v7h-3l-1-3-8-1v9h8v3h-8v9l4 1v2h-11v-2l2-1 1-21h-2z" fill="#201E27"/>
<path transform="translate(1735,872)" d="m0 0v3l-5 7h-2l-2 4-14 14-16 14-16 10-16 8-5 1 2-3 19-9 18-12 7-8h2l5-5 5-4 7-8 1-3 8-7z" fill="#777779"/>
<path transform="translate(1522,762)" d="m0 0h8l2 1v2h2v9l-3 3h-9l-4-5v-5z" fill="#F2F2F2"/>
<path transform="translate(1686,762)" d="m0 0h7l2 1v2h2v8l-3 4h-9l-4-4v-6z" fill="#F2F3F3"/>
<path transform="translate(208,741)" d="m0 0h14l5 4 2 5v8l-2 5-5 4h-14l2-2 1-22-4-1zm6 3v21h7l5-5v-12l-4-4z" fill="#403E45"/>
<path transform="translate(428,579)" d="m0 0h8l3 1v3h2v22l5 1v3h-10v-26l-12 1z" fill="#35323A"/>
<path transform="translate(1496,856)" d="m0 0 4 2 9 8v2l5 2 11 8 9 5 1 2h-3l3 3-6-2-14-8v-2l-4-1v-2l-4-2-12-12z" fill="#E7E9EA"/>
<path transform="translate(1699,1399)" d="m0 0h8l3 4v7l-2 3 6 1v1h-9l-5-1-2-3-2 1-1-2v-7z" fill="#4B7F98"/>
<path transform="translate(1712,816)" d="m0 0 2 3-3 9-11 18-9 11h-3l-1-3 3-4h2l2-4 7-11 6-12 2-5z" fill="#E9EBEE"/>
<path transform="translate(1658,659)" d="m0 0 7 3 5 3v2l4 2 10 9 8 8 2 5-5-1-16-16-15-11-2-3z" fill="#ECEDEE"/>
<path transform="translate(816,821)" d="m0 0h10v2h-2v16h-11v-12z" fill="#F1F2F3"/>
<path transform="translate(347,1212)" d="m0 0h94v1l-48 1-2 1h-44z" fill="#666569"/>
<path transform="translate(478,1161)" d="m0 0h7l2 1-1 9 7-2 4 1-4 2-9 1v-2l-6 2h-8l-1-1v-5l5-4z" fill="#2F2D35"/>
<path transform="translate(1497,622)" d="m0 0m-1 1m-1 1m-2 1h2l-1 3-11 8-10 9-13 13-10 13-12 20h-2l1-4 9-15 10-13 10-11 4-5 11-9 9-7z" fill="#777779"/>
<path transform="translate(1305,1400)" d="m0 0 2 2-1 13 6-1 1-7 2 2v6h6l-1-12 3-1v7l1 5 6 1v-13l3 2h-2l1 9 5 2v2l4 1h-38v-3h2z" fill="#1D1F2A"/>
<path transform="translate(217,1266)" d="m0 0 7 1 1 1v13h-11v-2h-2l-1-2v-7l3-3z" fill="#DDDDDE"/>
<path transform="translate(1709,726)" d="m0 0 2 2v3h2l4 14 1 10v25l-2 17-3 14-2 6-2-4 5-17 1-6v-32l-2-14-4-15z" fill="#3D3B42"/>
<path transform="translate(1654,595)" d="m0 0h1v5l10 2 2-1 2 4h6l4 1v5l3 1v2l-4 1v-2l-9-3-5-3-17-6v-3z" fill="#F6F7F7"/>
<path transform="translate(1511,866)" d="m0 0 5 3v2l5 2 8 5 11 6 15 6 18 4 7 1h32v1l-15 2-21-1-19-4-17-6-10-5-9-6-10-7z" fill="#333038"/>
<path transform="translate(1595,757)" d="m0 0 1 2-1 8h2l3 3 11 4v4h-7l-3-3-6 1-2-7-5-1-1 14h-1v-18z" fill="#EDEDEE"/>
<path transform="translate(1583,638)" d="m0 0h15l18 2 15 4 5 2-3 1-15-4-18-2h-22l-20 4-10 3-5 1v-2l24-7z" fill="#3B3940"/>
<path transform="translate(1540,755)" d="m0 0h4l1 9v14h2l3 5 4 4h-6l-4-2-8-2v-2l4-4 2-5v-6l-5-10z" fill="#F2F3F3"/>
<path transform="translate(1659,665)" d="m0 0 4 1 12 9 16 16 6 8 4 7 1 4h2l5 13-1 3-9-18-3-5v-2h-2v-3h-2l-1-4-4-2-7-8-7-7-12-9-2-1z" fill="#35333B"/>
<path transform="translate(1623,755)" d="m0 0h5l-5 10v10l-3-1-3-5-12-4-1-4h6l5 1h3l1-5z" fill="#FAFBFB"/>
<path transform="translate(1591,600)" d="m0 0h20l15 2 16 4v4l-11-2h-6l-8-4-19-1-7-2z" fill="#E4E4E5"/>
<path transform="translate(737,579)" d="m0 0h8v4l3 1-1 2-1 19 5 1v2h-13l-1-3h5l-1-22-4-2z" fill="#1E1B25"/>
<path transform="translate(328,1162)" d="m0 0h10l-1 9 3 1-6 1v-2l-7 2-6-1v-6l3-3z" fill="#24212B"/>
<path transform="translate(1554,755)" d="m0 0h1l1 10 5 1 3-10h1v20h-2v2h-8l-1-1z" fill="#F5F5F5"/>
<path transform="translate(237,750)" d="m0 0h8l4 3v12h2v2h-3v-2l-9 2-3-1v-7l5-2h5v-5h-7l-1 3h-2z" fill="#56545A"/>
<path transform="translate(1504,197)" d="m0 0h7l2 2-1 3v-2l-4 1-2 3 1 7 3 3 3 1 1-4 2 4-2 2h-10l-3-3-1-3v-10z" fill="#F1F1F2"/>
<path transform="translate(273,750)" d="m0 0h8l3 3 1 14h-2v-2h-4v2h-6l-2-2v-6l5-2h5l-1-4h-6l-2 1z" fill="#5A595E"/>
<path transform="translate(245,1212)" d="m0 0h50l-1 3h-48z" fill="#5F5E62"/>
<path transform="translate(568,750)" d="m0 0h6v2h-2l2 5v5l3-3 2-6 4 1 2 7 3-4 1-5h-2v-2h5v3l-2 6-2 8h-4l-3-7-1-2-3 8h-3l-4-8z" fill="#37353C"/>
<path transform="translate(335,1267)" d="m0 0h8l2 3v7l-3 4h-6l-3-4v-7z" fill="#F9F9F9"/>
<path transform="translate(1653,881)" d="m0 0 4 2-1 3-19 9-10 3h-3l1-3h2v-2l9-4 11-4z" fill="#E9EAEB"/>
<path transform="translate(296,1212)" d="m0 0h49l-1 3h-47z" fill="#5E5D62"/>
<path transform="translate(264,1151)" d="m0 0 4 1 4 2-4 7-3 7-4 4h-4l1-5 4-8 4-2v-4l-14 4h-4v-2z" fill="#25222B"/>
<path transform="translate(1547,942)" d="m0 0 26 4h43v2l-4 1h-37l-17-2-11-3z" fill="#201D27"/>
<path transform="translate(1531,884)" d="m0 0 8 1 11 5 15 4v3l-6 1-12-3-12-6z" fill="#D9DDE1"/>
<path transform="translate(383,750)" d="m0 0h7l2 1 1 7-1 1h-10l2 6h8l-2 2h-7l-3-3-1-10z" fill="#515055"/>
<path transform="translate(1762,713)" d="m0 0 1 2 2 1 3 4v3l4 2h-2l1 9 2 4h-3l2 5 2 7 2 1h-3l-1 12h-1l-3-23-5-21z" fill="#F8F9FA"/>
<path transform="translate(302,741)" d="m0 0h6l4 9 4 12 2-2-1 7h-3l-4-14-3-7-1 19h3v2h-9l1-2h2v-9l1-11 1-2h-3z" fill="#28252E"/>
<path transform="translate(1573,593)" d="m0 0h11v1l-16 2-20 5-19 6-13 5-6 3-2-1 8-5 15-6h3v-2l27-6z" fill="#1D1A24"/>
<path transform="translate(1547,246)" d="m0 0h9v3l-2 1-1 20 3 1v2h-9l1-4v-19z" fill="#201D27"/>
<path transform="translate(1578,597)" d="m0 0h24l17 2 20 5 3 2-7-1-14-3-29-2h-16v-2z" fill="#28252E"/>
<path transform="translate(1701,903)" d="m0 0h2l-2 4-7 6-18 11-17 8-11 4-4-1 22-9 10-5h2v-2h3v-2l7-4z" fill="#222029"/>
<path transform="translate(691,1162)" d="m0 0h14l-2 8 7-1 6-2-2 4-6 2h-9l1-9-3 1-1 2h-2l-1 5-4 1z" fill="#38353D"/>
<path transform="translate(1590,246)" d="m0 0h9l-1 3h-2v21l3 1v2h-9l1-3v-20z" fill="#1E1C25"/>
<path transform="translate(1742,1400)" d="m0 0h10l1 12-2 2-7-1-2 1z" fill="#5A869C"/>
<path transform="translate(1422,705)" d="m0 0 3 1-2 9-3 11h-2v8l-3-2-2-5 1-5h2v-8l1-5h3z" fill="#EAEAEB"/>
<path transform="translate(1803,1399)" d="m0 0h2v6h5v-6l4 1v14l2 1h-12z" fill="#76909E"/>
<path transform="translate(1485,692)" d="m0 0 3 1-7 10-5 8-10 26-2 12-3 9-1-4 5-23 3-8 10-21z" fill="#3C3A41"/>
<path transform="translate(625,1159)" d="m0 0h2l4 7-1 4-1 1h-9l-6-3v-3l8-4z" fill="#EEEEEF"/>
<path transform="translate(1631,773)" d="m0 0h24v12h-4v-2h-2l2-5h-2l-1-2-4 1-2 1h-7l-4-3z" fill="#F2F2F2"/>
<path transform="translate(1730,1400)" d="m0 0h5l2 2v11l5 1v1h-7l-2-1-2 1h-6l4-1-1-2v-10z" fill="#4E768B"/>
<path transform="translate(362,828)" d="m0 0h8l1 1 1 10h-13v-8z" fill="#EBEBEC"/>
<path transform="translate(1526,594)" d="m0 0 5 1-1 4v3l-2-1v2l3 1-11 4-5-1-2-2v-6l5 1 2 2 4-2 1-5z" fill="#A1A1A5"/>
<path transform="translate(680,828)" d="m0 0 8 1 4-1 1 2h-4l1 9h-12l-1-9z" fill="#69686C"/>
<path transform="translate(1620,774)" d="m0 0 4 1 3 6 6 3 13 1-2 2-6 2-8-2-3-1h-10l-1-2 3-6z" fill="#EEEEEF"/>
<path transform="translate(1634,895)" d="m0 0 3 1-12 4-7 2-14 2h-24l-11-2v-2l8 1h29l21-4z" fill="#333139"/>
<path transform="translate(812,594)" d="m0 0h5v7l-5 4-7 1v-2h-2v-6l4-3z" fill="#E9E9EA"/>
<path transform="translate(1637,936)" d="m0 0h4v2l-16 4-13 2h-43l-6-1v-2l14 1h29l20-3z" fill="#24212A"/>
<path transform="translate(1729,654)" d="m0 0h6l3 4v4h2v3h2v2l4 2v7l2 1h-2l-1 2-4-5-5-9-7-9z" fill="#F7F7F8"/>
<path transform="translate(1594,612)" d="m0 0h6l2 3v9l-3 2h-5l-2-3v-9z" fill="#ECEDEE"/>
<path transform="translate(425,750)" d="m0 0h13l3 2 1 15h-4v-15l-7 2v11l1 2h-6l1-15h-2z" fill="#545358"/>
<path transform="translate(1702,655)" d="m0 0 4 2 2 2v5l-3 2h-4v6l-1 2h-2l1-10-7 4 1-4z" fill="#3F3D44"/>
<path transform="translate(531,594)" d="m0 0h5v7l-4 1v2l-2 1h-7l-1-1v-6l4-3z" fill="#EBEBEB"/>
<path transform="translate(1990,33)" d="m0 0h11v11h-11z" fill="#FAFAFA"/>
<path transform="translate(64,1502)" d="m0 0h3l1 24 41 1v1h-44v-24h-24v-1z" fill="#424047"/>
<path transform="translate(995,594)" d="m0 0h5v7l-4 1v2l-2 1h-7l-1-7 4-3z" fill="#E8E8E9"/>
<path transform="translate(369,594)" d="m0 0h5l-1 7-3 1v2l-2 1h-7l-1-1v-7z" fill="#E9EAEA"/>
<path transform="translate(1593,610)" d="m0 0h8l4 5v7l-3 5-9 1-4-6v-7l2-4zm1 2-2 2v9l2 3h5l3-2v-9l-2-3z" fill="#36343B"/>
<path transform="translate(545,1162)" d="m0 0 9 1 1 5-1 3 10-4h4l-1 3-9 3h-8l1-8-5 2-2 3-6 1 5-5z" fill="#3B3840"/>
<path transform="translate(302,1151)" d="m0 0 4 1 2 4-1 15 7-2h5l-2 3-5 1h-10v-8l1-2v-9l-2-2z" fill="#28262F"/>
<path transform="translate(619,1160)" d="m0 0m-15 1 14 1v2l-4 1v3l6 2 8 1v2l-10-1-6-2-9 1-6 1v-2l10-3-3-4z" fill="#27242D"/>
<path transform="translate(1603,913)" d="m0 0 7 1 1 4-1 5 3 3v2l-4-1v-3l-4-1v6h-3l-1-7v-8z" fill="#706F74"/>
<path transform="translate(527,1161)" d="m0 0h6l-1 5-5 5 11-1v2l-2 1h-11v-2l-5 1h-9v-1l9-2 4-5z" fill="#2C2932"/>
<path transform="translate(1725,694)" d="m0 0h6l3 3-1 5-4 3h-7l-1-8z" fill="#D7DBDF"/>
<path transform="translate(716,594)" d="m0 0h2v7l-8 5-4-1-2-2 1-5 1-2z" fill="#F0F0F1"/>
<path transform="translate(1765,807)" d="m0 0 1 4-3 13-4 12-5 10-3 7-5 9-2 3-2-1 8-16 7-17 4-10 2-8z" fill="#211E28"/>
<path transform="translate(492,750)" d="m0 0h15l2 5v11l2 1h-5l-1-14h-5l-2 2-1 10h2v2h-6l1-2 1-13h-3z" fill="#2B2831"/>
<path transform="translate(434,673)" d="m0 0h6l2 2v7l-2 3h-5v4l2 1h-5l1-16z" fill="#767579"/>
<path transform="translate(1547,617)" d="m0 0 3 1 3 11v4l-4-1-8-7h-1l4 12-4-1-2-5-1-11 4 1 8 7-1-4z" fill="#2D2B34"/>
<path transform="translate(396,821)" d="m0 0h3l1 18h-9l-1-1v-7l1-2 6-1z" fill="#69686C"/>
<path transform="translate(340,752)" d="m0 0h5l3 2v9h-2v2h-5l-3-3v-8z" fill="#F3F4F4"/>
<path transform="translate(1489,871)" d="m0 0 4 1 2 3v5l-6 2-1 7h-2v-10l-4 4-3-1 7-8h2z" fill="#3C3A41"/>
<path transform="translate(267,822)" d="m0 0h2v16l3-1v-9l2 1 1 10h-14v-9h-5v9h-2v-10l1-1h7l1 1 1 8h2z" fill="#58575C"/>
<path transform="translate(1443,721)" d="m0 0 7 1 3 3v7l-6-1-6-2-2-1 1-4z" fill="#E0E3E7"/>
<path transform="translate(42,31)" d="m0 0h13l1 1v13l-4 2h-10l-1-1v-14zm0 2v11h11v-11z" fill="#5C5A5F"/>
<path transform="translate(551,750)" d="m0 0h7l5 5v7l-4 4-2 1h-6l-2-4h-2v-8zm1 2-2 2v9l3 2h5l2-2v-8l-3-3z" fill="#37353D"/>
<path transform="translate(912,595)" d="m0 0h9v6l-6 4h-7v-7l1-2z" fill="#F3F3F4"/>
<path transform="translate(41,1514)" d="m0 0h15v14l-1 1h-15zm2 1v12h10v-12z" fill="#8E8E90"/>
<path transform="translate(1753,691)" d="m0 0h2v2h3l4 9v2h3l-1 3 2 5-6 1-5-14v-3h-2z" fill="#EBECED"/>
<path transform="translate(1719,803)" d="m0 0 1 4-3 10-7 17-8 13h-2l-2 5-4 5-3-1 10-13 9-15 6-15z" fill="#34323A"/>
<path transform="translate(1458,834)" d="m0 0 5 1 2 1v5l-5 4h-6l-2-6 3-4z" fill="#DDE0E4"/>
<path transform="translate(605,822)" d="m0 0h3l1 17h-9l-1-1 1-9 6-2z" fill="#636266"/>
<path transform="translate(786,821)" d="m0 0h2l1 18h-9l-1-8 3-3h4z" fill="#C0C0C2"/>
<path transform="translate(1519,629)" d="m0 0h5l4 5v5l-3 2h-5l-3-4v-7z" fill="#F1F1F1"/>
<path transform="translate(323,741)" d="m0 0h6l-1 3v20l2 3h-8l1-2h2l-1-18-4 10-2 3 1-10z" fill="#29262F"/>
<path transform="translate(398,673)" d="m0 0h5l2 2v8l-2 2h-6l-2-3v-6z" fill="#F3F3F3"/>
<path transform="translate(868,822)" d="m0 0h1l1 5v12h-9v-9l2-2h5z" fill="#626165"/>
<path transform="translate(532,821)" d="m0 0h2v7h7l2 6-1 5-3-1 1-2v-6l-5-1v10h-10l-1-1v-11h4v2h-2l1 8h5z" fill="#737276"/>
<path transform="translate(1530,198)" d="m0 0 2 1 8 6-1 6h-11v-11h2z" fill="#E1E6EA"/>
<path transform="translate(352,1162)" d="m0 0h7l3 2v8l4 1h-8l-1-4 1-4-10 6-8 1 2-3 7-2z" fill="#37353D"/>
<path transform="translate(1670,1400)" d="m0 0h5l3 3v7l-2 4h5v1h-7l-1-6-4-1-1-5z" fill="#6AA0B7"/>
<path transform="translate(450,753)" d="m0 0h1l2 7 3 1v2h-3v3h9l1 1v6l-3 2h-11l-1-5h2l1 2h9l1-3-9-1-3-8v-6z" fill="#35333B"/>
<path transform="translate(1755,725)" d="m0 0h2l1 7h2l3 19v30h-1l-2-31-2-11-3-7z" fill="#F3F3F4"/>
<path transform="translate(1451,670)" d="m0 0v3l-7 11-10 19-6 17h-1l1-8 6-15 8-15 7-10z" fill="#232029"/>
<path transform="translate(1471,664)" d="m0 0 9 2 8 3v2l-5-1-3 3v8l-4-4-5-11z" fill="#7F7F84"/>
<path transform="translate(1703,910)" d="m0 0h3l2 5-1 3h-5l-1 5-4 1-2 2-2-3 1-4 4-5z" fill="#EEF0F2"/>
<path transform="translate(1457,832)" d="m0 0 7 1 3 3-1 7-4 4-7 1-5-5v-6l5-4zm1 2-5 3-1 4 2 4h6l5-4v-5l-3-2z" fill="#2C2A32"/>
<path transform="translate(1488,698)" d="m0 0h2v3h-2l-1 4-9 16-5 15-3 11h-1l1-10 2-9h2l2-9 7-14z" fill="#413F46"/>
<path transform="translate(1741,712)" d="m0 0h2l-1 4-2 3h-2l-2 5 9-1v2l-10 3h-5l2-5 8-8-10 4-4-1 9-4z" fill="#34323A"/>
<path transform="translate(1518,627)" d="m0 0h7l4 4 1 2v7l-5 3-4 1-6-5v-9zm1 2-2 1v7l3 4 7-1 1-1v-5l-4-5z" fill="#2C2932"/>
<path transform="translate(547,828)" d="m0 0h6l2 2v7l-1 2h-8l-1-7z" fill="#68676B"/>
<path transform="translate(362,752)" d="m0 0h7v12l-6 1-2-2v-10z" fill="#FAFAFA"/>
<path transform="translate(1682,624)" d="m0 0 5 2 16 11 13 12v2l4 2 4 5v2l-3-1-7-8-9-9-3-2v-2l-5-2-11-8z" fill="#2A2831"/>
<path transform="translate(1987,1514)" d="m0 0h16v14l-1 1h-14l-1-1zm2 1v11l1 1h11v-11l-1-1z" fill="#8C8C8E"/>
<path transform="translate(1671,930)" d="m0 0 3 1-4 1 2 4v7l-6-1-1-4h-10l3-2z" fill="#A4A5AA"/>
<path transform="translate(1506,887)" d="m0 0 6 1 1 4-6-3 1 12-7 1-3-3 1-3 3-1 2-7z" fill="#A0A0A4"/>
<path transform="translate(463,828)" d="m0 0h7l3 1v5l-2-3-6-1 1 9h-17v-10l2 4v4h5v-8h2l1 8h4z" fill="#77767A"/>
<path transform="translate(1682,1400)" d="m0 0 4 3 3-3h3l-2 4v11h-8l-1-3 2-4z" fill="#527A8E"/>
<path transform="translate(1726,691)" d="m0 0 6 1 3 3 1 6-5 5-9 1-3-3v-8l5-4zm-1 3-4 3 1 8h7l5-4-1-6-2-1z" fill="#36343C"/>
<path transform="translate(1651,1402)" d="m0 0h7l2 2v6l-2 3h-5l-3-4z" fill="#E4EEF2"/>
<path transform="translate(328,828)" d="m0 0 5 1 1 1v6l-2 3h-6l-2-2v-6z" fill="#6E6E71"/>
<path transform="translate(532,744)" d="m0 0h7l2 1v8l-3 2h-6z" fill="#E9E9EA"/>
<path transform="translate(1615,612)" d="m0 0h6l3 3-1 5h-2l2 10-4-2-1-9h3l-2-4-3-1 1 6h-2v8h-2v-9z" fill="#38353D"/>
<path transform="translate(227,490)" d="m0 0h6l2 1v7l-3 3h-4l1 5h-3z" fill="#6E6D72"/>
<path transform="translate(315,489)" d="m0 0 5 1 2 1v6l-3 4-5-1-2-2 1-7z" fill="#6B6B6F"/>
<path transform="translate(801,828)" d="m0 0 7 1v9l-1 1h-8v-8z" fill="#ECECEC"/>
<path transform="translate(913,828)" d="m0 0 8 1v8l-2 2h-7v-10z" fill="#6F6E72"/>
<path transform="translate(602,750)" d="m0 0h8l2 3v5l-9 1 3-2h4l-2-4-5-1v2h-2l1 8 1 3 9-1-1 3h-9l-3-5 1-9z" fill="#35333B"/>
<path transform="translate(654,755)" d="m0 0h8l2 2v6l-4 2h-6z" fill="#ECEDED"/>
<path transform="translate(1694,689)" d="m0 0 4 5 8 11-2 4-2 1-4-7-6-9-1-4z" fill="#D9DCDF"/>
<path transform="translate(252,673)" d="m0 0h6l1 1v10l-1 1h-7v-10z" fill="#808083"/>
<path transform="translate(721,828)" d="m0 0 8 1v8l-1 2h-7l-1-2v-8z" fill="#67666A"/>
<path transform="translate(1686,642)" d="m0 0 4 1 4 3v2l-4-2-4-1-1 5 4 1v2l-9-1 1 4 4 3v2l-5-2-3-3 1-4 7-9z" fill="#3F3E45"/>
<path transform="translate(1307,1402)" d="m0 0 7 1 1 6h-1l-2 6h-6v-8z" fill="#D8E6EC"/>
<path transform="translate(1712,816)" d="m0 0 2 3-3 9-4 7-6 1 8-18z" fill="#DEE0E1"/>
<path transform="translate(674,742)" d="m0 0h8l-4 1v22l4 1v1h-9l1-2z" fill="#37353D"/>
<path transform="translate(1788,1400)" d="m0 0 6 4v-3l3-1-1 10 1 3-1 2h-7l-2-1 2-5v-6z" fill="#99C5D7"/>
<path transform="translate(412,673)" d="m0 0h13l2 1v11h-2v-10h-4v10h-3l1-10h-6v10h-2v-11z" fill="#636267"/>
<path transform="translate(1790,1377)" d="m0 0h5l2 7-2 5h-7l1-11z" fill="#A4A4A7"/>
<path transform="translate(699,828)" d="m0 0h5l1 1v8l-2 2h-6l-1-1v-7z" fill="#5D5C61"/>
<path transform="translate(1722,755)" d="m0 0h2l1 7v17l-2 20-2 6-2-2 1-9 2-10z" fill="#444249"/>
<path transform="translate(653,752)" d="m0 0h9l4 4v7l-6 4h-12v-2h3v-6l2 2-1 3h8l3-1v-6l-1-1-8-1-1 3-1-5z" fill="#23202A"/>
<path transform="translate(223,673)" d="m0 0h5l3 5v7h-8z" fill="#57555A"/>
<path transform="translate(1514,629)" d="m0 0h1l1 10 3 3-1 3-7-1-3-3 1-7z" fill="#F5F5F5"/>
<path transform="translate(1708,1436)" d="m0 0h2v8l-2 4h-6l-1-1v-7l5-3z" fill="#7D7D80"/>
<path transform="translate(400,1158)" d="m0 0 3 1v7l-2 4 9-2h5l-2 2-7 3h-8l-4-3v-2l3-3h3z" fill="#4E4C52"/>
<path transform="translate(1523,897)" d="m0 0 6 1 3 2v2l-8-2v4l4 1v3h-5l-2 4 4 1v2l-5-2-2-2 1-5z" fill="#4C4A51"/>
<path transform="translate(1508,652)" d="m0 0 6 2 2 6-1 3h-8l-1-3-3-1 4-5z" fill="#FDFDFD"/>
<path transform="translate(426,829)" d="m0 0h7l1 3v7h-9v-9z" fill="#7D7D80"/>
<path transform="translate(1699,1402)" d="m0 0h6l2 2-1 6-2 4h-4l-2-3v-7z" fill="#EEF3F6"/>
<path transform="translate(1489,858)" d="m0 0 4 1 4 4v2h2l5 5 5 4-1 2-6-2-4-4-6-2v-5l-3-3z" fill="#F1F2F2"/>
<path transform="translate(1474,852)" d="m0 0h2l-2 4-4 1v2l-3 2v4h5l8-6h2l-2 4-7 5-6 1-3-3v-6l8-7z" fill="#46444B"/>
<path transform="translate(986,828)" d="m0 0 5 1 1 1v8l-1 1h-6l-2-4v-5z" fill="#59585D"/>
<path transform="translate(1539,1438)" d="m0 0h7v9l-1 1h-7l-1-1v-6z" fill="#747477"/>
<path transform="translate(673,1163)" d="m0 0h3l-1 5-1 3 9-3h5l-3 3-8 2h-5l-5-1h-8l4-2 5-2h3l1-4z" fill="#28262F"/>
<path transform="translate(297,827)" d="m0 0 4 2v10h-8v-8z" fill="#D1D1D3"/>
<path transform="translate(259,745)" d="m0 0 2 2v3h5v2h-5l1 12 4 1v2h-7l-1-4v-11h-2l2-5z" fill="#4A484F"/>
<path transform="translate(1623,1464)" d="m0 0h6l1 2v7l-8 4v-12z" fill="#6D6C70"/>
<path transform="translate(1484,903)" d="m0 0 9 1 5 6 2 4 2 2-5-1-5-3v-2l-4-1v-2l-4-2z" fill="#F0F1F1"/>
<path transform="translate(591,828)" d="m0 0 4 1 1 4-2 6-7-1-5 1v-2l4-1 2-5z" fill="#C2C2C5"/>
<path transform="translate(437,828)" d="m0 0 7 1v9l-2 1h-6v-10z" fill="#6A696D"/>
<path transform="translate(1581,913)" d="m0 0h6l1 2h-7v5h6v2l-3 1-3-1v6h6v2h-7l-2-1v-13z" fill="#48464C"/>
<path transform="translate(1496,856)" d="m0 0 4 2 9 8v2h2l1 6-5-3-12-12z" fill="#EDEFF2"/>
<path transform="translate(209,828)" d="m0 0h5l2 2 1 9h-9z" fill="#8E8E92"/>
<path transform="translate(1709,815)" d="m0 0 1 3-5 12-9 15-4 5-3-1 9-13 8-15z" fill="#35333B"/>
<path transform="translate(1460,678)" d="m0 0h3l-2 4-1 1v5l4 2 6 1 2-6h2l-1 4-2 4-2 1h-6l-7-6 1-6z" fill="#45444A"/>
<path transform="translate(1508,618)" d="m0 0m-1 1m-2 1h2l-1 3-7 4-6 4h-2v2l-13 10h-3l9-9 14-10z" fill="#27252E"/>
<path transform="translate(997,829)" d="m0 0h2v8h5v-8h2l1 8h3l2-8h7v1h-6v9h-15l-1-1z" fill="#4C4A50"/>
<path transform="translate(321,673)" d="m0 0h5l1 1v10l-1 1h-6v-10z" fill="#A3A3A6"/>
<path transform="translate(1689,850)" d="m0 0v3l-9 10-9 8h-2v2l-6 3v-3l10-8 11-10z" fill="#3B3940"/>
<path transform="translate(300,673)" d="m0 0 5 1v11h-6l-1-1v-9z" fill="#58575C"/>
<path transform="translate(1406,1405)" d="m0 0h6v8l-6 2h-6l2-1-1-3 3-1 1-4z" fill="#F2F5F7"/>
<path transform="translate(755,828)" d="m0 0 7 1v10h-8z" fill="#9B9A9D"/>
<path transform="translate(1448,699)" d="m0 0 9 2 5 4-1 7-2 2-7-1-8-4v-2l15 5v-7l-6-2-5-3z" fill="#4B494F"/>
<path transform="translate(1643,1148)" d="m0 0 2 1-13 11-17 13-4 3-2-1 2-3 3-1 1-2 5-3h2l2-4h3l1-3 9-6z" fill="#909092"/>
<path transform="translate(311,673)" d="m0 0h5l1 5-1 7h-6l-1-3 1-8z" fill="#616065"/>
<path transform="translate(1575,753)" d="m0 0 3 1-1 32-3 1z" fill="#F6F8F9"/>
<path transform="translate(1467,747)" d="m0 0h2v14l-1 21-3-3v-16z" fill="#7D7C7F"/>
<path transform="translate(1434,743)" d="m0 0h1l1 6 4 1v-6h2v7h5v-6l2 1v6l-1 2-7-1-8-1-1-3z" fill="#4E4D53"/>
<path transform="translate(644,1158)" d="m0 0h3v6l-6 2-1 5h3v2l-6-1-1-4 1-5z" fill="#25222C"/>
<path transform="translate(1695,869)" d="m0 0 2 1-1 2h-2v2l-2 1 2 5 3 3 5-1 4-4h2l-2 5-4 3h-6l-5-5-2-6z" fill="#35333A"/>
<path transform="translate(236,673)" d="m0 0h5l1 1-1 10-6 1v-11z" fill="#6A696D"/>
<path transform="translate(371,673)" d="m0 0 4 1-1 6-4 9h-1l-3-15z" fill="#97979B"/>
<path transform="translate(1495,685)" d="m0 0h3l-2 4-9 12h-5l7-11z" fill="#ECEDEE"/>
<path transform="translate(1614,642)" d="m0 0 7 1 12 3-2 1-1 2-4 1-14-3v-1h6l-1-2z" fill="#DADCDE"/>
<path transform="translate(1765,1438)" d="m0 0h6l1 1v8l-1 1h-6l-1-5z" fill="#A4A3A6"/>
<path transform="translate(380,828)" d="m0 0h5l1 1v10h-7v-7z" fill="#98989B"/>
<path transform="translate(1647,621)" d="m0 0 9 2-1 2-7-1 1 5 4 1-2 1-6-1 2 5 4 3-7-1-2-4z" fill="#2D2B33"/>
<path transform="translate(1448,809)" d="m0 0 7 1 3 5v5h-2l-1-7h-8l-3 2 1 9h-2l-2-5v-5l4-4z" fill="#312F37"/>
<path transform="translate(654,744)" d="m0 0h7l1 1v7l-1 1h-7z" fill="#EBEBEC"/>
<path transform="translate(457,1159)" d="m0 0 7 1 4 5-2 5-6 3h-7l-2-2 9-1 3-2-1-5-5-3z" fill="#1F1C26"/>
<path transform="translate(852,829)" d="m0 0h5l1 4-1 6h-7v-7z" fill="#9D9DA0"/>
<path transform="translate(619,750)" d="m0 0 6 1 6-1 1 4-8-1v12l3 1v1h-8v-2h3v-13h-3z" fill="#36333B"/>
<path transform="translate(273,750)" d="m0 0h8l3 3 1 14h-2v-2l-7 1 2-2 3-1 1-4-3-1 1-5h-6l-2 1z" fill="#3A383F"/>
<path transform="translate(1744,736)" d="m0 0h5l2 7v2h-2v-7h-5v6l-3 1v-5h-5v6h-2v-7l6-2z" fill="#3C3A41"/>
<path transform="translate(1512,601)" d="m0 0 1 4 3 1 2 1v2l-11 5-3-3v-2h4l1-3 2-1z" fill="#EAEAEB"/>
<path transform="translate(1652,1400)" d="m0 0h9l2 3v8l-2 3h7v1h-10l1-11-7-2z" fill="#4793B4"/>
<path transform="translate(262,1267)" d="m0 0h8l3 6v7l-3 1v-8l-1-3-6-1-1 4 1 4 4 2v2l-6-1-1-2v-9z" fill="#8B8B8D"/>
<path transform="translate(302,1271)" d="m0 0 5 1v8l-1 1h-7l1-9z" fill="#AFAFB1"/>
<path transform="translate(1750,839)" d="m0 0 1 2-6 15-6 9-4 2 2-5 8-14z" fill="#2A2730"/>
<path transform="translate(974,823)" d="m0 0 8 1-1 3-1-1h-7l-1 5 1 5h8l-1 3h-8l-3-4v-8l3-3z" fill="#717174"/>
<path transform="translate(1766,1464)" d="m0 0h5l1 1v8l-1 1h-6v-9z" fill="#A4A4A6"/>
<path transform="translate(1552,1438)" d="m0 0h6v9l-1 1h-5l-1-1v-8z" fill="#98989C"/>
<path transform="translate(1615,1438)" d="m0 0 7 1v8l-1 1h-6z" fill="#5C5B60"/>
<path transform="translate(335,1267)" d="m0 0h8l2 3v7l-3 4h-6l-3-4v-7zm2 1-2 2v7l1 2h6l1-1v-8l-2-2z" fill="#7D7C7F"/>
<path transform="translate(240,1244)" d="m0 0h16v9h-2v-8h-5v8h-2v-6l-3 3v-5h-3v8h-2z" fill="#78787B"/>
<path transform="translate(1557,911)" d="m0 0h9l2 2-10 1-1 1-1 8h2v2h8v2l-9-1-3-2-1-7 3-5z" fill="#36343B"/>
<path transform="translate(713,828)" d="m0 0h3v11h-7v-6l2-4z" fill="#9D9DA0"/>
<path transform="translate(1635,761)" d="m0 0h6l4 4v2h-14v-3z" fill="#D1D2D3"/>
<path transform="translate(1719,752)" d="m0 0h3l1 4v28h-1l-1-22h-1l-1 13h-1v-18z" fill="#B8BABD"/>
<path transform="translate(1709,726)" d="m0 0 2 2v3h2l4 14-1 13h-1l-2-14-4-15z" fill="#636266"/>
<path transform="translate(1663,1464)" d="m0 0 5 1v9h-7v-9z" fill="#A7A7AA"/>
<path transform="translate(1636,1400)" d="m0 0h7l-4 2 2 4 3 1v7h6l1-2 2 3h-10l-2-1-1-7h-4l-1-5z" fill="#47677A"/>
<path transform="translate(1043,829)" d="m0 0h15l1 7 1 3h-10v-5l4 1v2h3l-1-6-12-1 1 9h-2z" fill="#24212A"/>
<path transform="translate(1479,673)" d="m0 0 2 3 1 4-3 5h-2l-1 2v-2l-5-1 1-5 4-3 3 4z" fill="#FCFCFD"/>
<path transform="translate(1667,629)" d="m0 0 1 3-1 9 8-6h3v2l-12 9h-2v-7l2-9z" fill="#2F2D35"/>
<path transform="translate(1572,611)" d="m0 0h7v2h-7l1 4 6 1-1 2h-4v8l-3-1-1-15z" fill="#4E4C52"/>
<path transform="translate(1399,1438)" d="m0 0h5l1 1v7l-1 2h-5l-1-1v-8z" fill="#9B9B9D"/>
<path transform="translate(1516,1438)" d="m0 0h5l1 1v8l-6 1-1-1v-8z" fill="#9A999C"/>
<path transform="translate(375,1272)" d="m0 0h6l1 6-1 3-4 1-3-1v-8z" fill="#BEBEBF"/>
<path transform="translate(1665,893)" d="m0 0h2l-1 3-2 1-1 4 7-1v2l-2 1 1 9h-2l-3-6v-2h-2l-2-5v-3z" fill="#414047"/>
<path transform="translate(1499,249)" d="m0 0h5l2 2v5l-2 2h-6v-8z" fill="#DBDDE0"/>
<path transform="translate(1739,1464)" d="m0 0h5l1 1v7l-1 1h-7l1-8z" fill="#C6C6C7"/>
<path transform="translate(1311,1438)" d="m0 0 5 1v8l-1 1h-5l-1-1v-7z" fill="#C8C8C9"/>
<path transform="translate(1466,812)" d="m0 0h2l6 15 8 14 2 4-4-2-1-4h-2l-8-16-3-8z" fill="#322F37"/>
<path transform="translate(413,675)" d="m0 0h6v11h-8l2-1z" fill="#EEEFF1"/>
<path transform="translate(1266,1438)" d="m0 0 6 1v8l-7 1v-9z" fill="#A3A3A5"/>
<path transform="translate(1788,1438)" d="m0 0h6v10h-7z" fill="#959497"/>
<path transform="translate(449,1151)" d="m0 0h5l1 4-5 5-4 1-1-4 2-5z" fill="#DDDDDE"/>
<path transform="translate(619,821)" d="m0 0h2v16h5v-7l-3-1 3-1 2 3v7l-2 1h-6l-1-1z" fill="#68676B"/>
<path transform="translate(493,666)" d="m0 0h2v15h-1v-6l-5 1v7h7v2h-8l-2-1v-8l3-3h4z" fill="#5C5B60"/>
<path transform="translate(400,740)" d="m0 0h4l1 25 2 2h-7l2-1v-25z" fill="#1D1A24"/>
<path transform="translate(495,674)" d="m0 0h1v9l-7 1-1-1v-7l1-1h5z" fill="#E7E7E7"/>
<path transform="translate(1491,645)" d="m0 0h2l-1 4h-2l8 10v2h-3l-6-7v-2l-7 2 5-6z" fill="#312F37"/>
<path transform="translate(1620,196)" d="m0 0h5l3 5-3 4-4-1-3-2 1-5z" fill="#D9DCDF"/>
<path transform="translate(1592,197)" d="m0 0h7l1 1v6l-1 1h-7z" fill="#DDE0E3"/>
<path transform="translate(889,822)" d="m0 0h1l1 7v10h-10l-1-12h3v10h5z" fill="#59585E"/>
<path transform="translate(1728,813)" d="m0 0 1 4 1 3 4 1v-5l3-1-1 7h4l2-5 1 4-2 4-9-1-6-3 1-6z" fill="#2F2C35"/>
<path transform="translate(1373,1438)" d="m0 0h5l1 9-7 1v-9z" fill="#B2B2B4"/>
<path transform="translate(1439,1402)" d="m0 0h3v3h-3l-1 9-2 1h-7v-11h1v10h5v-7l2-4z" fill="#7298AA"/>
<path transform="translate(1340,1403)" d="m0 0h8l-1 10h-5l-1-1v-7z" fill="#B7D3DF"/>
<path transform="translate(384,1162)" d="m0 0h4l-1 8h7l-2 2-3 1h-7z" fill="#343139"/>
<path transform="translate(1492,848)" d="m0 0h3l9 11 7 6v3h-2l-5-5-11-12z" fill="#3F3D44"/>
<path transform="translate(221,828)" d="m0 0h8l1 1 1 10-4-1 1-8h-5l1 9h-4z" fill="#717074"/>
<path transform="translate(1529,1464)" d="m0 0 4 1v6l-2 3-5-1v-7z" fill="#9C9C9F"/>
<path transform="translate(1361,1438)" d="m0 0h6v9l-7 1z" fill="#9B9B9E"/>
<path transform="translate(1619,1403)" d="m0 0h2v7l-3 6 1 2h-4v2h-3l1-3h2l-1-8 3 1z" fill="#4F91AE"/>
<path transform="translate(325,1243)" d="m0 0 6 1v8l-5 1h-3z" fill="#ACACAE"/>
<path transform="translate(478,750)" d="m0 0h7l1 17h-6l2-1v-15z" fill="#434148"/>
<path transform="translate(568,750)" d="m0 0h6v2h-2l2 5v5l4-3v6l-4 1-4-8z" fill="#35333B"/>
<path transform="translate(1591,600)" d="m0 0h20l6 2-3 2-16-1-7-2z" fill="#F5F6F7"/>
<path transform="translate(1987,32)" d="m0 0 3 1v11h9l1 3h-12l-1-1z" fill="#A5A5A7"/>
<path transform="translate(344,1244)" d="m0 0h5l1 1v6l-1 2h-5l-1-1v-7z" fill="#A4A4A7"/>
<path transform="translate(1721,831)" d="m0 0 1 3v4l7 2 4 2v3l-4-1-10-5-2 4-1-3z" fill="#343239"/>
<path transform="translate(434,750)" d="m0 0 6 1 1 1 1 15h-4v-15h-6z" fill="#424047"/>
<path transform="translate(1556,1404)" d="m0 0h2l1 6h2l2-6h2l-1 7-1 3 9-1v2h-10l-1-3-2 2-3-5z" fill="#5B92AA"/>
<path transform="translate(451,1149)" d="m0 0 7 1v5l-1 4 1 2h-8l-1-2h2l1-3 2-1v-3l-3-1z" fill="#2D2A33"/>
<path transform="translate(360,829)" d="m0 0h8v1h-7v7h9l-1-8h2l1 10h-13v-8z" fill="#5D5C60"/>
<path transform="translate(680,830)" d="m0 0 7 1v6h-8l-1-1v-5z" fill="#F7F7F7"/>
<path transform="translate(1623,755)" d="m0 0h5l-2 4-2 5-9-1 3-1 1-5z" fill="#E4E6E8"/>
<path transform="translate(455,673)" d="m0 0h5l1 1v6h-4l-1 3 4 2h-5l-1-1v-9z" fill="#88888D"/>
<path transform="translate(328,489)" d="m0 0 4 1 1 1v5l-4 2 4 1v2h-6v-8z" fill="#A4A4A7"/>
<path transform="translate(1756,1464)" d="m0 0 5 1v8l-5 1-1-1v-8z" fill="#AFB0B2"/>
<path transform="translate(1300,1438)" d="m0 0 5 1v8l-1 1h-5v-8z" fill="#A8A8AA"/>
<path transform="translate(1728,1376)" d="m0 0 4 1 1 6-6 1 2-3h2l-1-2h-2l-1 7 5 1v2h-5l-3-3v-6z" fill="#7A797C"/>
<path transform="translate(356,1265)" d="m0 0 5 1v15l-3-1 1-13h-3l-1 13h-1v-14z" fill="#8A8A8C"/>
<path transform="translate(1710,900)" d="m0 0m-1 1m-1 1m-1 1m-1 1m-1 1m-1 1m-1 1m-1 1m-1 1m-1 1m-2 1h2v3l-13 9-3-1 7-6z" fill="#26232D"/>
<path transform="translate(1513,754)" d="m0 0h6l-5 5-4 5-3-5-2-4z" fill="#F8F9FA"/>
<path transform="translate(1677,753)" d="m0 0h8l-1 2-6 3-2 2-2 4-6-2 4-1 2-7z" fill="#EBECED"/>
<path transform="translate(452,752)" d="m0 0h7v8h-7z" fill="#F9F9FA"/>
<path transform="translate(1438,723)" d="m0 0h2l-1 5 10 3 4 1 1-5 1 3-1 5-9-2-8-3z" fill="#2C2A32"/>
<path transform="translate(1702,655)" d="m0 0 2 1-1 2 3 1-1 4h-5l-1-2-3 5-4 2 1-4z" fill="#7F8085"/>
<path transform="translate(1332,1438)" d="m0 0 5 1v8h-7l1-8z" fill="#9D9DA0"/>
<path transform="translate(1387,1400)" d="m0 0h2l-2 9-2 5 10-1v2h-12l-1-4z" fill="#569BB8"/>
<path transform="translate(366,1271)" d="m0 0 5 1-1 8-5 1-1-4z" fill="#B8B8B9"/>
<path transform="translate(1631,908)" d="m0 0h4v2h-4l2 9v6l-2-1-2-6v-6h-7l2-2z" fill="#322F38"/>
<path transform="translate(630,828)" d="m0 0 3 1 1 7 2-1 1-7h2l-1 8-4 8-4 1 2-3v-7z" fill="#5C5B60"/>
<path transform="translate(767,828)" d="m0 0h8l2 10-3 1-1-8-3-1v9h-3z" fill="#6A696D"/>
<path transform="translate(312,828)" d="m0 0h8l1 2v9h-2v-9h-5l1 9h-3z" fill="#6C6B70"/>
<path transform="translate(500,750)" d="m0 0h7l2 5v11l2 1h-5l-1-16h-5z" fill="#45434A"/>
<path transform="translate(341,750)" d="m0 0h6l4 4v8h-2l-2 4-2-1 1-2h2v-9l-8-2z" fill="#37343C"/>
<path transform="translate(1717,671)" d="m0 0h2l-3 9h9l-3 2-8 1-6 2v-2l5-4z" fill="#333139"/>
<path transform="translate(1564,895)" d="m0 0 12 1 1 2-1 2h-8l-7-2z" fill="#E5E8EB"/>
<path transform="translate(649,822)" d="m0 0 4 2 2 5v6l-2-1-1-7h-2l1 12h-3v-9z" fill="#717074"/>
<path transform="translate(339,673)" d="m0 0h2v11l4-1 1-10h2v12h-9z" fill="#545359"/>
<path transform="translate(1535,622)" d="m0 0 3 3 2 12-7-6-1-1v-5z" fill="#F6F6F6"/>
<path transform="translate(1534,1404)" d="m0 0 5 1v12l-1-2h-5l1-2z" fill="#CDD9DE"/>
<path transform="translate(1708,1374)" d="m0 0h2l4 9 4-9 1 4-3 10h-4l-4-12z" fill="#6C6B6F"/>
<path transform="translate(691,1162)" d="m0 0h7l2 2-3 1-1 2h-2l-1 5-4 1z" fill="#28262F"/>
<path transform="translate(1667,878)" d="m0 0m-2 1 3 1-5 4-16 8-5 1 5-4 10-5z" fill="#38363E"/>
<path transform="translate(1707,856)" d="m0 0h7l9 3v2l-4-1-2-1-1 2-3-3-4-1 3 5v2h2l2 6-5-5-3-5z" fill="#27242D"/>
<path transform="translate(1534,602)" d="m0 0m-3 1h3v2l-18 7-6 3-2-1 8-5z" fill="#1D1A24"/>
<path transform="translate(1757,1400)" d="m0 0h9l-3 8-1 5-5 1 1-6 2-3h2v-4h-5z" fill="#396D86"/>
<path transform="translate(1775,1376)" d="m0 0 1 3-7 14-4 1 3-4-1-8-1-5h2l1 8h2l2-6z" fill="#747376"/>
<path transform="translate(499,828)" d="m0 0h3l-1 9h4l-1-8h2l1 10h-9z" fill="#626165"/>
<path transform="translate(603,752)" d="m0 0h5l2 5-4 1 1 2h-5l-1 2v-8h2z" fill="#D8D8D8"/>
<path transform="translate(1498,261)" d="m0 0 4 2 4 7v2h-5l-3-4z" fill="#E4E5E6"/>
<path transform="translate(1559,1464)" d="m0 0h7l1 1v8h-2v-7h-3l-1 11-2 1z" fill="#757578"/>
<path transform="translate(1406,1403)" d="m0 0 8 1 1 8-1 2 7-1v2h-8l-1-1v-9h-6v7h-1v-8z" fill="#3F677D"/>
<path transform="translate(304,745)" d="m0 0h1l1 20h3v2h-9l1-2h2v-9z" fill="#5B5A5F"/>
<path transform="translate(326,746)" d="m0 0h1l1 18 2 3h-8l1-2h2v-17z" fill="#201D27"/>
<path transform="translate(301,489)" d="m0 0h4l2 3-1 5-2-3v-3l-2 1 1 6 4 1v2h-7v-11z" fill="#7E7D80"/>
<path transform="translate(55,32)" d="m0 0h1v13l-4 2h-10l1-3h10v-11z" fill="#A9A9AB"/>
<path transform="translate(1507,1405)" d="m0 0h5v7l-1 2-5-1v-7z" fill="#DBE4E8"/>
<path transform="translate(1780,1400)" d="m0 0h3v9l-1 5h5v1h-7l-5-1 4-2z" fill="#48A0C4"/>
<path transform="translate(1687,855)" d="m0 0 3 1-2 4-6 6h-5l6-7z" fill="#F4F5F7"/>
<path transform="translate(943,828)" d="m0 0 4 1v7l-4 4h-4l-1-10h2l1 6 3-2z" fill="#605F64"/>
<path transform="translate(824,821)" d="m0 0h2v2h-2v16h-5v-2h3v-7h-3v-2h2l1-6z" fill="#6C6B6F"/>
<path transform="translate(1765,807)" d="m0 0 1 4-3 13-4 12-2-2 1-4 4-12 1-5z" fill="#27252E"/>
<path transform="translate(1654,755)" d="m0 0h1l1 13-2 3-4-10 1-4z" fill="#ECEDED"/>
<path transform="translate(1769,739)" d="m0 0 4 5 1 6 2 1h-3l-1 12h-1l-2-17z" fill="#FAFBFC"/>
<path transform="translate(213,486)" d="m0 0 3 1 2 9 2 5-4-1-2-9-3 5-1-3z" fill="#636267"/>
<path transform="translate(1460,1403)" d="m0 0h7v7h-2v-5h-3l-1 9-1-3h-3l1-4h2z" fill="#556F7F"/>
<path transform="translate(1715,1400)" d="m0 0h2l1 4h2l1-4h3l-1 3v10l-2-2-2-3-3 3z" fill="#3E5A6C"/>
<path transform="translate(1706,893)" d="m0 0h5l-2 4-8 7-2-1 4-7z" fill="#F4F4F5"/>
<path transform="translate(1746,832)" d="m0 0 3 3 1 5-8 4v-3z" fill="#FAFAFB"/>
<path transform="translate(459,766)" d="m0 0 4 1v6l-3 2h-11l-1-5h2l1 2h9l1-3-2-1z" fill="#424148"/>
<path transform="translate(1604,761)" d="m0 0h6l5 2-1 4 2 1-9-2-3-2z" fill="#D1D1D3"/>
<path transform="translate(1478,717)" d="m0 0 1 2-4 10-4 13-1 5h-1l1-10 2-9h2l2-9z" fill="#39373F"/>
<path transform="translate(398,673)" d="m0 0h5l2 2v8l-2 2h-6l-2-3v-6zm0 2-2 5 1 3 4 1 3-2-1-7z" fill="#55545A"/>
<path transform="translate(1697,261)" d="m0 0h8l-4 2v5l6-1-1 3h-9z" fill="#F0F1F2"/>
<path transform="translate(1731,1402)" d="m0 0 4 1v8l-4 2-1-2v-8z" fill="#FBFBFC"/>
<path transform="translate(217,1266)" d="m0 0 5 1v1l-7 1-1 1v7l7 3v1h-7v-2h-2l-1-2v-7l3-3z" fill="#919192"/>
<path transform="translate(360,1243)" d="m0 0 7 1 1 9h-3l-1-7-2-1v8h-2z" fill="#949599"/>
<path transform="translate(1518,784)" d="m0 0h15l-2 4-8 1-5-3z" fill="#E6E6E7"/>
<path transform="translate(1594,777)" d="m0 0 4 4v2l14 2v1h-7v2l-4-1-6-3-2-2z" fill="#D9D9DA"/>
<path transform="translate(289,673)" d="m0 0h5l1 1v6l-2 1v-6l-3 1-1 8h5v1h-7v-9z" fill="#757478"/>
<path transform="translate(1471,664)" d="m0 0 9 2 8 3v2l-5-1-3 3-2-1 2-4h-5l-2 2z" fill="#221F29"/>
<path transform="translate(1751,1438)" d="m0 0h2v8h4v-8h2v9l-1 1h-7z" fill="#7B7B7E"/>
<path transform="translate(1802,1376)" d="m0 0h2v11h11v2h-12l-1-1z" fill="#8E8E90"/>
<path transform="translate(1601,914)" d="m0 0h6l-3 2 1 4v9h-3l-1-7z" fill="#322F37"/>
<path transform="translate(1709,857)" d="m0 0 6 1 4 2-2 3-1 5-2-4h-2l-3-5z" fill="#959496"/>
<path transform="translate(510,828)" d="m0 0h3v8l5 1v-8h1l1 10h-9l-1-3z" fill="#605F64"/>
<path transform="translate(829,829)" d="m0 0h2l-1 8h4l-1-6 3-2v9l-1 1h-7v-9z" fill="#6B6A6E"/>
<path transform="translate(280,828)" d="m0 0h9l1 11h-2l-1-10h-4v10h-3z" fill="#545358"/>
<path transform="translate(262,673)" d="m0 0h2l1 10 5 1-1-11h3v12h-8l-1-1z" fill="#413F46"/>
<path transform="translate(1805,1407)" d="m0 0h6v7h-7z" fill="#F6F6F7"/>
<path transform="translate(1480,829)" d="m0 0 3 1 8 13 3 5-4-1-6-9-4-7z" fill="#3C3A41"/>
<path transform="translate(1031,829)" d="m0 0h7l-1 6-2-1v-3h-3v7l6-2v3l-4 1-4-1z" fill="#646368"/>
<path transform="translate(801,828)" d="m0 0 7 1v9l-1 1h-8v-8zm2 1-3 3 1 5h6v-6z" fill="#5D5C61"/>
<path transform="translate(1726,691)" d="m0 0 6 1 3 3 1 6-5 5-1-3 3-2v-6l-8-1z" fill="#3E3C43"/>
<path transform="translate(1776,1465)" d="m0 0h2l1 8 4-1-1-7h3v8l-1 1h-7l-1-1z" fill="#8B8B8D"/>
<path transform="translate(1563,1438)" d="m0 0h7l1 1v9h-3v-8h-2l-1 7h-2z" fill="#6F6E72"/>
<path transform="translate(1719,1407)" d="m0 0 2 1 4 6-9 1-2-1 1-3z" fill="#A1C7D7"/>
<path transform="translate(1378,1400)" d="m0 0h2l-2 7h-2l-1 7h7v1h-9l-2-2 3-7h2z" fill="#4E8199"/>
<path transform="translate(1629,1400)" d="m0 0h3l-3 10-1 4h6v1h-8l-1-2z" fill="#4895B5"/>
<path transform="translate(1728,1378)" d="m0 0 3 1v2l-3 2h5l1-2-1 7-7-2 1-7z" fill="#F1F2F4"/>
<path transform="translate(1506,887)" d="m0 0 6 1 1 4-6-3 1 12h-2l-2-9v-4z" fill="#29262F"/>
<path transform="translate(1511,869)" d="m0 0 7 4 3 3-2 3-4-1v-2l-4-2z" fill="#D9DDE0"/>
<path transform="translate(1693,847)" d="m0 0h3l1 3-6 7h-3l-1-3 3-4h2z" fill="#D6D9DD"/>
<path transform="translate(449,829)" d="m0 0 2 4v4h5v-8h2v9l-1 1h-8z" fill="#5C5B60"/>
<path transform="translate(244,828)" d="m0 0 4 1v9l-1 1h-7l-1-9 4-1-2 8 5-1v-5l-2-1z" fill="#636266"/>
<path transform="translate(340,828)" d="m0 0h7l1 1v10l-2-1-1-7-5-1 1 9h-2v-10z" fill="#555359"/>
<path transform="translate(1694,689)" d="m0 0 4 5 3 4-1 2-4-1-5-6v-3z" fill="#DFE2E5"/>
<path transform="translate(1642,655)" d="m0 0 9 3 9 6-2 2-17-9z" fill="#45434A"/>
<path transform="translate(1501,637)" d="m0 0 3 1 7 12-1 3-2-1-4-7-3-5z" fill="#434148"/>
<path transform="translate(1590,1438)" d="m0 0h2l1 9 3-1v-8l3 2-1 7-3 2-5-1z" fill="#898A8D"/>
<path transform="translate(1666,1438)" d="m0 0 2 1-1 7h3l-1-8 3 1v8l-1 1h-5l-1-1v-7z" fill="#8C8C8E"/>
<path transform="translate(1637,941)" d="m0 0m-4 1h4v2l-14 3h-7l1-2z" fill="#1D1A24"/>
<path transform="translate(1511,866)" d="m0 0 5 3v2l5 2 9 6 1 2-6-2-14-10z" fill="#312F37"/>
<path transform="translate(524,827)" d="m0 0h4v2h-2l1 8 5 1v1h-7l-1-1zm9 2h1v9l-2-1z" fill="#5A595E"/>
<path transform="translate(208,666)" d="m0 0h2l1 12v7h-3z" fill="#7C7B7F"/>
<path transform="translate(315,491)" d="m0 0 5 1v7h-5l-1-1z" fill="#FAFAFA"/>
<path transform="translate(1646,197)" d="m0 0h6v5l3 2h-9z" fill="#EEEFF0"/>
<path transform="translate(548,829)" d="m0 0 5 2v6h-6v-7z" fill="#F8F9FA"/>
<path transform="translate(816,821)" d="m0 0h2l-2 9v7l1 2h-4v-12z" fill="#69686C"/>
<path transform="translate(1644,650)" d="m0 0 6 1 14 8-1 3-6-4-7-4-6-2z" fill="#434148"/>
<path transform="translate(341,489)" d="m0 0h4v2l-3 1v2l2 1v2h2v6l-7 1v-2h6l-2-4-3-2v-6z" fill="#777679"/>
<path transform="translate(1744,1437)" d="m0 0h1v11h-7l-1-1 1-8 4-1-3 8h5z" fill="#57565B"/>
<path transform="translate(1592,1438)" d="m0 0h4l1 2v6l-4 2-1-1z" fill="#F9F9FA"/>
<path transform="translate(300,1244)" d="m0 0h5l1 4-2 5-4-1z" fill="#A7A7A9"/>
<path transform="translate(242,828)" d="m0 0h2v2l3 1v5l-1 1h-5v-6z" fill="#F6F7F7"/>
<path transform="translate(621,828)" d="m0 0 5 2 1 5-1 2h-5z" fill="#F3F3F4"/>
<path transform="translate(1460,720)" d="m0 0h5v10l-5-2z" fill="#FEFEFE"/>
<path transform="translate(1706,707)" d="m0 0 4 2 6 13-3 2-6-14z" fill="#514F55"/>
<path transform="translate(1500,675)" d="m0 0m-1 1 1 3-10 11-1 2-3-1 9-11z" fill="#34323A"/>
<path transform="translate(435,675)" d="m0 0 5 1v7l-5 1z" fill="#F9F9F9"/>
<path transform="translate(1551,597)" d="m0 0m-4 1h4v2l-13 4-4-1v-2z" fill="#24222B"/>
<path transform="translate(1593,209)" d="m0 0 3 1 3 4-1 5h-3l-2-2z" fill="#ECEDEF"/>
<path transform="translate(1572,1403)" d="m0 0h6l1 1v6h-4l-1-2-2 3z" fill="#799AAB"/>
<path transform="translate(1788,1400)" d="m0 0 6 4v-3l3-1-1 10-1 2-2-3-3-1z" fill="#455866"/>
<path transform="translate(267,822)" d="m0 0h2v16l3-1v-9l2 1 1 10h-7z" fill="#656469"/>
<path transform="translate(602,830)" d="m0 0h5v7h-6v-6z" fill="#EDEEEE"/>
<path transform="translate(903,828)" d="m0 0h5l1 4-4-1-1 6h3v2h-6l1-10z" fill="#7C7B7E"/>
<path transform="translate(413,750)" d="m0 0h4v16l3 1h-6v-15z" fill="#1D1A24"/>
<path transform="translate(1435,253)" d="m0 0h1l1 11 2 5-1 3-3-2-1-3v-9z" fill="#F3F4F4"/>
<path transform="translate(1465,250)" d="m0 0h2v19l-3 1z" fill="#CDCDCE"/>
<path transform="translate(1445,249)" d="m0 0h6v3l-4-1-2 4-2 1-1 6h-1v-9z" fill="#E3E4E5"/>
<path transform="translate(1574,1464)" d="m0 0 5 1v8h-2l-1-7-2 8h-2l1-9z" fill="#79787C"/>
<path transform="translate(1800,1438)" d="m0 0h7v10h-2v-8h-3l-1 8h-2z" fill="#818183"/>
<path transform="translate(1485,1403)" d="m0 0h6l1 1v8l-2 1-1-9h-3v9l-2-4z" fill="#3A5B6E"/>
<path transform="translate(1655,935)" d="m0 0m-3 1h3v2l-16 6h-2l1-3z" fill="#211E28"/>
<path transform="translate(1697,915)" d="m0 0 2 1v2 3h2l-1 2-3 1-2 2-2-3 1-4z" fill="#FBFBFC"/>
<path transform="translate(1677,885)" d="m0 0 5 4 5 7v3l-3-1-6-8z" fill="#312E37"/>
<path transform="translate(986,830)" d="m0 0 5 1v6h-6v-6z" fill="#F3F4F5"/>
<path transform="translate(863,830)" d="m0 0h5v8l-5-1-1-5z" fill="#F7F8F8"/>
<path transform="translate(1721,697)" d="m0 0h3l3 4v2h2v2h-7z" fill="#EAEAEB"/>
<path transform="translate(1507,671)" d="m0 0 2 1-9 9-1 5-6 1 2-4z" fill="#E4E5E7"/>
<path transform="translate(1818,1437)" d="m0 0h2v11h-7v-10h2v7l4 1z" fill="#5C5A60"/>
<path transform="translate(1744,1407)" d="m0 0h6v7l-6-1z" fill="#D3E2E9"/>
<path transform="translate(1447,1403)" d="m0 0h6l-1 10h-3l2-1 1-7h-2v5h-3z" fill="#6C95A7"/>
<path transform="translate(1759,1372)" d="m0 0 4 1-3 3v12h-3v-12z" fill="#828284"/>
<path transform="translate(230,1244)" d="m0 0h6v8l-2 1-1-7-2-1v8l-3-1 1-7z" fill="#858587"/>
<path transform="translate(330,1164)" d="m0 0h4l-1 4-3 2h-6l1-3z" fill="#E0E0E0"/>
<path transform="translate(1675,866)" d="m0 0h6l-6 7h-5l-1-2z" fill="#E2E5E9"/>
<path transform="translate(590,829)" d="m0 0 2 1-2 3v3h5l-1 3-7-1-5 1v-2l4-1 2-5z" fill="#626165"/>
<path transform="translate(925,829)" d="m0 0h2l1 8 4 1 1-9h1l1 8-1 2h-7l-2-1z" fill="#3E3C43"/>
<path transform="translate(699,830)" d="m0 0 5 1v5l-1 1h-5v-6z" fill="#FBFBFC"/>
<path transform="translate(818,821)" d="m0 0h6l-2 1-1 6-5 1v-5z" fill="#F0F1F2"/>
<path transform="translate(537,742)" d="m0 0 5 1 1 1v10l-2 2-3-1 2-2 1-8-6-1z" fill="#312E36"/>
<path transform="translate(1480,637)" d="m0 0m-1 1m-1 1m-1 1m-1 1m-1 1m-1 1 1 2-7 8-4 1 6-7z" fill="#2D2A33"/>
<path transform="translate(1508,618)" d="m0 0m-1 1m-2 1h2l-1 3-7 4-6 4-2-1 7-6z" fill="#26232C"/>
<path transform="translate(1406,1405)" d="m0 0h1v8l4 1-11 1 2-1-1-3 3-1 1-4z" fill="#7BBBD5"/>
<path transform="translate(1708,1402)" d="m0 0 2 1v7l-2 3 6 1v1h-9l-1-3 2-5h2z" fill="#58A3C2"/>
<path transform="translate(1486,1404)" d="m0 0h3l2 8v3l-5-1z" fill="#CDDBE2"/>
<path transform="translate(302,1165)" d="m0 0h1v7l11-3h5l-2 3-5 1h-10z" fill="#68666B"/>
<path transform="translate(1670,932)" d="m0 0h6l2 3-1 3h-4l-1 2v-4l-2-1z" fill="#FDFDFD"/>
<path transform="translate(663,822)" d="m0 0h2l-2 4-3 7-3 6h-2v-4h2l4-12z" fill="#56555A"/>
<path transform="translate(723,829)" d="m0 0 4 1v7h-5v-7z" fill="#F8F8F9"/>
<path transform="translate(942,827)" d="m0 0 3 1v2l-1 5-3 2-2-7z" fill="#EAEBEC"/>
<path transform="translate(359,754)" d="m0 0h1l1 8 2 2 5 1-2 2h-5l-3-4v-8z" fill="#211E28"/>
<path transform="translate(1559,642)" d="m0 0 4 1-10 4-6 2h-4v-2z" fill="#3A383F"/>
<path transform="translate(1638,1464)" d="m0 0h4l1 2v7l-3 1v-8l-3 8-1-4z" fill="#6B6A6E"/>
<path transform="translate(1770,1400)" d="m0 0 3 1v14h-6v-1h5l-2-6z" fill="#466D81"/>
<path transform="translate(280,1244)" d="m0 0h6l1 1v8h-2l-1-7-2-1-1 8h-2z" fill="#6B6B6E"/>
<path transform="translate(1472,895)" d="m0 0 5 3 9 8 3 3-2 1-8-7-7-6z" fill="#302E36"/>
<path transform="translate(427,830)" d="m0 0 5 1 1 5-1 1h-5z" fill="#F8F9F9"/>
<path transform="translate(327,830)" d="m0 0 5 1v5l-5 1-1-1v-5z" fill="#FCFCFD"/>
<path transform="translate(604,750)" d="m0 0h6l2 3v5l-9 1 3-2h4l-2-4-5-1z" fill="#2F2D35"/>
<path transform="translate(1527,662)" d="m0 0 3 1-5 4h-3v2l-7 4v-3z" fill="#3C3A41"/>
<path transform="translate(1681,605)" d="m0 0 4 1v7l-6-2 1-5z" fill="#545359"/>
<path transform="translate(1644,252)" d="m0 0h2l2 5v4h-6z" fill="#D3D6D8"/>
<path transform="translate(1277,1439)" d="m0 0 2 1-1 6h4l1-6h1v7l-1 1h-6l-1-1v-7z" fill="#6D6C6F"/>
<path transform="translate(245,1271)" d="m0 0 3 1v7l-3 2-4-1v-8h2v7h3v-6z" fill="#7C7C7F"/>
<path transform="translate(479,1164)" d="m0 0h4l-1 4-3 2h-5v-3z" fill="#E9EAEB"/>
<path transform="translate(1658,938)" d="m0 0h7l-1 4h-3l-1 3-1-2-4-2h2z" fill="#FBFBFC"/>
<path transform="translate(1646,903)" d="m0 0h2l5 12v3h-2l-5-11z" fill="#312E36"/>
<path transform="translate(1480,859)" d="m0 0h2l-2 4-7 5-6 1v-2l5-2z" fill="#333139"/>
<path transform="translate(297,827)" d="m0 0 4 2v3h-2l-1 2 1-5-4 4 1 4 1 2h-4v-8z" fill="#535157"/>
<path transform="translate(483,828)" d="m0 0 4 1h-2l-1 8h5v2h-7v-9z" fill="#737376"/>
<path transform="translate(394,830)" d="m0 0h3v7h-5l-1-5z" fill="#F8F8F9"/>
<path transform="translate(1744,768)" d="m0 0h4v6h-6l-1-4z" fill="#5A595E"/>
<path transform="translate(547,755)" d="m0 0 3 2v6l7 2v2h-6l-2-4h-2z" fill="#48464D"/>
<path transform="translate(385,752)" d="m0 0 5 1 1 4h-9l2-4z" fill="#E7E7E8"/>
<path transform="translate(653,745)" d="m0 0h1v7l-1 4 1 2v6h-2l-1-5v-9z" fill="#777779"/>
<path transform="translate(1590,616)" d="m0 0h1l2 7 1 3h5v2h-6l-4-6v-5z" fill="#27242D"/>
<path transform="translate(1615,612)" d="m0 0 3 1-1 1v6h-2v8h-2v-9z" fill="#2E2C34"/>
<path transform="translate(1670,1400)" d="m0 0h5l2 2v6l-2-1v-4l-4-1v6h-2l-1-5z" fill="#383F4A"/>
<path transform="translate(1724,882)" d="m0 0v3l-7 8-7 6-2-1z" fill="#1D1A24"/>
<path transform="translate(1742,865)" d="m0 0 1 3h-2v3h-2l-1 4h-2l-1 4-3-1 9-12z" fill="#27242D"/>
<path transform="translate(1019,829)" d="m0 0h5v9h-3v-7l-1 8h-1v-8l-2-1z" fill="#D7D8DA"/>
<path transform="translate(914,830)" d="m0 0h5v7h-5z" fill="#FBFBFB"/>
<path transform="translate(670,823)" d="m0 0h2l1 16h-3z" fill="#69686C"/>
<path transform="translate(380,756)" d="m0 0h1l3 9h8l-2 2h-7l-3-3-1-6z" fill="#27242D"/>
<path transform="translate(278,759)" d="m0 0h4l-1 5h-7v-4z" fill="#EAEAEB"/>
<path transform="translate(241,759)" d="m0 0h5l-1 5-6 1 1-5z" fill="#E8E8E9"/>
<path transform="translate(1487,693)" d="m0 0h5l-5 8h-5z" fill="#EEF0F1"/>
<path transform="translate(243,490)" d="m0 0 5 1v2l-5-1 1 9h-4l1-10z" fill="#838388"/>
<path transform="translate(1540,1439)" d="m0 0h4v7h-5v-6z" fill="#F4F6F7"/>
<path transform="translate(1550,1400)" d="m0 0h3l-3 10-3 3v-6z" fill="#447E99"/>
<path transform="translate(1307,1402)" d="m0 0 7 1 1 6h-1l-1 5h-1l-2-9-2-1-1 2z" fill="#6CA6BF"/>
<path transform="translate(1578,916)" d="m0 0h1l1 8 1 4h6v2h-7l-2-1z" fill="#57565B"/>
<path transform="translate(1441,878)" d="m0 0 4 1 1 5-4 1-2-1z" fill="#4F4D53"/>
<path transform="translate(569,823)" d="m0 0h2l1 16h-3z" fill="#706F74"/>
<path transform="translate(438,830)" d="m0 0h4v7h-5v-6z" fill="#F7F7F8"/>
<path transform="translate(651,759)" d="m0 0 2 2-1 3 8 1v2h-12v-2h3z" fill="#3E3C43"/>
<path transform="translate(282,756)" d="m0 0 2 1 1 10h-2v-2l-7 1 2-2 3-1 1-4-3-1z" fill="#1D1A24"/>
<path transform="translate(1434,743)" d="m0 0h1l1 6 4 2-1 1h-6l-1-3zm6 2h1v5h-1z" fill="#37353D"/>
<path transform="translate(332,669)" d="m0 0h1l1 14 1 2h-4v-15z" fill="#5E5D62"/>
<path transform="translate(1614,642)" d="m0 0 7 1 5 1-5 4-9-1v-1h6l-1-2z" fill="#CACBCD"/>
<path transform="translate(1606,598)" d="m0 0h7l2 1v2l-23-1v-1z" fill="#4C4B51"/>
<path transform="translate(229,491)" d="m0 0 4 1v7h-5z" fill="#F9F9FA"/>
<path transform="translate(1561,1465)" d="m0 0 4 1 1 8-5-1z" fill="#ECEDEE"/>
<path transform="translate(1508,1403)" d="m0 0h5v7h-1v-5l-5 1-1 7-2-2v-6z" fill="#31627C"/>
<path transform="translate(289,1238)" d="m0 0 3 1 1 5v9h-2z" fill="#757579"/>
<path transform="translate(1498,1115)" d="m0 0 6 2 1 3 4 1v2l3 1v2l-4-2-10-8z" fill="#99999A"/>
<path transform="translate(1496,856)" d="m0 0 4 2 8 7-3 1-4-4-5-2z" fill="#F4F5F6"/>
<path transform="translate(1469,794)" d="m0 0h1l4 16h-3l-3-9z" fill="#504F55"/>
<path transform="translate(247,761)" d="m0 0h2v4h2v2h-3v-2l-9 2-2-1v-2h6z" fill="#221F29"/>
<path transform="translate(1773,730)" d="m0 0 4 1v5h-6v-5z" fill="#747476"/>
<path transform="translate(1408,728)" d="m0 0h6l-1 6-5-1z" fill="#4D4B51"/>
<path transform="translate(254,674)" d="m0 0 3 1v8h-4v-8z" fill="#F3F5F6"/>
<path transform="translate(1546,619)" d="m0 0h2l3 11h-2l-6-8z" fill="#DFE0E1"/>
<path transform="translate(1389,1438)" d="m0 0 5 1-1 2-3-1v6h3v2l-5-1v-8z" fill="#78787B"/>
<path transform="translate(350,1265)" d="m0 0h2l-2 16h-2v-11z" fill="#909092"/>
<path transform="translate(1577,953)" d="m0 0h4v7l-5-1v-5z" fill="#4A494F"/>
<path transform="translate(1523,897)" d="m0 0 6 1 3 2v2l-8-2-1 4-1-4z" fill="#3B3941"/>
<path transform="translate(1486,876)" d="m0 0 1 3 5 1-3 2-1 7h-2v-10l-2-1z" fill="#221F29"/>
<path transform="translate(830,828)" d="m0 0h5l-1 9h-4z" fill="#F2F3F4"/>
<path transform="translate(1693,751)" d="m0 0 5 1 2 1v2l-6 1-4-3z" fill="#E5E6E6"/>
<path transform="translate(1698,694)" d="m0 0h3l8 14-3-1-7-10z" fill="#434148"/>
<path transform="translate(212,673)" d="m0 0 5 1 2 9v3l-3-1-1-9z" fill="#737276"/>
<path transform="translate(1516,632)" d="m0 0h1l2 6 1 2 4 2-1 2-5-2-3-3z" fill="#38363D"/>
<path transform="translate(1809,1465)" d="m0 0h2v7h2l1-6h1v7l-4 1-2-1z" fill="#6E6D71"/>
<path transform="translate(1704,1439)" d="m0 0 4 1-1 6h-4v-6z" fill="#F0F1F2"/>
<path transform="translate(1617,1439)" d="m0 0 4 2v5h-5v-6z" fill="#EAEBEC"/>
<path transform="translate(1741,1439)" d="m0 0h3v7h-5l1-6z" fill="#F4F4F5"/>
<path transform="translate(1598,950)" d="m0 0h13l-2 4-7-1z" fill="#FEFEFE"/>
<path transform="translate(1556,897)" d="m0 0 12 2 1 3-15-3z" fill="#45444A"/>
<path transform="translate(1427,856)" d="m0 0h4v6l-4 1-1-1v-5z" fill="#413F46"/>
<path transform="translate(1698,838)" d="m0 0 1 2-7 10-3-1 7-10z" fill="#343239"/>
<path transform="translate(1417,832)" d="m0 0 4 1-1 5h-5l1-5z" fill="#3D3B43"/>
<path transform="translate(474,828)" d="m0 0h4v10l-6 1v-2h4l-1-7z" fill="#6E6D71"/>
<path transform="translate(237,750)" d="m0 0h8l3 2-1 4-1-3-7-1-1 3h-2z" fill="#3B3941"/>
<path transform="translate(1609,1464)" d="m0 0h4v2h-4v5h2v3l-4-1v-7z" fill="#7D7C7F"/>
<path transform="translate(1800,1464)" d="m0 0h3l1 6 2-1-2 5-4-1z" fill="#878689"/>
<path transform="translate(1339,1404)" d="m0 0h1v10l-5-1-1-2 2-2 1-2z" fill="#B6D2DF"/>
<path transform="translate(1603,953)" d="m0 0h4v6h-4l-1-5z" fill="#3D3B42"/>
<path transform="translate(1435,868)" d="m0 0h3v6h-5l-1-5z" fill="#424047"/>
<path transform="translate(1422,844)" d="m0 0h3v6l-4 1-1-5z" fill="#403E45"/>
<path transform="translate(787,825)" d="m0 0h1l1 14h-9l1-3 6 1z" fill="#424047"/>
<path transform="translate(559,829)" d="m0 0h7l1 2-6-1 1 9h-3z" fill="#5A585E"/>
<path transform="translate(428,755)" d="m0 0h1l1 9 2 3h-6l1-11z" fill="#1D1A24"/>
<path transform="translate(312,675)" d="m0 0h3v9h-4z" fill="#EDEEEE"/>
<path transform="translate(300,675)" d="m0 0h3l1 9h-4z" fill="#F2F3F3"/>
<path transform="translate(224,675)" d="m0 0h4l1 2v6l-4 1 2-6h-3z" fill="#F4F5F6"/>
<path transform="translate(1704,620)" d="m0 0 4 2-1 4-5-1v-4z" fill="#3B3940"/>
<path transform="translate(1616,614)" d="m0 0 4 1 1 4h-3l-1 3-2 2z" fill="#C4C6C9"/>
<path transform="translate(1738,1465)" d="m0 0h2l1 6 3-1v3h-7z" fill="#79787B"/>
<path transform="translate(1625,1465)" d="m0 0 3 1v6l-4 2v-8z" fill="#FAFBFB"/>
<path transform="translate(1576,1438)" d="m0 0 3 1v4l2-1-1 5-3 1-1-2z" fill="#8D8D8F"/>
<path transform="translate(1642,1407)" d="m0 0h2v7h6l1-2 2 3h-10l-2-1v-4h2z" fill="#75A8BD"/>
<path transform="translate(1739,1377)" d="m0 0h5l-4 2v10h-2v-11z" fill="#777679"/>
<path transform="translate(240,1244)" d="m0 0 8 1-4 5v-5h-3v8h-2z" fill="#909194"/>
<path transform="translate(1512,937)" d="m0 0 5 1v5h-5z" fill="#3C3A41"/>
<path transform="translate(1702,917)" d="m0 0 4 1v5l-5-1v-4z" fill="#444249"/>
<path transform="translate(1528,881)" d="m0 0 6 2 1 2h-3l3 3-6-2-3-3z" fill="#F3F5F7"/>
<path transform="translate(1739,880)" d="m0 0h5v5h-6z" fill="#403E45"/>
<path transform="translate(1050,834)" d="m0 0 4 1v2h6v2h-10z" fill="#818183"/>
<path transform="translate(577,828)" d="m0 0h2l1 4v7h-4l1-7z" fill="#75757A"/>
<path transform="translate(1773,795)" d="m0 0h6l-1 5h-5z" fill="#3E3C43"/>
<path transform="translate(587,750)" d="m0 0h5v3l-2 6-3 1 2-8h-2z" fill="#3D3B42"/>
<path transform="translate(324,746)" d="m0 0h1v19h-1l-1-13-2 1 2-6z" fill="#BEBFC1"/>
<path transform="translate(1703,710)" d="m0 0 3 4 3 9-1 3-6-12v-3z" fill="#3F3D44"/>
<path transform="translate(1523,657)" d="m0 0h2l-1 3-10 7-2-1 3-3h2v-2z" fill="#323038"/>
<path transform="translate(1740,658)" d="m0 0 5 1-1 4-4 1-1-5z" fill="#4B4A4F"/>
<path transform="translate(1715,628)" d="m0 0h2v7l-4-1-2-3z" fill="#3B3840"/>
<path transform="translate(1647,621)" d="m0 0 9 2-1 2-7-1v3l-3 1z" fill="#38363E"/>
<path transform="translate(1565,584)" d="m0 0 5 2v3l-6 1v-5z" fill="#413F46"/>
<path transform="translate(1590,583)" d="m0 0h6v5h-5z" fill="#3C3A41"/>
<path transform="translate(1252,1438)" d="m0 0h1l1 8h6l-1 2-7-1-1-2v-6z" fill="#7F7F81"/>
<path transform="translate(1437,1438)" d="m0 0h4v2h-3v8h-3l1-9z" fill="#8C8C8E"/>
<path transform="translate(1423,1436)" d="m0 0 4 1-3 1v10h-2v-11z" fill="#79787B"/>
<path transform="translate(1652,1400)" d="m0 0h9l2 3-1 3-2-2-8-2z" fill="#5B8497"/>
<path transform="translate(1626,1157)" d="m0 0h3l-2 5-6 2v-3z" fill="#F2F4F6"/>
<path transform="translate(298,1151)" d="m0 0 4 1 1 2h-7v2l-4 1 1-4z" fill="#4E4C52"/>
<path transform="translate(1675,919)" d="m0 0 3 1-4 3-6 3h-2l1-3z" fill="#CFCFD0"/>
<path transform="translate(1685,920)" d="m0 0m-1 1m-2 1h2l-2 4-9 3 5-5z" fill="#201D27"/>
<path transform="translate(1557,911)" d="m0 0h9l2 2-10 1-4 2 2-4z" fill="#302D36"/>
<path transform="translate(1460,882)" d="m0 0 6 5 6 8-4-2-9-9z" fill="#26232D"/>
<path transform="translate(688,834)" d="m0 0 2 3v2h-12l1-3 9 1z" fill="#514F56"/>
<path transform="translate(1769,821)" d="m0 0 5 1-1 4h-6z" fill="#35333B"/>
<path transform="translate(1451,810)" d="m0 0 5 1 2 4v5h-2l-1-7-6-1z" fill="#39373F"/>
<path transform="translate(579,753)" d="m0 0 4 1 1 5-3 1-1-2-2 4z" fill="#56555B"/>
<path transform="translate(1730,741)" d="m0 0 3 3 1 5-5-1z" fill="#FBFBFC"/>
<path transform="translate(1406,741)" d="m0 0 5 1-1 5-5-1z" fill="#434148"/>
<path transform="translate(1765,705)" d="m0 0h4l1 5h-6l-1-4z" fill="#434148"/>
<path transform="translate(433,676)" d="m0 0h1l1 7 3 2h-3v4l2 1h-5z" fill="#413F46"/>
<path transform="translate(223,673)" d="m0 0h5l-1 2h-3v3h3l-2 5h-2z" fill="#979799"/>
<path transform="translate(237,675)" d="m0 0h3v8h-4z" fill="#EBECEC"/>
<path transform="translate(1573,639)" d="m0 0 3 1-1 2-12 1v-2z" fill="#47464C"/>
<path transform="translate(1552,586)" d="m0 0 4 1v5h-5v-5z" fill="#39373F"/>
<path transform="translate(275,491)" d="m0 0h2l-1 4-3 7h-2v-5z" fill="#7E7D81"/>
<path transform="translate(1441,262)" d="m0 0 5 2v4l2 1-6-1z" fill="#eee"/>
<path transform="translate(1310,1441)" d="m0 0h1v5h3l2-4v5l-1 1h-5l-1-1v-5z" fill="#757578"/>
<path transform="translate(1453,1410)" d="m0 0 7 1v4h-6z" fill="#D3DFE4"/>
<path transform="translate(1629,950)" d="m0 0 5 1v4l-5 1z" fill="#37353D"/>
<path transform="translate(1489,925)" d="m0 0h5v5h-5l-1-3z" fill="#3D3B42"/>
<path transform="translate(1643,884)" d="m0 0 4 2-11 4-2-2z" fill="#4F4D53"/>
<path transform="translate(1484,879)" d="m0 0h2v7l-3 2-3-5z" fill="#E2E4E7"/>
<path transform="translate(1450,841)" d="m0 0 4 2v2h6l-1 3-5-1-4-4z" fill="#49474E"/>
<path transform="translate(970,832)" d="m0 0 3 4h8l-1 3h-8l-2-2z" fill="#545259"/>
<path transform="translate(412,828)" d="m0 0 3 1-1 8 3 1-4 1-1-1z" fill="#5D5C61"/>
<path transform="translate(1032,831)" d="m0 0h3l2 3 1 2-3 2h-3z" fill="#EDEFF1"/>
<path transform="translate(503,828)" d="m0 0 3 1h-2l1 8h-4v-6z" fill="#E9E9EA"/>
<path transform="translate(649,822)" d="m0 0 4 2 2 5v6l-2-1-2-8-2-1z" fill="#5A585E"/>
<path transform="translate(1771,808)" d="m0 0h5l1 4-5 1z" fill="#312E36"/>
<path transform="translate(1404,755)" d="m0 0h5l1 3-1 2h-5z" fill="#3B3940"/>
<path transform="translate(1741,723)" d="m0 0h4v2l-5 2h-7l1-3z" fill="#4C4B51"/>
<path transform="translate(1755,680)" d="m0 0h3l1 4-3 3h-2v-6z" fill="#3B3940"/>
<path transform="translate(1491,645)" d="m0 0h2l-1 4h-2l-1 2-1 1-6 2 5-6z" fill="#4A494F"/>
<path transform="translate(1450,646)" d="m0 0h5v5h-5l-1-4z" fill="#3D3B42"/>
<path transform="translate(1460,636)" d="m0 0h4v5l-4 1-1-5z" fill="#36343C"/>
<path transform="translate(1667,629)" d="m0 0 1 3v10l-4 1 1-8z" fill="#3D3B42"/>
<path transform="translate(1618,612)" d="m0 0 4 1 2 2-1 5h-2l-2-5-2-2z" fill="#454349"/>
<path transform="translate(1539,589)" d="m0 0 5 2-1 4-5-1z" fill="#37353D"/>
<path transform="translate(1776,1436)" d="m0 0h2v12h-3z" fill="#858588"/>
<path transform="translate(1685,1409)" d="m0 0 4 2 1 4h-6z" fill="#DFE9ED"/>
<path transform="translate(1358,1402)" d="m0 0h3l-1 3-6 5v-5z" fill="#667986"/>
<path transform="translate(1671,1402)" d="m0 0 5 1v4l-4 1-1-1z" fill="#E0EDF3"/>
<path transform="translate(385,1271)" d="m0 0h5v2h-3v8h-2z" fill="#828284"/>
<path transform="translate(242,1271)" d="m0 0 5 2-1 6h-3z" fill="#EFF0F1"/>
<path transform="translate(410,1168)" d="m0 0h5l-2 2-4 2h-8l3-2z" fill="#2D2A33"/>
<path transform="translate(1617,952)" d="m0 0h3l1 6-5-1z" fill="#3B3840"/>
<path transform="translate(1564,952)" d="m0 0 4 1v5h-5z" fill="#312F37"/>
<path transform="translate(1551,950)" d="m0 0 4 1-1 5-4-1z" fill="#2E2B34"/>
<path transform="translate(1448,890)" d="m0 0h5l1 4-4 1-2-1z" fill="#38363E"/>
<path transform="translate(1489,874)" d="m0 0 4 1-1 5-4-1z" fill="#CED0D2"/>
<path transform="translate(1755,857)" d="m0 0 3 1-1 5-5-1 2-4z" fill="#2E2B34"/>
<path transform="translate(1757,834)" d="m0 0 1 3-4 9h-2l3-10z" fill="#1D1A24"/>
<path transform="translate(1466,836)" d="m0 0h1l-1 7-4 4h-2l1-4 4-4z" fill="#38363E"/>
<path transform="translate(1765,833)" d="m0 0 4 2-1 4-5-1z" fill="#38363E"/>
<path transform="translate(735,827)" d="m0 0h1l1 12h-3v-11z" fill="#504F55"/>
<path transform="translate(1408,807)" d="m0 0h4l1 5-4 1-2-5z" fill="#312F37"/>
<path transform="translate(323,741)" d="m0 0h6l-2 5-2 2-2-4z" fill="#57565B"/>
<path transform="translate(1739,714)" d="m0 0 2 1-7 6-4-3z" fill="#B6B8BB"/>
<path transform="translate(1444,707)" d="m0 0 6 2 7 3v1l-8-1-5-3z" fill="#27242D"/>
<path transform="translate(1416,703)" d="m0 0h5l-1 5-5-1z" fill="#35333A"/>
<path transform="translate(1434,667)" d="m0 0h4l1 5-4 1-1-1z" fill="#37353D"/>
<path transform="translate(1703,656)" d="m0 0 4 2 1 1v5l-4 1 2-6h-5z" fill="#2A2831"/>
<path transform="translate(1442,656)" d="m0 0 5 2-2 4-4-1z" fill="#3C3A41"/>
<path transform="translate(1469,627)" d="m0 0 5 1-1 5h-3z" fill="#312F37"/>
<path transform="translate(1471,261)" d="m0 0h6l-3 6-3 1z" fill="#FEFEFE"/>
</svg>
