<?xml version="1.0" encoding="UTF-8"?>
<svg version="1.1" viewBox="0 0 987 1280" width="987" height="1280" xmlns="http://www.w3.org/2000/svg">
<path transform="translate(0)" d="m0 0h987v1280h-987z" fill="#FDFDFD"/>
<path transform="translate(474,373)" d="m0 0h2v2l6-1-1 3h-2l-1 3-7 4-3 3h-2v3l16 1 12-2 10 2 12-1 5-1 1 1v38l-3 9-5 6-15 5-4 3h-3v-2l-15-5 4 6 1 3 4 1h17l3-1 5-8h4l-1 5 2-3 3-7 3-1 1 6 2-10 3-1 2 3-1-9 1-3 3 1 1 2 1-4-5-1-3-3 3-2h3l-1-7h2l-4-11-2-7h3v-2h-5l-3 1-2-5-3-2v-2l-4-1-4-2-4-6h6 4l1 2h4l2 3 3-2 3 3 4 1-1 10h2v-2l3 1 3 4 2 3-1 8 3-2 1 5-2 5 5-1-1 5v4l1 6-7-1-3 4 4-1-1 4-5 4-4 1v2l4 1-4 4-7 1v2h3l-1 3-3 1h-7l2 4-4 2-11-1h-5l-1 3-4-1-4 1-1-3h-10l-6 1-3-1v-3h2v-2h-8l-4-2v-2h3v-2l-7-1-3-2v-3l3-1-9-6-1-4h4l-2-3-7 1-1-4 2-2-1-5-1-4 5 1 2 1-3-5v-6l3 2v-10l2-1 2 1 1-6h2v2l2-1 1-4-2-5 5-1 2-3h2l1 2 3-4h4z" fill="#282727"/>
<path transform="translate(0,1276)" d="m0 0h987v4h-987z" fill="#282727"/>
<path transform="translate(490,392)" d="m0 0 10 1h15l-2 4-24 24-7 8h-2l-1 3h-2l-1 3h-2v2l-4-1-2-6v-37h18z" fill="#EFEEEE"/>
<path transform="translate(771,935)" d="m0 0 7 1 4 5 2 7-1 5 4-2-1 3 17-12 3-1-2 4-16 16-1 2h-2l-2 4-2 3 6-3 2 1-6 4-6-1-2 5-2 1 2-5 3-6 1-12-17 17-8 7-9 9-1 2 17-1v2l-4 2h-15l-4-2v-2h2l2-4h3l12-12 1-2-7-1-2-2v-13l6-9 10-7h2v-2z" fill="#636262"/>
<path transform="translate(785,264)" d="m0 0 4 1 4 5-1 7 3-1 1-2h2v3l4 2 1 5v8l-4 6-10 10h-8l-3-3-3-5-5 6-4-2-2-4 1-4 3-3-1-4-6-3v-1l9 1h4l1-1v-12l6 1-2 1v5l3-2v-3l5-2 1-4z" fill="#C8C6C6"/>
<path transform="translate(522,142)" d="m0 0h10l5 3 5-2-2 5-1 27 2 1-5 4-2-2-2-6 2-5h-15l-1 3 6 2 5 4-5 3-10-6v5h-2l1-6 3-6-2-5-1-1 1-11 4-5z" fill="#F3F2F2"/>
<path transform="translate(521,387)" d="m0 0 2 1v4l3-2 5 1v2h-3l4 9 2 9h-2l1 7-5 2 3 3 4 1v5l-5-4v7l1 5h-3v-3l-3 3-1 8-2 1v-7l-4 4-3 8-2-1 1-5-4 2-4 7-3 1h-17l-5-2-3-6-1-3 9 2 6 3v2l12-6 10-3 5-7 2-7v-38h-5l3-2z" fill="#eee"/>
<path transform="translate(131,437)" d="m0 0 4 2 2 4v5h8v1h-9v4l16 1 4 4v2l2-1v-12l-4-8 4 2 4 5 1 3v11l-4 8-6 4h-7l-6-3-4-4v-2h-2l3 9 2 2-3 1-5-7-1-3v-8l2-12v-5z" fill="#292828"/>
<path transform="translate(341,174)" d="m0 0h2l-1 5-1 1h-7l9 24 5-1 3-5h2l-2 6-5 6-4 2h-11l-7-6-3-9 2-12 4-4v4h2l2-6 2-3z" fill="#DCDBDB"/>
<path transform="translate(772,938)" d="m0 0 6 2 1 5h2v4l-7 6-5 6h-3l-2 5-4 2v-3l3-3 2-4-4-2-2 4-2-1 1 7-4 1-3-2-1-8 3-7 4-5 9-6z" fill="#F8F8F8"/>
<path transform="translate(779,953)" d="m0 0h1l-1 13-5 9-2 5-9 8-8 1h-11l2-4 14-14 8-7z" fill="#eee"/>
<path transform="translate(452,821)" d="m0 0h7l1 7-1 3h-4v2h48v-5l3 1v3l44 1v3h-113v-3h15z" fill="#C0BEBE"/>
<path transform="translate(459,390)" d="m0 0 5 1 1 1 1 34 2 8 4 6 2 2 1 9-3-1-3-9-2-1v6h-2l-3-12h-1l-1 5-2-1v-12l-2-1-2 4-1-2 1-3 6-3-1-2-4-1v-10l2-7 2-5 1-2-3-2z" fill="#F0EFEF"/>
<path transform="translate(294,541)" d="m0 0 8 1 10 1 2-1-2 5-7 1-3-1v14l-4 5h7l8-3-2 4-5 3h-10l-6-5-2-9 3-7 3-4-6 1-1 3-1-2 5-5z" fill="#282727"/>
<path transform="translate(479,144)" d="m0 0 9 6 7 4 1 19-6 5-5-1-5-2 1-19 2-1v-2l-4-3z" fill="#282727"/>
<path transform="translate(156,345)" d="m0 0 5 5 15 5 6 5 1 2v7l-6 9-1 5-2-1-1-6 1-6-5-3-4 1-3 4-1-5-2-4-4-5-4 10h-2v-8l4-9 7 7 13 5 3 3v5l5-4-1-4-9-4-11-4-4-5-1-4z" fill="#282727"/>
<path transform="translate(888,76)" d="m0 0 4 1 2 2 3-3 5 2v6l3-7 5-1 2 2v11l-2 2-5-1-2-2-2 3h-5l-3-3-2 3h-5l-2-3v-9z" fill="#CFCECE"/>
<path transform="translate(612,721)" d="m0 0 2 3 6-1 1-2h2v4h9l1 3 1 10h-14l-3-1v2h-7l-2-13 1-2h2z" fill="#E0DFDF"/>
<path transform="translate(289,213)" d="m0 0 4 1 7 13-1 5-3 5-9 1-7-14 1-5 3-5z" fill="#282727"/>
<path transform="translate(522,142)" d="m0 0h10l5 3 5-2-2 5-1 27 2 1-5 4-2-2-2-6 2-5h-16v-3h2l2-4 1 3h11v-14h-3l-1-2-6-1-6 3-2 3-1 6-2-4 2-7 5-4z" fill="#282727"/>
<path transform="translate(659,186)" d="m0 0 8 1 5 5v3l-5 12-1 6-4 1-2-1v-4l-7 1-1-2v-7l6-7z" fill="#D1D0D0"/>
<path transform="translate(846,397)" d="m0 0h3l3 8v8l-14 3h-3v3l-4-2-1-2 1-5-3-4 2-5 3-2 10 1z" fill="#E4E3E3"/>
<path transform="translate(586,161)" d="m0 0 8 6-3 17-6 3-4-1-6-4 4-18z" fill="#282727"/>
<path transform="translate(739,238)" d="m0 0 9 1 4 7-2 5-8 11-7-1-5-8 2-5z" fill="#282727"/>
<path transform="translate(378,170)" d="m0 0h9l2 11 1 7h2l-1 5-6-1-4 4-4-1-2-3v-13l-2-3v-3z" fill="#D2D0D0"/>
<path transform="translate(479,670)" d="m0 0h2l-1 11h2v2h-5l-3-1-1-3-5-3 1 5-1 2h-13-3-5-4-5l-1-2v-6l1-2h6v2h3v-2h5l4 1v7l8-1 3 1v-2l-4-2v-4h5 3 6z" fill="#6C6A6A"/>
<path transform="translate(824,318)" d="m0 0 5 5v2l-6 2-3 3 2 1v2h3v8h-8l-4 6-3 4-4-4 2-4 3-2 2-5h5l1-2h-8v2l-4 2-1 4-4-1v-8l7-3 14-10z" fill="#282727"/>
<path transform="translate(539,724)" d="m0 0 5 2 2 2v8h3l-1-10 5-1h7l1 2 1 11-8 1h-13l-1-1h-6l-1-4 2-3 5-2 1-3-6 3v-4z" fill="#DBDADA"/>
<path transform="translate(771,935)" d="m0 0 7 1 4 5 2 7-1 5 4-2-1 3 17-12 3-1-2 4-16 16-1 2h-2l-2 4-2 3 6-3 2 1-6 4-6-1-2 5-2 1 2-5 4-9 1-3v-11l1-4h-2l-2-5-5-1-10 2 3-3h2v-2z" fill="#282727"/>
<path transform="translate(785,264)" d="m0 0 4 1 4 5-1 8-5 3-13 13-7 8-3-2 1-4 3-3-1-4-6-3v-1l9 1h4l1-1v-12l6 1-2 1v5l3-2v-3l5-2 1-4z" fill="#282727"/>
<path transform="translate(815,76)" d="m0 0 5 1 1 4 2 3 2-6 1-2h13l1 4-5-1-1 3 4-1v5h-2v-2h-2v4l6-1 1 1 6-12 3 2 2 5v5l3 1-1 2-4-1v-3l-5 1-1 3h-14v-13h-2l-3 9-2 4-3-1v-5h-2l-3-6z" fill="#B8B6B6"/>
<path transform="translate(188,302)" d="m0 0 4 2 2 8 6-1 6 5v9l-5 6-2 4-2-6v-2h2l2-4h2l-3-5h-4l1 6-4 2-5-1-3-3v-9l5-6v-2l-2-1z" fill="#282727"/>
<path transform="translate(804,304)" d="m0 0 6 4 3 9-9 6-4 4-2 3-4-2 2-7 4-2v-5l-5 4-1 3-5-1 1-7 5-3 6-2z" fill="#282727"/>
<path transform="translate(829,907)" d="m0 0h4l-2 4-13 13-5 4-6 5-5 5-8 7-7 6 2-4 8-8 1-2-4 1-1-2 3-1 5-6 3-1 4-5h3l2-4 5-4 6-3z" fill="#8F8E8E"/>
<path transform="translate(708,1016)" d="m0 0h8v2l3 1 1 2v9l-3 5-6 1-4-1-3-5v-9z" fill="#ECEBEB"/>
<path transform="translate(263,724)" d="m0 0 5 1-1 3-4-2 6 7-1 4-1 2h-8l-2-3-2 2h-7l-2-2v-8l2-3h7l2 3 3-3z" fill="#E0DFDF"/>
<path transform="translate(517,438)" d="m0 0 2 3-4 10-2-1 1-5-4 2-4 7-3 1h-17l-5-2-3-6-1-3 9 2 6 3v2l12-6 10-3z" fill="#EBEAEA"/>
<path transform="translate(832,360)" d="m0 0 4 2 4 3v7h6v4h-6v-2l-4-1-1-8-5 1v5l5 1-2 8-6 3h-3l-5-5-2-8-2-3 7 1 1 10 5-2 1-5-4-1 1-7z" fill="#2F2E2E"/>
<path transform="translate(620,544)" d="m0 0 4 1 10 7v15l-5 3-8-2 1-16h2v-3l-4-2z" fill="#282727"/>
<path transform="translate(509,724)" d="m0 0 4 2 7-2 3 1-1 3v-2h-3l1 3 4 3-1 6h-8v-2l-4 2h-7l-2-3v-7l3-3z" fill="#EDECEC"/>
<path transform="translate(711,217)" d="m0 0h8l4 5 3 1 1-4 2 2-4 4-5 1v-2l-4-2v-2l-3 3v4h6l2 7-4 7h-9l-5-5-3-2 4-2h3v2l4 2v2l3-3v-5l-5 1-2-4 1-6z" fill="#282727"/>
<path transform="translate(681,549)" d="m0 0h4v2h5l-1 16 2 1-4 2-4-1-2 2-4-1-1-1v-7l2-4-1-7z" fill="#D8D6D6"/>
<path transform="translate(155,393)" d="m0 0h2l4 12 5-1 3-3 1 6-4 6-17-6-1-10z" fill="#282727"/>
<path transform="translate(796,279)" d="m0 0 6 1 1 4v8l-4 6-10 10h-8l-3-3-2-6-2-1 5-4 4 9v3l5-4 1-3 5-3 1-2h2l1-9v-5z" fill="#282727"/>
<path transform="translate(728,1022)" d="m0 0h10l2 1v10h2v2h-20v-2h2l-1-10z" fill="#E4E3E3"/>
<path transform="translate(259,232)" d="m0 0 8 2-1 8-1 9 7-1-1 5-8 2-9-16 4-8z" fill="#282727"/>
<path transform="translate(431,158)" d="m0 0 4 1 4 4-2 5-5 5-1 5 7 1-3 4-8-1-2-19z" fill="#282727"/>
<path transform="translate(274,724)" d="m0 0 7 1h6l1 14h-7l-2-2-1 1h-8l1-4 1 2 3-1v-2l-4-2-1-5z" fill="#DEDDDD"/>
<path transform="translate(385,411)" d="m0 0h8l1 6 2-5 5 1 2-2 5 1 5-1v2l7-2 1 4h-2v-2h-2v5h2v-2l2 1-1 2-6-1-1-1v3l-6-1v-5h-2v5h-3v-3l-1 4h-10l-1-6-4 1z" fill="#A6A4A4"/>
<path transform="translate(324,186)" d="m0 0 1 2v8l4 7 4 3h9l6-3 3-5h2l-2 6-5 6-4 2h-11l-7-6-3-9 2-10z" fill="#282727"/>
<path transform="translate(474,543)" d="m0 0 3 1 4-1-1 2v10l-1 11h4v-12-3h4l1 2v13l-5 4-9-2z" fill="#282727"/>
<path transform="translate(574,718)" d="m0 0h3l1 20h-11l-3-3v-7l3-3 3-1 3 1-1-6z" fill="#282727"/>
<path transform="translate(404,626)" d="m0 0h10l3 4v6l-3 4h-15l-3-13h2l4 9v2h3z" fill="#868484"/>
<path transform="translate(480,396)" d="m0 0 2 1 1 4 6 1 3 10-2 2-5-1 1-9h-4l1 11 2 1v2h-9v-2l3-1 1-11h-4l1 9-5 1-2-1 2-10 7-3z" fill="#282727"/>
<path transform="translate(671,718)" d="m0 0h3l1 20h-11l-3-4 1-7 4-3 4 1-1-6z" fill="#282727"/>
<path transform="translate(762,245)" d="m0 0h6l2 2v4l-4-1-2-1-1 4 1 4-4-1-8 11-1 5h-4l-2-7 5-5 5-6 1-5 5-3z" fill="#282727"/>
<path transform="translate(298,195)" d="m0 0 4 1-1 3h-2l1 4 4 1-1 5 5 11v2l4 1-1 4-2 1-5-1-3-10-3-6-3-1-1-9z" fill="#282727"/>
<path transform="translate(191,719)" d="m0 0h12l4 4-1 5-3 2h-6l2 8h-8l1-2v-15z" fill="#282727"/>
<path transform="translate(494,550)" d="m0 0 5 2 5-1 2 4-1 6-5 6-8 2 1-15h-2v-2z" fill="#EDECEC"/>
<path transform="translate(453,155)" d="m0 0 4 2-1 5h-3l-1-1-1 15 3 1-2 4-6-2-1-19h-2l2-4h7z" fill="#282727"/>
<path transform="translate(796,274)" d="m0 0h2v3l4 3h-4l1 10-3 3-6-4-1-5-5 3-6 5 1-4 10-10 6-2z" fill="#D8D7D7"/>
<path transform="translate(514,817)" d="m0 0h5l2 4 3-4h4l2 3v8l-1 3-3 1-3-1-3-6-2 2 2 1v3h-8v-3h2l2-4 1-4-4 1z" fill="#7E7D7D"/>
<path transform="translate(386,552)" d="m0 0h1l1 6h3l2-2 4 3v8h-2l-2 4h-11l1-4h2l-1-6v-8z" fill="#A6A4A4"/>
<path transform="translate(227,724)" d="m0 0 6 2 1 1v9l-2 2h-8l-3-3v-7l-4-1-1-2h5v2z" fill="#3F3E3E"/>
<path transform="translate(469,153)" d="m0 0 3 1 4 5-1 4-3 1-3-5-3-2 1 2v8l2 1-1 5 5 2-2 4-6-1-2-1-1-19z" fill="#282727"/>
<path transform="translate(135,421)" d="m0 0 2 2 9 2 2-1v2l16 2 1 5-2 2h-3v-2l-10-1-10-2h-5z" fill="#282727"/>
<path transform="translate(354,169)" d="m0 0h2l1 13h2l3 13 2 5-2 3-4-1-1-5-7-23-1-2h4z" fill="#282727"/>
<path transform="translate(485,817)" d="m0 0h5l3 7 3-5 3-1 1 12-3-1-5-1-4 4-3-1-2-4 1-8z" fill="#B4B3B3"/>
<path transform="translate(310,411)" d="m0 0h5v2l2-1h12l1 3h-3v2h4l1-5 3 1-2 6-8 1h-3l-10-1-3 1v-8z" fill="#A6A4A4"/>
<path transform="translate(212,268)" d="m0 0 3 2v2h3v-2h3l-1 6 8 9 5 1-1 5-6 1-7-9-3-3-3-1-1-4z" fill="#282727"/>
<path transform="translate(241,240)" d="m0 0h2l3 3h4l-2 5 8 11 4 1-2 5h-6l-3-6-6-8h-2z" fill="#282727"/>
<path transform="translate(595,719)" d="m0 0 4 1 7 16 1 2h-7v-5h-8l-1 5-4-1 5-12z" fill="#282727"/>
<path transform="translate(843,380)" d="m0 0 9 4-3 2h-2v6h-2l-1-3-11 3-3 2-1 3-4-2 1-7 15-5z" fill="#282727"/>
<path transform="translate(652,176)" d="m0 0 1 3-1 4 3 1v2h-4l-4 12v7l-4 1-3-4 1-4 4-12v-5z" fill="#282727"/>
<path transform="translate(158,447)" d="m0 0h1v12l-3 1-4-5-13-1-3-1v-4z" fill="#F0F0F0"/>
<path transform="translate(414,155)" d="m0 0 2 4v2l4-1v3l-4 1 2 8 1 9 3 1-2 4-6-2-2-19h-2l1-5z" fill="#282727"/>
<path transform="translate(438,673)" d="m0 0h6v2h3v-2h5l3 1v8l-8 1h-4-5l-1-2v-6z" fill="#B9B8B8"/>
<path transform="translate(194,291)" d="m0 0 2 2 6-1v6l8 8 6 1-1 5-6 1-6-7-6-4h-2l-2-10z" fill="#282727"/>
<path transform="translate(646,409)" d="m0 0 7 2 9 1 1-2 1 8-2 1v-6h-3l2 6-4-1v-4h-2v5h-3l-1-1-1 2-7-1-1-1v-7z" fill="#8D8C8C"/>
<path transform="translate(705,204)" d="m0 0 3 1-1 5 2 3-2 1-3-1-6 12v6l-5-1-2-5 5-8 3-6v-4z" fill="#282727"/>
<path transform="translate(399,673)" d="m0 0h6l1 6h2v2h3l-4-5v-3h6v10h-19v-9l3 1 1 5z" fill="#908E8E"/>
<path transform="translate(364,409)" d="m0 0h6l2 1v2h4l1 2 6-2v7l-8 1v-7h-2v6l-4 1h-4v-2h-2l-1-6z" fill="#DAD9D9"/>
<path transform="translate(520,673)" d="m0 0h6v2h3v-2h5l2 3-1 7h-6v-2l-3 2h-6l-1-7z" fill="#807F7F"/>
<path transform="translate(524,149)" d="m0 0h10v14h-11l-1-5 3-1 1-5-5 1 1-3z" fill="#B4B2B2"/>
<path transform="translate(569,158)" d="m0 0 4 2 2 3-4 2-3-2-1 15 4 4-5 2-5-3 2-17 2-4z" fill="#282727"/>
<path transform="translate(735,724)" d="m0 0 6 2 1 1v9l-2 2h-8l-2-2v-8l2-3z" fill="#282727"/>
<path transform="translate(790,408)" d="m0 0 4 1-1 3 1 5-2 2-4-1-2-1-1 3h-12v-3h2v-5h-2v-2h4v7l7-1-3-1v-5l4-1v2h3z" fill="#929090"/>
<path transform="translate(292,725)" d="m0 0h8l2 2v9l-2 2h-8l-2-2v-8z" fill="#282727"/>
<path transform="translate(155,347)" d="m0 0 2 3 5 5 17 6 3 3-1 4-3 3h-2l-2-6-6-3-8-3-5-5-2-4h2z" fill="#E2E1E1"/>
<path transform="translate(785,1069)" d="m0 0 4 2 3-2 4 1 1 9-7 1h-7l-2-3v-6z" fill="#D9D7D7"/>
<path transform="translate(847,398)" d="m0 0 4 4 1 3v8l-14 3h-3v3l-4-2-1-2 5-5 5-1 4-1h3z" fill="#282727"/>
<path transform="translate(378,170)" d="m0 0h9l2 11 1 7h2l-1 5-4-1-2-2-3-14-8-1v-2z" fill="#282727"/>
<path transform="translate(677,1066)" d="m0 0h8l3 3v7l-4 4h-8l-1-2h2z" fill="#A09F9F"/>
<path transform="translate(553,156)" d="m0 0 4 1 2 4-3 2-3-1-1 14 3 2-1 3-3 1-5-3 2-19z" fill="#282727"/>
<path transform="translate(263,409)" d="m0 0h6v3l5-1 1 4v4l-4-1h2v-2l-5-1v3l-4 2h-3-5v-10l1 2 6 1z" fill="#939191"/>
<path transform="translate(493,669)" d="m0 0 4 1 1 10 2 1v-12l3 3 1 10-5 1h-7l-6 1-1-1-1-9h2v7h3l-1-7 4-1v8h2z" fill="#747373"/>
<path transform="translate(135,458)" d="m0 0 19 1 2 2-1 4-3 2h-9l-7-4z" fill="#EAE9E9"/>
<path transform="translate(449,719)" d="m0 0h15l1 4h-2v-2l-8-1v7l7-2v6h-2v-2h-5l1 7h6l4-2-1 4h-16l1-2v-15z" fill="#282727"/>
<path transform="translate(660,188)" d="m0 0h7l6 5-6 14-1 6-4 1-1-1v-6l4-10-1-5z" fill="#282727"/>
<path transform="translate(888,76)" d="m0 0 4 1 2 3h2v8h-3l-2 3h-5l-2-3v-9z" fill="#B0AEAE"/>
<path transform="translate(575,411)" d="m0 0h5v2h2v4h4l-1-4 7-1 2 1v-2l4 1 3-1v9h-6l-3-3-1-3h-2v3l3 2-10 1-2-6h-3v4l2 1-4-1-1-5z" fill="#747373"/>
<path transform="translate(435,550)" d="m0 0 5 4-1 5-5 4-1 4 4 2-4 1-5-2 1-15z" fill="#282727"/>
<path transform="translate(803,305)" d="m0 0 3 2 1 8-6 3-2-4-4 4-1 3-5-1 1-7 5-3 6-2z" fill="#D8D7D7"/>
<path transform="translate(341,174)" d="m0 0h2l-1 5-1 1-7 1-3 1 1 6 3 8-1 7-2 1-5-14 1-5 5-9z" fill="#282727"/>
<path transform="translate(232,408)" d="m0 0 4 2-3 1v2l3 1h-3v3h5v-5l6-1h10v8l-4-1 2-1-4-3-1 5h-2v-6l-2 1-1 6h-11v-11z" fill="#7A7878"/>
<path transform="translate(751,1066)" d="m0 0 3 1-1 11 8-2 2-6 4-1v-3l3 1v13h-7v-3h-2l-1 3h-10l1-7z" fill="#A3A2A2"/>
<path transform="translate(791,1021)" d="m0 0h4v2h2v10h5l-1-10h3l1 12h-14l-3-2 1-4 1-2 3-1 1-2-5 1v-2h2z" fill="#7E7D7D"/>
<path transform="translate(276,410)" d="m0 0 6 2v2h2v-3h5v2l7-1 1-2v8l-5 1-2-1v-2l-2 1v2h-5-3l-2-5v4h-2z" fill="#8A8888"/>
<path transform="translate(808,923)" d="m0 0 4 1-6 8-1 4-8 6-9 9v-3l9-9 1-2-4 1-1-2 3-1 5-6 3-1z" fill="#8D8C8C"/>
<path transform="translate(145,415)" d="m0 0h9l10 2 5 6 1 5-4-4-12-3-7-1-1 3-2-4z" fill="#282727"/>
<path transform="translate(350,719)" d="m0 0h7l1 7 2 7h2l3-12v-2h4l-3 9-4 10h-4z" fill="#282727"/>
<path transform="translate(395,165)" d="m0 0 5 3 3 16 3 1-2 5-6-2-1-2-2-16h-2z" fill="#282727"/>
<path transform="translate(363,175)" d="m0 0 4 2 4 10 1 4v9l-3 5-1-3-1-8-4-13-3-2z" fill="#282727"/>
<path transform="translate(377,724)" d="m0 0 5 2 1 2 1 10h-12l-1-5 4-3 3-2v-2h-3l-1 3h-2l1-4z" fill="#3E3D3D"/>
<path transform="translate(502,626)" d="m0 0h6l1 5v3 4l-1 2h-10v-2h2v-11z" fill="#605F5F"/>
<path transform="translate(626,725)" d="m0 0h6l1 3 1 10h-8l-3-2v-10z" fill="#E7E6E6"/>
<path transform="translate(853,431)" d="m0 0 4 4-2 5-16 1-1 3-4-3 2-4 8-2 7-1z" fill="#282727"/>
<path transform="translate(634,176)" d="m0 0h3l3 5-3 8-2 8v3l-4 1-1-1 1-10 2-9-1-4z" fill="#282727"/>
<path transform="translate(626,172)" d="m0 0 3 3v5l-3 9-1 7-5 1-2-4 3-7 2-6v-6z" fill="#282727"/>
<path transform="translate(322,725)" d="m0 0h9l1 2 1 11h-12l-1-4 4-4h4v-4l-6 3z" fill="#464545"/>
<path transform="translate(171,338)" d="m0 0h6l4 4 6 4 3 1v5l-4 1-9-7-5-2h-2v-5z" fill="#282727"/>
<path transform="translate(225,262)" d="m0 0h5l3 6 6 7h3v6l-6-1-9-11-3-1z" fill="#282727"/>
<path transform="translate(233,254)" d="m0 0h5l4 8 5 5 3 1-1 6-6-1-4-7-4-5-2-1z" fill="#282727"/>
<path transform="translate(539,724)" d="m0 0 5 2 1 1 1 11h-12l-1-4 2-3 5-2 1-3-6 3v-4z" fill="#494848"/>
<path transform="translate(613,169)" d="m0 0 4 2-1 4-3 15v3l-4 1-2-7 3-11 1-6z" fill="#282727"/>
<path transform="translate(715,719)" d="m0 0h10l2 5h-2l-2-3-7 1-1 1v10l1 2 6 1 5-3-2 4-1 1h-10l-4-4-1-2v-7l4-5z" fill="#282727"/>
<path transform="translate(515,627)" d="m0 0h3l5 10 3 1v-11h2v11l6-1 1-6-2-4 4 2v8l-3 3h-14l-1-8h-2l-4 7-2-1z" fill="#504F4F"/>
<path transform="translate(446,549)" d="m0 0 5 1 3-1 2 5-1 1h-6l1 11 2 3-4 1-3-2 1-13-4-1 2-4z" fill="#282727"/>
<path transform="translate(690,200)" d="m0 0 2 1 2 5-6 12-1 4 1 2-5 1-1-1 1-8 4-9v-6z" fill="#282727"/>
<path transform="translate(745,725)" d="m0 0h4l1 10 3 1v-11h5v13h-11l-2-4-1-8z" fill="#282727"/>
<path transform="translate(595,669)" d="m0 0 3 1v13h-7v-3h-2v-2h-2v-3h-4l1 7h-2l-1-6 2-3h5l3 3v-3h4z" fill="#999898"/>
<path transform="translate(851,420)" d="m0 0 4 2-1 5-8 2-12 2-1-5 1-2 17-1z" fill="#282727"/>
<path transform="translate(712,409)" d="m0 0h4v3h2v-2l4-1 2 1v9l-5 1h-7l-1-3h2z" fill="#D1D0D0"/>
<path transform="translate(786,288)" d="m0 0h2l3 5 2 1-1 5h-3l-1 4-3 3h-2l-3-7v-5l3-1 5 3v-3h-2l-1-4z" fill="#EBEAEA"/>
<path transform="translate(312,724)" d="m0 0 5 2 1 12h-5v-12l-3 2v10h-6v-12l5-1z" fill="#282727"/>
<path transform="translate(828,346)" d="m0 0 4 1v5l-14 7-2 3-4-1 1-5 14-9z" fill="#282727"/>
<path transform="translate(179,327)" d="m0 0 9 6 4 3 4 1-1 5-5-1-9-6-6-2 1-4z" fill="#282727"/>
<path transform="translate(679,196)" d="m0 0h4l1 7-3 4-4 12h-5l-1-4 7-14z" fill="#282727"/>
<path transform="translate(602,166)" d="m0 0 4 1 1 3-3 9-1 8v3l-4 1-1-2v-8l2-11v-3z" fill="#282727"/>
<path transform="translate(394,725)" d="m0 0h4l1 11 3-1v-10h5l1 13h-12l-2-6-1-6z" fill="#282727"/>
<path transform="translate(302,547)" d="m0 0 5 1v17l2 1-9 1-2-1 2-4 1-1z" fill="#C5C3C3"/>
<path transform="translate(519,166)" d="m0 0h11l4 1-1 6 1 5-1-3-5 2-4-4-6-3z" fill="#E4E3E3"/>
<path transform="translate(646,725)" d="m0 0h4l1 10 3 1v-11h4l1 13h-12l-1-2-1-10z" fill="#282727"/>
<path transform="translate(588,543)" d="m0 0 4 1v3h-3v3l2 1v2l-2 1v12l2 3-4 1-3-2v-14-4l2-5z" fill="#282727"/>
<path transform="translate(659,543)" d="m0 0 3 1 4-1-1 3v22l-4 2-1-1z" fill="#282727"/>
<path transform="translate(728,409)" d="m0 0 4 1 6-1v10h-11l-1-1v-6z" fill="#E0DFDF"/>
<path transform="translate(206,284)" d="m0 0h4l1 4h2l7 8 3 1v5l-5-1-10-10-3-2z" fill="#282727"/>
<path transform="translate(322,543)" d="m0 0 2 1-1 1v10l-1 14-3 1-2-4v-22z" fill="#282727"/>
<path transform="translate(416,543)" d="m0 0 2 1-1 1-1 24h-4l-1-2v-23z" fill="#282727"/>
<path transform="translate(475,627)" d="m0 0h2v11l3-3h2l1-7h4l4 9v2h-2l-1-2h-5v3h-9v-12z" fill="#888787"/>
<path transform="translate(612,550)" d="m0 0 4 2 2 4-3 2-5-5 1 13 3 3-4 1-5-2 1-14z" fill="#282727"/>
<path transform="translate(622,411)" d="m0 0h9v3l-3-1v7h-2v-7h-2v6l-4 1-9-1v-2h3v-2l2-2 4-1z" fill="#C0BEBE"/>
<path transform="translate(538,550)" d="m0 0 3 1 3 5-4 2-2-4-2-1 1 8-1 6 4 1-1 2-4-1-4-2 1-13z" fill="#282727"/>
<path transform="translate(466,550)" d="m0 0 5 5v2l-4 1-2-4-2-1 1 13 3 3-3 1-5-2v-14l5-3z" fill="#282727"/>
<path transform="translate(537,673)" d="m0 0h13v9h-2v-6l-2-1v8h-9z" fill="#A5A4A4"/>
<path transform="translate(565,547)" d="m0 0h2v4h3v2h-3l1 14 1 2-4 1-3-2v-14-3z" fill="#282727"/>
<path transform="translate(496,368)" d="m0 0 4 1 4 6-1 5-5 5h-7l-4-4h7l3-2 1-6z" fill="#282727"/>
<path transform="translate(651,547)" d="m0 0h2v4h3v2l-2 1v13l1 2-4 1-3-2v-17z" fill="#282727"/>
<path transform="translate(486,155)" d="m0 0 5 3v16l-6-2v-16z" fill="#E6E5E5"/>
<path transform="translate(240,718)" d="m0 0h6v4l-2-1v-2h-2v6l2 1h-2l1 12h-6v-11-3l2-5z" fill="#282727"/>
<path transform="translate(486,778)" d="m0 0 7 1 1-1h7l1 2v7h-2l-1-6h-1v7h-4l-1-3-1 2-2-1v-6l-4 1 1 6-2-1v-6z" fill="#716F6F"/>
<path transform="translate(248,725)" d="m0 0h7l2 3v3l-6 1 1 4 5-1-2 3h-7l-2-2v-8z" fill="#3B3A3A"/>
<path transform="translate(469,394)" d="m0 0h7l4 1v5l-2 2-5 1-1 3h-2l-1 3z" fill="#F4F4F4"/>
<path transform="translate(414,724)" d="m0 0 6 2 1 5h-7l2 5 4-1-1 3h-7l-2-3v-7z" fill="#3B3A3A"/>
<path transform="translate(677,411)" d="m0 0 5 1v8h-5-4l-2-3h-3l2-5h5l1 2zm-11 2 2 4-2 2z" fill="#979595"/>
<path transform="translate(734,1022)" d="m0 0 6 1v10h2v2h-13l1-2h3v-10z" fill="#AAA9A9"/>
<path transform="translate(787,725)" d="m0 0h7l2 6h-7l1 5 5-1-1 3h-7l-2-2-1-6z" fill="#3C3B3B"/>
<path transform="translate(743,241)" d="m0 0 4 4-2 5-5 8h-3l-2-5 7-11z" fill="#E7E6E6"/>
<path transform="translate(286,218)" d="m0 0 5 1 5 10v3l-5 1-5-8-2-6z" fill="#E9E8E8"/>
<path transform="translate(584,165)" d="m0 0 5 3-2 14h-4l-2-2 1-10z" fill="#E8E8E8"/>
<path transform="translate(348,552)" d="m0 0h1l1 6 3 1 1-3 1 2 4 2v6l-4 2-1-6-3-1-1 3-5-3v-7z" fill="#282727"/>
<path transform="translate(682,550)" d="m0 0 8 1-1 16 2 1-4 2-3-5v-11l-5-2z" fill="#282727"/>
<path transform="translate(683,412)" d="m0 0 8 1 4-1-3 5h4v-3l6-1 1 2-4 2 3 2-10 1v-2l-4 2h-3-2z" fill="#A19F9F"/>
<path transform="translate(347,627)" d="m0 0 3 1 3 9 4 1v-8h1v8h2v2h-9l-1-3h-4l-1 2h-2v-4h2l1-7z" fill="#5A5858"/>
<path transform="translate(155,393)" d="m0 0h2l2 5v7l-10-3-1-5z" fill="#282727"/>
<path transform="translate(793,937)" d="m0 0h5l-2 4-8 8-1 2h-2l-1 3-2-1 1-6v-3l5-2z" fill="#E5E4E4"/>
<path transform="translate(669,550)" d="m0 0 3 1 1 2v15l-5 6-4 1 4-5v-16-3z" fill="#282727"/>
<path transform="translate(142,1066)" d="m0 0h9l1 5-3 1 3 7-4-2v-2h-2l-1 4h-3z" fill="#616060"/>
<path transform="translate(420,673)" d="m0 0h10v8h3v-7l2 1 1 8h-8l-2-7h-2l2 5h-3l1-2-4-2z" fill="#797878"/>
<path transform="translate(297,545)" d="m0 0h1v18h-4l-2-3v-8l4-6z" fill="#EFEEEE"/>
<path transform="translate(746,1021)" d="m0 0 4 1 2 2 1 10-4-1-1-3-2 2 2 2-5-1 1-4 1-3h-2l1-4z" fill="#929090"/>
<path transform="translate(525,626)" d="m0 0h10v3l1 5-2 4h-6v-11l-3 1z" fill="#E6E5E5"/>
<path transform="translate(697,547)" d="m0 0 2 3 3 1v2l-3 1v14l2 1-4 1-3-2v-14-3z" fill="#282727"/>
<path transform="translate(385,411)" d="m0 0h8l1 6 2-5 5 1v4 3h-10l-1-6-4 1z" fill="#919090"/>
<path transform="translate(259,232)" d="m0 0 8 2-1 8h-2l-1 3h-2l-4-8 1-4z" fill="#282727"/>
<path transform="translate(926,76)" d="m0 0 5 1 1 5-5 6 5-1-1 4h-7l-1-3 5-9h-2v2h-3l1-4z" fill="#B6B4B4"/>
<path transform="translate(479,718)" d="m0 0h4l1 9v11h-6v-19z" fill="#282727"/>
<path transform="translate(553,626)" d="m0 0h9l2 2-1 4-1 3 2 4-4-2v-2l-4-1 1 5-3-1 1-10h-2z" fill="#666464"/>
<path transform="translate(699,1069)" d="m0 0 3 1 5-1 2 6-4 1v3l-4-2v-4h-3v6h-2l-1-2v-7z" fill="#888787"/>
<path transform="translate(387,718)" d="m0 0h4l1 20h-6v-19z" fill="#282727"/>
<path transform="translate(336,718)" d="m0 0h4l1 20h-6v-19z" fill="#282727"/>
<path transform="translate(386,552)" d="m0 0h1l1 6h3l2-2 4 3v8l-3 1-1-7-6 3v-2l-3-1v-8z" fill="#282727"/>
<path transform="translate(806,76)" d="m0 0 8 1 1 6-2 2h-5v4h-2l-1-10-1-2z" fill="#9B9A9A"/>
<path transform="translate(680,725)" d="m0 0h7l2 6h-5v-4l-2-1 1 9v2l5-2-1 3h-7l-2-2-1-5 2-5z" fill="#282727"/>
<path transform="translate(237,627)" d="m0 0h2v11h2v-8h6v3h-3l1 7h-10v-2h2l-1-5-2 1 2-6z" fill="#8B8989"/>
<path transform="translate(550,550)" d="m0 0 3 3 1 14 2 2-4 1-4-2v-14-3z" fill="#282727"/>
<path transform="translate(813,927)" d="m0 0m-2 1 2 1-7 6 2-4zm-6 7m-1 1m-2 1 2 1-5 5v3l-11 8h-2l2-4 12-12z" fill="#D9D8D8"/>
<path transform="translate(357,627)" d="m0 0h3l2 7h2l4-7h3v12h-3l-1-4-2 4h-2l-5-9z" fill="#777676"/>
<path transform="translate(524,550)" d="m0 0 4 2v3l-5-1 1 12 3 3-4 1-4-2 1-15z" fill="#282727"/>
<path transform="translate(327,550)" d="m0 0 3 2 1 8-1 10-6 5-4 1 6-7v-15-3z" fill="#282727"/>
<path transform="translate(274,724)" d="m0 0 5 1-1 3-4-2 6 7-1 4-1 1h-8l1-4 1 2 3-1v-2l-4-2-1-5z" fill="#282727"/>
<path transform="translate(263,724)" d="m0 0 5 1-1 3-4-2 6 7-1 4-1 1h-7l-1-4 2 2 3-1v-2l-4-2-1-5z" fill="#282727"/>
<path transform="translate(576,672)" d="m0 0 3 1v9h-3l-1-1-1 2h-5l-2-6 2-3v2h3v-2h3z" fill="#A8A7A7"/>
<path transform="translate(517,167)" d="m0 0 1 3 6 2 5 4-5 3-10-6v5h-2l1-6z" fill="#282727"/>
<path transform="translate(575,550)" d="m0 0 3 2 1 14v3l-3 1-2-2-1-16z" fill="#282727"/>
<path transform="translate(863,77)" d="m0 0 5 1 1 4-3 9h-3l-2-1-1-6z" fill="#BCBBBB"/>
<path transform="translate(524,817)" d="m0 0h4l2 3v8l-1 3-3 1-3-2 1-1z" fill="#AEADAD"/>
<path transform="translate(427,724)" d="m0 0 5 2-2 2v-2h-3v3l4 2 1 1v5l-1 1h-8l-1-3 2-1 1 2 3 1-3-5-2-2 1-5z" fill="#282727"/>
<path transform="translate(374,551)" d="m0 0 4 1v14 3h-4l-1-3v-14z" fill="#282727"/>
<path transform="translate(337,550)" d="m0 0 3 2v14 3h-4l-1-3v-14z" fill="#282727"/>
<path transform="translate(494,550)" d="m0 0 4 4v13l-6 2 1-15h-2v-2z" fill="#282727"/>
<path transform="translate(421,550)" d="m0 0 3 2v18l-6 5-3 1v-2l4-1 1-3v-16-3z" fill="#282727"/>
<path transform="translate(333,181)" d="m0 0 2 1 8 22 2 2-6 1-1-7-6-16-1-2z" fill="#B0AEAE"/>
<path transform="translate(881,1069)" d="m0 0 4 1 4-1 2 1v9h-2l-1-3h-2l1 3-3-1 1-5h-4v6l-3-1v-7z" fill="#717070"/>
<path transform="translate(489,818)" d="m0 0 3 2 1 4 3-5 3-1 1 12-3-1-5-1-3 2z" fill="#747373"/>
<path transform="translate(777,724)" d="m0 0 5 1-1 3v-2h-3l1 3 4 3v5l-1 1h-8l-1-3 2-1 1 2 3 1-3-5-2-2 1-5z" fill="#282727"/>
<path transform="translate(438,673)" d="m0 0h6v2h2v6l-3 2h-5l-1-2v-6z" fill="#E8E8E8"/>
<path transform="translate(786,284)" d="m0 0h3l3 6 5 2v2h-2l-1 3-1-3-4-2-1-4-2 1v4h2l1 4-4-2-1-2-3-2 4-6z" fill="#949393"/>
<path transform="translate(422,726)" d="m0 0 2 4 4 4v3l-4-1h-2l-4 1-4-2v-4h7z" fill="#E2E1E1"/>
<path transform="translate(695,724)" d="m0 0 4 1-1 3v-2h-3l1 3 4 3-1 5-1 1h-7l-1-3 6 2-3-5-3-3 2-4z" fill="#282727"/>
<path transform="translate(727,1069)" d="m0 0 5 1 1 5-2 5h-5l-2-4v-5z" fill="#A5A4A4"/>
<path transform="translate(519,724)" d="m0 0 4 1-1 3v-2h-3l1 3 4 3-1 6h-8l-1-3 6 2-3-5-2-2 1-5z" fill="#282727"/>
<path transform="translate(331,183)" d="m0 0 2 1 7 19-1 4-5-1v-10l-4-12z" fill="#FBFBFB"/>
<path transform="translate(906,76)" d="m0 0 5 1 1 4-2 6-3 1v-3h-4l1-7z" fill="#B7B5B5"/>
<path transform="translate(813,336)" d="m0 0 4 1-1 6-4 5-2 3-4-4 2-4 3-2z" fill="#282727"/>
<path transform="translate(818,329)" d="m0 0 4 2v2h3v8l-8-1v-3l-3-1 5-1v-1l-5-1z" fill="#C5C3C3"/>
<path transform="translate(794,280)" d="m0 0 3 1 1 11-3 1-5-4v-5z" fill="#FCFCFC"/>
<path transform="translate(658,1069)" d="m0 0 4 1 1 2v6l-1 2h-5l-2-3 1-7z" fill="#9A9999"/>
<path transform="translate(479,670)" d="m0 0h2l-1 11h2v2h-5l-1-5-4-1-1-4h6z" fill="#A4A2A2"/>
<path transform="translate(318,412)" d="m0 0h11l1 3h-3v2h4l1-5 3 1-2 6-8 1-4-2v-5l-3 1z" fill="#6A6868"/>
<path transform="translate(621,721)" d="m0 0h2v4l3 1h-3l1 10 2 2h-6l-1-1-1-12z" fill="#282727"/>
<path transform="translate(691,553)" d="m0 0 4 1v11h-2l-1 2-3-2v-10z" fill="#F5F4F4"/>
<path transform="translate(783,409)" d="m0 0h2v2h-3v3h5l-2 6h-12v-3h2v-5h-2v-2h4v7l7-1-3-1v-5z" fill="#747272"/>
<path transform="translate(762,725)" d="m0 0h9l1 3-4-1-1 1v10h-6v-12z" fill="#282727"/>
<path transform="translate(612,721)" d="m0 0 4 5-2 1v9l2 2h-6l-1-2-1-11 3-1z" fill="#282727"/>
<path transform="translate(472,721)" d="m0 0 3 4-2 1 1 10h2v2h-6l-1-2-1-11z" fill="#282727"/>
<path transform="translate(453,627)" d="m0 0 3 1 4 9v2h-2v-2h-6l-1 3h-3l1-5h2v-5z" fill="#7E7D7D"/>
<path transform="translate(509,724)" d="m0 0 4 2-1 3-2-1v-2l-3 1v8l5 1-1 2h-7l-2-3v-7l3-3z" fill="#282727"/>
<path transform="translate(408,626)" d="m0 0h6l3 4v6l-3 2v-8l-5-2v11h-3v-12z" fill="#5D5B5B"/>
<path transform="translate(323,626)" d="m0 0h4v11l-3 3h-7l-1-2-1-11h3v11l5-1z" fill="#929090"/>
<path transform="translate(532,150)" d="m0 0h1v12h-9l5-10z" fill="#F9F9F9"/>
<path transform="translate(639,721)" d="m0 0h2v4l2 1h-2v11l2 1h-5l-1-1-1-12z" fill="#282727"/>
<path transform="translate(597,550)" d="m0 0 3 2v15l2 1-5 2-1-2-1-16z" fill="#282727"/>
<path transform="translate(813,333)" d="m0 0h6l1 2-2 2h-5l-2 5-3 1-1 3-3-4h2l1-5 4-1v-2z" fill="#E2E1E1"/>
<path transform="translate(443,818)" d="m0 0 3 3 4 9h-3v-3l-6 1-1 2h-2l1-6z" fill="#7D7B7B"/>
<path transform="translate(756,1017)" d="m0 0h3l1 5v12h-4l-1-12z" fill="#7E7D7D"/>
<path transform="translate(256,626)" d="m0 0h5l4 8v2h2l-1 3-3-3-3-6h-3l-4 10h-5v-3h4z" fill="#8C8B8B"/>
<path transform="translate(626,552)" d="m0 0 5 3v11l-3 1-2-1z" fill="#EAEAEA"/>
<path transform="translate(815,76)" d="m0 0 5 1 1 4 2 3 3-2-1 5-2 4-3-1v-5h-2l-3-6z" fill="#A19F9F"/>
<path transform="translate(751,1066)" d="m0 0 3 1-1 11 8-2 2-5 2 1v7h-2v-2h-2l-1 3h-10l1-7z" fill="#666464"/>
<path transform="translate(836,1069)" d="m0 0 4 1v9l-1 1h-5l-1-9z" fill="#CDCCCC"/>
<path transform="translate(805,1067)" d="m0 0h2v12h-2l-1-6-2-1v7l-3-1v-10h3v2h3z" fill="#636262"/>
<path transform="translate(387,550)" d="m0 0 10 1-3 6-3 2-4-1-1-7z" fill="#9A9999"/>
<path transform="translate(348,412)" d="m0 0 4 1 7-1-1 5v3h-4v-2l-4 2-2-7z" fill="#959393"/>
<path transform="translate(795,310)" d="m0 0h7v2l-6 2-2 7-5-1 1-7z" fill="#282727"/>
<path transform="translate(377,179)" d="m0 0 2 2v7l4 4-2 4-4-1-2-3v-7z" fill="#282727"/>
<path transform="translate(743,988)" d="m0 0h18v2l-4 2h-15l-4-2 2-1 3 1z" fill="#A9A7A7"/>
<path transform="translate(744,945)" d="m0 0h2l-1 4-4 5-7 14h-2l2-9 8-12z" fill="#BAB8B8"/>
<path transform="translate(485,403)" d="m0 0 2 1-1 9 4 2h-4v4h-10v-1h9v-2l-3-1v-11z" fill="#D5D4D4"/>
<path transform="translate(660,194)" d="m0 0 1 2h-2l-2 9 1 4-5 1-1-2v-7l5-5z" fill="#282727"/>
<path transform="translate(771,935)" d="m0 0 7 1 4 5-1 3-2 1-2-5-5-1-10 2 3-3h2v-2z" fill="#9B9A9A"/>
<path transform="translate(455,673)" d="m0 0h6l2 1 2 4 2 1v2h-11z" fill="#C6C5C5"/>
<path transform="translate(210,725)" d="m0 0 6 1-1 2v8l1 2h-7v-12z" fill="#282727"/>
<path transform="translate(486,724)" d="m0 0 5 2 1 12h-6v-11l-2-2z" fill="#282727"/>
<path transform="translate(386,626)" d="m0 0h4l-1 12h3l1-2 1 4h-9l-1-2h2l-1-9z" fill="#B2B0B0"/>
<path transform="translate(351,561)" d="m0 0 4 1v7l-4 1h-6l2-6 3-1z" fill="#969494"/>
<path transform="translate(748,411)" d="m0 0 5 1 1 8-4-1-3 3-3-1v-6l3 2 1-2-1-3z" fill="#908F8F"/>
<path transform="translate(833,399)" d="m0 0 7 1 3 3-8 1-3 4-4-2 2-5z" fill="#282727"/>
<path transform="translate(658,198)" d="m0 0 4 1 1 1-1 7-1 6-1-4h-2l-2-6z" fill="#E4E3E3"/>
<path transform="translate(780,942)" d="m0 0 4 5-1 6 4-2v5l-5 5-2 5-1-3 1-3z" fill="#282727"/>
<path transform="translate(529,673)" d="m0 0h5l2 3-1 7h-6z" fill="#B1AFAF"/>
<path transform="translate(435,550)" d="m0 0 5 4-1 5-6 4v-12z" fill="#D4D2D2"/>
<path transform="translate(846,397)" d="m0 0h3l-1 3-1 8-4 1-2-1-1-5 5-5z" fill="#D8D7D7"/>
<path transform="translate(263,726)" d="m0 0 4 1h3l3 5 3 3-1 2-4-1h-3l-1-4-4-4z" fill="#DCDBDB"/>
<path transform="translate(628,725)" d="m0 0 5 1 1 12h-7l1-2v-8z" fill="#282727"/>
<path transform="translate(282,725)" d="m0 0h5l1 13h-6z" fill="#282727"/>
<path transform="translate(482,554)" d="m0 0h2v12l-2 1-3-1v-11z" fill="#E3E2E2"/>
<path transform="translate(858,1066)" d="m0 0h2l1 13-1 1h-7l-1-2v-6h3l-1 6 3-1v-10z" fill="#676565"/>
<path transform="translate(554,725)" d="m0 0h6l1 2 1 11h-6v-11z" fill="#282727"/>
<path transform="translate(549,725)" d="m0 0 5 1-1 12h-5v-12z" fill="#282727"/>
<path transform="translate(495,725)" d="m0 0h4l1 13h-6v-12z" fill="#282727"/>
<path transform="translate(721,409)" d="m0 0 3 1v9l-5 1h-7v-2h2l-1-8h2v7h7v-2h-3l1-2 3 1v-3l-4 1v-2z" fill="#616060"/>
<path transform="translate(371,410)" d="m0 0 1 2h4l1 2 6-2v7l-8 1v-7l-2 1-2 4z" fill="#626161"/>
<path transform="translate(594,411)" d="m0 0 4 1 3-1v9h-6l-2-3z" fill="#9E9C9C"/>
<path transform="translate(666,724)" d="m0 0 3 1-3 5 1 6 1 2-5-1-2-3 1-7z" fill="#282727"/>
<path transform="translate(158,447)" d="m0 0 1 4h-13l-9-1v2l2 1h-3v-4z" fill="#BFBDBD"/>
<path transform="translate(464,436)" d="m0 0 1 2h3l1-2 5 6 1 9-3-1-3-9-2-1v6h-2l-1-6z" fill="#D0CECE"/>
<path transform="translate(466,157)" d="m0 0 4 2 3 4 2 1-6 6-2 3 1-5-1-1z" fill="#E0DFDF"/>
<path transform="translate(713,1069)" d="m0 0 5 1h4v9h-3l-1-6h-5l1 6-3-1-1-4 1-4z" fill="#777676"/>
<path transform="translate(270,627)" d="m0 0 3 1-1 10 4-1 3 1-4-4 1-3 1 3 4 1v5h-12v-2h2z" fill="#585757"/>
<path transform="translate(409,628)" d="m0 0 5 1 1 1v6l-1 2h-6z" fill="#F9F9F9"/>
<path transform="translate(468,818)" d="m0 0h3v12h-2zm-7 3h6v3h-4l1 6-3-1z" fill="#7C7A7A"/>
<path transform="translate(228,724)" d="m0 0 5 2 1 1v9l-2 2-4-1 1-1v-9l-2-2z" fill="#282727"/>
<path transform="translate(198,317)" d="m0 0 4 2 1 4-4 4h-2l-1 2v-3l-3-1 3-2v-5z" fill="#DDDCDC"/>
<path transform="translate(707,227)" d="m0 0 2 1v3l5-2 1 1-1 7-3 1-4-4v-2l-3-1 3-2z" fill="#DBD9D9"/>
<path transform="translate(760,969)" d="m0 0v3l-16 16-1 2-5-1 2-1 2-4h3z" fill="#282727"/>
<path transform="translate(904,81)" d="m0 0 1 4h2v3l3-2 1-5h1v8l-2 2-5-1-2-2-3 1v-6l3 2z" fill="#838282"/>
<path transform="translate(835,1016)" d="m0 0 2 1v17h-3v-17z" fill="#282727"/>
<path transform="translate(793,951)" d="m0 0 2 1-10 10-3 4h-2l2-7z" fill="#D4D2D2"/>
<path transform="translate(645,1069)" d="m0 0 3 1v9h-2l-1-6-2 2v4h-3v-9z" fill="#6E6D6D"/>
<path transform="translate(826,1022)" d="m0 0 4 2v10l-7 1-2-1v-5l4-1-2 5h4z" fill="#282727"/>
<path transform="translate(735,724)" d="m0 0m-3 1h3v11l1 2-5-1-1-1v-8z" fill="#282727"/>
<path transform="translate(297,725)" d="m0 0 4 1 1 1v9l-2 2-4-1 1-1z" fill="#282727"/>
<path transform="translate(569,724)" d="m0 0m-2 1h2v10l2 3-5-1-2-2v-7z" fill="#282727"/>
<path transform="translate(552,673)" d="m0 0h7l1 2v7l-3-1 1-5h-2l-1 11h-2z" fill="#504E4E"/>
<path transform="translate(379,182)" d="m0 0 6 2 1 7-3 2-4-4z" fill="#E6E6E6"/>
<path transform="translate(453,155)" d="m0 0 4 2-1 5h-3l-1-1-1 11h-1l-1-13v-3z" fill="#7B7979"/>
<path transform="translate(925,1071)" d="m0 0 1 2-1 2h4v-4h2l-1 7 2 4h-2l-1-2h-3l-1 3h-2l1-11z" fill="#474646"/>
<path transform="translate(777,1070)" d="m0 0h3v10h-7l-1-2v-7h2v7l3-2z" fill="#696868"/>
<path transform="translate(846,1069)" d="m0 0 4 1v9h-2l-1-6h-3l1 6h-3v-9z" fill="#706E6E"/>
<path transform="translate(781,1017)" d="m0 0h4l-1 19-1 1h-6v-2h4z" fill="#282727"/>
<path transform="translate(232,408)" d="m0 0 4 2-3 1v2l3 1h-3v3h6v2l3 1h-11v-11z" fill="#868484"/>
<path transform="translate(822,368)" d="m0 0h3l1 2 3 1v5l-3 2h-3z" fill="#DDDCDC"/>
<path transform="translate(622,1067)" d="m0 0 8 8-2 5h-6l-2-1v-4h2v3l4-1v-3l-5-3z" fill="#666464"/>
<path transform="translate(437,833)" d="m0 0h15v2l2 1h-17z" fill="#C5C3C3"/>
<path transform="translate(569,726)" d="m0 0 4 1v9h-4l-1-1v-7z" fill="#ECEBEB"/>
<path transform="translate(545,673)" d="m0 0h5v9h-2v-6l-2-1v8h-4l1-9z" fill="#696868"/>
<path transform="translate(419,411)" d="m0 0 2 4h-2v-2h-2v5h2v-2l2 1-1 2-6-1v-2h-5l-1 2v-4z" fill="#5F5E5E"/>
<path transform="translate(916,77)" d="m0 0h3l1 14-5-1v-12z" fill="#A19F9F"/>
<path transform="translate(761,955)" d="m0 0 4 2v3l-3 1v2l-2 1-1 4h-2v-9h2z" fill="#282727"/>
<path transform="translate(543,817)" d="m0 0h5l1 5v3l-1 6h-6l1-3h3l-1-5 2-4-5 2z" fill="#646262"/>
<path transform="translate(583,673)" d="m0 0h5l3 3v-2l2 1v7h-2v-2h-2v-2h-2v-3h-4l1 7h-2l-1-6z" fill="#5A5858"/>
<path transform="translate(635,412)" d="m0 0h3l1 7-1 1h-8v-5l1 2 3-1z" fill="#8F8D8D"/>
<path transform="translate(276,410)" d="m0 0 6 2 2 3-1 4h-3l-2-5v4h-2z" fill="#888787"/>
<path transform="translate(713,1072)" d="m0 0h6v6l-2 2h-5v-3z" fill="#EAE9E9"/>
<path transform="translate(914,1070)" d="m0 0h6l1 1 1 8h-3l1-7h-3v8l-3-1z" fill="#626060"/>
<path transform="translate(682,726)" d="m0 0 3 1v3l4 2v2l-1 3h-2-3l-1-7z" fill="#DCDBDB"/>
<path transform="translate(501,551)" d="m0 0 4 1 1 6-3 5-4 2 2-4v-6l-1-3z" fill="#282727"/>
<path transform="translate(754,1066)" d="m0 0h6l1 3-7-1v3l5-1v5l-5-1-1 4v-11z" fill="#B3B1B1"/>
<path transform="translate(762,961)" d="m0 0 2 1-2 3h-2l1 4-3 2-7-2-2-2 1-3 1 2h3 3v2h2l1-5h2z" fill="#B9B7B7"/>
<path transform="translate(829,907)" d="m0 0h4l-2 4-13 13-5 2v-2l11-9 6-6z" fill="#AAA9A9"/>
<path transform="translate(667,726)" d="m0 0h3l1 5-2 6-3-1-1-6z" fill="#EDECEC"/>
<path transform="translate(647,724)" d="m0 0h4v2l3-1v11l-4-1v-10z" fill="#E5E5E5"/>
<path transform="translate(357,546)" d="m0 0 3 1v5l-5 2-6-2 1-3 7 1z" fill="#666565"/>
<path transform="translate(799,313)" d="m0 0 2 1v5l-2 2h-3l-1 3-4-3h3l1-4z" fill="#EBEAEA"/>
<path transform="translate(762,1022)" d="m0 0h7v3l-3 1v8h-3l-1-9z" fill="#4F4E4E"/>
<path transform="translate(502,628)" d="m0 0 4 1 2 8-1 1h-5z" fill="#EBEBEB"/>
<path transform="translate(446,549)" d="m0 0 5 1 3-1 2 5-1 1h-5l-2-3h-3v3l-3-1 2-4z" fill="#8B8A8A"/>
<path transform="translate(692,412)" d="m0 0 3 1-2 1-1 3h4v-3l6-1 1 2-4 2 3 2-10 1-1-7z" fill="#5D5C5C"/>
<path transform="translate(662,409)" d="m0 0h5v3l7-1-4 2-4 6-3-2z" fill="#D1D0D0"/>
<path transform="translate(834,364)" d="m0 0 2 1 1 9-3-1-4-2v-5z" fill="#DDDCDC"/>
<path transform="translate(714,220)" d="m0 0h2l4 4v2l2 1-7 1-3-1 1-6z" fill="#E0DFDF"/>
<path transform="translate(903,1069)" d="m0 0 3 1v9l-2-1v-5l-2-1-1 7h-2l-1-9z" fill="#626161"/>
<path transform="translate(797,957)" d="m0 0h2l-2 4-7 8h-3l1-4 2-2h3l2-4z" fill="#B2B0B0"/>
<path transform="translate(610,553)" d="m0 0 3 1 3 3 3-2-2 4-4 1v2h-2l-1 4z" fill="#CECCCC"/>
<path transform="translate(759,412)" d="m0 0 5 1v6l-5 1-1-7z" fill="#838282"/>
<path transform="translate(568,409)" d="m0 0 4 1 1 8-6-1-1-3z" fill="#7D7B7B"/>
<path transform="translate(813,1069)" d="m0 0 3 1 2 6-3 3v-6l-2-1-1 7-3-3v-5z" fill="#6F6D6D"/>
<path transform="translate(748,1029)" d="m0 0 2 4h18l-1 2h-23l2-2v-3z" fill="#D1CFCF"/>
<path transform="translate(714,1017)" d="m0 0 5 2 1 2v9l-3 4-4-1 4-4v-7z" fill="#282727"/>
<path transform="translate(583,675)" d="m0 0h4v3h2l-1 5-4 1-2-2 1-1z" fill="#D5D3D3"/>
<path transform="translate(346,628)" d="m0 0 4 4 1 5h-5l-1 2h-2v-4h2z" fill="#AAA8A8"/>
<path transform="translate(556,628)" d="m0 0 6 1v6l2 4-4-2v-2l-3-1z" fill="#A7A6A6"/>
<path transform="translate(928,81)" d="m0 0m-1 1m-1 1 2 3-1 2 5-1-1 4h-7l-1-3z" fill="#C1BFBF"/>
<path transform="translate(707,1017)" d="m0 0 3 1h-2l-1 4v10l4 2-5-1-2-3v-9z" fill="#282727"/>
<path transform="translate(484,726)" d="m0 0 3 1v9l-4 1v-10z" fill="#DFDEDE"/>
<path transform="translate(349,552)" d="m0 0 9 1-1 5-3-1-1 2-4-1z" fill="#DBDADA"/>
<path transform="translate(345,410)" d="m0 0 2 1v8l-3 1h-3l-1-9 3 1-1 5 2-1z" fill="#616060"/>
<path transform="translate(524,145)" d="m0 0 7 2-1 3h-8v-2l-6 4 2-4z" fill="#DBDADA"/>
<path transform="translate(699,1069)" d="m0 0 3 3v5l-1-4h-3v6h-2l-1-2v-7z" fill="#828080"/>
<path transform="translate(894,1066)" d="m0 0h2l1 4v9h-3l-1-12z" fill="#7A7878"/>
<path transform="translate(311,726)" d="m0 0h2v10l-4 1v-9z" fill="#EBEAEA"/>
<path transform="translate(735,726)" d="m0 0 3 1v9h-4v-9z" fill="#E2E1E1"/>
<path transform="translate(295,726)" d="m0 0 3 1v9h-4v-9z" fill="#E7E6E6"/>
<path transform="translate(227,726)" d="m0 0 3 1v9h-4v-9z" fill="#E2E1E1"/>
<path transform="translate(891,79)" d="m0 0 5 1v8h-5z" fill="#828080"/>
<path transform="translate(145,1068)" d="m0 0 4 1 2 8 1 2-4-2v-2h-2l-2 3z" fill="#A1A0A0"/>
<path transform="translate(155,1066)" d="m0 0 4 2 4 6v2h2l-1 3-7-9v9h-2z" fill="#282727"/>
<path transform="translate(791,1021)" d="m0 0h4v2h2l1 11h-3v-10l-6 1v-2h2z" fill="#484747"/>
<path transform="translate(517,438)" d="m0 0 2 3-4 10-2-1 1-5-4 1-2-2 7-3z" fill="#CDCCCC"/>
<path transform="translate(244,411)" d="m0 0 3 1v7h-2v-6l-2 1-1 5h-3l-1-7z" fill="#686767"/>
<path transform="translate(734,409)" d="m0 0h4v10h-5v-2h2v-5h-2z" fill="#908F8F"/>
<path transform="translate(796,274)" d="m0 0h2v3l4 3h-4l1 10-2-4v-5l-5-1 1-3z" fill="#9C9B9B"/>
<path transform="translate(486,778)" d="m0 0 7 1v6l-1 2-2-1v-6l-4 1 1 6-2-1v-6z" fill="#656464"/>
<path transform="translate(463,673)" d="m0 0h5l4 1v3l4 1v4h-2l-1-3-5-3-1 2-4-4z" fill="#7D7C7C"/>
<path transform="translate(491,568)" d="m0 0 3 2-2 3 7-1-1 4h-6l-2-1v-6z" fill="#9F9E9E"/>
<path transform="translate(536,553)" d="m0 0 3 1 1 4 2 1-4 3v5h-2z" fill="#CFCDCD"/>
<path transform="translate(303,548)" d="m0 0h1l1 17-1 1h-6l2-4 3-1z" fill="#F3F3F3"/>
<path transform="translate(296,410)" d="m0 0h1v8l-5 1-1-1v-5l5-1z" fill="#706E6E"/>
<path transform="translate(198,720)" d="m0 0 4 1 1 4-2 3h-4v-7z" fill="#E5E4E4"/>
<path transform="translate(407,673)" d="m0 0h6v9h-2l-1-3-3-3z" fill="#7B7A7A"/>
<path transform="translate(679,556)" d="m0 0 2 2-1 1v8l2 1-3 2-3-3 1-7z" fill="#282727"/>
<path transform="translate(587,412)" d="m0 0h5l1 5-2-3h-2v3l3 2-10 1 1-3h3l-1-4z" fill="#787777"/>
<path transform="translate(616,412)" d="m0 0h3l1 6-1 1h-8v-2h3v-2l2-2z" fill="#605F5F"/>
<path transform="translate(155,398)" d="m0 0 3 1 1 6-9-3 3-3z" fill="#DDDCDC"/>
<path transform="translate(191,312)" d="m0 0h2l1 8-3 1-4-3v-2z" fill="#E2E1E1"/>
<path transform="translate(394,674)" d="m0 0 3 1 1 5 1-2 2 1v3l-7 1z" fill="#605F5F"/>
<path transform="translate(463,627)" d="m0 0h3l3 9h2v3h-2l-4-8v8h-2z" fill="#282727"/>
<path transform="translate(609,411)" d="m0 0h3l-1 6-4 1-1-4-2-1v5h-1v-6z" fill="#5C5B5B"/>
<path transform="translate(782,1072)" d="m0 0h1l1 5 8-2 1 4-10 1-2-3z" fill="#666565"/>
<path transform="translate(793,937)" d="m0 0 2 2-8 8-3 1-2-4 5-1z" fill="#BCBABA"/>
<path transform="translate(514,725)" d="m0 0 2 1 1 5 3 3v3l-6-1-2 1v-3l3-2-1-1z" fill="#CFCDCD"/>
<path transform="translate(324,730)" d="m0 0h2l-1 5 2 1v2h-6l-1-4z" fill="#282727"/>
<path transform="translate(463,553)" d="m0 0 4 2v3l4-1-4 4-3 1-1-2z" fill="#CECDCD"/>
<path transform="translate(155,347)" d="m0 0 2 3 5 6v3l-5-2-4-7h2z" fill="#D8D7D7"/>
<path transform="translate(258,237)" d="m0 0 6 1 1 3-2 4h-2l-3-5z" fill="#E0DFDF"/>
<path transform="translate(488,780)" d="m0 0h2l2 8-4 1-2-2v-6z" fill="#E3E2E2"/>
<path transform="translate(782,725)" d="m0 0 1 3h2v7l-2 1-2-5-3-2v-3z" fill="#D9D7D7"/>
<path transform="translate(677,411)" d="m0 0 5 1v8h-5l1-3 2 1-1-2-2-1z" fill="#767575"/>
<path transform="translate(430,161)" d="m0 0 5 4-1 4-3 2-1-1-1-8z" fill="#E1E0E0"/>
<path transform="translate(668,1069)" d="m0 0 3 1v3h-3l-1 6h-2v-9z" fill="#747272"/>
<path transform="translate(761,954)" d="m0 0 4 1 2 2-1 6-4 5h-2v-3l3-3 2-4z" fill="#E0DFDF"/>
<path transform="translate(533,817)" d="m0 0h5l1 6-5 4 2-4 2-3h-4v2h-2z" fill="#787777"/>
<path transform="translate(538,730)" d="m0 0 1 2-2 4h3v2h-6l-1-4 2-3z" fill="#282727"/>
<path transform="translate(468,676)" d="m0 0 5 2 1 4 2 1-4 1-4-3z" fill="#D4D3D3"/>
<path transform="translate(237,627)" d="m0 0h2v12l-3-1v-5l-2 1 2-6z" fill="#363535"/>
<path transform="translate(258,629)" d="m0 0 3 1 1 3-1 7h-3z" fill="#BBB9B9"/>
<path transform="translate(310,627)" d="m0 0h2v12h-2l-1-6-2 1 2-6z" fill="#363535"/>
<path transform="translate(646,409)" d="m0 0 4 1-1 2h-4v6l4 1h-6l-1-1v-7z" fill="#615F5F"/>
<path transform="translate(797,409)" d="m0 0h3l1 8v3h-5v-2h2z" fill="#828080"/>
<path transform="translate(419,409)" d="m0 0 3 1v9h-2l-1-1h-2v-5h2v2h2l-2-3-3-1z" fill="#CBCACA"/>
<path transform="translate(786,288)" d="m0 0h2l3 5 2 1v4h-3v-3h-2v-2h-2l-1-4z" fill="#F8F8F8"/>
<path transform="translate(205,1066)" d="m0 0h5l1 5-4 4-1-2 2-4-2-1-1 3-1-3z" fill="#767575"/>
<path transform="translate(746,977)" d="m0 0h2l1 4-6 5-2-1 2-4z" fill="#B9B8B8"/>
<path transform="translate(514,817)" d="m0 0h5l1 6-6 5 2-4 1-4-4 1z" fill="#626161"/>
<path transform="translate(505,674)" d="m0 0h2l3 6-2 7-4 1-1-3h4l-1-7z" fill="#6C6B6B"/>
<path transform="translate(384,629)" d="m0 0 2 2v7l-4 1-2-6 2 1z" fill="#C0BEBE"/>
<path transform="translate(372,627)" d="m0 0 2 1v10h-3v-10z" fill="#FEFEFE"/>
<path transform="translate(364,409)" d="m0 0 5 1-4 1 1 6 2 2-5-1-1-6z" fill="#7B7979"/>
<path transform="translate(385,411)" d="m0 0h8l-1 7h-2v-4l-4 1z" fill="#807E7E"/>
<path transform="translate(926,1079)" d="m0 0 4 1v2l2 1-3 2-6-1 2-1z" fill="#D3D2D2"/>
<path transform="translate(632,1071)" d="m0 0h2v2h2v-2h2v4h-4l1 4-3-1-1-5z" fill="#646363"/>
<path transform="translate(813,1071)" d="m0 0 3 2v7h-5l1-8z" fill="#E7E7E7"/>
<path transform="translate(738,1069)" d="m0 0 2 1v3h-3v6l-3-1v-8z" fill="#838181"/>
<path transform="translate(829,908)" d="m0 0 2 1-10 10-2-3z" fill="#282727"/>
<path transform="translate(383,412)" d="m0 0 5 2v5l-4 1h-5l4-1z" fill="#C6C4C4"/>
<path transform="translate(628,411)" d="m0 0 4 1-2 2-2-1v7h-2v-7l-4 3 1-4z" fill="#696868"/>
<path transform="translate(524,149)" d="m0 0h7l-2 4-2 2-1-2h-5l1-3z" fill="#282727"/>
<path transform="translate(854,1069)" d="m0 0 3 1 1 7-4 1v-6z" fill="#E3E2E2"/>
<path transform="translate(728,1022)" d="m0 0 5 1 1 2v9l-4-1v-9z" fill="#282727"/>
<path transform="translate(405,676)" d="m0 0 1 3h2v2l5 1v1h-14l4-2 2 1z" fill="#C6C4C4"/>
<path transform="translate(298,627)" d="m0 0h3l2 4v3h4l-2 5-3-4-1-4h-2z" fill="#373636"/>
<path transform="translate(225,627)" d="m0 0h3l2 7h4l-2 5-2-1-2-7h-2z" fill="#373636"/>
<path transform="translate(553,559)" d="m0 0h1v7h4l-1 4-6 1-3-3 6 1-1-2z" fill="#C5C3C3"/>
<path transform="translate(458,565)" d="m0 0 1 3 7 1v-2l6-2-2 4-3 2-6-1-3-1z" fill="#C5C3C3"/>
<path transform="translate(821,332)" d="m0 0 4 1-1 7-5-1z" fill="#282727"/>
<path transform="translate(815,76)" d="m0 0 5 1 1 7-3 1-3-6z" fill="#B0AEAE"/>
<path transform="translate(902,1072)" d="m0 0 3 1v5l-3 2-5-1 2-1 2 1z" fill="#E6E5E5"/>
<path transform="translate(927,1069)" d="m0 0 5 1v5l-1-4h-2v4h-4l-1-5z" fill="#D0CFCF"/>
<path transform="translate(792,1069)" d="m0 0 4 1 1 9h-2l-1-5-4-1v-3z" fill="#878686"/>
<path transform="translate(779,949)" d="m0 0 2 3v8l-2 3v-9l-3 2-1-3z" fill="#BAB8B8"/>
<path transform="translate(568,674)" d="m0 0 1 2h3v-2h2v4l-4 1-1 3-2-5z" fill="#737272"/>
<path transform="translate(438,673)" d="m0 0h6v4h-2v-2l-3 2 1 5-3-1v-6z" fill="#797777"/>
<path transform="translate(309,632)" d="m0 0h1v7l4-1-1 2-6-1h-3z" fill="#D6D5D5"/>
<path transform="translate(435,550)" d="m0 0 5 4-1 4h-2l-4-5v-2z" fill="#282727"/>
<path transform="translate(802,409)" d="m0 0h3v12l-3 1z" fill="#949292"/>
<path transform="translate(331,183)" d="m0 0 2 1 3 9v5l-2-2-4-12z" fill="#E8E7E7"/>
<path transform="translate(513,156)" d="m0 0 3 1 4 7h-2l-1 4-1-4-3-4z" fill="#BAB8B8"/>
<path transform="translate(723,1071)" d="m0 0h1l2 8-6 1 1-2v-6z" fill="#DFDEDE"/>
<path transform="translate(838,1071)" d="m0 0h2v8l-1 1h-5v-5l1 3h3z" fill="#4F4E4E"/>
<path transform="translate(164,1066)" d="m0 0 2 1v13h-3l2-4h-2z" fill="#AEACAC"/>
<path transform="translate(723,1023)" d="m0 0h5l-1 2v9l-4-1z" fill="#282727"/>
<path transform="translate(748,1022)" d="m0 0 4 2 1 10-4-1v-9z" fill="#282727"/>
<path transform="translate(452,822)" d="m0 0h2l1 13h-3z" fill="#282727"/>
<path transform="translate(498,780)" d="m0 0 2 1v6h2v-6h1v7l-5-1-1-1v-5z" fill="#E5E4E4"/>
<path transform="translate(522,675)" d="m0 0 5 1v4l-6 1v-5z" fill="#FBFBFB"/>
<path transform="translate(515,627)" d="m0 0 3 3-2 4-3 5-2-1z" fill="#A3A1A1"/>
<path transform="translate(368,627)" d="m0 0h3v12l-3-1z" fill="#282727"/>
<path transform="translate(684,562)" d="m0 0 1 4v2l-4 3-4-1v-3l3 2v-2l1-3h2z" fill="#C5C3C3"/>
<path transform="translate(248,413)" d="m0 0 5 4-1 1 2 2h-9z" fill="#D1CFCF"/>
<path transform="translate(631,411)" d="m0 0h7l-3 2v4l-6 1v-5l2-1z" fill="#D3D1D1"/>
<path transform="translate(887,79)" d="m0 0h3v9h-3z" fill="#FEFEFE"/>
<path transform="translate(691,1067)" d="m0 0h2v12h-2l-1-9z" fill="#504F4F"/>
<path transform="translate(825,1026)" d="m0 0h2l1 4-1 3h-4l1-4-3-1z" fill="#DAD8D8"/>
<path transform="translate(760,1023)" d="m0 0 3 2v8h-3z" fill="#FEFEFE"/>
<path transform="translate(807,1022)" d="m0 0 4 1v11l-3-1v-8z" fill="#282727"/>
<path transform="translate(556,675)" d="m0 0 3 1-1 5 1 2h-4v-7z" fill="#E6E5E5"/>
<path transform="translate(298,628)" d="m0 0 1 3h2v9h-4z" fill="#B9B7B7"/>
<path transform="translate(473,628)" d="m0 0 2 2v8l-2-3-2 3v-2l-2-1h2l1-5z" fill="#C5C3C3"/>
<path transform="translate(475,627)" d="m0 0h2v12l-3-1v-10z" fill="#282727"/>
<path transform="translate(425,626)" d="m0 0 2 1 1 10 1 2-4-1z" fill="#282727"/>
<path transform="translate(337,627)" d="m0 0h3v12l-3-1z" fill="#282727"/>
<path transform="translate(645,411)" d="m0 0h4v6l-5-1z" fill="#EDECEC"/>
<path transform="translate(612,411)" d="m0 0h7l-1 3-4 1v2h-3z" fill="#D5D4D4"/>
<path transform="translate(487,371)" d="m0 0h5v2l2 1-2 3-5-1z" fill="#282727"/>
<path transform="translate(773,299)" d="m0 0 2 1-5 6-4-2v-3h5z" fill="#A7A6A6"/>
<path transform="translate(471,161)" d="m0 0 4 3-6 6-2 3 1-5z" fill="#B6B4B4"/>
<path transform="translate(907,79)" d="m0 0h2l1 2v6l-3 1-1-6z" fill="#FEFEFE"/>
<path transform="translate(909,1067)" d="m0 0h2v12h-2l-1-9z" fill="#4C4B4B"/>
<path transform="translate(651,1067)" d="m0 0h2v12h-2l-1-9z" fill="#767575"/>
<path transform="translate(762,941)" d="m0 0 2 1-11 11v-3l4-5z" fill="#DAD9D9"/>
<path transform="translate(592,728)" d="m0 0 1 3 3 1-4 1-1 5-4-1 4-8z" fill="#282727"/>
<path transform="translate(545,727)" d="m0 0 4 1v8h-3z" fill="#ECEBEB"/>
<path transform="translate(594,724)" d="m0 0h2l2 4v3h-5z" fill="#DFDEDE"/>
<path transform="translate(225,629)" d="m0 0 1 2h2v9h-4z" fill="#B8B7B7"/>
<path transform="translate(269,627)" d="m0 0 2 4v7l-2-3-2 2-2-2z" fill="#B8B7B7"/>
<path transform="translate(386,627)" d="m0 0h2v12h-2l-1-10z" fill="#282727"/>
<path transform="translate(259,627)" d="m0 0 3 1 3 6v2h2l-1 3-3-3-4-7z" fill="#282727"/>
<path transform="translate(497,552)" d="m0 0 4 1v2l-2 1v8l2 2-3 1-1-2z" fill="#C5C3C3"/>
<path transform="translate(575,549)" d="m0 0 4 2v14l3 1-2 2-2-2-1-14z" fill="#C5C3C3"/>
<path transform="translate(728,409)" d="m0 0 3 1-3 1v2h3l-1 2h-2v2h3v2l-5-1v-6z" fill="#282727"/>
<path transform="translate(775,294)" d="m0 0 1 3-5 5h-3l2-4z" fill="#E5E5E5"/>
<path transform="translate(403,163)" d="m0 0 4 2-1 5-5-2z" fill="#282727"/>
</svg>
