<?xml version="1.0" encoding="UTF-8"?>
<svg version="1.1" viewBox="0 0 1597 2048" width="659" height="845" xmlns="http://www.w3.org/2000/svg">
<path transform="translate(0)" d="m0 0h1597v2048h-1597z" fill="#FCFDFC"/>
<path transform="translate(260,970)" d="m0 0h10l5 4 3 7 2 14v64l-1 5-3 65-1 11-3 6h-2v2l5-1-1 5-7 5h-3l2-6v-2-3h-2l-1-30-5-1-2-9-2-8-4-1 3 35 3 15 3 2-2 5-6 2-18 13-14 11-13 10-11 9h-1l1-17 3-26 2-21 8-44 6-26 8-29 10-28h2l3-9 10-18 9-9z" fill="#FBFCFC"/>
<path transform="translate(97,1949)" d="m0 0h1420l6 3v3l-2 1h-1423l-5-3v-3z" fill="#7DB091"/>
<path transform="translate(259,965)" d="m0 0 9 1 6 3 4 7 2 5 2 13 1 19v39l-2 65h-1l-1-11v-111l-2-14-2-7-4-2-1-1h-10l-6 4-8 9-10 19-2 5h-2l-1 5-11 33-9 35-8 42-3 19-3 32-2 18v6l13-11 12-9 13-10 19-14h5l2-5-4-2-3-15-2-23v-12l5 1 2 8 1 9h5l1 1v30h2v3l2 1-4 7 8-4 2-2 1-4-5 1v-2h2l2-6 5-4 3-1 3-3 18-10 5-3h5l-1 4-5 5-5 4-1 5-21 14-1 1-2 49-2 34-3 15-7-1-1-1-1-8-3-68v-6l-7 5-5 3-7 20-17 68-5 12-4 5-5 2h-6l-8-7-5-10-2-8-1-9-1-27-9 5-10 3-9 6-7-1 1-4 9-7 14-9 8-5 4-3 4-42 7-43 2-5 5-25 5-22 4-15 8-27 7-23 12-25 9-10 3-2z" fill="#7CAE90"/>
<path transform="translate(1405,30)" d="m0 0h3l11 26 11 24 13 27 13 30 6 9 10 5v2l-4 1h-54l-4-1 1-3 11-2 2-1-1-8-8-19h-41l-5 10-3 10 1 5 6 3 10 3v2l-6 1h-35l-1-4 8-4 6-7 8-16 12-26 16-36 13-29z" fill="#7CAF90"/>
<path transform="translate(179,71)" d="m0 0 12 1 8 1h14l16-2 6 1h30l9-1v72l-3 9-7 8-4 3-7 1-1 3-12 4-9 4-3 2-4-1-4-2v-2l-7-1-13-4-8-4v-2l-4-2-3-1 1-3 5-1 22-22 7-8 48-48v-1l-6 1h-24l-13-1-18 2-14-1-11-2 1 76-3-4-1-9z" fill="#F9FAFA"/>
<path transform="translate(1274,30)" d="m0 0h19l16 4 8 3h8l3-7 5 1v27l-1 14-3 1-7-16-5-6v-2l-4-2-8-5-6-2h-17l-9 3-8 6-6 7-5 12-3 14v20l4 19 5 12 7 8 8 4 11 2 13-1 12-5 11-8 6-8 2 2v10l-10 9-12 7-11 3-8 1h-10l-13-2-13-4-11-6-10-9-7-10-5-12-2-7v-22l3-12 9-17 9-10 14-9 12-5z" fill="#7CAF90"/>
<path transform="translate(182,74)" d="m0 0 11 1 14 1 22-2 9 1h24l7-1-2 4-21 21-4 5-8 7-19 19-7 8-18 18-6-1-2-9z" fill="#FCFCFC"/>
<path transform="translate(236,1181)" d="m0 0h3l-1 5-7 28-12 44-5 12-4 6-3 2-6-5-5-12-2-10-1-10v-27l14-11 21-16z" fill="#FEFEFE"/>
<path transform="translate(250,1097)" d="m0 0 5 1 2 8 1 9h5l1 1v30h2v3l2 1-4 7 8-4 2-2 1-4-5 1v-2h2l2-6 5-4 3-1 3-3 18-10 5-3h5l-1 4-5 5-5 4-1 5-21 14-1 1-2 28-1 7-2-3v-26l1-2h2v-2l-6 3-5 4-1 5-7-1 1-5v-1l-7 4h-2v2l-10 5-2-1 4-3h2v-2h2l2-4 6-6h3l2-5-4-2-3-15-2-23z" fill="#262325"/>
<path transform="translate(275,1154)" d="m0 0h2v2h-2v28l1-4 1-16h1v17l-3 54-3 15-7-1-1-1-1-8-3-68v-6l-2-1 5-1 1 1 2-5 6-5z" fill="#7DB091"/>
<path transform="translate(1289,169)" d="m0 0h11l-1 3-1 11 6-4 7-6v-4h26l-1 2v26l2 1v2h-31l1-3-4-6-5-5v11l1 2h-10v-28z" fill="#E7F0EB"/>
<path transform="translate(179,71)" d="m0 0 12 1 8 1h14l16-2 6 1h30l9-1v72l-3 9-7 8-4 3h-3l1-3h3l2-4 6-8 1-3 1-28v-35l-1-3-41 41h-2v2h-2v2l-5 5-3 1-2 4-8 8-5 4-5 6-6 5 1 4-4-2-3-1 1-3 5-1 22-22 7-8 48-48v-1l-6 1h-24l-13-1-18 2-14-1-11-2 1 76-3-4-1-9z" fill="#7AAB8D"/>
<path transform="translate(259,965)" d="m0 0 9 1 6 3 4 7 2 5 2 13 1 19v39l-2 65h-1l-1-11v-111l-2-14-2-7-4-2-1-1h-10l-6 4-8 9-10 19-2 5h-2l-1 5-11 33-9 35-8 42-4 26h-1l1-18 1-13 3-14 5-23 3-13 4-15 8-27 7-23 12-25 9-10 3-2z" fill="#7CAF90"/>
<path transform="translate(226,127)" d="m0 0h35v24l-1 1h-35z" fill="#7DB091"/>
<path transform="translate(689,676)" d="m0 0h12l-1 8-4 21-4 7-5 4-10 2-7-3v-7l4-5 2-1v-13l6-9z" fill="#262325"/>
<path transform="translate(1394,72)" d="m0 0 2 1 7 17 8 18v4h-34l7-17z" fill="#FEFEFE"/>
<path transform="translate(190,38)" d="m0 0h1v5l8-4 4 1-1 3h-2v2l-3 2v3h-11l-2 3 6 1v1l-10 1-5 1v1l5 1-2 2-5 1 1 8h-2l-2-3h-5l-8 10-1 2 8-3 3 1-6 5h-3v2l-4 1-1 2h-2v3l6-3h3l-1 4-8 6-4 1-2-6 1-10 2 4h3l2-18 2 3 1 3 7-10 1-3-6-3v-2l9-1 2-4h3l1 4 3-2 2-6h2l1-3 1 5 4-2 3-8z" fill="#262325"/>
<path transform="translate(140,96)" d="m0 0 5 5 5 1 4-2h3l-2 5-4 4-3 2v6l4-1 1-2h2l-1 10 9 3-3 2-6 2v8l2 7 2 1 1-7 1-2h2v12l-1 2h-2l-1 2-10-4-5-7 4-1 4 1-2-6-5-5h-8l4-5-1-5-3-3v-2l10 3-1-10-4-5h2l-3-5z" fill="#2B2C2C"/>
<path transform="translate(168,148)" d="m0 0h2l2 5v4h2v7l-2 2 10 9v-3l-2-7v-5l5 5 3 7 2 7 9 4-5-8-1-5 2-2 6 7 2 4v6l18 2 1 2-13-1h-10l-2 1h-7l-7-3 4-2h7v-2l-7-2-14-1-6-3v-2l2-1h7l-4-4-13-4-5-5h7l-2-6h2l4 6 2 1z" fill="#262325"/>
<path transform="translate(854,676)" d="m0 0h12l-2 13-1 10 7-5-1 4-5 3-5 1-2-1-1-7-7 7-5 1-3-1-1-2v-9l4-7 7-6z" fill="#262325"/>
<path transform="translate(747,676)" d="m0 0h12l-2 14-2 9 6-2v-2h2l-1 3-7 4-5-2 1-7-5 5-4 3-5 1-4-3v-7l3-7 5-6z" fill="#262325"/>
<path transform="translate(296,112)" d="m0 0 4 2 2 2h9l7-2-5 8 1 5 4 4-12-1-2 5-3 9 5-2 3 1-3 5-6 4-6 3-4 3 2-4-1-10v-6h2l2 5v4l3-3v-14l-10-2 3-3 6-2z" fill="#292829"/>
<path transform="translate(624,676)" d="m0 0h9l3 6-1 9-7 8-4 2h-8l-4-4v-8l4-8 5-4z" fill="#262325"/>
<path transform="translate(926,676)" d="m0 0h10l3 5v7l-4 8-5 4-3 1h-8l-3-3-1-7 3-8z" fill="#262325"/>
<path transform="translate(237,128)" d="m0 0h15l1 4 1 8-1 4h-4v-12l-2-1h-8l-1 12-1 2 1 2 2-15h2l1 14-1 2h4l-2-4v-12h3l1 13 3 3v2l-24 1v-14l1-8z" fill="#FDFDFD"/>
<path transform="translate(1289,169)" d="m0 0h11l-1 3-1 11 6-4 7-6v-4h8l-5 5-7 5 1 5 8 9 5 6h-13l-2-6-6-7h-1v11l1 2h-10v-28z" fill="#262325"/>
<path transform="translate(250,1097)" d="m0 0 5 1 2 8 1 9h5l1 1v8l-2 9v13l-2 4-5-3-3-15-2-23z" fill="#7AAB8D"/>
<path transform="translate(204,80)" d="m0 0 4 1v8l9 1 2 1 5 17-3 3-7-1-1-4 3-12-1-1-7-1-1 3v21l6 1-2 2h-12l-1-2 5-1v-23l-9-1 3 14v4l-2 1h-7v-9l4-11 1-1 10-1v-7z" fill="#7BAC8E"/>
<path transform="translate(1230,169)" d="m0 0h15l6 3 1 2v6l-3 4-11 2 1 13h-9z" fill="#262325"/>
<path transform="translate(308,1119)" d="m0 0h5l-1 4-5 5-5 4-1 5-15 10-7 2-1-2 2-7 4-5-1-2z" fill="#73A084"/>
<path transform="translate(1062,790)" d="m0 0 13 1 5 5v10l-6 6h-12v-3z" fill="#EFF5F1"/>
<path transform="translate(1434,169)" d="m0 0h9l5 5 9 11 1 2v-16l-2-2h8l-2 2-1 27h-3l-8-9-9-11v-2h-2v22h4v2l-8-1 1-2v-25z" fill="#272527"/>
<path transform="translate(1413,168)" d="m0 0 2 2 12 27 1 2h-10l-2-7-12-1v7l2 2h-9v-2l3-3 11-23z" fill="#262325"/>
<path transform="translate(285,1324)" d="m0 0h12l5 4 1 2v8l-4 6-3 1h-12z" fill="#E4EEE8"/>
<path transform="translate(273,971)" d="m0 0h2l3 5 2 5 2 13 1 19v39l-2 65h-1l-1-11v-111l-2-14z" fill="#262325"/>
<path transform="translate(153,412)" d="m0 0 12 1 5 6v7l-3 5-2 2-13 1-1-2 1-19z" fill="#F3F7F5"/>
<path transform="translate(1268,168)" d="m0 0 2 3 9 20 3 6v2h-10l-1-8-12 1-2 6 3 1h-7l9-19z" fill="#262325"/>
<path transform="translate(199,1120)" d="m0 0h1v11l-1 18-1 16-3 27v6l1 2-7 3v-9l3-31z" fill="#7CAF90"/>
<path transform="translate(644,676)" d="m0 0h7l1 3-1 5 5-5 4-3h7v10l-3 13 8-4-2 4-4 2h-6l-1-1 1-10 1-11-5 4-5 7-3 10-5 2-1-3 3-14v-7l-2-1z" fill="#262325"/>
<path transform="translate(282,151)" d="m0 0 3 2v7l5-2v3l9-1-5 5-13 4-4 5 8-1 1 3-7 3-13 1-3 2-4-1 5-3 3-12 5-6 1 3-2 9 4-1 4-3 1-12z" fill="#262325"/>
<path transform="translate(952,675)" d="m0 0 3 1 1 7 7-7h7l1 6-3 17 4-1-3 3h-6v-9l3-13-6 2-2 4-4 6-3 10h-6l4-20-1-3-2-1z" fill="#262325"/>
<path transform="translate(335,790)" d="m0 0h3l1 22h-10l-3-5-6 5-5-1-2-3v-7l3-3h6l5 5 1-4 7-2z" fill="#262325"/>
<path transform="translate(232 1e3)" d="m0 0 2 2-12 34-10 38-8 40-5 32h-1l1-18 1-13 3-14 5-23 3-13 4-15 8-27 5-15z" fill="#262325"/>
<path transform="translate(793,676)" d="m0 0h7v10l-1 5v7l8-9 5-13h5l-3 18v7l-4 1-2-1v-8l-1 1-5 6-2 1h-7l-1-4 3-19-3-1z" fill="#262325"/>
<path transform="translate(1350,168)" d="m0 0 9 1 5 1v8l-4-5-8-3h-2l-1 7 5 2 10 6 1 2v7l-4 5-3 1-14-1-1-9h2l4 6 5 2 4-1 1-6-13-8-2-2v-7l2-4z" fill="#262325"/>
<path transform="translate(616,534)" d="m0 0h13l2 2v6l-3 1 4 4v5h-2v2l-15 1z" fill="#262325"/>
<path transform="translate(987,1993)" d="m0 0h6l4 2 1 2v14l-5 3-7-1-4-3-1-9 2-5z" fill="#DAE8E0"/>
<path transform="translate(1370,169)" d="m0 0h27l1 7h-2l-2-4-7-1 1 28h-10l1-2 1-26-7 1-3 4z" fill="#262325"/>
<path transform="translate(268,77)" d="m0 0h2l-2 4-39 39h-2v2h-2v2l-5 5-3 1-2 4-8 8-5 4-5 6-6 5 1 4-4-2-3-1 1-3 5-1 22-22 7-8 20-20 8-7z" fill="#78A98B"/>
<path transform="translate(1344,248)" d="m0 0h7l5 4 1 6-3 7-3 2-7-1-4-4-1-8z" fill="#262325"/>
<path transform="translate(1360,282)" d="m0 0h9l4 4v7l-3 5-5 3h-9l2-16z" fill="#262325"/>
<path transform="translate(271,1156)" d="m0 0h2v20l-2 32-1 6-2-4-2-35v-15z" fill="#FCFCFC"/>
<path transform="translate(1314,248)" d="m0 0h11l3 3 1 9-3 5-5 2-7-1-1-4v-9z" fill="#262325"/>
<path transform="translate(595,665)" d="m0 0h13l3 1-1 6-2 1-3-6h-9l-6 5-4 10v12l4 5 7 1 9-2-1 2-11 3-10-2-4-5-1-2v-10l4-10 9-8z" fill="#262325"/>
<path transform="translate(752,534)" d="m0 0h13l3 5-3 5 3 2v6l-2 2-7 1 1-2h3l-1-7-5-1 1 10h-7z" fill="#262325"/>
<path transform="translate(220,249)" d="m0 0h6l2 6 3 14v4h-4l-2-6h-5l-1 6h-4l1-10 3-12z" fill="#343334"/>
<path transform="translate(187,288)" d="m0 0h13l2 4-1 8-9 3v8l-5 1z" fill="#262325"/>
<path transform="translate(325,827)" d="m0 0h5l4 6-1 11-3 4h-6l-3-4-1-9 3-7z" fill="#E0ECE5"/>
<path transform="translate(869,589)" d="m0 0 5 1 3 5v10l-4 6-6-1-3-6v-7l3-7z" fill="#EDF3EF"/>
<path transform="translate(692,692)" d="m0 0 1 4-3 14-5 5-4 1-5-2-2-3 1-5 6-5 8-5z" fill="#ECF3EF"/>
<path transform="translate(842,659)" d="m0 0 8 1-4 3-6-1-4 5-3 12-3 16v4l7-5 1 2h-2v2l-8 4-4-1 1-13 4-17 4-6 6-5z" fill="#262325"/>
<path transform="translate(560,473)" d="m0 0h5l4 5v11l-4 6-5-1-3-4-1-8 2-7z" fill="#E2EDE6"/>
<path transform="translate(199,249)" d="m0 0h4v24h-10l-1-1-1-12 2-5 7-1z" fill="#262325"/>
<path transform="translate(776,667)" d="m0 0 4 1-2 8h8l-1 2-7 1-4 20 5-2 3-2-1 4-8 3-4-2v-8l3-14h-4v-2h5l1-8z" fill="#262325"/>
<path transform="translate(506,412)" d="m0 0 5 1 2 3 1 8-3 9-6 1-3-3-1-3v-10l3-5z" fill="#E9F1EC"/>
<path transform="translate(1327,169)" d="m0 0h10l-1 2v28h-9z" fill="#262325"/>
<path transform="translate(883,667)" d="m0 0h3v8l7 2v1h-8l-4 21 5-2 3-2v3l-5 3-6 1-2-2v-9l3-13h-4v-2l4-1 2-7z" fill="#262325"/>
<path transform="translate(278,1064)" d="m0 0h1l1 26v16l1 11v17l1 2-7 3 1-28z" fill="#7AAB8D"/>
<path transform="translate(156,293)" d="m0 0h7l3 4v11l-3 4h-7l-2-2-1-10z" fill="#262325"/>
<path transform="translate(253,480)" d="m0 0h6l5 5 2-5 7 1 1 5-3-3-4-1v8l5 1 2-1-2 4h-6l-4-4-4 4h-5l-3-3-1-4 2-5z" fill="#CCD8D1"/>
<path transform="translate(306,215)" d="m0 0 5 1 2 2v14l-4 3-6-1-2-3v-13z" fill="#262325"/>
<path transform="translate(623,678)" d="m0 0h5l2 2v11l-3 6-3 2-5-1-2-3 1-9z" fill="#F0F5F2"/>
<path transform="translate(266,254)" d="m0 0 7 1 2 3v12l-2 3h-8l-2-3v-13z" fill="#262325"/>
<path transform="translate(151,1287)" d="m0 0 4 1 8 14 7-15 4 1v20h-5v-13l-6 13-3-1-5-12v14h-5l1-8z" fill="#262325"/>
<path transform="translate(796,534)" d="m0 0h4l1 21h-12l-2-3v-9l2-2h7z" fill="#262325"/>
<path transform="translate(926,678)" d="m0 0h5l2 2v12l-4 6-6 1-2-2v-10l4-8z" fill="#F2F7F4"/>
<path transform="translate(497,534)" d="m0 0h4v21h-11l-2-3v-8l3-3h6z" fill="#262325"/>
<path transform="translate(710,676)" d="m0 0h7l1 8 6-7 2-1h6l-1 4-8 2-7 10-2 9h-6l2-13 2-10-3-1z" fill="#262325"/>
<path transform="translate(635,473)" d="m0 0h10l4 3v5l-3 3 1 4 5 6-5-1-6-8-2-1 1 10h-5z" fill="#262325"/>
<path transform="translate(152,473)" d="m0 0h10l3 3v5l-3 3 2 5 5 5-6-1-5-7v-2h-3l1 10h-5z" fill="#262325"/>
<path transform="translate(380,420)" d="m0 0h9l-1 8-5 1h-3l1 2 8 1 2 2v4l-7 3-6-1-1-5 1-12z" fill="#44544A"/>
<path transform="translate(82,248)" d="m0 0h6l4 4v4h-4v-4h-5v15l1 2h3l1-5h4v6l-2 3-6 1-5-3-1-2v-17z" fill="#262325"/>
<path transform="translate(140,249)" d="m0 0 3 1 2 7v16h-5l-1-6v-10l-5 3-2 13h-3v-18h10z" fill="#262325"/>
<path transform="translate(271,293)" d="m0 0h6l3 2v17h-11l-2-6 4-5 5-2v-3l-6 3h-2l1-5z" fill="#3B3A3B"/>
<path transform="translate(194,168)" d="m0 0 5 4 4 7v6l18 2 1 2-13-1h-10l-2 1h-7l-7-3 4-2h7l1-3 4 2-5-8-1-5z" fill="#262325"/>
<path transform="translate(208,293)" d="m0 0h6l2 1 1 3v15h-11l-2-5 3-5 5-3 1-3-6 3h-2l1-5z" fill="#3B3A3B"/>
<path transform="translate(116,254)" d="m0 0 7 1 1 2v16h-11l-1-1v-7l7-5 1-3-8 4 1-5z" fill="#3D3C3D"/>
<path transform="translate(323,254)" d="m0 0 8 1 1 1v17h-11l-1-1v-7l8-6-2-1-3 2h-3l2-5z" fill="#3A393A"/>
<path transform="translate(511,1327)" d="m0 0h2v4h9l1 14h-12l-1-1-1-13z" fill="#D6E5DC"/>
<path transform="translate(852,678)" d="m0 0h8l-1 7-6 9-4 4-4-1 1-10 3-6z" fill="#EFF4F1"/>
<path transform="translate(1198,282)" d="m0 0h13v3l-10 1-1 3h10l-1 4-10 1-1 3h11l-1 4h-13l-1-3 3-15z" fill="#262325"/>
<path transform="translate(180,254)" d="m0 0 6 1 2 4-1 5-7 2v3l5-2 3-1-1 5-2 2h-7l-3-3v-11z" fill="#373737"/>
<path transform="translate(664,1920)" d="m0 0 6 2 2 1v8l-6 5-6-1-3-6 1-5 3-3z" fill="#DDEAE2"/>
<path transform="translate(689,677)" d="m0 0 6 2-2 9-6 8-3 2h-3v-10l4-8z" fill="#EEF4F1"/>
<path transform="translate(1396,286)" d="m0 0 6 1 1 1v9l-3 4h-6l-3 5h-2l1-10 2-9z" fill="#262325"/>
<path transform="translate(145,210)" d="m0 0h3v6h8l1 18h-5l-1-15-2-1-1 16h-4v-23z" fill="#262325"/>
<path transform="translate(166,215)" d="m0 0 6 2 1 8-2 1h-7l1 4h3l1-2h4l-2 6-6 1-3-1-2-5v-8l3-5z" fill="#353434"/>
<path transform="translate(745,678)" d="m0 0h8l-1 8-7 9-3 3h-3v-10l4-8z" fill="#F1F6F3"/>
<path transform="translate(222,287)" d="m0 0 3 1 1 10 5-5 2 2-2 3v7l2 7-5-1-2-6-1 7h-4v-24z" fill="#262325"/>
<path transform="translate(96,249)" d="m0 0h4v6l6-1 2 2v17h-3l-1-2-1-13-2-1-1 16h-4z" fill="#262325"/>
<path transform="translate(1278,248)" d="m0 0h15l-1 3h-10v4h9l-1 4h-7l-1 4h10v3l-4 1h-9l-1-1z" fill="#262325"/>
<path transform="translate(282,215)" d="m0 0 6 2 1 8-9 2 1 3 4-1 4-2-1 6-4 2-5-1-3-7 1-9z" fill="#363536"/>
<path transform="translate(900,1920)" d="m0 0 7 1 2 3v8l-4 4h-5l-4-4v-8z" fill="#262325"/>
<path transform="translate(153,254)" d="m0 0 5 1 2 2v7l-8 1 1 4 4-2 3-1v5l-2 2h-7l-3-4v-11l2-3z" fill="#373637"/>
<path transform="translate(784,790)" d="m0 0 4 1 1 20-1 1h-7l-5-4v-6l4-4 6-1z" fill="#262325"/>
<path transform="translate(459,412)" d="m0 0 5 1 3 5-1 9-4 5-6 2 4-4h2l-1-3-6-3-1-1v-7z" fill="#262325"/>
<path transform="translate(248,798)" d="m0 0h11l2 3-1 9-8 2v7l-4-1z" fill="#262325"/>
<path transform="translate(1418,248)" d="m0 0h14v3l-10 1v2l9 1v3l-10 1v4h11l-1 4h-12l-1-1z" fill="#262325"/>
<path transform="translate(197,827)" d="m0 0h3v21h-9l-3-4 1-7 3-3 5-1z" fill="#262325"/>
<path transform="translate(238,925)" d="m0 0 1 3 8 1 1 2v9l1 2-13 1-1-15h3z" fill="#D8E7DE"/>
<path transform="translate(438,1294)" d="m0 0h5l-2 5-5 6-2 4h-16l-1-5 8-6-4-1-3 2 2-4h6l2 6v6l4-1 7-10-7 1v-2z" fill="#45564C"/>
<path transform="translate(296,1287)" d="m0 0 3 1v20h-10l-3-5 2-6 2-2 5-1z" fill="#262325"/>
<path transform="translate(987,676)" d="m0 0h8l1 1v5h-2l-4-4-3 1v5l6 7v6l-4 3-3 1h-9l-1-4 11 1 1-4-7-9 1-5z" fill="#262325"/>
<path transform="translate(1339,790)" d="m0 0h3l1 21h-11l-2-3 1-7 3-3h6z" fill="#262325"/>
<path transform="translate(876,790)" d="m0 0h3l1 21-8 1-3-1-1-2v-8l3-3h6z" fill="#262325"/>
<path transform="translate(387,534)" d="m0 0h4l1 6 7 1 1 14h-5v-13h-3v13h-5z" fill="#262325"/>
<path transform="translate(1324,286)" d="m0 0 6 2 1 7-3 5-7 1-4-4 1-7 3-3z" fill="#262325"/>
<path transform="translate(356,1295)" d="m0 0h10l1 1 1 10 1 3h-14z" fill="#D2E3D9"/>
<path transform="translate(1062,790)" d="m0 0 13 1 5 5v10l-5 5h-6l4-2 3-3v-9l-3-4-7-1 1 19-5 1v-3z" fill="#262325"/>
<path transform="translate(591,589)" d="m0 0h3l1 21h-10l-3-4 1-6 3-3h6z" fill="#262325"/>
<path transform="translate(259,168)" d="m0 0 1 3-4 8-2 2 5 1v2l11 1-2 2-6 2h-8l-5-3 1-8 6-8z" fill="#262325"/>
<path transform="translate(341,534)" d="m0 0h6l5 12 3-2-1 5-3 5-2-1-5-11 1 13h-5z" fill="#272527"/>
<path transform="translate(239,130)" d="m0 0h9l2 2-1 12h4l-1-13 3-1 1 6v10l-6 2-3-3v-13h-3l1 12 1 4h-4v-16h-2l-1 15-2 1v-3l-2-1 2-1 1-12z" fill="#7DB091"/>
<path transform="translate(905,676)" d="m0 0h4l-4 21-1 2 6-3h3l-5 4-2 1h-6l-1-1 1-10 2-10h-5l1-2z" fill="#262325"/>
<path transform="translate(1410,286)" d="m0 0 6 1 2 3-2 10-1 1h-8l-2-2 1-9z" fill="#262325"/>
<path transform="translate(279,255)" d="m0 0h4v15h4v-15h4v18h-11l-1-1z" fill="#262325"/>
<path transform="translate(1300,248)" d="m0 0h5l6 18-3 1-2-4-8-1v4l-4-1z" fill="#3A3A3A"/>
<path transform="translate(261,38)" d="m0 0h2l3 5 2 5 3 1v-5l4 1 1 7 1 3-10 1-4-1v-2l7-1-3-2h-12l4-3-8-5 4-1 7 5z" fill="#262325"/>
<path transform="translate(233,30)" d="m0 0 5 1 4 5 1 4v7l-4 8-8 3h-8l-1-2 9-2 4-4 2-5v-7l-3-6z" fill="#262325"/>
<path transform="translate(230,1295)" d="m0 0 5 1 2 1v-2h6l1 1 1 10 1 3h-15l2-3v-8z" fill="#D8E7DE"/>
<path transform="translate(295,255)" d="m0 0h12v18l-4-1-1-14h-3v15h-4z" fill="#262325"/>
<path transform="translate(194,216)" d="m0 0h11l1 2v16h-4l-1-15-2 1-1 14h-4z" fill="#262325"/>
<path transform="translate(730,541)" d="m0 0h7l3 5-1 7-3 2h-6l-3-4v-7z" fill="#262325"/>
<path transform="translate(177,928)" d="m0 0h5l4 5-1 7-3 2h-6l-3-3-1-5z" fill="#EEF4F0"/>
<path transform="translate(237,128)" d="m0 0h15l1 4 1 8-1 4h-4v-12l-2-1h-8l-1 12-4 2v-16z" fill="#FEFEFE"/>
<path transform="translate(450,1331)" d="m0 0h6l3 2v-2h6l1 1 1 13h-12v-11l-5-2z" fill="#EDF4F0"/>
<path transform="translate(659,534)" d="m0 0h5v21h-11l-3-4 1-8 2-2h5l-3 1v9l4 2z" fill="#262325"/>
<path transform="translate(495,798)" d="m0 0h7l3 4-1 7-5 3-5-1-2-3v-7z" fill="#E6F0EA"/>
<path transform="translate(529,1331)" d="m0 0h6l4 4-1 7-4 3-6-1-2-3v-7z" fill="#E9F1ED"/>
<path transform="translate(392,798)" d="m0 0h10l2 4v9l-1 1h-10l-1-2z" fill="#D6E6DD"/>
<path transform="translate(531,589)" d="m0 0h4v10h10l-1-10 4 1v20h-4v-9l-9-1 1 10h-5z" fill="#262325"/>
<path transform="translate(289,293)" d="m0 0h6l1 1v18h-3l-1-14h-3l-1 14-4-1v-17z" fill="#262325"/>
<path transform="translate(337,255)" d="m0 0h11l1 3v14l-4 1v-15h-3l-2 15h-3z" fill="#262325"/>
<path transform="translate(1260,247)" d="m0 0 3 1v7l7-1 1-6h3v18h-4v-8h-7v8l-3 1-1-2z" fill="#262325"/>
<path transform="translate(627,596)" d="m0 0 5 2 1 2v7l-3 3h-7l-3-5 1-6 2-2z" fill="#E7F0EA"/>
<path transform="translate(975,534)" d="m0 0h4v7h7l3 4-1 7-3 3-3-1 1-1 1-8-1-2-4-1 1 13h-5z" fill="#262325"/>
<path transform="translate(365,254)" d="m0 0 7 1 1 5h-4v-2h-3l2 4 4 2 1 7-2 2h-8l-2-3 1-4 4 3 3 1-1-4-5-2-2-3 1-5z" fill="#262325"/>
<path transform="translate(366,1331)" d="m0 0h6l3 3v7l-2 3-6 1-4-3-1-6z" fill="#E6F0EA"/>
<path transform="translate(606,798)" d="m0 0h7l2 2v9l-2 2-5 1-5-3-1-6z" fill="#E4EEE8"/>
<path transform="translate(420,798)" d="m0 0h8l2 3v7l-2 3h-8l-2-2-1-6z" fill="#EEF4F0"/>
<path transform="translate(684,597)" d="m0 0h7l3 3v6l-4 4h-7l-2-4v-6z" fill="#E8F0EB"/>
<path transform="translate(937,533)" d="m0 0h19l1 2h-8v20h-5v-20h-5l-1 3z" fill="#262325"/>
<path transform="translate(196,1199)" d="m0 0 3 1-2 6-3 4-2 5-5 1-2-2-5-1v-2l8-6 3-4z" fill="#262325"/>
<path transform="translate(514,534)" d="m0 0h6l1 19h7v-10l1-9 2 1-1 19-2 1h-9l-3-1-1-2z" fill="#313533"/>
<path transform="translate(153,412)" d="m0 0 12 1 5 6v7l-3 5-2 2-13 1-1-2 1-19zm2 2v18h8l3-3 1-9-3-5-1-1z" fill="#262325"/>
<path transform="translate(499,597)" d="m0 0h7l3 3-1 7-3 3h-7l-2-3v-6z" fill="#E8F1EB"/>
<path transform="translate(173,539)" d="m0 0h7l2 2v8l-3 3h-7l-3-6 1-5z" fill="#F0F5F2"/>
<path transform="translate(252,216)" d="m0 0h3l1 15h3v-12l1-3 4 1-1 17-9 1-2-2z" fill="#262325"/>
<path transform="translate(210,90)" d="m0 0h7l2 1 5 17-3 3-7-1-1-4 3-12-6-2z" fill="#7BAE8F"/>
<path transform="translate(362,798)" d="m0 0h6l3 2v9l-3 2h-7l-3-6 2-5z" fill="#EEF4F1"/>
<path transform="translate(211,216)" d="m0 0h9v6l-6-3v3l7 5v5l-4 3-6-1-2-2v-4l5 2 3 1v-3l-5-2-3-3 1-6z" fill="#262325"/>
<path transform="translate(189,1331)" d="m0 0h5l3 3v7l-4 4-6-1-2-3v-7z" fill="#D0DED6"/>
<path transform="translate(160,138)" d="m0 0h2v12l-1 2h-2l-1 2-10-4-5-7 4-1 5 3 1-3 5 5 1-7z" fill="#262325"/>
<path transform="translate(360,827)" d="m0 0h2l2 13 1 3h-2l-1 5h-2v-5h-9l2-6z" fill="#262325"/>
<path transform="translate(237,254)" d="m0 0 7 1 1 5-1 2-3-1-2-3-1 4v8l6-5 1 5-2 3-5 1-4-3-1-11 3-5z" fill="#262325"/>
<path transform="translate(316,798)" d="m0 0h6l4 5v2h-2l-1 5-3 2-5-1-2-3v-7z" fill="#C2CAC5"/>
<path transform="translate(247,293)" d="m0 0 7 1 1 6-5-3-2 1 8 7-1 5-2 2h-7l-2-2v-5l8 4v-3l-4-2-4-4v-5z" fill="#262325"/>
<path transform="translate(285,1324)" d="m0 0h12l5 4 1 2v8l-4 6-3 1h-12zm4 1-1 1v17l1 1 8-1 3-4v-9l-5-5z" fill="#262325"/>
<path transform="translate(126,210)" d="m0 0h15l1 3h-6v21h-4l-1-20-5-1z" fill="#262325"/>
<path transform="translate(291,138)" d="m0 0h2l2 5v4l4-3 10-2-2 5-5 4-8 4-4 3 2-4-1-10z" fill="#262325"/>
<path transform="translate(777,540)" d="m0 0 5 1 1 1 1 13h-5l-1-6-2 1 1 5h-5l1-8-1-5z" fill="#83998C"/>
<path transform="translate(1038,541)" d="m0 0h13v14h-4l-1-12-3-1v13h-5z" fill="#262325"/>
<path transform="translate(890,541)" d="m0 0h12l1 3v11l-5-1v-11l-3-1v13h-5z" fill="#262325"/>
<path transform="translate(420,541)" d="m0 0h13v14h-4l-1-12-3-1v13h-5z" fill="#262325"/>
<path transform="translate(565,541)" d="m0 0h12l1 1v13h-5l-1-12-3-1v13h-4z" fill="#262325"/>
<path transform="translate(251,254)" d="m0 0 7 1 1 6-3 1-2-4h-1l-1 12h3l1-4h3v5l-2 2h-7l-2-3v-12z" fill="#262325"/>
<path transform="translate(256,127)" d="m0 0h5v24l-1 1h-30l1-2h20l1-2 6 2-1-18z" fill="#7DB091"/>
<path transform="translate(1038,1920)" d="m0 0 4 1 3 2h3l2-3h2v16h-2l-1-9-7-3-4-1v10l3-1v-2l-2-1v-3l5 2-1 7-6 1-2-2v-11z" fill="#262325"/>
<path transform="translate(1074 2e3)" d="m0 0h6l1 1v10l-1 4h-9l-1-2h4l-3-4v-6z" fill="#262325"/>
<path transform="translate(1021,541)" d="m0 0h4v12h4v-12h5v14h-12l-1-4z" fill="#262325"/>
<path transform="translate(995,541)" d="m0 0h8l1 6v8l-5-1 1-6-3 2 1 5h-6l1-6 1-4h-2l1-3z" fill="#3E3E3E"/>
<path transform="translate(447,541)" d="m0 0h12l1 1v13l-5-1v-12h-3v13h-5z" fill="#262325"/>
<path transform="translate(805,1968)" d="m0 0h5l2 3v11l-6 2-3-3v-10z" fill="#262325"/>
<path transform="translate(793,1968)" d="m0 0h5l2 4v9l-1 2-5 1-3-3v-11z" fill="#262325"/>
<path transform="translate(388,1287)" d="m0 0 4 1-7 3-2 3v8l3 4 8 1-1-10h5v7l-2 4-2 1h-8l-6-4-1-2v-9l4-5z" fill="#262325"/>
<path transform="translate(409,541)" d="m0 0h6l1 3v11h-5l1-8h-2l-1 6 1 2h-6v-5l3-3h-2l-1-4z" fill="#819087"/>
<path transform="translate(1467,286)" d="m0 0 5 1 2 5-2 4h-7v2l7-1-2 4-7-1-2-3v-6z" fill="#3F3F3F"/>
<path transform="translate(1435,284)" d="m0 0h2l1 4-3 7 1 4 1 2h-5l-1-1 1-10-6 2-3 9h-3l3-14 8-1z" fill="#262325"/>
<path transform="translate(1306,1968)" d="m0 0 5 1 1 3 1 7-2 4-6 1-2-2v-10z" fill="#262325"/>
<path transform="translate(1292,286)" d="m0 0 5 1 2 2-1 11-1 1h-9l-1-1v-6l1-1h8l-1-4-6 3-1-3z" fill="#3B3B3B"/>
<path transform="translate(934,1968)" d="m0 0h8l3 3-1 6-2 1h-6v6l-3-1v-12z" fill="#262325"/>
<path transform="translate(1381,286)" d="m0 0 6 2v6l-1 1h-8l1 2h6v3l-6 1-4-2v-8l3-4z" fill="#424342"/>
<path transform="translate(735 2e3)" d="m0 0h6l3 3v6l-2 3h-5v4h-3v-15z" fill="#262325"/>
<path transform="translate(526,1993)" d="m0 0h2l1 4h5l2 2v7l-2 3h-7l-1-1z" fill="#262325"/>
<path transform="translate(752,1920)" d="m0 0h2l1 5v9l-2 2h-6l-3-5 1-5 2-2h5z" fill="#262325"/>
<path transform="translate(638,541)" d="m0 0h8l1 11v3h-5l-1-7-1 5v2h-5l1-5 2-4h-2v-4z" fill="#747A77"/>
<path transform="translate(551,541)" d="m0 0h8l1 1 1 13h-12v-5l6-4v-3h-2l-1 3-3-1z" fill="#383838"/>
<path transform="translate(358,534)" d="m0 0h7l-1 21h-6v-14l-2 1 1-7z" fill="#2B2B2B"/>
<path transform="translate(1032 2e3)" d="m0 0h6l3 2v8l-2 2h-6v4h-2v-15z" fill="#262325"/>
<path transform="translate(477,1920)" d="m0 0 3 1v3l6 1 1 2v6l-2 3h-7l-1-1z" fill="#262325"/>
<path transform="translate(457,1295)" d="m0 0h7l1 1 1 12 4-1-1-12 4 1v13h-18l-1-5 4-2-2 4h6l1-6-2-1h2l-1-2h-4l-1 2h-2v-3z" fill="#495C50"/>
<path transform="translate(477,541)" d="m0 0h5l1 1 1 13h-5l1-7-4 4 2 3h-6v-5l3-3h-3l1-5z" fill="#262325"/>
<path transform="translate(1091 2e3)" d="m0 0h6l3 4-1 6-1 2-6-1v5h-2l-1-6v-8z" fill="#262325"/>
<path transform="translate(616 2e3)" d="m0 0h7l2 3v7l-2 2h-6l1 4-3-1v-13z" fill="#262325"/>
<path transform="translate(546,1920)" d="m0 0 2 1v14l-1 1h-7l-2-3v-7l7-3z" fill="#262325"/>
<path transform="translate(928,1920)" d="m0 0h2l1 10-1 6h-7l-3-4 1-7 7-1z" fill="#262325"/>
<path transform="translate(719 2e3)" d="m0 0h6l2 1-1 13-1 1h-8v-2h6l-5-2-1-1v-7z" fill="#262325"/>
<path transform="translate(873,540)" d="m0 0 4 1 1 12h2l1-12h4v14h-11l-1-2z" fill="#262325"/>
<path transform="translate(1403,248)" d="m0 0h7l3 2-1 4-3-2h-5l-2 2v6l3 3 9-2-2 4-4 2-6-1-4-5v-7l3-5z" fill="#262325"/>
<path transform="translate(264,1125)" d="m0 0h1l1 19 6-4h2l-2 6h-2v2l5-1-1 5-7 5h-3l2-6v-2-3h-2z" fill="#7AAB8D"/>
<path transform="translate(1360,248)" d="m0 0h12v3h-8v4h7v3h-7v8h-4z" fill="#262325"/>
<path transform="translate(364,1968)" d="m0 0h2v16h-8l-2-4 1-6 6-3z" fill="#262325"/>
<path transform="translate(434,1920)" d="m0 0h10v3h-8v3h8v3h-8v4h8v3h-11v-12z" fill="#262325"/>
<path transform="translate(964,541)" d="m0 0h6l1 6v8h-5l1-8-4 4-1 2h2v2h-5v-5h2l1-4v-1l-3 1 1-4z" fill="#262325"/>
<path transform="translate(1181,1968)" d="m0 0 5 1 2 6-1 7-3 2-5-1-3-3h-4v-3l5 1 4 3 4 1v-4l-6-1-1-6z" fill="#4C4D4D"/>
<path transform="translate(590,1920)" d="m0 0h2v15l-1 1h-6l-2-1-1-8 1-2 7-1z" fill="#262325"/>
<path transform="translate(772,1993)" d="m0 0h10l1 3-8 1-1 2h8v3h-7v3l8 1v3h-11z" fill="#262325"/>
<path transform="translate(140,96)" d="m0 0 5 5 5 1 4-2h3l-2 5-4 4-3 2-1 6h-1l-1-7-4-5h2l-3-5z" fill="#262325"/>
<path transform="translate(146,82)" d="m0 0 2 4 4-1-1 5 6-3h3l-1 4-8 6-4 1-2-6z" fill="#262325"/>
<path transform="translate(677 2e3)" d="m0 0h7l2 1v8l-2 3-5 1-1 3h-1l-1-13z" fill="#262325"/>
<path transform="translate(311,97)" d="m0 0 1 3v5l-4 5-1 6-3-6-5-3-2-5 1-2 4 2 4 1v-2z" fill="#262325"/>
<path transform="translate(783,1968)" d="m0 0 4 1 1 6v7l-2 2h-5l-1-1v-12z" fill="#262325"/>
<path transform="translate(152,1324)" d="m0 0h14l-1 2-10-1 1 8h8v2h-9v8h10l1-2v3l-2 1h-13z" fill="#303331"/>
<path transform="translate(655,473)" d="m0 0 5 1 10 13 2 1v-14l-2-1 4 1-1 20-5-5-8-9-2-1 1 13 1 2-4-1v-18z" fill="#262325"/>
<path transform="translate(319,210)" d="m0 0 5 1-1 5 1 3h-2v15h-4l-1-14-1-4z" fill="#262325"/>
<path transform="translate(1346,251)" d="m0 0 6 1 2 6-3 5-4 1-4-3v-8z" fill="#EBF2EE"/>
<path transform="translate(1395,798)" d="m0 0h6l2 1 1 13h-11l-1-4 5-5 4-1-1-2h-4l-1 2h-2z" fill="#3E4B43"/>
<path transform="translate(830,1968)" d="m0 0h7l2 2v7l-1 1h-7v6h-2l-1-10z" fill="#494A4A"/>
<path transform="translate(311,250)" d="m0 0h5l1 8v15h-5l-1-13-1-5z" fill="#262325"/>
<path transform="translate(512,1968)" d="m0 0 4 1 4 12v3h-2l-2-3h-6l-1 3h-2l2-10z" fill="#3C3C3C"/>
<path transform="translate(1189,798)" d="m0 0h6l1 2 1 11-1 1h-10v-6l5-4h2v-3l-7 3 1-3z" fill="#8B9E93"/>
<path transform="translate(555,597)" d="m0 0h7l2 12 1 2h-12l-1-5 7-5 1-3-5 2-2 1v-3z" fill="#8E9F94"/>
<path transform="translate(862,534)" d="m0 0h6v21h-6v-17l-2 2 1-5z" fill="#262325"/>
<path transform="translate(1377,248)" d="m0 0h11v3l-7 1v2l6 1 1 3-7 1-1 8h-3z" fill="#262325"/>
<path transform="translate(306,82)" d="m0 0 2 2-1 10-4 4-9-7-2-4 5 1 5 2-1-3h3z" fill="#262325"/>
<path transform="translate(408,473)" d="m0 0h14v3l-2-1h-7l-1 8 9-1-1 3-8-1v9l9-1h3l-2 2h-14z" fill="#262325"/>
<path transform="translate(171,288)" d="m0 0h5l-2 5 2 1-1 4-1 14-4-1-1-17z" fill="#262325"/>
<path transform="translate(380,1968)" d="m0 0h3l4 12v4h-2l-1-3h-6l-1 3h-2l1-8z" fill="#3B3B3B"/>
<path transform="translate(803,1924)" d="m0 0h6l3 4-1 6-3 2-5-1-2-4 1-6z" fill="#262325"/>
<path transform="translate(151,826)" d="m0 0 3 1v7h6l2 2 1 12h-4v-11l-5-2 1 13h-5z" fill="#262325"/>
<path transform="translate(1232,286)" d="m0 0 5 2 1 1v7l-1 4-2 1h-8l-1-1 1-7h6v2h-4v3l4-1 1-8-4 2-3-1 2-3z" fill="#262325"/>
<path transform="translate(268,211)" d="m0 0h4l1 9v10l1 4-2 1-4-2-1-17z" fill="#262325"/>
<path transform="translate(225,211)" d="m0 0h4l1 7v16h-5l-2-17z" fill="#262325"/>
<path transform="translate(1259,1968)" d="m0 0 5 1 2 3v7l-1 4-7 1-1-5 5 2 1-3-5-1-1-1 1-7z" fill="#434544"/>
<path transform="translate(1303,798)" d="m0 0h6l1 1 1 12-1 1h-9l-1-4 2-4 5-2v-2h-3l-1 2h-2v-3z" fill="#C0D9CA"/>
<path transform="translate(243,211)" d="m0 0h4l1 7v13l1 3h-6l-1-19z" fill="#262325"/>
<path transform="translate(153,68)" d="m0 0 2 3 1 3 5-4-2 4-3 5 8-3 3 1-6 5h-3v2l-4 1-2 2-1-5 1-5z" fill="#313533"/>
<path transform="translate(624,1968)" d="m0 0 5 1 2 2v13h-3l-1-9-2-1v8l-1 2-3-1v-12z" fill="#353535"/>
<path transform="translate(282,52)" d="m0 0 3 4v2h7l-2 3-3 1 1 5-6-1-2 4-1-3-1-5-2-2 5-5z" fill="#272527"/>
<path transform="translate(1082,1968)" d="m0 0 4 1 1 1v12l-2 2h-5l-2-4 5 1 2-4-5 1-2-2 1-6z" fill="#262325"/>
<path transform="translate(975,1968)" d="m0 0 5 1 1 1v12l-4 2-4-1-1-3 7 1v-3l-6-1-1-5z" fill="#484949"/>
<path transform="translate(434,1331)" d="m0 0h6l1 1 1 13h-10l-1-5 1-2 6-2v-4l-6 3z" fill="#D5E5DB"/>
<path transform="translate(325,827)" d="m0 0h5l4 6-1 11-3 4h-6l-3-4-1-9 3-7zm0 1-2 5v9l3 5 4-1 1-3v-11l-2-4z" fill="#262325"/>
<path transform="translate(1158,798)" d="m0 0h6l2 5v9h-9l-1-1v-5l6-4 1-3h-4l-1 3h-2z" fill="#838F88"/>
<path transform="translate(260,288)" d="m0 0 4 2v15l1 7h-5l-2-18z" fill="#262325"/>
<path transform="translate(1362,285)" d="m0 0h6l2 2-1 7-4 4-5-1 1-10z" fill="#DEEAE3"/>
<path transform="translate(353,250)" d="m0 0h4l1 7v12l1 4h-6l-1-18z" fill="#262325"/>
<path transform="translate(1100,1924)" d="m0 0 6 1 1 1v8l-2 2-6-1-2-3v-6z" fill="#262325"/>
<path transform="translate(768,1920)" d="m0 0 4 1 4 13v2l-3-1-1-3h-6l-1 4h-2l3-13z" fill="#3C3C3C"/>
<path transform="translate(498,1331)" d="m0 0h5l1 1 1 13h-10l-1-5 5-5h3l-1-2-6 2 1-3z" fill="#5B5E5C"/>
<path transform="translate(250,928)" d="m0 0h8v7l1 5 4 1v-12h3v12l3 1v1l-13-1-1-4v-8l-6 1z" fill="#3E4B44"/>
<path transform="translate(947 2e3)" d="m0 0 5 1 2 2v6l-3 3h-5l-2-2v-7z" fill="#262325"/>
<path transform="translate(637,1972)" d="m0 0 6 1 1 2v6l-3 3h-5l-2-3v-6z" fill="#262325"/>
<path transform="translate(1139,1968)" d="m0 0 4 1 1 4-2-1v-2h-3l1 4 4 1 1 6-2 3h-5l-2-2v-11z" fill="#454445"/>
<path transform="translate(1034,1968)" d="m0 0 5 1 1 3-5-1-2 3 5 1 2 2-1 5-2 2-5-1-1-1v-11z" fill="#464646"/>
<path transform="translate(205,798)" d="m0 0h6l1 2 1 12-4-1h-7v-4l7-6-3-1-4 2 1-3z" fill="#262325"/>
<path transform="translate(844,534)" d="m0 0h6l4 8 1 5h2l-2 6-2 1-5-11-2-7h-2z" fill="#262325"/>
<path transform="translate(1448,286)" d="m0 0 3 1v2l4-3 5 1 1 4-2 9-4 1 2-9 1-4-5 3-2 9-4 1 2-13-2-1z" fill="#262325"/>
<path transform="translate(191,96)" d="m0 0 1 3 3-1 2 8v4l-2 1h-7v-9z" fill="#7DB091"/>
<path transform="translate(793 2e3)" d="m0 0h13l1 1v11h-2v-10h-4v10l-3-1v-9h-3v9l-3 1v-11z" fill="#262325"/>
<path transform="translate(1137,1920)" d="m0 0 5 1 1 2v10l-4 3-4-1-1-3 7 1v-3l-6-1-1-1v-5z" fill="#494B4A"/>
<path transform="translate(151,921)" d="m0 0 5 1 3 7 3 1 5-9h2v2h-2l-3 9-3 1 1 7 1 2-5 1-1-2 1-3-3-9-4-6z" fill="#2E312F"/>
<path transform="translate(341,473)" d="m0 0h13v1h-10v9l9-1v2h-9l1 8h8l2-2-1 4h-14z" fill="#262325"/>
<path transform="translate(697 2e3)" d="m0 0h5l2 2v8l-2 2h-6l-1-1v-9z" fill="#262325"/>
<path transform="translate(1092,1968)" d="m0 0 5 1 2 5-1 8-2 2h-5l-1-5 5 2 1-4h-5l-1-1 1-7z" fill="#484A49"/>
<path transform="translate(354,473)" d="m0 0 1 3-1 10-4-2h3l-1-1h-8v-9z" fill="#D2E3D9"/>
<path transform="translate(506,412)" d="m0 0 5 1 2 3 1 8-3 9-6 1-3-3-1-3v-10l3-5zm-1 2-2 5v7l2 6 4 1 2-4v-11l-1-4z" fill="#2B2B2B"/>
<path transform="translate(1247,1968)" d="m0 0 5 1 2 5-1 8-3 2-5-1 1-4 4 2v-3l-5-1v-7z" fill="#494A49"/>
<path transform="translate(1273,287)" d="m0 0h10l1 5-3 9h-3l3-13h-4l-3 12-4 1z" fill="#262325"/>
<path transform="translate(185,210)" d="m0 0h4v24h-4z" fill="#262325"/>
<path transform="translate(1052 2e3)" d="m0 0h5l2 2v8l-2 2h-5l-2-2v-7z" fill="#262325"/>
<path transform="translate(626,534)" d="m0 0 4 1 1 1v6l-3 1 4 4v5h-2v2h-5l1-7v-2h-4v-2h4z" fill="#262325"/>
<path transform="translate(359,473)" d="m0 0h7l1 5 1 3 3-1 1 5 5 7 4 1 1-3v4h-10l-3-7-4 1 1-6-5-7z" fill="#282728"/>
<path transform="translate(416,1972)" d="m0 0 5 1 2 3-1 6-2 2-5-1-2-2v-6z" fill="#262325"/>
<path transform="translate(176,420)" d="m0 0h5l2 4 1 9h-11v-5l7-6-5 1-2 1 1-3z" fill="#838E88"/>
<path transform="translate(883 2e3)" d="m0 0h12l2 2v10h-2v-10h-4v10h-3v-10l-3 1-1 9h-2v-11z" fill="#262325"/>
<path transform="translate(849 2e3)" d="m0 0 6 1 1 7-2 4h-5l-2-2v-9z" fill="#4D5350"/>
<path transform="translate(1026,1920)" d="m0 0 5 1 1 1v12l-3 2-5-1 1-3 5 1v-4l-5 1-2-6z" fill="#4A4C4B"/>
<path transform="translate(344,1295)" d="m0 0h7l1 13h-10v-5l5-4h2v-3l-4 1-1 2h-2z" fill="#333935"/>
<path transform="translate(290,798)" d="m0 0h6l2 13h-4l-5 1-2-1 1-5 6-5-3-1-4 2 1-3z" fill="#868C88"/>
<path transform="translate(667,589)" d="m0 0h7l4 2-1 4-3-3h-7l-3 4v8l4 4 6 1v1h-9l-5-5v-9l4-5z" fill="#2C2D2D"/>
<path transform="translate(987,1993)" d="m0 0h6l4 2 1 2v10h-1l-2-10-1-1h-7l-3 1v9l2 4 2 1h6l3-1 1-2-1 4-4 2-7-1-4-3-1-9 2-5z" fill="#262325"/>
<path transform="translate(673,1968)" d="m0 0h2l1 6h2l2-5 4-1-2 4-1 4 4 6v2l-4-2-5-5-1 7h-2l-1-15z" fill="#262325"/>
<path transform="translate(843,1972)" d="m0 0h5l2 2v10l-7 1v-2h-2l1-5v-4z" fill="#C6DCCE"/>
<path transform="translate(573,1972)" d="m0 0 6 1 1 5-2 6h-5l-3-5 2-6z" fill="#262325"/>
<path transform="translate(398,1324)" d="m0 0h14l-1 2-9-1v9l8-1v2h-8l1 10h-5z" fill="#262325"/>
<path transform="translate(1211,1971)" d="m0 0 5 1 1 1 1 11h-7l-2-1 1-10z" fill="#C7DDD0"/>
<path transform="translate(643,1924)" d="m0 0 6 1 1 7-1 3-6 1-2-2v-7z" fill="#4F5250"/>
<path transform="translate(513,1920)" d="m0 0h3v4h6l1 1v11l-3-1v-9h-4v9l-3 1z" fill="#262325"/>
<path transform="translate(157,589)" d="m0 0 6 2-1 3-1-2h-7v3l10 8v5l-2 2h-11v-5l1 3h10l-1-5-5-2-5-4v-5l2-2z" fill="#262325"/>
<path transform="translate(434,473)" d="m0 0h6v1l-7 2-3 6 1 7 2 2h8l3-1-1 3-2 1h-9l-5-5-1-7 3-6z" fill="#333935"/>
<path transform="translate(1318,251)" d="m0 0h5l2 2v8l-2 2h-6v-11z" fill="#F0F6F2"/>
<path transform="translate(204,80)" d="m0 0 4 1v8h2v3h-16v7h-2l-1-6 2-3 10-1v-7z" fill="#5A7866"/>
<path transform="translate(460,1972)" d="m0 0 7 1v10l-4 2-4-1-1-5 4-5-4-1z" fill="#829188"/>
<path transform="translate(347,1972)" d="m0 0 5 1 1 6-2 5h-5l-2-2v-7z" fill="#4D504E"/>
<path transform="translate(597,1924)" d="m0 0 5 1 1 1v7l-2 3-5-1-2-3v-5z" fill="#4C4F4D"/>
<path transform="translate(709,790)" d="m0 0 4 1v19l6-2v-6l-5-4h6l2 3v7l-3 3h-8l-1-1z" fill="#262325"/>
<path transform="translate(151,531)" d="m0 0h16v2l-7-1 1 20h-5l1-20-7 2-1-2z" fill="#262325"/>
<path transform="translate(988 2e3)" d="m0 0h5l1 11-6 1-3-3 1-8z" fill="#404241"/>
<path transform="translate(339,827)" d="m0 0h6l3 4-2 7-5 6 8 1-2 3h-11l2-4 6-8v-5l-5-1-2-1z" fill="#3A443E"/>
<path transform="translate(229,798)" d="m0 0h7l1 5-8 1 1 4h8l-3 3h-6l-2-1-2-6 1-4z" fill="#809287"/>
<path transform="translate(1170,798)" d="m0 0h11l1 1 1 13-4-1 1-11h-5v11l-4 1z" fill="#333935"/>
<path transform="translate(183,589)" d="m0 0h3l1 11v7l5 1 1-1v-8l-5-1 1-2 5 1 2 3v7l-3 3h-8l-1-2z" fill="#262325"/>
<path transform="translate(541,412)" d="m0 0 2 2v12h2l-2 7h-3v-5h-9l3-6 1 2-1 2h6v-9l-3 2 2-4z" fill="#2A2929"/>
<path transform="translate(566 2e3)" d="m0 0h5l2 3-1 8-1 1h-5l-2-7z" fill="#535754"/>
<path transform="translate(715,1924)" d="m0 0h5l1 1v9l-2 2-5-1-1-1v-8z" fill="#4D504E"/>
<path transform="translate(822,541)" d="m0 0h11l-1 3h-5v11h-5z" fill="#262325"/>
<path transform="translate(596,541)" d="m0 0h5l1 1 1 13h-5l-1-7-2 4 1 3h-5v-5l5-4h2v-3z" fill="#262325"/>
<path transform="translate(223,32)" d="m0 0h2v6l4 1v2l-5 1-1 5-3-3-4 1-2-3 3-1v-5l4-1z" fill="#6B947B"/>
<path transform="translate(536,1972)" d="m0 0 4 1 2 2-1 8-5 1-3-3v-6z" fill="#262325"/>
<path transform="translate(990,1924)" d="m0 0 5 1 1 1v8l-2 2-5-1-2-4 2-6z" fill="#525654"/>
<path transform="translate(735,1924)" d="m0 0 6 1 1 2v6l-3 3-4-1-2-3 1-6z" fill="#262325"/>
<path transform="translate(529,1924)" d="m0 0 5 1 1 1v8l-2 2-5-1-2-6z" fill="#4E5350"/>
<path transform="translate(708,473)" d="m0 0h4v21h-5z" fill="#688E77"/>
<path transform="translate(520,412)" d="m0 0h5l3 2v7l-7 11 8-1v2l-3 1h-8v-3l6-7 1-8h-6l-3 2 2-4z" fill="#353B37"/>
<path transform="translate(518 2e3)" d="m0 0 5 1 1 4-2 6-5 1-2-3v-6z" fill="#525453"/>
<path transform="translate(883,589)" d="m0 0h5l3 3-1 7-6 8 8 1-1 2-10 1-2-2 8-9 1-6v-2l-9 2v-2z" fill="#3C4841"/>
<path transform="translate(298,68)" d="m0 0 2 1-1 6 2 1-1 6-5 1-6-3-2-4 5 1 4 1-5-9h2l5 5z" fill="#262325"/>
<path transform="translate(1162,1968)" d="m0 0 5 1 2 4-6-2v10h2l-1-5v-3l4 3 1 5-3 3-5-1-2-3v-8z" fill="#262325"/>
<path transform="translate(392,474)" d="m0 0 2 1 1 5 8 5 1 1-1 7-1 1h-11v-7h1l1 5h6l2-1v-3l-9-6-1-1z" fill="#262325"/>
<path transform="translate(510,473)" d="m0 0h7l1 6 2 3 3-1 2-2-1 4-2 5 1 6h-6l1-2v-6l-6-10v-2z" fill="#282627"/>
<path transform="translate(730,1968)" d="m0 0h3v4l7 1 1 9-1 2h-2l-1-9-4-1v10l-3-1z" fill="#262325"/>
<path transform="translate(1078,1920)" d="m0 0 4 2h3l1-2h2l-2 5 1 5 3 6-4-1-3-4-4 5h-2l2-5 1-7z" fill="#262325"/>
<path transform="translate(712,792)" d="m0 0h1l1 6 6 4v6l-2 2h-5l-1-2z" fill="#D5E5DB"/>
<path transform="translate(164,255)" d="m0 0h10l-2 4-3 2v12h-4z" fill="#262325"/>
<path transform="translate(327,1972)" d="m0 0 5 1 1 7-3 4-5-1-1-6z" fill="#535755"/>
<path transform="translate(170,1287)" d="m0 0 4 1v20h-5v-13l-2 4-2-1z" fill="#262325"/>
<path transform="translate(413,474)" d="m0 0h7l2 2v5l-3 2h-7v-8z" fill="#DAE8E0"/>
<path transform="translate(1198,1968)" d="m0 0h8v3h-5l-1 3h6v3h-6v7h-3v-13z" fill="#262325"/>
<path transform="translate(599,1968)" d="m0 0 5 1 2 4-8-1-1 1v6l1 1h5l2-1-1 4-1 1h-6l-3-4-1-7 4-4z" fill="#262325"/>
<path transform="translate(664,1920)" d="m0 0 6 2 1 2h-9l-1 6v2h6l4-1-5 5-6-1-3-6 1-5 3-3z" fill="#262325"/>
<path transform="translate(1268,798)" d="m0 0h11l1 2 1 11-4 1v-12l-5-1v13h-3z" fill="#262325"/>
<path transform="translate(596,473)" d="m0 0h2l1 13 2 1v2l-2 1-1 4h-2v-5h-9l2-4 2 2h5l-1-9-4 4 2-5z" fill="#282627"/>
<path transform="translate(493,473)" d="m0 0 4 1v18h7l3-1-1 3h-14z" fill="#262325"/>
<path transform="translate(1238,171)" d="m0 0 6 1 1 2v7l-4 3h-3l-1-12z" fill="#E9F1EC"/>
<path transform="translate(1149,1920)" d="m0 0 5 1 1 3-6-2 1 11h2l-1-4-1-2 2-2 4 4-2 6-5 1-2-2-1-10z" fill="#262325"/>
<path transform="translate(489,412)" d="m0 0h5l3 4-1 6-6 9h8l-1 2-10 1-2-2 3-1 2-4 4-6-1-5-4-1-3 1 1-3z" fill="#2E302F"/>
<path transform="translate(947,1968)" d="m0 0 3 1v3l4-1 3 3v9l-3 1-1-9-3-1-1 10h-2z" fill="#262325"/>
<path transform="translate(274,1968)" d="m0 0 6 1 1 4-7-1-1 1v6l1 1h5l2-1-1 4-1 1h-6l-3-4-1-5 3-6z" fill="#262325"/>
<path transform="translate(903,798)" d="m0 0h3l1 10 5 2v-12h3l1 13-10 1-2-3z" fill="#262325"/>
<path transform="translate(707,541)" d="m0 0h8l-1 3-1-2h-4l6 6-1 7h-8l1-3 5 2-1-3-5-4z" fill="#262325"/>
<path transform="translate(1214,286)" d="m0 0 3 1 2 4 4-4 3 1-4 5h-2l3 8-4-1v-3l-7 4 2-5 1-5z" fill="#262325"/>
<path transform="translate(1504,282)" d="m0 0h2l2 5v7l-5 10-5 1 2-4 3-5 1-9z" fill="#262325"/>
<path transform="translate(812 2e3)" d="m0 0h6l1 1 1 9-1 2h-7l-1-7h6v-3h-6z" fill="#444344"/>
<path transform="translate(193,835)" d="m0 0h4l1 2v9h-6l-2-3 1-7z" fill="#DCE9E1"/>
<path transform="translate(1335,799)" d="m0 0h5v11h-5l-3-4 1-6z" fill="#E2EDE7"/>
<path transform="translate(509,797)" d="m0 0 2 1 1 10 5 2-1-12h4v13l-8 1-3-3-1-11z" fill="#262325"/>
<path transform="translate(516,589)" d="m0 0h7l-1 3h-5l-1 4h5v2h-4v12l-4-1 1-11-2-1h2v-5z" fill="#404D45"/>
<path transform="translate(469,473)" d="m0 0h5v19h7l4-2-1 3-2 1h-9l-3-6z" fill="#262325"/>
<path transform="translate(874,1972)" d="m0 0 6 1v2h-5l5 4-1 5h-6l-2-7 1-4z" fill="#4E4E4E"/>
<path transform="translate(987,1968)" d="m0 0 4 1 2 2v9l-3 4-5-1-1-3 5 1 1-6v-5l-3 1 1 4 1 3-4-1-1-1v-5z" fill="#262325"/>
<path transform="translate(187,598)" d="m0 0 6 1 1 2v6l-2 2-5-1-1-1v-7z" fill="#DBE9E0"/>
<path transform="translate(808,541)" d="m0 0h7l1 1v13h-5l1-8-2-1h2v-4h-3l-1 4h-3l1-4z" fill="#262325"/>
<path transform="translate(575,473)" d="m0 0h6l3 3-1 7-6 9h8l-1 2h-11l2-4 6-8v-5l-1-1h-5l-2 1z" fill="#2E3130"/>
<path transform="translate(588,1993)" d="m0 0 3 1v3l7 1 1 3v8h-3l-1-9-4-1v10h-2z" fill="#262325"/>
<path transform="translate(214,1331)" d="m0 0h3v9l1 2h4v-11h3l1 13-5 1h-5l-2-3z" fill="#262325"/>
<path transform="translate(337,1287)" d="m0 0h7v3l-7-1 1 7h-2l1 12h-4v-13l1-7z" fill="#262325"/>
<path transform="translate(250,1097)" d="m0 0 5 1 1 2v8l-2 1-1 6h-1v-6h-2z" fill="#546E5E"/>
<path transform="translate(1315,798)" d="m0 0h10l1 2 1 11h-4v-10l-5-2 1 12h-4z" fill="#262325"/>
<path transform="translate(1230,798)" d="m0 0h10l2 4v10h-4v-12l-5-1 1 12-4 1z" fill="#262325"/>
<path transform="translate(1008,541)" d="m0 0h8v2l-6-1 6 6v6l-2 1h-6l-1-3 6 2-2-4-3-2-1-4z" fill="#262325"/>
<path transform="translate(459,413)" d="m0 0 4 2 1 2v7l-4 1-4-4v-5z" fill="#E3EEE7"/>
<path transform="translate(1192,282)" d="m0 0h2l-2 4-3 7v13l-3-1-1-3v-10l4-8z" fill="#262325"/>
<path transform="translate(747,1994)" d="m0 0 4 1-1 4 6-2v2h-2l2 10h-2l-3-6-1 6h-2l-1-2z" fill="#262325"/>
<path transform="translate(1045,1968)" d="m0 0 5 1 2 4-4 6-2 4 5-2v4h-8v-5l5-6 1-4-6 3 1-4z" fill="#303432"/>
<path transform="translate(673,1920)" d="m0 0h2v4h6l2 3v8h-3l-1-8h-3l-1 9h-2z" fill="#262325"/>
<path transform="translate(556,1924)" d="m0 0h3l1 10 3-1 1-8 3-1v9l-1 3h-7l-3-4z" fill="#262325"/>
<path transform="translate(1200,809)" d="m0 0 12 1v2h2l-2 5-5 2-7-1-1-4h2v2l10-1 1-2h-9l-3-1z" fill="#3A433E"/>
<path transform="translate(781,799)" d="m0 0 5 1v10l-6-1-2-3 1-5z" fill="#DFEBE4"/>
<path transform="translate(1377,798)" d="m0 0h10l1 1 1 13-4-1v-11l-5-1 1 12-4 1z" fill="#262325"/>
<path transform="translate(1109,798)" d="m0 0h6l2 14h-11v-6l4-3 2 1-4 5 5-1v-9l-6 3v-3z" fill="#262325"/>
<path transform="translate(697,596)" d="m0 0h3l1 11 4 1 1-2v-7-3l3 1 1 13h-11l-1-2z" fill="#262325"/>
<path transform="translate(904,589)" d="m0 0h2l1 13v4l-1 4h-2v-5h-10l2-4 1 2h7l-1-9-2 1 2-4z" fill="#262325"/>
<path transform="translate(673,541)" d="m0 0h6l1 6v8h-4l-1-7v-3l1-3-5 4h-2v-4z" fill="#262325"/>
<path transform="translate(348,413)" d="m0 0h2l7 17 2 3-5 1-3-8-2-8h-2z" fill="#262325"/>
<path transform="translate(963,1924)" d="m0 0h8l2 2v10h-3v-10l-4 1-1 9h-3v-10z" fill="#262325"/>
<path transform="translate(628,1920)" d="m0 0 2 1v3h6l1 1 1 10h-3l-1-8-4-1v10h-2l-1-10z" fill="#262325"/>
<path transform="translate(291,1296)" d="m0 0h5l1 10-5 1-3-3v-6z" fill="#EAF2ED"/>
<path transform="translate(330,799)" d="m0 0h5l1 1v10h-5l-2-2v-8z" fill="#DAE8DF"/>
<path transform="translate(1038,798)" d="m0 0h10l1 1v13l-3-1v-10l-5-2v8 1 4h-3z" fill="#262325"/>
<path transform="translate(586,598)" d="m0 0h6v11l-6-1-2-6z" fill="#E8F1EB"/>
<path transform="translate(236,294)" d="m0 0h4v18h-4z" fill="#262325"/>
<path transform="translate(1104,1968)" d="m0 0 5 1 1 1v5l-6 8 6-2-1 3h-8l1-4 5-7v-2l-6 2 1-4z" fill="#262325"/>
<path transform="translate(872,799)" d="m0 0h5v11h-5l-2-3v-7z" fill="#EAF1ED"/>
<path transform="translate(627,797)" d="m0 0 3 1 1 13-9 1-3-2-1-12h3l1 12 5-1z" fill="#262325"/>
<path transform="translate(420,798)" d="m0 0h8l2 3v7l-2 3h-8l-2-2-1-6zm1 1-1 1v6l3 4 4-1 1-1v-6l-2-3z" fill="#262325"/>
<path transform="translate(348,590)" d="m0 0h2l7 17 1 4-5-1-4-13v-2h-2z" fill="#262325"/>
<path transform="translate(234,216)" d="m0 0 4 1v17h-4z" fill="#262325"/>
<path transform="translate(272,138)" d="m0 0h1v10l-6 9-7 6h-3l1-3h3l2-4 6-8z" fill="#6D967D"/>
<path transform="translate(849,1924)" d="m0 0 6 1v10l-1 1h-6l-1-7h4l1-3h-5z" fill="#262325"/>
<path transform="translate(569,1924)" d="m0 0h8l2 2v9h-3v-9h-4v9l-3 1z" fill="#262325"/>
<path transform="translate(900,1923)" d="m0 0h5l2 2-1 7-5 1-3-4z" fill="#E7F0EB"/>
<path transform="translate(178,1294)" d="m0 0 3 1 1 11 5 1-1-12h3l1 13h-10l-1-1z" fill="#262325"/>
<path transform="translate(495,798)" d="m0 0h7l3 4-1 7-5 3-5-1-2-3v-7zm1 1-2 2v6l2 3h5l2-5-2-5z" fill="#262325"/>
<path transform="translate(264,790)" d="m0 0h4l1 21-4 1-1-2z" fill="#262325"/>
<path transform="translate(685,541)" d="m0 0h5v14h-5z" fill="#262325"/>
<path transform="translate(460,473)" d="m0 0h5l-1 17-1 3-7 1v-3l4 1z" fill="#262325"/>
<path transform="translate(529,1331)" d="m0 0h6l4 4-1 7-4 3-6-1-2-3v-7zm1 1-2 2v6l4 4 4-2v-8l-2-2z" fill="#262325"/>
<path transform="translate(312,1287)" d="m0 0 4 2v20l-5-1z" fill="#262325"/>
<path transform="translate(796,798)" d="m0 0h6l2 2v3l-5 1 1-5-3 1-1 7 1 1h7l-4 4-5-1-2-2v-9z" fill="#262325"/>
<path transform="translate(252,799)" d="m0 0 6 2 1 6-2 3h-5l-1-9z" fill="#E3EEE7"/>
<path transform="translate(370,541)" d="m0 0h5l1 14h-5l-1-3z" fill="#262325"/>
<path transform="translate(618,474)" d="m0 0 3 1-3 1-1 4v7l2 4 6 1 3 1-2 1h-7l-5-4-1-2v-8z" fill="#262325"/>
<path transform="translate(643,473)" d="m0 0 5 2 1 1v5l-3 3 1 4 5 6-5-1-6-8v-2l4-2v-6h-2z" fill="#262325"/>
<path transform="translate(1102,1993)" d="m0 0 3 1v6l5-3 2 2-3 1 1 4 1 5-3-1-2-4-2-1v6h-2z" fill="#262325"/>
<path transform="translate(470,1972)" d="m0 0h9l1 4v8h-3l-1-9-4-1v10l-3-1z" fill="#262325"/>
<path transform="translate(771,1968)" d="m0 0h4v2h-4l5 5v7l-3 2h-5l-1-4h3v2l3-2v-4l-5-1 1-6z" fill="#262325"/>
<path transform="translate(940,1924)" d="m0 0h8l1 1v11h-2l-1-9-4-1v10l-3-1v-10z" fill="#262325"/>
<path transform="translate(275,1295)" d="m0 0h6l1 1 1 12h-10l-1-5 7-4v2l-4 3v2l4-1v-8l-4 1-3 1 1-3z" fill="#262325"/>
<path transform="translate(211,1295)" d="m0 0h7l1 1 1 12h-10l-1-5 5-4h2v2l-5 5h6l-1-9-4 1h-3z" fill="#262325"/>
<path transform="translate(727,798)" d="m0 0h7l2 2v3l-5 1 1-4h-4v7l1 1h5l2-1-2 4-6 1-3-3v-8z" fill="#2B2B2B"/>
<path transform="translate(606,798)" d="m0 0h7l2 2v9l-2 2-5 1-5-3-1-6zm0 1-1 2v6l2 3h5l1-2v-6l-2-3z" fill="#262325"/>
<path transform="translate(212,596)" d="m0 0 5 1 2 4-3 1-1-3h-3l-1 7 4 1 4-1-1 3-2 1h-6l-3-5 2-6z" fill="#37403B"/>
<path transform="translate(536,541)" d="m0 0h8l1 2h-6l5 4 1 6-4 2v-5l-5-2-1-5z" fill="#262325"/>
<path transform="translate(371,419)" d="m0 0 3 1v9l1 4h-11l-1-1-1-12h3l1 12h5z" fill="#262325"/>
<path transform="translate(1495,285)" d="m0 0h5l-3 12 1 4-5-1 1-14z" fill="#262325"/>
<path transform="translate(467,1924)" d="m0 0h5l2 3v9h-8l-1-7h5l-2 5h2v-7l-4-2z" fill="#262325"/>
<path transform="translate(329,1331)" d="m0 0 7 1 1 3-1 2h-5l3-3h-5l-1 4 2 3h6l-2 4h-5l-3-3-1-6z" fill="#303331"/>
<path transform="translate(188,928)" d="m0 0 3 1 1 9 1 2h3l1-2v-9h3v13l-8 1-2-1z" fill="#262325"/>
<path transform="translate(183,798)" d="m0 0h6l2 2v3l-6 1v-2h4l-1-2-5 1v6l7 2v-2h2l-1 3h-2v2h-5l-4-4v-6z" fill="#38403B"/>
<path transform="translate(559,798)" d="m0 0h5l2 6 1 7-1 1h-10v-6l4-3 2 1-3 3v2l4 1v-10z" fill="#262325"/>
<path transform="translate(1363,791)" d="m0 0 3 4 6 14 1 3h-5l-4-13-2-3z" fill="#262325"/>
<path transform="translate(1129,790)" d="m0 0 4 1 8 15 1 2-1 3h-2l-8-16z" fill="#262325"/>
<path transform="translate(642,790)" d="m0 0h3l1 21-4 1z" fill="#262325"/>
<path transform="translate(541,790)" d="m0 0h3l1 21-4 1z" fill="#262325"/>
<path transform="translate(684,597)" d="m0 0h7l3 3v6l-4 4h-7l-2-4v-6zm1 1-2 2 1 7 2 2 5-1 1-6-2-4z" fill="#262325"/>
<path transform="translate(346,595)" d="m0 0h3l3 9-5 1h-3l-1 5-4-1 3-5z" fill="#929B96"/>
<path transform="translate(654,540)" d="m0 0h5l1 3v10l-2 1-4-3v-7-3z" fill="#CADED2"/>
<path transform="translate(917,541)" d="m0 0h4l1 4v10h-5z" fill="#262325"/>
<path transform="translate(173,539)" d="m0 0h7l2 2v8l-3 3h-7l-3-6 1-5zm0 1-1 1v7l3 3 4-1 1-1v-7l-2-2z" fill="#262325"/>
<path transform="translate(159,473)" d="m0 0 4 1 2 2v5l-3 3 2 5 5 5-6-1-5-7v-3l3-2v-5l-2-1z" fill="#262325"/>
<path transform="translate(957 2e3)" d="m0 0h8l1 1 1 11h-3l-1-9-4-1v10h-3v-11z" fill="#262325"/>
<path transform="translate(908 2e3)" d="m0 0 8 1 1 10-3 1-1-9-4-1v10h-3v-11z" fill="#262325"/>
<path transform="translate(1116,1968)" d="m0 0h5v2h-4v3l4 1 1 1v7l-3 2-5-1-1-3h3v2l3-1-1-6-5 1z" fill="#262325"/>
<path transform="translate(902,1972)" d="m0 0h8l1 1v11h-2l-1-9-4-1v10h-3v-11z" fill="#262325"/>
<path transform="translate(425,1972)" d="m0 0 3 1 1 8h3l1-9h2v12h-8l-2-3z" fill="#262325"/>
<path transform="translate(951,797)" d="m0 0 5 1 1 5h-2l-1-3h-3v8h6l-2 4-6-1-2-3 1-8z" fill="#262325"/>
<path transform="translate(1220,797)" d="m0 0 5 1 2 5h-3l-1-3h-3l-1 7 1 1h5l2-1-2 4-5 1-4-3v-7z" fill="#2F3130"/>
<path transform="translate(162,790)" d="m0 0 3 1 4 13h2l-1 7-3-1-6-18z" fill="#262325"/>
<path transform="translate(627,596)" d="m0 0 5 2 1 2v7l-3 3h-7l-3-5 1-6 2-2zm-3 2-2 5 2 5 5 1 2-2v-6l-2-3z" fill="#262325"/>
<path transform="translate(189,474)" d="m0 0h1v6h4v2h-4l1 12h-5v-14z" fill="#2C2D2D"/>
<path transform="translate(1329,1968)" d="m0 0h5l1 2h-5v3l5 1 1 7-3 3-6-1v-3l6 2v-7h-6z" fill="#262325"/>
<path transform="translate(1284,1968)" d="m0 0h4v2l-3 2 4 3v6l-3 3-5-1v-3l5 1v-6l-5 1 1-7z" fill="#262325"/>
<path transform="translate(1271,1968)" d="m0 0 5 1 1 1-1 7-3 3-1 3 5-2v3h-8l1-5 4-6 1-3-4 2-3-1z" fill="#262325"/>
<path transform="translate(828,1924)" d="m0 0h8l1 4v8l-3-1v-9l-4 1-1 9h-2v-11z" fill="#262325"/>
<path transform="translate(1148,791)" d="m0 0h4v21h-4v-16l-2 1z" fill="#262325"/>
<path transform="translate(151,791)" d="m0 0h4l3 11v3h2l1-5 1 4-2 7-3-1z" fill="#262325"/>
<path transform="translate(1304,285)" d="m0 0 5 1 1 2-3 2-1 8 2 3h-5l-1-1 1-14z" fill="#262325"/>
<path transform="translate(648,1972)" d="m0 0h7l2 1v11h-2l-1-10h-4v10h-2l-1-4v-7z" fill="#262325"/>
<path transform="translate(998,1968)" d="m0 0h5l2 2-1 6-4 6 5-1-1 3h-7l-1-2 4-6 2-5-5 1z" fill="#262325"/>
<path transform="translate(265,1331)" d="m0 0 7 1 1 4h-2l-1-2h-5v6l1 1h7v2l-3 2h-5l-3-3v-8z" fill="#2E302F"/>
<path transform="translate(362,798)" d="m0 0h6l3 2v9l-3 2h-7l-3-6 2-5zm2 1-3 2v6l2 3h5l1-1v-8l-2-2z" fill="#2D2F2E"/>
<path transform="translate(740,596)" d="m0 0 5 1 1 5h-2l-1-3h-4v8h5l2-1-2 4h-6l-3-3v-7z" fill="#343B37"/>
<path transform="translate(801,596)" d="m0 0 3 1 1 11 5 1-1-12h3l1 13h-11z" fill="#262325"/>
<path transform="translate(255,128)" d="m0 0 2 1 1 3v18h-5l-2-3 5-1-2-17z" fill="#FEFEFE"/>
<path transform="translate(708,1972)" d="m0 0h6l2 4v8h-8l-1-5 1-2h2v6h3l-1-8-5-1z" fill="#262325"/>
<path transform="translate(300,1972)" d="m0 0 5 1 2 6v5h-3l-1-10-2 1v9l-3-1v-7z" fill="#2E302F"/>
<path transform="translate(1318,1968)" d="m0 0 5 1 1 1v5l-5 8 5-1v2h-8l1-5 4-6 1-3-6 2z" fill="#262325"/>
<path transform="translate(1010,1968)" d="m0 0 5 1-4 1 5 6v6l-3 2-5-1v-3h2v2l3-1v-5h-5l1-7z" fill="#262325"/>
<path transform="translate(416,1331)" d="m0 0 5 1 7 11 1 2-5-1-1-4h-3l-1 4-3 1 2-4 1-6z" fill="#2E302F"/>
<path transform="translate(403,1287)" d="m0 0h3v21h-3z" fill="#262325"/>
<path transform="translate(1052,541)" d="m0 0h7l1 14h-5l-1-12z" fill="#262325"/>
<path transform="translate(435,541)" d="m0 0h6l1 14h-5l-1-12z" fill="#262325"/>
<path transform="translate(378,541)" d="m0 0h5v14h-6z" fill="#262325"/>
<path transform="translate(688,1972)" d="m0 0 7 1 1 3v7l-1 1h-6l-2-3 1-4h3l-1 6h3l-1-8-5-1z" fill="#262325"/>
<path transform="translate(814,1924)" d="m0 0h2l1 10 3-1 1-8h3v7l-1 4h-7l-2-3z" fill="#262325"/>
<path transform="translate(858,1924)" d="m0 0h9l1 2v10h-2l-1-10h-4l-1 10-3-1z" fill="#262325"/>
<path transform="translate(558,1972)" d="m0 0h2l2 10 2 1 1-11h2l1 12h-9l-1-1z" fill="#262325"/>
<path transform="translate(1036,1923)" d="m0 0 2 3v7l3-1v-2l-2-1v-3l5 2-1 7-6 1-2-2v-10z" fill="#262325"/>
<path transform="translate(391,596)" d="m0 0 5 1 1 4-2 1v-3h-5l-1 6 1 2h5l2-1-2 4h-6l-3-3v-7z" fill="#343A36"/>
<path transform="translate(824,596)" d="m0 0 5 1 2 9h2l2-9 3 1-5 12-2 2-4-10z" fill="#373E3A"/>
<path transform="translate(793,589)" d="m0 0 4 1-1 1-1 17-3 1v-19z" fill="#262325"/>
<path transform="translate(409,541)" d="m0 0h6l1 3v11h-5l1-8-2-1 1-3z" fill="#262325"/>
<path transform="translate(266,480)" d="m0 0 7 1 1 5-3-3-4-1v8l5 1 2-1-2 4h-6l-2-3 1-9z" fill="#343A36"/>
<path transform="translate(756,473)" d="m0 0h3v19l1 2h-5z" fill="#262325"/>
<path transform="translate(200,419)" d="m0 0 5 1 1 5-3-3h-3l-2 6 2 2h6l-1 3h-7l-3-5 2-6z" fill="#343A36"/>
<path transform="translate(559,1331)" d="m0 0h7l-1 3-5-1 7 7v4h-10v-2h8l-7-5v-5z" fill="#343A37"/>
<path transform="translate(189,1331)" d="m0 0h5l2 2-1 4-3-4-4 1v6l7 2v2l-6 1-4-4v-7z" fill="#262325"/>
<path transform="translate(979,542)" d="m0 0 5 1 1 3-1 7-4 2-1-2z" fill="#D3E4D9"/>
<path transform="translate(778,541)" d="m0 0 5 1 1 13h-5z" fill="#262325"/>
<path transform="translate(158,296)" d="m0 0 4 1v11l-4 1-1-1v-10z" fill="#E2EDE6"/>
<path transform="translate(168,148)" d="m0 0h2l2 5v4h2v7l-4-4-3 3-1-2z" fill="#577262"/>
<path transform="translate(199,39)" d="m0 0 4 1-1 3h-2v2l-3 2v2l-4-2-3-3 1-2 6-2z" fill="#7DB091"/>
<path transform="translate(1021 2e3)" d="m0 0h5l2 2v10h-7l-1-5 1-2 4 1-3 4 3-1v-6h-4z" fill="#262325"/>
<path transform="translate(688,1924)" d="m0 0 7 1v11h-7l-1-1v-5l4-1-2 5 3-1-1-6h-4z" fill="#262325"/>
<path transform="translate(505,1924)" d="m0 0 5 1 1 2-6-1 3 3 3 1-1 5-1 1h-5l-2-4 6 1-6-4 1-4z" fill="#262325"/>
<path transform="translate(1415,798)" d="m0 0h4l2 9 3-1-2 10-6 3v-3l4-1-1-8z" fill="#363D39"/>
<path transform="translate(817,589)" d="m0 0h3l1 21-4-1z" fill="#262325"/>
<path transform="translate(642,541)" d="m0 0h4l1 11v3h-5l-1-9z" fill="#262325"/>
<path transform="translate(579,541)" d="m0 0h6l1 1v13h-4l-1-12z" fill="#262325"/>
<path transform="translate(461,541)" d="m0 0h6l1 1v13h-4l-1-12z" fill="#262325"/>
<path transform="translate(769,473)" d="m0 0h6l2 2-1 7 2 4-1 6h-3l1-1v-5l-5-2 1-2h3v-7h-6z" fill="#262325"/>
<path transform="translate(693,473)" d="m0 0h3v19l1 2h-4z" fill="#262325"/>
<path transform="translate(385,420)" d="m0 0h4l-1 8-4 1-4-3 1-5z" fill="#A5AFA9"/>
<path transform="translate(444,412)" d="m0 0 2 2 1 19h-5l1-20z" fill="#262325"/>
<path transform="translate(268,257)" d="m0 0 3 1v12h-4l-1-2v-9z" fill="#DFEBE4"/>
<path transform="translate(921 2e3)" d="m0 0 7 1v10l-1 1h-6l-1-1v-6h3v5h3l-1-8h-5z" fill="#262325"/>
<path transform="translate(1151,1968)" d="m0 0 4 1 1 1v12l-2 2-5-1-1-3 5 1v-10l-2-1-1 3-1-3z" fill="#262325"/>
<path transform="translate(170,1331)" d="m0 0h4l7 11 1 3-4-1-4-4-2 4-2 1 2-4 1-5z" fill="#2C2C2C"/>
<path transform="translate(248,827)" d="m0 0h6l-2 1v18h-2l-1-2z" fill="#262325"/>
<path transform="translate(691,798)" d="m0 0 7 1v4h-2l-1-3-4 1-1 7h8l-1 3-5 1-5-4 1-7z" fill="#292728"/>
<path transform="translate(963,798)" d="m0 0h6v3l-5-2 2 4 4 2v6l-8 1-1-4 8 2-5-5-2-1v-5z" fill="#262325"/>
<path transform="translate(1086,798)" d="m0 0h6l1 1 1 12h-11v-5h2l1 3h4v-9l-4 1-2 1v-3z" fill="#262325"/>
<path transform="translate(415,596)" d="m0 0h6l-1 4v-2h-5l1 3 6 3v5l-1 1h-8l-1-3 8 2-1-4-5-2-1-4z" fill="#303432"/>
<path transform="translate(869,589)" d="m0 0 5 1 3 5v10l-4 6-4-1 3-1 1-2v-14l-1-2z" fill="#262325"/>
<path transform="translate(1392,247)" d="m0 0 2 1v19h-3v-19z" fill="#262325"/>
<path transform="translate(873 2e3)" d="m0 0 6 1v10l-1 1h-6l-1-1v-6h4l-2 4 4 1-1-7-5-1z" fill="#262325"/>
<path transform="translate(666 2e3)" d="m0 0h5l2 2v10h-7l-1-1v-6l4 1-2 3 4 1-1-7-5-1z" fill="#262325"/>
<path transform="translate(492,1972)" d="m0 0 7 1-1 2h-5l3 2 3 3-2 4h-6l-1-4 6 3-4-5-2-1 1-4z" fill="#262325"/>
<path transform="translate(194,1287)" d="m0 0h4v21l-4-1z" fill="#262325"/>
<path transform="translate(273,1147)" d="m0 0h2l-1 5-7 5h-3l2-6 4-3z" fill="#7DB091"/>
<path transform="translate(275,798)" d="m0 0h6l2 1-1 4-2-1v-2h-4l-1 6 1 2h7l-1 3h-8l-2-3v-6z" fill="#262325"/>
<path transform="translate(661,798)" d="m0 0h5l1 1 2 12h-11l-1-4 4-4 2 1-3 5 5-1v-8z" fill="#262325"/>
<path transform="translate(993,790)" d="m0 0 5 1-2 2h-5l1 6h-2l1 13-4-1 1-12-2-1 2-1 1-6z" fill="#262325"/>
<path transform="translate(908,541)" d="m0 0h4l1 13-5 1z" fill="#262325"/>
<path transform="translate(346,418)" d="m0 0h3l3 9-8 1-2 2 1-5z" fill="#96A19A"/>
<path transform="translate(1265,179)" d="m0 0 2 1 2 9-8 1-1-2z" fill="#DCE9E1"/>
<path transform="translate(1024,1968)" d="m0 0h2v16h-3v-9l1-2-5 2 2-4z" fill="#262325"/>
<path transform="translate(1126,1920)" d="m0 0h3v16h-3l-1-11-3 2 2-4z" fill="#262325"/>
<path transform="translate(404,596)" d="m0 0 5 1-1 3-5-2v3l5 2 1 1v6h-8l1-3 5 2-3-5-3-2 1-5z" fill="#2F3230"/>
<path transform="translate(375,597)" d="m0 0h8l-1 4-1-2-5-1v3l5 2 2 1v5l-1 1h-8l-1-3 8 2-1-3-6-4z" fill="#2A2A2A"/>
<path transform="translate(973 2e3)" d="m0 0 5 1-1 2-4-1v3l5 1 1 3-2 3h-6l1-3h4l-5-2-1-5z" fill="#262325"/>
<path transform="translate(859 2e3)" d="m0 0 3 1 2 2 3-3v3l-1 3 2 6-3-1-2-2-2 3h-2l1-8z" fill="#262325"/>
<path transform="translate(953,1924)" d="m0 0h6l1 1v11h-6l-1-1v-7l2 1v6l2-1-1-8-3 1z" fill="#262325"/>
<path transform="translate(420,1295)" d="m0 0h6l1 1-1 7-1 4-6-1 3-6 3-3-5 1-2 1z" fill="#38403B"/>
<path transform="translate(215,798)" d="m0 0h10v2h-4l-1 11h-4z" fill="#343A36"/>
<path transform="translate(1433,794)" d="m0 0 1 4 3 1h-3l1 10 2 2h-5v-12l-4 1-3 4v-5l1-1h6z" fill="#2A2A2A"/>
<path transform="translate(452,597)" d="m0 0h7l1 5h-2l-1-3-5 1 1 7h7l-2 3h-6l-3-3v-7z" fill="#262325"/>
<path transform="translate(341,535)" d="m0 0 3 4 1 16h-5z" fill="#76A589"/>
<path transform="translate(639,474)" d="m0 0 6 1 1 6-2 2h-5z" fill="#DDEAE2"/>
<path transform="translate(156,474)" d="m0 0 5 1 1 1v5l-2 2h-5v-8z" fill="#E8F1EC"/>
<path transform="translate(205,140)" d="m0 0v3l-8 9-6 5 1 4-4-2-3-1 1-3 5-1z" fill="#45554B"/>
<path transform="translate(440,1972)" d="m0 0 7 1 1 1v10h-2l-1-9-4-1v10h-2v-11z" fill="#262325"/>
<path transform="translate(1451,798)" d="m0 0h7l1 4-3-2h-4l-1 5 1 3h6l-2 4-5-1-3-3 1-8z" fill="#262325"/>
<path transform="translate(821,790)" d="m0 0h3l1 22h-4z" fill="#262325"/>
<path transform="translate(903,593)" d="m0 0h1v10l-8 1 2-6z" fill="#B7C6BD"/>
<path transform="translate(732,542)" d="m0 0 4 1v9l-4 2-1-1v-10z" fill="#D7E6DD"/>
<path transform="translate(792,542)" d="m0 0h4v11l-2 1-3-2v-9z" fill="#E8F1EB"/>
<path transform="translate(410,420)" d="m0 0h7l-1 3v-2l-3 1-1 3 5 2 1 5-1 1h-8l1-3 6 2v-3l-5-2-2-2z" fill="#363837"/>
<path transform="translate(1323,289)" d="m0 0h4l1 5-3 4h-4l-1-5z" fill="#E8F1EB"/>
<path transform="translate(1314,282)" d="m0 0h3l-3 18-4 1 2-12z" fill="#262325"/>
<path transform="translate(241,186)" d="m0 0h6l-4 2-13 2 4 4-1 2-5-4-5 1-4 2 2-4 8-3z" fill="#262325"/>
<path transform="translate(1410,179)" d="m0 0 2 1 3 9-8 1-1-3z" fill="#E1ECE5"/>
<path transform="translate(542 2e3)" d="m0 0h5l-1 3-4-1v3h5l1 1v5l-1 1h-6v-3l5 1v-3h-5l-1-5z" fill="#262325"/>
<path transform="translate(879,1925)" d="m0 0h8v1h-6l1 2 5 3-1 5h-7l1-3 4 1-5-4-1-4z" fill="#262325"/>
<path transform="translate(975,798)" d="m0 0h6v3l-5-1-1 2 5 2 3 2-1 5h-9l1-3 7 2-4-4-3-2v-5z" fill="#262325"/>
<path transform="translate(434,798)" d="m0 0h10v2l-6 1v8 3l-4-1z" fill="#262325"/>
<path transform="translate(493,542)" d="m0 0h4v11l-5-1v-9z" fill="#EAF2ED"/>
<path transform="translate(404,1972)" d="m0 0 5 1-1 3-4-1v5l2 1 3-1v3l-6 1-3-5 1-5z" fill="#262325"/>
<path transform="translate(378,1331)" d="m0 0h9v2h-5l1 12h-4z" fill="#262325"/>
<path transform="translate(485,1295)" d="m0 0h4v13h-4z" fill="#587463"/>
<path transform="translate(410,792)" d="m0 0h2v6l2 1h-2l1 13h-4v-12l-2-2h3z" fill="#262325"/>
<path transform="translate(757,545)" d="m0 0h5l2 5-1 3-5 2-1-2z" fill="#DDEAE2"/>
<path transform="translate(306,218)" d="m0 0 3 1v12h-4v-12z" fill="#ECF3EF"/>
<path transform="translate(522,1972)" d="m0 0 3 2 2 5 2-7h2l-1 8-4 4-3-5-2-6z" fill="#262325"/>
<path transform="translate(1055,1968)" d="m0 0h9l-2 6-4 10-2-1 2-8 3-5h-6z" fill="#262325"/>
<path transform="translate(452,1924)" d="m0 0 4 2-5 1 5 4-1 5h-6l-1-4 1 2h3l-2-4h-2v-5z" fill="#262325"/>
<path transform="translate(979,1924)" d="m0 0 5 1-1 3-4-2 1 7 5-1-2 4-5-1-2-3 1-7z" fill="#262325"/>
<path transform="translate(791,1924)" d="m0 0h5l1 4-5-2 1 7 5-2-1 4-5 1-3-4 1-7z" fill="#262325"/>
<path transform="translate(1161,1920)" d="m0 0 3 1v15l-3-1-1-10-1-2z" fill="#262325"/>
<path transform="translate(1464,798)" d="m0 0h6l1 4h-2v-3l-4 1v2l6 4-1 5h-8l1-3 6 2-1-3-5-3-1-4z" fill="#2E302F"/>
<path transform="translate(200,597)" d="m0 0h3v18l-3 2h-5l1-2h5l-1-13z" fill="#262325"/>
<path transform="translate(1341,286)" d="m0 0 4 1 1 1-1 9-2 4h-3l2-12-2-2z" fill="#262325"/>
<path transform="translate(1256,286)" d="m0 0 5 1 1 4-3 9-3 1 2-12h-3z" fill="#262325"/>
<path transform="translate(1267,282)" d="m0 0h3l-3 18-4 1z" fill="#262325"/>
<path transform="translate(232,130)" d="m0 0h3l-1 16-1 2h-2v-14z" fill="#688E77"/>
<path transform="translate(274,48)" d="m0 0h2l1 7-10 1-4-1v-2l7-1z" fill="#262325"/>
<path transform="translate(1222,1971)" d="m0 0 2 3v2h2l2-4h2l-1 9 1 3-3-1-1-3-4 4v-3l1-4-2-5z" fill="#262325"/>
<path transform="translate(894,1972)" d="m0 0 4 2v10h-7l-2-6 4-1-1 6h3z" fill="#262325"/>
<path transform="translate(756,1968)" d="m0 0h9l-2 6-3 10h-2l1-9 2-4-5-1z" fill="#262325"/>
<path transform="translate(1130,1968)" d="m0 0h1v15l-3 1v-11l-1 2h-2l1-4z" fill="#262325"/>
<path transform="translate(285,1968)" d="m0 0 3 1-1 15h-3v-14z" fill="#262325"/>
<path transform="translate(1111,1920)" d="m0 0 4 1-1 5-1 10-3-1v-13z" fill="#262325"/>
<path transform="translate(316,1331)" d="m0 0h8v2h-6l1 4 1 8h-5z" fill="#262325"/>
<path transform="translate(393,1297)" d="m0 0h5v7l-2 4-2 1h-8v-1l7-1z" fill="#415047"/>
<path transform="translate(250,1166)" d="m0 0 3 1-4 6-5 4-3-1v-2h2l1-3h2l1-3z" fill="#262325"/>
<path transform="translate(832,798)" d="m0 0h5l2 6 1 7-3 1-8-1v-5h2l1 3 4 1v-11z" fill="#262325"/>
<path transform="translate(560,473)" d="m0 0h5l-4 2-1 2v12l2 5-4-2-2-6 1-9z" fill="#262325"/>
<path transform="translate(189,416)" d="m0 0h2l2 6h-2l-1 9h2v2h-4l-1-11v-3z" fill="#373F3A"/>
<path transform="translate(1396,288)" d="m0 0 4 1v7l-2 2-4-1v-6z" fill="#DFEBE3"/>
<path transform="translate(152,1291)" d="m0 0 3 3v15h-5z" fill="#75A488"/>
<path transform="translate(253,1126)" d="m0 0h1l1 10h2l2 12-4-1-2-12z" fill="#262325"/>
<path transform="translate(205,929)" d="m0 0h8v2h-4v11l-3 1-2-2 1-3z" fill="#262325"/>
<path transform="translate(281,834)" d="m0 0h4l2 7 2 1 2-2-1 5-2 7h-2v-7l-5-9z" fill="#2D2E2D"/>
<path transform="translate(198,481)" d="m0 0 2 1-1 1v7l4 1 4-1-3 4h-6l-3-4 1-7z" fill="#262325"/>
<path transform="translate(494,1993)" d="m0 0 3 1 4 9v5h-4z" fill="#262325"/>
<path transform="translate(721,1973)" d="m0 0h6l-1 3-4-2 1 8 5-3-1 4-1 1h-5l-2-3v-6z" fill="#262325"/>
<path transform="translate(1296,1968)" d="m0 0h2v15l-3 1v-11l-1 2h-2l2-5z" fill="#262325"/>
<path transform="translate(1082,1968)" d="m0 0m-2 1 5 2-1 5-1 2-4-1-1-5z" fill="#6D726F"/>
<path transform="translate(781,1924)" d="m0 0 5 1 1 3-6-1v7l6-2-1 3-6 1-2-2v-8z" fill="#262325"/>
<path transform="translate(181,827)" d="m0 0h3l1 21h-4z" fill="#262325"/>
<path transform="translate(363,597)" d="m0 0h7l-1 2-5-1v3l5 2 2 4-1 3h-8l1-3 6 2-1-3-6-4z" fill="#262325"/>
<path transform="translate(621,544)" d="m0 0 5 1 1 7-1 1h-5l-1-3z" fill="#E3EDE7"/>
<path transform="translate(1487,286)" d="m0 0 3 1-1 10-2 4-3-1 2-11z" fill="#262325"/>
<path transform="translate(1244,286)" d="m0 0 2 1-2 10-2 4-3-1 3-13z" fill="#262325"/>
<path transform="translate(1010 2e3)" d="m0 0 5 1 1 4-2-1v-2l-3 1-1 7 6-3-1 4-5 1-2-2v-8z" fill="#262325"/>
<path transform="translate(511,1993)" d="m0 0h2l-1 7-1 8-5-1 1-4z" fill="#262325"/>
<path transform="translate(865,1968)" d="m0 0h2v16h-3v-15z" fill="#415047"/>
<path transform="translate(841,1920)" d="m0 0 2 1 1 5-1 2 1 8h-3l-2-9z" fill="#262325"/>
<path transform="translate(511,1327)" d="m0 0h2l1 5h-2l1 9 1 4-4-1-1-13z" fill="#363E39"/>
<path transform="translate(356,1328)" d="m0 0 3 3-1 2v7l2 5h-5l-1-14z" fill="#262325"/>
<path transform="translate(231,1327)" d="m0 0 1 4 3 1h-3l1 10 2 3-5-1-1-13z" fill="#262325"/>
<path transform="translate(273,827)" d="m0 0h3l1 21-4-1z" fill="#262325"/>
<path transform="translate(328,799)" d="m0 0 2 1v8l9 3v1h-10l-3-5-2 1v-3h2z" fill="#435349"/>
<path transform="translate(1203,798)" d="m0 0h9l-1 7-4 2 1-7-5 1 1 7-4-4 1-5z" fill="#262325"/>
<path transform="translate(1407,790)" d="m0 0h3l1 21-3 1z" fill="#262325"/>
<path transform="translate(1013,790)" d="m0 0h2l1 22h-3z" fill="#262325"/>
<path transform="translate(867,590)" d="m0 0 2 1-1 2v13l1 4-3-1-2-5v-7z" fill="#262325"/>
<path transform="translate(595,477)" d="m0 0h1v10l-6 1-1-5 5-5z" fill="#D2DCD6"/>
<path transform="translate(724,473)" d="m0 0h3l1 21-4-1z" fill="#262325"/>
<path transform="translate(504,413)" d="m0 0 2 1-2 5v7l2 6 3 2-5-1-3-5v-10z" fill="#262325"/>
<path transform="translate(1443,286)" d="m0 0 2 1-1 7-3 7-3-1 4-13z" fill="#262325"/>
<path transform="translate(1480,286)" d="m0 0 4 2-2 3-2 9-3 1 1-10z" fill="#262325"/>
<path transform="translate(1249,286)" d="m0 0 4 2-1 11-1 2h-3z" fill="#262325"/>
<path transform="translate(197,257)" d="m0 0h2v13h-3l-1-2v-9z" fill="#DDEAE2"/>
<path transform="translate(655 2e3)" d="m0 0 6 1-1 3-4-2v8l5-2-1 4-6-1-1-2v-6z" fill="#262325"/>
<path transform="translate(987 2e3)" d="m0 0h7l2 3h-2v7h-1v-8l-7 1-1 7-2 1 1-9z" fill="#B5D1C0"/>
<path transform="translate(391,1973)" d="m0 0h6v2h-5l1 6 5-1-1 3-5 1-3-4 1-6z" fill="#262325"/>
<path transform="translate(914,1968)" d="m0 0h2l2 5v8l-2 6-2-1z" fill="#262325"/>
<path transform="translate(706,1921)" d="m0 0h2l1 2 1 13h-4l-1-12z" fill="#262325"/>
<path transform="translate(1015,1920)" d="m0 0h2v16h-2l-1-10-3 1 1-4z" fill="#262325"/>
<path transform="translate(872,1920)" d="m0 0h2l1 16-4-1v-12z" fill="#262325"/>
<path transform="translate(271,921)" d="m0 0h3l1 21-4-1z" fill="#262325"/>
<path transform="translate(1098,796)" d="m0 0 4 1v11l1 4-4-1z" fill="#262325"/>
<path transform="translate(738,473)" d="m0 0h6l3 5-3 7-5 5 4-8 1-6h-8z" fill="#292929"/>
<path transform="translate(1335,287)" d="m0 0 4 1-3 12-3 1v-8z" fill="#262325"/>
<path transform="translate(192,161)" d="m0 0 6 1 12 6v1l-8-1-10-5z" fill="#5C7B69"/>
<path transform="translate(169,51)" d="m0 0h3l2 5-2 1-3-3-1 3h-2v3l-5-1-3-1v-2l9-1z" fill="#688E77"/>
<path transform="translate(557,1994)" d="m0 0 4 2v11l1 2h-4l-1-5z" fill="#262325"/>
<path transform="translate(822,1969)" d="m0 0 2 1v17h-2l-2-5v-9z" fill="#262325"/>
<path transform="translate(854,800)" d="m0 0h1l1 8 7 1 1-3 1 3-5 3-6-2-1-2v-6z" fill="#2F3231"/>
<path transform="translate(555,597)" d="m0 0h7l1 13-4-1v-8l1-3-5 2-2 1v-3z" fill="#262325"/>
<path transform="translate(901,1993)" d="m0 0h2v16h-3v-14z" fill="#262325"/>
<path transform="translate(806,1970)" d="m0 0h3l1 2v9h-4z" fill="#D4E5DB"/>
<path transform="translate(318,1969)" d="m0 0 3 1v14h-3l-1-9z" fill="#262325"/>
<path transform="translate(453,1969)" d="m0 0h2v15h-3l-1-5v-9z" fill="#262325"/>
<path transform="translate(495,1920)" d="m0 0h2l1 4v12h-3z" fill="#262325"/>
<path transform="translate(342,1332)" d="m0 0 2 1-1 6 3 3h4v-2l2 1-4 4-6-1-2-3v-6z" fill="#2B2C2C"/>
<path transform="translate(484,1331)" d="m0 0h6l2 13-4 1v-12h-4z" fill="#262325"/>
<path transform="translate(308,1331)" d="m0 0h3l1 14h-4z" fill="#262325"/>
<path transform="translate(214,834)" d="m0 0h3l1 14h-5z" fill="#262325"/>
<path transform="translate(307,827)" d="m0 0h6l3 3-1 7-5 6v-3l3-5-1-5h-7z" fill="#262325"/>
<path transform="translate(572,795)" d="m0 0 4 4-2 2v9l3 1h-5l-1-9-1-4z" fill="#262325"/>
<path transform="translate(1034 2e3)" d="m0 0h4l1 6-5 3-1-1v-7z" fill="#CBDFD2"/>
<path transform="translate(614,1968)" d="m0 0h3v16l-3-1z" fill="#262325"/>
<path transform="translate(854,1968)" d="m0 0 2 1v15h-3v-15z" fill="#262325"/>
<path transform="translate(921,799)" d="m0 0 2 1-1 1 1 7 6 1 1-3 1 2-3 3-5 1-4-4v-7z" fill="#2E302F"/>
<path transform="translate(290,798)" d="m0 0h6l2 13-3 1-2-10 1-2-4 1-3 1 1-3z" fill="#262325"/>
<path transform="translate(1189,798)" d="m0 0h6l1 2 1 11-3 1-3-2 2-1v-9l-5 1-2 1 1-3z" fill="#262325"/>
<path transform="translate(671,798)" d="m0 0h5l1 6 2 2 2-2v4h-2v3l-3-1z" fill="#2A292A"/>
<path transform="translate(757,535)" d="m0 0h5l1 5-1 3h-5z" fill="#DAE8DF"/>
<path transform="translate(621,535)" d="m0 0h5v8h-5l-1-5z" fill="#E6EFE9"/>
<path transform="translate(173,482)" d="m0 0h1v6l2 3 6-1-2 4h-6l-3-4 1-7z" fill="#262325"/>
<path transform="translate(540,416)" d="m0 0 1 4-1 6h-6l2-7z" fill="#CED9D3"/>
<path transform="translate(609,1994)" d="m0 0 3 3v9l1 3h-4l-1-4v-7z" fill="#262325"/>
<path transform="translate(931,1994)" d="m0 0h2l1 6 1 9h-4z" fill="#262325"/>
<path transform="translate(701,1972)" d="m0 0 5 1-3 2-1 8-4 1 1-11z" fill="#262325"/>
<path transform="translate(483,1969)" d="m0 0h3v9l1 6-4-1z" fill="#262325"/>
<path transform="translate(1169,1921)" d="m0 0 3 1 1 2v12l-1 2-3-1 1-9z" fill="#262325"/>
<path transform="translate(547,1331)" d="m0 0h5l2 4v10l-4-1 1-3-1-8z" fill="#262325"/>
<path transform="translate(434,1331)" d="m0 0h6l1 1 1 13-4-1v-11l-4 1-2 1z" fill="#262325"/>
<path transform="translate(238,925)" d="m0 0 2 4-2 1 1 11 3 1h-6l-1-14h3z" fill="#262325"/>
<path transform="translate(741,799)" d="m0 0 1 2 1 7 6 1 1-3 1 2-4 4-6-1-2-6z" fill="#2E302F"/>
<path transform="translate(935,799)" d="m0 0 1 2 1 7 3 1 4-2-2 4-5 1-3-2-1-8z" fill="#262325"/>
<path transform="translate(315,799)" d="m0 0 1 2v6l1 1h7l-4 4-5-1-2-3v-7z" fill="#262325"/>
<path transform="translate(301,799)" d="m0 0 2 1 7 7-1 4h-8l1-3 6 2-7-7z" fill="#262325"/>
<path transform="translate(758,798)" d="m0 0h6l2 13-4 1-1-12z" fill="#262325"/>
<path transform="translate(586,798)" d="m0 0h5l1 6 3 3-1 4-2 4-2-8z" fill="#262325"/>
<path transform="translate(352,795)" d="m0 0 4 4h-2l1 10 1 3-4-1-1-14z" fill="#262325"/>
<path transform="translate(565,474)" d="m0 0 4 4v11l-3 5-3-1h2l1-5v-9z" fill="#262325"/>
<path transform="translate(607,1924)" d="m0 0h5l1 2h-4v10l-3-1v-10z" fill="#262325"/>
<path transform="translate(621,1921)" d="m0 0h2l1 2v9l1 4h-4z" fill="#262325"/>
<path transform="translate(200,1333)" d="m0 0h1l1 7 4 2 4-1v2l-3 2h-5l-3-4v-7z" fill="#282627"/>
<path transform="translate(446,1331)" d="m0 0h2v2h2v12l-4-1z" fill="#262325"/>
<path transform="translate(457,1295)" d="m0 0h7l1 1v12h-2v-8l-2-1h2l-1-2h-4l-1 2h-2v-3z" fill="#262325"/>
<path transform="translate(177,928)" d="m0 0h5l4 5-1 7-3 1 1-5-2-5-5-1z" fill="#323734"/>
<path transform="translate(221,834)" d="m0 0 4 2-1 8 1 4h-4z" fill="#262325"/>
<path transform="translate(808,799)" d="m0 0 1 3 1 6h7l-3 4-6-1-2-3 1-7z" fill="#262325"/>
<path transform="translate(1255,800)" d="m0 0h1l1 7 1 1h5l2-1-2 4-5 1-4-4v-7z" fill="#282627"/>
<path transform="translate(1440,798)" d="m0 0h4v13l-3 1v-11z" fill="#262325"/>
<path transform="translate(1158,798)" d="m0 0h6l2 5v9l-3-1v-12h-4l-1 3h-2z" fill="#262325"/>
<path transform="translate(477,797)" d="m0 0 3 1 3 8 2 1-1 7-2-2-5-12z" fill="#262325"/>
<path transform="translate(533,795)" d="m0 0h2v3l2 1h-2v11l3 1-4 1-1-1-1-14z" fill="#262325"/>
<path transform="translate(238,593)" d="m0 0 4 5h-3l1 11 2 1-3 1-2-2-1-12z" fill="#262325"/>
<path transform="translate(480,594)" d="m0 0h2l3 4h-3l1 9 2 3h-4l-1-2-1-11z" fill="#262325"/>
<path transform="translate(251,482)" d="m0 0 1 3 1 5 7 1 1-3 1 2-4 4h-5l-3-3-1-4z" fill="#343B37"/>
<path transform="translate(424,416)" d="m0 0 1 4 3 1h-3l1 10 2 2h-5l-1-14z" fill="#262325"/>
<path transform="translate(1233,288)" d="m0 0 2 1-1 8-5 1v-3h4v-2h-5l-1-2z" fill="#CBDFD3"/>
<path transform="translate(602 2e3)" d="m0 0 4 2 1 2h-3l2 10-4-1z" fill="#262325"/>
<path transform="translate(722,1974)" d="m0 0 4 1 2-1v5l-5 4-2-7z" fill="#D4E4DA"/>
<path transform="translate(783,1970)" d="m0 0 3 1v10h-4v-10z" fill="#D0E2D7"/>
<path transform="translate(458,1921)" d="m0 0 3 1 1 14h-3l-1-6z" fill="#262325"/>
<path transform="translate(460,1331)" d="m0 0h5l1 1 1 13-4-1 1-11h-4z" fill="#262325"/>
<path transform="translate(239,1331)" d="m0 0h3l1 13-4 1z" fill="#262325"/>
<path transform="translate(426,1301)" d="m0 0h2l1 7h-11l-1-4 4-2v4l4 1z" fill="#262325"/>
<path transform="translate(356,1295)" d="m0 0h3l1 13h-4z" fill="#262325"/>
<path transform="translate(248,1295)" d="m0 0h4v13h-3z" fill="#262325"/>
<path transform="translate(216,931)" d="m0 0 1 2 5 2 2 2-1 5h-8v-2h7l-3-3-4-3z" fill="#262325"/>
<path transform="translate(359,831)" d="m0 0h2l-1 8-2 2h-5l3-6z" fill="#DAE8E0"/>
<path transform="translate(1200,812)" d="m0 0 12 1-1 3-8 1-2-1v-2l-2-1z" fill="#EAF2ED"/>
<path transform="translate(445,798)" d="m0 0h3l1 13-4 1z" fill="#262325"/>
<path transform="translate(852,604)" d="m0 0 2 1-2 3h9l-1 3h-8l-5-1z" fill="#425048"/>
<path transform="translate(723,599)" d="m0 0 9 6-1 5h-8l1-3 6 2-1-3-6-4z" fill="#262325"/>
<path transform="translate(637,597)" d="m0 0h3l1 13h-4z" fill="#262325"/>
<path transform="translate(432,596)" d="m0 0 4 1 1 2 1 11h-4v-12l-3-1z" fill="#262325"/>
<path transform="translate(679 2e3)" d="m0 0 5 1v6l-4 2-1-1z" fill="#D6E6DC"/>
<path transform="translate(530 2e3)" d="m0 0 4 2v6l-5 1v-8z" fill="#D9E8DF"/>
<path transform="translate(939,1993)" d="m0 0h2v16l-3-1v-10z" fill="#262325"/>
<path transform="translate(794,1970)" d="m0 0 3 1v10l-3 1-1-11z" fill="#E0ECE4"/>
<path transform="translate(884,1969)" d="m0 0 2 4v11h-3l-1-12z" fill="#262325"/>
<path transform="translate(979,1926)" d="m0 0 4 1 2-1v6l-5 2-1-1z" fill="#CFE2D6"/>
<path transform="translate(750,1925)" d="m0 0h2v8l-4 1-1-1v-6z" fill="#CFE2D6"/>
<path transform="translate(480,1926)" d="m0 0h4l1 7-4 2-1-1z" fill="#DCEAE2"/>
<path transform="translate(912,1924)" d="m0 0h6v2l-3 1v9h-3l-1-10z" fill="#262325"/>
<path transform="translate(1088,802)" d="m0 0 3 1v6l-5 1-1-5z" fill="#B8C6BD"/>
<path transform="translate(1303,798)" d="m0 0h6l1 1 1 12h-3v-7l-1-4h-3l-1 2h-2v-3z" fill="#262325"/>
<path transform="translate(397,798)" d="m0 0h5l2 4v9h-4v-11z" fill="#262325"/>
<path transform="translate(224,598)" d="m0 0 1 2 1 7h5l2-1-2 4h-7l-2-3v-6z" fill="#262325"/>
<path transform="translate(240,480)" d="m0 0 5 1 1 1 1 12h-4v-12h-3z" fill="#262325"/>
<path transform="translate(210,480)" d="m0 0 3 1 1 13h-4z" fill="#262325"/>
<path transform="translate(544,473)" d="m0 0h6l3 5-2 6-2 1 1-9h-6l-2 1z" fill="#262325"/>
<path transform="translate(394,420)" d="m0 0h3l1 11 3 2-4 1-2-1z" fill="#262325"/>
<path transform="translate(193,290)" d="m0 0 4 1 1 5-1 2h-5v-7z" fill="#E6F0EA"/>
<path transform="translate(160,258)" d="m0 0h1v10l-1-2-5 4-3-1v-4l8-1z" fill="#C2DACB"/>
<path transform="translate(228,27)" d="m0 0 8 1 5 5-1 2-2-4h-4l2 4-7-6z" fill="#7DB091"/>
<path transform="translate(648,1993)" d="m0 0 2 1v15l-3-1v-10z" fill="#262325"/>
<path transform="translate(890,1972)" d="m0 0h4l2 5-1 6h-3l1-8h-4z" fill="#9CB9A8"/>
<path transform="translate(1306,1970)" d="m0 0 4 1-1 5 1 4-4 2z" fill="#C7DDD0"/>
<path transform="translate(460,1972)" d="m0 0 7 1v10l-3 1v-11l-6 1z" fill="#262325"/>
<path transform="translate(698,1924)" d="m0 0h6l-1 2h-3v10l-3-1v-10z" fill="#262325"/>
<path transform="translate(278,929)" d="m0 0h5l2 8 2 1 1-2-1 5-2 1-6-11z" fill="#262325"/>
<path transform="translate(257,834)" d="m0 0h3l1 11 4 2v1h-6l-1-2z" fill="#262325"/>
<path transform="translate(642,597)" d="m0 0h5l2 6v7l-4-1v-10z" fill="#262325"/>
<path transform="translate(204,80)" d="m0 0 4 1v8l2 1h-7v-8z" fill="#7DB091"/>
<path transform="translate(720 2e3)" d="m0 0 4 1v7l-5-1v-6z" fill="#D4E4DA"/>
<path transform="translate(1074 2e3)" d="m0 0h4v9l-4-2-1-6z" fill="#E2EDE6"/>
<path transform="translate(698 2e3)" d="m0 0 4 1v6l-5 1v-7z" fill="#DBE8E0"/>
<path transform="translate(637,1974)" d="m0 0h4l1 6-3 3-2-1z" fill="#DEEBE3"/>
<path transform="translate(792,1926)" d="m0 0 4 1 2-1v5l-5 3-1-1z" fill="#D0E2D7"/>
<path transform="translate(924,1926)" d="m0 0h4v7l-4 1-1-1v-6z" fill="#CDE0D4"/>
<path transform="translate(489,1920)" d="m0 0 3 1v15h-2z" fill="#262325"/>
<path transform="translate(450,1331)" d="m0 0h6l2 2 1 12h-4v-11l-5-2z" fill="#262325"/>
<path transform="translate(321,1295)" d="m0 0h9l-2 2h-3v11h-3z" fill="#262325"/>
<path transform="translate(230,1295)" d="m0 0 5 1 2 2v10h-4v-10z" fill="#262325"/>
<path transform="translate(224,1295)" d="m0 0h4v14l-4-1z" fill="#262325"/>
<path transform="translate(263,1294)" d="m0 0 4 1 1 1 1 12h-3l-1-11-3-2z" fill="#262325"/>
<path transform="translate(1285,795)" d="m0 0 2 1v2l2 1-2 1 1 9 2 2h-5l-1-14z" fill="#262325"/>
<path transform="translate(647,798)" d="m0 0h5l1 1 1 13h-4v-12z" fill="#262325"/>
<path transform="translate(546,798)" d="m0 0h5l1 1 1 13h-4v-12z" fill="#262325"/>
<path transform="translate(382,434)" d="m0 0h7v4h-10v-3z" fill="#E9F1EC"/>
<path transform="translate(1412,288)" d="m0 0 2 1-1 4-3 1 3 2-1 3-4-2 1-7z" fill="#CDE0D4"/>
<path transform="translate(176,55)" d="m0 0h14v1l-9 1v4l-3-1-4-2z" fill="#98C0A8"/>
<path transform="translate(1093 2e3)" d="m0 0 4 1v6l-4 1-1-1v-6z" fill="#DDEAE2"/>
<path transform="translate(1011 2e3)" d="m0 0h3l2 5-3 3h-3v-7z" fill="#CBDFD3"/>
<path transform="translate(618 2e3)" d="m0 0h4l1 6-1 2h-4z" fill="#E4EEE8"/>
<path transform="translate(828,1993)" d="m0 0 3 1v14l-3 1-1-15z" fill="#262325"/>
<path transform="translate(416,1974)" d="m0 0 4 1 1 4-2 3h-3l-1-6z" fill="#D3E4D9"/>
<path transform="translate(360,1974)" d="m0 0 4 1v6l-4 1-1-1v-6z" fill="#DDEAE2"/>
<path transform="translate(541,1926)" d="m0 0h4v8h-4l-1-7z" fill="#D6E6DC"/>
<path transform="translate(246,1331)" d="m0 0h4l3 9h2l-1 4-3-1-4-10z" fill="#262325"/>
<path transform="translate(167,836)" d="m0 0 1 3 1 5 5 1 2-1-2 4h-5l-3-3-1-5z" fill="#262325"/>
<path transform="translate(265,834)" d="m0 0 4 1v13h-3v-10z" fill="#262325"/>
<path transform="translate(226,834)" d="m0 0 6 1 1 13-4-1 1-11-4-1z" fill="#262325"/>
<path transform="translate(1244,798)" d="m0 0h5l1 2 1 12h-4v-12z" fill="#262325"/>
<path transform="translate(1175,798)" d="m0 0h6l1 1 1 13-4-1v-11z" fill="#262325"/>
<path transform="translate(441,596)" d="m0 0 4 1 1 13h-3l-1-11-3-2z" fill="#262325"/>
<path transform="translate(176,596)" d="m0 0 3 1 1 13-5-1 1-3z" fill="#262325"/>
<path transform="translate(221,483)" d="m0 0h1l1 8h7l-2 3h-5l-4-5z" fill="#262325"/>
<path transform="translate(286,61)" d="m0 0h4l2 5v4l-1 2-4-5z" fill="#7DB091"/>
<path transform="translate(947 2e3)" d="m0 0 5 1v5l-2 2h-3z" fill="#D5E5DB"/>
<path transform="translate(737 2e3)" d="m0 0h4l1 6-1 2h-4z" fill="#E4EEE8"/>
<path transform="translate(545,1972)" d="m0 0h3l-1 12-3-1v-9z" fill="#262325"/>
<path transform="translate(311,1972)" d="m0 0 4 1-3 1v9l-3 1-1-10z" fill="#262325"/>
<path transform="translate(804,1926)" d="m0 0 5 1v5l-4 2-1-1z" fill="#E4EEE8"/>
<path transform="translate(254,1295)" d="m0 0h5v2l2 1v10h-4v-10z" fill="#262325"/>
<path transform="translate(175,930)" d="m0 0 1 2 1 7 5 2v1h-6l-3-3-1-5z" fill="#262325"/>
<path transform="translate(996,798)" d="m0 0h3l1 12 4 1-5 1-2-2z" fill="#262325"/>
<path transform="translate(458,798)" d="m0 0h6l1 2 1 11h-4v-10z" fill="#262325"/>
<path transform="translate(450,798)" d="m0 0h5l1 2 1 12-4-1 1-11z" fill="#262325"/>
<path transform="translate(469,597)" d="m0 0h6l1 10 1 3h-4l-1-11z" fill="#262325"/>
<path transform="translate(168,596)" d="m0 0h2l1 10 1 2 3 2h-6l-1-2z" fill="#262325"/>
<path transform="translate(852,589)" d="m0 0h5l2 2v7l-3 3 1-6-2-3-6 1 1-3z" fill="#262325"/>
<path transform="translate(473,542)" d="m0 0h6l1 2-4 4-4-1z" fill="#7B8B81"/>
<path transform="translate(181,426)" d="m0 0h2l1 7h-11v-5h2l1 3 4-1z" fill="#262325"/>
<path transform="translate(1053 2e3)" d="m0 0h4v7l-4 1-1-5z" fill="#DBE9E1"/>
<path transform="translate(822,1993)" d="m0 0h2l1 16h-3z" fill="#262325"/>
<path transform="translate(846,1972)" d="m0 0 4 2v10h-3z" fill="#282728"/>
<path transform="translate(365,1332)" d="m0 0 1 2v6l4 5-5-1-3-5 1-5z" fill="#262325"/>
<path transform="translate(519,1331)" d="m0 0h3l1 14h-4z" fill="#262325"/>
<path transform="translate(237,1295)" d="m0 0h6l1 1 1 12h-3l-1-11h-4z" fill="#262325"/>
<path transform="translate(200,1295)" d="m0 0h5l1 13h-3l-1-11z" fill="#262325"/>
<path transform="translate(833,803)" d="m0 0 4 1-1 6-5-1 1-5z" fill="#B5C2BA"/>
<path transform="translate(1029,798)" d="m0 0h3l1 14h-4z" fill="#262325"/>
<path transform="translate(1e3 798)" d="m0 0h3v13l-3-1z" fill="#262325"/>
<path transform="translate(713,597)" d="m0 0 4 2v11h-5l1-2z" fill="#262325"/>
<path transform="translate(571,597)" d="m0 0h6l1 1 1 12-4-1v-10z" fill="#262325"/>
<path transform="translate(235,480)" d="m0 0h2l1 6 1 8h-4z" fill="#262325"/>
<path transform="translate(337,1972)" d="m0 0h4l-2 12h-2l-1-6z" fill="#262325"/>
<path transform="translate(725,1924)" d="m0 0h5l1 2-3 1v9h-3z" fill="#262325"/>
<path transform="translate(542,1331)" d="m0 0 4 1v13h-3z" fill="#262325"/>
<path transform="translate(474,1295)" d="m0 0h6l1 13-4-1v-10z" fill="#262325"/>
<path transform="translate(361,1295)" d="m0 0h5l1 1 1 12-4-1v-10z" fill="#262325"/>
<path transform="translate(276,799)" d="m0 0 5 1-1 5-6 1 1-6z" fill="#B3C9BC"/>
<path transform="translate(498,598)" d="m0 0 1 3 1 6 5 2v1h-7l-2-3v-6z" fill="#262325"/>
<path transform="translate(425,597)" d="m0 0h4v13l-4-1z" fill="#262325"/>
<path transform="translate(187,263)" d="m0 0 1 3-6 4-3-1 1-4z" fill="#C3DACC"/>
<path transform="translate(285,225)" d="m0 0h4l-1 3-4 3-4-1v-3z" fill="#BFD8C9"/>
<path transform="translate(1020 2e3)" d="m0 0 6 2v6l-4 1 2-4-3-1-1 2z" fill="#B9D4C4"/>
<path transform="translate(502,1994)" d="m0 0h4l1 5-1 4h-2v-5h-2l-1 4z" fill="#262325"/>
<path transform="translate(1214,1973)" d="m0 0h3l1 11-4-1z" fill="#262325"/>
<path transform="translate(609,1968)" d="m0 0 2 1v15h-2l-1-15z" fill="#262325"/>
<path transform="translate(585,1926)" d="m0 0 5 1-1 7-4-1z" fill="#E9F1EC"/>
<path transform="translate(479,1331)" d="m0 0h3l1 3v11h-3z" fill="#262325"/>
<path transform="translate(471,1331)" d="m0 0 4 1v13h-3z" fill="#262325"/>
<path transform="translate(366,1331)" d="m0 0h6l3 3v7l-2 3-3-1 2-1v-7l-1-2-5-1z" fill="#262325"/>
<path transform="translate(216,1297)" d="m0 0h1l1 10-7-1 2-4 3-1z" fill="#D9E8DF"/>
<path transform="translate(447,1295)" d="m0 0h3l1 13h-4z" fill="#262325"/>
<path transform="translate(244,929)" d="m0 0 4 1v10l1 2h-5z" fill="#262325"/>
<path transform="translate(662,802)" d="m0 0h3l1 6-3 2-4-1 3-6z" fill="#D1E3D8"/>
<path transform="translate(226,802)" d="m0 0 2 1 2 5h8l-3 3h-6l-2-1z" fill="#2B2B2B"/>
<path transform="translate(753,798)" d="m0 0h3l1 14-4-1z" fill="#262325"/>
<path transform="translate(464,597)" d="m0 0 4 1v12h-4z" fill="#262325"/>
<path transform="translate(379,430)" d="m0 0 10 2 2 2v4h-2v-4h-10z" fill="#333935"/>
<path transform="translate(171,225)" d="m0 0 2 1v2h-4l-1 3-4-1v-4z" fill="#D9E8DF"/>
<path transform="translate(312,122)" d="m0 0 7 6 3 3-1 1h-8l3-2-4-5z" fill="#7DB091"/>
<path transform="translate(277,53)" d="m0 0 4 2-1 3-3 2 1 2-4-1-2-1v-2h5v-2l-4-1h4z" fill="#7DB091"/>
<path transform="translate(709 2e3)" d="m0 0 5 1-3 2-1 9h-2v-11z" fill="#262325"/>
<path transform="translate(1163,1970)" d="m0 0 2 1-1 4 2 2-1 5-3-1v-10z" fill="#BFD8C9"/>
<path transform="translate(860,1972)" d="m0 0h2l-1 6 1 6h-2l-3-9z" fill="#262325"/>
<path transform="translate(290,1972)" d="m0 0 4 1v11h-2z" fill="#262325"/>
<path transform="translate(1100,1926)" d="m0 0h4v8l-4-1z" fill="#E5EEE8"/>
<path transform="translate(459,1300)" d="m0 0h4l-1 6h-6l2-5z" fill="#C9D2CC"/>
<path transform="translate(347,1301)" d="m0 0h3v5l-5 1-2-1 1-3z" fill="#CCDFD3"/>
<path transform="translate(843,798)" d="m0 0 3 1 1 12h-4z" fill="#262325"/>
<path transform="translate(392,798)" d="m0 0h3l1 13h-4z" fill="#262325"/>
<path transform="translate(384,798)" d="m0 0h3l1 13-2 1-3-2h2z" fill="#262325"/>
<path transform="translate(599,598)" d="m0 0 1 3 5 2 2 2-1 4v-2l-4-2-4-3z" fill="#262325"/>
<path transform="translate(566,597)" d="m0 0h3l1 3v8l1 2h-4z" fill="#262325"/>
<path transform="translate(499,597)" d="m0 0h7l3 3-1 7-1 2-2-1 1-5-1-5h-6z" fill="#262325"/>
<path transform="translate(408,547)" d="m0 0h2l-1 6 1 2h-6v-5z" fill="#262325"/>
<path transform="translate(937,533)" d="m0 0h19v1l-17 1-1 3z" fill="#719D83"/>
<path transform="translate(403,419)" d="m0 0 2 1 1 13-2 1-2-2v-12z" fill="#262325"/>
<path transform="translate(301,1974)" d="m0 0h2l1 9-4 2v-10z" fill="#CADED2"/>
<path transform="translate(863,1973)" d="m0 0h1v10l-2 2-2-10z" fill="#E4EEE8"/>
<path transform="translate(343,1302)" d="m0 0 2 1-2 3h6l1-4h2v6h-10v-5z" fill="#262325"/>
<path transform="translate(279,1297)" d="m0 0h1v8l-2 2-4-1 2-4 3-1z" fill="#CADED2"/>
<path transform="translate(560,803)" d="m0 0 2 1-3 3v2l6 2v1h-9v-6z" fill="#45564C"/>
<path transform="translate(208,803)" d="m0 0h2v5l-2 2-5-1z" fill="#CADED2"/>
<path transform="translate(360,800)" d="m0 0h1l2 9 5 1v1h-7l-3-6z" fill="#262325"/>
<path transform="translate(892,799)" d="m0 0 1 3 5 2 3 5-2 1-4-4-4-3z" fill="#262325"/>
<path transform="translate(678,485)" d="m0 0h7v4h-7z" fill="#628570"/>
<path transform="translate(668 2e3)" d="m0 0 3 1v7h-5l2-4-3-2z" fill="#C4DBCD"/>
<path transform="translate(1063 2e3)" d="m0 0 5 1-4 1v10h-2v-11z" fill="#262325"/>
<path transform="translate(574,1974)" d="m0 0 3 1 1 5-2 3h-2l-1-7z" fill="#BFD8C9"/>
<path transform="translate(852,1927)" d="m0 0h1v6l-1 1h-5v-5h4z" fill="#76817A"/>
<path transform="translate(306,845)" d="m0 0h11l-1 3h-12v-2z" fill="#262325"/>
<path transform="translate(1110,803)" d="m0 0 2 1-4 5 9 2v1h-11v-6z" fill="#4D6255"/>
<path transform="translate(561,802)" d="m0 0h2l1 6-1 2-5-1 2-4z" fill="#D5E5DC"/>
<path transform="translate(750,598)" d="m0 0 8 6 1 5h-2l-1-3-6-4z" fill="#262325"/>
<path transform="translate(808,547)" d="m0 0h2v8h-5v-5h2z" fill="#262325"/>
<path transform="translate(672,547)" d="m0 0 2 1-1 2h-2v2l3 1v2h-5l-1-5z" fill="#262325"/>
<path transform="translate(638,547)" d="m0 0 3 1-1 5v2h-5l1-5z" fill="#262325"/>
<path transform="translate(826,541)" d="m0 0h7l-1 3h-5v10h-1z" fill="#536B5C"/>
<path transform="translate(1402,193)" d="m0 0h1l1 5 2 2h-9v-2z" fill="#414E46"/>
<path transform="translate(220,172)" d="m0 0 8 1 4 1-4 3-4-1-4-2z" fill="#567060"/>
<path transform="translate(300,76)" d="m0 0h1l1 9h2v2l-4 1-4-5 4-1z" fill="#7DB091"/>
<path transform="translate(436,1336)" d="m0 0v3l-2 4h3v2h-5l-1-5 1-2z" fill="#38413C"/>
<path transform="translate(338,844)" d="m0 0 1 2 10-1-2 3h-11z" fill="#262325"/>
<path transform="translate(1398,804)" d="m0 0h3v5l-5 1-1-4z" fill="#D9E7DE"/>
<path transform="translate(951,797)" d="m0 0 5 1 1 5h-2l-1-3h-3l-1 7h-1v-8z" fill="#4B5F53"/>
<path transform="translate(964,546)" d="m0 0 1 2-3 5h2v2h-5v-5z" fill="#262325"/>
<path transform="translate(519,430)" d="m0 0 6 1h4v2l-3 1h-8v-3z" fill="#262325"/>
<path transform="translate(488,430)" d="m0 0 4 1h6l-1 2-10 1-2-2z" fill="#262325"/>
<path transform="translate(306,94)" d="m0 0h1v5l2 1-3 1v2l-5-1 2-1 1-4z" fill="#7DB091"/>
<path transform="translate(217,53)" d="m0 0 11 1 4-1-3 3-6 1-2 1-4-3z" fill="#7DB091"/>
<path transform="translate(843,1972)" d="m0 0h2v12l-4-1 1-5v-4z" fill="#262325"/>
<path transform="translate(1211,1972)" d="m0 0 2 1-1 11-3-1 1-10z" fill="#262325"/>
<path transform="translate(549,1972)" d="m0 0 4 1 1 1v10h-2l-1-9z" fill="#262325"/>
<path transform="translate(1037,1923)" d="m0 0 1 2 3 1h-2v3l3 1-2 4-3-1z" fill="#BBD5C5"/>
<path transform="translate(736,1926)" d="m0 0 4 1v6l-4 1v-4z" fill="#AECAB9"/>
<path transform="translate(955,1925)" d="m0 0 2 1 1 8-3 1-2-8z" fill="#C4DBCD"/>
<path transform="translate(251,1104)" d="m0 0h3v2h2v2l-2 1-1 6h-1z" fill="#262325"/>
<path transform="translate(1306,802)" d="m0 0v3l-3 3 4 3h-6l-1-3 2-4z" fill="#323735"/>
<path transform="translate(796,798)" d="m0 0h6l2 2v3l-5 1 1-5-3 1-2 2z" fill="#435249"/>
<path transform="translate(880,608)" d="m0 0h12l-1 2-10 1-2-2z" fill="#262325"/>
<path transform="translate(777,547)" d="m0 0 1 2-2 1 1 5h-5v-5z" fill="#262325"/>
<path transform="translate(960,542)" d="m0 0h6v4l-5 3 2-4-4 1z" fill="#818B85"/>
<path transform="translate(544,490)" d="m0 0 1 2h8v2h-12v-2z" fill="#262325"/>
<path transform="translate(1293,288)" d="m0 0 3 1v4h-8l1-3h2z" fill="#C4DBCD"/>
<path transform="translate(193,152)" d="m0 0 2 1-4 5 1 3-4-2-3-1 1-3 5-1z" fill="#4F6659"/>
<path transform="translate(199,39)" d="m0 0 4 1-1 3-2 1h-6l1-2h2v-2z" fill="#536C5D"/>
<path transform="translate(1172,1977)" d="m0 0 5 1 4 3 3 1v2l-5-1-3-3h-4z" fill="#262325"/>
<path transform="translate(537,1974)" d="m0 0h2l1 5-4 4v-8z" fill="#C2DACB"/>
<path transform="translate(936,1971)" d="m0 0h6v4h-6z" fill="#DBE9E0"/>
<path transform="translate(447,1925)" d="m0 0 3 4 3 3-1 3-5-1z" fill="#AECEBA"/>
<path transform="translate(1038,1920)" d="m0 0 4 1 7 4-4 1-5-3h-4v-2z" fill="#404E46"/>
<path transform="translate(424,1300)" d="m0 0h1v7l-6-1 1-3z" fill="#E0ECE4"/>
<path transform="translate(337,1287)" d="m0 0h7v3l-7-1v5h-1v-5l-2-1z" fill="#658A73"/>
<path transform="translate(1257,798)" d="m0 0 7 1 1 4-6 2 1-3h2l-1-2h-5z" fill="#3D4842"/>
<path transform="translate(739,598)" d="m0 0 5 1-1 4-5-1z" fill="#CAD8CF"/>
<path transform="translate(738,490)" d="m0 0 1 2h8v2h-12z" fill="#292829"/>
<path transform="translate(575,490)" d="m0 0 1 2h9l-1 2h-11z" fill="#262325"/>
<path transform="translate(272,138)" d="m0 0h1v10l-2 4h-2z" fill="#5B7967"/>
<path transform="translate(271,44)" d="m0 0 4 1 1 3-2 2-3 1-2-2h2z" fill="#688F78"/>
</svg>
