<?xml version="1.0" encoding="UTF-8"?>
<svg version="1.1" viewBox="0 0 993 1280" width="993" height="1280" xmlns="http://www.w3.org/2000/svg">
<path transform="translate(0)" d="m0 0h993v1280h-993z" fill="#FCFCFC"/>
<path transform="translate(42,1217)" d="m0 0h868l3 2-1 3h-871l-1-4z" fill="#419D63"/>
<path transform="translate(161,598)" d="m0 0 7 1 3 5 2 15v24l-1 32-2 23-3 3h-3l-1-17h-3l-2-9-3-1 2 11 1 18h2l-2 4-11 8h-2v2l-14 10-8 6h-1l1-15 5-34 6-29 7-24 8-19 6-9z" fill="#FDFDFD"/>
<path transform="translate(159,596)" d="m0 0h7l5 3 3 7 1 7v51l-1 26-1 5 10-5 7-4 3 1-5 5-4 6-10 7-1 2-3 48-2 8-4-1-1-5-1-29v-14l-7 4-5 12-6 24-6 21-5 6h-6l-4-4-3-7-1-8v-16l-13 5-4 3-4-1 2-4 14-9 5-6 3-28 2-10 2-13 5-25 4-15 8-24 8-16 5-5zm2 2-8 7-8 16-6 16-7 27-5 25-5 39v5l5-3 16-12 2-1v-2l5-2 10-8v-2h-2l-1-18-2-11 3 1 2 9h3l1 17 4-1 2-2 2-23 1-32v-24l-2-15-3-5z" fill="#405748"/>
<path transform="translate(873,42)" d="m0 0h3l16 34 6 13 4 3v2l-8 1h-12l-5-1 4-4-2-10h-19l-2 10 5 2v2l-14 1-2-2 5-6 15-33z" fill="#419D63"/>
<path transform="translate(816,40)" d="m0 0h10l12 3 4-2 1 6-1 12h-2l-5-9-4-3-3-1h-8l-6 3-4 5-2 7v12l2 9 4 6 5 2h8l6-2 6-4h2l-1 5-5 4-9 3h-10l-10-3-6-4-5-6-3-9v-11l4-10 5-5 6-5z" fill="#409C62"/>
<path transform="translate(159,596)" d="m0 0h7l5 3 3 7 1 7v51l-1 26h-1l-1-5h-1l1-42v-24l-2-15-2-4-7-1-7 6-8 16-6 16-7 27-5 25-5 39v4l16-12 2 1-3 4h-2l1 2 10-7 1 3-11 8-13 10-2 2-1 9h-1v-7h-4v2l-10 4-4 3-4-1 2-4 14-9 5-6 3-28 2-10 2-13 5-25 4-15 8-24 8-16 5-5z" fill="#407F57"/>
<path transform="translate(148,722)" d="m0 0 1 4-2 5v5l-3 9-6 23-5 10-5 1-4-6-2-8-1-22 9-8 8-6z" fill="#FDFDFD"/>
<path transform="translate(117,48)" d="m0 0 5 3v2l4 1 2 1v4l4 2 2 4v6h2l-1 6 2 1 1 7-4 1 1 5-4 3-1 4-5 3v2l-5 2-1 3-11-1 3-2 2-5-1-3 4-2 5 1 1 2 2-6 2 1 1-5h2l1-3-3-1 2-9-1-5-2-5-1-4h-2l-2-5h-4v-2l-3-1v-2h-2v-2z" fill="#408F5D"/>
<path transform="translate(89,48)" d="m0 0 5 1-2 4-3 3h-3l-2 4h-4l1 5-2 5-2 1 1 3-1 4 2 6-1 3 2 1 1 4 3 1 1 4h3l2 4 1-3h2l3 6v2l3 1-10 1-2-1v-2l-6-2-1-3-4-4-1-3-3-3 1-3-3-1-1-6 3-1-1-8 1-1v-5h3l1-5 2-1 1-4 5-3 1-2z" fill="#408359"/>
<path transform="translate(430,431)" d="m0 0h6l1 3-4 17-4 5-2 1h-8l-3-3 2-5 2-1v-7l4-7z" fill="#405848"/>
<path transform="translate(148,719)" d="m0 0m-9 1 2 1-3 4h-2l1 2 10-7 1 3-11 8-13 10-2 2-1 9h-1v-7h-4v2l-10 4-4 3-4-1 2-4 14-9 5-6 8-5z" fill="#405347"/>
<path transform="translate(168,708)" d="m0 0h1l1 6h1v29l-2 18-1 2-4-1-1-5v-16h1l1-30z" fill="#40604B"/>
<path transform="translate(148,721)" d="m0 0h2l1 6-7 27-6 21-5 6h-6l-4-4-3-7-1-8v-16l-3-1h4v7h2l2 18 4 8 5-1 5-13 7-27 1-3 1-6z" fill="#407754"/>
<path transform="translate(138,634)" d="m0 0 2 1-4 16-6 27-5 32-3 23-2 1v-12l3-21 2-15 6-28 4-15z" fill="#408D5C"/>
<path transform="translate(465,431)" d="m0 0h7l1 2-3 12 5-2v2l-7 3-3-3-3 2h-5l-1-1 1-9 6-5z" fill="#405748"/>
<path transform="translate(531,431)" d="m0 0h7l-1 10-1 4 5-2-3 4h-5l-2-3-3 3h-5l-2-5 3-6 5-4z" fill="#405447"/>
<path transform="translate(576,431)" d="m0 0 6 1 2 6-3 6-4 3-4 1-5-3v-6l4-6z" fill="#405C4A"/>
<path transform="translate(389,431)" d="m0 0 6 1 2 3-1 6-4 5-6 2-5-3v-6l3-5z" fill="#405F4B"/>
<path transform="translate(78,88)" d="m0 0h2l1 4 3 1 1 4h3l2 4 1-3h2l3 6v2l3 1-10 1-2-1v-2l-6-2-1-3-4-4-1-3-2-1v-2l5 1z" fill="#408459"/>
<path transform="translate(494,431)" d="m0 0 4 1-1 11 5-5 3-7 3 1-1 12 3-1-2 4-4 1-2-1-1-3-3 3h-5l-1-4 1-9-3 2v-3z" fill="#405547"/>
<path transform="translate(402,431)" d="m0 0 4 1 1 3 5-4 4 1-1 11-1 2 5-2-1 3-5 2-3-2 2-12-5 5-4 9-3-1 1-8 1-5-4 2 2-4z" fill="#405146"/>
<path transform="translate(589,431)" d="m0 0 4 1 1 3 5-4 4 1-1 11-1 2 5-2v2l-3 2h-5l-1-4 2-9-5 5-3 8h-4l1-13-3 2 2-4z" fill="#405045"/>
<path transform="translate(780,150)" d="m0 0h10l-1 5h-4v2l5-1 2-4h9l1 3-2 4h-18v-7l-2 8-2-1v-6z" fill="#40634D"/>
<path transform="translate(152,819)" d="m0 0h9l3 3v6l-4 4h-8z" fill="#406B50"/>
<path transform="translate(96,255)" d="m0 0h9l3 3v7l-2 3-9 1-1-2z" fill="#40694F"/>
<path transform="translate(123,93)" d="m0 0h1v5l4 1-3 2v2l-5 2-1 3-11-1 3-2 2-5-1-3 4-2 5 1 1 2z" fill="#409861"/>
<path transform="translate(370,425)" d="m0 0h11l-1 5-2-1v-2h-6l-5 5-1 10 2 3h9v2l-3 1h-9l-4-5v-8l4-7z" fill="#405648"/>
<path transform="translate(371,328)" d="m0 0h9l1 5 1 6-2 2h-9z" fill="#7E9988"/>
<path transform="translate(450,328)" d="m0 0h9l1 5-1 2h2l-1 5-1 1h-9z" fill="#8AAA96"/>
<path transform="translate(72,69)" d="m0 0h2v2l4 1-1 6 2 6-2 3 1 4-6-1 1-3-3-1-1-6 3-1-1-8z" fill="#409660"/>
<path transform="translate(157,597)" d="m0 0h6l-5 4-5 6-8 16-5 12h-1l1-8 9-21 5-7z" fill="#406D50"/>
<path transform="translate(521,422)" d="m0 0h7l-1 2-6 1-3 10-1 9 3-1-1 3-7 1v-7l3-12 4-5z" fill="#405447"/>
<path transform="translate(482,426)" d="m0 0h3v5h4v2h-5l-2 12 5-1-3 3-4 1-2-2 1-10 1-3-3-1 3-2z" fill="#405748"/>
<path transform="translate(886,151)" d="m0 0h2l-1 6h2v-5h14l1 3-2 4-7-1v-3l-2 4-1-4-1-1-1 5-5-1v-4h-2l-1 4h-2l1-6z" fill="#40694F"/>
<path transform="translate(869,61)" d="m0 0 3 4 3 7v4h-11l-1-3z" fill="#FDFDFD"/>
<path transform="translate(168,708)" d="m0 0h1v14l-1 19-1 7h-1l-1-15v-22z" fill="#FDFDFD"/>
<path transform="translate(443,431)" d="m0 0h3l2 3 4-3 4 1-2 3-4 1-4 6-2 5-4-1 3-12-5 2v-2z" fill="#405B4A"/>
<path transform="translate(148,721)" d="m0 0h2l1 6-7 27-4 15-2-3 4-17 3-12 1-3 1-6z" fill="#40935F"/>
<path transform="translate(548,426)" d="m0 0h3l-1 5 5 1v1l-5 1-1 11 3-1v2l-2 1h-6v-8l1-5-2-2 3-1z" fill="#405949"/>
<path transform="translate(585,1244)" d="m0 0h6l2 1v7l-6 2 7-1-2 3h-7l-3-4 1-6z" fill="#596F61"/>
<path transform="translate(159,596)" d="m0 0h7l5 3 3 7 1 7v23l-2 1-2-29-3-8-9-3z" fill="#407453"/>
<path transform="translate(719,512)" d="m0 0h5l2 3-1 9-1 1h-5l-2-3v-7z" fill="#40694F"/>
<path transform="translate(515,1246)" d="m0 0h5 2 9l1 7-2 1-1-2-3 2-2-6-1 6-8-1z" fill="#407554"/>
<path transform="translate(213,328)" d="m0 0h3l4 8 5-8 3 1v12l-4-1v-6l-3 7h-2l-3-6v6h-3z" fill="#407554"/>
<path transform="translate(387,292)" d="m0 0h5l2 5-1 7-1 1h-6l-1-2v-9z" fill="#407453"/>
<path transform="translate(322,255)" d="m0 0 4 1 2 7-2 5-4 1-3-3v-8z" fill="#40674E"/>
<path transform="translate(103,84)" d="m0 0h9l1 3v-3l4 1v8h-4-5v-2h-4-1z" fill="#449E66"/>
<path transform="translate(433,292)" d="m0 0h9l2 4-2 5 2 4-4-1-1-4h-2v5l-4-1z" fill="#6D8475"/>
<path transform="translate(339,292)" d="m0 0h4l3 9h2l3-9 4 1v12h-4v-7l-4 7-3-3-2-4v7l-3-1z" fill="#40644D"/>
<path transform="translate(553,1229)" d="m0 0h10l5 3v6h-2v-5h-2l-1 6-2-1-1-4-4 2-2 3-1-1z" fill="#4C6C58"/>
<path transform="translate(607,1246)" d="m0 0h11l2 2-1 5-3 1-1 2h-2v-3h-7l1-4z" fill="#698674"/>
<path transform="translate(825,100)" d="m0 0 4 2v3h2l6 9h-5l-3-4-1 4h-4l-1-13z" fill="#405146"/>
<path transform="translate(855,149)" d="m0 0 5 2 1 1h5l-1 6h-4-3l-5 1-1-3 2-6z" fill="#648470"/>
<path transform="translate(96,796)" d="m0 0 4 1 3 7 3-4 2-4h3v13l-4-1v-5l-3 6h-2l-3-7v7h-3z" fill="#40604B"/>
<path transform="translate(96,489)" d="m0 0 3 1 2 7 2-8h3l2 7 3-7 2 1-3 11-3 1-3-7-3 7h-2l-3-10z" fill="#405748"/>
<path transform="translate(658,489)" d="m0 0 4 1 2 7 2-8h3l2 7 2-6h3l-4 12h-2l-3-7-3 7h-2z" fill="#405E4B"/>
<path transform="translate(656,1244)" d="m0 0h2v3l4-1v8l-2-1v-2h-2v2h-7v3h-2v-10h5l1 1z" fill="#577060"/>
<path transform="translate(686,1229)" d="m0 0 4 1 1 1 1-2h5l1 8-4 2-2-1v-2h-2v2l-3 1-2-1 1-3h2l-2-3z" fill="#537560"/>
<path transform="translate(415,1200)" d="m0 0 2 4v6l-3-1v-5h-3v5l-4 1-5-1v-6l5-1 1 2 1-2 5-1z" fill="#405246"/>
<path transform="translate(834,150)" d="m0 0h2v2h5 2 5l1 2-2 5-2-3-3 3h-2l-4-1-1-1-2 2-1-2z" fill="#40674E"/>
<path transform="translate(819,135)" d="m0 0h6v4l-4 1v2h5l1-6 4-1 2 9h-2v-2l-4 2h-8l-1-4z" fill="#405F4B"/>
<path transform="translate(797,101)" d="m0 0h9l2 2-1 4-5 2v5h-4z" fill="#404742"/>
<path transform="translate(489,1229)" d="m0 0h6l1 3 6-1 1 7-5 1-2-3v-2l-5 1v3h-2z" fill="#575B58"/>
<path transform="translate(424,436)" d="m0 0 1 4 1 5 1 2-5 3v4l4 3h-7l-3-3 2-5 2-1v-7l1-3z" fill="#405447"/>
<path transform="translate(442,488)" d="m0 0 2 1v4h5l1 6-2 3h-6l-1-4v-9z" fill="#6F937C"/>
<path transform="translate(613,431)" d="m0 0 6 1-2 4-1-3-3 1 2 4 2 3-1 4-2 2h-8l1-3 5 1-1-4-2-3 1-5z" fill="#405C4A"/>
<path transform="translate(211,488)" d="m0 0 2 1v13h-7l-1-1v-7l5-1z" fill="#6B8D77"/>
<path transform="translate(303,327)" d="m0 0 2 1v13h-7l-1-1v-7l5-1z" fill="#6B8C77"/>
<path transform="translate(850,100)" d="m0 0 6 1-1 4-1-3h-4v3l6 2 1 5-3 3-7-1 1-4 2 2 4 1-7-7 1-5z" fill="#40664E"/>
<path transform="translate(186,795)" d="m0 0 2 1v13h-7l-1-1v-7l5-2z" fill="#9AB1A3"/>
<path transform="translate(89,146)" d="m0 0h5l2 2 4 1v7h-5l1-6-5 2-1 4-2-1v-8z" fill="#486E56"/>
<path transform="translate(639,516)" d="m0 0h7l1 1v7l-5 1-1 5-2-1z" fill="#89A995"/>
<path transform="translate(545,488)" d="m0 0h2v14h-7l-1-2v-6l5-2z" fill="#78897E"/>
<path transform="translate(399,327)" d="m0 0h1v14h-7l-1-1v-7l1-1h5l-1-4z" fill="#9AAFA2"/>
<path transform="translate(156,493)" d="m0 0h8l1 7-2 2h-4v5l-3-1z" fill="#6D8676"/>
<path transform="translate(489,488)" d="m0 0 2 4v10h-7l-1-1v-7l5-1z" fill="#6D8F79"/>
<path transform="translate(263,369)" d="m0 0 3 1-1 4 2-1v-4h3v5l-1 2 2 1-1 5h-8z" fill="#72907D"/>
<path transform="translate(576,327)" d="m0 0 2 4 5 2v7l-1 1h-6l-1-1v-12z" fill="#6D907A"/>
<path transform="translate(477,327)" d="m0 0 2 1v13h-7l-1-2v-6l1-1h5l-1-4z" fill="#78897E"/>
<path transform="translate(679,511)" d="m0 0 2 4 5 2v6l-1 2h-7v-13z" fill="#79897F"/>
<path transform="translate(214,364)" d="m0 0 7 1 1 5-2 2h-4l1 6h-4v-13z" fill="#405B4A"/>
<path transform="translate(263,1231)" d="m0 0 5 1 4-1 4 1v7h-2v-6l-2 1-1 5h-7l-2-4z" fill="#40694F"/>
<path transform="translate(242,511)" d="m0 0h2v14h-6l-2-2 1-7h5l-1-4z" fill="#75877C"/>
<path transform="translate(868,152)" d="m0 0h11l1 3-1 3-5 1v-2h-2v2l-6 1z" fill="#496C56"/>
<path transform="translate(502,1202)" d="m0 0 4 1 4-1 4 2v5l-2 1-1-5h-1l-1 5h-8l-1-4z" fill="#52755F"/>
<path transform="translate(274,1200)" d="m0 0h2v2l4 1 3-3 1 6-1 4-3-1-1 1h-5z" fill="#608E71"/>
<path transform="translate(711,493)" d="m0 0h7l-2 6-1 1 3 1-1 5-2-1v-2h-3l1 4-4-1 1-12z" fill="#768C7E"/>
<path transform="translate(887,492)" d="m0 0 3 2v7l-5 1v5l-3-1v-13z" fill="#71897A"/>
<path transform="translate(887,101)" d="m0 0h5l4 5v-5l3 1-1 12-6-5-2-3-1 8h-2z" fill="#405B4A"/>
<path transform="translate(532,1200)" d="m0 0 6 1 1 1v6l-2 2-6-1-1-7z" fill="#94AC9D"/>
<path transform="translate(138,634)" d="m0 0 2 1-4 16-4 17h-2l1-10 4-15z" fill="#408F5E"/>
<path transform="translate(284,515)" d="m0 0 3 2v8l-3-1v-6l-2-1v8h-3v-8h-2v8h-3v-9z" fill="#40644D"/>
<path transform="translate(591,511)" d="m0 0h1l1 14h-7l-2-3 1-5 5-1z" fill="#728679"/>
<path transform="translate(563,431)" d="m0 0 2 2-3 12 5-2v2l-3 2h-5l-1-5 2-7-3-1 3-2z" fill="#405A49"/>
<path transform="translate(412,431)" d="m0 0 4 1-1 11-1 2 5-2-1 3-5 2-3-2 2-12-2-1z" fill="#405848"/>
<path transform="translate(251,255)" d="m0 0h2l1 4 4 1 1 6-3 3-5-1z" fill="#9AB4A4"/>
<path transform="translate(217,256)" d="m0 0 5 1 1 7-4 4-4-2v-8z" fill="#FDFDFD"/>
<path transform="translate(557,1202)" d="m0 0h5l2 3 2-3 4 1v7h-5l-4-1v-5h-2v5l-2 1z" fill="#40654D"/>
<path transform="translate(673,515)" d="m0 0 3 2v8l-3-1v-6l-2-1v8h-3v-8l-2 1v7h-3v-9z" fill="#40634D"/>
<path transform="translate(497,512)" d="m0 0h8l2 2-1 4-5 2v5l-4-1z" fill="#97B0A0"/>
<path transform="translate(599,431)" d="m0 0 4 1-1 11-1 2 5-2v2l-3 2h-5l-1-4 2-9-2-1z" fill="#405848"/>
<path transform="translate(275,492)" d="m0 0 3 1h7l1 2v7h-3v-8l-2 1-1 7-3-1 1-6-4 1v6h-3v-9z" fill="#405246"/>
<path transform="translate(216,255)" d="m0 0h6l3 3v7l-4 4h-5l-4-5 1-7zm1 1-2 2v8l4 2 4-4-1-7z" fill="#406A4F"/>
<path transform="translate(131,84)" d="m0 0 2 1 2 6-4 3-1 4h-6v-6l2 1 1-5h2z" fill="#40865A"/>
<path transform="translate(117,512)" d="m0 0h8l1 1v5l-5 2v5h-4z" fill="#99ABA0"/>
<path transform="translate(99,515)" d="m0 0 5 2v6l-1 2h-6l-2-6z" fill="#809D8A"/>
<path transform="translate(357,292)" d="m0 0 4 1 4 6v2h2l-1-9h2v13l-4-2-4-6v8h-3z" fill="#405C4A"/>
<path transform="translate(201,823)" d="m0 0h6l2 3-1 5-1 1h-6l-1-1v-6z" fill="#40644D"/>
<path transform="translate(267,515)" d="m0 0 5 2v7l-1 1h-6l-1-1v-7z" fill="#819A8A"/>
<path transform="translate(109,332)" d="m0 0h6l1 7-1 2h-6l-2-3 1-5z" fill="#839D8D"/>
<path transform="translate(447,515)" d="m0 0 4 1 1 7-2 2h-5l-2-3 1-5z" fill="#40614C"/>
<path transform="translate(197,515)" d="m0 0 5 2v6l-2 2h-5l-2-6z" fill="#40634D"/>
<path transform="translate(376,493)" d="m0 0h6l2 2-1 6-1 1h-5l-2-2z" fill="#849D8D"/>
<path transform="translate(226,493)" d="m0 0h6l1 1v7l-1 1h-6l-2-5z" fill="#829A8A"/>
<path transform="translate(265,492)" d="m0 0 4 2 1 5-2 3h-5l-2-2 1-7z" fill="#849B8D"/>
<path transform="translate(285,1244)" d="m0 0h2l1 3 1-3h3l1 2 4-2-2 9h-3l-1-3-2 3-3-1z" fill="#405C4A"/>
<path transform="translate(303,823)" d="m0 0h5l2 3-1 5-1 1h-6l-1-7z" fill="#40614C"/>
<path transform="translate(358,516)" d="m0 0h6l1 1v7l-1 1h-6l-1-1v-7z" fill="#829B8B"/>
<path transform="translate(430,443)" d="m0 0 1 2-2 8-2 2h-5l-2-4 4-4 5-3z" fill="#FDFDFD"/>
<path transform="translate(290,292)" d="m0 0 3 1 5 12h-4l-1-3-5-1v4l-3-1z" fill="#617B6B"/>
<path transform="translate(389,433)" d="m0 0 3 1v8l-4 4-3-2 1-8z" fill="#FDFDFD"/>
<path transform="translate(436,332)" d="m0 0h6l1 2v6l-1 1h-6l-1-1v-7z" fill="#869D8E"/>
<path transform="translate(791,152)" d="m0 0h10l1 3-2 4h-10l-2-2 2-1z" fill="#588B6A"/>
<path transform="translate(877,100)" d="m0 0 3 4 4 8v2h-5l-2-4v-3h-2l-1 5-1 2h-2l2-5z" fill="#40634D"/>
<path transform="translate(467,515)" d="m0 0 3 1h5l-1 2-2-1v2l4 2-1 4h-5v-3l3 2v-3l-4-2h-3v6h-3v-9z" fill="#407353"/>
<path transform="translate(342,332)" d="m0 0h13v9h-2v-8l-2 1-1 7h-2l-1-7-2-1v8h-3z" fill="#405849"/>
<path transform="translate(274,332)" d="m0 0h12l1 9h-3v-8l-2 1v7h-3l-1-7h-1l-1 7h-2z" fill="#405A49"/>
<path transform="translate(225,292)" d="m0 0h4l1 3 3-1 1-2 3 1-3 4h-2l5 8h-4l-3-4-2 4-4-1 4-5-2-4z" fill="#405A49"/>
<path transform="translate(814,101)" d="m0 0 2 1 5 12h-5l-1-4-2-1 1-2h-2l-1 4-1 3h-2l2-6z" fill="#405C4A"/>
<path transform="translate(299,292)" d="m0 0h4v8l1 3h4l1-11h2v10l-2 3h-7l-2-2z" fill="#407152"/>
<path transform="translate(100,256)" d="m0 0 5 2 1 1-1 7-1 1h-5v-10z" fill="#FDFDFD"/>
<path transform="translate(89,48)" d="m0 0 5 1-2 4-3 3h-3l-2 4-3-1 2-1-1-2-3-1 5-3 1-2z" fill="#408E5D"/>
<path transform="translate(222,819)" d="m0 0h9l-1 3v-2h-5l1 4 2 1 1-2-1 4-3-1v5l7-2-1 3h-9z" fill="#406D51"/>
<path transform="translate(155,820)" d="m0 0 5 1 2 2-1 6-2 2h-4z" fill="#FDFDFD"/>
<path transform="translate(576,433)" d="m0 0 3 1v8l-3 3-4-1 1-8z" fill="#FDFDFD"/>
<path transform="translate(66,115)" d="m0 0h8l3 3v7h-5v-8h-2v8h-2l-1-7z" fill="#406B50"/>
<path transform="translate(638,1246)" d="m0 0h6v9l-5 1-2-2v-6z" fill="#5E7767"/>
<path transform="translate(467,1246)" d="m0 0h9l1 7-3-1v-3l-1 4h-2v-5h-2v5l-2 1-1-2-3-1v-2h3z" fill="#40674E"/>
<path transform="translate(422,1246)" d="m0 0h5v9l-1 1h-5l-1-5 1-4z" fill="#5B7966"/>
<path transform="translate(114,99)" d="m0 0m-1 1 2 2h2l4-1 3 1-1 2-3 1-1 3-11-1 3-2z" fill="#407B56"/>
<path transform="translate(523,1229)" d="m0 0 2 4v6l-3-1v-5l-2 1 1 4-4 1-2-1v-6l5-1z" fill="#43654F"/>
<path transform="translate(247,1200)" d="m0 0h7l1 2h-5l4 2 1 5-1 1h-6l-1-1z" fill="#406A4F"/>
<path transform="translate(124,795)" d="m0 0 2 1v3l5 2v8h-3v-7l-2-1v8h-3v-13z" fill="#406A4F"/>
<path transform="translate(116,745)" d="m0 0h4v7h2l1 17-3 1-1-8v-16z" fill="#408D5D"/>
<path transform="translate(386,511)" d="m0 0 4 1-1 3-5-2v3l5 2 2 4-2 3h-7l-1-3 6 1 1-3-5-2-2-2 1-4z" fill="#40684F"/>
<path transform="translate(827,488)" d="m0 0 2 2v2l5 2v8h-3v-8h-2v8h-3v-13z" fill="#406B50"/>
<path transform="translate(728,488)" d="m0 0 5 1-1 3-5-2 1 3 5 3 1 3-2 3h-7l-1-3 6 1v-3l-5-3-1-4z" fill="#40684F"/>
<path transform="translate(446,292)" d="m0 0 4 1 5 7v-8h3l-1 13h-2l-6-9v9l-3-1z" fill="#405146"/>
<path transform="translate(325,292)" d="m0 0h4v9l1 2h4l1-11h2v10l-2 3h-7l-2-2z" fill="#406F51"/>
<path transform="translate(240,796)" d="m0 0h8l-1 3v-2l-6 2v7l5 1 1-4h2v5l-2 1h-7l-3-5 1-6z" fill="#406C50"/>
<path transform="translate(255,292)" d="m0 0h9v3l-5-1v3l4-1v5l-1-2h-4l1 4 5 1 1-2v3h-10z" fill="#40604B"/>
<path transform="translate(213,292)" d="m0 0h9l-1 3-5-2v5l5-2v4l-5-1v5l7-2v3h-10z" fill="#406E51"/>
<path transform="translate(847,135)" d="m0 0 5 1 1 1v5l-2 2-5-1-1-6z" fill="#707E75"/>
<path transform="translate(868,100)" d="m0 0 3 1v3h-2v-2h-3l1 12h-5l1-12-5 1v-2z" fill="#405547"/>
<path transform="translate(338,488)" d="m0 0h1v5l4-1 2 2v8h-3v-7l-2-1v8h-3v-13z" fill="#40654D"/>
<path transform="translate(98,364)" d="m0 0h5l1 4-1-2h-5l3 3 4 3-1 5-1 1h-6v-3l5 1 1-3-6-2-1-5z" fill="#40604C"/>
<path transform="translate(552,1244)" d="m0 0 2 1 1 8h-6v-3h-2l1 3h-3v-6l6-2z" fill="#405547"/>
<path transform="translate(620,512)" d="m0 0h8l-1 3-5-2v3l5 2 2 2-1 4-1 1h-7l-1-3 6 1v-3l-5-3z" fill="#40624C"/>
<path transform="translate(78,88)" d="m0 0h2l1 4 3 1-1 5h-6l-2-5-2-1v-2l5 1z" fill="#407955"/>
<path transform="translate(428,433)" d="m0 0 4 1-1 5-5 6-2-1 1-7z" fill="#FDFDFD"/>
<path transform="translate(834,135)" d="m0 0h5l2 2-1 6-1 1h-5z" fill="#68786E"/>
<path transform="translate(359,1246)" d="m0 0h5l1 1v6l-6 3-1-1v-8z" fill="#5B7C67"/>
<path transform="translate(485,1244)" d="m0 0h2v9l-7 1-2-4 1-4 5 1z" fill="#475B4E"/>
<path transform="translate(123,707)" d="m0 0h1v11l-2 15-2 1v-12l1-7 1-1z" fill="#40855A"/>
<path transform="translate(400,488)" d="m0 0h2v5h5l1 9h-3v-8l-2 1v7h-3z" fill="#405F4B"/>
<path transform="translate(464,433)" d="m0 0 4 1-1 5-4 5-3 1v-6z" fill="#FDFDFD"/>
<path transform="translate(312,328)" d="m0 0 4 1v11l5-2v-10l3 1-1 10-1 2h-8l-2-7z" fill="#405848"/>
<path transform="translate(245,292)" d="m0 0h7l1 3h-2v-2l-4 2 6 4v5l-1 1h-7v-3l5 1-1-3-4-2-1-5z" fill="#406C50"/>
<path transform="translate(431,1246)" d="m0 0h6l1 1v5l-4 2-1 2h-2z" fill="#5F7165"/>
<path transform="translate(454,1244)" d="m0 0h8l-1 5-4 1 4 1-1 3h-5l-1-1z" fill="#405849"/>
<path transform="translate(97,819)" d="m0 0h7l-1 3v-2l-4 1-1 2 6 2 1 1v5l-2 1h-7l1-3 5 1-1-3-5-3z" fill="#40664E"/>
<path transform="translate(562,511)" d="m0 0 2 1v4l5 1v8h-3v-7l-2-1v8h-3v-13z" fill="#40614C"/>
<path transform="translate(525,511)" d="m0 0 5 2-2 1-4 1 6 4v5l-1 1h-8l1-3 5 1 1-3-5-2-2-2 1-4z" fill="#405A49"/>
<path transform="translate(117,364)" d="m0 0h2l1 6v6l2-1-1-6h3l1 6-2 3h-6l-1-13z" fill="#404A43"/>
<path transform="translate(501,328)" d="m0 0 4 1 4 7 3-4-1 5-3 4-3-5-1-2v7l-3-1z" fill="#405F4B"/>
<path transform="translate(241,327)" d="m0 0h1v5h5l1 9h-3v-8h-2v8h-3v-13z" fill="#405D4B"/>
<path transform="translate(396,292)" d="m0 0h5l2 2-1 4-4 4h5l-1 3h-7l1-5 3-3 1-4-5 3z" fill="#406D50"/>
<path transform="translate(839,101)" d="m0 0h6l-1 13h-4z" fill="#404943"/>
<path transform="translate(316,1200)" d="m0 0 2 1v8l-5 1-2-2 1-5z" fill="#557962"/>
<path transform="translate(253,795)" d="m0 0h1v5h5l1 9h-3v-8l-2 1v7h-3v-13z" fill="#405B49"/>
<path transform="translate(728,512)" d="m0 0h6l1 5-5 5h5v3h-8l1-5 4-4v-2l-5 1z" fill="#40694F"/>
<path transform="translate(393,511)" d="m0 0 2 1 1 5 3-1-1 4 2 5-3-1-1-2-1 3h-3v-13z" fill="#405949"/>
<path transform="translate(367,516)" d="m0 0h7l1 2v7h-3v-8h-2v8h-3z" fill="#406F51"/>
<path transform="translate(850,488)" d="m0 0h2v5h5l1 9h-3v-8l-2 1-1 7h-2l-1-13z" fill="#405547"/>
<path transform="translate(530,433)" d="m0 0 4 1-2 6-6 5v-7z" fill="#FDFDFD"/>
<path transform="translate(96,292)" d="m0 0h3v6h5l3 5v2h-3l-4-5v5l-4-1z" fill="#405447"/>
<path transform="translate(111,259)" d="m0 0 5 1 1 2v6l-4 1-4-2 2-4h3v-3l-4 2z" fill="#528163"/>
<path transform="translate(205,1229)" d="m0 0h2v9l-5 1-2-2v-5l5-1z" fill="#597F67"/>
<path transform="translate(550,1200)" d="m0 0h2v9l-5 1-2-2 1-5 3-1z" fill="#607869"/>
<path transform="translate(677,1200)" d="m0 0 5 1v7l-2 2-4-1v-8z" fill="#526B5B"/>
<path transform="translate(341,515)" d="m0 0 3 1 1 9h-7l-1-4 5-2v-2l-4 1v-2z" fill="#597D66"/>
<path transform="translate(538,511)" d="m0 0 5 2v2h-2v-2l-6 2v6l2 2 6-1-2 3h-6l-3-3-1-4 3-6z" fill="#40694F"/>
<path transform="translate(811,493)" d="m0 0h3l2 4 1-4h3l1 4 2-1-1 6h-2l-1-4h-2l-1 4-3-3z" fill="#405F4B"/>
<path transform="translate(773,489)" d="m0 0h11l-1 3v-2h-3l1 12h-5l1-5v-7h-3l-1 2z" fill="#40694F"/>
<path transform="translate(253,331)" d="m0 0 3 2 1 8h-8l1-5 4-1v-2l-4 2v-3z" fill="#597362"/>
<path transform="translate(230,332)" d="m0 0 3 1v7h2v-8l3 1v8h-7l-1-2z" fill="#407453"/>
<path transform="translate(554,328)" d="m0 0h11v2l-4-1 1 12h-5l1-12-4 1z" fill="#407453"/>
<path transform="translate(497,292)" d="m0 0h5l1 1v5l-4 4h4v3h-7l1-5 3-3-1-3-3 2z" fill="#40644D"/>
<path transform="translate(780,1229)" d="m0 0h5l1 7-1 2-4 1-2-3z" fill="#4F775D"/>
<path transform="translate(752,1229)" d="m0 0 5 1v8l-4 1-2-1v-8z" fill="#5A6E61"/>
<path transform="translate(475,1229)" d="m0 0h4l1 5-1 4h-5l-1-7z" fill="#567D64"/>
<path transform="translate(285,800)" d="m0 0h5l1 1v8h-7l1-5 3-2-4 1z" fill="#5D7967"/>
<path transform="translate(515,511)" d="m0 0 4 1v3h-2v-2l-5 1-1 7 2 2 6-1-2 3h-6l-3-3v-7l2-3z" fill="#406C50"/>
<path transform="translate(410,493)" d="m0 0h5l2 7v2h-7l-1-4 5-2v-2l-4 2z" fill="#5A7D66"/>
<path transform="translate(334,332)" d="m0 0h5l1 1v8h-7l1-5 3-2-2-1-1 2z" fill="#567561"/>
<path transform="translate(289,332)" d="m0 0h5l1 1 1 8h-7l-1-4 5-2v-2l-4 2z" fill="#5A7463"/>
<path transform="translate(517,292)" d="m0 0h5l1 7v5l-1 1h-6l-1-3 5 1v-3l-2-1v-2h2v-4l-4 3v-3z" fill="#40684F"/>
<path transform="translate(678,1229)" d="m0 0 5 1v7l-3 2-3-2v-7z" fill="#5A7162"/>
<path transform="translate(467,1229)" d="m0 0 5 1v7l-5 1-1-1v-7z" fill="#6D7770"/>
<path transform="translate(617,1200)" d="m0 0 4 1v8l-5 1-1-2v-6z" fill="#5E6F64"/>
<path transform="translate(252,823)" d="m0 0h7l1 4v5h-3v-8h-2v8h-3z" fill="#40674E"/>
<path transform="translate(282,823)" d="m0 0h6l1 9h-7l-1-3 1-2 3-1 1-2-4 2z" fill="#5A7C67"/>
<path transform="translate(262,800)" d="m0 0h5l1 1v8h-7l1-5 4-1v-2h-3l-1 2z" fill="#5A7664"/>
<path transform="translate(172,800)" d="m0 0h5l2 7v2h-7l-1-3 3-3h2v-2l-4 2z" fill="#577662"/>
<path transform="translate(133,800)" d="m0 0h6l1 9h-7l-1-4 4-2 1-2-4 2z" fill="#5E7868"/>
<path transform="translate(219,516)" d="m0 0h5l1 2v7h-7l1-5 3-3-4 1z" fill="#537860"/>
<path transform="translate(175,516)" d="m0 0h5l1 1v8h-7l1-5 3-2-4-1z" fill="#5E7566"/>
<path transform="translate(433,512)" d="m0 0h8l-1 3v-2l-6 2v6l1 2 7-1-2 3h-7l-3-5 2-7z" fill="#40654E"/>
<path transform="translate(257,511)" d="m0 0 5 2v2h-2v-2l-5 1-1 7v2h5l3-2-2 4h-6l-3-3v-7l2-3z" fill="#40694F"/>
<path transform="translate(131,492)" d="m0 0 3 1 1 9h-7l-1-3 3-3h2v-2l-4 1v-2z" fill="#5A7865"/>
<path transform="translate(386,434)" d="m0 0 1 2-1 8 3 3-3 1-5-3v-6z" fill="#404F45"/>
<path transform="translate(567,332)" d="m0 0h5l1 1v8h-7l1-5 4-1v-2h-3l-1 2z" fill="#5E7868"/>
<path transform="translate(463,332)" d="m0 0h5l1 1v8h-6l-1-4 5-2v-2l-4 2z" fill="#5E7C69"/>
<path transform="translate(384,332)" d="m0 0h5l1 1 1 8h-7l-1-4 5-2v-2l-4 2z" fill="#5E7C69"/>
<path transform="translate(528,332)" d="m0 0h7l1 1v8h-3v-7l-2-1v8h-3z" fill="#40694F"/>
<path transform="translate(481,332)" d="m0 0h6l1 9h-7l-1-3 3-3h2v-2l-4 2z" fill="#5A7664"/>
<path transform="translate(450,328)" d="m0 0h3v12l5-2v-3h3l-1 5-1 1h-9z" fill="#405849"/>
<path transform="translate(614,1229)" d="m0 0 5 1v7l-4 2-2-2v-7z" fill="#5B7062"/>
<path transform="translate(215,800)" d="m0 0h5l1 1v8h-7l1-5 3-2-4-1z" fill="#5B7865"/>
<path transform="translate(453,516)" d="m0 0h3v8l2-1v-7h3v9h-7l-1-2z" fill="#40644D"/>
<path transform="translate(294,515)" d="m0 0 3 2v8l-3-1v-6l-2-1v8h-3v-9z" fill="#40644D"/>
<path transform="translate(605,516)" d="m0 0h7l1 2v7h-3v-8l-2 1v7h-3z" fill="#40624C"/>
<path transform="translate(319,515)" d="m0 0 3 3v7h-3v-8h-2v8h-3v-9z" fill="#40644D"/>
<path transform="translate(892,493)" d="m0 0h6l1 9h-7l-1-3 1-2 3-1 1-2-4 2z" fill="#5B7B67"/>
<path transform="translate(181,493)" d="m0 0h5l1 1v8h-7l1-5 4-1v-2l-5 1z" fill="#5F7667"/>
<path transform="translate(736,488)" d="m0 0 2 1v6h2l4 7-4-1-1-2-1 3h-3v-13z" fill="#405F4B"/>
<path transform="translate(516,493)" d="m0 0h5l1 1 1 8h-8l1-5 3-1 1-2-5 1z" fill="#576E5F"/>
<path transform="translate(705,492)" d="m0 0 3 2v8h-3v-7l-2-1v8h-3v-9z" fill="#406F51"/>
<path transform="translate(245,493)" d="m0 0h7l1 1v8l-3-1v-6l-2-1v8h-3z" fill="#40664E"/>
<path transform="translate(347,493)" d="m0 0h6l1 9h-7l-1-3 3-3h2v-2l-4 1z" fill="#5B7966"/>
<path transform="translate(573,434)" d="m0 0 1 2-1 8 3 3-3 1-5-3v-6z" fill="#404C44"/>
<path transform="translate(403,332)" d="m0 0h5l1 9h-7l1-5 3-3-4 1z" fill="#577964"/>
<path transform="translate(377,292)" d="m0 0h5l1 1v5l-4 4 4 1v2h-7l1-5 3-3v-3l-2-1-1 3-1-3z" fill="#40624C"/>
<path transform="translate(331,255)" d="m0 0 5 1 1 4-6 7 6-1-2 3-6-1 2-6 3-1v-4h-3v2h-2z" fill="#40664E"/>
<path transform="translate(304,1244)" d="m0 0h2v2l4 1 1 4-1 2h-6z" fill="#676C68"/>
<path transform="translate(295,1228)" d="m0 0 3 1 2 5v5l-2-1v-2l-6 2z" fill="#485C4F"/>
<path transform="translate(363,1229)" d="m0 0h5l1 4v5h-3l-1-4-1 5-2-1v-8z" fill="#405F4B"/>
<path transform="translate(650,1229)" d="m0 0 5 1v7l-2 2-4-1v-2h3l-3-2z" fill="#4F6156"/>
<path transform="translate(394,1229)" d="m0 0h4l3 1-1 5 1 4-3-2v-2h-2l-1 4-2-4v-5z" fill="#405F4B"/>
<path transform="translate(442,1200)" d="m0 0h2v10h-5l-1-1v-6l3-1z" fill="#5F6F65"/>
<path transform="translate(157,800)" d="m0 0h7l1 4v5h-3v-8l-2 1v7h-3z" fill="#40674E"/>
<path transform="translate(184,514)" d="m0 0 2 1v8l3 1v-8h2l1 9h-8l-1-1v-9z" fill="#405447"/>
<path transform="translate(357,332)" d="m0 0h6l1 9h-7l1-5 3-3-4 1z" fill="#5B7966"/>
<path transform="translate(148,296)" d="m0 0h7l1 9h-3v-6h-2v6h-3z" fill="#40654D"/>
<path transform="translate(744,1229)" d="m0 0h5l1 2v6l-1 1h-5v-2l3-1h-3z" fill="#486653"/>
<path transform="translate(460,1229)" d="m0 0 5 1v7l-5 1-1-1v-7z" fill="#546A5C"/>
<path transform="translate(609,1200)" d="m0 0 5 1v8l-5 1v-2h3v-2l-3 1-1-6z" fill="#4C6A57"/>
<path transform="translate(311,823)" d="m0 0h7l1 1v8h-3v-7l-2-1v8h-3z" fill="#40644D"/>
<path transform="translate(227,516)" d="m0 0h7l1 6v3h-3v-8l-2 1-1 7-3-1z" fill="#40604B"/>
<path transform="translate(644,493)" d="m0 0h7l1 1v8l-3-1 1-7h-3v8h-3z" fill="#40644D"/>
<path transform="translate(385,493)" d="m0 0h2l1 2v6l2-1v-7h3v9h-7l-1-2z" fill="#40644D"/>
<path transform="translate(312,255)" d="m0 0 5 1v5l-3 3h-2v3l5-2v3l-7 1v-5l4-4-1-3-3 2v-3z" fill="#405E4B"/>
<path transform="translate(813,150)" d="m0 0h2l1 2h5v6l-2 1-1-3-1 2-5 1z" fill="#446C52"/>
<path transform="translate(214,1229)" d="m0 0h3l2 5v5l-2-1v-2l-6 2z" fill="#445B4C"/>
<path transform="translate(452,1200)" d="m0 0h3l2 10-2-1v-2l-3 1-1 2h-2l2-9z" fill="#405748"/>
<path transform="translate(160,573)" d="m0 0 3 1v7h2v-8h3v9h-7z" fill="#406B4F"/>
<path transform="translate(709,512)" d="m0 0h5l1 5-5 6 5-1v3h-7l1-5 3-3 1-4h-3l-1 3-1-3z" fill="#405547"/>
<path transform="translate(317,493)" d="m0 0h2l1 7 2 1v-8h3v9h-7l-1-1z" fill="#405F4B"/>
<path transform="translate(227,368)" d="m0 0 3 1 1 9h-7l-1-4 2-2h3z" fill="#61796A"/>
<path transform="translate(611,332)" d="m0 0h7l1 1v8h-3v-8l-2 1v7h-3z" fill="#405D4A"/>
<path transform="translate(110,296)" d="m0 0h5l1 5h-4v2l3 2h-5l-2-5z" fill="#598368"/>
<path transform="translate(270,292)" d="m0 0h7l1 4-3-2h-4l-1 7 1 2 5 1v1h-7l-2-3v-7z" fill="#40694F"/>
<path transform="translate(49,130)" d="m0 0 4 1v3h-2v3h2l-1 4-4-1-1-1v-7z" fill="#405F4B"/>
<path transform="translate(643,1229)" d="m0 0 5 1v7l-1 1h-5v-2h3l-3-2z" fill="#506056"/>
<path transform="translate(585,1229)" d="m0 0 5 1v7l-5 1-1-4z" fill="#516457"/>
<path transform="translate(578,1229)" d="m0 0 5 1v7l-1 1h-5v-2l4-1-4-1z" fill="#506056"/>
<path transform="translate(685,1200)" d="m0 0 4 1-1 2-2-1v2h3v5l-4 1-2-3 1-6z" fill="#4C6C58"/>
<path transform="translate(223,800)" d="m0 0h7l1 1v8l-3-1v-6l-2-1v8h-3z" fill="#405D4A"/>
<path transform="translate(293,800)" d="m0 0h7l1 9h-3v-8l-2 1-1 7h-2z" fill="#40614C"/>
<path transform="translate(688,516)" d="m0 0h6l1 4-5 1 1 2h3v2h-5l-2-2z" fill="#518062"/>
<path transform="translate(159,516)" d="m0 0h7l1 1v8l-3-1v-6l-2-1v8h-3z" fill="#405B4A"/>
<path transform="translate(366,492)" d="m0 0 3 3 1 2 2-4h2l-3 9-2 4-4 1 1-3 2 1-1-7-2-5z" fill="#407252"/>
<path transform="translate(258,332)" d="m0 0h8l1 2-1 7h-2v-8l-2 1-1 7h-3z" fill="#405B4A"/>
<path transform="translate(120,291)" d="m0 0 4 1-1 2-2-1 1 4-1 8h-3l-1-9z" fill="#407252"/>
<path transform="translate(99,292)" d="m0 0h6l2 2-1 4-2 1-5-1z" fill="#9CB7A6"/>
<path transform="translate(262,259)" d="m0 0 5 1v4h-5l1 2 3 2-4 1-2-2v-6z" fill="#5D836B"/>
<path transform="translate(347,1229)" d="m0 0h5l1 3h-5v3h5v3l-5 1-3-3v-5z" fill="#405C4A"/>
<path transform="translate(177,1229)" d="m0 0 2 1v9l-3-1v-5h-3v6l-2-1v-7l5-1z" fill="#405C4A"/>
<path transform="translate(704,1229)" d="m0 0 5 1v7l-5 1-1-2 4-1-4-1z" fill="#516959"/>
<path transform="translate(714,1229)" d="m0 0h7l-1 6h-3l-1 4-2-2z" fill="#406A4F"/>
<path transform="translate(474,1202)" d="m0 0 4 1 1 5-2 2-4-1-1-5z" fill="#62806D"/>
<path transform="translate(366,1200)" d="m0 0h2v2l4 1 1 1v5h-3l-1-4-1 5h-2z" fill="#40644D"/>
<path transform="translate(272,823)" d="m0 0h7l1 1v8h-2l-1-7h-1l-1 7h-3z" fill="#405547"/>
<path transform="translate(113,800)" d="m0 0h2l1 7 2 1v-8h3v9h-7l-1-2z" fill="#40664E"/>
<path transform="translate(142,800)" d="m0 0h7l1 2v7h-3v-8l-2 1-1 7-3-1v-7z" fill="#405347"/>
<path transform="translate(111,573)" d="m0 0 2 1v6h2v-5l-1-2 4 1v6l-1 2h-6l-2-3 1-5z" fill="#40664E"/>
<path transform="translate(108,511)" d="m0 0 4 1-1 2-1-1-1 12h-3v-11z" fill="#407553"/>
<path transform="translate(308,493)" d="m0 0 3 1-1 1v5h2v-7l3 1 1 5-2 3h-6l-1-2v-6z" fill="#40644D"/>
<path transform="translate(561,493)" d="m0 0h3v8l2-1v-7h3v9h-7z" fill="#405E4B"/>
<path transform="translate(297,493)" d="m0 0h3l1 5h2l1-5 2 1-5 12-4 1v-3l3 1-1-6z" fill="#406A4F"/>
<path transform="translate(810,135)" d="m0 0h2l2 2 1-2h2v8l-2 1v-4l-2 1-1 3h-2z" fill="#40644D"/>
<path transform="translate(71,131)" d="m0 0 2 1v9h-2v-6l-2 2-1 4-2-1v-6z" fill="#406A4F"/>
<path transform="translate(119,116)" d="m0 0h2v9h-2v-5h-2l1 4-5 1v-7h1v5l2-5z" fill="#405E4B"/>
<path transform="translate(408,1246)" d="m0 0 5 1 1 4-3 3-4-2v-5z" fill="#63776A"/>
<path transform="translate(655,1202)" d="m0 0 4 1 1 5-4 2-3-2 1-5z" fill="#5F7B69"/>
<path transform="translate(642,1200)" d="m0 0h4 2v7l1 3-5-1h-3l2-5z" fill="#405C4A"/>
<path transform="translate(304,516)" d="m0 0h2l1 8 2-1v-7h3v9h-7l-1-2z" fill="#40694F"/>
<path transform="translate(204,516)" d="m0 0h7l1 9h-3v-8l-2 1-1 7-3-1z" fill="#405246"/>
<path transform="translate(286,368)" d="m0 0 3 1 1 4h-6l4 5-5-1-1-1 1-7z" fill="#527D61"/>
<path transform="translate(258,368)" d="m0 0 2 1 1 9h-3v-8l-2 1-1 7h-2v-9z" fill="#405C4A"/>
<path transform="translate(518,332)" d="m0 0 3 1v7l2-1v-6l3-1v9h-7z" fill="#405E4B"/>
<path transform="translate(601,332)" d="m0 0h2l1 7 2 1v-8h2l1 7v2h-7l-1-1z" fill="#405E4B"/>
<path transform="translate(95,328)" d="m0 0h11v3l-4-2 1 12h-4l1-12-5 1z" fill="#405A49"/>
<path transform="translate(423,292)" d="m0 0h7l1 3h-2v-2l-6 2v8l6 1v1h-7l-2-3v-7z" fill="#40614C"/>
<path transform="translate(803,152)" d="m0 0h9l-1 6h-2l-1-4-1 4h-2v-3l-2 4-1-4z" fill="#40654D"/>
<path transform="translate(149,1229)" d="m0 0h5l1 3h-5v3l5 1-3 3-4-1-1-7z" fill="#405F4B"/>
<path transform="translate(372,1231)" d="m0 0 4 1 1 4-2 3-4-1-1-5z" fill="#688372"/>
<path transform="translate(233,823)" d="m0 0h4l1 2 1-2h2l-1 6 2 3h-4v-3h-2l-1 3h-2l2-5z" fill="#405B4A"/>
<path transform="translate(120,573)" d="m0 0h2l1 7 2 1v-8h2l1 9h-7l-2-7z" fill="#405246"/>
<path transform="translate(257,488)" d="m0 0 5 1-3 3v10h-4v-10z" fill="#40664E"/>
<path transform="translate(113,368)" d="m0 0h1l1 10h-7l-1-1v-8h2l1 7h1l1-7z" fill="#405246"/>
<path transform="translate(125,259)" d="m0 0 5 1 1 4h-5v3l2 1h-3l-2-5z" fill="#648771"/>
<path transform="translate(101,131)" d="m0 0h3l1 10-2-1v-2h-2l-1 3h-1l1-9z" fill="#405447"/>
<path transform="translate(879,135)" d="m0 0h7l-1 5h-4v2h4v2h-5l-1-1z" fill="#404943"/>
<path transform="translate(296,1200)" d="m0 0h2v2l4 1 1 1v5l-2 1-1-5-2-1v6h-2z" fill="#40624C"/>
<path transform="translate(387,1200)" d="m0 0 5 1v2h-4l-1 3h4l1 3-5 1-3-4 1-4z" fill="#405949"/>
<path transform="translate(132,823)" d="m0 0h5l2 2v5l-4 2 1-8h-3l1 8-4-2v-5z" fill="#40624C"/>
<path transform="translate(159,596)" d="m0 0h7l5 3 3 7v4h-2l-4-10-9-3z" fill="#407F57"/>
<path transform="translate(619,493)" d="m0 0h2l1 7 2 1v-8h2l1 9h-7l-1-1z" fill="#404E45"/>
<path transform="translate(494,493)" d="m0 0h5l1 4-2 1-3-1 1 3 2 2-5-1-1-5z" fill="#5C7B67"/>
<path transform="translate(242,259)" d="m0 0h5l2 2v6l-3 2v-8h-2v8l-3-2v-7z" fill="#405E4B"/>
<path transform="translate(93,131)" d="m0 0h2v9l-4 1-1-1v-6l3-1z" fill="#526358"/>
<path transform="translate(804,101)" d="m0 0 4 2-1 4-6 2v-7z" fill="#778E7F"/>
<path transform="translate(561,1246)" d="m0 0 5 1v5l-3 2-3-1v-6z" fill="#5C6F63"/>
<path transform="translate(156,1229)" d="m0 0h2v2h4l1 7-2 1-1-5-2-1v5h-2z" fill="#405A49"/>
<path transform="translate(194,1231)" d="m0 0 4 1 1 3-1 3-4 1-2-3 1-4z" fill="#496653"/>
<path transform="translate(759,1229)" d="m0 0 5 1-1 5-1 2h2v2h-6l1-4 1-3-2-2z" fill="#40684E"/>
<path transform="translate(432,1202)" d="m0 0 4 1 1 5-2 2-4-1v-6z" fill="#496A55"/>
<path transform="translate(480,1202)" d="m0 0h2v6h2v-5h3v6l-1 1h-5l-1-1z" fill="#406A4F"/>
<path transform="translate(420,1202)" d="m0 0h3l1 6-1 2-5-1v-6z" fill="#456851"/>
<path transform="translate(268,1202)" d="m0 0 4 1 1 7h-5l-1-5z" fill="#456F54"/>
<path transform="translate(108,796)" d="m0 0h3v13l-4-1v-5l-2-1z" fill="#405848"/>
<path transform="translate(135,516)" d="m0 0h5l1 4h-5l1 3 3 2h-5l-1-1v-7z" fill="#577863"/>
<path transform="translate(429,493)" d="m0 0h5l1 4-2 1-1-3-2-1 1 6 4 1-1 1h-5l-2-3 1-5z" fill="#407353"/>
<path transform="translate(172,493)" d="m0 0h6l1 4h-3v-3l-2 1v3l1 2h3v2h-5l-2-2z" fill="#406C50"/>
<path transform="translate(757,488)" d="m0 0 2 1v13h-3v-13z" fill="#407554"/>
<path transform="translate(614,488)" d="m0 0 5 1v2l-3-1v12l-4-1v-8z" fill="#405E4B"/>
<path transform="translate(896,152)" d="m0 0h7l1 3-2 4-7-1z" fill="#405547"/>
<path transform="translate(819,135)" d="m0 0h6v4l-4 1v2h3v2h-5l-1-4z" fill="#405146"/>
<path transform="translate(620,1229)" d="m0 0h5l1 4-2 3 2 2-4 1h-2l1-4 1-3h-2z" fill="#40664E"/>
<path transform="translate(722,1231)" d="m0 0h5l1 7-5 1-2-3z" fill="#456952"/>
<path transform="translate(599,1229)" d="m0 0h5v3 6l-4 1-2-3h4l-1-2-3-1z" fill="#406B50"/>
<path transform="translate(182,1231)" d="m0 0 4 1v6l-4 1-2-2 1-5z" fill="#495F51"/>
<path transform="translate(520,1202)" d="m0 0 5 1v6l-5 1-1-4z" fill="#4A7258"/>
<path transform="translate(588,1202)" d="m0 0 4 1v6l-4 1-2-2 1-5z" fill="#40624C"/>
<path transform="translate(376,1202)" d="m0 0 4 1v6l-4 1-2-2 1-5z" fill="#456651"/>
<path transform="translate(211,795)" d="m0 0 3 1-1 2-2-1 1 4v8h-4v-10l1-3z" fill="#40624C"/>
<path transform="translate(150,715)" d="m0 0h2v2l-3-1zm-3 2h2l-2 4-10 7-2-1 5-5z" fill="#4FA46E"/>
<path transform="translate(96,569)" d="m0 0h4l2 4 2 1v8l-4-1-1-7-3-3z" fill="#405A49"/>
<path transform="translate(371,328)" d="m0 0 4 1-1 11h5v1h-8z" fill="#404F45"/>
<path transform="translate(470,292)" d="m0 0 2 1v12l-4-1v-11z" fill="#407453"/>
<path transform="translate(388,293)" d="m0 0 3 1v10h-3l-1-2v-7z" fill="#FDFDFD"/>
<path transform="translate(124,117)" d="m0 0 3 1v7l-3 1-2-1v-7z" fill="#456B53"/>
<path transform="translate(105,44)" d="m0 0 4 2 1 7-5 4-4-2 5-2v-6z" fill="#408058"/>
<path transform="translate(616,1246)" d="m0 0 4 2-1 5-3 1-1 2h-2v-8l2-1v5h2z" fill="#405E4B"/>
<path transform="translate(656,1244)" d="m0 0h2v3l4-1v8l-2-1v-2h-2v2h-2z" fill="#405B4A"/>
<path transform="translate(439,1244)" d="m0 0h2v3l4-1v7h-2v-2h-2v2h-2z" fill="#40604B"/>
<path transform="translate(389,1246)" d="m0 0h5l1 7h-6z" fill="#4A6F57"/>
<path transform="translate(501,1246)" d="m0 0 5 1v6h-5l-1-1v-5z" fill="#4A5B50"/>
<path transform="translate(686,1229)" d="m0 0 4 1 2 1v5h-2v2l-3 1-2-1 1-3h2l-2-3z" fill="#40624C"/>
<path transform="translate(788,1229)" d="m0 0 5 1-1 5-1 1 2 2-5 1v-4l2-3h-3z" fill="#40674E"/>
<path transform="translate(664,1229)" d="m0 0h4l1 8-4 2-2-1v-2h4l-2-2h-2z" fill="#40654D"/>
<path transform="translate(767,1229)" d="m0 0 4 1v2l1 4-3 3-3-1 1-3-1-1z" fill="#40624C"/>
<path transform="translate(333,1231)" d="m0 0 4 1v6l-3 1-3-2 1-5z" fill="#4A6052"/>
<path transform="translate(165,1231)" d="m0 0 5 1v7l-6-1 1-4z" fill="#4A6052"/>
<path transform="translate(290,1202)" d="m0 0h4l1 7-5 1-1-4z" fill="#457356"/>
<path transform="translate(306,1202)" d="m0 0 4 1v6l-4 1-2-2 1-5z" fill="#456350"/>
<path transform="translate(244,823)" d="m0 0h5l1 9h-7l1-5 2 1-1 3h2v-7l-4 1z" fill="#40604B"/>
<path transform="translate(108,823)" d="m0 0h5l1 4h-3v-2l-2-1v7l4-1v2h-5l-2-2v-5z" fill="#407152"/>
<path transform="translate(152,710)" d="m0 0 2 1-5 6-7 5-2-1v-2l5-2v-2z" fill="#40604B"/>
<path transform="translate(720,513)" d="m0 0 3 1v9l-3 1-1-2v-7z" fill="#FDFDFD"/>
<path transform="translate(132,369)" d="m0 0 3 1-1 2h2v-3h2l1 4-5 1 3 4-5-1-1-1z" fill="#407353"/>
<path transform="translate(214,364)" d="m0 0 5 1 1 4-4 2-1-1-1 6h-1v-11z" fill="#8FB49D"/>
<path transform="translate(323,256)" d="m0 0 2 1v9h-4v-8z" fill="#FDFDFD"/>
<path transform="translate(874,152)" d="m0 0h5l1 3-1 3-5 1-1-6z" fill="#4A785B"/>
<path transform="translate(77,148)" d="m0 0 4 1v6l-3 2-2-1v-7z" fill="#545E57"/>
<path transform="translate(55,130)" d="m0 0 4 3v8h-3l-2-1v-9z" fill="#406C50"/>
<path transform="translate(134,117)" d="m0 0 2 1v7l-3 1-2-1v-7z" fill="#4F6557"/>
<path transform="translate(329,1246)" d="m0 0 4 1v6h-5l-1-5z" fill="#4A5C50"/>
<path transform="translate(342,1244)" d="m0 0h2v2l5 1v6h-2v-5h-3v5h-2z" fill="#404A43"/>
<path transform="translate(416,1231)" d="m0 0 4 1 1 1v5l-5 1-1-5z" fill="#4A6955"/>
<path transform="translate(453,1229)" d="m0 0h4l-1 2 1 1 1 4-1 2-4 1-2-3h3v-2h-2z" fill="#40614C"/>
<path transform="translate(504,1229)" d="m0 0h2l1 3h3v7l-3-2-3 1z" fill="#405949"/>
<path transform="translate(795,1229)" d="m0 0h4l1 8-5 2-1-3h3l-1-2h-2z" fill="#40614C"/>
<path transform="translate(429,1229)" d="m0 0h2v2h4l1 7h-2l-1-4-2-1v5h-2z" fill="#405447"/>
<path transform="translate(348,1202)" d="m0 0 4 2-1 5-3 1-2-1v-6z" fill="#456350"/>
<path transform="translate(323,1202)" d="m0 0 2 1v5h2v-5l2-1v8h-5l-2-3z" fill="#40664E"/>
<path transform="translate(394,1200)" d="m0 0 6 3v7l-2-1v-5h-2v5l-2 1-1-9z" fill="#40634D"/>
<path transform="translate(572,516)" d="m0 0h5l1 4-4-1 1-1-2-1 1 6h3v2h-5l-2-3 1-5z" fill="#406B50"/>
<path transform="translate(152,516)" d="m0 0h5l1 4-4-1 1-2h-2l1 6 2 2-5-1-1-6z" fill="#406D51"/>
<path transform="translate(593,332)" d="m0 0h6l-1 2-3-1v2l4 1 1 3-1 2h-6l1-3 3 2-4-4z" fill="#406B50"/>
<path transform="translate(125,296)" d="m0 0h5l1 4h-3v-2l-2-1 1 6 3 2h-5l-2-6z" fill="#40664E"/>
<path transform="translate(351,292)" d="m0 0 4 1v12h-4l1-9h-2z" fill="#404F45"/>
<path transform="translate(917,150)" d="m0 0 2 1-1 7-4 2-2-2v-6l3-1-1 7h2z" fill="#40614C"/>
<path transform="translate(119,148)" d="m0 0h4l1 7-4 2-1-5z" fill="#40614C"/>
<path transform="translate(86,96)" d="m0 0 3 2-1 4-7 1-1-3-2-2 7-1z" fill="#419D63"/>
<path transform="translate(299,1246)" d="m0 0 4 1v5l-5 1-1-5z" fill="#405D4A"/>
<path transform="translate(323,1231)" d="m0 0h2l1 5h1l1-5h2v7l-5 1-2-1z" fill="#405A49"/>
<path transform="translate(528,1231)" d="m0 0 4 1v6l-4 1-2-1 1-6z" fill="#4A6554"/>
<path transform="translate(498,1231)" d="m0 0h4l1 7-5 1-2-3 3-3z" fill="#4A6755"/>
<path transform="translate(310,1231)" d="m0 0 4 1v6h-5l-1-5z" fill="#4A6253"/>
<path transform="translate(592,1229)" d="m0 0h5l1 3-3 5h2l-1 2h-4l1-4 2-4-3 1z" fill="#40624C"/>
<path transform="translate(330,1202)" d="m0 0h5l2 2v5l-2 1-1-5h-1l-1 5h-2z" fill="#40674E"/>
<path transform="translate(571,1202)" d="m0 0h6l1 1v7h-2l-1-5h-1l-1 5-2-1z" fill="#405F4B"/>
<path transform="translate(257,1202)" d="m0 0 4 1v7l-5-1v-6z" fill="#50745D"/>
<path transform="translate(343,1200)" d="m0 0h2v10h-5l-2-4 2-1 2 2z" fill="#405A49"/>
<path transform="translate(270,800)" d="m0 0h7l-2 5-2 3 5-1-1 2h-7l2-5 2-3-4 1z" fill="#40694F"/>
<path transform="translate(141,752)" d="m0 0 2 2-1 8-2 7-2-3z" fill="#40885B"/>
<path transform="translate(157,597)" d="m0 0h6l-10 8h-2l2-5z" fill="#40674E"/>
<path transform="translate(138,572)" d="m0 0 4 2-2 1-2-1v2l4 2-1 4h-5v-3h3l-3-2v-4z" fill="#40644D"/>
<path transform="translate(421,515)" d="m0 0 3 1-1 2-1 1 2 1-1 5h-5v-2l4 1-4-4v-4z" fill="#406C50"/>
<path transform="translate(117,512)" d="m0 0h7l-1 2-3-1 1 12h-4z" fill="#404D44"/>
<path transform="translate(197,493)" d="m0 0h5l2 4-2 1-1-3-2-1v7l4-1v2h-5l-2-3z" fill="#40674E"/>
<path transform="translate(532,493)" d="m0 0h5l1 4-3-1h-1l-1 5 3 1-5-1-1-1v-6z" fill="#406C50"/>
<path transform="translate(556,492)" d="m0 0 3 1-1 2-2-1v2l4 2-1 4h-5l-1-2 4-1-4-3 1-3z" fill="#406C50"/>
<path transform="translate(761,493)" d="m0 0h6l-1 2-1 1 2 1v5h-6l-1-2 5 1-4-4z" fill="#407152"/>
<path transform="translate(597,493)" d="m0 0h6l-1 2h-2l3 2-1 5h-5l1-3v2h3l-4-4z" fill="#40694F"/>
<path transform="translate(326,332)" d="m0 0h5l-1 2-2-1v2l4 2-1 4h-6v-2l4-1-4-3z" fill="#407152"/>
<path transform="translate(585,332)" d="m0 0h6l1 9h-7l-1-3 5 2v-7l-4 2z" fill="#405D4A"/>
<path transform="translate(140,296)" d="m0 0h5l1 5-3-1 1-3-2 1v5l3 2h-5l-1-1v-7z" fill="#406F51"/>
<path transform="translate(823,152)" d="m0 0h5v6l-5 1-1-4z" fill="#406F51"/>
<path transform="translate(101,146)" d="m0 0h2l1 3 2-1v8h-5z" fill="#405045"/>
<path transform="translate(117,133)" d="m0 0 5 1-1 7-4-1z" fill="#506F5B"/>
<path transform="translate(85,133)" d="m0 0 4 1v6l-4 1-1-1v-6z" fill="#405F4B"/>
<path transform="translate(74,133)" d="m0 0 5 1v6l-4 1-1-1z" fill="#4A6755"/>
<path transform="translate(127,91)" d="m0 0 4 1-1 6h-6v-6l2 1z" fill="#408058"/>
<path transform="translate(656,1229)" d="m0 0h5l1 3-3 5h2v2l-5-1 2-5 1-2-3 1z" fill="#40604C"/>
<path transform="translate(403,1231)" d="m0 0 5 1 1 6-5 1-2-3z" fill="#456350"/>
<path transform="translate(263,1231)" d="m0 0 5 1v6l-4 1-2-4z" fill="#456551"/>
<path transform="translate(242,1231)" d="m0 0h2l1 5h1l1-5h2v7l-5 1-2-2z" fill="#405B4A"/>
<path transform="translate(488,1202)" d="m0 0h6l1 7-2 1-1-5-2-1v6h-2z" fill="#40654E"/>
<path transform="translate(507,1202)" d="m0 0h5l2 2v5l-2 1-1-5h-1l-1 5h-2z" fill="#40604C"/>
<path transform="translate(138,766)" d="m0 0h1l-1 9-4 5h-2l2-5z" fill="#405D4B"/>
<path transform="translate(589,493)" d="m0 0h6l1 4h-3v-3l-2 2v5l3 1-5-1-1-1z" fill="#406B50"/>
<path transform="translate(461,493)" d="m0 0h5l1 4-4-1 1-1-2-1 1 6 2 2-5-1-1-5z" fill="#406B50"/>
<path transform="translate(629,488)" d="m0 0 3 1v13h-3l-1-13z" fill="#407052"/>
<path transform="translate(167,296)" d="m0 0h5l1 5h-2v-4l-2 2v4l3 2h-5l-1-1v-6z" fill="#40634D"/>
<path transform="translate(96,148)" d="m0 0 4 1v7h-5z" fill="#405B4A"/>
<path transform="translate(873,135)" d="m0 0 5 1v2l-5-1 2 4h3l-2 3-4-1-1-1v-6z" fill="#40654E"/>
<path transform="translate(139,133)" d="m0 0h4v7l-4 1-1-4z" fill="#405D4B"/>
<path transform="translate(61,133)" d="m0 0h4v8l-5-1z" fill="#40654E"/>
<path transform="translate(567,1246)" d="m0 0h6l1 1v6l-2 1v-6h-3v5h-2z" fill="#405648"/>
<path transform="translate(537,1246)" d="m0 0h5l1 1v6h-2v-5h-2v5l-2 1-1-4z" fill="#40694F"/>
<path transform="translate(378,1231)" d="m0 0h6l1 7h-2l-1-4-2-1v6l-2-1z" fill="#40644D"/>
<path transform="translate(562,1229)" d="m0 0 6 3v6h-2v-5h-2l-1 6h-1z" fill="#405347"/>
<path transform="translate(179,823)" d="m0 0 5 1v4h-2v-4l-2 2v4l3 2-5-1-1-1v-5z" fill="#40644D"/>
<path transform="translate(478,516)" d="m0 0h5l1 4h-2v-3l-2 1 1 2h-2l1 3 3 2h-5l-1-1v-7z" fill="#40614C"/>
<path transform="translate(710,499)" d="m0 0 8 2-1 5-2-1v-2h-3l1 4-4-1z" fill="#40644D"/>
<path transform="translate(786,493)" d="m0 0h5l2 4-4-1 1-2-2 2v5l3 1-5-1-1-1z" fill="#40694F"/>
<path transform="translate(191,492)" d="m0 0 4 2-2 1-2-1v2l4 2-1 4h-5l-1-2 5 1-4-4v-4z" fill="#40694F"/>
<path transform="translate(605,493)" d="m0 0h5l-1 2-2-1v2l4 2-1 4h-5v-3h3l-3-2z" fill="#40664E"/>
<path transform="translate(513,328)" d="m0 0h3v13l-4-1v-11z" fill="#404E45"/>
<path transform="translate(228,259)" d="m0 0h5l1 3h-2v-2l-3 3v4l4 1-4 1-3-3 1-6z" fill="#407955"/>
<path transform="translate(80,117)" d="m0 0 3 1 1 3-1 4-3 1-2-2v-5z" fill="#40644D"/>
<path transform="translate(576,1246)" d="m0 0 5 1v6l-4 1-2-7z" fill="#40684E"/>
<path transform="translate(396,1246)" d="m0 0 5 1-1 2-2-1 2 3 2-1v3l-3 1-1 2h-2z" fill="#405748"/>
<path transform="translate(534,1231)" d="m0 0h5l1 1v6h-2v-5h-2v5l-2 1-1-7z" fill="#405C4A"/>
<path transform="translate(321,823)" d="m0 0h5l-1 2-2-1v2l4 2-1 4h-5l-1-2 4-1-3-2z" fill="#40684E"/>
<path transform="translate(655,516)" d="m0 0h5l1 4h-2v-3h-3l1 6 4 1-1 1h-5l-1-1v-7z" fill="#40684E"/>
<path transform="translate(497,512)" d="m0 0h6l-3 1 1 12-4-1z" fill="#404E45"/>
<path transform="translate(452,493)" d="m0 0h5l1 4h-2v-3l-2 2v4l3 2h-5l-1-2v-6z" fill="#40624C"/>
<path transform="translate(583,492)" d="m0 0 4 1v2l-5-1 1 6 4 1-1 1h-5l-2-3 1-5z" fill="#407353"/>
<path transform="translate(834,150)" d="m0 0h2v2h3l1 3-1 2h-4l-2 2-1-2z" fill="#5D876C"/>
<path transform="translate(125,148)" d="m0 0 5 1v7h-5z" fill="#404943"/>
<path transform="translate(861,135)" d="m0 0h6l-1 5-2 1-2 3-1-1z" fill="#40624C"/>
<path transform="translate(515,1246)" d="m0 0h5v7h-5z" fill="#4C6655"/>
<path transform="translate(250,1231)" d="m0 0h6l1 1v6h-2v-5h-3v5h-2z" fill="#405246"/>
<path transform="translate(195,796)" d="m0 0h4v13l-4-1z" fill="#404F45"/>
<path transform="translate(186,795)" d="m0 0 2 1v13h-2l-1-13z" fill="#404F45"/>
<path transform="translate(143,516)" d="m0 0h5l1 2-4-1v2l4 2-1 4h-5l1-2 3 1-4-4z" fill="#40634D"/>
<path transform="translate(639,516)" d="m0 0h7l1 1v6h-2l-1-5-2-1-1 6-2-2z" fill="#405848"/>
<path transform="translate(414,511)" d="m0 0h2v14h-3v-13z" fill="#404F45"/>
<path transform="translate(144,493)" d="m0 0h5l1 4h-2v-3h-3l1 6 3 2h-5l-2-5z" fill="#406C50"/>
<path transform="translate(870,493)" d="m0 0h5l-1 2-2-1v2l4 2-1 4h-5l1-2 2-1-3-2z" fill="#40634D"/>
<path transform="translate(241,368)" d="m0 0 2 1-1 3 4 2-1 4h-5v-3h3l-3-2z" fill="#40694F"/>
<path transform="translate(292,367)" d="m0 0h2l1 3v8h-3l-1-2v-8z" fill="#407152"/>
<path transform="translate(278,364)" d="m0 0h2l1 14h-4v-13z" fill="#404F45"/>
<path transform="translate(422,332)" d="m0 0h5l1 2-4-1v2l4 2-1 4h-5l1-2 3 1-4-4z" fill="#40664E"/>
<path transform="translate(111,148)" d="m0 0h3v8h-4v-7z" fill="#405A49"/>
<path transform="translate(854,135)" d="m0 0h6l-1 5h-3v4h-2z" fill="#405D4A"/>
<path transform="translate(98,117)" d="m0 0 3 1v7h-4v-7z" fill="#40604C"/>
<path transform="translate(116,95)" d="m0 0h3l-3 9-2-2v-2l-2-1v-2z" fill="#8DC4A1"/>
<path transform="translate(313,1246)" d="m0 0 5 1v3 3h-5l-1-6z" fill="#466150"/>
<path transform="translate(315,1231)" d="m0 0h5l2 2v5l-2 1v-6h-3v5h-2z" fill="#405246"/>
<path transform="translate(566,1202)" d="m0 0 4 1v7h-5l2-1v-3h-2z" fill="#527C62"/>
<path transform="translate(171,568)" d="m0 0h2v14h-3v-13z" fill="#404F45"/>
<path transform="translate(330,516)" d="m0 0h5l1 2h-4v5l4 1-1 1h-5l-2-5z" fill="#406A4F"/>
<path transform="translate(347,514)" d="m0 0h2l1 11h-3l-1-2v-8z" fill="#407052"/>
<path transform="translate(740,512)" d="m0 0h2l1 13h-4v-12z" fill="#405246"/>
<path transform="translate(794,493)" d="m0 0h5l-3 1v2l4 2-1 4h-5l-1-2 5 1-4-4z" fill="#40644D"/>
<path transform="translate(690,491)" d="m0 0 2 1 1 10-4-1v-9z" fill="#407353"/>
<path transform="translate(418,493)" d="m0 0h3l2 4 1-4h2l-1 5-2 4h-2z" fill="#405E4B"/>
<path transform="translate(658,489)" d="m0 0 4 1 1 8h2l-1 4h-2z" fill="#404943"/>
<path transform="translate(511,488)" d="m0 0h2l1 14-4-1v-12z" fill="#404F45"/>
<path transform="translate(167,488)" d="m0 0h2l1 14-4-1v-12z" fill="#404F45"/>
<path transform="translate(232,369)" d="m0 0 3 1 3 3-1 5h-5l1-3v2h3l-4-4z" fill="#40674E"/>
<path transform="translate(263,369)" d="m0 0 3 1-1 4 2-1v-4h3v5l-7 2z" fill="#40614C"/>
<path transform="translate(399,327)" d="m0 0h1v14h-2l-1-13z" fill="#404642"/>
<path transform="translate(225,328)" d="m0 0 3 1v12l-4-1v-11z" fill="#404943"/>
<path transform="translate(341,256)" d="m0 0h3v13l-3-1z" fill="#405849"/>
<path transform="translate(123,133)" d="m0 0h3 2v7l-4 1-1-1z" fill="#40674E"/>
<path transform="translate(94,117)" d="m0 0 2 1v7h-5v-7z" fill="#404C44"/>
<path transform="translate(508,1246)" d="m0 0h5v5 3l-5-1z" fill="#405C4A"/>
<path transform="translate(729,1231)" d="m0 0h4 2v8l-4-2-1 2v-3z" fill="#405F4B"/>
<path transform="translate(283,1231)" d="m0 0h4l1 6-5 2-1-4v-3z" fill="#405C4A"/>
<path transform="translate(348,1231)" d="m0 0h6v6l-1-2-5 1-1-4z" fill="#FDFDFD"/>
<path transform="translate(581,1202)" d="m0 0 4 1v2h-3l1 2h2l-1 3-4-1-1-5z" fill="#40654E"/>
<path transform="translate(201,800)" d="m0 0h6v2h-2l-1 7h-3z" fill="#40624C"/>
<path transform="translate(176,572)" d="m0 0 2 1 1 5h2l-1 6-2 1-1-6-2-6z" fill="#40624C"/>
<path transform="translate(633,515)" d="m0 0 4 2v3h-2v-3h-3l1 7 3 1-5-1-1-1 1-7z" fill="#405949"/>
<path transform="translate(580,511)" d="m0 0h2l1 14h-3z" fill="#40624C"/>
<path transform="translate(275,492)" d="m0 0 3 3-4 1v6h-3v-9z" fill="#40654E"/>
<path transform="translate(677,493)" d="m0 0h5l1 2h-2l-1 7h-3z" fill="#406B50"/>
<path transform="translate(751,488)" d="m0 0h2l1 14h-3l-1-13z" fill="#404A43"/>
<path transform="translate(489,292)" d="m0 0h2l1 13-4-1v-11z" fill="#405347"/>
<path transform="translate(408,292)" d="m0 0h2l1 13-4-1v-11z" fill="#405045"/>
<path transform="translate(855,149)" d="m0 0 5 2-2 3v-2h-3l1 6h-4l1-7z" fill="#405648"/>
<path transform="translate(145,133)" d="m0 0h4v8l-2-2-3 1v-6z" fill="#40654E"/>
<path transform="translate(112,133)" d="m0 0 4 1v2l-2 1h2l-1 4-4-1v-6z" fill="#40624C"/>
<path transform="translate(627,1229)" d="m0 0h6v3l-3 7-2-2 1-6z" fill="#40634D"/>
<path transform="translate(466,1202)" d="m0 0 4 1 1 2h-3l-1 3 4-1v2l-4 1-2-1v-6z" fill="#40634D"/>
<path transform="translate(222,819)" d="m0 0h9l-1 3v-2h-5v4h-2v6h-1z" fill="#407A55"/>
<path transform="translate(842,493)" d="m0 0h6v2h-4v5l3 2h-5l-1-1v-7z" fill="#40674E"/>
<path transform="translate(572,493)" d="m0 0h6v2h-4v6l3 1h-5l-1-2v-6z" fill="#40634D"/>
<path transform="translate(502,493)" d="m0 0h6l-1 2h-3v6l4-1v2h-6l-1-7z" fill="#405D4A"/>
<path transform="translate(685,489)" d="m0 0 2 2v11h-3v-12z" fill="#407654"/>
<path transform="translate(419,450)" d="m0 0 4 5 3 2h-7l-3-3z" fill="#405046"/>
<path transform="translate(143,368)" d="m0 0 4 1v2h-4v5l3 2-5-1-1-1v-6z" fill="#40604C"/>
<path transform="translate(543,332)" d="m0 0h5l-2 9h-3z" fill="#407052"/>
<path transform="translate(159,296)" d="m0 0h5v3l-1-2h-3v7l4 1h-5l-2-2v-5z" fill="#406A4F"/>
<path transform="translate(509,292)" d="m0 0h1l1 13-4-1v-11z" fill="#404D44"/>
<path transform="translate(292,256)" d="m0 0h3l1 12-2 1-2-2z" fill="#405046"/>
<path transform="translate(906,152)" d="m0 0h5l-1 6h-2v-3l-2 4h-1v-6z" fill="#40634D"/>
<path transform="translate(129,133)" d="m0 0 5 1v6h-5z" fill="#405447"/>
<path transform="translate(154,133)" d="m0 0h4l1 6-4 2-1-4z" fill="#40604C"/>
<path transform="translate(383,1246)" d="m0 0h4l-1 3-2-1v3h3v2h-5l-1-4z" fill="#40654D"/>
<path transform="translate(285,1244)" d="m0 0h2l1 3 3 1-2 5-3-1z" fill="#405146"/>
<path transform="translate(600,1246)" d="m0 0 4 1v2h-2v2h2v2h-5l-1-5z" fill="#40684F"/>
<path transform="translate(301,1231)" d="m0 0h2l2 2 1-2h2l-2 7h-3l-2-4z" fill="#40684F"/>
<path transform="translate(263,1200)" d="m0 0 3 3v6l-3 1-1-2v-7z" fill="#406B50"/>
<path transform="translate(415,1200)" d="m0 0 2 4v6l-3-1v-5l-5-1 4-1z" fill="#40684F"/>
<path transform="translate(534,1200)" d="m0 0 5 2v6l-4 2v-3h2l-1-4-3-2z" fill="#405447"/>
<path transform="translate(274,1200)" d="m0 0h2v8l4-1-1 3h-5z" fill="#405146"/>
<path transform="translate(140,823)" d="m0 0h5l1 2h-2l-1 7h-3z" fill="#40654D"/>
<path transform="translate(129,573)" d="m0 0h6v2h-3v7h-3z" fill="#405E4B"/>
<path transform="translate(353,512)" d="m0 0 2 2v11h-3v-12z" fill="#406B50"/>
<path transform="translate(696,516)" d="m0 0h6v2h-2l-1 7h-3z" fill="#40614C"/>
<path transform="translate(303,369)" d="m0 0 1 3 5-1v2h-5l1 3 4 1-5 1-2-2v-6z" fill="#405848"/>
<path transform="translate(133,296)" d="m0 0h5l-1 3-2-1 1 7-4-1v-7z" fill="#405848"/>
<path transform="translate(886,151)" d="m0 0h2l-1 4-2 1v-2h-2l-1 4h-2l1-6z" fill="#405E4B"/>
<path transform="translate(522,1246)" d="m0 0 4 1-3 7-3-1v-5z" fill="#408158"/>
<path transform="translate(228,1231)" d="m0 0 5 1v2l-4-1 2 3 2 1-3 2-3-2z" fill="#405C4A"/>
<path transform="translate(403,1202)" d="m0 0h4l2 6h-5l-2-5z" fill="#5C8C6E"/>
<path transform="translate(171,823)" d="m0 0h5l1 2-3 1v6h-3z" fill="#405547"/>
<path transform="translate(196,821)" d="m0 0 3 3-1 1v5l1 2-4-1v-9z" fill="#405C4A"/>
<path transform="translate(446,517)" d="m0 0h3l1 5-1 2h-3l-1-5z" fill="#FDFDFD"/>
<path transform="translate(836,493)" d="m0 0h3v9h-3z" fill="#407453"/>
<path transform="translate(524,493)" d="m0 0h5l-1 2-1 4v3h-3z" fill="#407052"/>
<path transform="translate(908,491)" d="m0 0 3 3-1 1v5l1 2-4-1v-9z" fill="#40694F"/>
<path transform="translate(136,493)" d="m0 0h6v2h-2l-1 7h-3z" fill="#40634C"/>
<path transform="translate(695,489)" d="m0 0h2l1 13h-3z" fill="#40694F"/>
<path transform="translate(248,365)" d="m0 0h2l1 13h-3z" fill="#405547"/>
<path transform="translate(120,257)" d="m0 0 2 4v7h-3l-1-9z" fill="#405F4B"/>
<path transform="translate(284,255)" d="m0 0h1l1 13h-3v-12z" fill="#404B43"/>
<path transform="translate(251,255)" d="m0 0h2l1 6-1 7h-2z" fill="#404441"/>
<path transform="translate(797,152)" d="m0 0 5 1-1 6-5-1 1-3 1 1 1-2h-2z" fill="#405547"/>
<path transform="translate(73,115)" d="m0 0 4 3v7h-4z" fill="#405C4A"/>
<path transform="translate(552,1244)" d="m0 0 2 1 1 8-4-1-1-5z" fill="#477658"/>
<path transform="translate(424,1231)" d="m0 0 4 1v2l-4-1 1 3 3 1-5 1-1-1v-5z" fill="#405D4A"/>
<path transform="translate(222,1231)" d="m0 0 4 1v2l-4-1 2 3h2v2h-5l-1-5z" fill="#405D4A"/>
<path transform="translate(278,1229)" d="m0 0h2v10l-3-2v-7z" fill="#406B50"/>
<path transform="translate(775,1229)" d="m0 0h2v9h-2v-5h-3l1-3z" fill="#405246"/>
<path transform="translate(445,1229)" d="m0 0h6l-3 9-2 1 1-7z" fill="#405949"/>
<path transform="translate(459,1202)" d="m0 0 4 1v2h-2l1 2v3l-4-1z" fill="#405D4A"/>
<path transform="translate(693,1200)" d="m0 0 2 1v8l-2 1-1-4 1-2h-3v-2z" fill="#40674E"/>
<path transform="translate(662,1200)" d="m0 0h3l-2 10-2-1-1-6z" fill="#40604C"/>
<path transform="translate(304,824)" d="m0 0h3l1 4-1 3h-3l-1-6z" fill="#FDFDFD"/>
<path transform="translate(267,823)" d="m0 0 3 1v8h-3z" fill="#407252"/>
<path transform="translate(203,824)" d="m0 0h3v7l-4-1v-5z" fill="#FDFDFD"/>
<path transform="translate(210,823)" d="m0 0h5v2h-3l1 7h-3z" fill="#405246"/>
<path transform="translate(291,821)" d="m0 0h2l1 3-1 7 2 1h-4l-1-9z" fill="#405949"/>
<path transform="translate(165,800)" d="m0 0h4l1 2v7h-3v-8z" fill="#406F51"/>
<path transform="translate(150,800)" d="m0 0h4l1 5v4h-3v-8z" fill="#407252"/>
<path transform="translate(132,657)" d="m0 0h2l-2 11h-2l1-10z" fill="#419D63"/>
<path transform="translate(154,573)" d="m0 0h5v2h-3l1 7h-3z" fill="#405246"/>
<path transform="translate(324,516)" d="m0 0 3 1v8h-3z" fill="#407252"/>
<path transform="translate(196,517)" d="m0 0 4 1v5l-4 1z" fill="#FDFDFD"/>
<path transform="translate(728,512)" d="m0 0h6l1 5-2 2-3-1 2-4-5 1z" fill="#40644D"/>
<path transform="translate(274,516)" d="m0 0h5l-2 1v8h-3z" fill="#406F51"/>
<path transform="translate(128,516)" d="m0 0h5v2h-3l1 7h-3z" fill="#405648"/>
<path transform="translate(333,491)" d="m0 0 2 1v8l1 2h-4v-10z" fill="#405648"/>
<path transform="translate(221,491)" d="m0 0 2 1v8l1 2h-4v-10z" fill="#405949"/>
<path transform="translate(121,369)" d="m0 0h3l1 6-2 3h-6l4-2 1-4z" fill="#406B50"/>
<path transform="translate(314,368)" d="m0 0 2 1v2h-2l-1 7-3-1v-7z" fill="#405D4A"/>
<path transform="translate(150,367)" d="m0 0 2 1v8l1 2-4-1v-9z" fill="#405949"/>
<path transform="translate(453,335)" d="m0 0h5v4l-5 1z" fill="#FDFDFD"/>
<path transform="translate(374,335)" d="m0 0h5v4l-5 1z" fill="#FDFDFD"/>
<path transform="translate(386,293)" d="m0 0h2v12h-2l-1-2v-9z" fill="#405246"/>
<path transform="translate(269,259)" d="m0 0h5v2h-3l1 7h-3z" fill="#405949"/>
<path transform="translate(104,256)" d="m0 0 4 2v7l-1 2-3-1 1-7z" fill="#405246"/>
<path transform="translate(236,258)" d="m0 0 3 1v9h-3l-1-9z" fill="#40644D"/>
<path transform="translate(106,133)" d="m0 0h4l-1 4 1 3h-4z" fill="#405949"/>
</svg>
