<?xml version="1.0" encoding="UTF-8"?>
<svg version="1.1" viewBox="0 0 2048 784" width="363" height="139" xmlns="http://www.w3.org/2000/svg">
<path transform="translate(0)" d="m0 0h2048v784h-2048z" fill="#FDFDFD"/>
<path transform="translate(334,96)" d="m0 0 7 1 9 6 27 15 17 10 21 12 17 10 26 15 24 14 28 16 24 14 26 15 21 12 22 13 1 3-20 11-24 14-25 14-13 8-1 108-4-1-39-24-12-7-5-7-6-1-2 4-1 4 5 5-6 5 3 1 2-1h7l15 8 14 9 19 12 9 5 1 11 1 82 17 10 28 16 17 10 18 11 2 3-17 9-15 9-25 14-15 9-52 30-28 16-17 10-78 45-16 9-3 2-5-1-25-14-41-24-39-23-23-13-26-15-24-14-25-14-24-14-17-10-8-6-5 3-6 4-8-2-5-4-2-6 1-8 10-8 2-2v-294l8-5 18-10 24-14 104-60 24-14 23-13 43-25z" fill="#9B2B33"/>
<path transform="translate(456,385)" d="m0 0h7l15 8 14 9 19 12 9 5 1 11 1 82 17 10 28 16 17 10 18 11 2 3-17 9-15 9-25 14-15 9-52 30-28 16-17 10-78 45-16 9-3 2-5-1-25-14-41-24-39-23-23-13-26-15-24-14-3-3v-92l1-33-8 7-17 17-7 8-15 15-2-3 4-3 2-4 26-26 7-8 14-14 8-7 7-7 7-8 10-10 7-8 13-14 4-1h14l15 8 11 9 18 13 34 24 9 7 2 10 4 6 9 2 8-6 1-2v-12l44-36 16-13 11-9 17-14 10-8 12-10h6z" fill="#676769"/>
<path transform="translate(335,193)" d="m0 0 6 2 18 11 25 14 26 15 24 14 26 15 19 11 17 10 25 14v108l-4-1-39-24-7-4-1-4-1-1-2-5v-3l-3-1-1-2-7-2-1 3-5 5-3 1-3 12-4 5-5 3h-2l-2 4-10 9-11 9-13 11-14 11-13 11-14 11-21 18-6-1-5-2-4 3-6-1-5-4-18-13-17-12-20-15-14-9-9-5-2-13-3-4v-3h-13l-3 1-6 10-1 6-2 5-3 3-2 5-8 8-2 1-2 4-27 27-7 8-19 19-7 8-17 17-7 8-12 12-6 5h-2l-2 4-2 1 1-4 16-15 7-8 42-42 7-8 3-4v-164l4-4 16-9 27-16 23-13 19-11 22-13 21-12 20-12 21-12z" fill="#67686A"/>
<path transform="translate(519,513)" d="m0 0h5l10 6 26 15 24 14 18 11 2 3-17 9-15 9-25 14-15 9-52 30-28 16-17 10-78 45-16 9-3 2-5-1-25-14-41-24-22-13-4-4v-80l1-13 4 1 26 14 24 14 17 10 16 9 5 4 5-1 28-16 26-15 28-16 17-10 26-15 24-14 25-14z" fill="#9B2B33"/>
<path transform="translate(337,311)" d="m0 0 6 2 15 9 23 13 27 16 19 11 2 3 1 24 8-6 4-8h2l1 5-5 6-5 3h-2l-2 4-10 9-11 9-13 11-14 11-13 11-14 11-21 18-6-1-5-2-4 3-6-1-5-4-18-13-17-12-20-15-14-9-9-5 1-2 12 5 3 1 1-54 4-4 18-10 27-16 25-14z" fill="#FEFEFE"/>
<path transform="translate(444,389)" d="m0 0h2v3l-16 12-2 64-9 6-27 15-22 13-26 15-3 2-6-1-26-14-24-14-25-14-11-7-1-2-1-35-2-3 5 2 11 9 16 11 18 13 17 12 2 2 2 10 4 6 9 2 8-6 1-2v-12l44-36 16-13 11-9 17-14 10-8z" fill="#FEFEFE"/>
<path transform="translate(338,65)" d="m0 0 5 2 20 12 21 12 45 26 17 10 19 11 24 14 28 16 29 17 28 16 24 14 18 11 2 3-3 1-17-9-15-9-26-15-28-16-26-15-19-11-24-14-78-45-29-17-11-7-5-1-15 8-15 9-23 13-24 14-26 15-21 12-17 10-28 16-24 14-26 15-24 14-26 15-19 10v333l2 5 10 7 21 12 52 30 22 13 28 16 24 14 21 12 26 15 21 12 29 17 23 13 6 4h7l35-20 19-11 23-13 22-13 21-12 43-25 23-13 20-12 23-13 24-14 14-8 16-9 1 3-9 7-20 11-24 14-49 28-29 17-21 12-24 14-21 12-26 15-17 10-29 17-16 9-7-1-48-28-21-12-52-30-24-14-28-16-26-15-24-14-26-15-23-13-14-8-3-3-1-3v-338l21-12 78-45 24-14 21-12 24-14 104-60 21-12z" fill="#676769"/>
<path transform="translate(1584,332)" d="m0 0h12l14 3 12 6 9 10 3 9v11l-4 11-5 6-10 6-12 3-31 2-1 19v30l19-1v4l-2 1h-50l-7-2 1-3h17l1-109h-15l-5-3 2-2z" fill="#9B2B33"/>
<path transform="translate(983,332)" d="m0 0h22l16 4 10 6 7 8 4 11v10l-4 11-8 8-10 5-9 2-14 1h-18v49h18v4l-2 1h-51l-4-1 1-4h17v-109h-16l-4-3v-2z" fill="#9C2B33"/>
<path transform="translate(1299,331)" d="m0 0 3 3 6 19 18 52 13 37 3 5h13l3 3-7 2h-47l-4-1 1-4h18l-7-20-4-10h-38l-8 21-4 9h21l1 4-1 1h-40l-2-1 1-4h13l4-4 11-28 7-20 10-27 10-28z" fill="#9B2B33"/>
<path transform="translate(866,332)" d="m0 0h3l5 10 10 30 12 34 11 31 3 9 7 1h8l1 3-4 2h-50l-3-2 1-3h19l-7-19-4-11-39-1-3 10-7 18-1 4h22l-1 4h-39l-3-3 2-2h13l5-10 15-40 9-25 5-13 9-26z" fill="#9B2B33"/>
<path transform="translate(1161,332)" d="m0 0 74 1 2 16 2 18v7l-4-2-9-22-7-8-3-2-5-1-14-1-1 69v41l21-1v5l-4 1h-21l-36-1-3-2 1-3h19l1-1v-108l-15 1-7 3-7 8-5 11-4 12h-4v-14l2-25 1-1z" fill="#9B2B33"/>
<path transform="translate(1813,332)" d="m0 0 9 1-1 4-3 1-15 1-1 13v49l1 27 3 10 6 7 5 3 4 1h15l11-4 7-5 5-8 2-9 1-85h-18l-1-5 11-1h12l19 1v4l-2 1h-16v81l-2 14-6 9-8 7-13 5-14 2-18-2-11-4-7-6-5-9-2-13v-84h-14l-3-2v-3z" fill="#9B2B33"/>
<path transform="translate(1369,333)" d="m0 0h60l-1 4-3 1-15 1v108h35l9-3 6-7 5-13 3-9h4v9l-3 28h-93l-6-2v-2h17l1-110h-16l-3-3z" fill="#9C2B33"/>
<path transform="translate(1936,330)" d="m0 0 12 1 9 4 5 2h5l3-4 4 1v29l-4-1-8-14-5-5-8-5-8-2-11 1-10 5-5 6-1 2v12l3 5 6 4 21 5 12 3 10 5 8 8 5 11 1 3v18l-5 13-9 10-8 5-11 4h-10l-14-5-8-5-5 1-6 5h-3l1-34 3 1 8 15 7 8 10 6 5 2h13l12-6 7-8 3-7v-10l-3-6-8-7-10-4-25-6-10-6-8-9-3-8v-15l4-11 7-8 5-4 10-4z" fill="#9B2B33"/>
<path transform="translate(1708,332)" d="m0 0 2 1-1 5-18 1-1 46v62h35l11-4 6-8 8-22 3-1-1 15-2 25h-86l-13-1v-4h18v-109h-16l-3-3v-2z" fill="#9B2B33"/>
<path transform="translate(1973,152)" d="m0 0h15l9 3 10 9 4 7 1 4v15l-4 9-7 8-9 5-4 1h-14l-9-4-8-7-5-9-1-4v-14l4-10 8-9z" fill="#FDFDFD"/>
<path transform="translate(745,331)" d="m0 0h18l9 4 10 5 3-7 4-1 1 2v33h-4l-5-15-4-6-7-6-10-4h-11l-10 5-6 7-3 11-2 20v34l2 15 4 11 5 6 8 5 8 1 11-3 12-9 4-5 8-16h4l-3 34-5-1-3-7-15 8-10 4h-10l-13-5-11-8-8-9-6-10-5-12-1-5v-26l3-12 8-16 11-12 9-6z" fill="#9C2B33"/>
<path transform="translate(1066,332)" d="m0 0h51v5l-1 1-16 1-1 2-1 107 19-1v4l-2 1h-49l-8-1v-3h19v-110h-17l-2-2v-3z" fill="#9C2B33"/>
<path transform="translate(1158,225)" d="m0 0 4 2 1 34h30l-10-11-4-8v-9l5-4 8-2h16l8 4 3 3v9l-5 9-9 10 54-1v-18l-2-9-4-1-22-1v-3l1-1 7-1h12l8 3 4 4 2 6v26l-9 1h-49l-3-1-19 1h-76v-23l1-13-19 2-3 1-1 10-1 24h-5l-1-1v-11l1-19 3-7 7-2 8-1h16v35l42-1v-29z" fill="#676769"/>
<path transform="translate(48,572)" d="m0 0 8 6 24 14 23 13 24 14 29 17 28 16 24 14 21 12 26 15 21 12 29 17 23 13 6 4h7l35-20 19-11 23-13 22-13 21-12 43-25 23-13 20-12 23-13 24-14 14-8 16-9 1 3-9 7-20 11-24 14-49 28-29 17-21 12-24 14-21 12-26 15-17 10-29 17-16 9-7-1-48-28-21-12-52-30-24-14-28-16-26-15-24-14-26-15-23-13-12-7v-4z" fill="#735A5D"/>
<path transform="translate(1448,209)" d="m0 0h6v58h-103l-2-1v8l-2 6-8 5-7 1v-4l9-4h2l1-52h5l1 1v35h43l-1-3v-21l2-9 5-2h17l8 5 3 6 1 7v17h21l-1-5z" fill="#676769"/>
<path transform="translate(830,208)" d="m0 0 5 1v53h46l-1-4v-10l1-13h3l1 13v14l18-1v-30h4l1 28 1 2 17 1-2-35h5l1 9 1 26h45l-2-23-3-5-2-1-21-1-1-4 17-1 9 2 5 5 2 7 1 20h19v-52h6l1 43v14l-1 1h-176z" fill="#676769"/>
<path transform="translate(1580,338)" d="m0 0h14l10 2 6 8 2 5v21l-4 11-6 6-6 2-13 1h-12v-55z" fill="#FEFEFE"/>
<path transform="translate(986,338)" d="m0 0h14l9 1 4 2 5 7 2 7v18l-3 10-7 8-6 2-13 1h-12v-55z" fill="#FEFEFE"/>
<path transform="translate(1631,208)" d="m0 0h4l1 53 19 1v-36h5l1 1v39l-2 1h-116l-2-1 1 6-3 8-5 4-7 3h-14l-8-4-5-6-2-6v-9l3-15 1-2h3v29l5 6 6 2h9l9-4 1-2 1-40 5-1 1 16v11l17-1v-29l5-1 1 1v29l17 1-1-36h4l2 14 1 12v10l42-1z" fill="#67686A"/>
<path transform="translate(627,343)" d="m0 0h12l-1 21-1 3-5-2-3-5-4 1-13 11-17 13-13 11-14 11-11 9-5 3v10l-4 6-6 5h-7l-7-6-5-14v-2l-6-2-24-15-14-9-10-7-8-5v-2l4-1 7 3 11 7 15 10 22 14 9 5 4-1 3-2 6 1 4 1 11-7 14-12 13-10 16-13 14-10 7-6v-5l-6-7 1-1z" fill="#9B2B33"/>
<path transform="translate(1667,513)" d="m0 0h10l6 4 4 5 2 9v19l-3 10-5 6-7 3-8-1-5-5-4-8-1-8v-17l3-10 4-5z" fill="#FEFEFE"/>
<path transform="translate(1295,512)" d="m0 0 9 1 5 5 4 6 2 11v11l-2 10-4 7-6 5-2 1h-7l-8-7-3-7-1-6v-19l4-10 5-6z" fill="#FEFEFE"/>
<path transform="translate(1772,209)" d="m0 0h5l1 52h43v-35l4-1 2 2v35h20l-1-23v-12l1-1h5l1 21v15h19v-36h5l1 40-23 1h-83z" fill="#67686A"/>
<path transform="translate(860,516)" d="m0 0h21l5 5 3 8v20l-3 11-7 6-5 1h-13l-1-1z" fill="#FEFEFE"/>
<path transform="translate(624,576)" d="m0 0 1 3-9 7-20 11-24 14-49 28-29 17-21 12-24 14-21 12-26 15-17 10-29 17-16 9h-5l2-1v-3l-2-1 7-2 10-5 10-6 16-9 17-10 23-13 22-13 21-12 43-25 23-13 20-12 23-13 24-14 14-8z" fill="#6C6164"/>
<path transform="translate(1902,208)" d="m0 0 4 1v53h51l-1-14-3-10-2-1-22-2-5-3 1-8 7-12 4-3 4 1-3 5-7 10-2 5 21 1 7 2 3 3 2 7 1 22-3 2h-58v-58z" fill="#67686A"/>
<path transform="translate(1288,364)" d="m0 0 4 5 6 16 9 26-23 1h-12l2-9 10-28 3-10z" fill="#FEFEFE"/>
<path transform="translate(858,364)" d="m0 0h2l6 16 10 29v2h-35l12-34z" fill="#FEFEFE"/>
<path transform="translate(843,514)" d="m0 0h31l11 1 6 5 5 10v20l-6 12-6 4-8 2-21 1-12-1-1-2h10v-51h-9zm17 2v50l1 1h13l7-2 5-5 3-11v-20l-4-10-4-3z" fill="#67686A"/>
<path transform="translate(1294,511)" d="m0 0h9l8 4 7 7 4 9 1 12-3 12-6 8-9 6-3 1h-10l-7-4-7-8-4-8-1-4v-9l3-10 6-9 9-6zm1 1-6 4-6 10-1 4v19l2 9 4 6 6 5h7l6-4 5-6 2-6 1-7v-11l-2-11-5-8-7-4z" fill="#67686A"/>
<path transform="translate(1403,231)" d="m0 0h11l5 3 3 4 1 6v17l-1 1h-24l-1-3v-22l2-5z" fill="#FEFEFE"/>
<path transform="translate(1668,511)" d="m0 0h9l9 4 7 8 3 7 1 14-2 9-5 9-9 6-7 2-10-1-6-4-6-7-4-10v-13l3-10 6-8 8-5zm-1 2-5 3-4 6-2 8v17l2 11 5 8 7 3 7-1 6-4 4-7 2-7v-19l-3-11-7-6-2-1z" fill="#67686A"/>
<path transform="translate(723,513)" d="m0 0h3l8 24 9 24 4 5 3 2h-20l3-2h2l-3-12-1-3-19-1-3 11-2 4 7 2v1h-17v-2l7-1 4-8 7-19 7-16z" fill="#67686A"/>
<path transform="translate(1474,513)" d="m0 0h2l5 18 7 20 3 10 7 7-5 1h-7l-4-2h3l-5-16-19-1-3 10-2 2 1-5 7-20 5-12 3-6z" fill="#67686A"/>
<path transform="translate(1744,208)" d="m0 0h5v66l-2 5-6 5-8 3h-12l-7-3-6-5-3-8v-13l3-11 2-3 3 1-2 15v11l3 7 5 3 4 1h8l9-3 3-5z" fill="#676769"/>
<path transform="translate(775,209)" d="m0 0h7l-1 53h21v-36h4l1 40-5 1h-27l-1-57z" fill="#67686A"/>
<path transform="translate(1193,231)" d="m0 0h13l7 3 1 7-4 8-9 10h-3l-6-5-7-10-2-5 1-4 5-3z" fill="#FEFEFE"/>
<path transform="translate(1388,513)" d="m0 0h5l-1 13h-3v-6l-1-4h-23l-1 50h8l1 2h-21l-5-1v-1l7-1 1-1v-47l-7-2v-1z" fill="#67686A"/>
<path transform="translate(1096,513)" d="m0 0h8l5 3 10 15 8 13 8 14 2 11-5-3-10-16-15-23-6-8-3-2 1 48 4 1v2h-13v-2h6v-49l-6-2v-1z" fill="#67686A"/>
<path transform="translate(746,226)" d="m0 0h6v40l-2 1h-31l-11-2-6-4-3-5v-14l2-6h3v16l3 7 7 2 32 1z" fill="#67686A"/>
<path transform="translate(1798,514)" d="m0 0h20l8 11 12 19 8 15 1 9-4-2-11-17-15-23-5-7-3-1 1 47 5 1-1 2-17-1v-1h10v-49l-9-2z" fill="#67686A"/>
<path transform="translate(213,417)" d="m0 0h14l15 8 2 3-5-2-11-4-4-2h-6l-10 2-12 14-9 9-9 11-12 11-7 9-31 31-7 8-15 15-2-3 4-3 2-4 26-26 7-8 14-14 8-7 7-7 7-8 10-10 7-8 13-14z" fill="#FEFEFE"/>
<path transform="translate(987,513)" d="m0 0h9l3 2-1 6v45l9 1v1h-28v-2l9-1 1-50h-2z" fill="#67686A"/>
<path transform="translate(768,514)" d="m0 0h19l-3 2-1 3v38l3 8 3 2h15l-2 2-5 1h-8l-8-2-5-6-2-9-1-38h-5z" fill="#67686A"/>
<path transform="translate(1604,511)" d="m0 0h7l11 3 2 3v10l-3-3-4-8-7-3-7 1-5 5-4 9v26l4 9 4 4 8 2v1h-7l-7-3-5-5-6-10-1-6v-9l2-9 6-10 9-6z" fill="#67686A"/>
<path transform="translate(922,514)" d="m0 0h23v1l-6 1v16l1 33 4 3h-22l-1-2 9-1v-49l-8-1z" fill="#67686A"/>
<path transform="translate(1540,511)" d="m0 0h7l12 3 2 2 1 11-3-3-4-7-6-3-7-1-5 2-4 5-3 8v24l3 9 4 5 2 1 11 1v1h-14l-6-4-7-9-2-5-1-13 3-12 6-9 5-4z" fill="#67686A"/>
<path transform="translate(1186,511)" d="m0 0h9l11 4 3 3 2 9-4-4-5-6-9-4-8 1-5 5-4 8v24l2 8 4 6 4 4-6-1-8-7-5-10-1-4v-13l4-10 7-8 6-4z" fill="#67686A"/>
<path transform="translate(1724,513)" d="m0 0 18 1-4 2v41l3 7 4 3 11 1v1l-12 1-9-3-3-3-2-7-1-16v-25l-5-1z" fill="#676769"/>
<path transform="translate(1893,513)" d="m0 0h9l3 2h-2v51h7l2 2h-26l-1-2 9-1 1-1v-48l-2-1z" fill="#67686A"/>
<path transform="translate(1953,513)" d="m0 0 2 1-4 5v11l16 5 8 3 4 4 2 9-2 10-8 7-3 1h-12l-10-3-2-7v-3l4 2 5 7 5 2h9l6-4 3-4v-8l-3-5-13-4-8-3-5-5v-13l4-6z" fill="#67686A"/>
<path transform="translate(1041,514)" d="m0 0h23v1l-8 1v49l7 2v1h-23l-1-2 8-1v-49l-6-1z" fill="#67686A"/>
<path transform="translate(255,695)" d="m0 0 5 1 23 13 22 13 23 13 9 6v3l-5-1-23-13-24-14-15-9-2-3-10-5-3-2z" fill="#8C3D43"/>
<path transform="translate(1029,209)" d="m0 0h6v58h-6z" fill="#67686A"/>
<path transform="translate(135,490)" d="m0 0h3l-2 5-25 25-2 5-4 2-5 5-4 2-6 6v2l4-1-6 7-4 6-2 7-5 1 2-6 4-6 1-2-3 2h-5l39-39 7-8z" fill="#6B6467"/>
<path transform="translate(1973,152)" d="m0 0h15l9 3 10 9 4 7 1 4v15l-4 9-7 8-9 5-4 1h-14l-9-4-8-7-5-9-1-4v-14l4-10 8-9zm5 1-9 2-8 5-6 9-2 6v14l3 9 7 8 9 5h17l9-4 9-9 3-7v-17l-4-8-6-7-8-4-10-2z" fill="#67686A"/>
<path transform="translate(184,433)" d="m0 0h2l-2 4-27 27-7 8-19 19-7 8-17 17-7 8-12 12-6 5h-2l-2 4-2 1 1-4 16-15 7-8 42-42 7-8 11-12 20-20z" fill="#FEFEFE"/>
<path transform="translate(1287,209)" d="m0 0h5v59h-5z" fill="#67686A"/>
<path transform="translate(198,661)" d="m0 0 5 2 24 14 28 16 2 2h-2v2l5 2 10 5v2l-6-2-52-30-15-9z" fill="#6B6264"/>
<path transform="translate(48,572)" d="m0 0 8 6 24 14 23 13 6 4-1 3-5-4-10-3-25-14-19-11v-4z" fill="#804A4F"/>
<path transform="translate(1471,526)" d="m0 0 2 2 7 21h-17l-1-2 5-14z" fill="#FEFEFE"/>
<path transform="translate(723,525)" d="m0 0 2 4 5 16 1 4h-17l1-7 7-16z" fill="#FEFEFE"/>
<path transform="translate(534,418)" d="m0 0 7 1 6 4v6l-6 5-7-1-4-5 1-5 2-1z" fill="#FEFEFE"/>
<path transform="translate(67,552)" d="m0 0h6l3 11-8 7-5-3-1-2v-8z" fill="#FEFEFE"/>
<path transform="translate(215,399)" d="m0 0 8 1 2 2v8l-2 2h-8l-6-3-1-4 5-5z" fill="#FEFEFE"/>
<path transform="translate(323,475)" d="m0 0h6l4 5v8l-3 2h-7l-3-3-1-7z" fill="#FEFEFE"/>
<path transform="translate(1193,548)" d="m0 0h23l-1 3-5 5-4 8-9 5-3-1 5-5 3-5 2-7h-8l-3-1z" fill="#67686A"/>
<path transform="translate(255,695)" d="m0 0 5 1 23 13 7 5v2l5 2 6 5-2 1-28-16-3-4-10-5-3-2z" fill="#83474C"/>
<path transform="translate(166,642)" d="m0 0 14 8 18 10-1 4-5-2-27-15-1-3h2z" fill="#6C6264"/>
<path transform="translate(73,589)" d="m0 0 5 2 25 14 6 4-1 3-5-4-10-3-10-6-3-3-8-5z" fill="#953239"/>
<path transform="translate(363,729)" d="m0 0h2v2l-24 13-1 1h-5l2-1v-3l-2-1 7-2 11-5 5-1z" fill="#686668"/>
<path transform="translate(1973,152)" d="m0 0h15l9 3 10 9 4 7-1 4-7-12-8-6-6-2-11-1-11 2 2-3z" fill="#686668"/>
<path transform="translate(309,726)" d="m0 0 5 1 20 12 3 2v3l-5-1-5-3-3-3-6-5-5-1-4-4z" fill="#8E3A41"/>
<path transform="translate(146,631)" d="m0 0 14 7 6 4v2l-4 1-17-10z" fill="#715C5F"/>
<path transform="translate(1760,514)" d="m0 0h15l-5 4-1 38-3 8h-3l3-5 1-9v-33l-7-2z" fill="#67686A"/>
<path transform="translate(198,661)" d="m0 0 5 2 13 8-4 2-5-2-10-6z" fill="#73595D"/>
<path transform="translate(1e3 514)" d="m0 0h16l2 5 1 11-2-1-3-9-8-4-6-1z" fill="#67686A"/>
<path transform="translate(1837,514)" d="m0 0h15l-2 4-3 35-2 4 2-29v-12l-10-1z" fill="#67686A"/>
<path transform="translate(1920,513)" d="m0 0 3 1v17l-2-1-3-12-8-3v-1z" fill="#67686A"/>
<path transform="translate(1126,514)" d="m0 0h15v2l-2 1-1 7-2 30h-1v-14l1-21-1-3-9-1z" fill="#67686A"/>
<path transform="translate(92,541)" d="m0 0 2 1-8 8-2 4-2 7-5 1 2-6 4-6 7-8z" fill="#FEFEFE"/>
<path transform="translate(219,674)" d="m0 0 4 1 20 11 7 4-1 3-6-3-3-3-8-3-4-4-6-2z" fill="#8E3A41"/>
<path transform="translate(1990,180)" d="m0 0 1 2-2 9-2-4-2-3h-11l-2 1v-3l4-1z" fill="#77787A"/>
<path transform="translate(95,605)" d="m0 0 10 3 3 2 2-1 1 4 8 4 1 2 5 2 1 2-6-2-17-10-8-5z" fill="#676769"/>
<path transform="translate(101,526)" d="m0 0h3l-1 4-6 3-7 7-2 5-5 2 2-4 7-8z" fill="#775F62"/>
<path transform="translate(57,583)" d="m0 0 5 1v2l5 1 1-2 5 3v3l10 6-1 2-21-12-4-2z" fill="#6E5F61"/>
<path transform="translate(84,598)" d="m0 0 9 4 3-1 13 8-1 3-5-4-10-3-9-5z" fill="#84454B"/>
<path transform="translate(255,695)" d="m0 0 5 1 16 9-1 3-5-1-2-3-10-5-3-2z" fill="#953239"/>
<path transform="translate(1883,513)" d="m0 0 3 1-4 3-4 4-1 9h-2v-12l2-4z" fill="#67686A"/>
<path transform="translate(212,391)" d="m0 0h11l3 3h-13l-3 1-5 8-1-2 5-8z" fill="#FEFEFE"/>
<path transform="translate(1957,511)" d="m0 0h9l11 4 2 2v5l-2 1-4-6-5-3-10-1-3-1z" fill="#676669"/>
<path transform="translate(1380,533)" d="m0 0 2 1-1 2-1 13h-2l-1-8-1-1-7-1v-2l8-1z" fill="#67686A"/>
<path transform="translate(972,513)" d="m0 0 7 1-5 5-4 7-2 4-1-3 2-5 2-8z" fill="#67686A"/>
<path transform="translate(154,472)" d="m0 0h2l-2 4-12 12-3-1 5-5z" fill="#775559"/>
<path transform="translate(458,358)" d="m0 0 6 2 6 4 1 4-2 3 3 1-3 1-2-5v-3l-3-1-1-2-6-1z" fill="#FEFEFE"/>
<path transform="translate(442,375)" d="m0 0h2l1 5-5 6-5 3-2-1 6-6z" fill="#FAFAFA"/>
<path transform="translate(213,412)" d="m0 0 10 1 4 3-17 1-2-2 3-1h3z" fill="#67686A"/>
<path transform="translate(1561,553)" d="m0 0h1v7l-2 5-2 2h-5l5-7z" fill="#67686A"/>
<path transform="translate(110,610)" d="m0 0 12 6 5 6-5-2-12-7z" fill="#90373E"/>
<path transform="translate(1623,554)" d="m0 0h2l-1 9-4 4-5 1 1-2h2l2-5z" fill="#67686A"/>
<path transform="translate(309,727)" d="m0 0 1 2 6 2 5 2 6 5-1 2-17-10z" fill="#6D6063"/>
<path transform="translate(1814,213)" d="m0 0h9l-2 5h-6z" fill="#67686A"/>
<path transform="translate(1852,276)" d="m0 0 5 1v6h-5l-1-1v-5z" fill="#67686A"/>
<path transform="translate(1873,276)" d="m0 0 5 1v5l-5 1-1-1v-5z" fill="#67686A"/>
<path transform="translate(283,713)" d="m0 0 7 3 5 2 6 5-2 1-16-9z" fill="#6E5F62"/>
<path transform="translate(1975,170)" d="m0 0h13l3 3-1 4-3-5-10 1h-3l-1-2z" fill="#67686A"/>
<path transform="translate(802,276)" d="m0 0 5 1v5l-5 1-1-5z" fill="#67686A"/>
<path transform="translate(1152,212)" d="m0 0 5 1-1 6h-4l-1-6z" fill="#67686A"/>
<path transform="translate(1655,277)" d="m0 0h6l1 4-1 1-7-1z" fill="#67686A"/>
<path transform="translate(349,737)" d="m0 0m-1 1 1 2-9 5h-5l2-1v-3l-2-1h5v2z" fill="#67686A"/>
<path transform="translate(252,695)" d="m0 0h3v2l5 2 10 5v2l-6-2-12-7z" fill="#686668"/>
<path transform="translate(1242,277)" d="m0 0h7l1 2-2 3-5-1z" fill="#67686A"/>
<path transform="translate(729,220)" d="m0 0 4 1 1 4-5 1-1-5z" fill="#67686A"/>
<path transform="translate(1163,212)" d="m0 0 4 1v5l-4 2-1-7z" fill="#67686A"/>
<path transform="translate(803,514)" d="m0 0h17l-5 5v-3l-12-1z" fill="#67686A"/>
<path transform="translate(348,735)" d="m0 0 3 1-5 4-7 3 2-4z" fill="#8A3E44"/>
<path transform="translate(58,580)" d="m0 0 8 4 2 4-6-2-5-5z" fill="#8C3C42"/>
<path transform="translate(1841,276)" d="m0 0h4v5l-5 1v-5z" fill="#67686A"/>
<path transform="translate(198,661)" d="m0 0 5 2 1 3-4 1-3-2z" fill="#775559"/>
<path transform="translate(1829,212)" d="m0 0 3 1v6h-3l-1-1v-5z" fill="#67686A"/>
</svg>
