<?xml version="1.0" encoding="UTF-8"?>
<svg version="1.1" viewBox="0 0 900 900" width="225" height="225" xmlns="http://www.w3.org/2000/svg">
<path transform="translate(0)" d="m0 0h900v900h-900z" fill="#FEFEFE"/>
<path transform="translate(212,409)" d="m0 0h8l4 3 1 4v56l10 1 4 3v7l-3 5-2 1h-22l-3-2-1-3-1-27-1-7-5-4-3-1h-9l-6 3-2 2-1 5-1 29-3 5-7 1-6-3v-56l6-3h5l2 2h7l7-2 11 1 7 2v-19z" fill="#191719"/>
<path transform="translate(472,430)" d="m0 0h14l8 3 5 4 4 7 1 30v14l-1 1h-14l-3-4-5 4-3 1h-14l-8-4-4-5-1-3v-12l4-6 10-5 20-4 1-4-3-3h-10l-6 5h-13v-6l4-6 9-6z" fill="#191719"/>
<path transform="translate(394,411)" d="m0 0h17v23l5-2 7-2h7l7 3 5 5 2 3 1 6v41l-2 1h-12l-2-1-1-38-1-3-2-1h-10l-3 2-1 4-1 36-1 1h-9l-6-1z" fill="#191719"/>
<path transform="translate(282,431)" d="m0 0h13l6 3 5 6 2 8v40l-1 1-15-1-2-40-3-2h-12l-1 4-1 35-1 3h-15v-56h14l2 4 4-2z" fill="#191719"/>
<path transform="translate(358,430)" d="m0 0h11l8 3 7 5 3 5v5l-4 1h-7l-5-3-6-3-8 1-1 5 9 3 13 3 6 4 4 5 1 3v7l-3 7-4 5-5 3-10 2-12-1-8-3-5-5-3-4-1-7 3-1 13 2 5 5 8 1 4-2 1-6-23-7-6-4-3-3-1-3v-7l3-7 5-5 6-3z" fill="#191719"/>
<path transform="translate(661,431)" d="m0 0 9 1 6 3 7 8 3 8 1 10-1 1h-42l2 11 4 6v2l5 2 3 1h8l7-3 5-5 4-5 4 1-2 6-7 8-5 3-12 2-10-3-6-5-5-9-1-3v-19l4-10 7-7 6-3z" fill="#191719"/>
<path transform="translate(514,415)" d="m0 0h16l1 16 9 1v12l-9 1v30l9 1v12l-1 1h-12l-7-1-5-6-1-3-1-34-6-1-1-11 7-2z" fill="#191719"/>
<path transform="translate(317,432)" d="m0 0h15l1 8v48l-1 1h-13l-2-1z" fill="#191719"/>
<path transform="translate(586,432)" d="m0 0h5l2 7 9-6 2-1h14l6 4 4 5 1 6v42h-6l-1-3v-31l-1-11-2-5-4-1h-10l-7 4-4 5-1 6-1 36h-6z" fill="#191719"/>
<path transform="translate(695,432)" d="m0 0 4 1 1 7 8-6 4-2h14l6 4 4 5 1 5v43h-6l-1-42-2-5-5-4h-10l-8 5-3 5-1 6-1 35h-6v-56z" fill="#191719"/>
<path transform="translate(657,437)" d="m0 0h10l6 3 5 6 3 10-2 1h-35l1-8 6-8z" fill="#FEFEFE"/>
<path transform="translate(551,412)" d="m0 0h6v76l-1 1h-5l-1-1v-58z" fill="#191719"/>
<path transform="translate(568,433)" d="m0 0h6l1 55-1 1h-6z" fill="#191719"/>
<path transform="translate(483,462)" d="m0 0h4v10l-4 4-7 2-8-1-1-1v-8l9-4z" fill="#FEFEFE"/>
<path transform="translate(317,411)" d="m0 0h15v13l-15-1z" fill="#191719"/>
<path transform="translate(568,412)" d="m0 0h6l1 2-1 6h-5l-1-1z" fill="#191719"/>
</svg>
